<?xml version="1.0" encoding="utf-8"?>
<!-- Generator: Adobe Illustrator 15.0.0, SVG Export Plug-In . SVG Version: 6.00 Build 0)  -->
<!DOCTYPE svg PUBLIC "-//W3C//DTD SVG 1.1//EN" "http://www.w3.org/Graphics/SVG/1.1/DTD/svg11.dtd">
<svg version="1.1" id="Layer_1" xmlns="http://www.w3.org/2000/svg" xmlns:xlink="http://www.w3.org/1999/xlink" x="0px" y="0px"
	 width="100px" height="100px" viewBox="0 0 100 100" enable-background="new 0 0 100 100" xml:space="preserve">
<path d="M6.52,26.824C-1.813,42.228-0.9,63.111,9.541,78.111c10.38,14.914,28.543,23.008,46.574,20.774
	c17.769-2.2,33.303-14.329,39.801-31.005c6.637-17.027,3.087-36.848-9.02-50.523C77.6,6.857,64.123,0.725,49.999,0.737
	C35.875,0.749,16.5,8.375,6.52,26.824z M55.348,81.439c0,1.744-1.654,1.814-2.93,1.814c-1.525,0-3.052,0-4.579,0
	c-1.044,0-2.516,0.256-3.283-0.626c-0.724-0.832-0.446-2.438-0.446-3.451c0-1.418,0-2.836,0-4.255c0-1.324,0.778-2.152,2.12-2.152
	c2.433,0,4.864,0,7.297,0c2.205,0,1.82,2.621,1.82,4.076C55.348,78.378,55.348,79.909,55.348,81.439
	C55.348,82.438,55.348,81.439,55.348,81.439z M69.986,41.682c-0.791,2.697-2.293,5.063-4.377,6.95
	c-2.23,2.021-4.674,3.877-6.744,6.066c-1.899,2.007-3.186,4.437-3.696,7.157c-0.317,1.695,0.022,4.597-2.392,4.597
	c-1.533,0-3.068,0-4.604,0c-1.366,0-3.139-0.095-3.083-1.968c0.139-4.688,0.771-9.498,3.872-13.235
	c3.616-4.377,9.76-6.956,10.355-13.229c0.265-2.791-0.242-5.545-1.93-7.83c-1.546-2.094-4.207-3.62-6.849-3.62
	c-2.346,0-4.76,0.504-6.643,1.976c-1.886,1.474-2.955,3.709-3.563,5.977c-0.446,1.661-0.256,5.005-2.459,5.453
	c-1.241,0.252-2.708,0.039-3.967,0.039c-1.057,0-2.889,0.326-3.781-0.407c-1.136-0.933-0.491-3.106-0.306-4.319
	c0.799-5.226,3.22-9.961,7.532-13.153c8.698-6.439,23.967-5.752,30.331,3.714C70.699,30.331,71.509,36.507,69.986,41.682
	C69.536,43.218,70.438,40.148,69.986,41.682z"/>
</svg>
