<?xml version="1.0" encoding="utf-8"?>
<!-- Generator: Adobe Illustrator 15.0.0, SVG Export Plug-In . SVG Version: 6.00 Build 0)  -->
<!DOCTYPE svg PUBLIC "-//W3C//DTD SVG 1.1//EN" "http://www.w3.org/Graphics/SVG/1.1/DTD/svg11.dtd">
<svg version="1.1" id="Layer_1" xmlns="http://www.w3.org/2000/svg" xmlns:xlink="http://www.w3.org/1999/xlink" x="0px" y="0px"
	 width="100px" height="100px" viewBox="0 0 100 100" enable-background="new 0 0 100 100" xml:space="preserve">
<path d="M247.744,42.003c-0.845-0.981-1.703-0.365-2.12-0.091c-0.416,0.274-5.859,4.339-5.859,4.339s-0.416-0.04-0.106-0.55
	c0.309-0.511,4.791-7.128,4.791-7.128s1.36-2.268,0.293-2.865c-1.067-0.596-1.721,0.098-2.209,0.776
	c-0.49,0.678-5.194,7.054-5.194,7.054s-0.88,0.571-0.579-0.334c0.303-0.906,3.052-8.644,3.052-8.644s1-2.248-0.631-2.704
	c-1.63-0.455-2.013,1.086-2.013,1.086l-3.213,8.973c0,0-0.991,0.762-0.944-0.198c0.048-0.961,0.158-8.867,0.158-8.867
	s-0.08-1.244-1.415-1.236c-1.333,0.009-1.378,1.479-1.378,1.479l-0.655,8.524c0,0-0.039,0.73-0.284,1.38
	c-0.245,0.652-1.146,2.116-1.146,2.116l-0.482,0.498c-0.021-0.008-0.04-0.016-0.062-0.022c0,0,0.021,0.007,0.06,0.025l-0.113,0.118
	c-0.169-0.059-0.269-0.083-0.269-0.083c-1.034-5.166-4.845-6.282-4.845-6.282s-1.526-0.104-1.473,1.013
	c0.051,1.116,0.584,0.533,1.724,2.917c1.14,2.387,1.112,4.334,1.156,5.055c0.042,0.722,0.514,3.012,1.466,4.23
	c0.949,1.22,1.414,1.863,1.414,1.863l-8.404,20.542l9.279,2.589l6.654-19.833c0,0,2.756-0.453,5.219-4.932l1.485-3.438
	c0,0,0.071-0.286,0.476-0.643c0.409-0.355,4.729-3.939,4.729-3.939S248.587,42.986,247.744,42.003z M232.157,52.438
	c-0.009-0.2-0.021-0.387-0.036-0.575c0.159-4.107-3.782-6.013-4.314-6.249l0.001-0.003
	C234.151,47.943,232.157,52.438,232.157,52.438z"/>
<path id="path5137" fill="#FFFFFF" d="M51.529,23.643c0.575,0.44,0.946,1.094,1.03,1.814l2.269,20.155l2.292,4.408l2.023,1.538
	l1.936-0.486l3.812-5.758c0.059-0.087,0.122-0.173,0.191-0.256l3.952-4.65c0.906-1.065,2.474-1.252,3.604-0.436
	c1.2,0.866,1.47,2.541,0.605,3.739l-3.65,5.033l-2.564,5.966c-0.045,0.101-0.094,0.198-0.149,0.296l-3.929,6.705L58.83,76.701
	c-0.351,1.286-1.596,2.11-2.919,1.944L45.02,77.263c-1.323-0.17-2.318-1.285-2.34-2.617l-0.063-4.275l-7.853-11.507L20.85,52.045
	c-1.256-0.62-1.821-2.105-1.293-3.404c0.555-1.374,2.116-2.035,3.485-1.476l13.066,5.34l0.835-1.25L26.512,36.107
	c-0.811-1.18-0.546-2.792,0.602-3.656c1.182-0.884,2.862-0.645,3.749,0.538l10.175,13.634l0.822-0.771l-6.719-18.005
	c-0.494-1.355,0.172-2.86,1.51-3.402c1.371-0.555,2.931,0.107,3.488,1.478l0.019,0.053l7.138,17.928l1.25-0.053l-1.317-17.899
	c-0.043-0.649,0.15-1.293,0.548-1.812C48.674,22.966,50.356,22.744,51.529,23.643L51.529,23.643z"/>
</svg>
