<?xml version="1.0" encoding="utf-8"?>
<!-- Generator: Adobe Illustrator 15.0.0, SVG Export Plug-In . SVG Version: 6.00 Build 0)  -->
<!DOCTYPE svg PUBLIC "-//W3C//DTD SVG 1.1//EN" "http://www.w3.org/Graphics/SVG/1.1/DTD/svg11.dtd">
<svg version="1.1" id="Layer_1" xmlns="http://www.w3.org/2000/svg" xmlns:xlink="http://www.w3.org/1999/xlink" x="0px" y="0px"
	 width="100px" height="100px" viewBox="0 0 100 100" enable-background="new 0 0 100 100" xml:space="preserve">
<path fill="#FFFFFF" d="M50,24.5c-14.083,0-25.5,11.417-25.5,25.5c0,14.084,11.417,25.5,25.5,25.5c14.084,0,25.5-11.416,25.5-25.5
	C75.5,35.917,64.084,24.5,50,24.5z M40.816,59.756l-2.147-2.853l2.407-2.048c1.173-1.005,1.76-2.233,1.76-3.686
	c0-0.875-0.525-1.89-1.569-3.043c-1.048-1.155-1.571-2.213-1.571-3.172c0-3.14,1.55-4.71,4.646-4.71
	c3.311,0,4.966,1.889,4.966,5.668C49.308,51.575,46.479,56.189,40.816,59.756z M53.854,59.756l-2.146-2.851l2.401-2.052
	c1.176-1.003,1.762-2.233,1.762-3.684c0-0.875-0.523-1.89-1.569-3.044c-1.047-1.154-1.571-2.212-1.571-3.171
	c0-3.14,1.55-4.71,4.644-4.71c3.314,0,4.971,1.89,4.971,5.67C62.347,51.575,59.516,56.189,53.854,59.756z"/>
</svg>
