<?xml version="1.0" encoding="utf-8"?>
<!-- Generator: Adobe Illustrator 15.0.0, SVG Export Plug-In . SVG Version: 6.00 Build 0)  -->
<!DOCTYPE svg PUBLIC "-//W3C//DTD SVG 1.1//EN" "http://www.w3.org/Graphics/SVG/1.1/DTD/svg11.dtd">
<svg version="1.1" id="Layer_1" xmlns="http://www.w3.org/2000/svg" xmlns:xlink="http://www.w3.org/1999/xlink" x="0px" y="0px"
	 width="100px" height="100px" viewBox="0 0 100 100" enable-background="new 0 0 100 100" xml:space="preserve">
<path fill="#FFFFFF" d="M50,22.244c-13.331,0-24.137,10.806-24.137,24.137c0,8.262,4.176,15.552,10.506,19.904l-0.035,0.026v10.511
	c0,2.103,2.062,0,2.062,0l6.789-6.788c1.556,0.315,3.167,0.482,4.815,0.482c13.331,0,24.137-10.806,24.137-24.135
	C74.137,33.05,63.331,22.244,50,22.244z M41.041,57.31l-2.186-2.904l2.448-2.086c1.195-1.023,1.793-2.273,1.793-3.751
	c0-0.892-0.534-1.925-1.597-3.099c-1.067-1.175-1.599-2.252-1.599-3.229c0-3.197,1.577-4.796,4.729-4.796
	c3.37,0,5.056,1.924,5.056,5.772C49.686,48.981,46.805,53.678,41.041,57.31z M54.315,57.31l-2.186-2.902l2.446-2.09
	c1.197-1.021,1.794-2.272,1.794-3.749c0-0.892-0.534-1.925-1.599-3.099c-1.066-1.175-1.599-2.252-1.599-3.229
	c0-3.197,1.577-4.795,4.728-4.795c3.372,0,5.059,1.924,5.059,5.772C62.961,48.983,60.078,53.678,54.315,57.31z"/>
</svg>
