<?xml version="1.0" encoding="utf-8"?>
<!-- Generator: Adobe Illustrator 15.0.0, SVG Export Plug-In . SVG Version: 6.00 Build 0)  -->
<!DOCTYPE svg PUBLIC "-//W3C//DTD SVG 1.1//EN" "http://www.w3.org/Graphics/SVG/1.1/DTD/svg11.dtd">
<svg version="1.1" id="Layer_1" xmlns="http://www.w3.org/2000/svg" xmlns:xlink="http://www.w3.org/1999/xlink" x="0px" y="0px"
	 width="100px" height="100px" viewBox="0 0 100 100" enable-background="new 0 0 100 100" xml:space="preserve">
<g>
	<path fill="#BBD4DD" d="M44.324,22.659c-11.292,0-20.445,9.154-20.445,20.445c0,11.292,9.153,20.445,20.445,20.445
		S64.77,54.396,64.77,43.104C64.77,31.813,55.616,22.659,44.324,22.659z M44.324,56.412c-7.35,0-13.309-5.958-13.309-13.308
		s5.958-13.309,13.309-13.309c7.352,0,13.309,5.958,13.309,13.309S51.676,56.412,44.324,56.412z"/>
	<path fill="#BBD4DD" d="M71.055,81.113c-0.67,0.523-1.562,0.508-1.988-0.037l-17-21.66c-0.43-0.547-0.232-1.416,0.438-1.941
		l4.397-3.453c0.67-0.524,1.562-0.51,1.99,0.037l17,21.658c0.43,0.547,0.232,1.418-0.438,1.941L71.055,81.113z"/>
</g>
</svg>
