<?xml version="1.0" encoding="iso-8859-1"?>
<!-- Generator: Adobe Illustrator 15.0.0, SVG Export Plug-In . SVG Version: 6.00 Build 0)  -->
<!DOCTYPE svg PUBLIC "-//W3C//DTD SVG 1.1//EN" "http://www.w3.org/Graphics/SVG/1.1/DTD/svg11.dtd">
<svg version="1.1" id="Layer_1" xmlns="http://www.w3.org/2000/svg" xmlns:xlink="http://www.w3.org/1999/xlink" x="0px" y="0px"
	 width="781px" height="525px" viewBox="0 0 781 525" style="enable-background:new 0 0 781 525;" xml:space="preserve">
<rect style="fill:#662D91;" width="781" height="525"/>
<g>
	<path style="fill:#856599;" d="M396.798,193.23h0.132c0.121,0.154,0.519,0.287,1.191,0.396c0.837,0.342,1.52,0.959,2.049,1.852
		c0.75,1.818,1.125,3.163,1.125,4.034v0.661c0,2.888-0.838,4.982-2.514,6.282c1.939,0.463,3.064,2.755,3.373,6.877v2.513
		c0,0.375,0.021,0.926,0.066,1.653l-0.199,0.132h-0.198l-0.265-0.198c-0.044-0.882-0.066-1.543-0.066-1.984v-2.38
		c0-1.653-0.506-3.351-1.52-5.092c-0.706-0.662-1.323-0.992-1.852-0.992h-0.066c0.043,0.948,0.066,1.653,0.066,2.116v2.513
		c0.088,2.182,0.131,3.417,0.131,3.703v0.132c-0.088,0.176-0.22,0.265-0.396,0.265c-0.066,0-0.176-0.088-0.33-0.265l0.066-0.463
		c-0.089-1.862-0.133-3.097-0.133-3.703v-3.968c-0.188,0-0.32-0.088-0.396-0.264v-0.198c0.088-0.176,0.198-0.265,0.33-0.265
		c-0.221-6.051-0.507-10.437-0.859-13.159L396.798,193.23z M397.326,194.156c0.266,3.218,0.508,7.208,0.729,11.969
		c1.719-1.168,2.578-3.042,2.578-5.621v-0.926c0-1.157-0.484-2.634-1.455-4.431c-0.727-0.661-1.277-0.992-1.652-0.992H397.326z"/>
	<path style="fill:#856599;" d="M410.801,197.793c0.264,0,0.396,0.154,0.396,0.463c0,0.265-1.455,0.573-4.365,0.926
		c0.266,0.937,0.552,3.802,0.86,8.596v0.199l0.265,0.066c1.906-0.265,3.141-0.396,3.703-0.396l0.132,0.198v0.198
		c-0.089,0.176-0.198,0.265-0.331,0.265c-1.652,0.132-2.887,0.287-3.703,0.463c0.045,0.088,0.066,0.154,0.066,0.198
		c0.133,2.271,0.331,4.894,0.596,7.869l4.827-0.793l0.198,0.264c0,0.397-0.463,0.595-1.389,0.595
		c-1.785,0.276-3.107,0.519-3.968,0.728c-0.242,0-0.44-1.433-0.595-4.298c-0.705-9.654-1.19-14.481-1.455-14.481v-0.529
		c0-0.066,0.088-0.154,0.265-0.265h0.132c0.045,0,0.199,0.154,0.463,0.463C407.582,198.521,408.883,198.278,410.801,197.793z
		 M409.478,193.429h0.132c0.066,0,0.154,0.088,0.266,0.265v0.132c-0.287,0.837-0.971,1.917-2.051,3.24h-0.264
		c-0.066,0-0.133-0.066-0.199-0.198v-0.198c0.805-1.069,1.466-2.127,1.984-3.174L409.478,193.429z"/>
	<path style="fill:#856599;" d="M418.769,194.156c0.088,0,0.397,0.154,0.926,0.463c1.852,0.165,2.777,0.32,2.777,0.463
		c0.044,0.077,0.065,0.165,0.065,0.264c0,0.066-0.088,0.155-0.264,0.265c-1.477-0.176-2.514-0.331-3.107-0.463
		c0.088,0.639,0.131,1.014,0.131,1.124c0,0.287-0.021,0.728-0.065,1.323c0.132,3.196,0.198,5.929,0.198,8.2v0.264
		c0.044,0.132,0.176,0.199,0.396,0.199h1.521c0.154,0,0.353-0.022,0.595-0.066c0.177,0.066,0.265,0.132,0.265,0.199v0.264
		c0,0.132-0.198,0.221-0.596,0.265c-0.088,0-0.131-0.022-0.131-0.066l-0.463,0.066h-1.125l-0.463-0.066
		c0.044,4.044,0.066,6.8,0.066,8.266c0,0.396,0.021,1.168,0.066,2.314l-0.331,0.198l-0.331-0.198l-0.132-8.729
		c0.044-0.242,0.065-0.44,0.065-0.595c-0.043-0.386-0.065-0.628-0.065-0.728c0-0.341,0.022-0.959,0.065-1.852
		c-0.131-4.519-0.22-7.12-0.264-7.803c0.044-0.32,0.066-0.738,0.066-1.256c0-0.529-0.089-1.08-0.266-1.653
		C418.493,194.432,418.625,194.211,418.769,194.156z"/>
	<path style="fill:#856599;" d="M427.547,193.892h0.066c0.066,0,0.154,0.088,0.264,0.265c0,0.22-0.043,0.331-0.131,0.331
		l0.065,0.132c0.309,4.805,0.463,8.861,0.463,12.167c0.132,1.069,0.198,2.546,0.198,4.431v5.753h3.57
		c0.066,0,0.133,0.066,0.199,0.198v0.198c0,0.177-0.375,0.265-1.125,0.265h-3.041c-0.066,0-0.154-0.088-0.265-0.265v-0.396
		c0-0.309,0.022-0.463,0.065-0.463l-0.065-0.793v-4.827c-0.177-5.808-0.353-10.635-0.528-14.482l-0.199-2.182
		C427.15,194.002,427.305,193.892,427.547,193.892z"/>
	<path style="fill:#856599;" d="M440.789,197.793c0.265,0,0.396,0.154,0.396,0.463c0,0.265-1.455,0.573-4.364,0.926
		c0.265,0.937,0.552,3.802,0.86,8.596v0.199l0.264,0.066c1.906-0.265,3.141-0.396,3.703-0.396l0.133,0.198v0.198
		c-0.089,0.176-0.199,0.265-0.331,0.265c-1.653,0.132-2.888,0.287-3.703,0.463c0.044,0.088,0.066,0.154,0.066,0.198
		c0.132,2.271,0.331,4.894,0.595,7.869l4.828-0.793l0.197,0.264c0,0.397-0.463,0.595-1.389,0.595
		c-1.785,0.276-3.107,0.519-3.967,0.728c-0.242,0-0.441-1.433-0.596-4.298c-0.705-9.654-1.189-14.481-1.455-14.481v-0.529
		c0-0.066,0.089-0.154,0.266-0.265h0.132c0.044,0,0.198,0.154,0.463,0.463C437.57,198.521,438.871,198.278,440.789,197.793z
		 M439.467,193.429h0.132c0.066,0,0.154,0.088,0.265,0.265v0.132c-0.287,0.837-0.97,1.917-2.05,3.24h-0.265
		c-0.066,0-0.133-0.066-0.198-0.198v-0.198c0.804-1.069,1.466-2.127,1.983-3.174L439.467,193.429z"/>
	<path style="fill:#856599;" d="M451.121,195.214h0.463c0.794,0.144,1.19,0.43,1.19,0.86c0,0.066-0.089,0.154-0.265,0.265h-0.264
		c-0.287-0.353-0.596-0.529-0.926-0.529c-1.103,0.386-1.654,0.739-1.654,1.058c-0.881,1.675-1.322,3.968-1.322,6.877v1.125
		c0,1.962,0.265,4.32,0.794,7.075c0.319,2.017,0.761,3.384,1.322,4.1c0.683,0.595,1.278,0.904,1.786,0.926
		c0.649,0,1.355-0.485,2.115-1.455h0.199c0.065,0,0.132,0.066,0.197,0.199v0.132c0,0.397-0.484,0.904-1.454,1.521
		c-0.408,0.177-0.782,0.265-1.124,0.265h-0.066c-0.65-0.077-1.334-0.43-2.05-1.058c-0.782-0.617-1.466-3.13-2.05-7.538
		c-0.221-0.948-0.331-2.513-0.331-4.695v-0.396c0.077-4.464,0.805-7.219,2.183-8.266
		C450.516,195.369,450.934,195.214,451.121,195.214z"/>
	<path style="fill:#856599;" d="M461.652,196.008h0.132c0.165,0,0.298,0.264,0.397,0.793c-0.045,1.069-0.066,1.884-0.066,2.446
		c0,4.166,0.221,8.266,0.661,12.3c0.22,2.777,0.44,4.673,0.661,5.687v0.066c0,0.066-0.066,0.132-0.198,0.198h-0.198
		c-0.354,0-0.64-1.829-0.859-5.488c-0.221-2.039-0.331-3.317-0.331-3.835c-0.044,0-0.066-0.022-0.066-0.066
		c-0.815,0.044-1.411,0.066-1.785,0.066h-0.661c-0.088,2.678-0.133,4.463-0.133,5.356c0,1.135,0.045,2.436,0.133,3.901l-0.265,0.198
		c-0.309,0-0.463-0.198-0.463-0.595c0-0.474-0.022-1.752-0.066-3.835c0.132-4.64,0.309-8.85,0.529-12.63v-0.198
		c0-0.275-0.022-0.606-0.066-0.992c0.044-0.176,0.066-0.331,0.066-0.463l-0.066-0.661c0.044-0.418,0.066-0.837,0.066-1.256
		c0-0.055-0.022-0.275-0.066-0.661l0.265-0.199h0.198c0.132,0,0.221,0.243,0.265,0.728c-0.044,0.771-0.066,1.256-0.066,1.455
		c0,0.529,0.022,1.543,0.066,3.042c-0.221,3.108-0.33,5.158-0.33,6.15h0.991c0.286,0,0.728-0.022,1.323-0.066v-0.264
		c-0.178-2.193-0.266-4.86-0.266-8.001c0-0.364,0.022-1.157,0.066-2.38c-0.088-0.209-0.132-0.408-0.132-0.595L461.652,196.008z"/>
	<path style="fill:#856599;" d="M469.471,195.148h0.133c0.309,0,0.463,1.168,0.463,3.505v0.859c0,0.86-0.133,3.086-0.396,6.679
		c0,0.177,0.021,0.353,0.066,0.529c-0.045,2.303-0.066,4.133-0.066,5.488v4.298c0,0.088,0.044,0.309,0.133,0.661
		c-0.057,0.309-0.145,0.463-0.266,0.463h-0.264c-0.177,0-0.266-0.595-0.266-1.786c0-7.648,0.133-12.917,0.397-15.804v-1.852
		c0-1.025-0.065-1.951-0.198-2.777C469.207,195.346,469.295,195.258,469.471,195.148z"/>
	<path style="fill:#856599;" d="M475.258,193.23h0.132c0.121,0.154,0.519,0.287,1.19,0.396c0.838,0.342,1.521,0.959,2.05,1.852
		c0.749,1.818,1.124,3.163,1.124,4.034v0.661c0,2.888-0.838,4.982-2.513,6.282c1.939,0.463,3.063,2.755,3.372,6.877v2.513
		c0,0.375,0.022,0.926,0.066,1.653l-0.198,0.132h-0.198l-0.265-0.198c-0.044-0.882-0.066-1.543-0.066-1.984v-2.38
		c0-1.653-0.507-3.351-1.521-5.092c-0.705-0.662-1.322-0.992-1.852-0.992h-0.066c0.044,0.948,0.066,1.653,0.066,2.116v2.513
		c0.088,2.182,0.132,3.417,0.132,3.703v0.132c-0.088,0.176-0.22,0.265-0.396,0.265c-0.066,0-0.177-0.088-0.331-0.265l0.066-0.463
		c-0.088-1.862-0.133-3.097-0.133-3.703v-3.968c-0.188,0-0.319-0.088-0.396-0.264v-0.198c0.088-0.176,0.199-0.265,0.331-0.265
		c-0.221-6.051-0.507-10.437-0.86-13.159L475.258,193.23z M475.786,194.156c0.265,3.218,0.507,7.208,0.728,11.969
		c1.719-1.168,2.579-3.042,2.579-5.621v-0.926c0-1.157-0.485-2.634-1.455-4.431c-0.728-0.661-1.278-0.992-1.653-0.992H475.786z"/>
</g>
<g>
	<path style="fill:#856599;" d="M156.298,220.23h0.132c0.121,0.154,0.518,0.287,1.19,0.396c0.837,0.342,1.521,0.959,2.05,1.852
		c0.749,1.818,1.124,3.163,1.124,4.034v0.661c0,2.888-0.838,4.982-2.513,6.282c1.939,0.463,3.063,2.755,3.373,6.877v2.513
		c0,0.375,0.022,0.926,0.066,1.653l-0.198,0.132h-0.199l-0.264-0.198c-0.044-0.882-0.066-1.543-0.066-1.984v-2.38
		c0-1.653-0.507-3.351-1.521-5.092c-0.706-0.662-1.323-0.992-1.852-0.992h-0.066c0.044,0.948,0.066,1.653,0.066,2.116v2.513
		c0.088,2.182,0.132,3.417,0.132,3.703v0.132c-0.088,0.176-0.22,0.265-0.396,0.265c-0.066,0-0.176-0.088-0.331-0.265l0.066-0.463
		c-0.088-1.862-0.132-3.097-0.132-3.703v-3.968c-0.188,0-0.32-0.088-0.396-0.264v-0.198c0.088-0.176,0.198-0.265,0.331-0.265
		c-0.221-6.051-0.507-10.437-0.86-13.159L156.298,220.23z M156.827,221.156c0.265,3.218,0.507,7.208,0.728,11.969
		c1.719-1.168,2.579-3.042,2.579-5.621v-0.926c0-1.157-0.485-2.634-1.455-4.431c-0.727-0.661-1.278-0.992-1.653-0.992H156.827z"/>
	<path style="fill:#856599;" d="M167.06,221.619c0.452,0.176,0.959,0.264,1.521,0.264c0.881-0.044,1.477-0.066,1.785-0.066
		l0.132,0.198v0.265c0,0.066-0.066,0.132-0.198,0.198c-0.243,0-0.86,0.022-1.852,0.066l-0.793-0.066
		c0.132,0.849,0.198,2.061,0.198,3.637c-0.265,3.846-0.396,6.117-0.396,6.811c0,0.11,0.926,0.242,2.777,0.396l0.199,0.265v0.132
		c-0.022,0.088-0.132,0.176-0.331,0.264c-0.694-0.132-1.598-0.198-2.711-0.198c-0.265,4.298-0.396,7.252-0.396,8.861v1.19
		c0.011,0.088,0.055,0.132,0.132,0.132h0.066l2.513-0.265v0.066l0.132-0.066h0.265c0.066,0,0.154,0.088,0.264,0.265v0.132
		c0,0.066-0.088,0.154-0.264,0.264h-0.662l-2.05,0.265c-0.088-0.044-0.154-0.066-0.198-0.066l-0.132,0.066
		c-0.452,0-0.694-0.265-0.728-0.793v-1.124c0-1.852,0.287-7.384,0.86-16.598v-0.265c0-2.05-0.132-3.373-0.397-3.968
		C166.795,221.817,166.884,221.729,167.06,221.619z"/>
	<path style="fill:#856599;" d="M180.831,221.883h0.265c0.066,0,0.132,0.088,0.198,0.265l-1.984,17.722
		c-0.165,3.13-0.297,4.695-0.396,4.695l-0.132,0.066h-0.198c-0.209,0-0.452-1.256-0.728-3.769
		c-1.146-7.274-1.719-13.093-1.719-17.458l-0.199-0.859c0-0.066,0.088-0.154,0.265-0.265h0.132c0.397,0,0.595,1.719,0.595,5.158
		c0.562,6.304,1.091,10.911,1.587,13.82h0.066c0-0.903,0.617-6.612,1.851-17.126C180.522,222.633,180.655,221.883,180.831,221.883z"
		/>
	<path style="fill:#856599;" d="M187.03,221.619c0.452,0.176,0.959,0.264,1.521,0.264c0.881-0.044,1.477-0.066,1.785-0.066
		l0.132,0.198v0.265c0,0.066-0.066,0.132-0.198,0.198c-0.243,0-0.86,0.022-1.852,0.066l-0.793-0.066
		c0.132,0.849,0.198,2.061,0.198,3.637c-0.265,3.846-0.396,6.117-0.396,6.811c0,0.11,0.926,0.242,2.777,0.396l0.199,0.265v0.132
		c-0.022,0.088-0.132,0.176-0.331,0.264c-0.694-0.132-1.598-0.198-2.711-0.198c-0.265,4.298-0.396,7.252-0.396,8.861v1.19
		c0.011,0.088,0.055,0.132,0.132,0.132h0.066l2.513-0.265v0.066l0.132-0.066h0.265c0.066,0,0.154,0.088,0.264,0.265v0.132
		c0,0.066-0.088,0.154-0.264,0.264h-0.662l-2.05,0.265c-0.088-0.044-0.154-0.066-0.198-0.066l-0.132,0.066
		c-0.452,0-0.694-0.265-0.728-0.793v-1.124c0-1.852,0.287-7.384,0.86-16.598v-0.265c0-2.05-0.132-3.373-0.397-3.968
		C186.766,221.817,186.854,221.729,187.03,221.619z"/>
	<path style="fill:#856599;" d="M195.61,220.23h0.132c0.121,0.154,0.518,0.287,1.19,0.396c0.837,0.342,1.521,0.959,2.05,1.852
		c0.749,1.818,1.124,3.163,1.124,4.034v0.661c0,2.888-0.838,4.982-2.513,6.282c1.939,0.463,3.063,2.755,3.373,6.877v2.513
		c0,0.375,0.022,0.926,0.066,1.653l-0.198,0.132h-0.199l-0.264-0.198c-0.044-0.882-0.066-1.543-0.066-1.984v-2.38
		c0-1.653-0.507-3.351-1.521-5.092c-0.706-0.662-1.323-0.992-1.852-0.992h-0.066c0.044,0.948,0.066,1.653,0.066,2.116v2.513
		c0.088,2.182,0.132,3.417,0.132,3.703v0.132c-0.088,0.176-0.22,0.265-0.396,0.265c-0.066,0-0.176-0.088-0.331-0.265l0.066-0.463
		c-0.088-1.862-0.132-3.097-0.132-3.703v-3.968c-0.188,0-0.32-0.088-0.396-0.264v-0.198c0.088-0.176,0.198-0.265,0.331-0.265
		c-0.221-6.051-0.507-10.437-0.86-13.159L195.61,220.23z M196.139,221.156c0.265,3.218,0.507,7.208,0.728,11.969
		c1.719-1.168,2.579-3.042,2.579-5.621v-0.926c0-1.157-0.485-2.634-1.455-4.431c-0.727-0.661-1.278-0.992-1.653-0.992H196.139z"/>
</g>
<g>
	<path style="fill:#856599;" d="M250.588,294.214h0.463c0.793,0.144,1.19,0.43,1.19,0.86c0,0.066-0.088,0.154-0.265,0.265h-0.264
		c-0.287-0.353-0.595-0.529-0.926-0.529c-1.102,0.386-1.653,0.739-1.653,1.058c-0.882,1.675-1.322,3.968-1.322,6.877v1.125
		c0,1.962,0.264,4.32,0.793,7.075c0.319,2.017,0.76,3.384,1.322,4.1c0.683,0.595,1.278,0.904,1.786,0.926
		c0.65,0,1.355-0.485,2.116-1.455h0.199c0.066,0,0.132,0.066,0.198,0.199v0.132c0,0.397-0.485,0.904-1.455,1.521
		c-0.408,0.177-0.783,0.265-1.125,0.265h-0.066c-0.65-0.077-1.333-0.43-2.05-1.058c-0.783-0.617-1.466-3.13-2.05-7.538
		c-0.22-0.948-0.331-2.513-0.331-4.695v-0.396c0.077-4.464,0.805-7.219,2.182-8.266C249.981,294.369,250.4,294.214,250.588,294.214z
		"/>
	<path style="fill:#856599;" d="M260.54,295.008h0.529c0.331,0,0.728,0.727,1.19,2.182c0.441,3.262,0.662,6.524,0.662,9.787
		c0,5.092-0.309,8.111-0.926,9.059c-0.342,0.397-0.65,0.595-0.926,0.595h-0.265c-1.201,0-1.973-1.917-2.314-5.753
		c-0.088-1.466-0.176-3.56-0.265-6.282v-1.256c0-2.689,0.419-5.069,1.257-7.142c-0.044-0.077-0.066-0.165-0.066-0.264
		L260.54,295.008z M258.82,303.472c0.143,4.486,0.32,7.55,0.529,9.191c0.364,2.205,0.893,3.307,1.587,3.307
		c0.881,0,1.322-2.954,1.322-8.861v-0.132c0-3.78-0.242-7.109-0.727-9.985c-0.353-0.881-0.595-1.322-0.728-1.322h-0.066
		c-0.793,0.507-1.389,2.469-1.786,5.885L258.82,303.472z"/>
	<path style="fill:#856599;" d="M268.591,293.354h0.264c0.122,0.044,0.937,1.587,2.447,4.629c0.485,1.355,0.926,2.766,1.323,4.232
		h0.132v-0.066c0-0.275,0.353-2.634,1.058-7.076c0-0.881,0.132-1.366,0.397-1.455h0.132c0.396,0,0.595,2.116,0.595,6.348
		c0,3.438,0.022,5.687,0.066,6.745c-0.044,0.364-0.066,1.576-0.066,3.637c0,0.199,0.022,0.485,0.066,0.86
		c0,0.044-0.022,0.11-0.066,0.198c0.044,0.981,0.066,1.775,0.066,2.381v1.785c0,0.188,0.022,0.43,0.066,0.728
		c-0.088,0.198-0.177,0.309-0.265,0.331c-0.221,0-0.397-0.132-0.529-0.397c0.044-0.44,0.066-0.771,0.066-0.992v-3.24l-0.066-0.396
		l0.066-0.132c0-0.242-0.022-0.662-0.066-1.256c0-1.246,0.022-2.348,0.066-3.307c-0.044-2.557-0.066-5.135-0.066-7.737v-1.388
		l-0.066-0.662h-0.066c0,0.243-0.221,1.719-0.662,4.431l-0.396,3.438l-0.132,0.066h-0.265c-0.154,0-0.396-0.992-0.727-2.976
		c-0.717-2.479-1.598-4.684-2.646-6.612h-0.066c0.309,2.755,0.595,6.723,0.86,11.902c-0.044,0.882-0.066,1.653-0.066,2.314v3.042
		c0,0.827-0.022,2.039-0.066,3.637l-0.199,0.132h-0.198c-0.099,0-0.188-0.154-0.265-0.463c0.044-1.113,0.066-1.928,0.066-2.447
		v-2.909c0-0.992,0.022-2.138,0.066-3.439c-0.264-5.323-0.617-9.908-1.058-13.754L268.591,293.354z"/>
	<path style="fill:#856599;" d="M280.874,293.42c2.061,0,3.472,0.948,4.232,2.844c0.132,0.43,0.221,0.937,0.265,1.521
		c0,2.755-0.485,5.775-1.455,9.059c-0.452,0.783-1.091,1.378-1.918,1.785c-0.529,0.033-0.793,0.1-0.793,0.199v0.066
		c0,0.584,0.022,1.069,0.066,1.455c-0.044,0.386-0.066,0.606-0.066,0.662c0.132,2.491,0.199,3.923,0.199,4.298
		c0.132,0.022,0.198,0.199,0.198,0.529v0.198c-0.132,0.342-0.265,0.54-0.397,0.595h-0.132c-0.066,0-0.154-0.088-0.264-0.265v-0.463
		c0-0.044,0.022-0.066,0.066-0.066c-0.077-0.43-0.143-1.003-0.198-1.719c0-0.044,0.022-0.066,0.066-0.066l-0.198-2.777
		c0.044-0.44,0.066-0.771,0.066-0.992c-0.044-0.804-0.066-1.312-0.066-1.521c-0.176-0.088-0.265-0.198-0.265-0.331
		c0.044-0.176,0.132-0.265,0.265-0.265c-0.088-1.168-0.132-1.873-0.132-2.116l0.331-12.035c-0.088,0-0.132-0.044-0.132-0.132v-0.198
		C280.609,293.619,280.697,293.531,280.874,293.42z M281.403,294.082l-0.331,11.969c0.044,0.926,0.066,1.565,0.066,1.917
		l0.132,0.066c0.507,0,1.014-0.265,1.521-0.794c0.76-0.484,1.377-3.196,1.851-8.133c0.044-0.804,0.066-1.333,0.066-1.587
		c0-1.146-0.661-2.182-1.984-3.108C282.339,294.28,281.898,294.17,281.403,294.082z"/>
	<path style="fill:#856599;" d="M289.255,292.23h0.132c0.121,0.154,0.518,0.287,1.19,0.396c0.837,0.342,1.521,0.959,2.05,1.852
		c0.749,1.818,1.124,3.163,1.124,4.034v0.661c0,2.888-0.838,4.982-2.513,6.282c1.939,0.463,3.063,2.755,3.373,6.877v2.513
		c0,0.375,0.022,0.926,0.066,1.653l-0.198,0.132h-0.199l-0.264-0.198c-0.044-0.882-0.066-1.543-0.066-1.984v-2.38
		c0-1.653-0.507-3.351-1.521-5.092c-0.706-0.662-1.323-0.992-1.852-0.992h-0.066c0.044,0.948,0.066,1.653,0.066,2.116v2.513
		c0.088,2.182,0.132,3.417,0.132,3.703v0.132c-0.088,0.176-0.22,0.265-0.396,0.265c-0.066,0-0.176-0.088-0.331-0.265l0.066-0.463
		c-0.088-1.862-0.132-3.097-0.132-3.703v-3.968c-0.188,0-0.32-0.088-0.396-0.264v-0.198c0.088-0.176,0.198-0.265,0.331-0.265
		c-0.221-6.051-0.507-10.437-0.86-13.159L289.255,292.23z M289.784,293.156c0.265,3.218,0.507,7.208,0.728,11.969
		c1.719-1.168,2.579-3.042,2.579-5.621v-0.926c0-1.157-0.485-2.634-1.455-4.431c-0.727-0.661-1.278-0.992-1.653-0.992H289.784z"/>
	<path style="fill:#856599;" d="M300.017,293.619c0.452,0.176,0.959,0.264,1.521,0.264c0.881-0.044,1.477-0.066,1.785-0.066
		l0.132,0.198v0.265c0,0.066-0.066,0.132-0.198,0.198c-0.243,0-0.86,0.022-1.852,0.066l-0.793-0.066
		c0.132,0.849,0.198,2.061,0.198,3.637c-0.265,3.846-0.396,6.117-0.396,6.811c0,0.11,0.926,0.242,2.777,0.396l0.199,0.265v0.132
		c-0.022,0.088-0.132,0.176-0.331,0.264c-0.694-0.132-1.598-0.198-2.711-0.198c-0.265,4.298-0.396,7.252-0.396,8.861v1.19
		c0.011,0.088,0.055,0.132,0.132,0.132h0.066l2.513-0.265v0.066l0.132-0.066h0.265c0.066,0,0.154,0.088,0.264,0.265v0.132
		c0,0.066-0.088,0.154-0.264,0.264h-0.662l-2.05,0.265c-0.088-0.044-0.154-0.066-0.198-0.066l-0.132,0.066
		c-0.452,0-0.694-0.265-0.728-0.793v-1.124c0-1.852,0.287-7.384,0.86-16.598v-0.265c0-2.05-0.132-3.373-0.397-3.968
		C299.752,293.817,299.841,293.729,300.017,293.619z"/>
	<path style="fill:#856599;" d="M313.044,294.082h0.199l0.264,0.264c-0.088,0.485-0.132,1.036-0.132,1.653
		c0,1.124,0.485,5.268,1.455,12.432l0.595,6.745c-0.066,0.22-0.221,0.331-0.463,0.331c-0.221,0-0.639-1.565-1.256-4.695
		c-0.397-1.432-1.168-4.54-2.314-9.324c-0.661-1.895-1.146-3.571-1.455-5.025h-0.066l0.066,0.793c0,0.882-0.088,3.571-0.264,8.067
		c0.088,4.045,0.264,7.682,0.529,10.911v0.132c-0.066,0.177-0.221,0.265-0.463,0.265l-0.265-0.198l0.066-0.595
		c-0.265-2.876-0.441-6.359-0.529-10.448c0.176-4.387,0.265-7.032,0.265-7.936c0-0.209-0.022-0.716-0.066-1.521
		c0.044-0.088,0.066-0.154,0.066-0.199c-0.044-0.176-0.066-0.353-0.066-0.529c0-0.705,0.11-1.058,0.331-1.058
		c0.408,0,0.738,0.728,0.992,2.182c1.499,4.959,2.645,9.302,3.438,13.027c0.265,0.97,0.397,1.499,0.397,1.587h0.066
		c-0.22-2.127-0.727-6.271-1.521-12.432c-0.088-0.617-0.155-1.477-0.199-2.579c0.044-0.849,0.066-1.4,0.066-1.653L313.044,294.082z"
		/>
	<path style="fill:#856599;" d="M320.136,293.685h0.397c0.209,0.221,0.738,0.463,1.587,0.728c1.256,0.783,2.138,1.884,2.645,3.306
		c0.44,1.477,0.661,2.645,0.661,3.505v1.983c0,0.177,0.022,0.353,0.066,0.529c-0.298,4.354-0.694,7.064-1.19,8.133
		c0,0.485-0.463,1.653-1.389,3.505c-0.573,0.837-0.926,1.256-1.058,1.256c-0.309-0.066-0.463-0.154-0.463-0.265v-0.264
		c0.22-0.342,0.331-0.65,0.331-0.926c-0.088-0.176-0.132-0.309-0.132-0.397c0.044-0.132,0.088-0.198,0.132-0.198
		c-0.044-0.573-0.066-1.036-0.066-1.389c0-10.933-0.595-17.303-1.786-19.11v-0.132C319.872,293.883,319.96,293.795,320.136,293.685z
		 M320.93,294.677v0.066c0.926,2.843,1.389,8.971,1.389,18.383v0.265c0.044,0.882,0.066,1.367,0.066,1.455
		c0.749-1.124,1.389-3.02,1.917-5.687c0.22-1.455,0.396-3.24,0.529-5.356c0-3.46-0.396-5.753-1.19-6.877
		C323.156,295.912,322.252,295.162,320.93,294.677z"/>
	<path style="fill:#856599;" d="M330.253,292.23h0.132c0.121,0.154,0.518,0.287,1.19,0.396c0.837,0.342,1.521,0.959,2.05,1.852
		c0.749,1.818,1.124,3.163,1.124,4.034v0.661c0,2.888-0.838,4.982-2.513,6.282c1.939,0.463,3.063,2.755,3.373,6.877v2.513
		c0,0.375,0.022,0.926,0.066,1.653l-0.198,0.132h-0.199l-0.264-0.198c-0.044-0.882-0.066-1.543-0.066-1.984v-2.38
		c0-1.653-0.507-3.351-1.521-5.092c-0.706-0.662-1.323-0.992-1.852-0.992h-0.066c0.044,0.948,0.066,1.653,0.066,2.116v2.513
		c0.088,2.182,0.132,3.417,0.132,3.703v0.132c-0.088,0.176-0.22,0.265-0.396,0.265c-0.066,0-0.176-0.088-0.331-0.265l0.066-0.463
		c-0.088-1.862-0.132-3.097-0.132-3.703v-3.968c-0.188,0-0.32-0.088-0.396-0.264v-0.198c0.088-0.176,0.198-0.265,0.331-0.265
		c-0.221-6.051-0.507-10.437-0.86-13.159L330.253,292.23z M330.782,293.156c0.265,3.218,0.507,7.208,0.728,11.969
		c1.719-1.168,2.579-3.042,2.579-5.621v-0.926c0-1.157-0.485-2.634-1.455-4.431c-0.727-0.661-1.278-0.992-1.653-0.992H330.782z"/>
	<path style="fill:#856599;" d="M341.016,293.619c0.452,0.176,0.959,0.264,1.521,0.264c0.881-0.044,1.477-0.066,1.785-0.066
		l0.132,0.198v0.265c0,0.066-0.066,0.132-0.198,0.198c-0.243,0-0.86,0.022-1.852,0.066l-0.793-0.066
		c0.132,0.849,0.198,2.061,0.198,3.637c-0.265,3.846-0.396,6.117-0.396,6.811c0,0.11,0.926,0.242,2.777,0.396l0.199,0.265v0.132
		c-0.022,0.088-0.132,0.176-0.331,0.264c-0.694-0.132-1.598-0.198-2.711-0.198c-0.265,4.298-0.396,7.252-0.396,8.861v1.19
		c0.011,0.088,0.055,0.132,0.132,0.132h0.066l2.513-0.265v0.066l0.132-0.066h0.265c0.066,0,0.154,0.088,0.264,0.265v0.132
		c0,0.066-0.088,0.154-0.264,0.264h-0.662l-2.05,0.265c-0.088-0.044-0.154-0.066-0.198-0.066l-0.132,0.066
		c-0.452,0-0.694-0.265-0.728-0.793v-1.124c0-1.852,0.287-7.384,0.86-16.598v-0.265c0-2.05-0.132-3.373-0.397-3.968
		C340.751,293.817,340.839,293.729,341.016,293.619z"/>
</g>
<g>
	<path style="fill:#FFFFFF;" d="M103.553,85.805h0.62c0.284,0.104,2.197,3.722,5.738,10.855c1.137,3.179,2.171,6.488,3.102,9.925
		h0.311v-0.155c0-0.646,0.827-6.177,2.481-16.594c0-2.067,0.311-3.205,0.931-3.412h0.31c0.931,0,1.396,4.962,1.396,14.888
		c0,8.064,0.051,13.337,0.155,15.818c-0.104,0.853-0.155,3.696-0.155,8.529c0,0.465,0.051,1.138,0.155,2.016
		c0,0.104-0.052,0.258-0.155,0.465c0.103,2.301,0.155,4.162,0.155,5.583v4.187c0,0.44,0.052,1.008,0.155,1.706
		c-0.207,0.465-0.414,0.724-0.621,0.775c-0.517,0-0.93-0.31-1.24-0.931c0.103-1.033,0.155-1.809,0.155-2.326v-7.599l-0.155-0.931
		l0.155-0.31c0-0.568-0.052-1.551-0.155-2.946c0-2.921,0.051-5.505,0.155-7.754c-0.104-5.996-0.155-12.044-0.155-18.144v-3.257
		l-0.155-1.551h-0.155c0,0.569-0.517,4.032-1.551,10.391l-0.93,8.064l-0.31,0.155h-0.621c-0.362,0-0.931-2.326-1.706-6.979
		c-1.68-5.815-3.748-10.984-6.203-15.508h-0.155c0.723,6.462,1.396,15.767,2.016,27.915c-0.104,2.068-0.155,3.877-0.155,5.428v7.133
		c0,1.938-0.052,4.782-0.155,8.53l-0.465,0.31h-0.465c-0.233,0-0.44-0.362-0.621-1.085c0.103-2.61,0.155-4.523,0.155-5.738v-6.823
		c0-2.326,0.051-5.014,0.155-8.064c-0.621-12.484-1.448-23.236-2.481-32.256L103.553,85.805z"/>
	<path style="fill:#FFFFFF;" d="M135.306,87.472h0.155c1.473,0.672,2.727,2.495,3.761,5.467c2.869,8.892,4.988,20.251,6.358,34.079
		c0.904,4.497,1.357,8.439,1.357,11.825c-0.13,0.336-0.479,0.504-1.047,0.504c-0.414-0.801-1.034-4.91-1.861-12.329
		c-0.233-0.801-0.75-4.226-1.551-10.274l-1.202-0.155c-5.583,0.517-8.374,1.085-8.374,1.706v6.009l-1.047,14.383
		c0.232,0.362,0.349,0.698,0.349,1.008c0,0.181-0.232,0.414-0.698,0.698c-0.905,0-1.357-0.568-1.357-1.706
		c0.801-10.907,1.202-17.472,1.202-19.695c-0.104-1.421-0.155-2.856-0.155-4.304c0.051-7.444,0.672-15.314,1.861-23.611
		C133.548,88.673,134.298,87.472,135.306,87.472z M135.306,89.526c-1.499,5.79-2.249,13.273-2.249,22.448
		c-0.104,0-0.155,1.254-0.155,3.761v0.504c3.256-0.904,6.397-1.357,9.421-1.357v-0.194c0-3.153-1.719-10.623-5.156-22.409
		C136.417,90.651,135.796,89.734,135.306,89.526z"/>
	<path style="fill:#FFFFFF;" d="M169.578,87.51h0.465l0.621,0.621c-0.208,1.138-0.31,2.43-0.31,3.877
		c0,2.636,1.137,12.355,3.412,29.155l1.396,15.818c-0.155,0.517-0.517,0.775-1.085,0.775c-0.518,0-1.5-3.67-2.946-11.011
		c-0.931-3.36-2.74-10.648-5.428-21.866c-1.551-4.445-2.688-8.375-3.412-11.786h-0.155l0.155,1.861c0,2.068-0.207,8.375-0.62,18.92
		c0.207,9.486,0.62,18.015,1.241,25.588v0.311c-0.155,0.414-0.518,0.62-1.086,0.62l-0.62-0.465l0.155-1.396
		c-0.621-6.746-1.034-14.913-1.241-24.502c0.413-10.287,0.62-16.49,0.62-18.61c0-0.491-0.052-1.68-0.155-3.567
		c0.103-0.207,0.155-0.361,0.155-0.465c-0.104-0.413-0.155-0.827-0.155-1.24c0-1.654,0.258-2.481,0.775-2.481
		c0.956,0,1.731,1.706,2.326,5.118c3.515,11.631,6.203,21.814,8.064,30.551c0.62,2.274,0.931,3.515,0.931,3.722h0.155
		c-0.517-4.988-1.706-14.707-3.567-29.155c-0.207-1.447-0.362-3.463-0.465-6.048c0.103-1.99,0.155-3.282,0.155-3.877L169.578,87.51z
		"/>
	<path style="fill:#FFFFFF;" d="M189.08,87.666h0.311c0.723,0,1.085,2.74,1.085,8.219v2.016c0,2.016-0.31,7.237-0.931,15.663
		c0,0.414,0.052,0.827,0.155,1.241c-0.104,5.402-0.155,9.692-0.155,12.872v10.08c0,0.207,0.103,0.724,0.31,1.551
		c-0.129,0.724-0.336,1.085-0.62,1.085h-0.62c-0.414,0-0.621-1.396-0.621-4.187c0-17.938,0.31-30.292,0.931-37.064v-4.342
		c0-2.404-0.155-4.575-0.465-6.514C188.459,88.131,188.666,87.924,189.08,87.666z"/>
	<path style="fill:#FFFFFF;" d="M204.82,85.339c0.207,0,0.931,0.362,2.171,1.085c4.342,0.388,6.513,0.75,6.513,1.085
		c0.103,0.181,0.155,0.388,0.155,0.621c0,0.155-0.208,0.362-0.621,0.62c-3.464-0.413-5.893-0.775-7.289-1.085
		c0.207,1.5,0.31,2.378,0.31,2.636c0,0.672-0.052,1.706-0.155,3.102c0.311,7.496,0.465,13.906,0.465,19.23v0.62
		c0.103,0.311,0.413,0.465,0.931,0.465h3.567c0.361,0,0.827-0.051,1.396-0.155c0.413,0.155,0.62,0.31,0.62,0.465v0.62
		c0,0.31-0.465,0.517-1.396,0.62c-0.207,0-0.31-0.051-0.31-0.155l-1.085,0.155h-2.637l-1.085-0.155
		c0.103,9.486,0.155,15.948,0.155,19.385c0,0.931,0.051,2.74,0.155,5.428l-0.775,0.465l-0.775-0.465l-0.31-20.47
		c0.103-0.568,0.155-1.034,0.155-1.396c-0.104-0.904-0.155-1.473-0.155-1.706c0-0.801,0.052-2.249,0.155-4.342
		c-0.31-10.597-0.518-16.697-0.621-18.299c0.103-0.75,0.155-1.731,0.155-2.947c0-1.241-0.207-2.533-0.62-3.877
		C204.174,85.986,204.484,85.469,204.82,85.339z"/>
	<path style="fill:#FFFFFF;" d="M226.57,86.425c1.06,0.414,2.249,0.621,3.567,0.621c2.067-0.103,3.463-0.155,4.187-0.155l0.31,0.465
		v0.62c0,0.155-0.155,0.31-0.465,0.465c-0.569,0-2.016,0.052-4.342,0.155l-1.861-0.155c0.31,1.991,0.465,4.833,0.465,8.529
		c-0.62,9.021-0.93,14.345-0.93,15.973c0,0.259,2.171,0.569,6.513,0.931l0.465,0.62v0.311c-0.052,0.207-0.31,0.414-0.775,0.62
		c-1.628-0.31-3.748-0.465-6.358-0.465c-0.62,10.08-0.93,17.007-0.93,20.781v2.792c0.025,0.207,0.129,0.31,0.31,0.31h0.155
		l5.893-0.62v0.155l0.31-0.155h0.621c0.155,0,0.362,0.207,0.62,0.62v0.31c0,0.155-0.207,0.362-0.62,0.621h-1.551l-4.808,0.62
		c-0.207-0.103-0.362-0.155-0.465-0.155l-0.31,0.155c-1.06,0-1.628-0.62-1.706-1.861v-2.636c0-4.342,0.671-17.317,2.016-38.925
		v-0.62c0-4.808-0.31-7.909-0.93-9.305C225.95,86.89,226.157,86.684,226.57,86.425z"/>
	<path style="fill:#FFFFFF;" d="M254.717,88.015l0.465,0.582v0.271c0,0.13-0.258,0.375-0.775,0.737h-1.551
		c-2.74,0-4.601,1.021-5.583,3.063c-0.828,2.249-1.241,4.756-1.241,7.521c0,1.706,0.723,4.472,2.171,8.297
		c0.517,1.034,3.308,3.838,8.375,8.413c2.584,3.722,3.877,7.393,3.877,11.011c0,2.869-0.62,5.674-1.861,8.413
		c-0.569,1.292-2.12,2.404-4.652,3.334c-0.905,0.492-1.628,0.737-2.171,0.737c-0.542,0-0.905-0.194-1.085-0.582v-0.426
		c0-0.284,0.568-0.478,1.706-0.582c3.412-1.292,5.118-2.649,5.118-4.071c0.93-1.861,1.396-4.277,1.396-7.25
		c0-3.903-1.758-7.728-5.273-11.476c-2.766-2.094-4.833-4.123-6.203-6.087c-0.93-1.008-1.861-3.67-2.792-7.987
		c0-0.517-0.052-1.188-0.155-2.016c0-3.308,0.62-6.255,1.861-8.84C247.764,89.036,250.555,88.015,254.717,88.015z"/>
	<path style="fill:#FFFFFF;" d="M283.213,89.914l0.465,0.543v0.388c0,0.44-1.448,0.659-4.342,0.659h-4.342
		c-0.155,0-0.31,0.181-0.465,0.542l0.31,7.095c-0.104,0.646-0.155,1.008-0.155,1.085c0.93,15.638,1.396,26.842,1.396,33.613
		c0.103,0.181,0.155,0.324,0.155,0.427c-0.104,0.155-0.155,0.285-0.155,0.388l0.155,0.93c-0.155,0.362-0.311,0.543-0.465,0.543
		h-0.621c-0.104,0-0.31-0.181-0.62-0.543c0-0.18,0.051-0.672,0.155-1.473c0-2.223-0.465-13.388-1.396-33.497
		c0-3.282-0.104-6.268-0.31-8.956l-0.31-0.155h-0.465l-4.962,0.426c-0.311-0.335-0.465-0.737-0.465-1.202
		c0-0.155,0.207-0.336,0.62-0.543c0.724,0.181,1.137,0.271,1.241,0.271c1.99-0.181,3.386-0.271,4.187-0.271h6.358
		C280.499,90.186,281.842,90.095,283.213,89.914z"/>
	<path style="fill:#FFFFFF;" d="M297.674,87.472h0.155c1.473,0.672,2.727,2.495,3.761,5.467c2.869,8.892,4.988,20.251,6.358,34.079
		c0.904,4.497,1.357,8.439,1.357,11.825c-0.13,0.336-0.479,0.504-1.047,0.504c-0.414-0.801-1.034-4.91-1.861-12.329
		c-0.233-0.801-0.75-4.226-1.551-10.274l-1.202-0.155c-5.583,0.517-8.374,1.085-8.374,1.706v6.009l-1.047,14.383
		c0.232,0.362,0.349,0.698,0.349,1.008c0,0.181-0.232,0.414-0.698,0.698c-0.905,0-1.357-0.568-1.357-1.706
		c0.801-10.907,1.202-17.472,1.202-19.695c-0.104-1.421-0.155-2.856-0.155-4.304c0.051-7.444,0.672-15.314,1.861-23.611
		C295.916,88.673,296.666,87.472,297.674,87.472z M297.674,89.526c-1.499,5.79-2.249,13.273-2.249,22.448
		c-0.104,0-0.155,1.254-0.155,3.761v0.504c3.256-0.904,6.397-1.357,9.421-1.357v-0.194c0-3.153-1.719-10.623-5.156-22.409
		C298.785,90.651,298.165,89.734,297.674,89.526z"/>
	<path style="fill:#FFFFFF;" d="M335.746,89.914l0.465,0.543v0.388c0,0.44-1.448,0.659-4.342,0.659h-4.342
		c-0.155,0-0.31,0.181-0.465,0.542l0.31,7.095c-0.104,0.646-0.155,1.008-0.155,1.085c0.93,15.638,1.396,26.842,1.396,33.613
		c0.103,0.181,0.155,0.324,0.155,0.427c-0.104,0.155-0.155,0.285-0.155,0.388l0.155,0.93c-0.155,0.362-0.311,0.543-0.465,0.543
		h-0.621c-0.104,0-0.31-0.181-0.62-0.543c0-0.18,0.051-0.672,0.155-1.473c0-2.223-0.465-13.388-1.396-33.497
		c0-3.282-0.104-6.268-0.31-8.956l-0.31-0.155h-0.465l-4.962,0.426c-0.311-0.335-0.465-0.737-0.465-1.202
		c0-0.155,0.207-0.336,0.62-0.543c0.724,0.181,1.137,0.271,1.241,0.271c1.99-0.181,3.386-0.271,4.187-0.271h6.358
		C333.032,90.186,334.375,90.095,335.746,89.914z"/>
	<path style="fill:#FFFFFF;" d="M348.269,87.666h0.311c0.723,0,1.085,2.74,1.085,8.219v2.016c0,2.016-0.31,7.237-0.931,15.663
		c0,0.414,0.052,0.827,0.155,1.241c-0.104,5.402-0.155,9.692-0.155,12.872v10.08c0,0.207,0.103,0.724,0.31,1.551
		c-0.129,0.724-0.336,1.085-0.62,1.085h-0.62c-0.414,0-0.621-1.396-0.621-4.187c0-17.938,0.31-30.292,0.931-37.064v-4.342
		c0-2.404-0.155-4.575-0.465-6.514C347.648,88.131,347.855,87.924,348.269,87.666z"/>
	<path style="fill:#FFFFFF;" d="M368.235,89.682h1.24c0.775,0,1.706,1.706,2.792,5.118c1.033,7.651,1.551,15.301,1.551,22.952
		c0,11.941-0.725,19.023-2.171,21.246c-0.802,0.93-1.525,1.396-2.172,1.396h-0.62c-2.817,0-4.627-4.497-5.428-13.492
		c-0.207-3.438-0.414-8.349-0.62-14.733v-2.946c0-6.306,0.981-11.889,2.946-16.749c-0.104-0.181-0.155-0.388-0.155-0.621
		L368.235,89.682z M364.203,109.532c0.336,10.52,0.749,17.705,1.24,21.556c0.854,5.169,2.094,7.754,3.723,7.754
		c2.067,0,3.102-6.926,3.102-20.781v-0.31c0-8.865-0.569-16.671-1.706-23.417c-0.827-2.067-1.396-3.102-1.706-3.102H368.7
		c-1.86,1.189-3.257,5.79-4.187,13.802L364.203,109.532z"/>
	<path style="fill:#FFFFFF;" d="M396.383,87.51h0.465l0.62,0.621c-0.207,1.138-0.31,2.43-0.31,3.877
		c0,2.636,1.137,12.355,3.411,29.155l1.396,15.818c-0.155,0.517-0.518,0.775-1.086,0.775c-0.518,0-1.499-3.67-2.946-11.011
		c-0.931-3.36-2.74-10.648-5.428-21.866c-1.551-4.445-2.688-8.375-3.412-11.786h-0.155l0.155,1.861c0,2.068-0.207,8.375-0.62,18.92
		c0.206,9.486,0.62,18.015,1.24,25.588v0.311c-0.155,0.414-0.517,0.62-1.085,0.62l-0.621-0.465l0.155-1.396
		c-0.62-6.746-1.034-14.913-1.24-24.502c0.413-10.287,0.62-16.49,0.62-18.61c0-0.491-0.052-1.68-0.155-3.567
		c0.104-0.207,0.155-0.361,0.155-0.465c-0.104-0.413-0.155-0.827-0.155-1.24c0-1.654,0.259-2.481,0.775-2.481
		c0.956,0,1.731,1.706,2.326,5.118c3.515,11.631,6.203,21.814,8.064,30.551c0.62,2.274,0.931,3.515,0.931,3.722h0.155
		c-0.518-4.988-1.706-14.707-3.567-29.155c-0.207-1.447-0.362-3.463-0.465-6.048c0.103-1.99,0.155-3.282,0.155-3.877L396.383,87.51z
		"/>
	<path style="fill:#FFFFFF;" d="M439.999,86.115c1.938,0,3.438,2.844,4.497,8.529c1.758,5.661,2.637,13.363,2.637,23.107v7.909
		c0,1.68-0.311,4.006-0.931,6.979c2.792,4.317,4.188,6.694,4.188,7.134v0.155c0,0.155-0.155,0.31-0.466,0.465h-0.465
		c-0.75-0.543-1.99-2.507-3.722-5.893h-0.311c-0.698,1.448-1.681,2.171-2.946,2.171c-4.497,0-7.341-4.963-8.529-14.888
		c-0.518-4.833-0.775-10.83-0.775-17.989c0-9.124,1.085-14.552,3.257-16.284C438.163,86.58,439.353,86.115,439.999,86.115z
		 M434.727,103.794c0,17.059,1.498,26.881,4.497,29.465c0.62,1.241,1.706,1.861,3.257,1.861c0.801,0,1.473-0.776,2.016-2.327
		c-2.998-4.497-4.497-6.875-4.497-7.133v-0.155c0-0.155,0.207-0.362,0.62-0.62h0.311c0.49,0.336,1.783,2.197,3.877,5.583h0.31
		c0.311-2.171,0.466-3.566,0.466-4.187v-9.46c0-10.468-1.448-19.824-4.343-28.069c-0.052,0-0.413-0.31-1.085-0.93h-0.155
		c-1.836,0.542-2.869,1.06-3.102,1.551C435.449,91.31,434.727,96.117,434.727,103.794z"/>
	<path style="fill:#FFFFFF;" d="M461.943,85.805h0.31c0.518,0.259,0.775,0.672,0.775,1.241v0.775
		c0.931,16.826,2.068,30.37,3.412,40.631c0.904,6.927,2.3,10.39,4.188,10.39c1.344-0.568,2.016-1.551,2.016-2.946
		c0-4.058-0.414-14.293-1.24-30.706c0.103-2.998,0.154-5.893,0.154-8.685v-3.722l-0.154-0.931l0.154-0.31
		c-0.104-1.396-0.258-2.843-0.465-4.342l0.62-0.465h0.466c0.438,0,0.749,1.448,0.93,4.342c0,0.208-0.052,0.31-0.154,0.31
		c0.103,1.551,0.154,2.688,0.154,3.412v4.962l-0.154,0.931c0,0.104,0.051,0.155,0.154,0.155c-0.104,1.215-0.154,2.094-0.154,2.637
		v0.62c0.826,17.989,1.24,28.587,1.24,31.792c-0.284,2.999-1.628,4.497-4.032,4.497c-2.791,0-4.652-4.962-5.583-14.888
		c-1.138-8.839-2.223-21.917-3.256-39.235L461.943,85.805z"/>
	<path style="fill:#FFFFFF;" d="M492.998,89.682h1.24c0.775,0,1.706,1.706,2.792,5.118c1.033,7.651,1.551,15.301,1.551,22.952
		c0,11.941-0.725,19.023-2.171,21.246c-0.802,0.93-1.525,1.396-2.172,1.396h-0.62c-2.817,0-4.627-4.497-5.428-13.492
		c-0.207-3.438-0.414-8.349-0.62-14.733v-2.946c0-6.306,0.981-11.889,2.946-16.749c-0.104-0.181-0.155-0.388-0.155-0.621
		L492.998,89.682z M488.966,109.532c0.336,10.52,0.749,17.705,1.24,21.556c0.854,5.169,2.094,7.754,3.723,7.754
		c2.067,0,3.102-6.926,3.102-20.781v-0.31c0-8.865-0.569-16.671-1.706-23.417c-0.827-2.067-1.396-3.102-1.706-3.102h-0.155
		c-1.86,1.189-3.257,5.79-4.187,13.802L488.966,109.532z"/>
	<path style="fill:#FFFFFF;" d="M524.944,89.914l0.466,0.543v0.388c0,0.44-1.448,0.659-4.343,0.659h-4.342
		c-0.155,0-0.311,0.181-0.465,0.542l0.31,7.095c-0.104,0.646-0.155,1.008-0.155,1.085c0.931,15.638,1.396,26.842,1.396,33.613
		c0.103,0.181,0.154,0.324,0.154,0.427c-0.104,0.155-0.154,0.285-0.154,0.388l0.154,0.93c-0.154,0.362-0.31,0.543-0.465,0.543h-0.62
		c-0.104,0-0.311-0.181-0.62-0.543c0-0.18,0.051-0.672,0.154-1.473c0-2.223-0.465-13.388-1.396-33.497
		c0-3.282-0.104-6.268-0.311-8.956l-0.31-0.155h-0.466l-4.962,0.426c-0.311-0.335-0.466-0.737-0.466-1.202
		c0-0.155,0.207-0.336,0.621-0.543c0.723,0.181,1.137,0.271,1.24,0.271c1.99-0.181,3.386-0.271,4.188-0.271h6.358
		C522.23,90.186,523.574,90.095,524.944,89.914z"/>
	<path style="fill:#FFFFFF;" d="M537.467,87.666h0.311c0.723,0,1.085,2.74,1.085,8.219v2.016c0,2.016-0.31,7.237-0.93,15.663
		c0,0.414,0.051,0.827,0.154,1.241c-0.104,5.402-0.154,9.692-0.154,12.872v10.08c0,0.207,0.103,0.724,0.31,1.551
		c-0.13,0.724-0.336,1.085-0.62,1.085h-0.62c-0.414,0-0.62-1.396-0.62-4.187c0-17.938,0.31-30.292,0.93-37.064v-4.342
		c0-2.404-0.154-4.575-0.465-6.514C536.847,88.131,537.053,87.924,537.467,87.666z"/>
	<path style="fill:#FFFFFF;" d="M551.036,86.58h0.931c0.491,0.517,1.731,1.085,3.722,1.706c2.947,1.836,5.015,4.42,6.203,7.754
		c1.034,3.464,1.551,6.203,1.551,8.219v4.652c0,0.414,0.052,0.827,0.155,1.24c-0.697,10.21-1.628,16.568-2.791,19.075
		c0,1.138-1.086,3.877-3.257,8.219c-1.344,1.964-2.171,2.946-2.481,2.946c-0.724-0.155-1.085-0.362-1.085-0.62v-0.621
		c0.517-0.801,0.775-1.525,0.775-2.171c-0.208-0.413-0.311-0.724-0.311-0.931c0.103-0.31,0.207-0.465,0.311-0.465
		c-0.104-1.343-0.155-2.429-0.155-3.256c0-25.64-1.396-40.579-4.188-44.818V87.2C550.416,87.045,550.623,86.839,551.036,86.58z
		 M552.897,88.906v0.155c2.171,6.668,3.257,21.04,3.257,43.112v0.62c0.103,2.068,0.155,3.206,0.155,3.412
		c1.757-2.637,3.256-7.082,4.497-13.337c0.517-3.412,0.931-7.599,1.24-12.562c0-8.116-0.931-13.492-2.791-16.128
		C558.118,91.801,555.999,90.044,552.897,88.906z"/>
	<path style="fill:#FFFFFF;" d="M577.633,87.666h0.311c0.723,0,1.085,2.74,1.085,8.219v2.016c0,2.016-0.31,7.237-0.93,15.663
		c0,0.414,0.051,0.827,0.154,1.241c-0.104,5.402-0.154,9.692-0.154,12.872v10.08c0,0.207,0.103,0.724,0.31,1.551
		c-0.13,0.724-0.336,1.085-0.62,1.085h-0.62c-0.414,0-0.62-1.396-0.62-4.187c0-17.938,0.31-30.292,0.93-37.064v-4.342
		c0-2.404-0.154-4.575-0.465-6.514C577.013,88.131,577.219,87.924,577.633,87.666z"/>
	<path style="fill:#FFFFFF;" d="M593.374,86.425c1.06,0.414,2.248,0.621,3.566,0.621c2.067-0.103,3.463-0.155,4.188-0.155
		l0.31,0.465v0.62c0,0.155-0.155,0.31-0.465,0.465c-0.569,0-2.017,0.052-4.343,0.155l-1.86-0.155
		c0.31,1.991,0.465,4.833,0.465,8.529c-0.62,9.021-0.931,14.345-0.931,15.973c0,0.259,2.172,0.569,6.514,0.931l0.465,0.62v0.311
		c-0.052,0.207-0.31,0.414-0.775,0.62c-1.628-0.31-3.747-0.465-6.357-0.465c-0.621,10.08-0.931,17.007-0.931,20.781v2.792
		c0.025,0.207,0.129,0.31,0.31,0.31h0.155l5.894-0.62v0.155l0.31-0.155h0.62c0.155,0,0.362,0.207,0.621,0.62v0.31
		c0,0.155-0.208,0.362-0.621,0.621h-1.551l-4.807,0.62c-0.208-0.103-0.362-0.155-0.466-0.155l-0.31,0.155
		c-1.061,0-1.629-0.62-1.706-1.861v-2.636c0-4.342,0.672-17.317,2.016-38.925v-0.62c0-4.808-0.31-7.909-0.931-9.305
		C592.753,86.89,592.96,86.684,593.374,86.425z"/>
	<path style="fill:#FFFFFF;" d="M623.925,87.51h0.465l0.62,0.621c-0.207,1.138-0.31,2.43-0.31,3.877
		c0,2.636,1.137,12.355,3.411,29.155l1.396,15.818c-0.155,0.517-0.518,0.775-1.086,0.775c-0.518,0-1.499-3.67-2.946-11.011
		c-0.931-3.36-2.74-10.648-5.428-21.866c-1.551-4.445-2.688-8.375-3.412-11.786h-0.155l0.155,1.861c0,2.068-0.207,8.375-0.62,18.92
		c0.206,9.486,0.62,18.015,1.24,25.588v0.311c-0.155,0.414-0.517,0.62-1.085,0.62l-0.621-0.465l0.155-1.396
		c-0.62-6.746-1.034-14.913-1.24-24.502c0.413-10.287,0.62-16.49,0.62-18.61c0-0.491-0.052-1.68-0.155-3.567
		c0.104-0.207,0.155-0.361,0.155-0.465c-0.104-0.413-0.155-0.827-0.155-1.24c0-1.654,0.259-2.481,0.775-2.481
		c0.956,0,1.731,1.706,2.326,5.118c3.515,11.631,6.203,21.814,8.064,30.551c0.62,2.274,0.931,3.515,0.931,3.722h0.155
		c-0.518-4.988-1.706-14.707-3.567-29.155c-0.207-1.447-0.362-3.463-0.465-6.048c0.103-1.99,0.155-3.282,0.155-3.877L623.925,87.51z
		"/>
	<path style="fill:#FFFFFF;" d="M650.986,87.51h0.465l0.62,0.621c-0.207,1.138-0.31,2.43-0.31,3.877
		c0,2.636,1.137,12.355,3.411,29.155l1.396,15.818c-0.155,0.517-0.518,0.775-1.086,0.775c-0.518,0-1.499-3.67-2.946-11.011
		c-0.931-3.36-2.74-10.648-5.428-21.866c-1.551-4.445-2.688-8.375-3.412-11.786h-0.155l0.155,1.861c0,2.068-0.207,8.375-0.62,18.92
		c0.206,9.486,0.62,18.015,1.24,25.588v0.311c-0.155,0.414-0.517,0.62-1.085,0.62l-0.621-0.465l0.155-1.396
		c-0.62-6.746-1.034-14.913-1.24-24.502c0.413-10.287,0.62-16.49,0.62-18.61c0-0.491-0.052-1.68-0.155-3.567
		c0.104-0.207,0.155-0.361,0.155-0.465c-0.104-0.413-0.155-0.827-0.155-1.24c0-1.654,0.259-2.481,0.775-2.481
		c0.956,0,1.731,1.706,2.326,5.118c3.515,11.631,6.203,21.814,8.064,30.551c0.62,2.274,0.931,3.515,0.931,3.722h0.155
		c-0.518-4.988-1.706-14.707-3.567-29.155c-0.207-1.447-0.362-3.463-0.465-6.048c0.103-1.99,0.155-3.282,0.155-3.877L650.986,87.51z
		"/>
	<path style="fill:#FFFFFF;" d="M669.79,86.425c1.06,0.414,2.248,0.621,3.566,0.621c2.067-0.103,3.463-0.155,4.188-0.155l0.31,0.465
		v0.62c0,0.155-0.155,0.31-0.465,0.465c-0.569,0-2.017,0.052-4.343,0.155l-1.86-0.155c0.31,1.991,0.465,4.833,0.465,8.529
		c-0.62,9.021-0.931,14.345-0.931,15.973c0,0.259,2.172,0.569,6.514,0.931l0.465,0.62v0.311c-0.052,0.207-0.31,0.414-0.775,0.62
		c-1.628-0.31-3.747-0.465-6.357-0.465c-0.621,10.08-0.931,17.007-0.931,20.781v2.792c0.025,0.207,0.129,0.31,0.31,0.31h0.155
		l5.894-0.62v0.155l0.31-0.155h0.62c0.155,0,0.362,0.207,0.621,0.62v0.31c0,0.155-0.208,0.362-0.621,0.621h-1.551l-4.807,0.62
		c-0.208-0.103-0.362-0.155-0.466-0.155l-0.31,0.155c-1.061,0-1.629-0.62-1.706-1.861v-2.636c0-4.342,0.672-17.317,2.016-38.925
		v-0.62c0-4.808-0.31-7.909-0.931-9.305C669.169,86.89,669.376,86.684,669.79,86.425z"/>
</g>
<g>
	<path style="fill:#856599;" d="M544.464,275.793c0.265,0,0.396,0.154,0.396,0.463c0,0.265-1.454,0.573-4.364,0.926
		c0.265,0.937,0.551,3.802,0.859,8.596v0.199l0.266,0.066c1.906-0.265,3.141-0.396,3.702-0.396l0.132,0.198v0.198
		c-0.088,0.176-0.197,0.265-0.33,0.265c-1.652,0.132-2.888,0.287-3.703,0.463c0.044,0.088,0.066,0.154,0.066,0.198
		c0.133,2.271,0.33,4.894,0.596,7.869l4.826-0.793l0.199,0.264c0,0.397-0.463,0.595-1.389,0.595
		c-1.785,0.276-3.108,0.519-3.969,0.728c-0.242,0-0.44-1.433-0.594-4.298c-0.706-9.654-1.191-14.481-1.455-14.481v-0.529
		c0-0.066,0.088-0.154,0.264-0.265h0.133c0.044,0,0.198,0.154,0.463,0.463C541.246,276.521,542.547,276.278,544.464,275.793z
		 M543.141,271.429h0.133c0.066,0,0.154,0.088,0.265,0.265v0.132c-0.286,0.837-0.97,1.917-2.05,3.24h-0.265
		c-0.065,0-0.132-0.066-0.198-0.198v-0.198c0.805-1.069,1.465-2.127,1.984-3.174L543.141,271.429z"/>
	<path style="fill:#856599;" d="M554.797,273.214h0.463c0.793,0.144,1.189,0.43,1.189,0.86c0,0.066-0.088,0.154-0.265,0.265h-0.265
		c-0.286-0.353-0.595-0.529-0.926-0.529c-1.102,0.386-1.652,0.739-1.652,1.058c-0.883,1.675-1.322,3.968-1.322,6.877v1.125
		c0,1.962,0.264,4.32,0.793,7.075c0.319,2.017,0.76,3.384,1.322,4.1c0.684,0.595,1.278,0.904,1.785,0.926
		c0.65,0,1.355-0.485,2.116-1.455h0.198c0.066,0,0.133,0.066,0.199,0.199v0.132c0,0.397-0.486,0.904-1.455,1.521
		c-0.408,0.177-0.783,0.265-1.125,0.265h-0.065c-0.65-0.077-1.333-0.43-2.05-1.058c-0.783-0.617-1.466-3.13-2.051-7.538
		c-0.22-0.948-0.33-2.513-0.33-4.695v-0.396c0.077-4.464,0.805-7.219,2.182-8.266C554.189,273.369,554.608,273.214,554.797,273.214z
		"/>
	<path style="fill:#856599;" d="M565.326,274.008h0.133c0.166,0,0.298,0.264,0.396,0.793c-0.044,1.069-0.066,1.884-0.066,2.446
		c0,4.166,0.221,8.266,0.662,12.3c0.221,2.777,0.44,4.673,0.661,5.687v0.066c0,0.066-0.066,0.132-0.198,0.198h-0.199
		c-0.352,0-0.639-1.829-0.859-5.488c-0.221-2.039-0.33-3.317-0.33-3.835c-0.045,0-0.066-0.022-0.066-0.066
		c-0.815,0.044-1.41,0.066-1.785,0.066h-0.662c-0.088,2.678-0.131,4.463-0.131,5.356c0,1.135,0.043,2.436,0.131,3.901l-0.264,0.198
		c-0.309,0-0.463-0.198-0.463-0.595c0-0.474-0.022-1.752-0.066-3.835c0.133-4.64,0.309-8.85,0.529-12.63v-0.198
		c0-0.275-0.022-0.606-0.066-0.992c0.044-0.176,0.066-0.331,0.066-0.463l-0.066-0.661c0.044-0.418,0.066-0.837,0.066-1.256
		c0-0.055-0.022-0.275-0.066-0.661l0.265-0.199h0.198c0.133,0,0.221,0.243,0.265,0.728c-0.044,0.771-0.065,1.256-0.065,1.455
		c0,0.529,0.021,1.543,0.065,3.042c-0.221,3.108-0.331,5.158-0.331,6.15h0.992c0.287,0,0.728-0.022,1.322-0.066v-0.264
		c-0.176-2.193-0.264-4.86-0.264-8.001c0-0.364,0.021-1.157,0.066-2.38c-0.089-0.209-0.133-0.408-0.133-0.595L565.326,274.008z"/>
	<path style="fill:#856599;" d="M573.973,273.065h0.066c0.628,0.287,1.162,1.063,1.604,2.331c1.223,3.791,2.127,8.635,2.711,14.531
		c0.386,1.918,0.578,3.599,0.578,5.042c-0.055,0.143-0.203,0.215-0.445,0.215c-0.177-0.341-0.441-2.094-0.794-5.257
		c-0.099-0.341-0.319-1.802-0.661-4.381l-0.513-0.066c-2.38,0.221-3.571,0.463-3.571,0.728v2.562l-0.445,6.133
		c0.099,0.155,0.148,0.298,0.148,0.43c0,0.077-0.1,0.176-0.298,0.297c-0.386,0-0.579-0.242-0.579-0.728
		c0.342-4.65,0.514-7.45,0.514-8.398c-0.045-0.606-0.066-1.218-0.066-1.835c0.021-3.174,0.286-6.53,0.793-10.068
		C573.223,273.578,573.543,273.065,573.973,273.065z M573.973,273.941c-0.639,2.469-0.959,5.66-0.959,9.572
		c-0.044,0-0.066,0.535-0.066,1.604v0.215c1.389-0.385,2.729-0.579,4.018-0.579v-0.083c0-1.344-0.732-4.53-2.199-9.555
		C574.446,274.421,574.182,274.03,573.973,273.941z"/>
	<path style="fill:#856599;" d="M588.586,273.082h0.199l0.264,0.264c-0.088,0.485-0.131,1.036-0.131,1.653
		c0,1.124,0.484,5.268,1.454,12.432l0.595,6.745c-0.066,0.22-0.221,0.331-0.463,0.331c-0.221,0-0.639-1.565-1.256-4.695
		c-0.396-1.432-1.168-4.54-2.314-9.324c-0.661-1.895-1.146-3.571-1.455-5.025h-0.066l0.066,0.793c0,0.882-0.088,3.571-0.264,8.067
		c0.088,4.045,0.264,7.682,0.528,10.911v0.132c-0.065,0.177-0.221,0.265-0.463,0.265l-0.265-0.198l0.066-0.595
		c-0.265-2.876-0.441-6.359-0.529-10.448c0.176-4.387,0.265-7.032,0.265-7.936c0-0.209-0.022-0.716-0.065-1.521
		c0.043-0.088,0.065-0.154,0.065-0.199c-0.044-0.176-0.065-0.353-0.065-0.529c0-0.705,0.109-1.058,0.33-1.058
		c0.408,0,0.738,0.728,0.992,2.182c1.498,4.959,2.645,9.302,3.438,13.027c0.266,0.97,0.397,1.499,0.397,1.587h0.065
		c-0.22-2.127-0.727-6.271-1.52-12.432c-0.089-0.617-0.155-1.477-0.199-2.579c0.044-0.849,0.066-1.4,0.066-1.653L588.586,273.082z"
		/>
	<path style="fill:#856599;" d="M598.936,273.941h0.133c0.837,0,1.498,0.309,1.982,0.926V275c0,0.066-0.088,0.154-0.264,0.265
		c-0.088,0-0.375-0.154-0.859-0.463c-0.287-0.132-0.596-0.199-0.926-0.199h-0.265c-1.323,0.32-1.983,4.089-1.983,11.308
		c0,3.406,0.396,6.007,1.189,7.803c0.254,0.529,0.761,0.948,1.521,1.256h0.264c0.794-0.154,1.191-0.485,1.191-0.992
		c0.153,0,0.374-1.322,0.66-3.967v-3.24l-0.066-0.331c-0.043,0-0.065,0.022-0.065,0.066c-1.764-0.132-2.646-0.265-2.646-0.396
		l-0.065-0.331v-0.066c0-0.066,0.065-0.132,0.198-0.198h0.198c0.144,0.11,1.091,0.243,2.843,0.396
		c0.177,0.177,0.266,0.595,0.266,1.256v1.653c0,0.254-0.022,0.606-0.066,1.058c0.044,0.088,0.066,0.154,0.066,0.198
		c-0.298,3.483-0.805,5.224-1.521,5.224c0,0.088-0.33,0.198-0.992,0.331h-0.264c-0.717-0.166-1.355-0.584-1.918-1.256
		c-0.971-1.84-1.455-4.684-1.455-8.53c0-7.263,0.728-11.208,2.183-11.836L598.936,273.941z"/>
	<path style="fill:#856599;" d="M608.705,272.619c0.452,0.176,0.959,0.264,1.521,0.264c0.881-0.044,1.477-0.066,1.785-0.066
		l0.133,0.198v0.265c0,0.066-0.066,0.132-0.199,0.198c-0.242,0-0.859,0.022-1.852,0.066l-0.793-0.066
		c0.133,0.849,0.198,2.061,0.198,3.637c-0.265,3.846-0.396,6.117-0.396,6.811c0,0.11,0.926,0.242,2.776,0.396l0.199,0.265v0.132
		c-0.022,0.088-0.133,0.176-0.33,0.264c-0.695-0.132-1.599-0.198-2.712-0.198c-0.265,4.298-0.396,7.252-0.396,8.861v1.19
		c0.011,0.088,0.055,0.132,0.132,0.132h0.066l2.513-0.265v0.066l0.132-0.066h0.266c0.065,0,0.153,0.088,0.264,0.265v0.132
		c0,0.066-0.088,0.154-0.264,0.264h-0.662l-2.05,0.265c-0.089-0.044-0.154-0.066-0.198-0.066l-0.133,0.066
		c-0.451,0-0.693-0.265-0.727-0.793v-1.124c0-1.852,0.286-7.384,0.859-16.598v-0.265c0-2.05-0.133-3.373-0.396-3.968
		C608.441,272.817,608.529,272.729,608.705,272.619z"/>
	<path style="fill:#856599;" d="M617.285,271.23h0.133c0.121,0.154,0.518,0.287,1.19,0.396c0.837,0.342,1.521,0.959,2.05,1.852
		c0.749,1.818,1.124,3.163,1.124,4.034v0.661c0,2.888-0.838,4.982-2.513,6.282c1.939,0.463,3.063,2.755,3.373,6.877v2.513
		c0,0.375,0.021,0.926,0.065,1.653l-0.198,0.132h-0.199l-0.264-0.198c-0.045-0.882-0.066-1.543-0.066-1.984v-2.38
		c0-1.653-0.507-3.351-1.521-5.092c-0.706-0.662-1.323-0.992-1.852-0.992h-0.066c0.044,0.948,0.066,1.653,0.066,2.116v2.513
		c0.088,2.182,0.132,3.417,0.132,3.703v0.132c-0.088,0.176-0.221,0.265-0.396,0.265c-0.066,0-0.176-0.088-0.33-0.265l0.065-0.463
		c-0.089-1.862-0.132-3.097-0.132-3.703v-3.968c-0.188,0-0.32-0.088-0.396-0.264v-0.198c0.088-0.176,0.197-0.265,0.33-0.265
		c-0.221-6.051-0.508-10.437-0.859-13.159L617.285,271.23z M617.814,272.156c0.265,3.218,0.507,7.208,0.728,11.969
		c1.72-1.168,2.579-3.042,2.579-5.621v-0.926c0-1.157-0.485-2.634-1.455-4.431c-0.727-0.661-1.278-0.992-1.652-0.992H617.814z"/>
</g>
<g>
	<path style="fill:#856599;" d="M404.848,355.065h0.066c0.628,0.287,1.162,1.063,1.604,2.331c1.223,3.791,2.127,8.635,2.711,14.531
		c0.386,1.918,0.578,3.599,0.578,5.042c-0.055,0.143-0.203,0.215-0.445,0.215c-0.177-0.341-0.441-2.094-0.794-5.257
		c-0.099-0.341-0.319-1.802-0.661-4.381l-0.513-0.066c-2.38,0.221-3.571,0.463-3.571,0.728v2.562l-0.445,6.133
		c0.099,0.155,0.148,0.298,0.148,0.43c0,0.077-0.1,0.176-0.298,0.297c-0.386,0-0.579-0.242-0.579-0.728
		c0.342-4.65,0.514-7.45,0.514-8.398c-0.045-0.606-0.066-1.218-0.066-1.835c0.021-3.174,0.286-6.53,0.793-10.068
		C404.098,355.578,404.418,355.065,404.848,355.065z M404.848,355.941c-0.639,2.469-0.959,5.66-0.959,9.572
		c-0.044,0-0.066,0.535-0.066,1.604v0.215c1.389-0.385,2.729-0.579,4.018-0.579v-0.083c0-1.344-0.732-4.53-2.199-9.555
		C405.321,356.421,405.057,356.03,404.848,355.941z"/>
	<path style="fill:#856599;" d="M418.271,355.941h0.133c0.837,0,1.498,0.309,1.982,0.926V357c0,0.066-0.088,0.154-0.264,0.265
		c-0.088,0-0.375-0.154-0.859-0.463c-0.287-0.132-0.596-0.199-0.926-0.199h-0.265c-1.323,0.32-1.983,4.089-1.983,11.308
		c0,3.406,0.396,6.007,1.189,7.803c0.254,0.529,0.761,0.948,1.521,1.256h0.264c0.794-0.154,1.191-0.485,1.191-0.992
		c0.153,0,0.374-1.322,0.66-3.967v-3.24l-0.066-0.331c-0.043,0-0.065,0.022-0.065,0.066c-1.764-0.132-2.646-0.265-2.646-0.396
		l-0.065-0.331v-0.066c0-0.066,0.065-0.132,0.198-0.198h0.198c0.144,0.11,1.091,0.243,2.843,0.396
		c0.177,0.177,0.266,0.595,0.266,1.256v1.653c0,0.254-0.022,0.606-0.066,1.058c0.044,0.088,0.066,0.154,0.066,0.198
		c-0.298,3.483-0.805,5.224-1.521,5.224c0,0.088-0.33,0.198-0.992,0.331h-0.264c-0.717-0.166-1.355-0.584-1.918-1.256
		c-0.971-1.84-1.455-4.684-1.455-8.53c0-7.263,0.728-11.208,2.183-11.836L418.271,355.941z"/>
	<path style="fill:#856599;" d="M428.339,355.148h0.132c0.309,0,0.463,1.168,0.463,3.505v0.859c0,0.86-0.132,3.086-0.396,6.679
		c0,0.177,0.022,0.353,0.066,0.529c-0.044,2.303-0.066,4.133-0.066,5.488v4.298c0,0.088,0.045,0.309,0.133,0.661
		c-0.056,0.309-0.144,0.463-0.265,0.463h-0.265c-0.176,0-0.265-0.595-0.265-1.786c0-7.648,0.132-12.917,0.397-15.804v-1.852
		c0-1.025-0.066-1.951-0.199-2.777C428.074,355.346,428.162,355.258,428.339,355.148z"/>
	<path style="fill:#856599;" d="M434.125,353.23h0.133c0.121,0.154,0.518,0.287,1.189,0.396c0.838,0.342,1.521,0.959,2.051,1.852
		c0.748,1.818,1.123,3.163,1.123,4.034v0.661c0,2.888-0.838,4.982-2.512,6.282c1.939,0.463,3.062,2.755,3.372,6.877v2.513
		c0,0.375,0.022,0.926,0.065,1.653l-0.197,0.132h-0.199l-0.264-0.198c-0.045-0.882-0.066-1.543-0.066-1.984v-2.38
		c0-1.653-0.508-3.351-1.521-5.092c-0.705-0.662-1.322-0.992-1.852-0.992h-0.066c0.045,0.948,0.066,1.653,0.066,2.116v2.513
		c0.088,2.182,0.133,3.417,0.133,3.703v0.132c-0.088,0.176-0.221,0.265-0.396,0.265c-0.066,0-0.177-0.088-0.331-0.265l0.065-0.463
		c-0.088-1.862-0.132-3.097-0.132-3.703v-3.968c-0.188,0-0.319-0.088-0.396-0.264v-0.198c0.088-0.176,0.198-0.265,0.331-0.265
		c-0.221-6.051-0.508-10.437-0.86-13.159L434.125,353.23z M434.654,354.156c0.264,3.218,0.506,7.208,0.727,11.969
		c1.72-1.168,2.58-3.042,2.58-5.621v-0.926c0-1.157-0.486-2.634-1.455-4.431c-0.728-0.661-1.279-0.992-1.653-0.992H434.654z"/>
</g>
<g>
	<path style="fill:#856599;" d="M168.1,401.561c1.367,0,2.204,1.433,2.513,4.298v1.256c-0.221,1.543-0.926,3.196-2.116,4.959
		c-0.033,0.011-0.166,0.165-0.397,0.463v0.066c0.893,0.331,1.62,0.97,2.183,1.917c0.584,0.871,0.98,2.215,1.19,4.034
		c0,2.292-0.485,4.232-1.455,5.819c-0.628,0.694-1.246,1.113-1.852,1.256h-0.132c-0.617,0-0.926-0.75-0.926-2.248
		c-0.529-7.594-0.793-13.435-0.793-17.523c-0.088-1.19-0.221-2.314-0.397-3.373C166.656,401.87,167.383,401.561,168.1,401.561z
		 M166.645,402.817c0.353,2.744,0.529,6.668,0.529,11.771c0.176,2.072,0.397,5.444,0.662,10.117l0.264,0.265
		c0.915-0.375,1.554-1.036,1.918-1.984c0.529-1.477,0.793-2.954,0.793-4.431c-0.353-2.116-0.639-3.174-0.86-3.174
		c-0.297-0.86-0.958-1.587-1.983-2.182c-0.375,0-0.64-0.132-0.794-0.397v-0.198c1.422-1.598,2.348-3.383,2.777-5.356v-1.058
		c-0.22-2.645-0.837-3.968-1.852-3.968C167.549,402.222,167.064,402.42,166.645,402.817z"/>
	<path style="fill:#856599;" d="M178.928,404.008h0.529c0.331,0,0.728,0.727,1.19,2.182c0.441,3.262,0.662,6.524,0.662,9.787
		c0,5.092-0.309,8.111-0.926,9.059c-0.342,0.397-0.65,0.595-0.926,0.595h-0.265c-1.201,0-1.973-1.917-2.314-5.753
		c-0.088-1.466-0.176-3.56-0.265-6.282v-1.256c0-2.689,0.419-5.069,1.257-7.142c-0.044-0.077-0.066-0.165-0.066-0.264
		L178.928,404.008z M177.208,412.472c0.143,4.486,0.32,7.55,0.529,9.191c0.364,2.205,0.893,3.307,1.587,3.307
		c0.881,0,1.322-2.954,1.322-8.861v-0.132c0-3.78-0.242-7.109-0.727-9.985c-0.353-0.881-0.595-1.322-0.728-1.322h-0.066
		c-0.793,0.507-1.389,2.469-1.786,5.885L177.208,412.472z"/>
	<path style="fill:#856599;" d="M192.6,403.941h0.132c0.066,0,0.154,0.088,0.265,0.265v0.066c-0.353,3.152-0.728,6.238-1.125,9.258
		l0.066,0.397v0.198c-0.155,0-0.397,2.182-0.728,6.546c-0.132,2.182-0.287,3.813-0.463,4.894l-0.132,0.066h-0.198
		c-0.088-0.022-0.176-0.132-0.265-0.331c0.485-5.808,0.837-9.599,1.058-11.374c-1.19-2.59-2.755-5.191-4.695-7.803
		c-0.353-0.253-0.529-0.496-0.529-0.727v-0.132c0-0.066,0.088-0.154,0.265-0.265h0.265c0.143,0.055,0.275,0.275,0.396,0.661
		c1.763,2.182,3.218,4.497,4.364,6.943h0.066c0.485-4.199,0.837-7.042,1.058-8.53L192.6,403.941z"/>
	<path style="fill:#856599;" d="M200.519,403.214h0.463c0.793,0.144,1.19,0.43,1.19,0.86c0,0.066-0.088,0.154-0.265,0.265h-0.264
		c-0.287-0.353-0.595-0.529-0.926-0.529c-1.102,0.386-1.653,0.739-1.653,1.058c-0.882,1.675-1.322,3.968-1.322,6.877v1.125
		c0,1.962,0.264,4.32,0.793,7.075c0.319,2.017,0.76,3.384,1.322,4.1c0.683,0.595,1.278,0.904,1.786,0.926
		c0.65,0,1.355-0.485,2.116-1.455h0.199c0.066,0,0.132,0.066,0.198,0.199v0.132c0,0.397-0.485,0.904-1.455,1.521
		c-0.408,0.177-0.783,0.265-1.125,0.265h-0.066c-0.65-0.077-1.333-0.43-2.05-1.058c-0.783-0.617-1.466-3.13-2.05-7.538
		c-0.22-0.948-0.331-2.513-0.331-4.695v-0.396c0.077-4.464,0.805-7.219,2.182-8.266
		C199.912,403.369,200.331,403.214,200.519,403.214z"/>
	<path style="fill:#856599;" d="M210.47,404.008H211c0.331,0,0.728,0.727,1.19,2.182c0.441,3.262,0.662,6.524,0.662,9.787
		c0,5.092-0.309,8.111-0.926,9.059c-0.342,0.397-0.65,0.595-0.926,0.595h-0.265c-1.201,0-1.973-1.917-2.314-5.753
		c-0.088-1.466-0.176-3.56-0.265-6.282v-1.256c0-2.689,0.419-5.069,1.257-7.142c-0.044-0.077-0.066-0.165-0.066-0.264
		L210.47,404.008z M208.751,412.472c0.143,4.486,0.32,7.55,0.529,9.191c0.364,2.205,0.893,3.307,1.587,3.307
		c0.881,0,1.322-2.954,1.322-8.861v-0.132c0-3.78-0.242-7.109-0.727-9.985c-0.353-0.881-0.595-1.322-0.728-1.322h-0.066
		c-0.793,0.507-1.389,2.469-1.786,5.885L208.751,412.472z"/>
	<path style="fill:#856599;" d="M224.092,404.107l0.199,0.231v0.165c0,0.188-0.618,0.281-1.852,0.281h-1.852
		c-0.066,0-0.132,0.077-0.198,0.231l0.132,3.025c-0.044,0.275-0.066,0.43-0.066,0.463c0.397,6.667,0.595,11.445,0.595,14.333
		c0.044,0.077,0.066,0.138,0.066,0.182c-0.044,0.066-0.066,0.121-0.066,0.165l0.066,0.397c-0.066,0.154-0.132,0.231-0.198,0.231
		h-0.265c-0.044,0-0.132-0.077-0.264-0.231c0-0.077,0.022-0.287,0.066-0.628c0-0.948-0.198-5.708-0.595-14.283
		c0-1.399-0.044-2.672-0.132-3.819l-0.132-0.066h-0.198l-2.116,0.182c-0.132-0.143-0.199-0.314-0.199-0.512
		c0-0.066,0.088-0.143,0.265-0.231c0.309,0.077,0.485,0.116,0.529,0.116c0.849-0.077,1.444-0.116,1.786-0.116h2.711
		C222.935,404.223,223.508,404.184,224.092,404.107z"/>
	<path style="fill:#856599;" d="M234.276,404.107l0.199,0.231v0.165c0,0.188-0.618,0.281-1.852,0.281h-1.852
		c-0.066,0-0.132,0.077-0.198,0.231l0.132,3.025c-0.044,0.275-0.066,0.43-0.066,0.463c0.397,6.667,0.595,11.445,0.595,14.333
		c0.044,0.077,0.066,0.138,0.066,0.182c-0.044,0.066-0.066,0.121-0.066,0.165l0.066,0.397c-0.066,0.154-0.132,0.231-0.198,0.231
		h-0.265c-0.044,0-0.132-0.077-0.264-0.231c0-0.077,0.022-0.287,0.066-0.628c0-0.948-0.198-5.708-0.595-14.283
		c0-1.399-0.044-2.672-0.132-3.819l-0.132-0.066h-0.198l-2.116,0.182c-0.132-0.143-0.199-0.314-0.199-0.512
		c0-0.066,0.088-0.143,0.265-0.231c0.309,0.077,0.485,0.116,0.529,0.116c0.849-0.077,1.444-0.116,1.786-0.116h2.711
		C233.119,404.223,233.692,404.184,234.276,404.107z"/>
	<path style="fill:#856599;" d="M239.318,402.619c0.452,0.176,0.959,0.264,1.521,0.264c0.881-0.044,1.477-0.066,1.785-0.066
		l0.132,0.198v0.265c0,0.066-0.066,0.132-0.198,0.198c-0.243,0-0.86,0.022-1.852,0.066l-0.793-0.066
		c0.132,0.849,0.198,2.061,0.198,3.637c-0.265,3.846-0.396,6.117-0.396,6.811c0,0.11,0.926,0.242,2.777,0.396l0.199,0.265v0.132
		c-0.022,0.088-0.132,0.176-0.331,0.264c-0.694-0.132-1.598-0.198-2.711-0.198c-0.265,4.298-0.396,7.252-0.396,8.861v1.19
		c0.011,0.088,0.055,0.132,0.132,0.132h0.066l2.513-0.265v0.066l0.132-0.066h0.265c0.066,0,0.154,0.088,0.264,0.265v0.132
		c0,0.066-0.088,0.154-0.264,0.264h-0.662l-2.05,0.265c-0.088-0.044-0.154-0.066-0.198-0.066l-0.132,0.066
		c-0.452,0-0.694-0.265-0.728-0.793v-1.124c0-1.852,0.287-7.384,0.86-16.598v-0.265c0-2.05-0.132-3.373-0.397-3.968
		C239.054,402.817,239.142,402.729,239.318,402.619z"/>
	<path style="fill:#856599;" d="M247.898,401.23h0.132c0.121,0.154,0.518,0.287,1.19,0.396c0.837,0.342,1.521,0.959,2.05,1.852
		c0.749,1.818,1.124,3.163,1.124,4.034v0.661c0,2.888-0.838,4.982-2.513,6.282c1.939,0.463,3.063,2.755,3.373,6.877v2.513
		c0,0.375,0.022,0.926,0.066,1.653l-0.198,0.132h-0.199l-0.264-0.198c-0.044-0.882-0.066-1.543-0.066-1.984v-2.38
		c0-1.653-0.507-3.351-1.521-5.092c-0.706-0.662-1.323-0.992-1.852-0.992h-0.066c0.044,0.948,0.066,1.653,0.066,2.116v2.513
		c0.088,2.182,0.132,3.417,0.132,3.703v0.132c-0.088,0.176-0.22,0.265-0.396,0.265c-0.066,0-0.176-0.088-0.331-0.265l0.066-0.463
		c-0.088-1.862-0.132-3.097-0.132-3.703v-3.968c-0.188,0-0.32-0.088-0.396-0.264v-0.198c0.088-0.176,0.198-0.265,0.331-0.265
		c-0.221-6.051-0.507-10.437-0.86-13.159L247.898,401.23z M248.427,402.156c0.265,3.218,0.507,7.208,0.728,11.969
		c1.719-1.168,2.579-3.042,2.579-5.621v-0.926c0-1.157-0.485-2.634-1.455-4.431c-0.727-0.661-1.278-0.992-1.653-0.992H248.427z"/>
</g>
<g>
	<path style="fill:#856599;" d="M527.298,413.23h0.132c0.121,0.154,0.519,0.287,1.191,0.396c0.837,0.342,1.52,0.959,2.049,1.852
		c0.75,1.818,1.125,3.163,1.125,4.034v0.661c0,2.888-0.838,4.982-2.514,6.282c1.939,0.463,3.064,2.755,3.373,6.877v2.513
		c0,0.375,0.021,0.926,0.066,1.653l-0.199,0.132h-0.198l-0.265-0.198c-0.044-0.882-0.066-1.543-0.066-1.984v-2.38
		c0-1.653-0.506-3.351-1.52-5.092c-0.706-0.662-1.323-0.992-1.852-0.992h-0.066c0.043,0.948,0.066,1.653,0.066,2.116v2.513
		c0.088,2.182,0.131,3.417,0.131,3.703v0.132c-0.088,0.176-0.22,0.265-0.396,0.265c-0.066,0-0.176-0.088-0.33-0.265l0.066-0.463
		c-0.089-1.862-0.133-3.097-0.133-3.703v-3.968c-0.188,0-0.32-0.088-0.396-0.264v-0.198c0.088-0.176,0.198-0.265,0.33-0.265
		c-0.221-6.051-0.507-10.437-0.859-13.159L527.298,413.23z M527.826,414.156c0.266,3.218,0.508,7.208,0.729,11.969
		c1.719-1.168,2.578-3.042,2.578-5.621v-0.926c0-1.157-0.484-2.634-1.455-4.431c-0.727-0.661-1.277-0.992-1.652-0.992H527.826z"/>
	<path style="fill:#856599;" d="M538.061,414.619c0.451,0.176,0.959,0.264,1.521,0.264c0.882-0.044,1.477-0.066,1.785-0.066
		l0.132,0.198v0.265c0,0.066-0.065,0.132-0.197,0.198c-0.243,0-0.86,0.022-1.852,0.066l-0.794-0.066
		c0.132,0.849,0.198,2.061,0.198,3.637c-0.265,3.846-0.396,6.117-0.396,6.811c0,0.11,0.926,0.242,2.777,0.396l0.198,0.265v0.132
		c-0.022,0.088-0.132,0.176-0.331,0.264c-0.693-0.132-1.598-0.198-2.711-0.198c-0.265,4.298-0.396,7.252-0.396,8.861v1.19
		c0.011,0.088,0.055,0.132,0.132,0.132h0.066l2.513-0.265v0.066l0.133-0.066h0.264c0.066,0,0.154,0.088,0.265,0.265v0.132
		c0,0.066-0.089,0.154-0.265,0.264h-0.661l-2.05,0.265c-0.088-0.044-0.154-0.066-0.198-0.066l-0.132,0.066
		c-0.453,0-0.695-0.265-0.729-0.793v-1.124c0-1.852,0.287-7.384,0.86-16.598v-0.265c0-2.05-0.132-3.373-0.397-3.968
		C537.795,414.817,537.884,414.729,538.061,414.619z"/>
	<path style="fill:#856599;" d="M547.566,414.156c0.088,0,0.396,0.154,0.926,0.463c1.852,0.165,2.777,0.32,2.777,0.463
		c0.043,0.077,0.065,0.165,0.065,0.264c0,0.066-0.089,0.155-0.265,0.265c-1.477-0.176-2.513-0.331-3.107-0.463
		c0.088,0.639,0.132,1.014,0.132,1.124c0,0.287-0.022,0.728-0.065,1.323c0.132,3.196,0.197,5.929,0.197,8.2v0.264
		c0.045,0.132,0.177,0.199,0.397,0.199h1.521c0.154,0,0.354-0.022,0.596-0.066c0.176,0.066,0.264,0.132,0.264,0.199v0.264
		c0,0.132-0.197,0.221-0.595,0.265c-0.089,0-0.132-0.022-0.132-0.066l-0.463,0.066h-1.125l-0.463-0.066
		c0.045,4.044,0.066,6.8,0.066,8.266c0,0.396,0.022,1.168,0.066,2.314l-0.33,0.198l-0.331-0.198l-0.132-8.729
		c0.043-0.242,0.065-0.44,0.065-0.595c-0.044-0.386-0.065-0.628-0.065-0.728c0-0.341,0.021-0.959,0.065-1.852
		c-0.132-4.519-0.22-7.12-0.265-7.803c0.045-0.32,0.066-0.738,0.066-1.256c0-0.529-0.088-1.08-0.265-1.653
		C547.291,414.432,547.422,414.211,547.566,414.156z"/>
	<path style="fill:#856599;" d="M556.939,414.354h0.133c0.22,0.11,0.33,0.287,0.33,0.529v0.331
		c0.396,7.175,0.882,12.95,1.455,17.325c0.385,2.954,0.98,4.431,1.785,4.431c0.572-0.242,0.859-0.662,0.859-1.256
		c0-1.73-0.176-6.095-0.529-13.093c0.045-1.278,0.066-2.513,0.066-3.703v-1.587l-0.066-0.396l0.066-0.132
		c-0.044-0.595-0.109-1.212-0.198-1.852l0.265-0.199h0.198c0.188,0,0.319,0.618,0.397,1.852c0,0.088-0.023,0.132-0.066,0.132
		c0.043,0.662,0.066,1.146,0.066,1.455v2.116l-0.066,0.397c0,0.044,0.021,0.066,0.066,0.066c-0.045,0.518-0.066,0.893-0.066,1.125
		v0.264c0.353,7.671,0.529,12.189,0.529,13.556c-0.122,1.278-0.695,1.917-1.72,1.917c-1.19,0-1.983-2.116-2.381-6.348
		c-0.485-3.769-0.948-9.346-1.389-16.73L556.939,414.354z"/>
	<path style="fill:#856599;" d="M570.875,415.297l0.199,0.248v0.116c0,0.055-0.11,0.16-0.33,0.314h-0.662
		c-1.168,0-1.962,0.436-2.381,1.306c-0.353,0.958-0.528,2.028-0.528,3.207c0,0.727,0.308,1.907,0.925,3.538
		c0.221,0.441,1.411,1.637,3.571,3.587c1.103,1.587,1.653,3.152,1.653,4.695c0,1.224-0.265,2.419-0.793,3.587
		c-0.243,0.551-0.904,1.025-1.984,1.422c-0.386,0.209-0.694,0.314-0.926,0.314s-0.386-0.083-0.463-0.248v-0.182
		c0-0.121,0.242-0.204,0.728-0.248c1.454-0.551,2.183-1.129,2.183-1.736c0.396-0.793,0.595-1.824,0.595-3.091
		c0-1.664-0.749-3.295-2.249-4.894c-1.179-0.893-2.061-1.758-2.645-2.595c-0.396-0.43-0.793-1.565-1.189-3.406
		c0-0.22-0.023-0.507-0.066-0.859c0-1.411,0.264-2.667,0.793-3.77C567.91,415.732,569.102,415.297,570.875,415.297z"/>
	<path style="fill:#856599;" d="M577.885,414.619c0.452,0.176,0.959,0.264,1.521,0.264c0.881-0.044,1.477-0.066,1.785-0.066
		l0.133,0.198v0.265c0,0.066-0.066,0.132-0.199,0.198c-0.242,0-0.859,0.022-1.852,0.066l-0.793-0.066
		c0.133,0.849,0.198,2.061,0.198,3.637c-0.265,3.846-0.396,6.117-0.396,6.811c0,0.11,0.926,0.242,2.776,0.396l0.199,0.265v0.132
		c-0.022,0.088-0.133,0.176-0.33,0.264c-0.695-0.132-1.599-0.198-2.712-0.198c-0.265,4.298-0.396,7.252-0.396,8.861v1.19
		c0.011,0.088,0.055,0.132,0.132,0.132h0.066l2.513-0.265v0.066l0.132-0.066h0.266c0.065,0,0.153,0.088,0.264,0.265v0.132
		c0,0.066-0.088,0.154-0.264,0.264h-0.662l-2.05,0.265c-0.089-0.044-0.154-0.066-0.198-0.066l-0.133,0.066
		c-0.451,0-0.693-0.265-0.727-0.793v-1.124c0-1.852,0.286-7.384,0.859-16.598v-0.265c0-2.05-0.133-3.373-0.396-3.968
		C577.621,414.817,577.709,414.729,577.885,414.619z"/>
	<path style="fill:#856599;" d="M586.465,413.23h0.133c0.121,0.154,0.518,0.287,1.19,0.396c0.837,0.342,1.521,0.959,2.05,1.852
		c0.749,1.818,1.124,3.163,1.124,4.034v0.661c0,2.888-0.838,4.982-2.513,6.282c1.939,0.463,3.063,2.755,3.373,6.877v2.513
		c0,0.375,0.021,0.926,0.065,1.653l-0.198,0.132h-0.199l-0.264-0.198c-0.045-0.882-0.066-1.543-0.066-1.984v-2.38
		c0-1.653-0.507-3.351-1.521-5.092c-0.706-0.662-1.323-0.992-1.852-0.992h-0.066c0.044,0.948,0.066,1.653,0.066,2.116v2.513
		c0.088,2.182,0.132,3.417,0.132,3.703v0.132c-0.088,0.176-0.221,0.265-0.396,0.265c-0.066,0-0.176-0.088-0.33-0.265l0.065-0.463
		c-0.089-1.862-0.132-3.097-0.132-3.703v-3.968c-0.188,0-0.32-0.088-0.396-0.264v-0.198c0.088-0.176,0.197-0.265,0.33-0.265
		c-0.221-6.051-0.508-10.437-0.859-13.159L586.465,413.23z M586.994,414.156c0.265,3.218,0.507,7.208,0.728,11.969
		c1.72-1.168,2.579-3.042,2.579-5.621v-0.926c0-1.157-0.485-2.634-1.455-4.431c-0.727-0.661-1.278-0.992-1.652-0.992H586.994z"/>
</g>
</svg>
