<?xml version="1.0" encoding="iso-8859-1"?>
<!-- Generator: Adobe Illustrator 15.0.0, SVG Export Plug-In . SVG Version: 6.00 Build 0)  -->
<!DOCTYPE svg PUBLIC "-//W3C//DTD SVG 1.1//EN" "http://www.w3.org/Graphics/SVG/1.1/DTD/svg11.dtd">
<svg version="1.1" id="Layer_1" xmlns="http://www.w3.org/2000/svg" xmlns:xlink="http://www.w3.org/1999/xlink" x="0px" y="0px"
	 width="459px" height="492px" viewBox="0 0 459 492" style="enable-background:new 0 0 459 492;" xml:space="preserve">
<rect style="fill:#662D91;" width="459" height="492"/>
<path style="fill:#502377;" d="M256.678,315.581c-7.759,25.339-30.141,37.956-76.175,26.857
	c-34.885-8.411-63.423-32.384-53.427-63.372c8.136-25.221,44.483-31.952,81.521-28.386
	C244.317,254.119,264.437,290.243,256.678,315.581z"/>
<g>
	<path style="fill:#FFFFFF;" d="M46.967,151.686l0.276,0.345v0.161c0,0.077-0.154,0.223-0.461,0.438h-0.921
		c-1.627,0-2.733,0.607-3.316,1.819c-0.492,1.335-0.737,2.825-0.737,4.467c0,1.013,0.429,2.656,1.29,4.928
		c0.307,0.614,1.965,2.28,4.974,4.997c1.535,2.21,2.303,4.391,2.303,6.54c0,1.704-0.368,3.37-1.105,4.997
		c-0.338,0.768-1.259,1.428-2.764,1.98c-0.537,0.292-0.967,0.438-1.29,0.438c-0.322,0-0.537-0.115-0.645-0.345v-0.253
		c0-0.169,0.337-0.284,1.013-0.346c2.026-0.767,3.04-1.573,3.04-2.417c0.553-1.105,0.829-2.541,0.829-4.307
		c0-2.318-1.044-4.59-3.132-6.816c-1.643-1.244-2.871-2.449-3.685-3.615c-0.552-0.599-1.105-2.18-1.658-4.744
		c0-0.307-0.031-0.706-0.092-1.197c0-1.965,0.369-3.715,1.105-5.25C42.837,152.292,44.495,151.686,46.967,151.686z"/>
	<path style="fill:#FFFFFF;" d="M59.241,152.676h0.737c0.46,0,1.013,1.013,1.658,3.04c0.614,4.544,0.921,9.088,0.921,13.632
		c0,7.093-0.43,11.299-1.29,12.619c-0.476,0.553-0.906,0.829-1.29,0.829h-0.369c-1.673,0-2.748-2.671-3.224-8.014
		c-0.123-2.042-0.246-4.958-0.369-8.75v-1.75c0-3.746,0.583-7.062,1.75-9.948c-0.062-0.107-0.092-0.23-0.092-0.368L59.241,152.676z
		 M56.846,164.466c0.199,6.249,0.445,10.516,0.737,12.803c0.507,3.071,1.244,4.606,2.211,4.606c1.228,0,1.842-4.114,1.842-12.343
		v-0.184c0-5.266-0.338-9.902-1.013-13.909c-0.492-1.228-0.829-1.842-1.014-1.842h-0.092c-1.105,0.707-1.935,3.439-2.487,8.198
		L56.846,164.466z"/>
	<path style="fill:#FFFFFF;" d="M69.764,148.807h0.185c0.168,0.215,0.721,0.399,1.658,0.552c1.167,0.476,2.119,1.336,2.855,2.579
		c1.044,2.533,1.566,4.406,1.566,5.619v0.921c0,4.022-1.167,6.939-3.5,8.75c2.702,0.645,4.268,3.838,4.697,9.58v3.5
		c0,0.522,0.031,1.29,0.092,2.303l-0.276,0.184h-0.276l-0.368-0.276c-0.062-1.228-0.092-2.149-0.092-2.763v-3.316
		c0-2.303-0.706-4.667-2.119-7.093c-0.982-0.921-1.842-1.382-2.579-1.382h-0.092c0.061,1.321,0.092,2.303,0.092,2.948v3.5
		c0.123,3.04,0.185,4.759,0.185,5.158v0.185c-0.123,0.246-0.308,0.368-0.553,0.368c-0.092,0-0.246-0.123-0.461-0.368l0.092-0.645
		c-0.123-2.594-0.184-4.313-0.184-5.158v-5.526c-0.261,0-0.445-0.123-0.553-0.369v-0.276c0.123-0.245,0.276-0.368,0.46-0.368
		c-0.307-8.428-0.706-14.538-1.197-18.331L69.764,148.807z M70.501,150.097c0.368,4.482,0.706,10.04,1.013,16.672
		c2.395-1.627,3.592-4.237,3.592-7.83v-1.29c0-1.612-0.676-3.669-2.026-6.171c-1.014-0.921-1.781-1.381-2.303-1.381H70.501z"/>
	<path style="fill:#FFFFFF;" d="M91.917,152.814l0.276,0.322v0.23c0,0.261-0.86,0.392-2.579,0.392h-2.579
		c-0.092,0-0.184,0.107-0.276,0.322l0.185,4.214c-0.062,0.384-0.092,0.599-0.092,0.645c0.553,9.288,0.829,15.943,0.829,19.965
		c0.061,0.107,0.092,0.192,0.092,0.253c-0.062,0.092-0.092,0.169-0.092,0.23l0.092,0.553c-0.092,0.215-0.184,0.322-0.276,0.322
		h-0.369c-0.062,0-0.184-0.107-0.369-0.322c0-0.107,0.031-0.399,0.092-0.875c0-1.32-0.276-7.952-0.829-19.896
		c0-1.95-0.062-3.723-0.184-5.319l-0.184-0.092h-0.276l-2.948,0.253c-0.184-0.199-0.276-0.438-0.276-0.714
		c0-0.092,0.123-0.199,0.369-0.322c0.43,0.107,0.675,0.161,0.737,0.161c1.182-0.107,2.011-0.161,2.487-0.161h3.777
		C90.305,152.975,91.104,152.921,91.917,152.814z"/>
	<path style="fill:#FFFFFF;" d="M99.355,151.478h0.185c0.429,0,0.645,1.627,0.645,4.882v1.198c0,1.197-0.184,4.298-0.553,9.303
		c0,0.246,0.031,0.491,0.092,0.737c-0.062,3.208-0.092,5.757-0.092,7.645v5.987c0,0.123,0.061,0.43,0.184,0.921
		c-0.077,0.43-0.199,0.645-0.368,0.645h-0.369c-0.246,0-0.368-0.829-0.368-2.487c0-10.654,0.184-17.992,0.553-22.015v-2.579
		c0-1.428-0.092-2.717-0.276-3.869C98.987,151.754,99.109,151.632,99.355,151.478z"/>
	<path style="fill:#FFFFFF;" d="M107.415,148.807h0.185c0.168,0.215,0.721,0.399,1.658,0.552c1.167,0.476,2.119,1.336,2.855,2.579
		c1.044,2.533,1.566,4.406,1.566,5.619v0.921c0,4.022-1.167,6.939-3.5,8.75c2.702,0.645,4.268,3.838,4.697,9.58v3.5
		c0,0.522,0.031,1.29,0.092,2.303l-0.276,0.184h-0.276l-0.368-0.276c-0.062-1.228-0.092-2.149-0.092-2.763v-3.316
		c0-2.303-0.706-4.667-2.119-7.093c-0.982-0.921-1.842-1.382-2.579-1.382h-0.092c0.061,1.321,0.092,2.303,0.092,2.948v3.5
		c0.123,3.04,0.185,4.759,0.185,5.158v0.185c-0.123,0.246-0.308,0.368-0.553,0.368c-0.092,0-0.246-0.123-0.461-0.368l0.092-0.645
		c-0.123-2.594-0.184-4.313-0.184-5.158v-5.526c-0.261,0-0.445-0.123-0.553-0.369v-0.276c0.123-0.245,0.276-0.368,0.46-0.368
		c-0.307-8.428-0.706-14.538-1.197-18.331L107.415,148.807z M108.152,150.097c0.368,4.482,0.706,10.04,1.013,16.672
		c2.395-1.627,3.592-4.237,3.592-7.83v-1.29c0-1.612-0.676-3.669-2.026-6.171c-1.014-0.921-1.781-1.381-2.303-1.381H108.152z"/>
	<path style="fill:#FFFFFF;" d="M132.814,150.833h0.553c0.292,0.307,1.028,0.645,2.211,1.013c1.75,1.09,2.978,2.625,3.684,4.605
		c0.614,2.057,0.921,3.685,0.921,4.882v2.763c0,0.246,0.03,0.492,0.092,0.737c-0.414,6.064-0.967,9.84-1.658,11.33
		c0,0.676-0.645,2.303-1.935,4.882c-0.798,1.167-1.29,1.75-1.474,1.75c-0.43-0.092-0.645-0.215-0.645-0.369v-0.368
		c0.307-0.476,0.46-0.906,0.46-1.29c-0.123-0.246-0.184-0.43-0.184-0.553c0.061-0.184,0.123-0.276,0.184-0.276
		c-0.062-0.798-0.092-1.443-0.092-1.934c0-15.229-0.829-24.103-2.487-26.62v-0.185C132.446,151.11,132.569,150.987,132.814,150.833z
		 M133.92,152.215v0.092c1.29,3.961,1.935,12.497,1.935,25.607v0.368c0.061,1.229,0.092,1.904,0.092,2.027
		c1.044-1.566,1.935-4.207,2.671-7.922c0.307-2.026,0.553-4.513,0.737-7.461c0-4.82-0.553-8.014-1.658-9.58
		C137.021,153.935,135.762,152.891,133.92,152.215z"/>
	<path style="fill:#FFFFFF;" d="M148.197,150.741c0.629,0.246,1.336,0.369,2.119,0.369c1.228-0.062,2.057-0.092,2.487-0.092
		l0.184,0.276v0.369c0,0.092-0.092,0.184-0.276,0.276c-0.338,0-1.197,0.031-2.579,0.092l-1.105-0.092
		c0.184,1.183,0.276,2.871,0.276,5.066c-0.368,5.358-0.553,8.52-0.553,9.487c0,0.154,1.29,0.338,3.869,0.553l0.276,0.369v0.184
		c-0.031,0.123-0.184,0.246-0.46,0.368c-0.967-0.184-2.226-0.276-3.776-0.276c-0.369,5.987-0.553,10.102-0.553,12.343v1.658
		c0.015,0.123,0.077,0.185,0.184,0.185h0.092l3.5-0.369v0.092l0.184-0.092h0.369c0.092,0,0.215,0.123,0.369,0.369v0.184
		c0,0.092-0.123,0.215-0.369,0.368h-0.921l-2.855,0.369c-0.123-0.061-0.215-0.092-0.276-0.092l-0.185,0.092
		c-0.629,0-0.967-0.369-1.013-1.105v-1.566c0-2.579,0.399-10.285,1.198-23.12v-0.369c0-2.855-0.185-4.698-0.553-5.526
		C147.829,151.018,147.951,150.895,148.197,150.741z"/>
	<path style="fill:#FFFFFF;" d="M176.613,151.686l0.276,0.345v0.161c0,0.077-0.154,0.223-0.461,0.438h-0.921
		c-1.627,0-2.733,0.607-3.316,1.819c-0.492,1.335-0.737,2.825-0.737,4.467c0,1.013,0.429,2.656,1.29,4.928
		c0.307,0.614,1.965,2.28,4.974,4.997c1.535,2.21,2.303,4.391,2.303,6.54c0,1.704-0.368,3.37-1.105,4.997
		c-0.338,0.768-1.259,1.428-2.764,1.98c-0.537,0.292-0.967,0.438-1.29,0.438c-0.322,0-0.537-0.115-0.645-0.345v-0.253
		c0-0.169,0.337-0.284,1.013-0.346c2.026-0.767,3.04-1.573,3.04-2.417c0.553-1.105,0.829-2.541,0.829-4.307
		c0-2.318-1.044-4.59-3.132-6.816c-1.643-1.244-2.871-2.449-3.685-3.615c-0.552-0.599-1.105-2.18-1.658-4.744
		c0-0.307-0.031-0.706-0.092-1.197c0-1.965,0.369-3.715,1.105-5.25C172.483,152.292,174.141,151.686,176.613,151.686z"/>
	<path style="fill:#FFFFFF;" d="M187.943,151.363h0.092c0.875,0.399,1.62,1.482,2.234,3.247c1.704,5.281,2.962,12.028,3.776,20.242
		c0.537,2.671,0.806,5.012,0.806,7.023c-0.077,0.2-0.285,0.299-0.622,0.299c-0.246-0.476-0.614-2.917-1.105-7.323
		c-0.138-0.476-0.446-2.51-0.921-6.103l-0.714-0.092c-3.316,0.308-4.974,0.645-4.974,1.013v3.569l-0.622,8.543
		c0.138,0.215,0.207,0.415,0.207,0.599c0,0.107-0.138,0.246-0.414,0.415c-0.538,0-0.806-0.337-0.806-1.013
		c0.476-6.479,0.714-10.377,0.714-11.698c-0.062-0.844-0.092-1.696-0.092-2.556c0.031-4.421,0.399-9.096,1.105-14.024
		C186.899,152.077,187.344,151.363,187.943,151.363z M187.943,152.583c-0.89,3.439-1.335,7.883-1.335,13.333
		c-0.062,0-0.092,0.745-0.092,2.234v0.299c1.935-0.537,3.8-0.806,5.596-0.806v-0.115c0-1.873-1.021-6.31-3.062-13.31
		C188.603,153.251,188.234,152.707,187.943,152.583z"/>
	<path style="fill:#FFFFFF;" d="M214.586,154.979h0.185c0,0.23,1.965,0.415,5.896,0.553c1.105,0.123,1.657,0.399,1.657,0.829v0.092
		c-1.351,3.7-2.979,9.288-4.882,16.764c-1.351,3.654-2.026,6.448-2.026,8.382c0.507,0.123,1.336,0.184,2.487,0.184
		c0.599,0,1.949-0.031,4.053-0.092c0.43,0.046,0.645,0.108,0.645,0.185l0.185-0.092h0.185c0.092,0,0.215,0.123,0.368,0.368v0.276
		c0,0.123-0.185,0.246-0.553,0.369c-0.507-0.123-0.998-0.184-1.474-0.184c-0.875,0-2.288,0.031-4.237,0.092
		c-1.028-0.123-1.888-0.184-2.579-0.184c-0.123-0.199-0.185-0.353-0.185-0.46c0-1.52,0.706-4.498,2.119-8.935
		c0.368-1.043,1.382-4.759,3.039-11.145c0.737-2.057,1.32-3.838,1.751-5.343c-0.769-0.168-2.979-0.353-6.633-0.553
		c-0.245-0.261-0.368-0.506-0.368-0.737C214.218,155.255,214.341,155.132,214.586,154.979z"/>
	<path style="fill:#FFFFFF;" d="M234.298,152.676h0.737c0.461,0,1.014,1.013,1.658,3.04c0.613,4.544,0.921,9.088,0.921,13.632
		c0,7.093-0.43,11.299-1.289,12.619c-0.477,0.553-0.906,0.829-1.29,0.829h-0.368c-1.674,0-2.748-2.671-3.225-8.014
		c-0.123-2.042-0.245-4.958-0.368-8.75v-1.75c0-3.746,0.583-7.062,1.75-9.948c-0.062-0.107-0.092-0.23-0.092-0.368L234.298,152.676z
		 M231.903,164.466c0.199,6.249,0.445,10.516,0.737,12.803c0.506,3.071,1.243,4.606,2.21,4.606c1.229,0,1.843-4.114,1.843-12.343
		v-0.184c0-5.266-0.338-9.902-1.014-13.909c-0.491-1.228-0.829-1.842-1.013-1.842h-0.093c-1.104,0.707-1.934,3.439-2.486,8.198
		L231.903,164.466z"/>
	<path style="fill:#FFFFFF;" d="M251.017,151.386h0.276l0.368,0.368c-0.123,0.676-0.185,1.443-0.185,2.303
		c0,1.566,0.676,7.338,2.027,17.317l0.828,9.396c-0.092,0.307-0.307,0.46-0.645,0.46c-0.308,0-0.891-2.18-1.75-6.54
		c-0.553-1.995-1.627-6.325-3.224-12.987c-0.921-2.641-1.597-4.974-2.026-7h-0.093l0.093,1.105c0,1.229-0.123,4.974-0.369,11.238
		c0.123,5.634,0.369,10.7,0.737,15.198v0.184c-0.092,0.246-0.308,0.369-0.645,0.369l-0.369-0.276l0.093-0.829
		c-0.369-4.007-0.614-8.857-0.737-14.553c0.245-6.11,0.368-9.794,0.368-11.054c0-0.291-0.03-0.998-0.092-2.118
		c0.062-0.123,0.092-0.215,0.092-0.276c-0.062-0.246-0.092-0.491-0.092-0.737c0-0.982,0.153-1.474,0.461-1.474
		c0.567,0,1.028,1.013,1.382,3.04c2.087,6.909,3.684,12.958,4.789,18.146c0.369,1.351,0.553,2.088,0.553,2.211h0.093
		c-0.308-2.963-1.014-8.735-2.119-17.317c-0.123-0.86-0.215-2.057-0.276-3.592c0.062-1.182,0.093-1.95,0.093-2.303L251.017,151.386z
		"/>
	<path style="fill:#FFFFFF;" d="M262.185,150.741c0.63,0.246,1.336,0.369,2.119,0.369c1.228-0.062,2.057-0.092,2.486-0.092
		l0.185,0.276v0.369c0,0.092-0.092,0.184-0.276,0.276c-0.338,0-1.197,0.031-2.579,0.092l-1.105-0.092
		c0.185,1.183,0.276,2.871,0.276,5.066c-0.368,5.358-0.553,8.52-0.553,9.487c0,0.154,1.29,0.338,3.869,0.553l0.276,0.369v0.184
		c-0.031,0.123-0.185,0.246-0.461,0.368c-0.967-0.184-2.227-0.276-3.776-0.276c-0.368,5.987-0.553,10.102-0.553,12.343v1.658
		c0.015,0.123,0.076,0.185,0.185,0.185h0.092l3.5-0.369v0.092l0.185-0.092h0.368c0.092,0,0.215,0.123,0.368,0.369v0.184
		c0,0.092-0.123,0.215-0.368,0.368h-0.921l-2.855,0.369c-0.123-0.061-0.216-0.092-0.276-0.092l-0.185,0.092
		c-0.63,0-0.967-0.369-1.013-1.105v-1.566c0-2.579,0.398-10.285,1.197-23.12v-0.369c0-2.855-0.185-4.698-0.553-5.526
		C261.816,151.018,261.939,150.895,262.185,150.741z"/>
	<path style="fill:#FFFFFF;" d="M285.835,150.833h0.553c0.291,0.307,1.028,0.645,2.21,1.013c1.75,1.09,2.979,2.625,3.685,4.605
		c0.614,2.057,0.921,3.685,0.921,4.882v2.763c0,0.246,0.031,0.492,0.093,0.737c-0.415,6.064-0.968,9.84-1.658,11.33
		c0,0.676-0.645,2.303-1.935,4.882c-0.798,1.167-1.289,1.75-1.474,1.75c-0.43-0.092-0.645-0.215-0.645-0.369v-0.368
		c0.307-0.476,0.46-0.906,0.46-1.29c-0.123-0.246-0.184-0.43-0.184-0.553c0.061-0.184,0.122-0.276,0.184-0.276
		c-0.062-0.798-0.092-1.443-0.092-1.934c0-15.229-0.829-24.103-2.487-26.62v-0.185C285.466,151.11,285.589,150.987,285.835,150.833z
		 M286.94,152.215v0.092c1.289,3.961,1.934,12.497,1.934,25.607v0.368c0.062,1.229,0.093,1.904,0.093,2.027
		c1.043-1.566,1.934-4.207,2.671-7.922c0.307-2.026,0.553-4.513,0.737-7.461c0-4.82-0.553-8.014-1.658-9.58
		C290.041,153.935,288.782,152.891,286.94,152.215z"/>
	<path style="fill:#FFFFFF;" d="M301.217,150.741c0.63,0.246,1.336,0.369,2.119,0.369c1.228-0.062,2.057-0.092,2.486-0.092
		l0.185,0.276v0.369c0,0.092-0.092,0.184-0.276,0.276c-0.338,0-1.197,0.031-2.579,0.092l-1.105-0.092
		c0.185,1.183,0.276,2.871,0.276,5.066c-0.368,5.358-0.553,8.52-0.553,9.487c0,0.154,1.29,0.338,3.869,0.553l0.276,0.369v0.184
		c-0.031,0.123-0.185,0.246-0.461,0.368c-0.967-0.184-2.227-0.276-3.776-0.276c-0.368,5.987-0.553,10.102-0.553,12.343v1.658
		c0.015,0.123,0.076,0.185,0.185,0.185h0.092l3.5-0.369v0.092l0.185-0.092h0.368c0.092,0,0.215,0.123,0.368,0.369v0.184
		c0,0.092-0.123,0.215-0.368,0.368h-0.921l-2.855,0.369c-0.123-0.061-0.216-0.092-0.276-0.092l-0.185,0.092
		c-0.63,0-0.967-0.369-1.013-1.105v-1.566c0-2.579,0.398-10.285,1.197-23.12v-0.369c0-2.855-0.185-4.698-0.553-5.526
		C300.849,151.018,300.972,150.895,301.217,150.741z"/>
	<path style="fill:#FFFFFF;" d="M329.449,151.57h0.645c1.105,0.2,1.658,0.599,1.658,1.197c0,0.092-0.123,0.215-0.368,0.369h-0.368
		c-0.399-0.491-0.829-0.737-1.29-0.737c-1.535,0.538-2.303,1.028-2.303,1.474c-1.229,2.333-1.842,5.527-1.842,9.58v1.566
		c0,2.732,0.368,6.018,1.105,9.856c0.444,2.809,1.059,4.713,1.842,5.711c0.952,0.829,1.78,1.259,2.487,1.29
		c0.905,0,1.888-0.676,2.947-2.027h0.276c0.092,0,0.185,0.092,0.276,0.276v0.185c0,0.552-0.676,1.259-2.026,2.118
		c-0.568,0.246-1.091,0.369-1.566,0.369h-0.092c-0.906-0.107-1.857-0.599-2.855-1.474c-1.09-0.86-2.042-4.36-2.855-10.501
		c-0.308-1.32-0.461-3.5-0.461-6.54v-0.553c0.107-6.218,1.121-10.055,3.04-11.514C328.604,151.786,329.188,151.57,329.449,151.57z"
		/>
	<path style="fill:#FFFFFF;" d="M343.312,152.676h0.737c0.461,0,1.014,1.013,1.658,3.04c0.613,4.544,0.921,9.088,0.921,13.632
		c0,7.093-0.43,11.299-1.289,12.619c-0.477,0.553-0.906,0.829-1.29,0.829h-0.368c-1.674,0-2.748-2.671-3.225-8.014
		c-0.123-2.042-0.245-4.958-0.368-8.75v-1.75c0-3.746,0.583-7.062,1.75-9.948c-0.062-0.107-0.092-0.23-0.092-0.368L343.312,152.676z
		 M340.917,164.466c0.199,6.249,0.445,10.516,0.737,12.803c0.506,3.071,1.243,4.606,2.21,4.606c1.229,0,1.843-4.114,1.843-12.343
		v-0.184c0-5.266-0.338-9.902-1.014-13.909c-0.491-1.228-0.829-1.842-1.013-1.842h-0.093c-1.104,0.707-1.934,3.439-2.486,8.198
		L340.917,164.466z"/>
	<path style="fill:#FFFFFF;" d="M360.03,151.386h0.276l0.368,0.368c-0.123,0.676-0.185,1.443-0.185,2.303
		c0,1.566,0.676,7.338,2.027,17.317l0.828,9.396c-0.092,0.307-0.307,0.46-0.645,0.46c-0.308,0-0.891-2.18-1.75-6.54
		c-0.553-1.995-1.627-6.325-3.224-12.987c-0.921-2.641-1.597-4.974-2.026-7h-0.093l0.093,1.105c0,1.229-0.123,4.974-0.369,11.238
		c0.123,5.634,0.369,10.7,0.737,15.198v0.184c-0.092,0.246-0.308,0.369-0.645,0.369l-0.369-0.276l0.093-0.829
		c-0.369-4.007-0.614-8.857-0.737-14.553c0.245-6.11,0.368-9.794,0.368-11.054c0-0.291-0.03-0.998-0.092-2.118
		c0.062-0.123,0.092-0.215,0.092-0.276c-0.062-0.246-0.092-0.491-0.092-0.737c0-0.982,0.153-1.474,0.461-1.474
		c0.567,0,1.028,1.013,1.382,3.04c2.087,6.909,3.684,12.958,4.789,18.146c0.369,1.351,0.553,2.088,0.553,2.211h0.093
		c-0.308-2.963-1.014-8.735-2.119-17.317c-0.123-0.86-0.215-2.057-0.276-3.592c0.062-1.182,0.093-1.95,0.093-2.303L360.03,151.386z"
		/>
	<path style="fill:#FFFFFF;" d="M371.198,150.097c0.123,0,0.553,0.215,1.29,0.645c2.579,0.23,3.868,0.445,3.868,0.645
		c0.062,0.107,0.093,0.23,0.093,0.368c0,0.092-0.123,0.215-0.369,0.369c-2.058-0.246-3.5-0.46-4.329-0.645
		c0.123,0.891,0.185,1.413,0.185,1.566c0,0.399-0.031,1.013-0.093,1.842c0.185,4.452,0.276,8.259,0.276,11.422v0.368
		c0.062,0.185,0.246,0.276,0.553,0.276h2.119c0.215,0,0.491-0.03,0.829-0.092c0.245,0.092,0.368,0.184,0.368,0.276v0.368
		c0,0.184-0.276,0.307-0.829,0.369c-0.123,0-0.185-0.031-0.185-0.092l-0.645,0.092h-1.565l-0.646-0.092
		c0.062,5.634,0.093,9.472,0.093,11.514c0,0.552,0.03,1.627,0.092,3.224l-0.461,0.276l-0.46-0.276l-0.185-12.159
		c0.062-0.337,0.093-0.614,0.093-0.829c-0.062-0.537-0.093-0.875-0.093-1.013c0-0.476,0.031-1.335,0.093-2.579
		c-0.185-6.294-0.308-9.917-0.369-10.869c0.062-0.445,0.093-1.028,0.093-1.75c0-0.737-0.123-1.504-0.369-2.303
		C370.814,150.48,370.999,150.173,371.198,150.097z"/>
	<path style="fill:#FFFFFF;" d="M386.627,152.676h0.737c0.461,0,1.014,1.013,1.658,3.04c0.613,4.544,0.921,9.088,0.921,13.632
		c0,7.093-0.43,11.299-1.289,12.619c-0.477,0.553-0.906,0.829-1.29,0.829h-0.368c-1.674,0-2.748-2.671-3.225-8.014
		c-0.123-2.042-0.245-4.958-0.368-8.75v-1.75c0-3.746,0.583-7.062,1.75-9.948c-0.062-0.107-0.092-0.23-0.092-0.368L386.627,152.676z
		 M384.232,164.466c0.199,6.249,0.445,10.516,0.737,12.803c0.506,3.071,1.243,4.606,2.21,4.606c1.229,0,1.843-4.114,1.843-12.343
		v-0.184c0-5.266-0.338-9.902-1.014-13.909c-0.491-1.228-0.829-1.842-1.013-1.842h-0.093c-1.104,0.707-1.934,3.439-2.486,8.198
		L384.232,164.466z"/>
	<path style="fill:#FFFFFF;" d="M397.151,148.807h0.184c0.169,0.215,0.722,0.399,1.658,0.552c1.167,0.476,2.119,1.336,2.855,2.579
		c1.044,2.533,1.566,4.406,1.566,5.619v0.921c0,4.022-1.167,6.939-3.501,8.75c2.702,0.645,4.268,3.838,4.698,9.58v3.5
		c0,0.522,0.03,1.29,0.092,2.303l-0.276,0.184h-0.276l-0.368-0.276c-0.062-1.228-0.092-2.149-0.092-2.763v-3.316
		c0-2.303-0.707-4.667-2.119-7.093c-0.982-0.921-1.842-1.382-2.579-1.382h-0.092c0.061,1.321,0.092,2.303,0.092,2.948v3.5
		c0.123,3.04,0.185,4.759,0.185,5.158v0.185c-0.123,0.246-0.308,0.368-0.553,0.368c-0.092,0-0.246-0.123-0.461-0.368l0.093-0.645
		c-0.123-2.594-0.185-4.313-0.185-5.158v-5.526c-0.262,0-0.445-0.123-0.553-0.369v-0.276c0.123-0.245,0.276-0.368,0.461-0.368
		c-0.308-8.428-0.707-14.538-1.198-18.331L397.151,148.807z M397.888,150.097c0.369,4.482,0.706,10.04,1.014,16.672
		c2.395-1.627,3.592-4.237,3.592-7.83v-1.29c0-1.612-0.676-3.669-2.026-6.171c-1.013-0.921-1.781-1.381-2.303-1.381H397.888z"/>
	<path style="fill:#FFFFFF;" d="M419.304,152.814l0.276,0.322v0.23c0,0.261-0.86,0.392-2.579,0.392h-2.579
		c-0.093,0-0.185,0.107-0.276,0.322l0.184,4.214c-0.062,0.384-0.092,0.599-0.092,0.645c0.553,9.288,0.829,15.943,0.829,19.965
		c0.062,0.107,0.092,0.192,0.092,0.253c-0.062,0.092-0.092,0.169-0.092,0.23l0.092,0.553c-0.092,0.215-0.184,0.322-0.276,0.322
		h-0.368c-0.062,0-0.185-0.107-0.368-0.322c0-0.107,0.03-0.399,0.092-0.875c0-1.32-0.276-7.952-0.829-19.896
		c0-1.95-0.062-3.723-0.185-5.319l-0.184-0.092h-0.276l-2.947,0.253c-0.185-0.199-0.276-0.438-0.276-0.714
		c0-0.092,0.122-0.199,0.368-0.322c0.43,0.107,0.675,0.161,0.736,0.161c1.183-0.107,2.012-0.161,2.487-0.161h3.776
		C417.691,152.975,418.489,152.921,419.304,152.814z"/>
</g>
<g>
	<path style="fill:none;stroke:#FFFFFF;stroke-miterlimit:10;stroke-dasharray:11.8132,4.9222;" d="M249.576,308.515
		c-3.881,12.674-15.076,18.985-38.103,13.434c-17.449-4.207-31.724-16.198-26.724-31.698c4.069-12.615,22.25-15.982,40.776-14.198
		C243.394,277.772,253.457,295.841,249.576,308.515z"/>
</g>
<path style="fill:none;stroke:#FFFFFF;stroke-miterlimit:10;" d="M219,299.5c15.5,0.291,49-12,57.5-24.5"/>
<polyline style="fill:none;stroke:#FFFFFF;stroke-miterlimit:10;" points="267.483,276.762 277.5,274.5 274.167,284.833 "/>
<g>
	<line style="fill:none;stroke:#FFFFFF;stroke-width:0.5;stroke-miterlimit:10;" x1="318" y1="228.625" x2="314.75" y2="232.75"/>
	
		<line style="fill:none;stroke:#FFFFFF;stroke-width:0.5;stroke-miterlimit:10;" x1="322.015" y1="233.338" x2="317.343" y2="235.563"/>
	
		<line style="fill:none;stroke:#FFFFFF;stroke-width:0.5;stroke-miterlimit:10;" x1="317.688" y1="239.497" x2="322.015" y2="240.828"/>
	
		<line style="fill:none;stroke:#FFFFFF;stroke-width:0.5;stroke-miterlimit:10;" x1="315.079" y1="242.067" x2="317.688" y2="245.456"/>
	
		<line style="fill:none;stroke:#FFFFFF;stroke-width:0.5;stroke-miterlimit:10;" x1="310.568" y1="243.631" x2="310.384" y2="245.761"/>
	
		<line style="fill:none;stroke:#FFFFFF;stroke-width:0.5;stroke-miterlimit:10;" x1="306.122" y1="241.515" x2="304.861" y2="242.419"/>
	
		<line style="fill:none;stroke:#FFFFFF;stroke-width:0.5;stroke-miterlimit:10;" x1="304.861" y1="229.644" x2="307.131" y2="232.347"/>
	
		<line style="fill:none;stroke:#FFFFFF;stroke-width:0.5;stroke-miterlimit:10;" x1="310.996" y1="227.406" x2="311.006" y2="231.76"/>
	
		<line style="fill:none;stroke:#FFFFFF;stroke-width:0.5;stroke-miterlimit:10;" x1="302.297" y1="235.563" x2="304.861" y2="236.248"/>
</g>
</svg>
