<?xml version="1.0" encoding="utf-8"?>
<!-- Generator: Adobe Illustrator 16.0.0, SVG Export Plug-In . SVG Version: 6.00 Build 0)  -->
<!DOCTYPE svg PUBLIC "-//W3C//DTD SVG 1.1//EN" "http://www.w3.org/Graphics/SVG/1.1/DTD/svg11.dtd">
<svg version="1.1" id="Layer_1" xmlns="http://www.w3.org/2000/svg" xmlns:xlink="http://www.w3.org/1999/xlink" x="0px" y="0px"
	 width="500px" height="654px" viewBox="0 0 500 654" enable-background="new 0 0 500 654" xml:space="preserve">
<rect x="0" y="0" fill="#337A96" width="500" height="654"/>
<path fill="#E0B9B2" d="M244.847,613.7c0,0-31.046-38.015-59.347-67.2c-28.525-29.416-118-108-68.126-175.266
	c35.762-48.231,98.056-39.223,123.016,0.893c22.334,35.894,11.588,37.438,11.588,37.438s8.022-21.395,37.439-43.68
	s91.815-7.354,103.403,30.309c17.828,57.942-59.725,130.146-73.096,143.52"/>
<path fill="#E07FB2" d="M244.131,603.7c0,0-28.926-35.419-55.295-62.611c-26.578-27.408-109.943-100.626-63.476-163.301
	c33.32-44.938,91.361-36.544,114.617,0.831c20.811,33.443,10.797,34.885,10.797,34.885s7.476-19.936,34.884-40.698
	c27.408-20.765,85.548-6.852,96.345,28.239c16.61,53.986-55.646,121.262-68.105,133.721"/>
<g>
	<path fill="#FFFFFF" d="M95.108,207.176H79.954l9.132-49.376h-0.301L67.91,207.176H56.87L53.659,157.8h-0.304l-8.129,49.376H31.28
		l12.444-71.054h19.37l3.412,46.466h0.401l19.366-46.466h21.276L95.108,207.176z"/>
	<path fill="#FFFFFF" d="M139.969,207.176l-0.301-13.348h-16.562l-5.316,13.348h-16.061l30.812-71.054h19.369l3.713,71.054H139.969z
		 M139.266,151.477h-0.398l-11.742,30.509h12.746L139.266,151.477z"/>
	<path fill="#FFFFFF" d="M209.617,207.176h-16.562l-9.333-44.258h-0.301l-7.228,44.258h-13.851l12.344-71.054h16.96l8.935,44.86
		h0.398l7.43-44.86h13.548L209.617,207.176z"/>
	<path fill="#FFFFFF" d="M238.019,207.176h-15.556l12.344-71.054h15.556L238.019,207.176z"/>
	<path fill="#FFFFFF" d="M294.619,150.071h-18.666l-2.609,15.154h17.361l-2.31,13.348h-17.262l-5.021,28.603H250.86l12.347-71.054
		h33.819L294.619,150.071z"/>
	<path fill="#FFFFFF" d="M336.97,149.67h-18.566l-2.606,14.753h17.359l-2.208,12.646h-17.262l-2.81,16.258h20.271l-2.409,13.853
		h-35.022l12.345-71.057h33.219L336.97,149.67z"/>
	<path fill="#FFFFFF" d="M377.112,152.38c-1.139-1.338-2.544-2.392-4.216-3.159c-1.673-0.771-3.412-1.154-5.219-1.154
		c-0.938,0-1.924,0.185-2.96,0.552c-1.038,0.369-1.975,0.92-2.812,1.656c-0.837,0.736-1.537,1.656-2.104,2.76
		c-0.569,1.104-0.854,2.426-0.854,3.964c0,1.941,0.585,3.547,1.759,4.817c1.17,1.271,2.926,2.576,5.269,3.914
		c1.338,0.803,2.761,1.756,4.266,2.857c1.509,1.104,2.876,2.408,4.114,3.914c1.237,1.506,2.259,3.246,3.062,5.222
		c0.803,1.975,1.204,4.266,1.204,6.875c0,4.082-0.688,7.645-2.061,10.688c-1.372,3.045-3.211,5.587-5.52,7.627
		c-2.311,2.042-4.938,3.562-7.878,4.566c-2.945,1.003-5.988,1.505-9.136,1.505c-4.35,0-8.327-0.737-11.939-2.208
		c-3.613-1.471-6.423-3.277-8.433-5.419l9.135-11.542c1.338,1.54,2.993,2.794,4.968,3.764c1.973,0.971,4.03,1.455,6.172,1.455
		c1.069,0,2.141-0.201,3.212-0.602c1.069-0.401,2.022-0.972,2.86-1.706c0.836-0.735,1.505-1.642,2.007-2.71
		c0.502-1.069,0.753-2.273,0.753-3.613c0-1.939-0.587-3.663-1.757-5.168c-1.171-1.505-3.095-3.026-5.771-4.566
		c-1.54-0.869-3.024-1.839-4.466-2.91c-1.438-1.067-2.71-2.341-3.812-3.812c-1.104-1.471-1.991-3.146-2.659-5.021
		c-0.67-1.87-1.004-4.047-1.004-6.521c0-3.412,0.602-6.589,1.807-9.534c1.204-2.941,2.876-5.483,5.021-7.627
		c2.141-2.14,4.717-3.829,7.728-5.067c3.011-1.235,6.323-1.855,9.938-1.855c4.077,0,7.728,0.637,10.938,1.907
		c3.211,1.271,5.721,2.942,7.526,5.018L377.112,152.38z"/>
	<path fill="#FFFFFF" d="M428.295,149.269h-13.05l-10.136,57.904h-15.255l10.137-57.904h-13.047l2.311-13.147h41.349
		L428.295,149.269z"/>
	<path fill="#FFFFFF" d="M467.937,149.67h-18.567l-2.606,14.753h17.36l-2.209,12.646h-17.262l-2.81,16.258h20.271l-2.409,13.853
		h-35.022l12.345-71.057h33.219L467.937,149.67z"/>
</g>
<g>
	<path d="M81.729,301.128l-0.067-2.982h-3.7l-1.188,2.982h-3.588l6.884-15.876h4.328l0.83,15.876H81.729z M81.573,288.682h-0.09
		l-2.624,6.817h2.848L81.573,288.682z"/>
	<path d="M97.29,301.128h-3.7l-2.085-9.889h-0.064l-1.614,9.889h-3.095l2.758-15.876h3.79l1.996,10.023h0.09l1.659-10.023h3.024
		L97.29,301.128z"/>
	<path d="M110.724,301.128h-3.7l-2.085-9.889h-0.067l-1.614,9.889h-3.095l2.758-15.876h3.79l1.996,10.023h0.09l1.659-10.023h3.027
		L110.724,301.128z"/>
	<path d="M124.962,295.253c-0.165,0.882-0.381,1.704-0.647,2.466c-0.271,0.763-0.636,1.428-1.102,1.996
		c-0.464,0.568-1.037,1.013-1.727,1.334s-1.533,0.482-2.534,0.482c-0.807,0-1.51-0.112-2.105-0.336
		c-0.601-0.227-1.098-0.538-1.491-0.942c-0.396-0.404-0.691-0.878-0.886-1.424c-0.194-0.545-0.292-1.147-0.292-1.805
		c0-0.271,0.011-0.556,0.031-0.854c0.022-0.299,0.063-0.604,0.124-0.919l1.749-10.001h3.479l-1.704,9.731
		c-0.045,0.255-0.083,0.505-0.112,0.752c-0.03,0.244-0.045,0.475-0.045,0.684c0,0.522,0.108,0.957,0.325,1.3
		c0.217,0.344,0.602,0.519,1.155,0.519c0.389,0,0.718-0.087,0.984-0.261c0.271-0.172,0.493-0.401,0.673-0.692
		c0.182-0.292,0.329-0.638,0.448-1.032c0.12-0.396,0.217-0.818,0.292-1.268l1.685-9.731h3.45L124.962,295.253z"/>
	<path d="M133.371,301.128l-0.064-2.982h-3.7l-1.188,2.982h-3.588l6.884-15.876h4.328l0.83,15.876H133.371z M133.214,288.682h-0.09
		L130.5,295.5h2.851L133.214,288.682z"/>
	<path d="M141.847,301.128h-3.479l2.758-15.876h3.479L141.847,301.128z"/>
	<path d="M156.49,289.333c0,1.211-0.271,2.228-0.818,3.05c-0.546,0.822-1.271,1.39-2.186,1.704l1.771,7.041h-3.633l-1.32-6.391
		h-1.166l-1.102,6.391h-3.316l2.758-15.876h4.664c1.402,0,2.479,0.34,3.229,1.02C156.115,286.953,156.49,287.972,156.49,289.333z
		 M153.059,289.782c0-0.613-0.165-1.039-0.493-1.278c-0.329-0.239-0.703-0.359-1.122-0.359h-1.166l-0.717,4.148h1.121
		c0.655,0,1.218-0.209,1.682-0.628S153.059,290.619,153.059,289.782z"/>
	<path d="M166.401,288.279h-4.148l-0.583,3.296h3.879l-0.49,2.826H161.2l-0.628,3.632h4.53l-0.538,3.095h-7.826l2.758-15.876h7.422
		L166.401,288.279z"/>
	<path d="M311.865,301.621c-0.209-0.344-0.463-0.61-0.766-0.807c-0.299-0.194-0.688-0.292-1.166-0.292
		c-0.598,0-1.136,0.217-1.611,0.65c-0.479,0.434-0.885,0.979-1.211,1.637c-0.329,0.658-0.58,1.387-0.751,2.187
		c-0.174,0.8-0.261,1.566-0.261,2.298c0,0.957,0.172,1.738,0.519,2.346c0.344,0.604,0.896,0.905,1.659,0.905
		c0.508,0,0.934-0.113,1.275-0.348c0.344-0.229,0.635-0.475,0.875-0.729l1.592,2.556c-0.521,0.538-1.14,0.983-1.85,1.334
		s-1.544,0.527-2.5,0.527c-0.837,0-1.581-0.15-2.231-0.449c-0.647-0.299-1.189-0.717-1.626-1.256
		c-0.434-0.538-0.762-1.188-0.984-1.939c-0.227-0.755-0.336-1.588-0.336-2.5c0-1.345,0.183-2.652,0.549-3.924
		c0.366-1.271,0.886-2.396,1.558-3.375c0.673-0.979,1.479-1.764,2.411-2.354c0.937-0.591,1.962-0.887,3.083-0.887
		c1.076,0,1.939,0.182,2.59,0.538c0.651,0.359,1.162,0.8,1.536,1.323L311.865,301.621z"/>
	<path d="M320.139,313.483l-0.064-2.982h-3.7l-1.188,2.982h-3.588l6.884-15.876h4.328l0.829,15.876H320.139z M319.982,301.038h-0.09
		l-2.623,6.817h2.851L319.982,301.038z"/>
	<path d="M336.912,301.688c0,1.211-0.272,2.228-0.818,3.05s-1.271,1.39-2.187,1.704l1.771,7.041h-3.633l-1.322-6.391h-1.166
		l-1.1,6.391h-3.318l2.758-15.876h4.665c1.404,0,2.48,0.34,3.229,1.02C336.538,299.308,336.912,300.328,336.912,301.688z
		 M333.481,302.137c0-0.613-0.165-1.039-0.49-1.278c-0.329-0.239-0.703-0.359-1.121-0.359h-1.166l-0.718,4.148h1.118
		c0.657,0,1.222-0.209,1.685-0.628C333.25,303.602,333.481,302.974,333.481,302.137z"/>
	<path d="M347.003,300.545h-2.915l-2.265,12.938h-3.408l2.265-12.938h-2.915l0.519-2.938h9.235L347.003,300.545z"/>
	<path d="M358.932,303.303c0,1.301-0.172,2.583-0.516,3.846c-0.344,1.264-0.834,2.396-1.469,3.397
		c-0.639,1.001-1.413,1.809-2.332,2.422c-0.92,0.61-1.955,0.919-3.105,0.919c-0.808,0-1.529-0.146-2.164-0.438
		c-0.636-0.292-1.17-0.703-1.604-1.23c-0.437-0.53-0.766-1.166-0.986-1.906c-0.225-0.74-0.337-1.566-0.337-2.479
		c0-1.301,0.168-2.586,0.505-3.854c0.336-1.271,0.822-2.407,1.457-3.408c0.636-1.001,1.413-1.812,2.333-2.433
		c0.919-0.62,1.962-0.934,3.128-0.934c0.854,0,1.596,0.146,2.23,0.438c0.636,0.292,1.167,0.707,1.593,1.245s0.743,1.181,0.953,1.929
		C358.828,301.561,358.932,302.391,358.932,303.303z M355.367,303.798c0-0.421-0.03-0.83-0.09-1.233
		c-0.062-0.404-0.16-0.755-0.306-1.054c-0.142-0.302-0.333-0.542-0.568-0.729c-0.239-0.187-0.538-0.28-0.897-0.28
		c-0.568,0-1.072,0.232-1.514,0.695c-0.44,0.464-0.812,1.047-1.109,1.75c-0.3,0.703-0.521,1.465-0.673,2.287
		s-0.228,1.584-0.228,2.287c0,0.419,0.034,0.812,0.104,1.188c0.066,0.374,0.171,0.699,0.312,0.979
		c0.145,0.274,0.338,0.493,0.583,0.647c0.247,0.157,0.553,0.235,0.908,0.235c0.538,0,1.023-0.217,1.458-0.65
		c0.436-0.433,0.799-0.984,1.102-1.656c0.299-0.675,0.523-1.405,0.684-2.198C355.289,305.269,355.367,304.514,355.367,303.798z"/>
	<path d="M369.449,301.621c-0.209-0.356-0.479-0.635-0.81-0.83c-0.329-0.191-0.737-0.292-1.23-0.292
		c-0.646,0-1.215,0.228-1.716,0.677c-0.504,0.447-0.922,1.015-1.259,1.694c-0.336,0.685-0.591,1.43-0.762,2.236
		c-0.173,0.81-0.258,1.573-0.258,2.292c0,0.45,0.048,0.87,0.146,1.259c0.1,0.393,0.242,0.734,0.438,1.033
		c0.193,0.3,0.438,0.536,0.739,0.708c0.299,0.172,0.655,0.258,1.074,0.258c0.583,0,1.094-0.128,1.524-0.384l0.562-3.137h-2.107
		l0.538-2.982h5.135l-1.458,8.39c-0.568,0.391-1.222,0.708-1.962,0.965c-0.74,0.254-1.581,0.38-2.522,0.38
		c-0.927,0-1.731-0.157-2.422-0.474c-0.688-0.312-1.26-0.74-1.716-1.289c-0.456-0.546-0.796-1.193-1.02-1.948
		c-0.228-0.757-0.337-1.573-0.337-2.456c0-1.33,0.184-2.627,0.55-3.893c0.366-1.263,0.882-2.384,1.547-3.361
		c0.665-0.979,1.465-1.771,2.396-2.366c0.938-0.601,1.973-0.897,3.105-0.897c1.062,0,1.933,0.177,2.613,0.527
		c0.68,0.352,1.185,0.804,1.513,1.354L369.449,301.621z"/>
	<path d="M383.711,301.688c0,1.211-0.272,2.228-0.818,3.05s-1.271,1.39-2.187,1.704l1.771,7.041h-3.633l-1.322-6.391h-1.166
		l-1.1,6.391h-3.318l2.761-15.876h4.665c1.401,0,2.479,0.34,3.229,1.02C383.337,299.308,383.711,300.328,383.711,301.688z
		 M380.281,302.137c0-0.613-0.165-1.039-0.493-1.278c-0.329-0.239-0.703-0.359-1.121-0.359H377.5l-0.718,4.148h1.121
		c0.654,0,1.219-0.209,1.682-0.628C380.049,303.602,380.281,302.974,380.281,302.137z"/>
	<path d="M391.089,313.483l-0.067-2.982h-3.697l-1.188,2.982h-3.588l6.885-15.876h4.328l0.829,15.876H391.089z M390.931,301.038
		h-0.09l-2.623,6.817h2.848L390.931,301.038z"/>
	<path d="M407.66,301.733c0,0.941-0.142,1.779-0.415,2.511c-0.277,0.733-0.662,1.349-1.155,1.839
		c-0.493,0.493-1.08,0.867-1.76,1.121c-0.684,0.254-1.424,0.381-2.231,0.381h-1.611l-1.032,5.897h-3.363l2.758-15.876h4.53
		c0.538,0,1.062,0.075,1.581,0.224c0.516,0.149,0.975,0.395,1.379,0.729c0.403,0.336,0.725,0.767,0.964,1.29
		C407.54,300.373,407.66,301.001,407.66,301.733z M404.386,302.226c0-0.538-0.139-0.957-0.415-1.256
		c-0.273-0.3-0.651-0.448-1.132-0.448h-1.144l-0.721,4.283h1.188c0.673,0,1.211-0.231,1.614-0.695
		C404.18,303.646,404.386,303.019,404.386,302.226z"/>
	<path d="M418.333,313.483h-3.431l1.166-6.705h-3.838l-1.165,6.705h-3.432l2.758-15.876h3.409l-1.055,6.099h3.835l1.054-6.099h3.453
		L418.333,313.483z"/>
	<path d="M424.679,313.483h-3.476l2.758-15.876h3.477L424.679,313.483z"/>
	<path d="M437.214,300.635h-4.148l-0.583,3.296h3.882l-0.493,2.826h-3.856l-0.628,3.632h4.529l-0.538,3.095h-7.826l2.758-15.876
		h7.424L437.214,300.635z"/>
</g>
<g>
	<path fill="#8AB6C4" d="M218.145,55.113c-0.125-0.207-0.275-0.369-0.458-0.485c-0.18-0.115-0.413-0.175-0.701-0.175
		c-0.356,0-0.683,0.13-0.97,0.392c-0.287,0.263-0.53,0.588-0.728,0.982c-0.198,0.396-0.352,0.833-0.452,1.314
		c-0.104,0.479-0.155,0.938-0.155,1.381c0,0.573,0.104,1.044,0.312,1.406c0.207,0.363,0.536,0.548,0.994,0.548
		c0.308,0,0.562-0.07,0.771-0.209c0.207-0.142,0.382-0.285,0.524-0.438l0.955,1.536c-0.312,0.323-0.686,0.591-1.109,0.802
		c-0.427,0.211-0.928,0.317-1.502,0.317c-0.503,0-0.95-0.09-1.341-0.271c-0.394-0.18-0.72-0.431-0.979-0.755
		c-0.261-0.322-0.458-0.712-0.593-1.166c-0.134-0.454-0.202-0.955-0.202-1.502c0-0.809,0.11-1.595,0.33-2.355
		c0.22-0.766,0.532-1.439,0.937-2.028c0.405-0.589,0.89-1.062,1.449-1.415c0.562-0.354,1.181-0.532,1.854-0.532
		c0.646,0,1.166,0.108,1.557,0.323c0.391,0.216,0.698,0.479,0.923,0.795L218.145,55.113z"/>
	<path fill="#8AB6C4" d="M224.802,54.52h-2.493l-0.35,1.979h2.331l-0.296,1.698h-2.318l-0.377,2.183h2.722l-0.323,1.86h-4.7
		l1.655-9.541h4.46L224.802,54.52z"/>
	<path fill="#8AB6C4" d="M232.807,54.883c-0.153-0.179-0.341-0.318-0.563-0.424c-0.228-0.103-0.458-0.154-0.701-0.154
		c-0.126,0-0.258,0.024-0.397,0.073c-0.139,0.05-0.265,0.124-0.377,0.225c-0.112,0.099-0.207,0.222-0.283,0.369
		c-0.075,0.147-0.112,0.325-0.112,0.531c0,0.262,0.077,0.479,0.233,0.647c0.157,0.169,0.396,0.346,0.708,0.522
		c0.183,0.108,0.371,0.236,0.573,0.387c0.202,0.146,0.386,0.32,0.552,0.522s0.304,0.438,0.411,0.701
		c0.108,0.263,0.162,0.573,0.162,0.923c0,0.548-0.092,1.027-0.276,1.438c-0.184,0.407-0.431,0.75-0.738,1.021
		c-0.312,0.274-0.663,0.479-1.061,0.613c-0.396,0.135-0.804,0.202-1.226,0.202c-0.584,0-1.119-0.102-1.604-0.296
		c-0.482-0.198-0.859-0.44-1.132-0.729l1.229-1.549c0.179,0.207,0.399,0.375,0.667,0.505c0.265,0.13,0.541,0.196,0.826,0.196
		c0.146,0,0.288-0.027,0.434-0.081c0.143-0.055,0.271-0.13,0.384-0.229c0.112-0.099,0.202-0.22,0.271-0.361
		c0.066-0.146,0.102-0.309,0.102-0.485c0-0.26-0.079-0.492-0.236-0.694c-0.155-0.201-0.416-0.403-0.772-0.61
		c-0.207-0.117-0.407-0.247-0.603-0.394c-0.19-0.144-0.361-0.312-0.512-0.512c-0.147-0.197-0.268-0.422-0.356-0.674
		c-0.091-0.251-0.136-0.543-0.136-0.876c0-0.458,0.081-0.887,0.242-1.28c0.162-0.396,0.386-0.737,0.674-1.023
		c0.288-0.285,0.633-0.515,1.038-0.682c0.404-0.166,0.85-0.249,1.334-0.249c0.548,0,1.038,0.085,1.469,0.256
		c0.434,0.172,0.771,0.396,1.014,0.675L232.807,54.883z"/>
	<path fill="#8AB6C4" d="M235.852,62.241h-2.089l1.658-9.541h2.089L235.852,62.241z"/>
	<path fill="#8AB6C4" d="M243.573,54.466h-1.751l-1.358,7.775h-2.048l1.358-7.775h-1.752l0.312-1.765h5.552L243.573,54.466z"/>
	<path fill="#8AB6C4" d="M248.896,54.52h-2.493l-0.35,1.979h2.331l-0.296,1.698h-2.318l-0.377,2.183h2.722l-0.32,1.86h-4.703
		l1.658-9.541h4.46L248.896,54.52z"/>
	<path fill="#8AB6C4" d="M257.439,54.52h-2.493l-0.351,1.979h2.331l-0.296,1.698h-2.318l-0.376,2.183h2.725l-0.323,1.86h-4.703
		l1.657-9.541h4.461L257.439,54.52z"/>
	<path fill="#8AB6C4" d="M262.829,54.883c-0.153-0.179-0.345-0.318-0.566-0.424c-0.225-0.103-0.458-0.154-0.701-0.154
		c-0.125,0-0.258,0.024-0.396,0.073c-0.142,0.05-0.268,0.124-0.377,0.225c-0.112,0.099-0.207,0.222-0.283,0.369
		s-0.114,0.325-0.114,0.531c0,0.262,0.078,0.479,0.235,0.647s0.394,0.346,0.708,0.522c0.18,0.108,0.37,0.236,0.569,0.387
		c0.202,0.146,0.39,0.32,0.556,0.522s0.304,0.438,0.411,0.701c0.104,0.265,0.161,0.573,0.161,0.923c0,0.548-0.095,1.027-0.275,1.438
		c-0.188,0.407-0.433,0.75-0.741,1.021c-0.311,0.274-0.663,0.479-1.058,0.613c-0.396,0.135-0.808,0.202-1.229,0.202
		c-0.584,0-1.118-0.102-1.604-0.296c-0.485-0.198-0.862-0.44-1.132-0.729l1.226-1.549c0.18,0.207,0.402,0.375,0.667,0.505
		c0.266,0.13,0.541,0.196,0.829,0.196c0.144,0,0.287-0.027,0.432-0.081c0.146-0.055,0.271-0.13,0.387-0.229
		c0.109-0.099,0.199-0.22,0.27-0.361c0.068-0.146,0.101-0.309,0.101-0.485c0-0.26-0.075-0.492-0.232-0.694
		c-0.157-0.201-0.416-0.403-0.775-0.61c-0.206-0.117-0.404-0.247-0.6-0.394c-0.194-0.144-0.363-0.312-0.512-0.512
		c-0.148-0.197-0.271-0.422-0.357-0.674c-0.09-0.251-0.135-0.543-0.135-0.876c0-0.458,0.081-0.887,0.243-1.28
		c0.158-0.396,0.386-0.737,0.674-1.023c0.287-0.286,0.633-0.515,1.037-0.682c0.401-0.166,0.85-0.249,1.334-0.249
		c0.548,0,1.038,0.085,1.469,0.256c0.432,0.172,0.769,0.396,1.011,0.675L262.829,54.883z"/>
	<path fill="#8AB6C4" d="M269.701,54.466h-1.755l-1.358,7.775h-2.048l1.357-7.775h-1.751l0.312-1.765h5.552L269.701,54.466z"/>
	<path fill="#8AB6C4" d="M278.339,58.711c-0.102,0.53-0.229,1.024-0.394,1.482c-0.158,0.458-0.382,0.855-0.657,1.199
		c-0.278,0.342-0.625,0.606-1.038,0.802c-0.413,0.191-0.921,0.29-1.522,0.29c-0.482,0-0.907-0.067-1.267-0.202
		c-0.36-0.135-0.658-0.324-0.896-0.566c-0.234-0.242-0.415-0.525-0.529-0.854c-0.116-0.328-0.178-0.689-0.178-1.084
		c0-0.162,0.007-0.333,0.021-0.514c0.013-0.181,0.038-0.362,0.074-0.554l1.051-6.01h2.089l-1.024,5.848
		c-0.024,0.153-0.05,0.306-0.064,0.452c-0.021,0.148-0.027,0.285-0.027,0.411c0,0.315,0.065,0.575,0.195,0.782
		c0.131,0.207,0.362,0.31,0.691,0.31c0.233,0,0.435-0.052,0.596-0.154c0.162-0.104,0.297-0.24,0.401-0.417
		c0.108-0.176,0.198-0.383,0.271-0.618c0.072-0.238,0.13-0.492,0.176-0.763l1.011-5.849h2.075L278.339,58.711z"/>
	<path fill="#8AB6C4" d="M285.616,62.241h-2.227l-1.254-5.943h-0.04l-0.971,5.943h-1.859l1.657-9.541h2.277l1.197,6.021h0.057
		l0.997-6.021h1.816L285.616,62.241z"/>
</g>
<g>
	<path d="M116.153,447.569h-14.349l-2.017,11.402h13.418l-1.707,9.771h-13.34l-2.175,12.565h15.668l-1.858,10.704h-27.07
		l9.541-54.915h25.674L116.153,447.569z"/>
	<path d="M151.366,447.26h-10.083l-7.834,44.755h-11.79l7.834-44.755H119.41l1.781-10.16h31.957L151.366,447.26z"/>
	<path d="M201.084,471.691c-0.569,3.052-1.318,5.896-2.25,8.532c-0.934,2.638-2.198,4.938-3.8,6.903
		c-1.604,1.966-3.598,3.504-5.976,4.612c-2.379,1.111-5.301,1.668-8.765,1.668c-2.792,0-5.227-0.388-7.291-1.164
		c-2.069-0.772-3.789-1.858-5.158-3.258c-1.371-1.396-2.392-3.037-3.062-4.925c-0.676-1.887-1.011-3.968-1.011-6.244
		c0-0.931,0.039-1.912,0.116-2.947c0.078-1.031,0.219-2.095,0.427-3.181l6.053-34.593h12.021l-5.895,33.662
		c-0.155,0.88-0.285,1.745-0.391,2.599c-0.104,0.854-0.152,1.646-0.152,2.366c0,1.811,0.375,3.31,1.125,4.498
		c0.749,1.188,2.079,1.784,3.991,1.784c1.347,0,2.482-0.297,3.413-0.895c0.934-0.594,1.707-1.396,2.327-2.403
		c0.621-1.01,1.137-2.195,1.551-3.566c0.414-1.369,0.749-2.831,1.012-4.383l5.814-33.662h11.945L201.084,471.691z"/>
	<path d="M240.951,447.26h-10.083l-7.834,44.755h-11.79l7.834-44.755h-10.083l1.781-10.16h31.957L240.951,447.26z"/>
	<path d="M282.216,456.802c0,4.498-0.595,8.933-1.784,13.302c-1.188,4.37-2.883,8.287-5.08,11.751
		c-2.198,3.465-4.887,6.258-8.063,8.377c-3.184,2.12-6.765,3.181-10.743,3.181c-2.792,0-5.288-0.505-7.485-1.513
		c-2.198-1.009-4.046-2.43-5.546-4.267c-1.5-1.834-2.637-4.033-3.413-6.596c-0.774-2.56-1.164-5.416-1.164-8.567
		c0-4.499,0.582-8.945,1.745-13.342c1.164-4.396,2.843-8.324,5.042-11.789c2.197-3.467,4.886-6.271,8.067-8.416
		c3.18-2.146,6.786-3.222,10.817-3.222c2.947,0,5.521,0.504,7.72,1.516c2.194,1.008,4.03,2.44,5.508,4.305
		c1.474,1.861,2.568,4.085,3.296,6.67C281.854,450.776,282.216,453.646,282.216,456.802z M269.883,458.509
		c0-1.447-0.104-2.87-0.312-4.269c-0.204-1.396-0.557-2.608-1.048-3.646c-0.488-1.035-1.147-1.874-1.978-2.521
		c-0.827-0.646-1.861-0.969-3.104-0.969c-1.966,0-3.711,0.802-5.232,2.404c-1.526,1.604-2.809,3.62-3.84,6.05
		c-1.035,2.431-1.812,5.068-2.326,7.911c-0.521,2.845-0.776,5.479-0.776,7.912c0,1.445,0.116,2.815,0.353,4.107
		c0.229,1.293,0.594,2.418,1.086,3.374c0.487,0.958,1.161,1.707,2.017,2.25c0.853,0.543,1.9,0.814,3.141,0.814
		c1.862,0,3.542-0.749,5.042-2.25c1.499-1.499,2.769-3.412,3.804-5.739c1.031-2.327,1.819-4.86,2.362-7.602
		C269.611,463.6,269.883,460.988,269.883,458.509z"/>
	<path d="M324.333,451.37c0,3.261-0.479,6.154-1.438,8.688s-2.289,4.653-3.995,6.359c-1.706,1.704-3.733,2.997-6.089,3.879
		c-2.354,0.88-4.925,1.315-7.718,1.315h-5.584l-3.568,20.399H284.31l9.541-54.915h15.668c1.861,0,3.687,0.259,5.468,0.772
		c1.784,0.521,3.374,1.357,4.771,2.521c1.396,1.164,2.507,2.647,3.335,4.46C323.918,446.665,324.333,448.84,324.333,451.37z
		 M313.009,453.076c0-1.858-0.479-3.309-1.438-4.344c-0.954-1.033-2.263-1.551-3.917-1.551h-3.952l-2.482,14.812h4.111
		c2.323,0,4.188-0.801,5.584-2.401C312.31,457.989,313.009,455.817,313.009,453.076z"/>
	<path d="M336.277,492.014h-12.021l9.541-54.915h12.021L336.277,492.014z"/>
	<path d="M379.636,447.569h-14.35l-2.02,11.402h13.419l-1.707,9.771h-13.34l-2.172,12.565h15.668l-1.861,10.704h-27.067
		l9.541-54.915h25.673L379.636,447.569z"/>
	<path d="M410.657,449.664c-0.88-1.031-1.966-1.849-3.258-2.44c-1.293-0.594-2.638-0.896-4.033-0.896
		c-0.725,0-1.484,0.146-2.288,0.43c-0.803,0.282-1.523,0.712-2.172,1.277c-0.646,0.569-1.188,1.279-1.629,2.136
		c-0.438,0.854-0.659,1.875-0.659,3.062c0,1.501,0.452,2.741,1.357,3.724c0.903,0.982,2.261,1.991,4.071,3.024
		c1.033,0.621,2.134,1.357,3.297,2.211c1.163,0.854,2.223,1.861,3.18,3.024c0.957,1.164,1.746,2.509,2.366,4.031
		c0.62,1.525,0.931,3.299,0.931,5.312c0,3.155-0.528,5.908-1.59,8.261c-1.061,2.354-2.479,4.318-4.267,5.896
		c-1.783,1.578-3.813,2.754-6.088,3.526c-2.276,0.776-4.629,1.164-7.062,1.164c-3.359,0-6.438-0.567-9.229-1.707
		c-2.792-1.137-4.964-2.53-6.518-4.188l7.061-8.92c1.034,1.188,2.312,2.16,3.84,2.909c1.524,0.75,3.114,1.121,4.771,1.121
		c0.825,0,1.652-0.151,2.48-0.465c0.826-0.311,1.562-0.749,2.211-1.315c0.646-0.568,1.163-1.27,1.551-2.098
		c0.388-0.823,0.582-1.757,0.582-2.792c0-1.499-0.453-2.831-1.354-3.992c-0.905-1.163-2.396-2.342-4.46-3.528
		c-1.19-0.672-2.341-1.422-3.452-2.25c-1.112-0.826-2.094-1.812-2.947-2.947c-0.853-1.137-1.539-2.43-2.056-3.878
		c-0.52-1.447-0.775-3.128-0.775-5.042c0-2.637,0.466-5.093,1.396-7.368c0.93-2.272,2.223-4.238,3.878-5.896
		c1.653-1.654,3.646-2.959,5.973-3.917c2.327-0.956,4.887-1.438,7.679-1.438c3.153,0,5.976,0.492,8.454,1.477
		c2.482,0.979,4.422,2.273,5.817,3.878L410.657,449.664z"/>
</g>
<g>
	<g>
		<path fill="#FFFFFF" d="M113.43,529.109c-0.701-1.146-1.55-2.05-2.55-2.699c-1-0.646-2.3-0.976-3.899-0.976
			c-2,0-3.8,0.726-5.396,2.175c-1.603,1.451-2.95,3.275-4.049,5.475c-1.103,2.2-1.938,4.64-2.515,7.312
			c-0.575,2.675-0.859,5.237-0.859,7.688c0,3.199,0.571,5.812,1.725,7.837c1.149,2.022,3,3.035,5.549,3.035
			c1.699,0,3.124-0.387,4.274-1.16c1.146-0.773,2.124-1.589,2.924-2.438l5.324,8.549c-1.75,1.8-3.812,3.287-6.188,4.462
			c-2.375,1.175-5.162,1.765-8.358,1.765c-2.803,0-5.287-0.5-7.464-1.5c-2.174-0.999-3.984-2.399-5.437-4.199
			c-1.451-1.799-2.549-3.961-3.299-6.486c-0.75-2.521-1.125-5.311-1.125-8.357c0-4.5,0.609-8.873,1.837-13.123
			c1.224-4.248,2.962-8.014,5.211-11.285c2.249-3.274,4.937-5.898,8.061-7.874c3.124-1.978,6.562-2.962,10.312-2.962
			c3.599,0,6.486,0.6,8.661,1.8c2.175,1.199,3.887,2.675,5.137,4.424L113.43,529.109z"/>
		<path fill="#FFFFFF" d="M160.747,534.733c0,4.353-0.575,8.637-1.728,12.86c-1.147,4.225-2.788,8.012-4.912,11.357
			c-2.125,3.353-4.724,6.051-7.799,8.102c-3.074,2.049-6.537,3.073-10.386,3.073c-2.699,0-5.112-0.486-7.236-1.464
			c-2.125-0.975-3.913-2.35-5.359-4.124c-1.451-1.771-2.552-3.896-3.302-6.374c-0.75-2.475-1.125-5.233-1.125-8.283
			c0-4.353,0.562-8.648,1.688-12.897c1.125-4.249,2.749-8.049,4.874-11.398c2.124-3.349,4.724-6.062,7.799-8.136
			c3.074-2.074,6.562-3.109,10.46-3.109c2.853,0,5.336,0.484,7.461,1.462c2.124,0.976,3.899,2.359,5.324,4.161
			c1.425,1.801,2.486,3.947,3.187,6.447C160.396,528.91,160.747,531.685,160.747,534.733z M148.824,536.385
			c0-1.398-0.104-2.774-0.303-4.124c-0.201-1.353-0.538-2.523-1.013-3.524c-0.476-0.999-1.113-1.812-1.912-2.438
			c-0.8-0.624-1.799-0.938-3-0.938c-1.897,0-3.587,0.775-5.062,2.324c-1.478,1.55-2.713,3.5-3.713,5.849
			c-1,2.354-1.75,4.9-2.25,7.649s-0.75,5.299-0.75,7.646c0,1.4,0.111,2.728,0.339,3.977c0.225,1.251,0.571,2.338,1.05,3.263
			c0.474,0.926,1.125,1.649,1.949,2.174c0.822,0.525,1.837,0.788,3.036,0.788c1.801,0,3.425-0.725,4.872-2.175
			c1.45-1.449,2.677-3.3,3.678-5.549c0.999-2.25,1.762-4.698,2.287-7.35C148.562,541.308,148.824,538.782,148.824,536.385z"/>
		<path fill="#FFFFFF" d="M198.09,568.777h-12.373l-6.974-33.068h-0.228l-5.396,33.068h-10.351l9.226-53.091h12.673l6.674,33.52h0.3
			l5.549-33.52h10.123L198.09,568.777z"/>
		<path fill="#FFFFFF" d="M240.682,529.109c-0.701-1.146-1.55-2.05-2.55-2.699c-1-0.646-2.3-0.976-3.899-0.976
			c-2,0-3.8,0.726-5.396,2.175c-1.603,1.451-2.95,3.275-4.049,5.475c-1.103,2.2-1.938,4.64-2.515,7.312
			c-0.572,2.675-0.859,5.237-0.859,7.688c0,3.199,0.571,5.812,1.725,7.837c1.149,2.022,3,3.035,5.549,3.035
			c1.699,0,3.124-0.387,4.274-1.16c1.146-0.773,2.124-1.589,2.924-2.438l5.324,8.549c-1.75,1.8-3.812,3.287-6.188,4.462
			c-2.375,1.175-5.162,1.765-8.358,1.765c-2.803,0-5.287-0.5-7.461-1.5c-2.177-0.999-3.987-2.399-5.438-4.199
			c-1.451-1.799-2.549-3.961-3.299-6.486c-0.75-2.521-1.125-5.311-1.125-8.357c0-4.5,0.612-8.873,1.837-13.123
			c1.224-4.248,2.962-8.014,5.211-11.285c2.249-3.274,4.938-5.898,8.062-7.874c3.123-1.978,6.562-2.962,10.312-2.962
			c3.599,0,6.486,0.6,8.661,1.8c2.175,1.199,3.887,2.675,5.137,4.424L240.682,529.109z"/>
		<path fill="#FFFFFF" d="M284.773,529.337c0,4.05-0.912,7.447-2.733,10.195c-1.826,2.75-4.267,4.649-7.312,5.699l5.926,23.546
			h-12.146l-4.424-21.371h-3.9l-3.674,21.371H245.41l9.224-53.091h15.598c4.697,0,8.297,1.138,10.797,3.412
			C283.523,521.375,284.773,524.786,284.773,529.337z M273.301,530.837c0-2.052-0.551-3.477-1.65-4.274
			c-1.099-0.798-2.35-1.199-3.748-1.199h-3.897l-2.398,13.872h3.748c2.199,0,4.074-0.699,5.625-2.1
			C272.525,535.734,273.301,533.635,273.301,530.837z"/>
		<path fill="#FFFFFF" d="M317.918,525.81h-13.873l-1.949,11.023h12.973l-1.646,9.445h-12.898l-2.1,12.147h15.146l-1.8,10.349H285.6
			l9.224-53.091h24.82L317.918,525.81z M304.646,511.487l-9.599-10.798h9.448l7.724,10.798H304.646z"/>
		<path fill="#FFFFFF" d="M351.961,525.51h-9.748l-7.574,43.268h-11.396l7.57-43.268h-9.748l1.728-9.823h30.895L351.961,525.51z"/>
		<path fill="#FFFFFF" d="M381.58,525.81h-13.873l-1.949,11.023h12.973l-1.646,9.445h-12.898l-2.1,12.147h15.146l-1.8,10.349h-26.17
			l9.224-53.091h24.82L381.58,525.81z"/>
		<path fill="#FFFFFF" d="M411.573,527.838c-0.851-1-1.897-1.787-3.146-2.362c-1.25-0.574-2.55-0.862-3.899-0.862
			c-0.7,0-1.438,0.139-2.212,0.412c-0.775,0.275-1.475,0.688-2.1,1.237c-0.625,0.551-1.15,1.234-1.574,2.062
			c-0.426,0.824-0.638,1.812-0.638,2.962c0,1.45,0.438,2.65,1.312,3.602s2.188,1.926,3.938,2.925c1,0.6,2.062,1.312,3.188,2.138
			c1.124,0.824,2.148,1.799,3.074,2.924c0.924,1.125,1.687,2.429,2.287,3.899c0.6,1.476,0.896,3.188,0.896,5.137
			c0,3.052-0.513,5.712-1.537,7.986c-1.022,2.275-2.396,4.175-4.124,5.699c-1.725,1.522-3.688,2.661-5.887,3.411
			c-2.2,0.75-4.475,1.125-6.82,1.125c-3.251,0-6.228-0.554-8.927-1.649c-2.696-1.1-4.799-2.449-6.299-4.05l6.823-8.623
			c1,1.149,2.237,2.088,3.712,2.812c1.477,0.729,3.012,1.09,4.612,1.09c0.799,0,1.599-0.149,2.396-0.449
			c0.799-0.301,1.512-0.727,2.137-1.274s1.125-1.225,1.5-2.021c0.375-0.8,0.562-1.699,0.562-2.7c0-1.449-0.438-2.737-1.312-3.861
			c-0.875-1.125-2.312-2.262-4.312-3.412c-1.147-0.646-2.263-1.374-3.337-2.175c-1.075-0.799-2.024-1.749-2.85-2.85
			c-0.826-1.102-1.488-2.352-1.987-3.749c-0.5-1.399-0.75-3.024-0.75-4.874c0-2.551,0.45-4.925,1.351-7.124
			c0.899-2.199,2.148-4.102,3.749-5.699c1.603-1.599,3.524-2.861,5.773-3.786c2.25-0.925,4.725-1.388,7.424-1.388
			c3.049,0,5.771,0.476,8.174,1.425c2.399,0.95,4.274,2.2,5.624,3.749L411.573,527.838z"/>
	</g>
</g>
<g>
	<path fill="#FFFFFF" d="M110.685,398.885c0,2.28-0.271,4.597-0.822,6.938c-0.548,2.344-1.443,4.459-2.691,6.35
		c-1.249,1.888-2.895,3.432-4.934,4.634c-2.04,1.203-4.563,1.804-7.576,1.804H85.3l5.616-32.326h8.538
		c2.009,0,3.729,0.308,5.157,0.913c1.433,0.609,2.598,1.469,3.493,2.579c0.897,1.112,1.556,2.443,1.963,3.995
		C110.479,395.32,110.685,397.025,110.685,398.885z M103.516,399.465c0-1.012-0.084-1.949-0.251-2.821
		c-0.167-0.871-0.438-1.62-0.822-2.247c-0.381-0.626-0.865-1.124-1.461-1.49c-0.594-0.367-1.314-0.551-2.169-0.551H96.85
		l-3.47,20.182h2.055c1.339,0,2.511-0.396,3.519-1.189c1.004-0.795,1.849-1.819,2.531-3.073c0.688-1.254,1.194-2.652,1.53-4.196
		C103.348,402.528,103.516,400.991,103.516,399.465z"/>
	<path fill="#FFFFFF" d="M131.596,392.443h-8.447l-1.188,6.712h7.896l-1.005,5.754H121l-1.279,7.396h9.223l-1.096,6.301h-15.935
		l5.613-32.326h15.113L131.596,392.443z"/>
	<path fill="#FFFFFF" d="M149.859,393.677c-0.518-0.608-1.154-1.088-1.918-1.438c-0.761-0.35-1.552-0.522-2.374-0.522
		c-0.427,0-0.875,0.085-1.347,0.252s-0.898,0.418-1.278,0.753c-0.381,0.335-0.698,0.753-0.959,1.256
		c-0.259,0.502-0.388,1.104-0.388,1.804c0,0.883,0.266,1.613,0.799,2.191c0.532,0.578,1.331,1.172,2.397,1.78
		c0.605,0.362,1.255,0.799,1.938,1.302c0.688,0.502,1.312,1.096,1.872,1.777c0.563,0.688,1.027,1.479,1.396,2.374
		c0.362,0.898,0.548,1.941,0.548,3.131c0,1.854-0.312,3.479-0.938,4.86c-0.624,1.385-1.461,2.541-2.511,3.473
		c-1.05,0.929-2.245,1.618-3.584,2.074c-1.34,0.457-2.725,0.688-4.155,0.688c-1.979,0-3.79-0.336-5.433-1.005
		c-1.646-0.669-2.922-1.491-3.835-2.466l4.155-5.251c0.606,0.698,1.359,1.271,2.26,1.713c0.896,0.438,1.833,0.662,2.808,0.662
		c0.486,0,0.977-0.095,1.461-0.274c0.487-0.183,0.92-0.44,1.304-0.776c0.38-0.334,0.685-0.745,0.91-1.229
		c0.229-0.486,0.346-1.034,0.346-1.646c0-0.883-0.27-1.667-0.802-2.352c-0.53-0.688-1.405-1.377-2.625-2.077
		c-0.697-0.396-1.377-0.837-2.029-1.324c-0.655-0.484-1.233-1.062-1.735-1.732c-0.502-0.669-0.906-1.434-1.21-2.283
		c-0.305-0.854-0.457-1.841-0.457-2.968c0-1.556,0.274-2.998,0.822-4.339s1.309-2.494,2.283-3.472
		c0.974-0.974,2.146-1.742,3.516-2.306c1.37-0.562,2.876-0.845,4.52-0.845c1.856,0,3.519,0.29,4.979,0.864
		c1.461,0.579,2.603,1.343,3.424,2.283L149.859,393.677z"/>
	<path fill="#FFFFFF" d="M175.655,418.606l-0.137-6.072h-7.534l-2.42,6.072h-7.306l14.018-32.326h8.812l1.688,32.326H175.655z
		 M175.336,393.266h-0.186l-5.342,13.881h5.799L175.336,393.266z"/>
	<path fill="#FFFFFF" d="M201.589,418.606h-15.752l5.616-32.326h7.028l-4.475,25.843h8.721L201.589,418.606z"/>
	<path fill="#FFFFFF" d="M224.19,392.261h-5.936l-4.612,26.346h-6.938l4.608-26.346h-5.936l1.05-5.98h18.812L224.19,392.261z"/>
	<path fill="#FFFFFF" d="M242.226,392.443h-8.447l-1.188,6.712h7.896l-1.005,5.754h-7.853l-1.279,7.396h9.226l-1.099,6.301h-15.935
		l5.616-32.326h15.11L242.226,392.443z"/>
	<path fill="#FFFFFF" d="M266.606,394.593c0,2.466-0.556,4.536-1.666,6.21c-1.108,1.674-2.596,2.83-4.452,3.47l3.607,14.337h-7.396
		l-2.694-13.013h-2.374l-2.237,13.013h-6.758l5.616-32.326h9.497c2.857,0,5.053,0.692,6.575,2.077
		C265.846,389.743,266.606,391.82,266.606,394.593z M259.621,395.506c0-1.248-0.335-2.115-1.005-2.604
		c-0.673-0.486-1.434-0.729-2.282-0.729h-2.375l-1.461,8.444h2.28c1.342,0,2.48-0.427,3.428-1.276
		C259.148,398.486,259.621,397.211,259.621,395.506z"/>
	<path fill="#FFFFFF" d="M288.615,418.606h-7.531l-4.246-20.136h-0.14l-3.285,20.136h-6.304l5.616-32.326h7.717l4.063,20.409h0.183
		l3.379-20.409h6.163L288.615,418.606z"/>
	<path fill="#FFFFFF" d="M308.979,418.606l-0.137-6.072h-7.534l-2.42,6.072h-7.305L305.6,386.28h8.812l1.688,32.326H308.979z
		 M308.659,393.266h-0.186l-5.342,13.881h5.798L308.659,393.266z"/>
	<path fill="#FFFFFF" d="M338.656,392.261h-5.936l-4.611,26.346h-6.938l4.608-26.346h-5.936l1.05-5.98h18.812L338.656,392.261z"/>
	<path fill="#FFFFFF" d="M344.09,418.606h-7.077l5.616-32.326h7.077L344.09,418.606z"/>
	<path fill="#FFFFFF" d="M363.632,418.606h-8.904l-2.188-32.326h7.531l0.642,23.974h0.138l8.767-23.974h7.627L363.632,418.606z"/>
	<path fill="#FFFFFF" d="M394.268,392.443h-8.446l-1.188,6.712h7.899l-1.008,5.754h-7.854l-1.278,7.396h9.227l-1.099,6.301h-15.936
		l5.616-32.326h15.11L394.268,392.443z"/>
	<path fill="#FFFFFF" d="M412.531,393.677c-0.518-0.608-1.157-1.088-1.917-1.438c-0.762-0.35-1.553-0.522-2.375-0.522
		c-0.427,0-0.875,0.085-1.347,0.252c-0.473,0.167-0.898,0.418-1.278,0.753c-0.381,0.335-0.7,0.753-0.959,1.256
		c-0.259,0.502-0.388,1.104-0.388,1.804c0,0.883,0.266,1.613,0.799,2.191c0.532,0.578,1.331,1.172,2.396,1.78
		c0.606,0.362,1.256,0.799,1.938,1.302c0.688,0.502,1.311,1.096,1.871,1.777c0.563,0.688,1.027,1.479,1.396,2.374
		c0.362,0.898,0.548,1.941,0.548,3.131c0,1.854-0.312,3.479-0.938,4.86s-1.461,2.541-2.511,3.473
		c-1.051,0.929-2.245,1.618-3.585,2.074c-1.34,0.457-2.725,0.688-4.154,0.688c-1.979,0-3.79-0.336-5.434-1.005
		s-2.922-1.491-3.836-2.466l4.153-5.251c0.607,0.698,1.361,1.271,2.262,1.713c0.896,0.439,1.834,0.662,2.809,0.662
		c0.486,0,0.977-0.095,1.461-0.274c0.486-0.183,0.92-0.44,1.302-0.776c0.383-0.334,0.688-0.745,0.913-1.229
		c0.229-0.486,0.345-1.034,0.345-1.646c0-0.883-0.27-1.667-0.802-2.352c-0.53-0.688-1.405-1.377-2.625-2.077
		c-0.698-0.396-1.378-0.837-2.029-1.324c-0.655-0.484-1.232-1.062-1.735-1.732c-0.502-0.669-0.905-1.434-1.21-2.283
		c-0.305-0.854-0.456-1.841-0.456-2.968c0-1.556,0.273-2.998,0.821-4.339c0.549-1.341,1.309-2.494,2.283-3.472
		c0.974-0.974,2.146-1.742,3.516-2.306c1.37-0.562,2.877-0.845,4.521-0.845c1.856,0,3.519,0.29,4.979,0.864
		c1.461,0.579,2.603,1.343,3.425,2.283L412.531,393.677z"/>
</g>
<polygon points="29.5,207.5 458.833,207.167 470.167,136.167 494.5,127.5 476.5,231.5 5.5,227.5 "/>
<circle fill="#FFFFFF" cx="249" cy="98.5" r="16"/>
<circle fill="#E07FB2" cx="248.334" cy="97.958" r="9.917"/>
<circle cx="251.834" cy="99.958" r="5.667"/>
<path fill="#56BC13" d="M252.5,375.835c0,0-10-17.335-8.333-30.667c1.667-13.333,5.333-27.333,5.333-27.333
	s8.667,34.667,7.333,42.667"/>
<path d="M253.44,381.836c0,0-6.408-8.567-5.34-15.157s3.417-13.511,3.417-13.511s5.554,17.135,4.7,21.089"/>
<path fill="#56BC13" d="M262.824,376.358c0,0-1.253-14.95,4.134-23.461c5.386-8.513,12.339-16.841,12.339-16.841
	s-5.185,26.281-8.641,31.284"/>
<path d="M269.743,363.622c0,0,0.931,7.817-2.176,11.622c-3.104,3.808-7.146,7.353-7.146,7.353s2.766-12.961,4.765-15.166"/>
<g>
	<path fill="#8AB6C4" d="M448.495,223.292h7.743l-2.762,15.89h-3.454l2.198-12.698h-4.281L448.495,223.292z"/>
	<path fill="#8AB6C4" d="M443.358,223.292h3.479l-2.762,15.89h-3.479L443.358,223.292z"/>
	<path fill="#8AB6C4" d="M429.105,235.546c0-0.543,0.071-1.023,0.213-1.459c0.144-0.436,0.337-0.815,0.585-1.144
		c0.251-0.33,0.536-0.606,0.854-0.831s0.669-0.401,1.043-0.516l-0.022-0.045c-0.269-0.076-0.523-0.195-0.769-0.36
		c-0.238-0.166-0.457-0.374-0.645-0.625c-0.195-0.257-0.349-0.551-0.465-0.891c-0.108-0.333-0.168-0.71-0.168-1.134
		c0-0.928,0.161-1.721,0.481-2.379c0.322-0.659,0.745-1.201,1.268-1.626c0.523-0.427,1.11-0.74,1.762-0.944
		c0.652-0.198,1.314-0.302,1.986-0.302h5.252l-2.761,15.89h-4.624c-0.462,0-0.931-0.059-1.4-0.186
		c-0.478-0.126-0.897-0.332-1.282-0.622c-0.38-0.285-0.694-0.659-0.943-1.122C429.226,236.788,429.105,236.219,429.105,235.546z
		 M433.032,228.544c0,0.599,0.182,1.023,0.527,1.268c0.351,0.25,0.736,0.369,1.155,0.369h1.37l0.694-3.99h-1.392
		c-0.688,0-1.252,0.194-1.694,0.594C433.254,227.177,433.032,227.765,433.032,228.544z M432.272,234.85
		c0,0.479,0.148,0.842,0.447,1.089s0.664,0.371,1.1,0.371h1.188l0.631-3.59h-1.282c-0.237,0-0.48,0.041-0.739,0.123
		c-0.254,0.083-0.475,0.209-0.673,0.381c-0.196,0.171-0.354,0.393-0.482,0.662C432.334,234.155,432.272,234.476,432.272,234.85z"/>
	<path fill="#8AB6C4" d="M416.626,235.095c0-1.208,0.274-2.23,0.817-3.049c0.55-0.822,1.283-1.391,2.189-1.71l-1.773-7.047h3.631
		l1.331,6.402h1.167l1.1-6.402h3.322l-2.763,15.89h-4.668c-1.406,0-2.478-0.336-3.231-1.021
		C416.999,237.48,416.626,236.459,416.626,235.095z M420.06,234.647c0,0.618,0.165,1.045,0.495,1.282
		c0.327,0.238,0.699,0.36,1.121,0.36h1.168l0.72-4.153h-1.128c-0.658,0-1.214,0.209-1.682,0.63
		C420.292,233.181,420.06,233.81,420.06,234.647z"/>
	<path fill="#8AB6C4" d="M406.706,236.152h4.152l0.583-3.299h-3.881l0.492-2.829h3.863l0.622-3.631h-4.534l0.544-3.101h7.833
		l-2.762,15.89h-7.43L406.706,236.152z"/>
	<path fill="#8AB6C4" d="M393.109,231.237c0-0.554,0.104-1.07,0.313-1.547c0.209-0.48,0.494-0.902,0.853-1.263
		c0.354-0.353,0.772-0.638,1.257-0.847c0.476-0.211,0.99-0.317,1.548-0.317c0.55,0,1.064,0.106,1.55,0.317
		c0.478,0.209,0.896,0.494,1.256,0.847c0.358,0.36,0.644,0.779,0.851,1.263c0.213,0.476,0.314,0.99,0.314,1.547
		c0,0.549-0.104,1.065-0.314,1.549c-0.207,0.475-0.493,0.897-0.851,1.255c-0.359,0.359-0.775,0.644-1.256,0.853
		c-0.476,0.21-0.996,0.313-1.55,0.313c-0.556,0-1.07-0.104-1.548-0.313c-0.479-0.209-0.902-0.494-1.257-0.853
		c-0.358-0.36-0.644-0.779-0.853-1.255C393.212,232.306,393.109,231.789,393.109,231.237z"/>
	<path fill="#8AB6C4" d="M374.793,235.095c0-1.208,0.273-2.23,0.822-3.049c0.546-0.82,1.276-1.391,2.184-1.71l-1.773-7.047h3.636
		l1.325,6.402h1.168l1.1-6.402h3.321l-2.757,15.89h-4.667c-1.406,0-2.484-0.336-3.232-1.021
		C375.167,237.48,374.793,236.459,374.793,235.095z M378.227,234.647c0,0.618,0.17,1.045,0.494,1.282
		c0.331,0.238,0.705,0.36,1.123,0.36h1.168l0.717-4.153h-1.121c-0.659,0-1.22,0.209-1.683,0.63
		C378.459,233.181,378.227,233.81,378.227,234.647z"/>
	<path fill="#8AB6C4" d="M364.873,236.152h4.151l0.584-3.299h-3.888l0.494-2.829h3.861l0.628-3.631h-4.533l0.539-3.101h7.832
		l-2.762,15.89h-7.428L364.873,236.152z M367.027,240.461h2.268l-2.513,3.232h-2.851L367.027,240.461z"/>
	<path fill="#8AB6C4" d="M353.091,235.052c0-0.944,0.14-1.781,0.415-2.513c0.272-0.734,0.661-1.352,1.15-1.846
		c0.494-0.489,1.083-0.865,1.763-1.122c0.686-0.254,1.427-0.381,2.233-0.381h1.615l1.032-5.902h3.368l-2.762,15.89h-4.534
		c-0.538,0-1.062-0.074-1.578-0.223c-0.516-0.149-0.981-0.393-1.38-0.731c-0.405-0.331-0.727-0.767-0.966-1.285
		C353.209,236.413,353.091,235.785,353.091,235.052z M356.367,234.558c0,0.544,0.139,0.958,0.41,1.256
		c0.278,0.298,0.654,0.449,1.135,0.449h1.14l0.719-4.282h-1.188c-0.673,0-1.215,0.231-1.617,0.695
		C356.568,233.138,356.367,233.764,356.367,234.558z"/>
	<path fill="#8AB6C4" d="M345.368,223.292h7.743l-2.761,15.89h-3.455l2.199-12.698h-4.283L345.368,223.292z"/>
	<path fill="#8AB6C4" d="M340.23,223.292h3.48l-2.763,15.89h-3.479L340.23,223.292z"/>
	<path fill="#8AB6C4" d="M327.482,235.164c0.211,0.345,0.462,0.619,0.764,0.808c0.299,0.195,0.693,0.293,1.168,0.293
		c0.604,0,1.137-0.212,1.615-0.646c0.481-0.434,0.882-0.985,1.213-1.643c0.332-0.659,0.58-1.39,0.751-2.189
		c0.178-0.801,0.26-1.566,0.26-2.3c0-0.957-0.177-1.739-0.515-2.345c-0.345-0.605-0.898-0.914-1.662-0.914
		c-0.51,0-0.935,0.117-1.277,0.348c-0.347,0.231-0.638,0.477-0.877,0.73l-1.594-2.559c0.523-0.539,1.137-0.983,1.851-1.335
		c0.713-0.352,1.543-0.526,2.503-0.526c0.842,0,1.581,0.149,2.233,0.447c0.652,0.299,1.194,0.719,1.627,1.257
		c0.435,0.539,0.768,1.186,0.987,1.94c0.223,0.756,0.331,1.587,0.331,2.505c0,1.346-0.182,2.655-0.548,3.923
		c-0.364,1.276-0.885,2.398-1.563,3.379c-0.675,0.983-1.478,1.77-2.414,2.361c-0.93,0.59-1.958,0.885-3.086,0.885
		c-1.077,0-1.938-0.184-2.593-0.544c-0.65-0.353-1.162-0.799-1.536-1.322L327.482,235.164z"/>
	<path fill="#8AB6C4" d="M319.201,223.292l0.066,2.984h3.698l1.194-2.984h3.591l-6.896,15.89h-4.332l-0.83-15.89H319.201z
		 M319.357,235.747h0.091l2.625-6.823h-2.852L319.357,235.747z"/>
	<path fill="#8AB6C4" d="M302.818,235.546c0-0.543,0.071-1.023,0.214-1.459c0.143-0.436,0.331-0.815,0.583-1.144
		c0.248-0.33,0.532-0.606,0.854-0.831c0.321-0.225,0.669-0.401,1.043-0.516l-0.027-0.045c-0.264-0.076-0.523-0.195-0.764-0.36
		c-0.238-0.166-0.456-0.374-0.649-0.625c-0.194-0.257-0.349-0.551-0.46-0.891c-0.113-0.333-0.168-0.71-0.168-1.134
		c0-0.928,0.161-1.721,0.478-2.379c0.327-0.659,0.744-1.201,1.267-1.626c0.528-0.427,1.116-0.74,1.767-0.944
		c0.647-0.198,1.312-0.302,1.986-0.302h5.247l-2.756,15.89h-4.623c-0.468,0-0.931-0.059-1.406-0.186
		c-0.472-0.126-0.896-0.332-1.279-0.622c-0.382-0.285-0.697-0.659-0.944-1.122C302.933,236.788,302.818,236.219,302.818,235.546z
		 M306.746,228.544c0,0.599,0.176,1.023,0.526,1.268c0.352,0.25,0.737,0.369,1.155,0.369h1.365l0.696-3.99h-1.392
		c-0.692,0-1.252,0.194-1.694,0.594C306.966,227.177,306.746,227.765,306.746,228.544z M305.983,234.85
		c0,0.479,0.148,0.842,0.447,1.089c0.3,0.247,0.665,0.371,1.1,0.371h1.194l0.624-3.59h-1.28c-0.243,0-0.485,0.041-0.739,0.123
		c-0.257,0.083-0.478,0.209-0.678,0.381c-0.189,0.171-0.349,0.393-0.478,0.662C306.046,234.155,305.983,234.476,305.983,234.85z"/>
	<path fill="#8AB6C4" d="M294.379,223.292h7.739l-2.758,15.89h-3.455l2.2-12.698h-4.287L294.379,223.292z"/>
	<path fill="#8AB6C4" d="M283.046,236.152h4.152l0.583-3.299h-3.888l0.495-2.829h3.861l0.628-3.631h-4.534l0.538-3.101h7.833
		l-2.761,15.89h-7.428L283.046,236.152z"/>
	<path fill="#8AB6C4" d="M269.444,231.237c0-0.554,0.105-1.07,0.314-1.547c0.21-0.48,0.494-0.902,0.853-1.263
		c0.36-0.353,0.779-0.638,1.257-0.847c0.479-0.211,0.995-0.317,1.547-0.317c0.555,0,1.071,0.106,1.551,0.317
		c0.478,0.209,0.901,0.494,1.259,0.847c0.361,0.36,0.64,0.779,0.849,1.263c0.211,0.476,0.319,0.99,0.319,1.547
		c0,0.549-0.11,1.065-0.319,1.549c-0.209,0.475-0.494,0.897-0.849,1.255c-0.357,0.359-0.778,0.644-1.259,0.853
		c-0.476,0.21-0.991,0.313-1.551,0.313c-0.549,0-1.064-0.104-1.547-0.313c-0.475-0.209-0.896-0.494-1.257-0.853
		c-0.358-0.36-0.643-0.779-0.853-1.255C269.549,232.306,269.444,231.789,269.444,231.237z"/>
	<path fill="#8AB6C4" d="M259.434,223.292h3.479l-2.762,15.89h-3.476L259.434,223.292z"/>
	<path fill="#8AB6C4" d="M245.992,223.292h3.699l2.088,9.897h0.066l1.618-9.897h3.096l-2.763,15.89h-3.792l-1.997-10.031h-0.09
		l-1.661,10.031h-3.03L245.992,223.292z"/>
	<path fill="#8AB6C4" d="M230.64,232.989c0-1.127,0.133-2.26,0.401-3.412c0.269-1.153,0.71-2.193,1.325-3.121
		c0.619-0.923,1.425-1.686,2.426-2.278c0.998-0.592,2.239-0.887,3.722-0.887h4.603l-2.757,15.89h-4.203
		c-0.986,0-1.832-0.149-2.53-0.448c-0.704-0.299-1.282-0.723-1.721-1.268c-0.442-0.549-0.765-1.206-0.968-1.964
		C230.736,234.744,230.64,233.9,230.64,232.989z M234.163,232.702c0,0.497,0.042,0.958,0.124,1.386s0.215,0.798,0.402,1.104
		c0.187,0.307,0.425,0.547,0.716,0.733c0.291,0.179,0.648,0.269,1.067,0.269h0.964l1.706-9.918h-1.011
		c-0.659,0-1.235,0.196-1.724,0.585c-0.494,0.391-0.914,0.894-1.245,1.512c-0.337,0.616-0.587,1.298-0.757,2.062
		C234.241,231.193,234.163,231.949,234.163,232.702z"/>
	<path fill="#8AB6C4" d="M220.361,236.152h4.151l0.585-3.299h-3.884l0.494-2.829h3.859l0.625-3.631h-4.534l0.544-3.101h7.832
		l-2.76,15.89h-7.43L220.361,236.152z M222.516,240.461h2.266l-2.519,3.232h-2.849L222.516,240.461z"/>
	<path fill="#8AB6C4" d="M208.577,235.052c0-0.944,0.14-1.781,0.416-2.513c0.277-0.734,0.663-1.352,1.157-1.846
		c0.493-0.489,1.08-0.865,1.762-1.122c0.681-0.254,1.424-0.381,2.231-0.381h1.622l1.031-5.902h3.368l-2.761,15.89h-4.533
		c-0.539,0-1.066-0.074-1.583-0.223c-0.516-0.149-0.977-0.393-1.378-0.731c-0.402-0.331-0.721-0.767-0.967-1.285
		C208.698,236.413,208.577,235.785,208.577,235.052z M211.854,234.558c0,0.544,0.14,0.958,0.415,1.256
		c0.279,0.298,0.656,0.449,1.135,0.449h1.144l0.72-4.282h-1.196c-0.673,0-1.208,0.231-1.617,0.695
		C212.056,233.138,211.854,233.764,211.854,234.558z"/>
	<path fill="#8AB6C4" d="M198.928,236.152h4.147l0.588-3.299h-3.883l0.494-2.829h3.859l0.624-3.631h-4.534l0.544-3.101h7.833
		l-2.761,15.89h-7.428L198.928,236.152z"/>
	<path fill="#8AB6C4" d="M188.154,223.292h3.702l2.086,9.897h0.067l1.616-9.897h3.104l-2.76,15.89h-3.792l-1.999-10.031h-0.09
		l-1.661,10.031h-3.031L188.154,223.292z"/>
	<path fill="#8AB6C4" d="M172.805,232.989c0-1.127,0.128-2.26,0.4-3.412c0.273-1.153,0.71-2.193,1.325-3.121
		c0.619-0.923,1.427-1.686,2.424-2.278c1.001-0.592,2.244-0.887,3.726-0.887h4.601l-2.76,15.89h-4.198
		c-0.986,0-1.833-0.149-2.536-0.448c-0.698-0.299-1.276-0.723-1.717-1.268c-0.441-0.549-0.768-1.206-0.966-1.964
		C172.903,234.74,172.805,233.9,172.805,232.989z M176.328,232.702c0,0.497,0.036,0.958,0.119,1.386
		c0.087,0.429,0.216,0.798,0.403,1.104c0.183,0.307,0.428,0.547,0.719,0.733c0.292,0.179,0.646,0.269,1.06,0.269h0.966l1.71-9.918
		h-1.01c-0.657,0-1.233,0.196-1.728,0.585c-0.489,0.391-0.909,0.894-1.246,1.512c-0.331,0.616-0.586,1.298-0.751,2.062
		C176.408,231.193,176.328,231.949,176.328,232.702z"/>
	<path fill="#8AB6C4" d="M165.598,223.292l0.069,2.984h3.702l1.191-2.984h3.59l-6.89,15.89h-4.333l-0.836-15.89H165.598z
		 M165.757,235.747h0.094l2.621-6.823h-2.846L165.757,235.747z"/>
	<path fill="#8AB6C4" d="M150.022,223.292h3.702l2.086,9.897h0.067l1.616-9.897h3.103l-2.76,15.89h-3.792l-1.999-10.031h-0.09
		l-1.66,10.031h-3.031L150.022,223.292z"/>
	<path fill="#8AB6C4" d="M137.163,236.241h2.918l2.266-12.949h3.407l-2.268,12.949h2.918l-0.517,2.94h-9.246L137.163,236.241z"/>
	<path fill="#8AB6C4" d="M125.11,231.237c0-0.554,0.104-1.07,0.313-1.547c0.212-0.48,0.494-0.902,0.855-1.263
		c0.358-0.353,0.777-0.638,1.256-0.847c0.48-0.211,0.996-0.317,1.549-0.317c0.553,0,1.07,0.106,1.549,0.317
		c0.478,0.209,0.902,0.494,1.263,0.847c0.354,0.36,0.638,0.779,0.848,1.263c0.209,0.476,0.316,0.99,0.316,1.547
		c0,0.549-0.107,1.065-0.316,1.549c-0.21,0.475-0.494,0.897-0.848,1.255c-0.361,0.36-0.779,0.644-1.263,0.853
		c-0.475,0.21-0.991,0.313-1.549,0.313c-0.548,0-1.064-0.104-1.549-0.313c-0.476-0.209-0.898-0.494-1.256-0.853
		c-0.361-0.36-0.643-0.779-0.855-1.255C125.214,232.306,125.11,231.789,125.11,231.237z"/>
	<path fill="#8AB6C4" d="M111.846,223.292l0.068,2.984h3.697l1.196-2.984h3.59l-6.894,15.89h-4.333l-0.83-15.89H111.846z
		 M112.004,235.747h0.088l2.626-6.823h-2.851L112.004,235.747z"/>
	<path fill="#8AB6C4" d="M95.735,229.174c0.165-0.889,0.381-1.71,0.65-2.47c0.264-0.767,0.63-1.429,1.099-1.997
		c0.465-0.57,1.039-1.014,1.725-1.34c0.693-0.321,1.533-0.479,2.534-0.479c0.809,0,1.506,0.108,2.11,0.331
		c0.599,0.225,1.097,0.544,1.493,0.943c0.396,0.405,0.691,0.878,0.886,1.427c0.194,0.545,0.292,1.144,0.292,1.803
		c0,0.27-0.013,0.554-0.035,0.853c-0.027,0.298-0.064,0.605-0.124,0.917l-1.75,10.007h-3.476l1.706-9.74
		c0.04-0.254,0.082-0.506,0.107-0.751c0.035-0.252,0.045-0.477,0.045-0.688c0-0.524-0.11-0.959-0.332-1.298
		c-0.215-0.345-0.602-0.515-1.15-0.515c-0.395,0-0.717,0.086-0.988,0.256c-0.269,0.176-0.493,0.405-0.673,0.696
		c-0.183,0.292-0.331,0.631-0.449,1.031c-0.118,0.396-0.215,0.818-0.292,1.268l-1.682,9.74h-3.457L95.735,229.174z"/>
	<path fill="#8AB6C4" d="M84.197,236.241h2.917l2.267-12.949h3.407l-2.269,12.949h2.918l-0.516,2.94h-9.247L84.197,236.241z"/>
	<path fill="#8AB6C4" d="M72.256,233.481c0-1.297,0.171-2.585,0.515-3.845c0.345-1.264,0.835-2.398,1.47-3.405
		c0.637-0.999,1.416-1.806,2.335-2.424c0.917-0.613,1.957-0.916,3.109-0.916c0.807,0,1.53,0.146,2.167,0.437
		c0.636,0.292,1.169,0.698,1.604,1.235c0.433,0.532,0.762,1.164,0.986,1.908c0.224,0.739,0.335,1.566,0.335,2.475
		c0,1.302-0.167,2.594-0.504,3.862c-0.336,1.276-0.823,2.408-1.46,3.412c-0.635,1.003-1.413,1.815-2.333,2.435
		c-0.916,0.622-1.964,0.931-3.133,0.931c-0.848,0-1.59-0.146-2.231-0.438c-0.641-0.292-1.168-0.707-1.593-1.246
		c-0.428-0.543-0.745-1.182-0.954-1.935C72.361,235.224,72.256,234.394,72.256,233.481z M75.825,232.989
		c0,0.413,0.03,0.83,0.09,1.234c0.06,0.402,0.161,0.755,0.304,1.055c0.142,0.3,0.332,0.542,0.57,0.731
		c0.241,0.182,0.54,0.281,0.899,0.281c0.567,0,1.073-0.232,1.515-0.696c0.44-0.463,0.812-1.048,1.112-1.751
		c0.298-0.7,0.522-1.466,0.672-2.288c0.149-0.824,0.225-1.587,0.225-2.291c0-0.419-0.035-0.814-0.102-1.189
		c-0.066-0.378-0.176-0.7-0.313-0.981c-0.142-0.278-0.336-0.494-0.583-0.652c-0.251-0.156-0.551-0.235-0.914-0.235
		c-0.539,0-1.026,0.216-1.46,0.652c-0.433,0.434-0.798,0.986-1.099,1.661c-0.299,0.672-0.527,1.405-0.684,2.199
		C75.905,231.515,75.825,232.27,75.825,232.989z"/>
	<path fill="#8AB6C4" d="M61.73,235.164c0.21,0.36,0.479,0.636,0.808,0.835c0.331,0.188,0.741,0.292,1.235,0.292
		c0.643,0,1.215-0.225,1.717-0.674c0.501-0.454,0.92-1.015,1.261-1.703c0.332-0.683,0.592-1.426,0.763-2.233
		c0.172-0.808,0.259-1.575,0.259-2.299c0-0.449-0.049-0.864-0.148-1.259c-0.101-0.39-0.247-0.734-0.437-1.034
		c-0.194-0.3-0.44-0.535-0.744-0.71c-0.301-0.172-0.659-0.256-1.073-0.256c-0.585,0-1.093,0.129-1.527,0.385l-0.561,3.139h2.11
		l-0.539,2.986h-5.144l1.458-8.399c0.569-0.387,1.223-0.708,1.965-0.961c0.741-0.258,1.582-0.381,2.526-0.381
		c0.923,0,1.731,0.156,2.424,0.471c0.688,0.314,1.261,0.743,1.716,1.291c0.462,0.545,0.796,1.197,1.021,1.948
		c0.224,0.76,0.336,1.575,0.336,2.458c0,1.332-0.183,2.63-0.549,3.895c-0.367,1.266-0.884,2.386-1.549,3.367
		c-0.665,0.985-1.467,1.769-2.402,2.373c-0.929,0.597-1.971,0.897-3.108,0.897c-1.061,0-1.938-0.18-2.614-0.527
		c-0.679-0.352-1.187-0.804-1.516-1.358L61.73,235.164z"/>
	<path fill="#8AB6C4" d="M49.566,236.152h4.151l0.585-3.299h-3.889l0.495-2.829h3.859l0.628-3.631h-4.532l0.54-3.101h7.832
		l-2.76,15.89h-7.428L49.566,236.152z M51.721,240.461h2.266l-2.513,3.232h-2.851L51.721,240.461z"/>
	<path fill="#8AB6C4" d="M37.58,235.095c0-1.208,0.273-2.23,0.821-3.049c0.549-0.82,1.279-1.391,2.186-1.71l-1.771-7.047h3.634
		l1.325,6.402h1.168l1.099-6.402h3.321l-2.76,15.89H41.94c-1.41,0-2.482-0.336-3.237-1.021
		C37.954,237.48,37.58,236.459,37.58,235.095z M41.015,234.647c0,0.618,0.165,1.045,0.495,1.282c0.327,0.238,0.698,0.36,1.122,0.36
		h1.167l0.719-4.153h-1.123c-0.659,0-1.22,0.209-1.69,0.63C41.247,233.181,41.015,233.81,41.015,234.647z"/>
	<path fill="#8AB6C4" d="M27.662,236.152h4.146l0.585-3.299H28.51l0.494-2.829h3.859l0.625-3.631h-4.534l0.544-3.101h7.832
		l-2.76,15.89h-7.429L27.662,236.152z M29.815,240.461h2.267l-2.514,3.232h-2.851L29.815,240.461z"/>
</g>
</svg>
