<?xml version="1.0" encoding="utf-8"?>
<!-- Generator: Adobe Illustrator 16.0.0, SVG Export Plug-In . SVG Version: 6.00 Build 0)  -->
<!DOCTYPE svg PUBLIC "-//W3C//DTD SVG 1.1//EN" "http://www.w3.org/Graphics/SVG/1.1/DTD/svg11.dtd">
<svg version="1.1" id="Layer_1" xmlns="http://www.w3.org/2000/svg" xmlns:xlink="http://www.w3.org/1999/xlink" x="0px" y="0px"
	 width="500px" height="664px" viewBox="0 0 500 664" enable-background="new 0 0 500 664" xml:space="preserve">
<rect x="0" y="0" fill="#9000BE" width="500" height="664"/>
<g>
	<path fill="#FFFFFF" d="M186.324,228.628c0.36-0.787,0.801-1.662,1.317-2.626l6.082-11.354h1.244l-8.495,15.544h-0.936
		l-1.936-15.544h1.063l1.244,10.1c0.184,1.539,0.308,2.832,0.371,3.881H186.324z"/>
	<path fill="#FFFFFF" d="M197.924,230.404c-1.227,0-2.183-0.388-2.871-1.164s-1.031-1.859-1.031-3.248
		c0-1.283,0.251-2.513,0.755-3.688c0.503-1.177,1.196-2.112,2.079-2.808s1.855-1.042,2.918-1.042c0.809,0,1.453,0.216,1.936,0.648
		c0.481,0.433,0.723,1.021,0.723,1.765c0,1.283-0.58,2.261-1.739,2.936c-1.158,0.673-2.879,1.01-5.162,1.01h-0.351
		c-0.042,0.312-0.062,0.659-0.062,1.042c0,1.169,0.262,2.061,0.786,2.674s1.279,0.92,2.266,0.92c0.936,0,1.914-0.259,2.935-0.776v1
		C200.11,230.16,199.051,230.404,197.924,230.404z M199.646,219.368c-0.929,0-1.792,0.409-2.589,1.229
		c-0.797,0.817-1.374,1.911-1.728,3.279h0.521c3.665,0,5.497-0.957,5.497-2.871c0-0.475-0.154-0.866-0.463-1.175
		C200.577,219.522,200.164,219.368,199.646,219.368z"/>
	<path fill="#FFFFFF" d="M206.854,218.634l-1.616,7.422c-0.155,0.751-0.233,1.311-0.233,1.68c0,0.525,0.168,0.94,0.505,1.25
		c0.336,0.308,0.827,0.462,1.472,0.462c0.78,0,1.516-0.232,2.207-0.696s1.272-1.127,1.744-1.987
		c0.471-0.861,0.824-1.853,1.059-2.973l1.115-5.157h1.042l-2.456,11.558h-0.85l0.297-2.18h-0.062
		c-1.185,1.566-2.612,2.35-4.285,2.35c-0.929,0-1.632-0.219-2.11-0.659c-0.479-0.438-0.718-1.081-0.718-1.924
		c0-0.425,0.078-1.027,0.233-1.807l1.596-7.336h1.062V218.634z"/>
	<path fill="#FFFFFF" d="M216.807,230.191h-1.042l2.456-11.558h1.021L216.807,230.191z M218.678,215.668
		c0-0.39,0.078-0.702,0.234-0.936c0.155-0.234,0.368-0.352,0.638-0.352c0.404,0,0.605,0.256,0.605,0.767
		c0,0.404-0.077,0.723-0.233,0.957c-0.156,0.233-0.358,0.351-0.606,0.351c-0.206,0-0.363-0.068-0.473-0.207
		C218.732,216.109,218.678,215.916,218.678,215.668z"/>
	<path fill="#FFFFFF" d="M221.814,230.191h-1l3.551-16.543h0.999L221.814,230.191z"/>
	<path fill="#FFFFFF" d="M226.864,230.191h-1l3.552-16.543h0.999L226.864,230.191z"/>
	<path fill="#FFFFFF" d="M235.093,230.404c-1.226,0-2.183-0.388-2.871-1.164c-0.688-0.776-1.031-1.859-1.031-3.248
		c0-1.283,0.251-2.513,0.755-3.688c0.504-1.177,1.196-2.112,2.079-2.808c0.884-0.695,1.855-1.042,2.918-1.042
		c0.809,0,1.453,0.216,1.936,0.648c0.481,0.433,0.723,1.021,0.723,1.765c0,1.283-0.58,2.261-1.739,2.936
		c-1.158,0.673-2.879,1.01-5.161,1.01h-0.352c-0.042,0.312-0.062,0.659-0.062,1.042c0,1.169,0.262,2.061,0.786,2.674
		s1.279,0.92,2.266,0.92c0.936,0,1.914-0.259,2.935-0.776v1C237.28,230.16,236.22,230.404,235.093,230.404z M236.816,219.368
		c-0.929,0-1.792,0.409-2.589,1.229c-0.797,0.817-1.374,1.911-1.728,3.279h0.521c3.665,0,5.497-0.957,5.497-2.871
		c0-0.475-0.154-0.866-0.463-1.175C237.746,219.522,237.333,219.368,236.816,219.368z"/>
	<path fill="#FFFFFF" d="M247.416,230.191h-7.75l0.159-0.767l8.25-9.908h-5.773l0.181-0.883h7.006l-0.19,0.883l-8.103,9.781h6.4
		L247.416,230.191z"/>
	<path fill="#FFFFFF" d="M262.024,218.454c1.646,0,2.633,0.776,2.968,2.329h0.062l0.627-2.147h0.852l-2.436,11.557h-0.872
		l0.479-2.913h-0.063c-0.596,1.006-1.258,1.779-1.988,2.318c-0.729,0.539-1.569,0.808-2.52,0.808c-1.992,0-2.988-1.325-2.988-3.976
		c0-1.396,0.268-2.729,0.798-3.998c0.531-1.27,1.242-2.249,2.133-2.94C259.965,218.8,260.947,218.454,262.024,218.454z
		 M259.377,229.447c0.631,0,1.26-0.22,1.888-0.659c0.627-0.438,1.19-1.027,1.69-1.765c0.499-0.737,0.881-1.552,1.143-2.445
		c0.263-0.893,0.395-1.647,0.395-2.265c0-0.561-0.093-1.062-0.276-1.504c-0.184-0.442-0.457-0.794-0.818-1.054
		c-0.361-0.258-0.812-0.388-1.351-0.388c-0.879,0-1.673,0.291-2.382,0.872c-0.709,0.582-1.29,1.451-1.743,2.61
		c-0.454,1.158-0.681,2.312-0.681,3.46c0,1.078,0.177,1.87,0.53,2.376C258.126,229.192,258.661,229.447,259.377,229.447z"/>
	<path fill="#FFFFFF" d="M278.802,218.634l-0.181,0.841l-2.584,0.116c0.185,0.198,0.339,0.496,0.463,0.894
		c0.124,0.396,0.186,0.801,0.186,1.212c0,0.773-0.191,1.504-0.579,2.196c-0.387,0.69-0.911,1.207-1.572,1.547
		c-0.663,0.34-1.421,0.51-2.271,0.51c-0.446,0-0.719-0.032-0.818-0.096c-0.566,0.233-1.007,0.493-1.317,0.775
		c-0.312,0.283-0.468,0.57-0.468,0.861s0.11,0.521,0.335,0.687c0.224,0.165,0.625,0.277,1.207,0.335l1.285,0.116
		c2.452,0.221,3.68,1.155,3.68,2.808c0,0.793-0.23,1.494-0.691,2.1c-0.461,0.606-1.123,1.072-1.988,1.398
		c-0.863,0.326-1.896,0.488-3.094,0.488c-1.317,0-2.352-0.255-3.099-0.766c-0.748-0.51-1.122-1.229-1.122-2.158
		c0-1.673,1.095-2.855,3.285-3.551c-0.554-0.297-0.829-0.733-0.829-1.308c0-0.872,0.677-1.587,2.03-2.147
		c-0.504-0.255-0.896-0.629-1.176-1.122c-0.279-0.492-0.42-1.05-0.42-1.674c0-0.787,0.189-1.51,0.569-2.169
		c0.379-0.659,0.903-1.176,1.573-1.552c0.67-0.375,1.4-0.563,2.194-0.563c0.489,0,1.012,0.074,1.563,0.224h3.839V218.634z
		 M267.255,232.392c0,0.716,0.287,1.248,0.861,1.595c0.573,0.348,1.367,0.521,2.382,0.521c1.438,0,2.562-0.264,3.37-0.792
		c0.809-0.527,1.212-1.253,1.212-2.174c0-0.603-0.222-1.064-0.664-1.387c-0.443-0.323-1.219-0.526-2.323-0.611l-1.701-0.16
		c-1.112,0.319-1.914,0.726-2.402,1.218C267.5,231.094,267.255,231.69,267.255,232.392z M270.137,222.632
		c0,0.795,0.207,1.396,0.622,1.809c0.414,0.411,0.997,0.617,1.749,0.617c0.623,0,1.169-0.131,1.637-0.395
		c0.468-0.263,0.831-0.666,1.09-1.212c0.26-0.546,0.39-1.145,0.39-1.797c0-0.737-0.199-1.31-0.597-1.717
		c-0.396-0.408-0.952-0.612-1.669-0.612c-0.658,0-1.229,0.153-1.712,0.458c-0.481,0.305-0.854,0.716-1.116,1.233
		C270.268,221.533,270.137,222.072,270.137,222.632z"/>
	<path fill="#FFFFFF" d="M285.745,218.432c0.487,0,0.925,0.05,1.308,0.148l-0.224,0.989c-0.333-0.106-0.733-0.159-1.201-0.159
		c-0.666,0-1.301,0.228-1.903,0.68c-0.602,0.453-1.145,1.135-1.627,2.042c-0.48,0.907-0.836,1.89-1.062,2.945l-1.063,5.114h-1.042
		l2.456-11.557h0.851l-0.309,2.169h0.063c0.518-0.666,0.953-1.146,1.309-1.44c0.354-0.294,0.73-0.523,1.132-0.686
		C284.834,218.515,285.27,218.432,285.745,218.432z"/>
	<path fill="#FFFFFF" d="M291.146,230.404c-1.227,0-2.184-0.388-2.87-1.164c-0.688-0.776-1.031-1.859-1.031-3.248
		c0-1.283,0.252-2.513,0.755-3.688c0.504-1.177,1.195-2.112,2.079-2.808c0.883-0.695,1.854-1.042,2.918-1.042
		c0.809,0,1.453,0.216,1.936,0.648c0.481,0.433,0.723,1.021,0.723,1.765c0,1.283-0.578,2.261-1.737,2.936
		c-1.158,0.673-2.879,1.01-5.162,1.01h-0.352c-0.042,0.312-0.062,0.659-0.062,1.042c0,1.169,0.262,2.061,0.787,2.674
		c0.523,0.613,1.278,0.92,2.265,0.92c0.937,0,1.913-0.259,2.935-0.776v1C293.332,230.16,292.272,230.404,291.146,230.404z
		 M292.868,219.368c-0.93,0-1.792,0.409-2.59,1.229c-0.798,0.817-1.374,1.911-1.728,3.279h0.521c3.664,0,5.497-0.957,5.497-2.871
		c0-0.475-0.153-0.866-0.463-1.175C293.798,219.522,293.386,219.368,292.868,219.368z M291.815,216.774
		c0.469-0.362,1.001-0.865,1.602-1.51c0.599-0.646,1.058-1.23,1.376-1.754h1.457v0.244c-0.361,0.469-0.92,1.029-1.675,1.686
		c-0.756,0.656-1.438,1.175-2.048,1.558h-0.712V216.774L291.815,216.774z"/>
	<path fill="#FFFFFF" d="M301.012,230.404c-1.227,0-2.184-0.388-2.87-1.164c-0.688-0.776-1.032-1.859-1.032-3.248
		c0-1.283,0.252-2.513,0.755-3.688c0.505-1.177,1.196-2.112,2.079-2.808c0.884-0.695,1.855-1.042,2.918-1.042
		c0.81,0,1.453,0.216,1.937,0.648c0.48,0.433,0.723,1.021,0.723,1.765c0,1.283-0.579,2.261-1.737,2.936
		c-1.158,0.673-2.88,1.01-5.162,1.01h-0.352c-0.042,0.312-0.062,0.659-0.062,1.042c0,1.169,0.262,2.061,0.787,2.674
		c0.523,0.613,1.278,0.92,2.265,0.92c0.936,0,1.913-0.259,2.934-0.776v1C303.198,230.16,302.139,230.404,301.012,230.404z
		 M302.734,219.368c-0.929,0-1.792,0.409-2.589,1.229c-0.798,0.817-1.374,1.911-1.728,3.279h0.521c3.664,0,5.497-0.957,5.497-2.871
		c0-0.475-0.153-0.866-0.463-1.175C303.664,219.522,303.252,219.368,302.734,219.368z"/>
	<path fill="#FFFFFF" d="M313.474,218.432c0.488,0,0.925,0.05,1.309,0.148l-0.225,0.989c-0.333-0.106-0.732-0.159-1.201-0.159
		c-0.666,0-1.301,0.228-1.902,0.68c-0.603,0.453-1.146,1.135-1.627,2.042s-0.836,1.89-1.062,2.945l-1.062,5.114h-1.042l2.456-11.557
		h0.851l-0.309,2.169h0.062c0.518-0.666,0.954-1.146,1.309-1.44s0.731-0.523,1.133-0.686
		C312.563,218.515,312.998,218.432,313.474,218.432z"/>
	<path fill="#FFFFFF" d="M316.546,227.661l0.085,0.244c-0.241,0.652-0.646,1.48-1.212,2.483c-0.567,1.003-1.135,1.873-1.701,2.609
		h-0.787c0.562-0.936,1.061-1.896,1.499-2.881c0.439-0.985,0.752-1.804,0.937-2.456H316.546z"/>
	<path fill="#FFFFFF" d="M157.246,254.141l7.793-13.364h1.595l-3.2,15.544h-1.074l2.031-9.58c0.561-2.615,0.915-4.2,1.063-4.752
		h-0.064l-8.293,14.332h-0.542l-2.36-14.332h-0.063c-0.143,1.092-0.418,2.602-0.829,4.529l-2.084,9.803h-1.021l3.286-15.544h1.521
		l2.18,13.364H157.246z"/>
	<path fill="#FFFFFF" d="M171.769,256.533c-1.226,0-2.183-0.388-2.871-1.164c-0.688-0.776-1.03-1.858-1.03-3.248
		c0-1.283,0.251-2.513,0.755-3.688c0.503-1.177,1.195-2.112,2.079-2.808c0.883-0.694,1.854-1.042,2.918-1.042
		c0.808,0,1.452,0.216,1.935,0.648s0.723,1.021,0.723,1.765c0,1.283-0.58,2.261-1.738,2.936c-1.159,0.673-2.879,1.01-5.162,1.01
		h-0.352c-0.042,0.312-0.062,0.659-0.062,1.042c0,1.169,0.262,2.061,0.787,2.674c0.523,0.613,1.278,0.92,2.265,0.92
		c0.937,0,1.914-0.259,2.936-0.776v1C173.956,256.289,172.896,256.533,171.769,256.533z M173.492,245.498
		c-0.93,0-1.792,0.409-2.59,1.229c-0.797,0.817-1.374,1.912-1.728,3.279h0.521c3.665,0,5.497-0.957,5.497-2.87
		c0-0.476-0.153-0.867-0.463-1.176C174.422,245.651,174.009,245.498,173.492,245.498z"/>
	<path fill="#FFFFFF" d="M184.229,253.185c0,1.021-0.365,1.834-1.095,2.439c-0.73,0.606-1.722,0.909-2.977,0.909
		c-1.228,0-2.308-0.266-3.243-0.797V254.6c0.523,0.326,1.066,0.578,1.627,0.755c0.56,0.177,1.084,0.266,1.572,0.266
		c0.979,0,1.727-0.204,2.244-0.61c0.518-0.408,0.776-0.987,0.776-1.738c0-0.298-0.055-0.561-0.165-0.787
		c-0.11-0.228-0.287-0.444-0.532-0.654c-0.245-0.209-0.714-0.512-1.409-0.909c-1.049-0.566-1.758-1.083-2.126-1.547
		s-0.553-1.028-0.553-1.695c0-0.907,0.35-1.649,1.047-2.228c0.698-0.578,1.618-0.867,2.759-0.867c0.532,0,1.094,0.062,1.686,0.187
		s1.09,0.289,1.494,0.495l-0.372,0.936c-0.964-0.454-1.9-0.681-2.808-0.681c-0.821,0-1.48,0.188-1.978,0.562
		c-0.496,0.376-0.744,0.865-0.744,1.468c0,0.39,0.061,0.701,0.181,0.936c0.121,0.234,0.336,0.477,0.644,0.729
		c0.309,0.252,0.731,0.522,1.271,0.813c0.809,0.446,1.381,0.813,1.718,1.1c0.336,0.287,0.585,0.595,0.743,0.92
		C184.15,252.373,184.229,252.752,184.229,253.185z"/>
	<path fill="#FFFFFF" d="M192.406,244.583c1.631,0,2.619,0.776,2.967,2.329h0.042c0.085-0.468,0.592-2.846,1.521-7.134h1.053
		l-3.509,16.543h-0.872l0.479-2.913h-0.064c-1.227,2.084-2.729,3.125-4.508,3.125c-1.992,0-2.988-1.325-2.988-3.976
		c0-1.368,0.253-2.68,0.761-3.935c0.507-1.254,1.207-2.241,2.1-2.961C190.279,244.943,191.286,244.583,192.406,244.583z
		 M189.758,255.577c0.631,0,1.264-0.222,1.897-0.665c0.635-0.442,1.202-1.039,1.701-1.786c0.5-0.748,0.877-1.565,1.132-2.456
		c0.256-0.89,0.384-1.632,0.384-2.228c0-0.894-0.219-1.607-0.654-2.143c-0.437-0.534-1.033-0.803-1.792-0.803
		c-0.879,0-1.673,0.294-2.382,0.882c-0.708,0.589-1.29,1.448-1.744,2.578c-0.454,1.131-0.68,2.292-0.68,3.482
		C187.622,254.531,188.334,255.577,189.758,255.577z"/>
	<path fill="#FFFFFF" d="M204.452,244.583c1.645,0,2.633,0.776,2.966,2.329h0.063l0.627-2.147h0.852l-2.436,11.557h-0.872
		l0.479-2.913h-0.064c-0.595,1.006-1.258,1.779-1.987,2.318c-0.73,0.539-1.57,0.808-2.521,0.808c-1.992,0-2.988-1.325-2.988-3.976
		c0-1.396,0.267-2.729,0.798-3.998c0.531-1.27,1.241-2.249,2.132-2.94C202.391,244.929,203.375,244.583,204.452,244.583z
		 M201.804,255.577c0.631,0,1.26-0.22,1.887-0.659c0.627-0.438,1.191-1.027,1.691-1.765s0.88-1.552,1.143-2.445
		c0.264-0.893,0.395-1.647,0.395-2.265c0-0.561-0.092-1.062-0.276-1.504c-0.185-0.443-0.457-0.794-0.818-1.053
		s-0.812-0.389-1.351-0.389c-0.879,0-1.673,0.291-2.382,0.872c-0.708,0.582-1.29,1.451-1.744,2.61s-0.68,2.312-0.68,3.46
		c0,1.078,0.177,1.87,0.531,2.376C200.553,255.322,201.088,255.577,201.804,255.577z"/>
	<path fill="#FFFFFF" d="M217.094,256.321l1.563-7.166c0.177-0.886,0.266-1.46,0.266-1.722c0-1.29-0.546-1.936-1.637-1.936
		c-0.751,0-1.46,0.239-2.126,0.717c-0.667,0.479-1.23,1.147-1.69,2.005c-0.461,0.856-0.815,1.875-1.062,3.051l-1.063,5.05H210.3
		l2.456-11.557h0.851l-0.351,2.232h0.063c0.567-0.801,1.21-1.402,1.931-1.808c0.719-0.404,1.473-0.606,2.259-0.606
		c0.751,0,1.329,0.237,1.733,0.712c0.403,0.476,0.616,1.166,0.638,2.073h0.062c0.546-0.915,1.188-1.606,1.925-2.079
		c0.736-0.471,1.523-0.707,2.359-0.707c0.83,0,1.477,0.218,1.94,0.654c0.464,0.436,0.695,1.062,0.695,1.876
		c0,0.206-0.009,0.406-0.025,0.601c-0.019,0.195-0.087,0.618-0.208,1.271l-1.616,7.336h-1.062l1.584-7.23
		c0.177-0.851,0.266-1.474,0.266-1.87c0-0.547-0.152-0.97-0.457-1.271c-0.305-0.301-0.727-0.452-1.265-0.452
		c-1.113,0-2.098,0.487-2.951,1.462c-0.854,0.976-1.451,2.26-1.792,3.854l-1.159,5.507h-1.082V256.321z"/>
	<path fill="#FFFFFF" d="M233.137,256.533c-1.226,0-2.183-0.388-2.871-1.164c-0.688-0.776-1.031-1.858-1.031-3.248
		c0-1.283,0.251-2.513,0.755-3.688c0.504-1.177,1.196-2.112,2.079-2.808c0.884-0.694,1.855-1.042,2.918-1.042
		c0.809,0,1.453,0.216,1.936,0.648c0.481,0.433,0.723,1.021,0.723,1.765c0,1.283-0.58,2.261-1.739,2.936
		c-1.158,0.673-2.879,1.01-5.161,1.01h-0.352c-0.042,0.312-0.062,0.659-0.062,1.042c0,1.169,0.262,2.061,0.787,2.674
		c0.523,0.613,1.278,0.92,2.265,0.92c0.936,0,1.914-0.259,2.935-0.776v1C235.324,256.289,234.264,256.533,233.137,256.533z
		 M234.86,245.498c-0.929,0-1.792,0.409-2.589,1.229c-0.797,0.817-1.374,1.912-1.728,3.279h0.521c3.665,0,5.497-0.957,5.497-2.87
		c0-0.476-0.154-0.867-0.463-1.176C235.79,245.651,235.377,245.498,234.86,245.498z"/>
	<path fill="#FFFFFF" d="M245.598,253.185c0,1.021-0.365,1.834-1.095,2.439c-0.73,0.606-1.723,0.909-2.978,0.909
		c-1.227,0-2.307-0.266-3.242-0.797V254.6c0.523,0.326,1.066,0.578,1.627,0.755c0.56,0.177,1.084,0.266,1.572,0.266
		c0.979,0,1.727-0.204,2.244-0.61c0.518-0.408,0.776-0.987,0.776-1.738c0-0.298-0.056-0.561-0.165-0.787
		c-0.11-0.228-0.287-0.444-0.532-0.654c-0.245-0.209-0.714-0.512-1.409-0.909c-1.049-0.566-1.758-1.083-2.126-1.547
		c-0.369-0.464-0.553-1.028-0.553-1.695c0-0.907,0.349-1.649,1.047-2.228s1.618-0.867,2.759-0.867c0.532,0,1.094,0.062,1.686,0.187
		s1.09,0.289,1.494,0.495l-0.372,0.936c-0.964-0.454-1.9-0.681-2.808-0.681c-0.821,0-1.48,0.188-1.978,0.562
		c-0.496,0.376-0.744,0.865-0.744,1.468c0,0.39,0.06,0.701,0.181,0.936s0.335,0.477,0.644,0.729s0.731,0.522,1.271,0.813
		c0.809,0.446,1.38,0.813,1.717,1.1c0.337,0.287,0.586,0.595,0.744,0.92C245.519,252.373,245.598,252.752,245.598,253.185z"/>
	<path fill="#FFFFFF" d="M249.468,253.791l0.085,0.244c-0.241,0.652-0.645,1.48-1.212,2.483s-1.134,1.873-1.701,2.609h-0.787
		c0.561-0.936,1.061-1.896,1.499-2.881c0.439-0.984,0.751-1.804,0.937-2.456H249.468L249.468,253.791z"/>
	<path fill="#FFFFFF" d="M265.47,254.141l7.793-13.364h1.595l-3.199,15.544h-1.073l2.029-9.58c0.561-2.615,0.914-4.2,1.063-4.752
		h-0.063l-8.293,14.332h-0.543l-2.359-14.332h-0.063c-0.142,1.092-0.418,2.602-0.829,4.529l-2.084,9.803h-1.021l3.285-15.544h1.521
		l2.181,13.364H265.47z"/>
	<path fill="#FFFFFF" d="M279.992,256.533c-1.228,0-2.185-0.388-2.87-1.164c-0.688-0.776-1.032-1.858-1.032-3.248
		c0-1.283,0.252-2.513,0.755-3.688c0.504-1.177,1.196-2.112,2.079-2.808c0.883-0.694,1.854-1.042,2.918-1.042
		c0.809,0,1.453,0.216,1.936,0.648c0.481,0.433,0.724,1.021,0.724,1.765c0,1.283-0.579,2.261-1.738,2.936
		c-1.158,0.673-2.879,1.01-5.162,1.01h-0.351c-0.042,0.312-0.063,0.659-0.063,1.042c0,1.169,0.263,2.061,0.787,2.674
		s1.279,0.92,2.265,0.92c0.937,0,1.913-0.259,2.935-0.776v1C282.179,256.289,281.119,256.533,279.992,256.533z M281.715,245.498
		c-0.929,0-1.792,0.409-2.589,1.229c-0.798,0.817-1.374,1.912-1.729,3.279h0.521c3.664,0,5.497-0.957,5.497-2.87
		c0-0.476-0.154-0.867-0.463-1.176S282.232,245.498,281.715,245.498z"/>
	<path fill="#FFFFFF" d="M292.454,253.185c0,1.021-0.365,1.834-1.097,2.439c-0.729,0.606-1.723,0.909-2.977,0.909
		c-1.228,0-2.309-0.266-3.243-0.797V254.6c0.524,0.326,1.066,0.578,1.627,0.755s1.084,0.266,1.573,0.266
		c0.979,0,1.727-0.204,2.243-0.61c0.518-0.408,0.775-0.987,0.775-1.738c0-0.298-0.055-0.561-0.165-0.787
		c-0.108-0.228-0.286-0.444-0.53-0.654c-0.244-0.209-0.715-0.512-1.408-0.909c-1.05-0.566-1.759-1.083-2.127-1.547
		s-0.554-1.028-0.554-1.695c0-0.907,0.35-1.649,1.048-2.228c0.697-0.578,1.617-0.867,2.76-0.867c0.531,0,1.093,0.062,1.685,0.187
		c0.593,0.124,1.09,0.289,1.494,0.495l-0.372,0.936c-0.964-0.454-1.898-0.681-2.807-0.681c-0.822,0-1.481,0.188-1.979,0.562
		c-0.497,0.376-0.745,0.865-0.745,1.468c0,0.39,0.062,0.701,0.183,0.936c0.12,0.234,0.334,0.477,0.643,0.729
		c0.31,0.253,0.732,0.522,1.271,0.813c0.809,0.446,1.381,0.813,1.718,1.1c0.336,0.287,0.584,0.595,0.744,0.92
		C292.374,252.373,292.454,252.752,292.454,253.185z"/>
	<path fill="#FFFFFF" d="M301.247,253.185c0,1.021-0.365,1.834-1.097,2.439c-0.729,0.606-1.723,0.909-2.977,0.909
		c-1.228,0-2.308-0.266-3.243-0.797V254.6c0.524,0.326,1.066,0.578,1.627,0.755s1.084,0.266,1.573,0.266
		c0.979,0,1.727-0.204,2.243-0.61c0.518-0.408,0.775-0.987,0.775-1.738c0-0.298-0.055-0.561-0.165-0.787
		c-0.108-0.228-0.285-0.444-0.53-0.654c-0.244-0.209-0.714-0.512-1.408-0.909c-1.05-0.566-1.759-1.083-2.127-1.547
		s-0.553-1.028-0.553-1.695c0-0.907,0.349-1.649,1.047-2.228c0.697-0.578,1.617-0.867,2.76-0.867c0.531,0,1.093,0.062,1.685,0.187
		c0.593,0.124,1.09,0.289,1.494,0.495l-0.372,0.936c-0.964-0.454-1.898-0.681-2.807-0.681c-0.822,0-1.481,0.188-1.979,0.562
		c-0.497,0.376-0.744,0.865-0.744,1.468c0,0.39,0.061,0.701,0.182,0.936c0.12,0.234,0.334,0.477,0.643,0.729
		c0.31,0.253,0.732,0.522,1.271,0.813c0.809,0.446,1.381,0.813,1.718,1.1c0.336,0.287,0.584,0.595,0.744,0.92
		C301.167,252.373,301.247,252.752,301.247,253.185z"/>
	<path fill="#FFFFFF" d="M304.308,256.321h-1.042l2.456-11.557h1.021L304.308,256.321z M306.18,241.797
		c0-0.39,0.077-0.701,0.233-0.936c0.155-0.234,0.367-0.351,0.638-0.351c0.404,0,0.605,0.255,0.605,0.766
		c0,0.404-0.077,0.723-0.233,0.957c-0.155,0.233-0.357,0.351-0.605,0.351c-0.206,0-0.362-0.068-0.474-0.207
		C306.234,242.239,306.18,242.045,306.18,241.797z"/>
	<path fill="#FFFFFF" d="M312.495,256.533c-1.228,0-2.185-0.388-2.87-1.164c-0.688-0.776-1.032-1.858-1.032-3.248
		c0-1.283,0.252-2.513,0.755-3.688c0.504-1.177,1.196-2.112,2.079-2.808c0.883-0.694,1.855-1.042,2.918-1.042
		c0.809,0,1.453,0.216,1.936,0.648c0.481,0.433,0.724,1.021,0.724,1.765c0,1.283-0.579,2.261-1.738,2.936
		c-1.158,0.673-2.879,1.01-5.162,1.01h-0.351c-0.042,0.312-0.063,0.659-0.063,1.042c0,1.169,0.263,2.061,0.787,2.674
		s1.279,0.92,2.266,0.92c0.936,0,1.912-0.259,2.934-0.776v1C314.682,256.289,313.622,256.533,312.495,256.533z M314.218,245.498
		c-0.929,0-1.792,0.409-2.589,1.229c-0.798,0.817-1.374,1.912-1.729,3.279h0.521c3.664,0,5.497-0.957,5.497-2.87
		c0-0.476-0.154-0.867-0.463-1.176C315.147,245.651,314.735,245.498,314.218,245.498z"/>
	<path fill="#FFFFFF" d="M321.426,244.764l-1.616,7.421c-0.156,0.751-0.232,1.311-0.232,1.68c0,0.525,0.168,0.941,0.505,1.25
		c0.336,0.308,0.827,0.462,1.473,0.462c0.779,0,1.515-0.231,2.206-0.696c0.69-0.464,1.272-1.127,1.743-1.987
		c0.472-0.861,0.824-1.853,1.059-2.973l1.116-5.156h1.042l-2.456,11.557h-0.851l0.298-2.18h-0.064
		c-1.184,1.566-2.61,2.35-4.284,2.35c-0.929,0-1.632-0.219-2.109-0.659c-0.479-0.438-0.718-1.081-0.718-1.924
		c0-0.425,0.076-1.027,0.232-1.807l1.595-7.336L321.426,244.764L321.426,244.764z"/>
	<path fill="#FFFFFF" d="M337.108,244.562c0.488,0,0.926,0.05,1.309,0.148l-0.225,0.989c-0.333-0.105-0.732-0.159-1.2-0.159
		c-0.666,0-1.302,0.228-1.903,0.681c-0.603,0.452-1.146,1.134-1.627,2.042c-0.481,0.906-0.836,1.889-1.062,2.944l-1.062,5.114
		h-1.042l2.456-11.557h0.851l-0.309,2.169h0.062c0.519-0.666,0.954-1.146,1.31-1.44c0.354-0.294,0.73-0.522,1.132-0.686
		C336.197,244.645,336.633,244.562,337.108,244.562z"/>
	<path fill="#FFFFFF" d="M345.104,253.185c0,1.021-0.365,1.834-1.096,2.439c-0.729,0.606-1.723,0.909-2.978,0.909
		c-1.227,0-2.308-0.266-3.242-0.797V254.6c0.523,0.326,1.065,0.578,1.627,0.755c0.56,0.177,1.084,0.266,1.572,0.266
		c0.979,0,1.728-0.204,2.243-0.61c0.519-0.408,0.776-0.987,0.776-1.738c0-0.298-0.055-0.561-0.165-0.787
		c-0.109-0.228-0.286-0.444-0.531-0.654c-0.244-0.209-0.714-0.512-1.408-0.909c-1.05-0.566-1.759-1.083-2.127-1.547
		c-0.367-0.464-0.553-1.028-0.553-1.695c0-0.907,0.349-1.649,1.047-2.228s1.618-0.867,2.76-0.867c0.531,0,1.094,0.062,1.686,0.187
		s1.09,0.289,1.494,0.495l-0.372,0.936c-0.964-0.454-1.899-0.681-2.808-0.681c-0.821,0-1.48,0.188-1.978,0.562
		c-0.497,0.376-0.745,0.865-0.745,1.468c0,0.39,0.062,0.701,0.182,0.936s0.334,0.477,0.644,0.729
		c0.309,0.253,0.731,0.522,1.271,0.813c0.81,0.446,1.382,0.813,1.719,1.1c0.336,0.287,0.584,0.595,0.743,0.92
		C345.023,252.373,345.104,252.752,345.104,253.185z"/>
	<path fill="#FFFFFF" d="M348.974,253.791l0.085,0.244c-0.241,0.652-0.646,1.48-1.212,2.483c-0.567,1.003-1.135,1.873-1.701,2.609
		h-0.787c0.562-0.936,1.061-1.896,1.499-2.881c0.439-0.984,0.752-1.804,0.937-2.456H348.974L348.974,253.791z"/>
	<path fill="#FFFFFF" d="M185.187,308.58h-1l3.551-16.543h0.999L185.187,308.58z"/>
	<path fill="#FFFFFF" d="M193.331,293.036l-1.553,5.614h-0.647l0.851-5.614H193.331z"/>
	<path fill="#FFFFFF" d="M197.701,308.793c-1.227,0-2.184-0.389-2.871-1.164c-0.688-0.776-1.031-1.859-1.031-3.249
		c0-1.282,0.251-2.513,0.755-3.688c0.503-1.176,1.196-2.112,2.079-2.808c0.883-0.694,1.854-1.042,2.918-1.042
		c0.808,0,1.453,0.217,1.935,0.648c0.482,0.433,0.724,1.021,0.724,1.765c0,1.283-0.58,2.262-1.739,2.936
		c-1.159,0.673-2.879,1.01-5.162,1.01h-0.351c-0.042,0.312-0.063,0.659-0.063,1.042c0,1.169,0.262,2.062,0.787,2.675
		c0.524,0.612,1.279,0.92,2.265,0.92c0.937,0,1.914-0.26,2.936-0.776v1C199.887,308.549,198.828,308.793,197.701,308.793z
		 M199.423,297.756c-0.929,0-1.792,0.409-2.589,1.229c-0.797,0.818-1.374,1.912-1.729,3.28h0.521c3.665,0,5.497-0.957,5.497-2.871
		c0-0.476-0.154-0.867-0.463-1.175C200.354,297.91,199.94,297.756,199.423,297.756z"/>
	<path fill="#FFFFFF" d="M207.28,303.444l-4.178,5.135h-1.287l5.008-5.942l-2.604-5.614h1.062l2.201,4.912l3.967-4.912h1.275
		l-4.763,5.678l2.743,5.879h-1.042L207.28,303.444z"/>
	<path fill="#FFFFFF" d="M217.679,308.75c-1.63,0-2.619-0.775-2.966-2.328h-0.042c-0.092,0.511-0.621,2.974-1.584,7.39h-1.053
		l3.572-16.788h0.872L216,299.936h0.063c0.646-1.084,1.338-1.878,2.079-2.381c0.741-0.504,1.55-0.756,2.429-0.756
		c0.957,0,1.694,0.328,2.212,0.983c0.518,0.656,0.775,1.657,0.775,3.003c0,1.382-0.255,2.697-0.766,3.945
		c-0.512,1.248-1.21,2.229-2.101,2.945C219.803,308.392,218.798,308.75,217.679,308.75z M220.336,297.756
		c-0.617,0-1.233,0.207-1.851,0.622c-0.616,0.415-1.188,1.01-1.717,1.781c-0.527,0.772-0.92,1.614-1.175,2.525
		s-0.383,1.649-0.383,2.217c0,0.886,0.218,1.597,0.654,2.132c0.436,0.535,1.032,0.804,1.792,0.804c0.879,0,1.676-0.299,2.392-0.894
		c0.716-0.596,1.297-1.458,1.744-2.589s0.67-2.284,0.67-3.461C222.463,298.802,221.754,297.756,220.336,297.756z"/>
	<path fill="#FFFFFF" d="M232.181,296.82c0.489,0,0.925,0.05,1.308,0.149l-0.223,0.988c-0.333-0.105-0.732-0.159-1.201-0.159
		c-0.667,0-1.301,0.228-1.902,0.681c-0.603,0.453-1.146,1.134-1.626,2.042c-0.482,0.907-0.836,1.889-1.063,2.944l-1.062,5.114
		h-1.042l2.455-11.557h0.852l-0.31,2.169h0.064c0.517-0.666,0.953-1.146,1.308-1.44s0.732-0.522,1.133-0.686
		C231.27,296.903,231.706,296.82,232.181,296.82z"/>
	<path fill="#FFFFFF" d="M237.582,308.793c-1.227,0-2.184-0.389-2.871-1.164c-0.688-0.776-1.031-1.859-1.031-3.249
		c0-1.282,0.251-2.513,0.755-3.688c0.503-1.176,1.196-2.112,2.079-2.808c0.883-0.694,1.855-1.042,2.918-1.042
		c0.808,0,1.453,0.217,1.936,0.648c0.481,0.433,0.723,1.021,0.723,1.765c0,1.283-0.58,2.262-1.739,2.936
		c-1.159,0.673-2.879,1.01-5.162,1.01h-0.351c-0.042,0.312-0.063,0.659-0.063,1.042c0,1.169,0.263,2.062,0.787,2.675
		c0.524,0.612,1.279,0.92,2.266,0.92c0.936,0,1.914-0.26,2.935-0.776v1C239.768,308.549,238.708,308.793,237.582,308.793z
		 M239.304,297.756c-0.929,0-1.792,0.409-2.589,1.229c-0.797,0.818-1.374,1.912-1.729,3.28h0.521c3.665,0,5.497-0.957,5.497-2.871
		c0-0.476-0.154-0.867-0.463-1.175C240.234,297.91,239.821,297.756,239.304,297.756z"/>
	<path fill="#FFFFFF" d="M250.042,305.443c0,1.021-0.365,1.834-1.096,2.44c-0.729,0.605-1.722,0.909-2.977,0.909
		c-1.227,0-2.307-0.267-3.243-0.798v-1.137c0.524,0.326,1.067,0.578,1.627,0.755c0.561,0.177,1.084,0.267,1.573,0.267
		c0.979,0,1.726-0.204,2.244-0.611c0.517-0.408,0.775-0.987,0.775-1.738c0-0.298-0.055-0.56-0.164-0.787
		c-0.11-0.227-0.287-0.444-0.532-0.654c-0.245-0.209-0.714-0.512-1.409-0.908c-1.049-0.567-1.758-1.083-2.126-1.548
		c-0.369-0.464-0.553-1.028-0.553-1.695c0-0.907,0.349-1.649,1.047-2.228s1.618-0.866,2.759-0.866c0.532,0,1.093,0.062,1.685,0.186
		c0.593,0.124,1.091,0.289,1.494,0.495l-0.372,0.936c-0.964-0.454-1.899-0.681-2.807-0.681c-0.822,0-1.481,0.188-1.978,0.562
		c-0.496,0.377-0.744,0.865-0.744,1.468c0,0.39,0.06,0.702,0.181,0.936c0.121,0.234,0.335,0.478,0.643,0.729
		c0.31,0.251,0.732,0.521,1.271,0.812c0.808,0.446,1.38,0.813,1.717,1.101c0.336,0.286,0.585,0.594,0.744,0.92
		C249.963,304.632,250.042,305.011,250.042,305.443z"/>
	<path fill="#FFFFFF" d="M258.836,305.443c0,1.021-0.365,1.834-1.097,2.44c-0.729,0.605-1.723,0.909-2.977,0.909
		c-1.227,0-2.308-0.267-3.243-0.798v-1.137c0.524,0.326,1.066,0.578,1.627,0.755s1.084,0.267,1.573,0.267
		c0.979,0,1.727-0.204,2.243-0.611c0.518-0.408,0.775-0.987,0.775-1.738c0-0.298-0.055-0.56-0.165-0.787
		c-0.108-0.227-0.285-0.444-0.53-0.654c-0.244-0.209-0.714-0.512-1.408-0.908c-1.05-0.567-1.759-1.083-2.127-1.548
		c-0.368-0.464-0.553-1.028-0.553-1.695c0-0.907,0.349-1.649,1.047-2.228c0.697-0.578,1.618-0.866,2.76-0.866
		c0.531,0,1.093,0.062,1.685,0.186c0.593,0.124,1.091,0.289,1.494,0.495l-0.372,0.936c-0.964-0.454-1.898-0.681-2.807-0.681
		c-0.822,0-1.481,0.188-1.979,0.562c-0.496,0.377-0.744,0.865-0.744,1.468c0,0.39,0.061,0.702,0.182,0.936
		c0.12,0.234,0.334,0.478,0.643,0.729c0.31,0.252,0.732,0.521,1.271,0.812c0.809,0.446,1.381,0.813,1.718,1.101
		c0.336,0.286,0.584,0.594,0.744,0.92C258.756,304.632,258.836,305.011,258.836,305.443z"/>
	<path fill="#FFFFFF" d="M261.896,308.58h-1.042l2.456-11.557h1.021L261.896,308.58z M263.769,294.056
		c0-0.391,0.077-0.702,0.233-0.937c0.156-0.233,0.368-0.351,0.638-0.351c0.404,0,0.606,0.255,0.606,0.766
		c0,0.404-0.078,0.723-0.234,0.957c-0.155,0.234-0.357,0.351-0.605,0.351c-0.205,0-0.362-0.068-0.474-0.206
		C263.823,294.498,263.769,294.304,263.769,294.056z"/>
	<path fill="#FFFFFF" d="M271.998,296.799c1.274,0,2.263,0.385,2.961,1.153c0.697,0.771,1.047,1.831,1.047,3.186
		c0,1.396-0.253,2.701-0.76,3.918c-0.508,1.216-1.2,2.142-2.079,2.78c-0.879,0.638-1.894,0.957-3.04,0.957
		c-1.306,0-2.295-0.389-2.973-1.164c-0.678-0.776-1.016-1.888-1.016-3.334c0-1.354,0.259-2.623,0.776-3.806
		c0.517-1.184,1.215-2.095,2.095-2.732C269.889,297.118,270.885,296.799,271.998,296.799z M271.913,297.713
		c-0.879,0-1.67,0.278-2.371,0.835c-0.702,0.558-1.263,1.354-1.681,2.393c-0.419,1.039-0.628,2.139-0.628,3.301
		c0,2.424,1,3.637,2.999,3.637c0.899,0,1.699-0.275,2.397-0.824c0.697-0.55,1.254-1.357,1.669-2.425
		c0.415-1.066,0.622-2.237,0.622-3.514c0-1.091-0.259-1.931-0.776-2.52C273.628,298.006,272.884,297.713,271.913,297.713z"/>
	<path fill="#FFFFFF" d="M285.171,308.58l1.584-7.356c0.147-0.652,0.224-1.205,0.224-1.659c0-0.567-0.153-1.01-0.463-1.329
		c-0.309-0.319-0.785-0.479-1.43-0.479c-0.794,0-1.54,0.237-2.238,0.713c-0.698,0.475-1.286,1.14-1.765,1.993
		c-0.479,0.854-0.847,1.87-1.102,3.046l-1.085,5.071h-1.042l2.456-11.557h0.872l-0.394,2.35h0.063
		c1.162-1.687,2.637-2.53,4.423-2.53c0.921,0,1.612,0.228,2.073,0.682c0.46,0.454,0.69,1.104,0.69,1.956
		c0,0.496-0.085,1.141-0.255,1.935l-1.573,7.166L285.171,308.58L285.171,308.58z"/>
	<path fill="#FFFFFF" d="M301.82,296.842c1.631,0,2.619,0.776,2.968,2.329h0.042c0.085-0.468,0.592-2.846,1.521-7.134h1.053
		l-3.509,16.543h-0.872l0.479-2.913h-0.063c-1.227,2.085-2.729,3.126-4.508,3.126c-1.992,0-2.988-1.325-2.988-3.977
		c0-1.368,0.254-2.679,0.762-3.935c0.507-1.254,1.207-2.24,2.1-2.961C299.694,297.202,300.7,296.842,301.82,296.842z
		 M299.173,307.836c0.631,0,1.264-0.223,1.897-0.665c0.635-0.443,1.201-1.04,1.701-1.787c0.499-0.747,0.877-1.565,1.132-2.455
		c0.256-0.891,0.384-1.633,0.384-2.229c0-0.893-0.219-1.607-0.654-2.142c-0.437-0.535-1.033-0.804-1.791-0.804
		c-0.879,0-1.673,0.294-2.382,0.883c-0.709,0.588-1.29,1.447-1.743,2.577c-0.454,1.132-0.681,2.292-0.681,3.482
		C297.036,306.79,297.748,307.836,299.173,307.836z"/>
	<path fill="#FFFFFF" d="M311.889,308.793c-1.227,0-2.184-0.389-2.87-1.164c-0.688-0.776-1.032-1.859-1.032-3.249
		c0-1.282,0.252-2.513,0.756-3.688s1.195-2.112,2.078-2.808c0.884-0.694,1.855-1.042,2.918-1.042c0.81,0,1.453,0.217,1.937,0.648
		c0.48,0.433,0.723,1.021,0.723,1.765c0,1.283-0.579,2.262-1.737,2.936c-1.158,0.673-2.88,1.01-5.162,1.01h-0.352
		c-0.042,0.312-0.062,0.659-0.062,1.042c0,1.169,0.262,2.062,0.787,2.675c0.523,0.612,1.278,0.92,2.265,0.92
		c0.936,0,1.913-0.26,2.934-0.776v1C314.075,308.549,313.016,308.793,311.889,308.793z M313.611,297.756
		c-0.929,0-1.792,0.409-2.589,1.229c-0.798,0.818-1.374,1.912-1.728,3.28h0.521c3.664,0,5.497-0.957,5.497-2.871
		c0-0.476-0.153-0.867-0.463-1.175C314.541,297.91,314.129,297.756,313.611,297.756z"/>
	<path fill="#FFFFFF" d="M147.624,334.71l1.584-7.357c0.148-0.652,0.223-1.205,0.223-1.659c0-0.566-0.154-1.01-0.462-1.329
		c-0.308-0.318-0.785-0.478-1.43-0.478c-0.794,0-1.54,0.236-2.238,0.712c-0.698,0.475-1.287,1.14-1.765,1.994
		c-0.479,0.854-0.846,1.87-1.101,3.046l-1.084,5.071h-1.042l2.456-11.558h0.872l-0.393,2.351h0.062
		c1.163-1.688,2.637-2.53,4.423-2.53c0.921,0,1.613,0.227,2.073,0.681c0.461,0.454,0.691,1.105,0.691,1.956
		c0,0.496-0.085,1.141-0.256,1.936l-1.572,7.166L147.624,334.71L147.624,334.71z"/>
	<path fill="#FFFFFF" d="M158.554,322.929c1.276,0,2.263,0.384,2.961,1.152c0.698,0.771,1.047,1.831,1.047,3.186
		c0,1.396-0.254,2.702-0.76,3.918c-0.507,1.216-1.2,2.142-2.079,2.78c-0.879,0.638-1.893,0.957-3.041,0.957
		c-1.304,0-2.295-0.39-2.972-1.164c-0.677-0.776-1.016-1.889-1.016-3.333c0-1.354,0.26-2.623,0.776-3.807
		c0.518-1.184,1.216-2.095,2.095-2.731C156.445,323.248,157.44,322.929,158.554,322.929z M158.468,323.844
		c-0.879,0-1.669,0.277-2.371,0.835c-0.702,0.557-1.262,1.354-1.68,2.392c-0.418,1.039-0.627,2.139-0.627,3.301
		c0,2.425,0.999,3.637,2.998,3.637c0.899,0,1.698-0.274,2.396-0.823s1.255-1.357,1.669-2.424c0.414-1.067,0.622-2.238,0.622-3.515
		c0-1.091-0.259-1.931-0.775-2.52C160.183,324.137,159.439,323.844,158.468,323.844z"/>
	<path fill="#FFFFFF" d="M171.185,331.573c0,1.021-0.365,1.833-1.095,2.44c-0.73,0.604-1.722,0.909-2.978,0.909
		c-1.227,0-2.307-0.267-3.242-0.799v-1.137c0.523,0.326,1.066,0.578,1.627,0.754c0.56,0.179,1.084,0.267,1.572,0.267
		c0.979,0,1.727-0.203,2.244-0.61c0.518-0.408,0.776-0.987,0.776-1.739c0-0.298-0.055-0.56-0.165-0.787
		c-0.11-0.227-0.287-0.443-0.532-0.653c-0.245-0.209-0.714-0.513-1.409-0.909c-1.049-0.567-1.758-1.083-2.126-1.547
		c-0.369-0.464-0.553-1.029-0.553-1.696c0-0.907,0.349-1.649,1.047-2.227c0.698-0.578,1.618-0.867,2.759-0.867
		c0.532,0,1.094,0.062,1.686,0.186s1.09,0.289,1.494,0.495l-0.372,0.937c-0.964-0.454-1.9-0.682-2.808-0.682
		c-0.821,0-1.48,0.188-1.978,0.563c-0.496,0.376-0.744,0.865-0.744,1.467c0,0.39,0.061,0.702,0.181,0.936
		c0.121,0.234,0.335,0.478,0.644,0.729c0.309,0.251,0.731,0.522,1.271,0.812c0.809,0.446,1.38,0.813,1.718,1.101
		c0.336,0.287,0.585,0.594,0.743,0.92C171.105,330.761,171.185,331.14,171.185,331.573z"/>
	<path fill="#FFFFFF" d="M183.039,334.923c-1.227,0-2.184-0.39-2.871-1.164c-0.688-0.776-1.031-1.859-1.031-3.249
		c0-1.283,0.251-2.514,0.755-3.689c0.503-1.176,1.196-2.111,2.079-2.807s1.855-1.042,2.918-1.042c0.808,0,1.453,0.216,1.936,0.647
		c0.481,0.434,0.723,1.021,0.723,1.766c0,1.283-0.58,2.261-1.739,2.935c-1.159,0.673-2.879,1.01-5.162,1.01h-0.351
		c-0.042,0.312-0.063,0.659-0.063,1.042c0,1.17,0.263,2.062,0.787,2.675c0.524,0.612,1.279,0.92,2.266,0.92
		c0.936,0,1.913-0.259,2.935-0.776v1C185.226,334.677,184.166,334.923,183.039,334.923z M184.762,323.886
		c-0.929,0-1.792,0.409-2.589,1.228s-1.374,1.912-1.729,3.28h0.521c3.665,0,5.497-0.957,5.497-2.871
		c0-0.475-0.154-0.867-0.463-1.175C185.692,324.04,185.279,323.886,184.762,323.886z"/>
	<path fill="#FFFFFF" d="M195.5,331.573c0,1.021-0.365,1.833-1.096,2.44c-0.729,0.604-1.722,0.909-2.977,0.909
		c-1.227,0-2.307-0.267-3.243-0.799v-1.137c0.524,0.326,1.067,0.578,1.627,0.754c0.561,0.179,1.084,0.267,1.573,0.267
		c0.979,0,1.726-0.203,2.244-0.61c0.517-0.408,0.775-0.987,0.775-1.739c0-0.298-0.055-0.56-0.164-0.787
		c-0.11-0.227-0.287-0.443-0.532-0.653c-0.245-0.209-0.714-0.513-1.409-0.909c-1.049-0.567-1.758-1.083-2.126-1.547
		c-0.369-0.464-0.553-1.029-0.553-1.696c0-0.907,0.349-1.649,1.047-2.227c0.698-0.578,1.618-0.867,2.759-0.867
		c0.532,0,1.093,0.062,1.685,0.186c0.593,0.124,1.091,0.289,1.494,0.495l-0.372,0.937c-0.964-0.454-1.899-0.682-2.807-0.682
		c-0.822,0-1.481,0.188-1.978,0.563c-0.496,0.376-0.744,0.865-0.744,1.467c0,0.39,0.06,0.702,0.181,0.936
		c0.121,0.234,0.335,0.478,0.643,0.729c0.31,0.251,0.732,0.522,1.271,0.812c0.808,0.446,1.38,0.813,1.717,1.101
		c0.336,0.287,0.585,0.594,0.744,0.92C195.42,330.761,195.5,331.14,195.5,331.573z"/>
	<path fill="#FFFFFF" d="M202.007,334.88c-1.63,0-2.619-0.776-2.966-2.328h-0.042c-0.092,0.51-0.621,2.974-1.584,7.39h-1.054
		l3.573-16.789h0.872l-0.479,2.913h0.063c0.646-1.084,1.338-1.878,2.079-2.381s1.55-0.755,2.429-0.755
		c0.957,0,1.694,0.328,2.211,0.982c0.519,0.656,0.776,1.657,0.776,3.003c0,1.383-0.255,2.697-0.766,3.945
		c-0.512,1.248-1.21,2.229-2.101,2.945C204.131,334.521,203.126,334.88,202.007,334.88z M204.665,323.886
		c-0.617,0-1.233,0.207-1.851,0.622s-1.188,1.009-1.717,1.78c-0.528,0.772-0.92,1.614-1.175,2.525s-0.383,1.65-0.383,2.217
		c0,0.887,0.218,1.598,0.653,2.132c0.437,0.535,1.033,0.804,1.792,0.804c0.88,0,1.677-0.298,2.393-0.894s1.297-1.459,1.744-2.589
		c0.446-1.131,0.67-2.284,0.67-3.461C206.791,324.931,206.082,323.886,204.665,323.886z"/>
	<path fill="#FFFFFF" d="M215.829,322.929c1.275,0,2.263,0.384,2.961,1.152c0.697,0.771,1.047,1.831,1.047,3.186
		c0,1.396-0.254,2.702-0.76,3.918c-0.508,1.216-1.2,2.142-2.079,2.78c-0.879,0.638-1.894,0.957-3.041,0.957
		c-1.305,0-2.295-0.39-2.973-1.164c-0.677-0.776-1.015-1.889-1.015-3.333c0-1.354,0.259-2.623,0.776-3.807s1.216-2.095,2.095-2.731
		C213.72,323.248,214.715,322.929,215.829,322.929z M215.743,323.844c-0.88,0-1.669,0.277-2.371,0.835
		c-0.702,0.557-1.263,1.354-1.681,2.392c-0.418,1.039-0.627,2.139-0.627,3.301c0,2.425,0.999,3.637,2.998,3.637
		c0.9,0,1.699-0.274,2.397-0.823s1.255-1.357,1.669-2.424c0.414-1.067,0.622-2.238,0.622-3.515c0-1.091-0.259-1.931-0.776-2.52
		C217.458,324.137,216.714,323.844,215.743,323.844z"/>
	<path fill="#FFFFFF" d="M222.729,334.71h-1.042l2.456-11.558h1.021L222.729,334.71z M224.6,320.186c0-0.39,0.078-0.702,0.234-0.937
		c0.155-0.233,0.369-0.351,0.638-0.351c0.404,0,0.606,0.255,0.606,0.766c0,0.404-0.078,0.724-0.234,0.957
		c-0.156,0.234-0.358,0.352-0.606,0.352c-0.205,0-0.363-0.069-0.473-0.207C224.655,320.628,224.6,320.434,224.6,320.186z"/>
	<path fill="#FFFFFF" d="M233.51,322.95c0.489,0,0.925,0.05,1.308,0.149l-0.223,0.989c-0.333-0.106-0.733-0.159-1.201-0.159
		c-0.667,0-1.301,0.227-1.903,0.68c-0.602,0.453-1.145,1.134-1.626,2.042c-0.481,0.907-0.836,1.889-1.062,2.945l-1.063,5.114h-1.042
		l2.456-11.558h0.852l-0.31,2.169h0.064c0.517-0.666,0.953-1.146,1.308-1.439s0.732-0.523,1.132-0.687
		C232.599,323.033,233.035,322.95,233.51,322.95z"/>
	<path fill="#FFFFFF" d="M241.505,331.573c0,1.021-0.365,1.833-1.095,2.44c-0.73,0.604-1.723,0.909-2.978,0.909
		c-1.227,0-2.307-0.267-3.243-0.799v-1.137c0.524,0.326,1.067,0.578,1.627,0.754c0.561,0.179,1.084,0.267,1.573,0.267
		c0.979,0,1.727-0.203,2.244-0.61c0.517-0.408,0.776-0.987,0.776-1.739c0-0.298-0.056-0.56-0.165-0.787
		c-0.11-0.227-0.287-0.443-0.532-0.653c-0.245-0.209-0.714-0.513-1.409-0.909c-1.049-0.567-1.758-1.083-2.126-1.547
		c-0.369-0.464-0.553-1.029-0.553-1.696c0-0.907,0.349-1.649,1.047-2.227c0.698-0.578,1.618-0.867,2.759-0.867
		c0.532,0,1.093,0.062,1.686,0.186c0.592,0.124,1.09,0.289,1.493,0.495l-0.372,0.937c-0.964-0.454-1.899-0.682-2.807-0.682
		c-0.822,0-1.48,0.188-1.978,0.563c-0.496,0.376-0.744,0.865-0.744,1.467c0,0.39,0.06,0.702,0.181,0.936
		c0.121,0.234,0.335,0.478,0.644,0.729c0.309,0.251,0.731,0.522,1.271,0.812c0.808,0.446,1.38,0.813,1.717,1.101
		c0.336,0.287,0.585,0.594,0.744,0.92C241.425,330.761,241.505,331.14,241.505,331.573z"/>
	<path fill="#FFFFFF" d="M250.181,334.71h-1l3.551-16.544h1L250.181,334.71z"/>
	<path fill="#FFFFFF" d="M258.41,334.923c-1.228,0-2.185-0.39-2.87-1.164c-0.688-0.776-1.032-1.859-1.032-3.249
		c0-1.283,0.252-2.514,0.755-3.689c0.504-1.176,1.196-2.111,2.079-2.807s1.854-1.042,2.918-1.042c0.809,0,1.453,0.216,1.936,0.647
		c0.481,0.434,0.724,1.021,0.724,1.766c0,1.283-0.579,2.261-1.738,2.935c-1.158,0.673-2.879,1.01-5.162,1.01h-0.351
		c-0.042,0.312-0.063,0.659-0.063,1.042c0,1.17,0.263,2.062,0.787,2.675c0.524,0.612,1.279,0.92,2.266,0.92
		c0.936,0,1.912-0.259,2.934-0.776v1C260.597,334.677,259.537,334.923,258.41,334.923z M260.133,323.886
		c-0.929,0-1.792,0.409-2.589,1.228c-0.798,0.818-1.374,1.912-1.729,3.28h0.521c3.664,0,5.497-0.957,5.497-2.871
		c0-0.475-0.154-0.867-0.463-1.175C261.062,324.04,260.65,323.886,260.133,323.886z"/>
	<path fill="#FFFFFF" d="M270.871,331.573c0,1.021-0.365,1.833-1.097,2.44c-0.729,0.604-1.723,0.909-2.977,0.909
		c-1.228,0-2.309-0.267-3.243-0.799v-1.137c0.524,0.326,1.066,0.578,1.627,0.754c0.561,0.179,1.084,0.267,1.573,0.267
		c0.979,0,1.727-0.203,2.243-0.61c0.518-0.408,0.775-0.987,0.775-1.739c0-0.298-0.055-0.56-0.165-0.787
		c-0.108-0.227-0.286-0.443-0.53-0.653c-0.244-0.209-0.715-0.513-1.408-0.909c-1.05-0.567-1.759-1.083-2.127-1.547
		s-0.554-1.029-0.554-1.696c0-0.907,0.35-1.649,1.048-2.227c0.697-0.578,1.617-0.867,2.76-0.867c0.531,0,1.093,0.062,1.685,0.186
		c0.593,0.124,1.09,0.289,1.494,0.495l-0.372,0.937c-0.964-0.454-1.898-0.682-2.807-0.682c-0.822,0-1.481,0.188-1.979,0.563
		c-0.497,0.376-0.745,0.865-0.745,1.467c0,0.39,0.062,0.702,0.183,0.936c0.12,0.234,0.334,0.478,0.643,0.729
		c0.31,0.252,0.732,0.522,1.271,0.812c0.809,0.446,1.381,0.813,1.718,1.101c0.336,0.287,0.584,0.594,0.744,0.92
		C270.791,330.761,270.871,331.14,270.871,331.573z"/>
	<path fill="#FFFFFF" d="M283.034,334.88c-1.632,0-2.619-0.776-2.968-2.328h-0.042c-0.093,0.51-0.62,2.974-1.584,7.39h-1.053
		l3.572-16.789h0.872l-0.479,2.913h0.063c0.645-1.084,1.338-1.878,2.078-2.381s1.551-0.755,2.43-0.755
		c0.957,0,1.694,0.328,2.212,0.982c0.517,0.656,0.775,1.657,0.775,3.003c0,1.383-0.256,2.697-0.766,3.945
		c-0.511,1.248-1.211,2.229-2.101,2.945C285.155,334.521,284.154,334.88,283.034,334.88z M285.692,323.886
		c-0.616,0-1.232,0.207-1.851,0.622c-0.616,0.415-1.188,1.009-1.717,1.78c-0.529,0.772-0.92,1.614-1.176,2.525
		c-0.255,0.911-0.383,1.65-0.383,2.217c0,0.887,0.219,1.598,0.654,2.132c0.436,0.535,1.032,0.804,1.791,0.804
		c0.879,0,1.677-0.298,2.393-0.894c0.717-0.596,1.298-1.459,1.743-2.589c0.446-1.131,0.67-2.284,0.67-3.461
		C287.818,324.931,287.109,323.886,285.692,323.886z"/>
	<path fill="#FFFFFF" d="M291.763,334.71h-1l3.552-16.544h0.999L291.763,334.71z"/>
	<path fill="#FFFFFF" d="M299.057,323.152l-1.616,7.421c-0.155,0.751-0.232,1.312-0.232,1.681c0,0.524,0.168,0.939,0.505,1.249
		c0.336,0.309,0.827,0.463,1.473,0.463c0.779,0,1.516-0.232,2.206-0.696s1.272-1.127,1.743-1.988
		c0.472-0.86,0.824-1.852,1.059-2.972l1.116-5.157h1.042l-2.456,11.557h-0.851l0.298-2.18h-0.064
		c-1.184,1.566-2.61,2.351-4.283,2.351c-0.93,0-1.633-0.221-2.11-0.659c-0.478-0.439-0.718-1.081-0.718-1.924
		c0-0.426,0.077-1.027,0.232-1.808l1.596-7.336L299.057,323.152L299.057,323.152z"/>
	<path fill="#FFFFFF" d="M314.739,331.573c0,1.021-0.364,1.833-1.096,2.44c-0.729,0.604-1.723,0.909-2.977,0.909
		c-1.228,0-2.309-0.267-3.243-0.799v-1.137c0.523,0.326,1.065,0.578,1.627,0.754c0.56,0.179,1.084,0.267,1.573,0.267
		c0.979,0,1.727-0.203,2.243-0.61c0.518-0.408,0.775-0.987,0.775-1.739c0-0.298-0.055-0.56-0.165-0.787
		c-0.108-0.227-0.286-0.443-0.531-0.653c-0.243-0.209-0.714-0.513-1.407-0.909c-1.051-0.567-1.76-1.083-2.127-1.547
		c-0.368-0.464-0.554-1.029-0.554-1.696c0-0.907,0.35-1.649,1.047-2.227c0.698-0.578,1.618-0.867,2.761-0.867
		c0.53,0,1.093,0.062,1.685,0.186s1.09,0.289,1.494,0.495l-0.372,0.937c-0.964-0.454-1.899-0.682-2.807-0.682
		c-0.822,0-1.481,0.188-1.979,0.563c-0.497,0.376-0.745,0.865-0.745,1.467c0,0.39,0.062,0.702,0.183,0.936
		c0.12,0.234,0.334,0.478,0.643,0.729c0.31,0.252,0.732,0.522,1.271,0.812c0.809,0.446,1.381,0.813,1.718,1.101
		c0.336,0.287,0.584,0.594,0.744,0.92C314.659,330.761,314.739,331.14,314.739,331.573z"/>
	<path fill="#FFFFFF" d="M320.215,339.94c-0.341,0-0.702-0.068-1.085-0.202v-0.957c0.376,0.113,0.729,0.17,1.062,0.17
		c0.624,0,1.1-0.188,1.426-0.562c0.325-0.375,0.592-1.035,0.797-1.979l2.615-12.396h-2.18l0.148-0.712l2.18-0.149l0.372-1.701
		c0.248-1.19,0.661-2.055,1.239-2.594c0.577-0.539,1.384-0.808,2.418-0.808c0.518,0,1.105,0.109,1.766,0.33l-0.267,0.851
		c-0.616-0.191-1.138-0.287-1.562-0.287c-0.681,0-1.225,0.19-1.632,0.569c-0.408,0.379-0.707,1.012-0.898,1.897l-0.371,1.744h2.637
		l-0.17,0.861h-2.638l-2.68,12.652c-0.232,1.142-0.603,1.973-1.104,2.492C321.784,339.68,321.094,339.94,320.215,339.94z"/>
	<path fill="#FFFFFF" d="M334.652,322.929c1.275,0,2.264,0.384,2.961,1.152c0.698,0.771,1.048,1.831,1.048,3.186
		c0,1.396-0.253,2.702-0.761,3.918c-0.507,1.216-1.199,2.142-2.079,2.78c-0.879,0.638-1.893,0.957-3.04,0.957
		c-1.305,0-2.295-0.39-2.972-1.164c-0.678-0.776-1.016-1.889-1.016-3.333c0-1.354,0.259-2.623,0.775-3.807
		c0.518-1.184,1.216-2.095,2.096-2.731C332.543,323.248,333.539,322.929,334.652,322.929z M334.567,323.844
		c-0.879,0-1.67,0.277-2.371,0.835c-0.701,0.557-1.262,1.354-1.68,2.392c-0.419,1.039-0.628,2.139-0.628,3.301
		c0,2.425,1,3.637,2.999,3.637c0.899,0,1.699-0.274,2.397-0.823c0.696-0.549,1.254-1.357,1.669-2.424
		c0.415-1.067,0.622-2.238,0.622-3.515c0-1.091-0.26-1.931-0.776-2.52S335.538,323.844,334.567,323.844z"/>
	<path fill="#FFFFFF" d="M343.754,323.152l-1.616,7.421c-0.156,0.751-0.233,1.312-0.233,1.681c0,0.524,0.168,0.939,0.506,1.249
		c0.336,0.309,0.826,0.463,1.473,0.463c0.779,0,1.515-0.232,2.206-0.696c0.689-0.464,1.271-1.127,1.743-1.988
		c0.472-0.86,0.823-1.852,1.059-2.972l1.116-5.157h1.042l-2.456,11.557h-0.851l0.298-2.18h-0.064
		c-1.184,1.566-2.611,2.351-4.284,2.351c-0.929,0-1.632-0.221-2.109-0.659c-0.479-0.439-0.719-1.081-0.719-1.924
		c0-0.426,0.077-1.027,0.233-1.808l1.595-7.336L343.754,323.152L343.754,323.152z"/>
	<path fill="#FFFFFF" d="M359.437,331.573c0,1.021-0.365,1.833-1.096,2.44c-0.729,0.604-1.723,0.909-2.978,0.909
		c-1.227,0-2.308-0.267-3.242-0.799v-1.137c0.523,0.326,1.065,0.578,1.627,0.754c0.56,0.179,1.084,0.267,1.572,0.267
		c0.979,0,1.728-0.203,2.243-0.61c0.519-0.408,0.776-0.987,0.776-1.739c0-0.298-0.055-0.56-0.165-0.787
		c-0.109-0.227-0.286-0.443-0.531-0.653c-0.244-0.209-0.714-0.513-1.408-0.909c-1.05-0.567-1.759-1.083-2.127-1.547
		c-0.367-0.464-0.553-1.029-0.553-1.696c0-0.907,0.349-1.649,1.047-2.227c0.698-0.578,1.618-0.867,2.76-0.867
		c0.531,0,1.094,0.062,1.686,0.186s1.09,0.289,1.494,0.495l-0.372,0.937c-0.964-0.454-1.899-0.682-2.808-0.682
		c-0.821,0-1.48,0.188-1.978,0.563c-0.497,0.376-0.745,0.865-0.745,1.467c0,0.39,0.062,0.702,0.182,0.936
		c0.12,0.234,0.334,0.478,0.644,0.729c0.309,0.252,0.731,0.522,1.271,0.812c0.81,0.446,1.382,0.813,1.719,1.101
		c0.336,0.287,0.584,0.594,0.743,0.92C359.356,330.761,359.437,331.14,359.437,331.573z"/>
</g>
<g>
	<path fill="#FFFFFF" d="M110.591,422.172h0.851c-0.9,2.007-1.351,4.133-1.351,6.38c0,2.31,0.444,4.501,1.334,6.569
		c0.889,2.069,2.252,4.083,4.088,6.039h-1.116c-1.844-1.906-3.196-3.888-4.062-5.942c-0.865-2.056-1.297-4.299-1.297-6.729
		C109.038,426.135,109.555,424.029,110.591,422.172z"/>
	<path fill="#FFFFFF" d="M126.521,429.89c-0.159,0.325-0.408,0.632-0.744,0.919c-0.337,0.288-0.908,0.655-1.717,1.101
		c-0.539,0.291-0.962,0.562-1.271,0.813s-0.522,0.495-0.644,0.729c-0.121,0.234-0.181,0.546-0.181,0.937
		c0,0.603,0.248,1.092,0.744,1.467c0.497,0.375,1.156,0.562,1.978,0.562c0.907,0,1.843-0.227,2.808-0.68l0.372,0.937
		c-0.404,0.204-0.902,0.368-1.494,0.493c-0.593,0.125-1.153,0.188-1.686,0.188c-1.141,0-2.061-0.289-2.759-0.867
		s-1.047-1.321-1.047-2.228c0-0.666,0.184-1.231,0.553-1.695c0.368-0.465,1.077-0.981,2.126-1.547
		c0.695-0.397,1.164-0.7,1.409-0.909s0.422-0.426,0.532-0.654c0.109-0.226,0.165-0.488,0.165-0.786c0-0.752-0.259-1.33-0.776-1.737
		c-0.518-0.408-1.265-0.611-2.244-0.611c-0.488,0-1.013,0.088-1.573,0.266c-0.56,0.178-1.103,0.43-1.627,0.756v-1.139
		c0.937-0.531,2.017-0.798,3.243-0.798c1.255,0,2.247,0.304,2.978,0.909c0.729,0.605,1.095,1.419,1.095,2.439
		C126.761,429.186,126.682,429.566,126.521,429.89z"/>
	<path fill="#FFFFFF" d="M136.14,426.136v1c-1.021-0.518-1.999-0.776-2.935-0.776c-0.986,0-1.74,0.307-2.266,0.92
		c-0.524,0.613-0.787,1.504-0.787,2.674c0,0.383,0.021,0.73,0.063,1.042h0.351c2.283,0,4.003,0.337,5.162,1.011
		s1.739,1.651,1.739,2.935c0,0.744-0.241,1.333-0.723,1.765c-0.482,0.433-1.127,0.649-1.936,0.649c-1.062,0-2.036-0.348-2.918-1.042
		c-0.883-0.696-1.575-1.632-2.079-2.808c-0.504-1.177-0.755-2.406-0.755-3.689c0-1.389,0.343-2.472,1.031-3.248
		c0.688-0.775,1.645-1.164,2.871-1.164C134.087,425.404,135.146,425.65,136.14,426.136z M135.921,435.979
		c0.309-0.31,0.463-0.7,0.463-1.175c0-1.914-1.832-2.871-5.497-2.871h-0.521c0.354,1.368,0.931,2.461,1.728,3.279
		c0.797,0.819,1.66,1.229,2.589,1.229C135.2,436.441,135.613,436.286,135.921,435.979z"/>
	<path fill="#FFFFFF" d="M141.891,437.174h-1.062l-1.596-7.336c-0.155-0.78-0.233-1.383-0.233-1.809c0-0.843,0.24-1.485,0.718-1.924
		c0.478-0.439,1.182-0.659,2.11-0.659c1.673,0,3.101,0.784,4.284,2.351h0.063l-0.297-2.181h0.85l2.456,11.558h-1.042l-1.116-5.156
		c-0.233-1.12-0.587-2.111-1.058-2.973c-0.472-0.86-1.053-1.522-1.744-1.987c-0.691-0.464-1.427-0.696-2.207-0.696
		c-0.645,0-1.136,0.154-1.472,0.463c-0.337,0.309-0.505,0.726-0.505,1.249c0,0.368,0.078,0.929,0.233,1.68L141.891,437.174
		L141.891,437.174z"/>
	<path fill="#FFFFFF" d="M155.35,442.161h-0.999l-3.551-16.544h1L155.35,442.161z"/>
	<path fill="#FFFFFF" d="M157.701,428.149h-1.181c-0.185-0.652-0.497-1.471-0.936-2.456c-0.439-0.985-0.939-1.945-1.499-2.881h0.787
		c0.566,0.737,1.134,1.606,1.701,2.61c0.566,1.003,0.971,1.829,1.212,2.481L157.701,428.149L157.701,428.149z"/>
	<path fill="#FFFFFF" d="M173.617,425.616h1.043l1.572,7.166c0.17,0.794,0.255,1.439,0.255,1.936c0,0.851-0.229,1.503-0.69,1.957
		c-0.46,0.452-1.152,0.681-2.073,0.681c-1.786,0-3.26-0.843-4.423-2.531h-0.063l0.394,2.351h-0.872l-2.456-11.558h1.042l1.084,5.071
		c0.255,1.177,0.622,2.192,1.1,3.046c0.479,0.854,1.067,1.518,1.766,1.994c0.698,0.475,1.443,0.712,2.238,0.712
		c0.645,0,1.121-0.16,1.43-0.479c0.308-0.317,0.462-0.762,0.462-1.328c0-0.453-0.074-1.007-0.223-1.658L173.617,425.616
		L173.617,425.616z"/>
	<path fill="#FFFFFF" d="M181.559,436.441c-0.879-0.637-1.577-1.548-2.095-2.732c-0.518-1.184-0.776-2.451-0.776-3.806
		c0-1.446,0.338-2.558,1.016-3.334c0.677-0.775,1.668-1.164,2.972-1.164c1.147,0,2.162,0.32,3.041,0.957s1.572,1.564,2.079,2.78
		c0.506,1.216,0.76,2.521,0.76,3.918c0,1.354-0.349,2.415-1.047,3.185c-0.698,0.769-1.686,1.153-2.961,1.153
		C183.434,437.398,182.438,437.078,181.559,436.441z M186.693,435.601c0.518-0.588,0.776-1.429,0.776-2.521
		c0-1.276-0.207-2.447-0.622-3.514c-0.414-1.068-0.971-1.875-1.669-2.425c-0.698-0.549-1.497-0.823-2.397-0.823
		c-1.998,0-2.997,1.212-2.997,3.636c0,1.162,0.209,2.264,0.627,3.302s0.978,1.836,1.68,2.393s1.492,0.835,2.371,0.835
		C185.433,436.484,186.176,436.189,186.693,435.601z"/>
	<path fill="#FFFFFF" d="M193.648,437.174h-1.062l-1.595-7.336c-0.156-0.78-0.234-1.383-0.234-1.809c0-0.843,0.24-1.485,0.718-1.924
		c0.479-0.439,1.183-0.659,2.11-0.659c1.673,0,3.101,0.784,4.285,2.351h0.062l-0.297-2.181h0.85l2.456,11.558H199.9l-1.115-5.156
		c-0.234-1.12-0.588-2.111-1.059-2.973c-0.472-0.86-1.053-1.522-1.744-1.987c-0.691-0.464-1.427-0.696-2.207-0.696
		c-0.645,0-1.136,0.154-1.472,0.463c-0.337,0.309-0.505,0.726-0.505,1.249c0,0.368,0.078,0.929,0.234,1.68L193.648,437.174
		L193.648,437.174z"/>
	<path fill="#FFFFFF" d="M209.09,429.89c-0.159,0.325-0.408,0.632-0.744,0.919c-0.337,0.288-0.909,0.655-1.717,1.101
		c-0.539,0.291-0.962,0.562-1.271,0.813c-0.308,0.252-0.521,0.495-0.643,0.729c-0.121,0.234-0.181,0.546-0.181,0.937
		c0,0.603,0.248,1.092,0.743,1.467c0.497,0.375,1.156,0.562,1.979,0.562c0.907,0,1.843-0.227,2.807-0.68l0.372,0.937
		c-0.404,0.204-0.901,0.368-1.494,0.493c-0.592,0.125-1.152,0.188-1.685,0.188c-1.141,0-2.062-0.289-2.759-0.867
		c-0.698-0.578-1.047-1.321-1.047-2.228c0-0.666,0.184-1.231,0.553-1.695c0.368-0.465,1.077-0.981,2.126-1.547
		c0.695-0.397,1.164-0.7,1.409-0.909s0.422-0.426,0.531-0.654c0.11-0.226,0.165-0.488,0.165-0.786c0-0.752-0.259-1.33-0.775-1.737
		c-0.519-0.408-1.266-0.611-2.244-0.611c-0.489,0-1.013,0.088-1.573,0.266c-0.56,0.178-1.103,0.43-1.627,0.756v-1.139
		c0.937-0.531,2.016-0.798,3.243-0.798c1.255,0,2.247,0.304,2.977,0.909c0.73,0.605,1.096,1.419,1.096,2.439
		C209.33,429.186,209.25,429.566,209.09,429.89z"/>
	<path fill="#FFFFFF" d="M224.321,425.616h1.043l1.573,7.166c0.17,0.794,0.255,1.439,0.255,1.936c0,0.851-0.229,1.503-0.69,1.957
		c-0.46,0.452-1.152,0.681-2.073,0.681c-1.786,0-3.26-0.843-4.423-2.531h-0.063l0.394,2.351h-0.872l-2.456-11.558h1.042l1.084,5.071
		c0.255,1.177,0.622,2.192,1.1,3.046c0.479,0.854,1.067,1.518,1.766,1.994c0.697,0.475,1.443,0.712,2.237,0.712
		c0.646,0,1.122-0.16,1.431-0.479c0.308-0.317,0.462-0.762,0.462-1.328c0-0.453-0.074-1.007-0.224-1.658L224.321,425.616
		L224.321,425.616z"/>
	<path fill="#FFFFFF" d="M232.198,441.161c-0.282-0.863-0.649-1.779-1.1-2.748c-0.45-0.968-0.909-1.827-1.377-2.578h0.787
		c0.596,0.802,1.157,1.663,1.685,2.59c0.529,0.925,0.945,1.76,1.25,2.504l-0.042,0.232H232.198z"/>
	<path fill="#FFFFFF" d="M235.543,436.318c-0.891-0.691-1.601-1.67-2.132-2.939c-0.531-1.269-0.798-2.602-0.798-3.997
		c0-2.652,0.996-3.978,2.988-3.978c0.95,0,1.79,0.271,2.521,0.809c0.729,0.538,1.393,1.311,1.987,2.317h0.064l-0.479-2.913h0.872
		l2.436,11.558h-0.852l-0.627-2.147h-0.063c-0.333,1.553-1.321,2.329-2.966,2.329C237.417,437.356,236.433,437.01,235.543,436.318z
		 M234.24,427.123c-0.354,0.507-0.53,1.299-0.53,2.376c0,1.149,0.226,2.303,0.68,3.461s1.036,2.028,1.744,2.609
		c0.709,0.582,1.503,0.872,2.382,0.872c0.538,0,0.989-0.129,1.35-0.388c0.362-0.259,0.635-0.61,0.819-1.054
		c0.185-0.442,0.276-0.943,0.276-1.505c0-0.616-0.132-1.371-0.395-2.265c-0.263-0.892-0.643-1.708-1.143-2.445
		s-1.064-1.326-1.691-1.765c-0.627-0.439-1.256-0.659-1.887-0.659C235.13,426.361,234.595,426.615,234.24,427.123z"/>
	<path fill="#FFFFFF" d="M248.934,442.161h-0.999l-3.551-16.544h1L248.934,442.161z"/>
	<path fill="#FFFFFF" d="M253.984,442.161h-0.998l-3.552-16.544h1L253.984,442.161z"/>
	<path fill="#FFFFFF" d="M257.589,436.441c-0.88-0.637-1.578-1.548-2.095-2.732c-0.518-1.184-0.776-2.451-0.776-3.806
		c0-1.446,0.338-2.558,1.016-3.334c0.678-0.775,1.667-1.164,2.973-1.164c1.146,0,2.161,0.32,3.04,0.957s1.571,1.564,2.079,2.78
		c0.507,1.216,0.76,2.521,0.76,3.918c0,1.354-0.35,2.415-1.047,3.185c-0.698,0.769-1.687,1.153-2.961,1.153
		C259.464,437.398,258.468,437.078,257.589,436.441z M262.724,435.601c0.518-0.588,0.776-1.429,0.776-2.521
		c0-1.276-0.207-2.447-0.622-3.514c-0.415-1.068-0.973-1.875-1.669-2.425c-0.698-0.549-1.498-0.823-2.397-0.823
		c-1.999,0-2.999,1.212-2.999,3.636c0,1.162,0.209,2.264,0.628,3.302c0.418,1.038,0.979,1.836,1.681,2.393
		c0.7,0.557,1.491,0.835,2.371,0.835C261.463,436.484,262.207,436.189,262.724,435.601z"/>
	<path fill="#FFFFFF" d="M273.75,425.616h1.04l1.572,7.166c0.171,0.794,0.256,1.439,0.256,1.936c0,0.851-0.23,1.503-0.69,1.957
		c-0.461,0.452-1.152,0.681-2.073,0.681c-1.786,0-3.261-0.843-4.423-2.531h-0.063l0.394,2.351h-0.872l-2.456-11.558h1.042
		l1.085,5.071c0.255,1.177,0.622,2.192,1.102,3.046c0.479,0.854,1.066,1.518,1.765,1.994c0.698,0.475,1.444,0.712,2.238,0.712
		c0.645,0,1.121-0.16,1.43-0.479c0.309-0.317,0.463-0.762,0.463-1.328c0-0.453-0.076-1.007-0.224-1.658L273.75,425.616
		L273.75,425.616z"/>
	<path fill="#FFFFFF" d="M285.121,429.89c-0.16,0.325-0.408,0.632-0.744,0.919c-0.337,0.288-0.909,0.655-1.718,1.101
		c-0.539,0.291-0.963,0.562-1.271,0.813s-0.523,0.495-0.643,0.729c-0.121,0.234-0.183,0.546-0.183,0.937
		c0,0.603,0.248,1.092,0.745,1.467s1.156,0.562,1.979,0.562c0.907,0,1.843-0.227,2.807-0.68l0.372,0.937
		c-0.404,0.204-0.902,0.368-1.494,0.493s-1.154,0.188-1.685,0.188c-1.143,0-2.062-0.289-2.761-0.867
		c-0.697-0.578-1.047-1.321-1.047-2.228c0-0.666,0.186-1.231,0.553-1.695c0.368-0.465,1.077-0.981,2.128-1.547
		c0.693-0.397,1.163-0.7,1.407-0.909c0.245-0.209,0.422-0.426,0.531-0.654c0.11-0.226,0.165-0.488,0.165-0.786
		c0-0.752-0.258-1.33-0.776-1.737c-0.516-0.408-1.264-0.611-2.242-0.611c-0.489,0-1.014,0.088-1.573,0.266
		c-0.562,0.178-1.104,0.43-1.627,0.756v-1.139c0.935-0.531,2.016-0.798,3.243-0.798c1.254,0,2.248,0.304,2.977,0.909
		c0.731,0.605,1.096,1.419,1.096,2.439C285.36,429.186,285.28,429.566,285.121,429.89z"/>
	<path fill="#FFFFFF" d="M300.352,425.616h1.04l1.573,7.166c0.17,0.794,0.255,1.439,0.255,1.936c0,0.851-0.23,1.503-0.69,1.957
		c-0.461,0.452-1.151,0.681-2.072,0.681c-1.786,0-3.262-0.843-4.423-2.531h-0.064l0.394,2.351h-0.871l-2.456-11.558h1.042
		l1.085,5.071c0.255,1.177,0.622,2.192,1.101,3.046c0.479,0.854,1.067,1.518,1.765,1.994c0.698,0.475,1.444,0.712,2.238,0.712
		c0.646,0,1.121-0.16,1.43-0.479c0.31-0.317,0.464-0.762,0.464-1.328c0-0.453-0.076-1.007-0.225-1.658L300.352,425.616
		L300.352,425.616z"/>
	<path fill="#FFFFFF" d="M308.432,437.174h-1.062l-1.596-7.336c-0.155-0.78-0.232-1.383-0.232-1.809c0-0.843,0.24-1.485,0.718-1.924
		c0.478-0.439,1.181-0.659,2.11-0.659c1.673,0,3.1,0.784,4.283,2.351h0.064l-0.298-2.181h0.851l2.456,11.558h-1.042l-1.116-5.156
		c-0.234-1.12-0.587-2.111-1.059-2.973c-0.471-0.86-1.053-1.522-1.743-1.987c-0.69-0.464-1.427-0.696-2.206-0.696
		c-0.646,0-1.137,0.154-1.473,0.463c-0.337,0.309-0.505,0.726-0.505,1.249c0,0.368,0.077,0.929,0.232,1.68L308.432,437.174
		L308.432,437.174z"/>
	<path fill="#FFFFFF" d="M321.892,442.161h-0.999l-3.552-16.544h1L321.892,442.161z"/>
	<path fill="#FFFFFF" d="M326.942,442.161h-0.999l-3.552-16.544h1L326.942,442.161z"/>
	<path fill="#FFFFFF" d="M334.801,426.136v1c-1.021-0.518-1.998-0.776-2.934-0.776c-0.986,0-1.741,0.307-2.266,0.92
		s-0.787,1.504-0.787,2.674c0,0.383,0.021,0.73,0.063,1.042h0.351c2.283,0,4.004,0.337,5.162,1.011
		c1.159,0.674,1.738,1.651,1.738,2.935c0,0.744-0.242,1.333-0.724,1.765c-0.482,0.433-1.127,0.649-1.936,0.649
		c-1.062,0-2.035-0.348-2.918-1.042c-0.883-0.696-1.575-1.631-2.079-2.808c-0.503-1.177-0.755-2.406-0.755-3.689
		c0-1.389,0.344-2.472,1.032-3.248c0.686-0.775,1.643-1.164,2.87-1.164C332.747,425.404,333.807,425.65,334.801,426.136z
		 M334.581,435.979c0.309-0.31,0.463-0.7,0.463-1.175c0-1.914-1.833-2.871-5.497-2.871h-0.521c0.354,1.368,0.931,2.461,1.729,3.279
		c0.797,0.819,1.66,1.229,2.589,1.229C333.86,436.441,334.272,436.286,334.581,435.979z"/>
	<path fill="#FFFFFF" d="M350.462,426.521c0.89,0.716,1.59,1.698,2.101,2.945c0.51,1.248,0.766,2.562,0.766,3.943
		c0,1.348-0.259,2.35-0.775,3.004c-0.518,0.655-1.255,0.983-2.212,0.983c-0.879,0-1.689-0.252-2.43-0.755s-1.434-1.297-2.078-2.382
		h-0.063l0.479,2.913h-0.872l-3.572-16.788h1.053c0.964,4.416,1.491,6.88,1.584,7.39h0.042c0.349-1.552,1.336-2.328,2.968-2.328
		C348.571,425.447,349.572,425.805,350.462,426.521z M352.234,433.305c0-1.177-0.224-2.33-0.67-3.46
		c-0.445-1.131-1.026-1.994-1.743-2.589c-0.716-0.597-1.514-0.895-2.393-0.895c-0.759,0-1.355,0.269-1.791,0.803
		c-0.436,0.535-0.654,1.246-0.654,2.132c0,0.568,0.128,1.307,0.384,2.218c0.255,0.911,0.646,1.753,1.175,2.524
		c0.528,0.772,1.101,1.366,1.717,1.78c0.618,0.415,1.234,0.622,1.851,0.622C351.526,436.441,352.235,435.396,352.234,433.305z"/>
	<path fill="#FFFFFF" d="M358.388,436.318c-0.89-0.691-1.601-1.67-2.132-2.939c-0.531-1.269-0.798-2.602-0.798-3.997
		c0-2.652,0.996-3.978,2.987-3.978c0.95,0,1.79,0.271,2.521,0.809c0.729,0.538,1.392,1.311,1.988,2.317h0.062l-0.479-2.913h0.872
		l2.435,11.558h-0.851l-0.627-2.147h-0.063c-0.334,1.553-1.322,2.329-2.967,2.329C360.26,437.356,359.278,437.01,358.388,436.318z
		 M357.084,427.123c-0.354,0.507-0.531,1.299-0.531,2.376c0,1.149,0.227,2.303,0.681,3.461c0.453,1.158,1.034,2.028,1.743,2.609
		c0.709,0.582,1.503,0.872,2.382,0.872c0.539,0,0.989-0.129,1.352-0.388c0.36-0.259,0.634-0.61,0.817-1.054
		c0.185-0.442,0.276-0.943,0.276-1.505c0-0.616-0.131-1.371-0.394-2.265c-0.263-0.892-0.645-1.708-1.144-2.445
		c-0.5-0.737-1.062-1.326-1.689-1.765c-0.628-0.439-1.258-0.659-1.889-0.659C357.974,426.361,357.438,426.615,357.084,427.123z"/>
	<path fill="#FFFFFF" d="M372.688,437.134c-0.4-0.164-0.777-0.393-1.132-0.687c-0.354-0.295-0.791-0.773-1.309-1.441h-0.063
		l0.31,2.17h-0.852l-2.456-11.558h1.042l1.063,5.114c0.226,1.055,0.581,2.037,1.062,2.945c0.482,0.906,1.024,1.587,1.627,2.041
		c0.603,0.452,1.237,0.681,1.903,0.681c0.468,0,0.868-0.054,1.201-0.16l0.224,0.989c-0.383,0.098-0.82,0.147-1.308,0.147
		C373.524,437.376,373.089,437.297,372.688,437.134z"/>
	<path fill="#FFFFFF" d="M381.793,437.174h-3.042l0.585,2.723h-0.585l-1.031-2.69l-1.956-0.181l-0.149-0.712h1.937l-1.372-6.454
		c-0.205-0.942-0.308-1.672-0.308-2.19c0-0.737,0.19-1.299,0.572-1.685c0.384-0.387,0.927-0.58,1.627-0.58
		c0.49,0,1.093,0.1,1.809,0.298v0.914c-0.595-0.183-1.134-0.275-1.616-0.275c-0.893,0-1.34,0.493-1.34,1.479
		c0,0.46,0.078,1.042,0.233,1.743l1.437,6.752h3.009L381.793,437.174L381.793,437.174z"/>
	<path fill="#FFFFFF" d="M389.885,441.161h-0.851c0.495-1.134,0.846-2.219,1.048-3.253c0.202-1.035,0.303-2.077,0.303-3.126
		c0-2.317-0.449-4.514-1.345-6.587c-0.896-2.073-2.256-4.081-4.077-6.021h1.116c1.82,1.878,3.17,3.849,4.045,5.91
		c0.875,2.063,1.312,4.317,1.312,6.763C391.437,437.199,390.919,439.304,389.885,441.161z"/>
</g>
<ellipse transform="matrix(0.9736 0.2281 -0.2281 0.9736 93.4423 -47.2684)" fill="#FFFFFF" cx="251.182" cy="380.553" rx="2.686" ry="3.134"/>
<ellipse transform="matrix(0.6985 -0.7157 0.7157 0.6985 -268.1191 322.6682)" fill="#FFFFFF" cx="248.835" cy="479.498" rx="2.243" ry="2.59"/>
<ellipse transform="matrix(0.9736 0.2281 -0.2281 0.9736 117.3119 -44.5815)" fill="#FFFFFF" cx="251.502" cy="485.166" rx="1.434" ry="1.673"/>
<ellipse transform="matrix(-0.4607 -0.8876 0.8876 -0.4607 -53.4119 927.1416)" fill="#FFFFFF" cx="254.981" cy="479.799" rx="1.735" ry="2.025"/>
</svg>
