<?xml version="1.0" encoding="iso-8859-1"?>
<!-- Generator: Adobe Illustrator 15.0.0, SVG Export Plug-In . SVG Version: 6.00 Build 0)  -->
<!DOCTYPE svg PUBLIC "-//W3C//DTD SVG 1.1//EN" "http://www.w3.org/Graphics/SVG/1.1/DTD/svg11.dtd">
<svg version="1.1" id="Layer_1" xmlns="http://www.w3.org/2000/svg" xmlns:xlink="http://www.w3.org/1999/xlink" x="0px" y="0px"
	 width="500px" height="664px" viewBox="0 0 500 664" style="enable-background:new 0 0 500 664;" xml:space="preserve">
<rect width="500" height="664"/>
<g>
	<path style="fill:#FFFFFF;" d="M186.324,228.628c0.361-0.787,0.801-1.662,1.318-2.626l6.082-11.355h1.244l-8.495,15.544h-0.936
		l-1.935-15.544h1.063l1.244,10.1c0.184,1.539,0.308,2.832,0.372,3.881H186.324z"/>
	<path style="fill:#FFFFFF;" d="M197.924,230.404c-1.226,0-2.183-0.388-2.871-1.164c-0.688-0.776-1.031-1.859-1.031-3.248
		c0-1.283,0.251-2.513,0.755-3.689c0.503-1.176,1.196-2.112,2.079-2.807s1.855-1.042,2.918-1.042c0.808,0,1.453,0.216,1.935,0.648
		c0.482,0.433,0.723,1.021,0.723,1.765c0,1.283-0.58,2.261-1.739,2.935c-1.159,0.673-2.879,1.01-5.162,1.01h-0.351
		c-0.042,0.312-0.063,0.659-0.063,1.042c0,1.169,0.262,2.061,0.787,2.674c0.524,0.613,1.279,0.92,2.265,0.92
		c0.936,0,1.914-0.259,2.935-0.776v1C200.11,230.16,199.051,230.404,197.924,230.404z M199.646,219.368
		c-0.929,0-1.792,0.409-2.589,1.228c-0.797,0.818-1.374,1.912-1.728,3.28h0.521c3.665,0,5.497-0.957,5.497-2.871
		c0-0.475-0.154-0.867-0.463-1.175C200.577,219.522,200.164,219.368,199.646,219.368z"/>
	<path style="fill:#FFFFFF;" d="M206.854,218.634l-1.616,7.421c-0.156,0.751-0.234,1.311-0.234,1.68c0,0.525,0.168,0.941,0.505,1.25
		c0.336,0.308,0.827,0.462,1.472,0.462c0.78,0,1.515-0.232,2.207-0.696c0.691-0.464,1.272-1.127,1.744-1.988
		c0.471-0.861,0.824-1.852,1.058-2.972l1.116-5.157h1.042l-2.456,11.557h-0.85l0.297-2.18h-0.063
		c-1.184,1.567-2.612,2.35-4.285,2.35c-0.928,0-1.632-0.219-2.11-0.659c-0.479-0.439-0.718-1.081-0.718-1.924
		c0-0.425,0.078-1.027,0.234-1.807l1.595-7.336H206.854z"/>
	<path style="fill:#FFFFFF;" d="M216.807,230.191h-1.042l2.456-11.557h1.021L216.807,230.191z M218.678,215.668
		c0-0.39,0.078-0.702,0.234-0.936s0.369-0.351,0.638-0.351c0.404,0,0.606,0.255,0.606,0.766c0,0.404-0.078,0.723-0.234,0.957
		c-0.156,0.234-0.358,0.351-0.606,0.351c-0.206,0-0.364-0.069-0.473-0.207C218.732,216.109,218.678,215.916,218.678,215.668z"/>
	<path style="fill:#FFFFFF;" d="M221.814,230.191h-1l3.551-16.543h0.999L221.814,230.191z"/>
	<path style="fill:#FFFFFF;" d="M226.864,230.191h-1l3.551-16.543h0.999L226.864,230.191z"/>
	<path style="fill:#FFFFFF;" d="M235.093,230.404c-1.226,0-2.183-0.388-2.871-1.164c-0.688-0.776-1.031-1.859-1.031-3.248
		c0-1.283,0.251-2.513,0.755-3.689c0.503-1.176,1.196-2.112,2.079-2.807s1.855-1.042,2.918-1.042c0.808,0,1.453,0.216,1.935,0.648
		c0.482,0.433,0.723,1.021,0.723,1.765c0,1.283-0.58,2.261-1.739,2.935c-1.159,0.673-2.879,1.01-5.162,1.01h-0.351
		c-0.042,0.312-0.063,0.659-0.063,1.042c0,1.169,0.262,2.061,0.787,2.674c0.524,0.613,1.279,0.92,2.265,0.92
		c0.936,0,1.914-0.259,2.935-0.776v1C237.28,230.16,236.22,230.404,235.093,230.404z M236.816,219.368
		c-0.929,0-1.792,0.409-2.589,1.228c-0.797,0.818-1.374,1.912-1.728,3.28h0.521c3.665,0,5.497-0.957,5.497-2.871
		c0-0.475-0.154-0.867-0.463-1.175C237.746,219.522,237.333,219.368,236.816,219.368z"/>
	<path style="fill:#FFFFFF;" d="M247.416,230.191h-7.75l0.159-0.766l8.25-9.909h-5.773l0.181-0.882h7.006l-0.191,0.882l-8.102,9.782
		h6.4L247.416,230.191z"/>
	<path style="fill:#FFFFFF;" d="M262.024,218.454c1.645,0,2.633,0.776,2.967,2.329h0.063l0.627-2.148h0.851l-2.435,11.557h-0.872
		l0.479-2.913h-0.063c-0.596,1.006-1.258,1.779-1.988,2.318s-1.57,0.808-2.52,0.808c-1.992,0-2.988-1.325-2.988-3.976
		c0-1.396,0.267-2.729,0.798-3.998c0.531-1.269,1.242-2.249,2.132-2.94S260.947,218.454,262.024,218.454z M259.377,229.447
		c0.631,0,1.26-0.22,1.888-0.659c0.627-0.439,1.19-1.028,1.69-1.765c0.499-0.737,0.881-1.552,1.143-2.445
		c0.263-0.893,0.394-1.648,0.394-2.265c0-0.56-0.092-1.062-0.276-1.504s-0.457-0.794-0.818-1.053
		c-0.362-0.258-0.812-0.388-1.351-0.388c-0.879,0-1.673,0.291-2.382,0.872c-0.709,0.582-1.29,1.451-1.743,2.61
		c-0.454,1.159-0.681,2.312-0.681,3.46c0,1.078,0.177,1.87,0.531,2.376S258.661,229.447,259.377,229.447z"/>
	<path style="fill:#FFFFFF;" d="M278.802,218.634l-0.181,0.84l-2.584,0.117c0.185,0.198,0.339,0.496,0.463,0.893
		s0.186,0.801,0.186,1.212c0,0.773-0.192,1.504-0.579,2.196c-0.387,0.691-0.911,1.207-1.573,1.547c-0.663,0.34-1.42,0.51-2.271,0.51
		c-0.446,0-0.719-0.032-0.818-0.096c-0.567,0.234-1.007,0.493-1.318,0.776c-0.312,0.283-0.468,0.57-0.468,0.861
		c0,0.291,0.111,0.52,0.335,0.686s0.625,0.278,1.207,0.335l1.286,0.117c2.452,0.22,3.679,1.155,3.679,2.807
		c0,0.793-0.23,1.494-0.691,2.1s-1.123,1.072-1.988,1.398c-0.864,0.326-1.896,0.489-3.094,0.489c-1.318,0-2.352-0.255-3.099-0.766
		c-0.748-0.51-1.122-1.229-1.122-2.158c0-1.673,1.095-2.856,3.285-3.551c-0.553-0.297-0.829-0.733-0.829-1.308
		c0-0.872,0.677-1.587,2.03-2.147c-0.503-0.255-0.895-0.629-1.175-1.122c-0.28-0.492-0.42-1.05-0.42-1.674
		c0-0.787,0.189-1.51,0.569-2.169c0.379-0.659,0.903-1.176,1.573-1.552c0.67-0.375,1.401-0.563,2.195-0.563
		c0.489,0,1.011,0.074,1.563,0.223H278.802z M267.255,232.392c0,0.716,0.287,1.248,0.861,1.595c0.574,0.348,1.368,0.521,2.382,0.521
		c1.438,0,2.562-0.264,3.37-0.792c0.809-0.528,1.212-1.253,1.212-2.174c0-0.603-0.221-1.065-0.664-1.387
		c-0.443-0.323-1.218-0.526-2.323-0.611l-1.701-0.16c-1.112,0.319-1.914,0.725-2.402,1.217
		C267.5,231.093,267.255,231.69,267.255,232.392z M270.137,222.632c0,0.794,0.207,1.396,0.622,1.808
		c0.414,0.411,0.997,0.617,1.749,0.617c0.623,0,1.169-0.131,1.637-0.394s0.831-0.666,1.09-1.212s0.389-1.145,0.389-1.797
		c0-0.737-0.199-1.31-0.596-1.717c-0.397-0.408-0.953-0.612-1.669-0.612c-0.659,0-1.23,0.153-1.712,0.458
		c-0.482,0.305-0.854,0.716-1.116,1.233C270.268,221.533,270.137,222.072,270.137,222.632z"/>
	<path style="fill:#FFFFFF;" d="M285.745,218.432c0.488,0,0.925,0.05,1.308,0.149l-0.224,0.989
		c-0.333-0.106-0.733-0.159-1.201-0.159c-0.666,0-1.301,0.227-1.903,0.68s-1.145,1.134-1.627,2.042
		c-0.481,0.907-0.836,1.889-1.062,2.945l-1.063,5.114h-1.042l2.456-11.557h0.851l-0.309,2.169h0.063
		c0.518-0.666,0.954-1.146,1.309-1.44c0.354-0.294,0.731-0.523,1.132-0.686S285.27,218.432,285.745,218.432z"/>
	<path style="fill:#FFFFFF;" d="M291.146,230.404c-1.227,0-2.184-0.388-2.87-1.164c-0.688-0.776-1.032-1.859-1.032-3.248
		c0-1.283,0.252-2.513,0.755-3.689c0.504-1.176,1.196-2.112,2.079-2.807s1.855-1.042,2.918-1.042c0.809,0,1.453,0.216,1.936,0.648
		c0.481,0.433,0.723,1.021,0.723,1.765c0,1.283-0.579,2.261-1.738,2.935c-1.158,0.673-2.879,1.01-5.162,1.01h-0.351
		c-0.042,0.312-0.063,0.659-0.063,1.042c0,1.169,0.262,2.061,0.787,2.674c0.524,0.613,1.279,0.92,2.265,0.92
		c0.936,0,1.913-0.259,2.934-0.776v1C293.332,230.16,292.272,230.404,291.146,230.404z M292.868,219.368
		c-0.929,0-1.792,0.409-2.589,1.228c-0.798,0.818-1.374,1.912-1.728,3.28h0.521c3.664,0,5.497-0.957,5.497-2.871
		c0-0.475-0.154-0.867-0.463-1.175C293.798,219.522,293.386,219.368,292.868,219.368z M291.815,216.774
		c0.468-0.362,1.001-0.865,1.601-1.51c0.599-0.645,1.058-1.23,1.376-1.754h1.457v0.245c-0.361,0.468-0.92,1.029-1.675,1.685
		s-1.437,1.175-2.047,1.558h-0.712V216.774z"/>
	<path style="fill:#FFFFFF;" d="M301.012,230.404c-1.227,0-2.184-0.388-2.87-1.164c-0.688-0.776-1.032-1.859-1.032-3.248
		c0-1.283,0.252-2.513,0.755-3.689c0.504-1.176,1.196-2.112,2.079-2.807s1.855-1.042,2.918-1.042c0.809,0,1.453,0.216,1.936,0.648
		c0.481,0.433,0.723,1.021,0.723,1.765c0,1.283-0.579,2.261-1.738,2.935c-1.158,0.673-2.879,1.01-5.162,1.01h-0.351
		c-0.042,0.312-0.063,0.659-0.063,1.042c0,1.169,0.262,2.061,0.787,2.674c0.524,0.613,1.279,0.92,2.265,0.92
		c0.936,0,1.913-0.259,2.934-0.776v1C303.198,230.16,302.139,230.404,301.012,230.404z M302.734,219.368
		c-0.929,0-1.792,0.409-2.589,1.228c-0.798,0.818-1.374,1.912-1.728,3.28h0.521c3.664,0,5.497-0.957,5.497-2.871
		c0-0.475-0.154-0.867-0.463-1.175C303.664,219.522,303.252,219.368,302.734,219.368z"/>
	<path style="fill:#FFFFFF;" d="M313.474,218.432c0.488,0,0.925,0.05,1.308,0.149l-0.224,0.989
		c-0.333-0.106-0.733-0.159-1.201-0.159c-0.666,0-1.301,0.227-1.903,0.68s-1.145,1.134-1.627,2.042
		c-0.481,0.907-0.836,1.889-1.062,2.945l-1.063,5.114h-1.042l2.456-11.557h0.851l-0.309,2.169h0.063
		c0.518-0.666,0.954-1.146,1.309-1.44c0.354-0.294,0.731-0.523,1.132-0.686S312.998,218.432,313.474,218.432z"/>
	<path style="fill:#FFFFFF;" d="M316.546,227.661l0.085,0.244c-0.241,0.652-0.646,1.48-1.212,2.483
		c-0.567,1.003-1.135,1.873-1.701,2.61h-0.787c0.561-0.936,1.06-1.896,1.499-2.881c0.439-0.985,0.752-1.804,0.936-2.456H316.546z"/>
	<path style="fill:#FFFFFF;" d="M157.246,254.141l7.793-13.364h1.595l-3.2,15.544h-1.074l2.031-9.58
		c0.56-2.615,0.915-4.2,1.063-4.752h-0.064l-8.293,14.332h-0.542l-2.36-14.332h-0.064c-0.142,1.092-0.418,2.602-0.829,4.529
		l-2.084,9.803h-1.021l3.286-15.544h1.52l2.18,13.364H157.246z"/>
	<path style="fill:#FFFFFF;" d="M171.769,256.533c-1.226,0-2.183-0.388-2.871-1.164c-0.688-0.776-1.031-1.859-1.031-3.248
		c0-1.283,0.251-2.513,0.755-3.689c0.503-1.176,1.196-2.112,2.079-2.807s1.855-1.042,2.918-1.042c0.808,0,1.453,0.216,1.935,0.648
		c0.482,0.433,0.723,1.021,0.723,1.765c0,1.283-0.58,2.261-1.739,2.935c-1.159,0.673-2.879,1.01-5.162,1.01h-0.351
		c-0.042,0.312-0.063,0.659-0.063,1.042c0,1.169,0.262,2.061,0.787,2.674c0.524,0.613,1.279,0.92,2.265,0.92
		c0.936,0,1.914-0.259,2.935-0.776v1C173.956,256.289,172.896,256.533,171.769,256.533z M173.492,245.498
		c-0.929,0-1.792,0.409-2.589,1.228c-0.797,0.818-1.374,1.912-1.728,3.28h0.521c3.665,0,5.497-0.957,5.497-2.871
		c0-0.475-0.154-0.867-0.463-1.175C174.422,245.651,174.009,245.498,173.492,245.498z"/>
	<path style="fill:#FFFFFF;" d="M184.229,253.185c0,1.021-0.365,1.834-1.095,2.44s-1.722,0.909-2.977,0.909
		c-1.227,0-2.307-0.266-3.243-0.797v-1.137c0.524,0.326,1.067,0.578,1.627,0.755c0.56,0.177,1.084,0.266,1.573,0.266
		c0.979,0,1.726-0.204,2.244-0.611c0.517-0.408,0.776-0.987,0.776-1.738c0-0.298-0.055-0.56-0.165-0.787
		c-0.11-0.227-0.287-0.444-0.532-0.654c-0.245-0.209-0.714-0.512-1.409-0.909c-1.049-0.567-1.758-1.083-2.126-1.547
		c-0.369-0.464-0.553-1.029-0.553-1.696c0-0.907,0.349-1.649,1.047-2.227c0.698-0.578,1.618-0.867,2.759-0.867
		c0.532,0,1.093,0.062,1.685,0.186s1.09,0.289,1.494,0.495l-0.372,0.936c-0.964-0.454-1.9-0.681-2.807-0.681
		c-0.822,0-1.481,0.188-1.978,0.563c-0.496,0.376-0.744,0.865-0.744,1.467c0,0.39,0.06,0.702,0.181,0.936s0.335,0.477,0.643,0.729
		c0.309,0.251,0.732,0.522,1.271,0.813c0.808,0.446,1.38,0.813,1.717,1.1c0.336,0.287,0.585,0.594,0.744,0.92
		C184.15,252.373,184.229,252.752,184.229,253.185z"/>
	<path style="fill:#FFFFFF;" d="M192.406,244.583c1.63,0,2.619,0.776,2.966,2.329h0.042c0.085-0.468,0.592-2.846,1.521-7.134h1.053
		l-3.509,16.543h-0.872l0.479-2.913h-0.064c-1.227,2.084-2.729,3.125-4.508,3.125c-1.992,0-2.988-1.325-2.988-3.976
		c0-1.368,0.253-2.679,0.76-3.934c0.507-1.254,1.207-2.241,2.1-2.961C190.279,244.943,191.286,244.583,192.406,244.583z
		 M189.758,255.577c0.631,0,1.264-0.222,1.898-0.665s1.202-1.039,1.701-1.786c0.5-0.748,0.877-1.566,1.132-2.456
		c0.255-0.89,0.383-1.632,0.383-2.228c0-0.893-0.218-1.607-0.654-2.142s-1.033-0.803-1.792-0.803c-0.879,0-1.673,0.294-2.382,0.882
		c-0.708,0.588-1.29,1.448-1.744,2.578c-0.454,1.131-0.68,2.292-0.68,3.482C187.622,254.531,188.334,255.577,189.758,255.577z"/>
	<path style="fill:#FFFFFF;" d="M204.452,244.583c1.645,0,2.633,0.776,2.966,2.329h0.064l0.627-2.148h0.851l-2.435,11.557h-0.872
		l0.479-2.913h-0.064c-0.595,1.006-1.258,1.779-1.988,2.318s-1.57,0.808-2.52,0.808c-1.992,0-2.988-1.325-2.988-3.976
		c0-1.396,0.266-2.729,0.797-3.998c0.532-1.269,1.242-2.249,2.132-2.94C202.391,244.929,203.375,244.583,204.452,244.583z
		 M201.804,255.577c0.631,0,1.26-0.22,1.887-0.659c0.627-0.439,1.191-1.028,1.691-1.765c0.5-0.737,0.88-1.552,1.143-2.445
		s0.394-1.648,0.394-2.265c0-0.56-0.092-1.062-0.276-1.504c-0.185-0.443-0.457-0.794-0.819-1.053
		c-0.361-0.258-0.812-0.388-1.35-0.388c-0.879,0-1.673,0.291-2.382,0.872c-0.708,0.582-1.29,1.451-1.744,2.61
		c-0.454,1.159-0.68,2.312-0.68,3.46c0,1.078,0.177,1.87,0.531,2.376S201.088,255.577,201.804,255.577z"/>
	<path style="fill:#FFFFFF;" d="M217.094,256.321l1.563-7.166c0.177-0.886,0.266-1.46,0.266-1.722c0-1.29-0.546-1.935-1.637-1.935
		c-0.751,0-1.46,0.239-2.126,0.717c-0.667,0.479-1.23,1.147-1.69,2.004c-0.461,0.857-0.815,1.875-1.063,3.051l-1.063,5.05H210.3
		l2.456-11.557h0.851l-0.351,2.233h0.064c0.567-0.801,1.21-1.403,1.93-1.808c0.719-0.404,1.473-0.606,2.259-0.606
		c0.751,0,1.329,0.237,1.733,0.712c0.404,0.475,0.617,1.166,0.638,2.073h0.063c0.546-0.915,1.187-1.607,1.924-2.079
		c0.737-0.471,1.524-0.707,2.36-0.707c0.83,0,1.476,0.218,1.94,0.654s0.696,1.062,0.696,1.876c0,0.206-0.009,0.406-0.026,0.601
		c-0.018,0.195-0.087,0.618-0.208,1.271l-1.616,7.336h-1.063l1.584-7.23c0.177-0.851,0.266-1.474,0.266-1.871
		c0-0.546-0.152-0.969-0.457-1.271c-0.305-0.301-0.727-0.452-1.265-0.452c-1.113,0-2.097,0.487-2.951,1.462
		s-1.451,2.259-1.792,3.854l-1.159,5.507H217.094z"/>
	<path style="fill:#FFFFFF;" d="M233.137,256.533c-1.226,0-2.183-0.388-2.871-1.164c-0.688-0.776-1.031-1.859-1.031-3.248
		c0-1.283,0.251-2.513,0.755-3.689c0.503-1.176,1.196-2.112,2.079-2.807s1.855-1.042,2.918-1.042c0.808,0,1.453,0.216,1.935,0.648
		c0.482,0.433,0.723,1.021,0.723,1.765c0,1.283-0.58,2.261-1.739,2.935c-1.159,0.673-2.879,1.01-5.162,1.01h-0.351
		c-0.042,0.312-0.063,0.659-0.063,1.042c0,1.169,0.262,2.061,0.787,2.674c0.524,0.613,1.279,0.92,2.265,0.92
		c0.936,0,1.914-0.259,2.935-0.776v1C235.324,256.289,234.264,256.533,233.137,256.533z M234.86,245.498
		c-0.929,0-1.792,0.409-2.589,1.228c-0.797,0.818-1.374,1.912-1.728,3.28h0.521c3.665,0,5.497-0.957,5.497-2.871
		c0-0.475-0.154-0.867-0.463-1.175C235.79,245.651,235.377,245.498,234.86,245.498z"/>
	<path style="fill:#FFFFFF;" d="M245.598,253.185c0,1.021-0.365,1.834-1.095,2.44s-1.722,0.909-2.977,0.909
		c-1.227,0-2.307-0.266-3.243-0.797v-1.137c0.524,0.326,1.067,0.578,1.627,0.755c0.56,0.177,1.084,0.266,1.573,0.266
		c0.979,0,1.726-0.204,2.244-0.611c0.517-0.408,0.776-0.987,0.776-1.738c0-0.298-0.055-0.56-0.165-0.787
		c-0.11-0.227-0.287-0.444-0.532-0.654c-0.245-0.209-0.714-0.512-1.409-0.909c-1.049-0.567-1.758-1.083-2.126-1.547
		c-0.369-0.464-0.553-1.029-0.553-1.696c0-0.907,0.349-1.649,1.047-2.227c0.698-0.578,1.618-0.867,2.759-0.867
		c0.532,0,1.093,0.062,1.685,0.186s1.09,0.289,1.494,0.495l-0.372,0.936c-0.964-0.454-1.9-0.681-2.807-0.681
		c-0.822,0-1.481,0.188-1.978,0.563c-0.496,0.376-0.744,0.865-0.744,1.467c0,0.39,0.06,0.702,0.181,0.936s0.335,0.477,0.643,0.729
		c0.309,0.251,0.732,0.522,1.271,0.813c0.808,0.446,1.38,0.813,1.717,1.1c0.336,0.287,0.585,0.594,0.744,0.92
		C245.519,252.373,245.598,252.752,245.598,253.185z"/>
	<path style="fill:#FFFFFF;" d="M249.468,253.791l0.085,0.244c-0.241,0.652-0.645,1.48-1.212,2.483
		c-0.567,1.003-1.134,1.873-1.701,2.61h-0.787c0.56-0.936,1.06-1.896,1.499-2.881c0.439-0.985,0.751-1.804,0.936-2.456H249.468z"/>
	<path style="fill:#FFFFFF;" d="M265.47,254.141l7.793-13.364h1.595l-3.2,15.544h-1.073l2.03-9.58c0.56-2.615,0.914-4.2,1.063-4.752
		h-0.063l-8.293,14.332h-0.543l-2.36-14.332h-0.063c-0.142,1.092-0.418,2.602-0.829,4.529l-2.084,9.803h-1.021l3.285-15.544h1.521
		l2.18,13.364H265.47z"/>
	<path style="fill:#FFFFFF;" d="M279.992,256.533c-1.227,0-2.184-0.388-2.87-1.164c-0.688-0.776-1.032-1.859-1.032-3.248
		c0-1.283,0.252-2.513,0.755-3.689c0.504-1.176,1.196-2.112,2.079-2.807s1.855-1.042,2.918-1.042c0.809,0,1.453,0.216,1.936,0.648
		c0.481,0.433,0.723,1.021,0.723,1.765c0,1.283-0.579,2.261-1.738,2.935c-1.158,0.673-2.879,1.01-5.162,1.01h-0.351
		c-0.042,0.312-0.063,0.659-0.063,1.042c0,1.169,0.262,2.061,0.787,2.674c0.524,0.613,1.279,0.92,2.265,0.92
		c0.936,0,1.913-0.259,2.934-0.776v1C282.179,256.289,281.119,256.533,279.992,256.533z M281.715,245.498
		c-0.929,0-1.792,0.409-2.589,1.228c-0.798,0.818-1.374,1.912-1.728,3.28h0.521c3.664,0,5.497-0.957,5.497-2.871
		c0-0.475-0.154-0.867-0.463-1.175C282.645,245.651,282.232,245.498,281.715,245.498z"/>
	<path style="fill:#FFFFFF;" d="M292.454,253.185c0,1.021-0.365,1.834-1.096,2.44c-0.729,0.606-1.723,0.909-2.977,0.909
		c-1.227,0-2.308-0.266-3.243-0.797v-1.137c0.524,0.326,1.066,0.578,1.627,0.755c0.56,0.177,1.084,0.266,1.573,0.266
		c0.979,0,1.727-0.204,2.243-0.611c0.518-0.408,0.776-0.987,0.776-1.738c0-0.298-0.055-0.56-0.165-0.787
		c-0.109-0.227-0.286-0.444-0.531-0.654c-0.244-0.209-0.714-0.512-1.408-0.909c-1.05-0.567-1.759-1.083-2.127-1.547
		c-0.368-0.464-0.553-1.029-0.553-1.696c0-0.907,0.349-1.649,1.047-2.227s1.618-0.867,2.76-0.867c0.531,0,1.093,0.062,1.685,0.186
		s1.09,0.289,1.494,0.495l-0.372,0.936c-0.964-0.454-1.899-0.681-2.807-0.681c-0.822,0-1.481,0.188-1.978,0.563
		c-0.497,0.376-0.745,0.865-0.745,1.467c0,0.39,0.061,0.702,0.182,0.936c0.12,0.234,0.334,0.477,0.643,0.729
		s0.732,0.522,1.271,0.813c0.809,0.446,1.381,0.813,1.718,1.1c0.336,0.287,0.584,0.594,0.744,0.92
		C292.374,252.373,292.454,252.752,292.454,253.185z"/>
	<path style="fill:#FFFFFF;" d="M301.247,253.185c0,1.021-0.365,1.834-1.096,2.44c-0.729,0.606-1.723,0.909-2.977,0.909
		c-1.227,0-2.308-0.266-3.243-0.797v-1.137c0.524,0.326,1.066,0.578,1.627,0.755c0.56,0.177,1.084,0.266,1.573,0.266
		c0.979,0,1.727-0.204,2.243-0.611c0.518-0.408,0.776-0.987,0.776-1.738c0-0.298-0.055-0.56-0.165-0.787
		c-0.109-0.227-0.286-0.444-0.531-0.654c-0.244-0.209-0.714-0.512-1.408-0.909c-1.05-0.567-1.759-1.083-2.127-1.547
		c-0.368-0.464-0.553-1.029-0.553-1.696c0-0.907,0.349-1.649,1.047-2.227s1.618-0.867,2.76-0.867c0.531,0,1.093,0.062,1.685,0.186
		s1.09,0.289,1.494,0.495l-0.372,0.936c-0.964-0.454-1.899-0.681-2.807-0.681c-0.822,0-1.481,0.188-1.978,0.563
		c-0.497,0.376-0.745,0.865-0.745,1.467c0,0.39,0.061,0.702,0.182,0.936c0.12,0.234,0.334,0.477,0.643,0.729
		s0.732,0.522,1.271,0.813c0.809,0.446,1.381,0.813,1.718,1.1c0.336,0.287,0.584,0.594,0.744,0.92
		C301.167,252.373,301.247,252.752,301.247,253.185z"/>
	<path style="fill:#FFFFFF;" d="M304.308,256.321h-1.042l2.456-11.557h1.021L304.308,256.321z M306.18,241.797
		c0-0.39,0.077-0.702,0.233-0.936s0.368-0.351,0.638-0.351c0.404,0,0.606,0.255,0.606,0.766c0,0.404-0.078,0.723-0.234,0.957
		c-0.155,0.234-0.357,0.351-0.605,0.351c-0.206,0-0.363-0.069-0.474-0.207C306.234,242.239,306.18,242.045,306.18,241.797z"/>
	<path style="fill:#FFFFFF;" d="M312.495,256.533c-1.227,0-2.184-0.388-2.87-1.164c-0.688-0.776-1.032-1.859-1.032-3.248
		c0-1.283,0.252-2.513,0.755-3.689c0.504-1.176,1.196-2.112,2.079-2.807s1.855-1.042,2.918-1.042c0.809,0,1.453,0.216,1.936,0.648
		c0.481,0.433,0.723,1.021,0.723,1.765c0,1.283-0.579,2.261-1.738,2.935c-1.158,0.673-2.879,1.01-5.162,1.01h-0.351
		c-0.042,0.312-0.063,0.659-0.063,1.042c0,1.169,0.262,2.061,0.787,2.674c0.524,0.613,1.279,0.92,2.265,0.92
		c0.936,0,1.913-0.259,2.934-0.776v1C314.682,256.289,313.622,256.533,312.495,256.533z M314.218,245.498
		c-0.929,0-1.792,0.409-2.589,1.228c-0.798,0.818-1.374,1.912-1.728,3.28h0.521c3.664,0,5.497-0.957,5.497-2.871
		c0-0.475-0.154-0.867-0.463-1.175C315.147,245.651,314.735,245.498,314.218,245.498z"/>
	<path style="fill:#FFFFFF;" d="M321.426,244.764l-1.616,7.421c-0.156,0.751-0.233,1.311-0.233,1.68c0,0.525,0.168,0.941,0.505,1.25
		c0.336,0.308,0.827,0.462,1.473,0.462c0.779,0,1.515-0.232,2.206-0.696c0.69-0.464,1.272-1.127,1.743-1.988
		c0.472-0.861,0.824-1.852,1.059-2.972l1.116-5.157h1.042l-2.456,11.557h-0.851l0.298-2.18h-0.064
		c-1.184,1.567-2.611,2.35-4.284,2.35c-0.929,0-1.632-0.219-2.11-0.659c-0.479-0.439-0.718-1.081-0.718-1.924
		c0-0.425,0.077-1.027,0.233-1.807l1.595-7.336H321.426z"/>
	<path style="fill:#FFFFFF;" d="M337.108,244.562c0.488,0,0.925,0.05,1.308,0.149l-0.224,0.989
		c-0.333-0.106-0.733-0.159-1.201-0.159c-0.666,0-1.301,0.227-1.903,0.68s-1.145,1.134-1.627,2.042
		c-0.481,0.907-0.836,1.889-1.062,2.945l-1.063,5.114h-1.042l2.456-11.557h0.851l-0.309,2.169h0.063
		c0.518-0.666,0.954-1.146,1.309-1.44c0.354-0.294,0.731-0.523,1.132-0.686S336.633,244.562,337.108,244.562z"/>
	<path style="fill:#FFFFFF;" d="M345.104,253.185c0,1.021-0.365,1.834-1.096,2.44c-0.729,0.606-1.723,0.909-2.977,0.909
		c-1.227,0-2.308-0.266-3.243-0.797v-1.137c0.524,0.326,1.066,0.578,1.627,0.755c0.56,0.177,1.084,0.266,1.573,0.266
		c0.979,0,1.727-0.204,2.243-0.611c0.518-0.408,0.776-0.987,0.776-1.738c0-0.298-0.055-0.56-0.165-0.787
		c-0.109-0.227-0.286-0.444-0.531-0.654c-0.244-0.209-0.714-0.512-1.408-0.909c-1.05-0.567-1.759-1.083-2.127-1.547
		c-0.368-0.464-0.553-1.029-0.553-1.696c0-0.907,0.349-1.649,1.047-2.227s1.618-0.867,2.76-0.867c0.531,0,1.093,0.062,1.685,0.186
		s1.09,0.289,1.494,0.495l-0.372,0.936c-0.964-0.454-1.899-0.681-2.807-0.681c-0.822,0-1.481,0.188-1.978,0.563
		c-0.497,0.376-0.745,0.865-0.745,1.467c0,0.39,0.061,0.702,0.182,0.936c0.12,0.234,0.334,0.477,0.643,0.729
		s0.732,0.522,1.271,0.813c0.809,0.446,1.381,0.813,1.718,1.1c0.336,0.287,0.584,0.594,0.744,0.92
		C345.023,252.373,345.104,252.752,345.104,253.185z"/>
	<path style="fill:#FFFFFF;" d="M348.974,253.791l0.085,0.244c-0.241,0.652-0.646,1.48-1.212,2.483
		c-0.567,1.003-1.135,1.873-1.701,2.61h-0.787c0.561-0.936,1.06-1.896,1.499-2.881c0.439-0.985,0.752-1.804,0.936-2.456H348.974z"/>
	<path style="fill:#FFFFFF;" d="M185.187,308.58h-1l3.551-16.543h0.999L185.187,308.58z"/>
	<path style="fill:#FFFFFF;" d="M193.331,293.036l-1.552,5.614h-0.648l0.851-5.614H193.331z"/>
	<path style="fill:#FFFFFF;" d="M197.701,308.792c-1.226,0-2.183-0.388-2.871-1.164c-0.688-0.776-1.031-1.859-1.031-3.248
		c0-1.283,0.251-2.513,0.755-3.689c0.503-1.176,1.196-2.112,2.079-2.807s1.855-1.042,2.918-1.042c0.808,0,1.453,0.216,1.935,0.648
		c0.482,0.433,0.723,1.021,0.723,1.765c0,1.283-0.58,2.261-1.739,2.935c-1.159,0.673-2.879,1.01-5.162,1.01h-0.351
		c-0.042,0.312-0.063,0.659-0.063,1.042c0,1.169,0.262,2.061,0.787,2.674c0.524,0.613,1.279,0.92,2.265,0.92
		c0.936,0,1.914-0.259,2.935-0.776v1C199.887,308.548,198.828,308.792,197.701,308.792z M199.423,297.756
		c-0.929,0-1.792,0.409-2.589,1.228c-0.797,0.818-1.374,1.912-1.728,3.28h0.521c3.665,0,5.497-0.957,5.497-2.871
		c0-0.475-0.154-0.867-0.463-1.175C200.354,297.91,199.94,297.756,199.423,297.756z"/>
	<path style="fill:#FFFFFF;" d="M207.28,303.444l-4.178,5.135h-1.287l5.008-5.943l-2.605-5.614h1.063l2.201,4.912l3.966-4.912h1.276
		l-4.763,5.678l2.743,5.879h-1.042L207.28,303.444z"/>
	<path style="fill:#FFFFFF;" d="M217.679,308.75c-1.63,0-2.619-0.776-2.966-2.328h-0.042c-0.092,0.51-0.621,2.973-1.584,7.389
		h-1.053l3.573-16.788h0.872l-0.479,2.913h0.064c0.645-1.084,1.338-1.878,2.079-2.381s1.55-0.755,2.429-0.755
		c0.957,0,1.694,0.328,2.211,0.983c0.518,0.656,0.776,1.657,0.776,3.003c0,1.382-0.255,2.697-0.766,3.945s-1.21,2.229-2.1,2.945
		C219.803,308.392,218.798,308.75,217.679,308.75z M220.336,297.756c-0.617,0-1.233,0.207-1.85,0.622
		c-0.617,0.415-1.189,1.009-1.717,1.781c-0.528,0.772-0.92,1.614-1.175,2.525c-0.255,0.911-0.383,1.65-0.383,2.217
		c0,0.886,0.218,1.597,0.654,2.132s1.033,0.803,1.792,0.803c0.879,0,1.676-0.298,2.392-0.893c0.716-0.596,1.297-1.458,1.744-2.589
		c0.447-1.131,0.67-2.284,0.67-3.461C222.463,298.802,221.754,297.756,220.336,297.756z"/>
	<path style="fill:#FFFFFF;" d="M232.181,296.82c0.489,0,0.925,0.05,1.308,0.149l-0.223,0.989c-0.333-0.106-0.733-0.159-1.201-0.159
		c-0.667,0-1.301,0.227-1.903,0.68s-1.145,1.134-1.626,2.042c-0.482,0.907-0.836,1.889-1.063,2.945l-1.063,5.114h-1.042
		l2.456-11.557h0.851l-0.309,2.169h0.064c0.517-0.666,0.953-1.146,1.308-1.44c0.354-0.294,0.732-0.523,1.132-0.686
		S231.706,296.82,232.181,296.82z"/>
	<path style="fill:#FFFFFF;" d="M237.582,308.792c-1.226,0-2.183-0.388-2.871-1.164c-0.688-0.776-1.031-1.859-1.031-3.248
		c0-1.283,0.251-2.513,0.755-3.689c0.503-1.176,1.196-2.112,2.079-2.807s1.855-1.042,2.918-1.042c0.808,0,1.453,0.216,1.935,0.648
		c0.482,0.433,0.723,1.021,0.723,1.765c0,1.283-0.58,2.261-1.739,2.935c-1.159,0.673-2.879,1.01-5.162,1.01h-0.351
		c-0.042,0.312-0.063,0.659-0.063,1.042c0,1.169,0.262,2.061,0.787,2.674c0.524,0.613,1.279,0.92,2.265,0.92
		c0.936,0,1.914-0.259,2.935-0.776v1C239.768,308.548,238.708,308.792,237.582,308.792z M239.304,297.756
		c-0.929,0-1.792,0.409-2.589,1.228c-0.797,0.818-1.374,1.912-1.728,3.28h0.521c3.665,0,5.497-0.957,5.497-2.871
		c0-0.475-0.154-0.867-0.463-1.175C240.234,297.91,239.821,297.756,239.304,297.756z"/>
	<path style="fill:#FFFFFF;" d="M250.042,305.443c0,1.021-0.365,1.834-1.095,2.44s-1.722,0.909-2.977,0.909
		c-1.227,0-2.307-0.266-3.243-0.797v-1.137c0.524,0.326,1.067,0.578,1.627,0.755c0.56,0.177,1.084,0.266,1.573,0.266
		c0.979,0,1.726-0.204,2.244-0.611c0.517-0.408,0.776-0.987,0.776-1.738c0-0.298-0.055-0.56-0.165-0.787
		c-0.11-0.227-0.287-0.444-0.532-0.654c-0.245-0.209-0.714-0.512-1.409-0.909c-1.049-0.567-1.758-1.083-2.126-1.547
		c-0.369-0.464-0.553-1.029-0.553-1.696c0-0.907,0.349-1.649,1.047-2.227c0.698-0.578,1.618-0.867,2.759-0.867
		c0.532,0,1.093,0.062,1.685,0.186s1.09,0.289,1.494,0.495l-0.372,0.936c-0.964-0.454-1.9-0.681-2.807-0.681
		c-0.822,0-1.481,0.188-1.978,0.563c-0.496,0.376-0.744,0.865-0.744,1.467c0,0.39,0.06,0.702,0.181,0.936s0.335,0.477,0.643,0.729
		c0.309,0.251,0.732,0.522,1.271,0.813c0.808,0.446,1.38,0.813,1.717,1.1c0.336,0.287,0.585,0.594,0.744,0.92
		C249.963,304.632,250.042,305.011,250.042,305.443z"/>
	<path style="fill:#FFFFFF;" d="M258.836,305.443c0,1.021-0.365,1.834-1.096,2.44c-0.729,0.606-1.723,0.909-2.977,0.909
		c-1.227,0-2.308-0.266-3.243-0.797v-1.137c0.524,0.326,1.066,0.578,1.627,0.755c0.56,0.177,1.084,0.266,1.573,0.266
		c0.979,0,1.727-0.204,2.243-0.611c0.518-0.408,0.776-0.987,0.776-1.738c0-0.298-0.055-0.56-0.165-0.787
		c-0.109-0.227-0.286-0.444-0.531-0.654c-0.244-0.209-0.714-0.512-1.408-0.909c-1.05-0.567-1.759-1.083-2.127-1.547
		c-0.368-0.464-0.553-1.029-0.553-1.696c0-0.907,0.349-1.649,1.047-2.227s1.618-0.867,2.76-0.867c0.531,0,1.093,0.062,1.685,0.186
		s1.09,0.289,1.494,0.495l-0.372,0.936c-0.964-0.454-1.899-0.681-2.807-0.681c-0.822,0-1.481,0.188-1.978,0.563
		c-0.497,0.376-0.745,0.865-0.745,1.467c0,0.39,0.061,0.702,0.182,0.936c0.12,0.234,0.334,0.477,0.643,0.729
		s0.732,0.522,1.271,0.813c0.809,0.446,1.381,0.813,1.718,1.1c0.336,0.287,0.584,0.594,0.744,0.92
		C258.756,304.632,258.836,305.011,258.836,305.443z"/>
	<path style="fill:#FFFFFF;" d="M261.896,308.58h-1.042l2.456-11.557h1.021L261.896,308.58z M263.769,294.056
		c0-0.39,0.077-0.702,0.233-0.936s0.368-0.351,0.638-0.351c0.404,0,0.606,0.255,0.606,0.766c0,0.404-0.078,0.723-0.234,0.957
		c-0.155,0.234-0.357,0.351-0.605,0.351c-0.206,0-0.363-0.069-0.474-0.207C263.823,294.498,263.769,294.304,263.769,294.056z"/>
	<path style="fill:#FFFFFF;" d="M271.998,296.799c1.275,0,2.263,0.384,2.961,1.153c0.698,0.77,1.047,1.831,1.047,3.185
		c0,1.396-0.253,2.702-0.76,3.918s-1.2,2.142-2.079,2.78c-0.879,0.638-1.893,0.957-3.04,0.957c-1.305,0-2.295-0.388-2.972-1.164
		c-0.678-0.776-1.016-1.887-1.016-3.333c0-1.354,0.259-2.623,0.776-3.806c0.517-1.184,1.215-2.095,2.095-2.732
		C269.889,297.118,270.885,296.799,271.998,296.799z M271.913,297.713c-0.879,0-1.67,0.278-2.371,0.835
		c-0.702,0.557-1.262,1.354-1.68,2.392c-0.419,1.039-0.628,2.139-0.628,3.301c0,2.424,1,3.636,2.999,3.636
		c0.899,0,1.699-0.275,2.397-0.824c0.697-0.549,1.254-1.357,1.669-2.424s0.622-2.238,0.622-3.514c0-1.091-0.259-1.931-0.776-2.52
		S272.884,297.713,271.913,297.713z"/>
	<path style="fill:#FFFFFF;" d="M285.171,308.58l1.584-7.357c0.148-0.652,0.224-1.205,0.224-1.659c0-0.567-0.154-1.01-0.463-1.329
		c-0.309-0.319-0.785-0.478-1.43-0.478c-0.794,0-1.54,0.237-2.238,0.712c-0.698,0.475-1.286,1.14-1.765,1.994
		c-0.479,0.854-0.846,1.87-1.101,3.046l-1.085,5.071h-1.042l2.456-11.557h0.872l-0.394,2.35h0.064
		c1.162-1.687,2.637-2.53,4.423-2.53c0.921,0,1.612,0.227,2.073,0.681c0.46,0.454,0.69,1.105,0.69,1.956
		c0,0.496-0.085,1.141-0.255,1.935l-1.573,7.166H285.171z"/>
	<path style="fill:#FFFFFF;" d="M301.82,296.842c1.63,0,2.619,0.776,2.967,2.329h0.042c0.085-0.468,0.592-2.846,1.521-7.134h1.053
		l-3.509,16.543h-0.872l0.479-2.913h-0.063c-1.227,2.084-2.729,3.125-4.508,3.125c-1.992,0-2.988-1.325-2.988-3.976
		c0-1.368,0.254-2.679,0.761-3.934c0.507-1.254,1.207-2.241,2.1-2.961C299.694,297.202,300.7,296.842,301.82,296.842z
		 M299.173,307.835c0.631,0,1.264-0.222,1.898-0.665c0.634-0.443,1.201-1.039,1.701-1.786c0.499-0.748,0.877-1.566,1.132-2.456
		s0.383-1.632,0.383-2.228c0-0.893-0.218-1.607-0.654-2.142c-0.436-0.535-1.033-0.803-1.791-0.803c-0.879,0-1.673,0.294-2.382,0.882
		s-1.29,1.448-1.743,2.578c-0.454,1.131-0.681,2.292-0.681,3.482C297.036,306.79,297.748,307.835,299.173,307.835z"/>
	<path style="fill:#FFFFFF;" d="M311.889,308.792c-1.227,0-2.184-0.388-2.87-1.164c-0.688-0.776-1.032-1.859-1.032-3.248
		c0-1.283,0.252-2.513,0.755-3.689c0.504-1.176,1.196-2.112,2.079-2.807s1.855-1.042,2.918-1.042c0.809,0,1.453,0.216,1.936,0.648
		c0.481,0.433,0.723,1.021,0.723,1.765c0,1.283-0.579,2.261-1.738,2.935c-1.158,0.673-2.879,1.01-5.162,1.01h-0.351
		c-0.042,0.312-0.063,0.659-0.063,1.042c0,1.169,0.262,2.061,0.787,2.674c0.524,0.613,1.279,0.92,2.265,0.92
		c0.936,0,1.913-0.259,2.934-0.776v1C314.075,308.548,313.016,308.792,311.889,308.792z M313.611,297.756
		c-0.929,0-1.792,0.409-2.589,1.228c-0.798,0.818-1.374,1.912-1.728,3.28h0.521c3.664,0,5.497-0.957,5.497-2.871
		c0-0.475-0.154-0.867-0.463-1.175C314.541,297.91,314.129,297.756,313.611,297.756z"/>
	<path style="fill:#FFFFFF;" d="M147.624,334.709l1.584-7.357c0.149-0.652,0.223-1.205,0.223-1.659c0-0.567-0.154-1.01-0.462-1.329
		c-0.308-0.319-0.785-0.478-1.43-0.478c-0.794,0-1.54,0.237-2.238,0.712c-0.698,0.475-1.287,1.14-1.765,1.994
		c-0.478,0.854-0.845,1.87-1.1,3.046l-1.084,5.071h-1.042l2.456-11.557h0.872l-0.393,2.35h0.063c1.163-1.687,2.637-2.53,4.423-2.53
		c0.921,0,1.613,0.227,2.073,0.681c0.461,0.454,0.691,1.105,0.691,1.956c0,0.496-0.085,1.141-0.255,1.935l-1.573,7.166H147.624z"/>
	<path style="fill:#FFFFFF;" d="M158.554,322.929c1.276,0,2.263,0.384,2.961,1.153c0.698,0.77,1.047,1.831,1.047,3.185
		c0,1.396-0.254,2.702-0.76,3.918c-0.507,1.216-1.2,2.142-2.079,2.78c-0.879,0.638-1.893,0.957-3.041,0.957
		c-1.304,0-2.295-0.389-2.972-1.164c-0.677-0.776-1.015-1.888-1.015-3.333c0-1.354,0.259-2.623,0.776-3.806
		c0.518-1.184,1.216-2.095,2.095-2.732C156.445,323.248,157.44,322.929,158.554,322.929z M158.468,323.843
		c-0.879,0-1.669,0.278-2.371,0.835s-1.262,1.354-1.68,2.392c-0.418,1.039-0.627,2.139-0.627,3.301c0,2.424,0.999,3.636,2.998,3.636
		c0.9,0,1.699-0.274,2.397-0.823c0.698-0.549,1.255-1.357,1.669-2.424s0.622-2.238,0.622-3.514c0-1.091-0.259-1.931-0.776-2.52
		S159.439,323.843,158.468,323.843z"/>
	<path style="fill:#FFFFFF;" d="M171.185,331.573c0,1.021-0.365,1.833-1.095,2.44c-0.73,0.605-1.722,0.909-2.977,0.909
		c-1.227,0-2.307-0.266-3.243-0.798v-1.137c0.524,0.326,1.067,0.578,1.627,0.754c0.56,0.178,1.084,0.266,1.573,0.266
		c0.979,0,1.726-0.203,2.244-0.61c0.517-0.408,0.776-0.987,0.776-1.739c0-0.298-0.055-0.56-0.165-0.787
		c-0.11-0.227-0.287-0.444-0.532-0.654c-0.245-0.209-0.714-0.512-1.409-0.909c-1.049-0.567-1.758-1.083-2.126-1.547
		c-0.369-0.464-0.553-1.029-0.553-1.696c0-0.907,0.349-1.649,1.047-2.227c0.698-0.578,1.618-0.867,2.759-0.867
		c0.532,0,1.093,0.062,1.685,0.186s1.09,0.289,1.494,0.495l-0.372,0.936c-0.964-0.454-1.9-0.681-2.807-0.681
		c-0.822,0-1.481,0.188-1.978,0.563c-0.496,0.376-0.744,0.865-0.744,1.467c0,0.39,0.06,0.702,0.181,0.936s0.335,0.477,0.643,0.729
		c0.309,0.251,0.732,0.522,1.271,0.813c0.808,0.446,1.38,0.813,1.717,1.1c0.336,0.287,0.585,0.594,0.744,0.92
		C171.105,330.761,171.185,331.14,171.185,331.573z"/>
	<path style="fill:#FFFFFF;" d="M183.039,334.922c-1.226,0-2.183-0.389-2.871-1.164c-0.688-0.776-1.031-1.859-1.031-3.249
		c0-1.283,0.251-2.513,0.755-3.689c0.503-1.176,1.196-2.112,2.079-2.807s1.855-1.042,2.918-1.042c0.808,0,1.453,0.216,1.935,0.648
		c0.482,0.433,0.723,1.021,0.723,1.765c0,1.283-0.58,2.261-1.739,2.935c-1.159,0.673-2.879,1.01-5.162,1.01h-0.351
		c-0.042,0.312-0.063,0.659-0.063,1.042c0,1.169,0.262,2.061,0.787,2.674c0.524,0.613,1.279,0.92,2.265,0.92
		c0.936,0,1.914-0.259,2.935-0.776v1C185.226,334.677,184.166,334.922,183.039,334.922z M184.762,323.886
		c-0.929,0-1.792,0.409-2.589,1.228c-0.797,0.818-1.374,1.912-1.728,3.28h0.521c3.665,0,5.497-0.957,5.497-2.871
		c0-0.475-0.154-0.867-0.463-1.175C185.692,324.04,185.279,323.886,184.762,323.886z"/>
	<path style="fill:#FFFFFF;" d="M195.5,331.573c0,1.021-0.365,1.833-1.095,2.44c-0.73,0.605-1.722,0.909-2.977,0.909
		c-1.227,0-2.307-0.266-3.243-0.798v-1.137c0.524,0.326,1.067,0.578,1.627,0.754c0.56,0.178,1.084,0.266,1.573,0.266
		c0.979,0,1.726-0.203,2.244-0.61c0.517-0.408,0.776-0.987,0.776-1.739c0-0.298-0.055-0.56-0.165-0.787
		c-0.11-0.227-0.287-0.444-0.532-0.654c-0.245-0.209-0.714-0.512-1.409-0.909c-1.049-0.567-1.758-1.083-2.126-1.547
		c-0.369-0.464-0.553-1.029-0.553-1.696c0-0.907,0.349-1.649,1.047-2.227c0.698-0.578,1.618-0.867,2.759-0.867
		c0.532,0,1.093,0.062,1.685,0.186s1.09,0.289,1.494,0.495l-0.372,0.936c-0.964-0.454-1.9-0.681-2.807-0.681
		c-0.822,0-1.481,0.188-1.978,0.563c-0.496,0.376-0.744,0.865-0.744,1.467c0,0.39,0.06,0.702,0.181,0.936s0.335,0.477,0.643,0.729
		c0.309,0.251,0.732,0.522,1.271,0.813c0.808,0.446,1.38,0.813,1.717,1.1c0.336,0.287,0.585,0.594,0.744,0.92
		C195.42,330.761,195.5,331.14,195.5,331.573z"/>
	<path style="fill:#FFFFFF;" d="M202.007,334.879c-1.63,0-2.619-0.776-2.966-2.328h-0.042c-0.092,0.51-0.621,2.974-1.584,7.39
		h-1.053l3.573-16.789h0.872l-0.479,2.913h0.064c0.645-1.084,1.338-1.878,2.079-2.381s1.55-0.755,2.429-0.755
		c0.957,0,1.694,0.328,2.211,0.983c0.518,0.656,0.776,1.657,0.776,3.003c0,1.382-0.255,2.697-0.766,3.945s-1.21,2.229-2.1,2.945
		C204.131,334.521,203.126,334.879,202.007,334.879z M204.665,323.886c-0.617,0-1.233,0.207-1.85,0.622
		c-0.617,0.415-1.189,1.009-1.717,1.781c-0.528,0.772-0.92,1.614-1.175,2.525c-0.255,0.911-0.383,1.65-0.383,2.217
		c0,0.886,0.218,1.597,0.654,2.132s1.033,0.803,1.792,0.803c0.879,0,1.676-0.298,2.392-0.893c0.716-0.596,1.297-1.459,1.744-2.589
		c0.447-1.131,0.67-2.284,0.67-3.461C206.791,324.931,206.082,323.886,204.665,323.886z"/>
	<path style="fill:#FFFFFF;" d="M215.829,322.929c1.276,0,2.263,0.384,2.961,1.153c0.698,0.77,1.047,1.831,1.047,3.185
		c0,1.396-0.254,2.702-0.76,3.918c-0.507,1.216-1.2,2.142-2.079,2.78c-0.879,0.638-1.893,0.957-3.041,0.957
		c-1.304,0-2.295-0.389-2.972-1.164c-0.677-0.776-1.015-1.888-1.015-3.333c0-1.354,0.259-2.623,0.776-3.806
		c0.518-1.184,1.216-2.095,2.095-2.732C213.72,323.248,214.715,322.929,215.829,322.929z M215.743,323.843
		c-0.879,0-1.669,0.278-2.371,0.835s-1.262,1.354-1.68,2.392c-0.418,1.039-0.627,2.139-0.627,3.301c0,2.424,0.999,3.636,2.998,3.636
		c0.9,0,1.699-0.274,2.397-0.823c0.698-0.549,1.255-1.357,1.669-2.424s0.622-2.238,0.622-3.514c0-1.091-0.259-1.931-0.776-2.52
		S216.714,323.843,215.743,323.843z"/>
	<path style="fill:#FFFFFF;" d="M222.729,334.709h-1.042l2.456-11.557h1.021L222.729,334.709z M224.6,320.186
		c0-0.39,0.078-0.702,0.234-0.936s0.369-0.351,0.638-0.351c0.404,0,0.606,0.255,0.606,0.766c0,0.404-0.078,0.723-0.234,0.957
		c-0.156,0.234-0.358,0.351-0.606,0.351c-0.206,0-0.364-0.069-0.473-0.207C224.655,320.627,224.6,320.434,224.6,320.186z"/>
	<path style="fill:#FFFFFF;" d="M233.51,322.95c0.489,0,0.925,0.05,1.308,0.149l-0.223,0.989c-0.333-0.106-0.733-0.159-1.201-0.159
		c-0.667,0-1.301,0.227-1.903,0.68s-1.145,1.134-1.626,2.042c-0.482,0.907-0.836,1.889-1.063,2.945l-1.063,5.114h-1.042
		l2.456-11.557h0.851l-0.309,2.169h0.064c0.517-0.666,0.953-1.146,1.308-1.44c0.354-0.294,0.732-0.523,1.132-0.686
		S233.035,322.95,233.51,322.95z"/>
	<path style="fill:#FFFFFF;" d="M241.505,331.573c0,1.021-0.365,1.833-1.095,2.44c-0.73,0.605-1.722,0.909-2.977,0.909
		c-1.227,0-2.307-0.266-3.243-0.798v-1.137c0.524,0.326,1.067,0.578,1.627,0.754c0.56,0.178,1.084,0.266,1.573,0.266
		c0.979,0,1.726-0.203,2.244-0.61c0.517-0.408,0.776-0.987,0.776-1.739c0-0.298-0.055-0.56-0.165-0.787
		c-0.11-0.227-0.287-0.444-0.532-0.654c-0.245-0.209-0.714-0.512-1.409-0.909c-1.049-0.567-1.758-1.083-2.126-1.547
		c-0.369-0.464-0.553-1.029-0.553-1.696c0-0.907,0.349-1.649,1.047-2.227c0.698-0.578,1.618-0.867,2.759-0.867
		c0.532,0,1.093,0.062,1.685,0.186s1.09,0.289,1.494,0.495l-0.372,0.936c-0.964-0.454-1.9-0.681-2.807-0.681
		c-0.822,0-1.481,0.188-1.978,0.563c-0.496,0.376-0.744,0.865-0.744,1.467c0,0.39,0.06,0.702,0.181,0.936s0.335,0.477,0.643,0.729
		c0.309,0.251,0.732,0.522,1.271,0.813c0.808,0.446,1.38,0.813,1.717,1.1c0.336,0.287,0.585,0.594,0.744,0.92
		C241.425,330.761,241.505,331.14,241.505,331.573z"/>
	<path style="fill:#FFFFFF;" d="M250.181,334.709h-1l3.551-16.543h1L250.181,334.709z"/>
	<path style="fill:#FFFFFF;" d="M258.41,334.922c-1.227,0-2.184-0.389-2.87-1.164c-0.688-0.776-1.032-1.859-1.032-3.249
		c0-1.283,0.252-2.513,0.755-3.689c0.504-1.176,1.196-2.112,2.079-2.807s1.855-1.042,2.918-1.042c0.809,0,1.453,0.216,1.936,0.648
		c0.481,0.433,0.723,1.021,0.723,1.765c0,1.283-0.579,2.261-1.738,2.935c-1.158,0.673-2.879,1.01-5.162,1.01h-0.351
		c-0.042,0.312-0.063,0.659-0.063,1.042c0,1.169,0.262,2.061,0.787,2.674c0.524,0.613,1.279,0.92,2.265,0.92
		c0.936,0,1.913-0.259,2.934-0.776v1C260.597,334.677,259.537,334.922,258.41,334.922z M260.133,323.886
		c-0.929,0-1.792,0.409-2.589,1.228c-0.798,0.818-1.374,1.912-1.728,3.28h0.521c3.664,0,5.497-0.957,5.497-2.871
		c0-0.475-0.154-0.867-0.463-1.175C261.062,324.04,260.65,323.886,260.133,323.886z"/>
	<path style="fill:#FFFFFF;" d="M270.871,331.573c0,1.021-0.365,1.833-1.096,2.44c-0.729,0.605-1.723,0.909-2.977,0.909
		c-1.227,0-2.308-0.266-3.243-0.798v-1.137c0.524,0.326,1.066,0.578,1.627,0.754c0.56,0.178,1.084,0.266,1.573,0.266
		c0.979,0,1.727-0.203,2.243-0.61c0.518-0.408,0.776-0.987,0.776-1.739c0-0.298-0.055-0.56-0.165-0.787
		c-0.109-0.227-0.286-0.444-0.531-0.654c-0.244-0.209-0.714-0.512-1.408-0.909c-1.05-0.567-1.759-1.083-2.127-1.547
		c-0.368-0.464-0.553-1.029-0.553-1.696c0-0.907,0.349-1.649,1.047-2.227s1.618-0.867,2.76-0.867c0.531,0,1.093,0.062,1.685,0.186
		s1.09,0.289,1.494,0.495l-0.372,0.936c-0.964-0.454-1.899-0.681-2.807-0.681c-0.822,0-1.481,0.188-1.978,0.563
		c-0.497,0.376-0.745,0.865-0.745,1.467c0,0.39,0.061,0.702,0.182,0.936c0.12,0.234,0.334,0.477,0.643,0.729
		s0.732,0.522,1.271,0.813c0.809,0.446,1.381,0.813,1.718,1.1c0.336,0.287,0.584,0.594,0.744,0.92
		C270.791,330.761,270.871,331.14,270.871,331.573z"/>
	<path style="fill:#FFFFFF;" d="M283.034,334.879c-1.631,0-2.619-0.776-2.967-2.328h-0.042c-0.093,0.51-0.62,2.974-1.584,7.39
		h-1.053l3.572-16.789h0.872l-0.479,2.913h0.063c0.645-1.084,1.338-1.878,2.078-2.381c0.741-0.503,1.551-0.755,2.43-0.755
		c0.957,0,1.694,0.328,2.212,0.983c0.517,0.656,0.775,1.657,0.775,3.003c0,1.382-0.255,2.697-0.765,3.945
		c-0.511,1.248-1.211,2.229-2.101,2.945S284.154,334.879,283.034,334.879z M285.692,323.886c-0.617,0-1.233,0.207-1.851,0.622
		c-0.616,0.415-1.188,1.009-1.717,1.781s-0.92,1.614-1.175,2.525c-0.255,0.911-0.383,1.65-0.383,2.217
		c0,0.886,0.218,1.597,0.654,2.132c0.436,0.535,1.032,0.803,1.791,0.803c0.879,0,1.677-0.298,2.393-0.893
		c0.716-0.596,1.297-1.459,1.743-2.589c0.446-1.131,0.67-2.284,0.67-3.461C287.818,324.931,287.109,323.886,285.692,323.886z"/>
	<path style="fill:#FFFFFF;" d="M291.763,334.709h-1l3.552-16.543h0.999L291.763,334.709z"/>
	<path style="fill:#FFFFFF;" d="M299.057,323.152l-1.616,7.421c-0.156,0.751-0.233,1.311-0.233,1.68c0,0.525,0.168,0.94,0.505,1.249
		c0.336,0.309,0.827,0.463,1.473,0.463c0.779,0,1.515-0.232,2.206-0.696c0.69-0.464,1.272-1.127,1.743-1.988
		c0.472-0.861,0.824-1.852,1.059-2.972l1.116-5.157h1.042l-2.456,11.557h-0.851l0.298-2.18h-0.064
		c-1.184,1.566-2.611,2.35-4.284,2.35c-0.929,0-1.632-0.22-2.11-0.659s-0.718-1.081-0.718-1.924c0-0.425,0.077-1.027,0.233-1.807
		l1.595-7.336H299.057z"/>
	<path style="fill:#FFFFFF;" d="M314.739,331.573c0,1.021-0.365,1.833-1.096,2.44c-0.729,0.605-1.723,0.909-2.977,0.909
		c-1.227,0-2.308-0.266-3.243-0.798v-1.137c0.524,0.326,1.066,0.578,1.627,0.754c0.56,0.178,1.084,0.266,1.573,0.266
		c0.979,0,1.727-0.203,2.243-0.61c0.518-0.408,0.776-0.987,0.776-1.739c0-0.298-0.055-0.56-0.165-0.787
		c-0.109-0.227-0.286-0.444-0.531-0.654c-0.244-0.209-0.714-0.512-1.408-0.909c-1.05-0.567-1.759-1.083-2.127-1.547
		c-0.368-0.464-0.553-1.029-0.553-1.696c0-0.907,0.349-1.649,1.047-2.227s1.618-0.867,2.76-0.867c0.531,0,1.093,0.062,1.685,0.186
		s1.09,0.289,1.494,0.495l-0.372,0.936c-0.964-0.454-1.899-0.681-2.807-0.681c-0.822,0-1.481,0.188-1.978,0.563
		c-0.497,0.376-0.745,0.865-0.745,1.467c0,0.39,0.061,0.702,0.182,0.936c0.12,0.234,0.334,0.477,0.643,0.729
		s0.732,0.522,1.271,0.813c0.809,0.446,1.381,0.813,1.718,1.1c0.336,0.287,0.584,0.594,0.744,0.92
		C314.659,330.761,314.739,331.14,314.739,331.573z"/>
	<path style="fill:#FFFFFF;" d="M320.215,339.94c-0.341,0-0.702-0.068-1.085-0.202v-0.957c0.376,0.113,0.73,0.17,1.063,0.17
		c0.624,0,1.099-0.188,1.425-0.563s0.592-1.035,0.797-1.978l2.616-12.397h-2.18l0.148-0.712l2.18-0.149l0.372-1.701
		c0.248-1.191,0.661-2.055,1.239-2.594c0.577-0.539,1.384-0.808,2.418-0.808c0.518,0,1.106,0.11,1.766,0.33l-0.267,0.851
		c-0.616-0.191-1.137-0.287-1.562-0.287c-0.681,0-1.225,0.19-1.632,0.569c-0.408,0.379-0.707,1.012-0.898,1.898l-0.372,1.744h2.637
		l-0.17,0.861h-2.637l-2.68,12.652c-0.233,1.142-0.603,1.973-1.105,2.493C321.784,339.68,321.094,339.94,320.215,339.94z"/>
	<path style="fill:#FFFFFF;" d="M334.652,322.929c1.275,0,2.263,0.384,2.961,1.153c0.698,0.77,1.047,1.831,1.047,3.185
		c0,1.396-0.253,2.702-0.76,3.918s-1.2,2.142-2.079,2.78c-0.879,0.638-1.893,0.957-3.04,0.957c-1.305,0-2.295-0.389-2.972-1.164
		c-0.678-0.776-1.016-1.888-1.016-3.333c0-1.354,0.259-2.623,0.776-3.806c0.517-1.184,1.215-2.095,2.095-2.732
		C332.543,323.248,333.539,322.929,334.652,322.929z M334.567,323.843c-0.879,0-1.67,0.278-2.371,0.835
		c-0.702,0.557-1.262,1.354-1.68,2.392c-0.419,1.039-0.628,2.139-0.628,3.301c0,2.424,1,3.636,2.999,3.636
		c0.899,0,1.699-0.274,2.397-0.823c0.697-0.549,1.254-1.357,1.669-2.424s0.622-2.238,0.622-3.514c0-1.091-0.259-1.931-0.776-2.52
		S335.538,323.843,334.567,323.843z"/>
	<path style="fill:#FFFFFF;" d="M343.754,323.152l-1.616,7.421c-0.156,0.751-0.233,1.311-0.233,1.68c0,0.525,0.168,0.94,0.505,1.249
		c0.336,0.309,0.827,0.463,1.473,0.463c0.779,0,1.515-0.232,2.206-0.696c0.69-0.464,1.272-1.127,1.743-1.988
		c0.472-0.861,0.824-1.852,1.059-2.972l1.116-5.157h1.042l-2.456,11.557h-0.851l0.298-2.18h-0.064
		c-1.184,1.566-2.611,2.35-4.284,2.35c-0.929,0-1.632-0.22-2.11-0.659s-0.718-1.081-0.718-1.924c0-0.425,0.077-1.027,0.233-1.807
		l1.595-7.336H343.754z"/>
	<path style="fill:#FFFFFF;" d="M359.437,331.573c0,1.021-0.365,1.833-1.096,2.44c-0.729,0.605-1.723,0.909-2.977,0.909
		c-1.227,0-2.308-0.266-3.243-0.798v-1.137c0.524,0.326,1.066,0.578,1.627,0.754c0.56,0.178,1.084,0.266,1.573,0.266
		c0.979,0,1.727-0.203,2.243-0.61c0.518-0.408,0.776-0.987,0.776-1.739c0-0.298-0.055-0.56-0.165-0.787
		c-0.109-0.227-0.286-0.444-0.531-0.654c-0.244-0.209-0.714-0.512-1.408-0.909c-1.05-0.567-1.759-1.083-2.127-1.547
		c-0.368-0.464-0.553-1.029-0.553-1.696c0-0.907,0.349-1.649,1.047-2.227s1.618-0.867,2.76-0.867c0.531,0,1.093,0.062,1.685,0.186
		s1.09,0.289,1.494,0.495l-0.372,0.936c-0.964-0.454-1.899-0.681-2.807-0.681c-0.822,0-1.481,0.188-1.978,0.563
		c-0.497,0.376-0.745,0.865-0.745,1.467c0,0.39,0.061,0.702,0.182,0.936c0.12,0.234,0.334,0.477,0.643,0.729
		s0.732,0.522,1.271,0.813c0.809,0.446,1.381,0.813,1.718,1.1c0.336,0.287,0.584,0.594,0.744,0.92
		C359.356,330.761,359.437,331.14,359.437,331.573z"/>
</g>
<g>
	<path style="fill:#808285;" d="M109.038,434.058c0-2.431,0.432-4.674,1.297-6.729s2.218-4.037,4.062-5.943h1.116
		c-1.836,1.956-3.199,3.97-4.088,6.039c-0.89,2.069-1.334,4.26-1.334,6.57c0,2.247,0.45,4.373,1.351,6.379h-0.851
		C109.555,438.517,109.038,436.411,109.038,434.058z"/>
	<path style="fill:#808285;" d="M126.761,433.792c0,1.021-0.365,1.834-1.095,2.44c-0.73,0.605-1.722,0.909-2.977,0.909
		c-1.227,0-2.307-0.266-3.243-0.798v-1.138c0.524,0.326,1.067,0.578,1.627,0.755c0.56,0.178,1.084,0.266,1.573,0.266
		c0.979,0,1.726-0.203,2.244-0.611c0.517-0.407,0.776-0.986,0.776-1.738c0-0.297-0.055-0.56-0.165-0.786
		c-0.11-0.228-0.287-0.445-0.532-0.654s-0.714-0.512-1.409-0.909c-1.049-0.566-1.758-1.082-2.126-1.547
		c-0.369-0.464-0.553-1.029-0.553-1.695c0-0.907,0.349-1.65,1.047-2.228c0.698-0.578,1.618-0.867,2.759-0.867
		c0.532,0,1.093,0.062,1.685,0.187s1.09,0.289,1.494,0.494l-0.372,0.936c-0.964-0.453-1.9-0.68-2.807-0.68
		c-0.822,0-1.481,0.188-1.978,0.563c-0.496,0.375-0.744,0.864-0.744,1.467c0,0.39,0.06,0.702,0.181,0.936
		c0.121,0.234,0.335,0.477,0.643,0.729c0.309,0.252,0.732,0.522,1.271,0.813c0.808,0.446,1.38,0.813,1.717,1.101
		c0.336,0.287,0.585,0.594,0.744,0.919C126.682,432.98,126.761,433.36,126.761,433.792z"/>
	<path style="fill:#808285;" d="M132.96,437.142c-1.226,0-2.183-0.389-2.871-1.164c-0.688-0.776-1.031-1.859-1.031-3.248
		c0-1.283,0.251-2.513,0.755-3.689s1.196-2.112,2.079-2.808c0.882-0.694,1.855-1.042,2.918-1.042c0.808,0,1.453,0.217,1.935,0.649
		c0.482,0.432,0.723,1.021,0.723,1.765c0,1.283-0.58,2.261-1.739,2.935c-1.159,0.673-2.879,1.01-5.162,1.01h-0.351
		c-0.042,0.312-0.063,0.659-0.063,1.042c0,1.17,0.262,2.061,0.787,2.674s1.279,0.92,2.265,0.92c0.936,0,1.914-0.259,2.935-0.776v1
		C135.146,436.896,134.087,437.142,132.96,437.142z M134.683,426.105c-0.929,0-1.792,0.409-2.589,1.228
		c-0.797,0.819-1.374,1.912-1.728,3.28h0.521c3.665,0,5.497-0.957,5.497-2.871c0-0.475-0.154-0.866-0.463-1.175
		C135.613,426.26,135.2,426.105,134.683,426.105z"/>
	<path style="fill:#808285;" d="M141.891,425.372l-1.616,7.421c-0.156,0.751-0.234,1.312-0.234,1.68
		c0,0.524,0.168,0.941,0.505,1.249c0.336,0.309,0.827,0.463,1.472,0.463c0.78,0,1.515-0.232,2.207-0.696
		c0.691-0.465,1.272-1.127,1.744-1.988c0.471-0.861,0.824-1.852,1.058-2.972l1.116-5.156h1.042l-2.456,11.557h-0.85l0.297-2.18
		h-0.063c-1.184,1.566-2.612,2.35-4.285,2.35c-0.928,0-1.632-0.22-2.11-0.659s-0.718-1.081-0.718-1.924
		c0-0.426,0.078-1.028,0.234-1.808l1.595-7.336H141.891z"/>
	<path style="fill:#808285;" d="M151.8,436.929h-1l3.551-16.544h0.999L151.8,436.929z"/>
	<path style="fill:#808285;" d="M157.701,434.398l0.085,0.244c-0.241,0.652-0.645,1.479-1.212,2.482
		c-0.567,1.003-1.134,1.873-1.701,2.61h-0.787c0.56-0.936,1.06-1.896,1.499-2.881s0.751-1.804,0.936-2.456H157.701z"/>
	<path style="fill:#808285;" d="M173.617,436.929l1.584-7.357c0.149-0.652,0.223-1.205,0.223-1.658c0-0.567-0.154-1.011-0.462-1.329
		c-0.308-0.319-0.785-0.479-1.43-0.479c-0.794,0-1.54,0.237-2.238,0.712c-0.698,0.476-1.287,1.14-1.765,1.994
		c-0.478,0.854-0.845,1.869-1.1,3.046l-1.084,5.071h-1.042l2.456-11.557h0.872l-0.393,2.35h0.063
		c1.163-1.688,2.637-2.531,4.423-2.531c0.921,0,1.613,0.228,2.073,0.681c0.461,0.454,0.691,1.106,0.691,1.957
		c0,0.496-0.085,1.141-0.255,1.935l-1.573,7.166H173.617z"/>
	<path style="fill:#808285;" d="M184.547,425.148c1.276,0,2.263,0.385,2.961,1.153c0.698,0.77,1.047,1.831,1.047,3.185
		c0,1.396-0.254,2.702-0.76,3.918c-0.507,1.216-1.2,2.143-2.079,2.78s-1.893,0.957-3.041,0.957c-1.304,0-2.295-0.389-2.972-1.164
		c-0.677-0.776-1.015-1.888-1.015-3.334c0-1.354,0.259-2.622,0.776-3.806c0.518-1.184,1.216-2.095,2.095-2.732
		S183.434,425.148,184.547,425.148z M184.461,426.062c-0.879,0-1.669,0.278-2.371,0.835s-1.262,1.354-1.68,2.393
		c-0.418,1.038-0.627,2.139-0.627,3.301c0,2.424,0.999,3.636,2.998,3.636c0.9,0,1.699-0.274,2.397-0.823
		c0.698-0.55,1.255-1.357,1.669-2.425c0.415-1.066,0.622-2.237,0.622-3.514c0-1.091-0.259-1.932-0.776-2.52
		S185.433,426.062,184.461,426.062z"/>
	<path style="fill:#808285;" d="M193.648,425.372l-1.616,7.421c-0.156,0.751-0.234,1.312-0.234,1.68
		c0,0.524,0.168,0.941,0.505,1.249c0.336,0.309,0.827,0.463,1.472,0.463c0.78,0,1.515-0.232,2.207-0.696
		c0.691-0.465,1.272-1.127,1.744-1.988c0.471-0.861,0.824-1.852,1.058-2.972l1.116-5.156h1.042l-2.456,11.557h-0.85l0.297-2.18
		h-0.063c-1.184,1.566-2.612,2.35-4.285,2.35c-0.928,0-1.632-0.22-2.11-0.659s-0.718-1.081-0.718-1.924
		c0-0.426,0.078-1.028,0.234-1.808l1.595-7.336H193.648z"/>
	<path style="fill:#808285;" d="M209.33,433.792c0,1.021-0.365,1.834-1.095,2.44c-0.73,0.605-1.722,0.909-2.977,0.909
		c-1.227,0-2.307-0.266-3.243-0.798v-1.138c0.524,0.326,1.067,0.578,1.627,0.755c0.56,0.178,1.084,0.266,1.573,0.266
		c0.979,0,1.726-0.203,2.244-0.611c0.517-0.407,0.776-0.986,0.776-1.738c0-0.297-0.055-0.56-0.165-0.786
		c-0.11-0.228-0.287-0.445-0.532-0.654s-0.714-0.512-1.409-0.909c-1.049-0.566-1.758-1.082-2.126-1.547
		c-0.369-0.464-0.553-1.029-0.553-1.695c0-0.907,0.349-1.65,1.047-2.228c0.698-0.578,1.618-0.867,2.759-0.867
		c0.532,0,1.093,0.062,1.685,0.187s1.09,0.289,1.494,0.494l-0.372,0.936c-0.964-0.453-1.9-0.68-2.807-0.68
		c-0.822,0-1.481,0.188-1.978,0.563c-0.496,0.375-0.744,0.864-0.744,1.467c0,0.39,0.06,0.702,0.181,0.936
		c0.121,0.234,0.335,0.477,0.643,0.729c0.309,0.252,0.732,0.522,1.271,0.813c0.808,0.446,1.38,0.813,1.717,1.101
		c0.336,0.287,0.585,0.594,0.744,0.919C209.25,432.98,209.33,433.36,209.33,433.792z"/>
	<path style="fill:#808285;" d="M224.321,436.929l1.584-7.357c0.149-0.652,0.223-1.205,0.223-1.658c0-0.567-0.154-1.011-0.462-1.329
		c-0.308-0.319-0.785-0.479-1.43-0.479c-0.794,0-1.54,0.237-2.238,0.712c-0.698,0.476-1.287,1.14-1.765,1.994
		c-0.478,0.854-0.845,1.869-1.1,3.046l-1.084,5.071h-1.042l2.456-11.557h0.872l-0.393,2.35h0.063
		c1.163-1.688,2.637-2.531,4.423-2.531c0.921,0,1.613,0.228,2.073,0.681c0.461,0.454,0.691,1.106,0.691,1.957
		c0,0.496-0.085,1.141-0.255,1.935l-1.573,7.166H224.321z"/>
	<path style="fill:#808285;" d="M233.401,421.385l0.042,0.233c-0.305,0.744-0.721,1.579-1.25,2.504
		c-0.528,0.926-1.089,1.788-1.685,2.589h-0.787c0.468-0.751,0.927-1.61,1.377-2.578c0.45-0.968,0.817-1.884,1.1-2.748H233.401z"/>
	<path style="fill:#808285;" d="M238.494,425.19c1.645,0,2.633,0.776,2.966,2.329h0.064l0.627-2.147h0.851l-2.435,11.557h-0.872
		l0.479-2.913h-0.064c-0.595,1.007-1.258,1.779-1.988,2.317c-0.73,0.539-1.57,0.809-2.52,0.809c-1.992,0-2.988-1.325-2.988-3.977
		c0-1.396,0.266-2.729,0.797-3.998c0.532-1.269,1.242-2.248,2.132-2.939C236.433,425.536,237.417,425.19,238.494,425.19z
		 M235.846,436.185c0.631,0,1.26-0.22,1.887-0.659c0.627-0.439,1.191-1.027,1.691-1.765c0.5-0.737,0.88-1.553,1.143-2.445
		c0.262-0.894,0.394-1.648,0.394-2.265c0-0.561-0.092-1.062-0.276-1.505c-0.185-0.443-0.457-0.794-0.819-1.053
		c-0.361-0.259-0.812-0.388-1.35-0.388c-0.879,0-1.673,0.29-2.382,0.872c-0.708,0.581-1.29,1.451-1.744,2.609
		c-0.454,1.159-0.68,2.312-0.68,3.461c0,1.078,0.177,1.87,0.531,2.376C234.595,435.931,235.13,436.185,235.846,436.185z"/>
	<path style="fill:#808285;" d="M245.384,436.929h-1l3.551-16.544h0.999L245.384,436.929z"/>
	<path style="fill:#808285;" d="M250.434,436.929h-1l3.552-16.544h0.998L250.434,436.929z"/>
	<path style="fill:#808285;" d="M260.577,425.148c1.275,0,2.263,0.385,2.961,1.153c0.698,0.77,1.047,1.831,1.047,3.185
		c0,1.396-0.253,2.702-0.76,3.918s-1.2,2.143-2.079,2.78s-1.893,0.957-3.04,0.957c-1.305,0-2.295-0.389-2.972-1.164
		c-0.678-0.776-1.016-1.888-1.016-3.334c0-1.354,0.259-2.622,0.776-3.806c0.517-1.184,1.215-2.095,2.095-2.732
		C258.468,425.468,259.464,425.148,260.577,425.148z M260.492,426.062c-0.879,0-1.67,0.278-2.371,0.835
		c-0.702,0.557-1.262,1.354-1.68,2.393c-0.419,1.038-0.628,2.139-0.628,3.301c0,2.424,1,3.636,2.999,3.636
		c0.899,0,1.699-0.274,2.397-0.823c0.697-0.55,1.254-1.357,1.669-2.425c0.415-1.066,0.622-2.237,0.622-3.514
		c0-1.091-0.259-1.932-0.776-2.52S261.463,426.062,260.492,426.062z"/>
	<path style="fill:#808285;" d="M273.75,436.929l1.584-7.357c0.148-0.652,0.224-1.205,0.224-1.658c0-0.567-0.154-1.011-0.463-1.329
		c-0.309-0.319-0.785-0.479-1.43-0.479c-0.794,0-1.54,0.237-2.238,0.712c-0.698,0.476-1.286,1.14-1.765,1.994
		c-0.479,0.854-0.846,1.869-1.101,3.046l-1.085,5.071h-1.042l2.456-11.557h0.872l-0.394,2.35h0.064
		c1.162-1.688,2.637-2.531,4.423-2.531c0.921,0,1.612,0.228,2.073,0.681c0.46,0.454,0.69,1.106,0.69,1.957
		c0,0.496-0.085,1.141-0.255,1.935l-1.573,7.166H273.75z"/>
	<path style="fill:#808285;" d="M285.36,433.792c0,1.021-0.365,1.834-1.096,2.44c-0.729,0.605-1.723,0.909-2.977,0.909
		c-1.227,0-2.308-0.266-3.243-0.798v-1.138c0.524,0.326,1.066,0.578,1.627,0.755c0.56,0.178,1.084,0.266,1.573,0.266
		c0.979,0,1.727-0.203,2.243-0.611c0.518-0.407,0.776-0.986,0.776-1.738c0-0.297-0.055-0.56-0.165-0.786
		c-0.109-0.228-0.286-0.445-0.531-0.654c-0.244-0.209-0.714-0.512-1.408-0.909c-1.05-0.566-1.759-1.082-2.127-1.547
		c-0.368-0.464-0.553-1.029-0.553-1.695c0-0.907,0.349-1.65,1.047-2.228c0.698-0.578,1.618-0.867,2.76-0.867
		c0.531,0,1.093,0.062,1.685,0.187s1.09,0.289,1.494,0.494l-0.372,0.936c-0.964-0.453-1.899-0.68-2.807-0.68
		c-0.822,0-1.481,0.188-1.978,0.563c-0.497,0.375-0.745,0.864-0.745,1.467c0,0.39,0.061,0.702,0.182,0.936
		c0.12,0.234,0.334,0.477,0.643,0.729s0.732,0.522,1.271,0.813c0.809,0.446,1.381,0.813,1.718,1.101
		c0.336,0.287,0.584,0.594,0.744,0.919C285.28,432.98,285.36,433.36,285.36,433.792z"/>
	<path style="fill:#808285;" d="M300.352,436.929l1.584-7.357c0.148-0.652,0.224-1.205,0.224-1.658c0-0.567-0.154-1.011-0.463-1.329
		c-0.309-0.319-0.785-0.479-1.43-0.479c-0.794,0-1.54,0.237-2.238,0.712c-0.698,0.476-1.286,1.14-1.765,1.994
		c-0.479,0.854-0.846,1.869-1.101,3.046l-1.085,5.071h-1.042l2.456-11.557h0.872l-0.394,2.35h0.064
		c1.162-1.688,2.637-2.531,4.423-2.531c0.921,0,1.612,0.228,2.073,0.681c0.46,0.454,0.69,1.106,0.69,1.957
		c0,0.496-0.085,1.141-0.255,1.935l-1.573,7.166H300.352z"/>
	<path style="fill:#808285;" d="M308.432,425.372l-1.616,7.421c-0.156,0.751-0.233,1.312-0.233,1.68
		c0,0.524,0.168,0.941,0.505,1.249c0.336,0.309,0.827,0.463,1.473,0.463c0.779,0,1.515-0.232,2.206-0.696
		c0.69-0.465,1.272-1.127,1.743-1.988c0.472-0.861,0.824-1.852,1.059-2.972l1.116-5.156h1.042l-2.456,11.557h-0.851l0.298-2.18
		h-0.064c-1.184,1.566-2.611,2.35-4.284,2.35c-0.929,0-1.632-0.22-2.11-0.659s-0.718-1.081-0.718-1.924
		c0-0.426,0.077-1.028,0.233-1.808l1.595-7.336H308.432z"/>
	<path style="fill:#808285;" d="M318.341,436.929h-1l3.552-16.544h0.999L318.341,436.929z"/>
	<path style="fill:#808285;" d="M323.391,436.929h-1l3.552-16.544h0.999L323.391,436.929z"/>
	<path style="fill:#808285;" d="M331.62,437.142c-1.227,0-2.184-0.389-2.87-1.164c-0.688-0.776-1.032-1.859-1.032-3.248
		c0-1.283,0.252-2.513,0.755-3.689c0.504-1.177,1.196-2.112,2.079-2.808c0.883-0.694,1.855-1.042,2.918-1.042
		c0.809,0,1.453,0.217,1.936,0.649c0.481,0.432,0.723,1.021,0.723,1.765c0,1.283-0.579,2.261-1.738,2.935
		c-1.158,0.673-2.879,1.01-5.162,1.01h-0.351c-0.042,0.312-0.063,0.659-0.063,1.042c0,1.17,0.262,2.061,0.787,2.674
		c0.524,0.613,1.279,0.92,2.265,0.92c0.936,0,1.913-0.259,2.934-0.776v1C333.807,436.896,332.747,437.142,331.62,437.142z
		 M333.343,426.105c-0.929,0-1.792,0.409-2.589,1.228c-0.798,0.819-1.374,1.912-1.728,3.28h0.521c3.664,0,5.497-0.957,5.497-2.871
		c0-0.475-0.154-0.866-0.463-1.175C334.272,426.26,333.86,426.105,333.343,426.105z"/>
	<path style="fill:#808285;" d="M347.451,437.099c-1.631,0-2.619-0.776-2.967-2.328h-0.042c-0.093,0.51-0.62,2.974-1.584,7.39
		h-1.053l3.572-16.788h0.872l-0.479,2.913h0.063c0.645-1.085,1.338-1.879,2.078-2.382c0.741-0.503,1.551-0.755,2.43-0.755
		c0.957,0,1.694,0.328,2.212,0.983c0.517,0.655,0.775,1.657,0.775,3.004c0,1.382-0.255,2.696-0.765,3.944
		c-0.511,1.247-1.211,2.229-2.101,2.945S348.571,437.099,347.451,437.099z M350.109,426.105c-0.617,0-1.233,0.207-1.851,0.622
		c-0.616,0.414-1.188,1.008-1.717,1.78s-0.92,1.614-1.175,2.525s-0.383,1.649-0.383,2.217c0,0.886,0.218,1.597,0.654,2.132
		c0.436,0.535,1.032,0.803,1.791,0.803c0.879,0,1.677-0.298,2.393-0.894c0.716-0.595,1.297-1.458,1.743-2.589
		c0.446-1.13,0.67-2.284,0.67-3.46C352.235,427.15,351.526,426.105,350.109,426.105z"/>
	<path style="fill:#808285;" d="M361.337,425.19c1.645,0,2.633,0.776,2.967,2.329h0.063l0.627-2.147h0.851l-2.435,11.557h-0.872
		l0.479-2.913h-0.063c-0.596,1.007-1.258,1.779-1.988,2.317c-0.73,0.539-1.57,0.809-2.52,0.809c-1.992,0-2.988-1.325-2.988-3.977
		c0-1.396,0.267-2.729,0.798-3.998c0.531-1.269,1.242-2.248,2.132-2.939S360.26,425.19,361.337,425.19z M358.689,436.185
		c0.631,0,1.26-0.22,1.888-0.659c0.627-0.439,1.19-1.027,1.69-1.765c0.499-0.737,0.881-1.553,1.143-2.445
		c0.263-0.894,0.394-1.648,0.394-2.265c0-0.561-0.092-1.062-0.276-1.505s-0.457-0.794-0.818-1.053
		c-0.362-0.259-0.812-0.388-1.351-0.388c-0.879,0-1.673,0.29-2.382,0.872c-0.709,0.581-1.29,1.451-1.743,2.609
		c-0.454,1.159-0.681,2.312-0.681,3.461c0,1.078,0.177,1.87,0.531,2.376C357.438,435.931,357.974,436.185,358.689,436.185z"/>
	<path style="fill:#808285;" d="M374,425.17c0.488,0,0.925,0.05,1.308,0.148l-0.224,0.989c-0.333-0.106-0.733-0.16-1.201-0.16
		c-0.666,0-1.301,0.228-1.903,0.681c-0.603,0.454-1.145,1.134-1.627,2.041c-0.481,0.908-0.836,1.89-1.062,2.945l-1.063,5.114h-1.042
		l2.456-11.557h0.851l-0.309,2.169h0.063c0.518-0.667,0.954-1.146,1.309-1.441c0.354-0.294,0.731-0.522,1.132-0.686
		S373.524,425.17,374,425.17z"/>
	<path style="fill:#808285;" d="M381.793,425.372l-0.191,0.86h-3.009l-1.436,6.752c-0.156,0.701-0.234,1.283-0.234,1.743
		c0,0.985,0.447,1.479,1.34,1.479c0.482,0,1.021-0.093,1.616-0.276v0.914c-0.716,0.198-1.318,0.298-1.808,0.298
		c-0.701,0-1.244-0.193-1.627-0.58c-0.382-0.386-0.573-0.947-0.573-1.685c0-0.518,0.103-1.248,0.308-2.19l1.372-6.454h-1.936
		l0.149-0.712l1.956-0.181l1.031-2.69h0.585l-0.585,2.723H381.793z"/>
	<path style="fill:#808285;" d="M391.437,427.7c0,2.445-0.438,4.699-1.313,6.762c-0.875,2.062-2.224,4.033-4.045,5.911h-1.116
		c1.821-1.941,3.181-3.949,4.077-6.022s1.345-4.269,1.345-6.587c0-1.049-0.101-2.091-0.303-3.126
		c-0.202-1.034-0.552-2.119-1.048-3.253h0.851C390.919,423.242,391.437,425.347,391.437,427.7z"/>
</g>
</svg>
