<?xml version="1.0" encoding="iso-8859-1"?>
<!-- Generator: Adobe Illustrator 15.0.0, SVG Export Plug-In . SVG Version: 6.00 Build 0)  -->
<!DOCTYPE svg PUBLIC "-//W3C//DTD SVG 1.1//EN" "http://www.w3.org/Graphics/SVG/1.1/DTD/svg11.dtd">
<svg version="1.1" id="Layer_1" xmlns="http://www.w3.org/2000/svg" xmlns:xlink="http://www.w3.org/1999/xlink" x="0px" y="0px"
	 width="396px" height="219px" viewBox="0 0 396 219" style="enable-background:new 0 0 396 219;" xml:space="preserve">
<rect style="fill:#D1E8C5;" width="396" height="219"/>
<g>
	<path style="fill:#68AFA5;" d="M28.538,54.592V11.448h9.131v43.144H28.538z"/>
	<path style="fill:#68AFA5;" d="M45.829,14.188h6.677l-3.595,14.724h-5.935L45.829,14.188z"/>
	<path style="fill:#68AFA5;" d="M66.772,50.883c-0.38,1.332-1.132,2.406-2.254,3.224c-1.123,0.818-2.578,1.228-4.366,1.228
		c-0.876,0-1.769-0.152-2.682-0.457c-0.913-0.304-1.75-0.808-2.511-1.512c-0.762-0.704-1.389-1.636-1.883-2.797
		c-0.495-1.16-0.742-2.597-0.742-4.309c0-2.055,0.371-3.747,1.113-5.079c0.742-1.331,1.712-2.396,2.911-3.195
		c1.198-0.8,2.558-1.36,4.08-1.684c1.521-0.323,3.062-0.485,4.623-0.485h1.142v-0.457c0-1.445-0.333-2.491-0.999-3.139
		c-0.666-0.646-1.55-0.97-2.653-0.97c-1.104,0-2.103,0.248-2.996,0.742c-0.895,0.494-1.665,1.122-2.312,1.883l-3.938-5.479
		c1.217-1.445,2.729-2.568,4.537-3.367c1.807-0.799,3.604-1.198,5.393-1.198c2.016,0,3.728,0.305,5.136,0.913
		c1.407,0.609,2.548,1.503,3.424,2.683c0.875,1.18,1.503,2.616,1.883,4.309c0.38,1.693,0.571,3.644,0.571,5.85v17.006h-7.362v-3.709
		H66.772z M66.487,41.58h-1.598c-0.647,0-1.275,0.058-1.883,0.171c-0.609,0.114-1.142,0.334-1.598,0.657s-0.818,0.741-1.084,1.255
		c-0.267,0.514-0.399,1.17-0.399,1.969c0,1.18,0.257,2.046,0.771,2.597c0.514,0.552,1.131,0.828,1.855,0.828
		c0.685,0,1.284-0.172,1.797-0.514c0.514-0.343,0.922-0.789,1.227-1.342c0.304-0.551,0.532-1.179,0.685-1.883
		c0.152-0.704,0.229-1.398,0.229-2.083V41.58z"/>
	<path style="fill:#68AFA5;" d="M95.935,54.592v-4.223H95.82c-0.495,1.446-1.37,2.691-2.625,3.737
		c-1.256,1.046-2.816,1.569-4.68,1.569c-1.712,0-3.082-0.352-4.109-1.056c-1.027-0.703-1.826-1.645-2.397-2.824
		s-0.952-2.53-1.142-4.053c-0.19-1.521-0.285-3.1-0.285-4.736V24.745h8.96v18.262c0,0.647,0.037,1.256,0.114,1.826
		c0.076,0.571,0.209,1.065,0.399,1.484c0.19,0.419,0.466,0.761,0.828,1.026c0.361,0.267,0.808,0.399,1.341,0.399
		c1.103,0,1.959-0.503,2.568-1.512c0.608-1.008,0.913-2.33,0.913-3.967v-17.52h8.96v29.847H95.935z"/>
	<path style="fill:#68AFA5;" d="M123.498,55.049c-0.913,0.189-1.826,0.285-2.739,0.285c-3.006,0-5.193-0.809-6.563-2.426
		c-1.37-1.616-2.055-4.042-2.055-7.276V31.707h-3.595v-6.962h3.539v-7.19h8.674v7.19h5.136v6.962h-5.136v11.912
		c0,1.452,0.228,2.512,0.685,3.18s1.179,1.002,2.168,1.002c0.799,0,1.464-0.151,1.998-0.457v7.02
		C125.115,54.629,124.411,54.857,123.498,55.049z"/>
	<path style="fill:#68AFA5;" d="M129.717,24.745h8.674v5.022h0.059c1.064-3.957,3.06-5.936,5.99-5.936
		c0.304,0,0.551,0.01,0.742,0.028c0.19,0.02,0.418,0.067,0.685,0.143l-0.571,8.96c-0.305-0.076-0.599-0.143-0.884-0.199
		c-0.286-0.058-0.638-0.086-1.056-0.086c-0.762,0-1.427,0.199-1.998,0.599c-0.571,0.4-1.056,0.924-1.455,1.569
		c-0.4,0.647-0.705,1.408-0.913,2.283c-0.21,0.876-0.314,1.77-0.314,2.683v14.78h-8.96V24.745z"/>
	<path style="fill:#68AFA5;" d="M155.854,41.923c0,0.837,0.104,1.626,0.314,2.368c0.209,0.742,0.485,1.39,0.828,1.94
		c0.342,0.552,0.761,0.989,1.255,1.312c0.494,0.323,1.046,0.485,1.655,0.485c0.989,0,1.788-0.323,2.396-0.971
		c0.608-0.646,1.084-1.407,1.427-2.282l6.562,3.709c-0.989,2.207-2.368,3.957-4.137,5.25c-1.769,1.293-3.966,1.94-6.591,1.94
		c-1.75,0-3.376-0.342-4.879-1.027c-1.503-0.685-2.816-1.702-3.938-3.053c-1.123-1.35-1.998-3.015-2.625-4.993
		c-0.628-1.979-0.942-4.261-0.942-6.849c0-2.435,0.294-4.651,0.885-6.648c0.589-1.997,1.427-3.689,2.511-5.079
		c1.084-1.389,2.369-2.463,3.852-3.225c1.484-0.76,3.119-1.141,4.908-1.141c2.054,0,3.804,0.399,5.25,1.198
		c1.446,0.799,2.634,1.893,3.567,3.281c0.932,1.39,1.607,3.044,2.026,4.965c0.418,1.922,0.627,4.023,0.627,6.307v2.511H155.854z
		 M162.589,36.102c0-1.598-0.248-2.929-0.742-3.995c-0.495-1.064-1.312-1.598-2.454-1.598c-0.609,0-1.133,0.182-1.569,0.542
		c-0.438,0.362-0.809,0.819-1.113,1.37c-0.305,0.552-0.534,1.161-0.685,1.826c-0.152,0.666-0.228,1.284-0.228,1.854H162.589z"/>
</g>
<g>
	<path style="fill:#00A79D;" d="M101.346,80.337c2.073-4.125,5.029-7.734,8.867-10.829c3.835-3.092,8.606-4.64,14.312-4.64
		c3.524,0,6.48,0.648,8.867,1.944c2.385,1.298,4.329,2.956,5.833,4.978c1.502,2.022,2.591,4.278,3.267,6.768
		c0.673,2.488,1.011,4.876,1.011,7.155c0,2.387-0.155,4.927-0.466,7.623c-0.312,2.697-0.727,5.444-1.245,8.244l-8.711,49.624
		h-30.801l8.867-49.6c0.102-0.622,0.18-1.22,0.233-1.794c0.051-0.571,0.078-1.118,0.078-1.638c0-1.454-0.287-2.754-0.855-3.899
		c-0.571-1.142-1.738-1.716-3.5-1.716c-1.971,0-3.5,0.807-4.589,2.419c-1.089,1.611-1.893,3.77-2.411,6.473l-8.711,49.755H60.589
		l8.867-49.6c0.103-0.622,0.18-1.22,0.233-1.794c0.051-0.571,0.078-1.118,0.078-1.638c0-1.454-0.287-2.754-0.856-3.899
		c-0.571-1.142-1.738-1.716-3.5-1.716c-1.971,0-3.476,0.807-4.511,2.419c-1.038,1.611-1.815,3.77-2.333,6.473l-8.711,49.755H18.898
		l11.201-63.469c0.311-1.657,0.622-3.446,0.933-5.367c0.311-1.917,0.623-3.784,0.934-5.6c0.311-1.813,0.569-3.5,0.778-5.056
		c0.207-1.556,0.362-2.801,0.466-3.733h28.624c-0.104,1.443-0.26,3.092-0.467,4.943c-0.209,1.853-0.416,3.552-0.622,5.095h0.466
		c2.073-3.609,4.874-6.703,8.4-9.282c3.524-2.577,7.778-3.867,12.756-3.867c2.8,0,5.289,0.439,7.467,1.314
		c2.178,0.878,4.045,2.037,5.601,3.481c1.556,1.443,2.824,3.094,3.811,4.951C100.23,76.472,100.93,78.377,101.346,80.337z"/>
	<path style="fill:#00A79D;" d="M217.082,133.626c-1.349,2.698-3.112,5.289-5.29,7.777c-2.178,2.489-4.693,4.694-7.544,6.611
		c-2.854,1.921-6.017,3.447-9.489,4.59c-3.477,1.14-7.183,1.711-11.123,1.711c-5.289,0-9.982-0.831-14.078-2.489
		c-4.098-1.657-7.545-4.044-10.345-7.155s-4.927-6.869-6.378-11.278c-1.454-4.407-2.178-9.307-2.178-14.7
		c0-7.881,1.113-15.114,3.345-21.701c2.229-6.585,5.262-12.263,9.1-17.034c3.836-4.769,8.296-8.478,13.379-11.122
		c5.08-2.645,10.422-3.967,16.022-3.967c5.391,0,10.007,0.831,13.845,2.488c3.836,1.66,6.974,3.916,9.411,6.768
		c2.436,2.854,4.2,6.198,5.29,10.033c1.088,3.838,1.633,7.934,1.633,12.289c0,2.179-0.209,5.188-0.621,9.023
		c-0.416,3.838-1.09,7.622-2.023,11.355h-40.134c-0.104,0.521-0.155,0.909-0.155,1.167c0,0.26,0,0.493,0,0.7
		c0,2.387,0.596,4.355,1.789,5.911c1.19,1.556,2.979,2.333,5.366,2.333c2.178,0,4.045-0.751,5.601-2.256
		c1.556-1.502,2.8-3.033,3.733-4.589L217.082,133.626z M196.237,99.091c0.102-0.518,0.18-1.089,0.233-1.711
		c0.051-0.622,0.078-1.19,0.078-1.711c0-2.385-0.39-4.251-1.167-5.601c-0.778-1.346-2.049-2.021-3.812-2.021
		c-1.971,0-3.76,1.037-5.367,3.11c-1.608,2.076-2.671,4.721-3.188,7.934H196.237z"/>
	<path style="fill:#00A79D;" d="M237.148,82.368c0.311-1.917,0.621-3.784,0.932-5.6c0.312-1.813,0.57-3.5,0.779-5.056
		c0.205-1.556,0.361-2.801,0.467-3.733h28.623c-0.105,1.453-0.262,3.111-0.467,4.978c-0.209,1.867-0.416,3.578-0.623,5.134h0.467
		c2.074-3.629,4.873-6.74,8.4-9.334c3.525-2.591,7.777-3.889,12.756-3.889c3.525,0,6.508,0.648,8.945,1.944
		c2.436,1.298,4.434,2.956,5.988,4.978c1.557,2.022,2.695,4.278,3.422,6.768c0.725,2.488,1.09,4.876,1.09,7.155
		c0,2.387-0.156,4.927-0.467,7.623c-0.311,2.697-0.727,5.444-1.244,8.244l-8.711,49.624h-30.803l8.867-49.469
		c0.104-0.622,0.18-1.217,0.234-1.788c0.051-0.569,0.078-1.113,0.078-1.634c0-1.451-0.287-2.747-0.855-3.889
		c-0.572-1.141-1.738-1.712-3.5-1.712c-1.973,0-3.477,0.805-4.512,2.411c-1.039,1.609-1.816,3.761-2.334,6.456l-8.711,49.624
		h-30.957l11.201-63.469C236.525,86.078,236.836,84.289,237.148,82.368z"/>
	<path style="fill:#00A79D;" d="M342.615,152.76c-8.088,0-14.234-1.84-18.434-5.522c-4.199-3.68-6.301-8.944-6.301-15.789
		c0-1.141,0.051-2.411,0.156-3.812c0.102-1.4,0.258-2.669,0.467-3.812l5.6-31.268h-10.578l4.512-24.578h10.578l3.268-18.979h29.867
		l-3.268,18.979h13.533l-4.51,24.578h-13.379l-4.045,22.867c-0.209,0.728-0.363,1.556-0.467,2.489s-0.154,1.66-0.154,2.178
		c0,4.46,2.178,6.689,6.533,6.689c0.828,0,1.762-0.051,2.799-0.155c1.037-0.103,1.918-0.258,2.645-0.467l-4.51,24.423
		c-1.455,0.622-3.605,1.14-6.457,1.556C347.617,152.551,345,152.76,342.615,152.76z"/>
</g>
<g>
	<path style="fill:#231F20;" d="M31.613,175.433c-0.15-0.05-0.313-0.087-0.488-0.112c-0.175-0.024-0.363-0.037-0.562-0.037
		c-0.525,0-0.969,0.125-1.332,0.375s-0.669,0.575-0.918,0.975c-0.25,0.4-0.45,0.856-0.6,1.369s-0.275,1.044-0.375,1.594
		l-0.675,3.976h3.075l-0.337,1.987h-3.075l-2.888,16.614h-2.363l2.85-16.614h-2.55l0.338-1.987h2.55l0.713-3.938
		c0.174-0.949,0.406-1.818,0.694-2.606c0.287-0.787,0.656-1.462,1.106-2.024c0.45-0.562,0.987-1,1.612-1.312s1.35-0.47,2.175-0.47
		c0.525,0,1,0.075,1.425,0.226L31.613,175.433z"/>
	<path style="fill:#231F20;" d="M42.788,188.972c0,0.476-0.032,1.044-0.094,1.706c-0.062,0.663-0.193,1.569-0.392,2.72h-9.828
		c-0.15,0.875-0.225,1.725-0.225,2.55c0,1.4,0.263,2.513,0.788,3.338c0.525,0.825,1.325,1.237,2.4,1.237
		c0.875,0,1.631-0.274,2.269-0.825c0.637-0.549,1.168-1.212,1.594-1.987l1.763,1.125c-0.65,1.125-1.45,2.069-2.4,2.832
		c-0.95,0.762-2.113,1.144-3.488,1.144c-1.725,0-3.063-0.595-4.013-1.781c-0.951-1.188-1.425-2.844-1.425-4.97
		c0-1.524,0.188-3.062,0.562-4.612c0.375-1.551,0.919-2.957,1.631-4.22c0.713-1.262,1.575-2.293,2.588-3.094
		c1.013-0.8,2.157-1.2,3.432-1.2c0.875,0,1.619,0.15,2.231,0.45c0.612,0.3,1.112,0.726,1.5,1.275s0.669,1.193,0.844,1.931
		C42.7,187.328,42.788,188.122,42.788,188.972z M40.5,189.047c0-1.175-0.219-2.125-0.656-2.851
		c-0.438-0.725-1.132-1.088-2.082-1.088c-0.726,0-1.363,0.22-1.913,0.656c-0.55,0.438-1.031,0.982-1.444,1.632
		c-0.413,0.65-0.75,1.338-1.013,2.062c-0.263,0.726-0.444,1.363-0.544,1.913h7.388c0.075-0.475,0.137-0.894,0.188-1.257
		C40.475,189.753,40.5,189.397,40.5,189.047z"/>
	<path style="fill:#231F20;" d="M55.126,186.384c-0.325-0.5-0.731-0.875-1.219-1.125c-0.487-0.25-1.094-0.375-1.819-0.375
		c-0.925,0-1.713,0.332-2.363,0.994c-0.65,0.662-0.975,1.531-0.975,2.606c0,0.825,0.2,1.462,0.6,1.912
		c0.399,0.45,0.987,0.888,1.763,1.312c0.475,0.275,0.919,0.569,1.332,0.882c0.412,0.312,0.781,0.663,1.106,1.05
		c0.325,0.388,0.582,0.825,0.769,1.312c0.188,0.488,0.281,1.045,0.281,1.669c0,1.025-0.169,1.919-0.506,2.682
		s-0.788,1.406-1.35,1.932s-1.219,0.919-1.969,1.182c-0.75,0.262-1.538,0.394-2.363,0.394c-1.075,0-2.044-0.231-2.907-0.694
		c-0.862-0.462-1.519-1.056-1.969-1.781l1.65-1.537c0.35,0.524,0.793,0.981,1.332,1.368c0.538,0.389,1.244,0.582,2.119,0.582
		c0.975,0,1.812-0.331,2.513-0.994c0.7-0.662,1.05-1.581,1.05-2.757c0-0.475-0.081-0.894-0.244-1.256
		c-0.163-0.362-0.375-0.694-0.638-0.994c-0.262-0.3-0.562-0.562-0.9-0.787c-0.337-0.226-0.682-0.438-1.031-0.638
		c-0.825-0.425-1.532-1-2.119-1.726c-0.587-0.725-0.881-1.675-0.881-2.85c0-0.875,0.156-1.669,0.469-2.382
		c0.312-0.713,0.737-1.325,1.275-1.838c0.537-0.512,1.168-0.906,1.894-1.182c0.725-0.274,1.5-0.412,2.325-0.412
		c1.025,0,1.881,0.175,2.569,0.525c0.688,0.35,1.231,0.775,1.631,1.274L55.126,186.384z"/>
	<path style="fill:#231F20;" d="M66.377,185.559H63.19l-2.063,11.589c-0.05,0.275-0.088,0.557-0.112,0.844
		c-0.025,0.288-0.038,0.531-0.038,0.731c0,0.625,0.125,1.057,0.375,1.294c0.25,0.237,0.65,0.356,1.2,0.356
		c0.225,0,0.475-0.031,0.75-0.094c0.275-0.062,0.512-0.144,0.712-0.244l-0.188,1.987c-0.575,0.275-1.225,0.413-1.95,0.413
		c-1.2,0-2.05-0.325-2.55-0.976c-0.5-0.649-0.75-1.425-0.75-2.325c0-0.199,0.013-0.431,0.038-0.693s0.062-0.557,0.113-0.882
		l2.138-12.001h-2.55l0.3-1.987h2.513l0.863-5.101h2.363l-0.825,5.101h3.188L66.377,185.559z"/>
	<path style="fill:#231F20;" d="M69.49,202.173h-2.4l3.225-18.602h2.4L69.49,202.173z M74.065,177.421
		c0,0.575-0.175,1.057-0.525,1.443c-0.351,0.388-0.788,0.581-1.312,0.581c-0.45,0-0.801-0.144-1.05-0.431
		c-0.25-0.287-0.375-0.644-0.375-1.069c0-0.5,0.169-0.962,0.506-1.388c0.337-0.425,0.769-0.637,1.294-0.637
		c0.475,0,0.837,0.138,1.087,0.412C73.94,176.608,74.065,176.971,74.065,177.421z"/>
	<path style="fill:#231F20;" d="M80.666,202.173h-2.888l-1.613-18.602h2.475l0.975,16.014h0.075l6.601-16.014h2.588L80.666,202.173z
		"/>
	<path style="fill:#231F20;" d="M101.142,187.809c0,0.426-0.025,0.851-0.075,1.275c-0.051,0.426-0.125,0.888-0.225,1.388
		l-1.312,7.726c-0.051,0.275-0.101,0.595-0.15,0.957c-0.05,0.362-0.106,0.737-0.168,1.125c-0.063,0.388-0.113,0.75-0.15,1.087
		c-0.038,0.338-0.057,0.606-0.057,0.807h-2.062c0.024-0.425,0.087-0.994,0.188-1.706c0.1-0.713,0.2-1.307,0.3-1.782h-0.075
		c-0.45,1.2-1.088,2.163-1.913,2.889c-0.825,0.725-1.863,1.087-3.113,1.087c-1.125,0-2.032-0.369-2.719-1.106
		c-0.688-0.737-1.031-1.806-1.031-3.206c0-1.45,0.263-2.656,0.788-3.619c0.525-0.962,1.2-1.731,2.025-2.307
		c0.825-0.575,1.75-0.987,2.775-1.237c1.025-0.25,2.025-0.375,3-0.375h1.388c0.125-0.75,0.212-1.312,0.262-1.688
		c0.05-0.375,0.075-0.676,0.075-0.9c0-1.1-0.238-1.906-0.712-2.419c-0.476-0.513-1.15-0.769-2.025-0.769
		c-0.726,0-1.419,0.188-2.082,0.562c-0.663,0.375-1.244,0.85-1.744,1.425l-1.125-1.5c0.65-0.8,1.463-1.431,2.438-1.895
		c0.975-0.462,1.937-0.693,2.888-0.693c1.575,0,2.738,0.432,3.488,1.294S101.142,186.284,101.142,187.809z M96.904,192.685
		c-0.75,0-1.481,0.081-2.194,0.244c-0.712,0.162-1.356,0.449-1.932,0.862c-0.575,0.412-1.038,0.963-1.388,1.65
		s-0.525,1.544-0.525,2.568c0,0.876,0.212,1.538,0.638,1.988c0.425,0.449,0.962,0.675,1.613,0.675c0.725,0,1.362-0.212,1.913-0.638
		c0.549-0.425,1.025-0.962,1.425-1.612s0.725-1.362,0.975-2.138s0.45-1.525,0.6-2.251l0.263-1.35H96.904z"/>
	<path style="fill:#231F20;" d="M106.58,202.173h-2.438l4.951-28.353h2.438L106.58,202.173z"/>
	<path style="fill:#231F20;" d="M130.769,202.173h-2.362l0.6-3.413h-0.037c-0.5,1.15-1.169,2.113-2.006,2.888
		c-0.838,0.775-1.894,1.163-3.169,1.163c-1.525,0-2.65-0.606-3.375-1.819c-0.726-1.212-1.088-2.806-1.088-4.781
		c0-1.5,0.175-3.038,0.525-4.613c0.35-1.575,0.862-3.006,1.538-4.294c0.675-1.287,1.5-2.338,2.475-3.15s2.075-1.219,3.3-1.219
		c1.175,0,2.082,0.356,2.719,1.068c0.638,0.713,1.006,1.632,1.106,2.757h0.075l2.25-12.938h2.4L130.769,202.173z M130.319,189.897
		c0-1.422-0.23-2.575-0.691-3.46c-0.46-0.886-1.189-1.329-2.184-1.329c-0.896,0-1.693,0.362-2.39,1.086
		c-0.697,0.723-1.282,1.627-1.755,2.712c-0.474,1.086-0.834,2.27-1.083,3.555c-0.249,1.284-0.374,2.476-0.374,3.572
		c0,1.372,0.23,2.481,0.691,3.33c0.461,0.849,1.188,1.271,2.184,1.271c0.871,0,1.649-0.354,2.333-1.065s1.27-1.597,1.755-2.656
		c0.485-1.061,0.859-2.22,1.121-3.479S130.319,190.995,130.319,189.897z"/>
	<path style="fill:#231F20;" d="M148.808,197.447c-0.05,0.226-0.106,0.557-0.168,0.994c-0.063,0.438-0.125,0.9-0.188,1.388
		c-0.063,0.487-0.125,0.95-0.188,1.388c-0.063,0.438-0.107,0.756-0.131,0.956h-2.4c0.05-0.399,0.125-0.938,0.225-1.612
		c0.1-0.676,0.2-1.312,0.3-1.913h-0.075c-0.225,0.551-0.513,1.075-0.863,1.575s-0.75,0.944-1.2,1.331
		c-0.45,0.389-0.938,0.694-1.462,0.919c-0.525,0.226-1.087,0.338-1.688,0.338c-0.726,0-1.332-0.132-1.819-0.394
		c-0.488-0.263-0.881-0.606-1.182-1.031c-0.3-0.426-0.519-0.906-0.656-1.444c-0.138-0.537-0.206-1.094-0.206-1.669
		c0-0.35,0.024-0.769,0.075-1.256c0.05-0.488,0.113-0.969,0.188-1.444l2.1-12.001h2.438l-2.063,12.001
		c-0.05,0.351-0.1,0.713-0.15,1.088c-0.05,0.375-0.075,0.737-0.075,1.087c0,0.775,0.162,1.451,0.485,2.025
		c0.324,0.575,0.934,0.862,1.83,0.862c0.623,0,1.208-0.168,1.754-0.506c0.547-0.338,1.039-0.8,1.475-1.388
		c0.436-0.587,0.809-1.262,1.12-2.025c0.311-0.762,0.541-1.568,0.691-2.419l1.832-10.726h2.438L148.808,197.447z"/>
	<path style="fill:#231F20;" d="M170.484,185.559c-0.2-0.05-0.4-0.075-0.6-0.075c-0.625,0-1.213,0.213-1.763,0.638
		c-0.55,0.426-1.044,0.976-1.481,1.65s-0.812,1.444-1.125,2.307c-0.313,0.862-0.544,1.731-0.694,2.606l-1.65,9.488h-2.476
		l2.438-13.876c0.024-0.226,0.075-0.562,0.15-1.013c0.075-0.45,0.15-0.919,0.225-1.406c0.075-0.488,0.144-0.943,0.206-1.369
		c0.062-0.425,0.106-0.737,0.131-0.938h2.363c-0.025,0.2-0.062,0.481-0.112,0.844c-0.051,0.362-0.113,0.75-0.188,1.162
		c-0.075,0.413-0.15,0.813-0.225,1.2c-0.075,0.389-0.125,0.694-0.15,0.919h0.112c0.6-1.6,1.344-2.775,2.231-3.525
		c0.887-0.75,1.794-1.125,2.719-1.125c0.2,0,0.338,0.013,0.413,0.038L170.484,185.559z"/>
	<path style="fill:#231F20;" d="M183.647,188.972c0,0.476-0.032,1.044-0.094,1.706c-0.062,0.663-0.193,1.569-0.392,2.72h-9.828
		c-0.15,0.875-0.225,1.725-0.225,2.55c0,1.4,0.263,2.513,0.788,3.338c0.525,0.825,1.325,1.237,2.4,1.237
		c0.875,0,1.631-0.274,2.269-0.825c0.637-0.549,1.168-1.212,1.594-1.987l1.763,1.125c-0.65,1.125-1.45,2.069-2.4,2.832
		c-0.95,0.762-2.113,1.144-3.488,1.144c-1.725,0-3.063-0.595-4.013-1.781c-0.951-1.188-1.425-2.844-1.425-4.97
		c0-1.524,0.188-3.062,0.562-4.612c0.375-1.551,0.919-2.957,1.631-4.22c0.713-1.262,1.575-2.293,2.588-3.094
		c1.013-0.8,2.157-1.2,3.432-1.2c0.875,0,1.619,0.15,2.231,0.45c0.612,0.3,1.112,0.726,1.5,1.275s0.669,1.193,0.844,1.931
		C183.56,187.328,183.647,188.122,183.647,188.972z M181.36,189.047c0-1.175-0.219-2.125-0.656-2.851
		c-0.438-0.725-1.132-1.088-2.082-1.088c-0.726,0-1.363,0.22-1.913,0.656c-0.55,0.438-1.031,0.982-1.444,1.632
		c-0.413,0.65-0.75,1.338-1.013,2.062c-0.263,0.726-0.444,1.363-0.544,1.913h7.388c0.075-0.475,0.137-0.894,0.188-1.257
		C181.334,189.753,181.36,189.397,181.36,189.047z"/>
	<path style="fill:#231F20;" d="M194.636,185.559h-3.188l-2.063,11.589c-0.05,0.275-0.088,0.557-0.112,0.844
		c-0.025,0.288-0.038,0.531-0.038,0.731c0,0.625,0.125,1.057,0.375,1.294c0.25,0.237,0.65,0.356,1.2,0.356
		c0.225,0,0.475-0.031,0.75-0.094c0.275-0.062,0.512-0.144,0.712-0.244l-0.188,1.987c-0.575,0.275-1.225,0.413-1.95,0.413
		c-1.2,0-2.05-0.325-2.55-0.976c-0.5-0.649-0.75-1.425-0.75-2.325c0-0.199,0.013-0.431,0.038-0.693s0.062-0.557,0.113-0.882
		l2.138-12.001h-2.55l0.3-1.987h2.513l0.863-5.101h2.363l-0.825,5.101h3.188L194.636,185.559z"/>
	<path style="fill:#231F20;" d="M209.037,189.797c0,1.575-0.194,3.138-0.582,4.688c-0.388,1.551-0.944,2.944-1.669,4.182
		c-0.726,1.238-1.6,2.238-2.625,3.001c-1.025,0.762-2.163,1.144-3.413,1.144c-1.65,0-2.938-0.619-3.863-1.856
		c-0.925-1.237-1.388-2.894-1.388-4.97c0-1.575,0.193-3.144,0.582-4.706c0.387-1.562,0.938-2.963,1.65-4.2
		c0.713-1.238,1.575-2.237,2.588-3.001c1.013-0.762,2.156-1.144,3.432-1.144c1.7,0,3.006,0.625,3.919,1.875
		C208.581,186.06,209.037,187.722,209.037,189.797z M206.524,189.897c0-1.422-0.237-2.575-0.71-3.46
		c-0.473-0.886-1.232-1.329-2.278-1.329c-0.871,0-1.649,0.362-2.333,1.086c-0.685,0.723-1.264,1.627-1.736,2.712
		c-0.474,1.086-0.834,2.264-1.083,3.535c-0.249,1.272-0.374,2.458-0.374,3.555c0,1.396,0.23,2.519,0.691,3.367
		c0.461,0.849,1.214,1.271,2.259,1.271c0.896,0,1.687-0.349,2.371-1.047c0.685-0.698,1.263-1.584,1.736-2.656
		s0.834-2.238,1.083-3.498C206.399,192.174,206.524,190.995,206.524,189.897z"/>
	<path style="fill:#231F20;" d="M224.075,197.447c-0.05,0.226-0.106,0.557-0.169,0.994s-0.125,0.9-0.188,1.388
		s-0.125,0.95-0.188,1.388s-0.106,0.756-0.131,0.956H221c0.05-0.399,0.125-0.938,0.225-1.612c0.1-0.676,0.2-1.312,0.301-1.913
		h-0.075c-0.226,0.551-0.513,1.075-0.862,1.575c-0.351,0.5-0.75,0.944-1.201,1.331c-0.449,0.389-0.938,0.694-1.462,0.919
		c-0.524,0.226-1.087,0.338-1.688,0.338c-0.726,0-1.332-0.132-1.819-0.394c-0.488-0.263-0.881-0.606-1.182-1.031
		c-0.3-0.426-0.519-0.906-0.656-1.444c-0.138-0.537-0.206-1.094-0.206-1.669c0-0.35,0.024-0.769,0.075-1.256
		c0.05-0.488,0.113-0.969,0.188-1.444l2.1-12.001h2.438l-2.063,12.001c-0.05,0.351-0.1,0.713-0.15,1.088
		c-0.05,0.375-0.075,0.737-0.075,1.087c0,0.775,0.162,1.451,0.485,2.025c0.324,0.575,0.934,0.862,1.83,0.862
		c0.622,0,1.208-0.168,1.755-0.506s1.039-0.8,1.475-1.388c0.436-0.587,0.809-1.262,1.12-2.025c0.312-0.762,0.541-1.568,0.691-2.419
		l1.832-10.726h2.438L224.075,197.447z"/>
	<path style="fill:#231F20;" d="M238.814,185.559c-0.201-0.05-0.4-0.075-0.601-0.075c-0.625,0-1.213,0.213-1.763,0.638
		c-0.551,0.426-1.044,0.976-1.481,1.65s-0.812,1.444-1.125,2.307c-0.313,0.862-0.544,1.731-0.694,2.606l-1.649,9.488h-2.476
		l2.438-13.876c0.025-0.226,0.076-0.562,0.15-1.013c0.075-0.45,0.15-0.919,0.225-1.406c0.076-0.488,0.145-0.943,0.207-1.369
		c0.062-0.425,0.105-0.737,0.131-0.938h2.363c-0.025,0.2-0.062,0.481-0.113,0.844s-0.112,0.75-0.188,1.162
		c-0.074,0.413-0.15,0.813-0.225,1.2c-0.075,0.389-0.125,0.694-0.15,0.919h0.113c0.6-1.6,1.344-2.775,2.23-3.525
		c0.888-0.75,1.795-1.125,2.719-1.125c0.201,0,0.338,0.013,0.413,0.038L238.814,185.559z"/>
	<path style="fill:#231F20;" d="M257.939,187.809c0,0.426-0.024,0.851-0.074,1.275c-0.051,0.426-0.125,0.888-0.225,1.388
		l-1.312,7.726c-0.051,0.275-0.102,0.595-0.15,0.957c-0.051,0.362-0.107,0.737-0.169,1.125c-0.063,0.388-0.112,0.75-0.149,1.087
		c-0.038,0.338-0.057,0.606-0.057,0.807h-2.062c0.023-0.425,0.087-0.994,0.188-1.706c0.1-0.713,0.199-1.307,0.299-1.782h-0.074
		c-0.45,1.2-1.088,2.163-1.912,2.889c-0.826,0.725-1.863,1.087-3.113,1.087c-1.125,0-2.031-0.369-2.719-1.106
		c-0.688-0.737-1.031-1.806-1.031-3.206c0-1.45,0.262-2.656,0.787-3.619c0.525-0.962,1.2-1.731,2.025-2.307
		c0.824-0.575,1.75-0.987,2.775-1.237c1.024-0.25,2.025-0.375,3-0.375h1.388c0.124-0.75,0.212-1.312,0.263-1.688
		c0.049-0.375,0.074-0.676,0.074-0.9c0-1.1-0.237-1.906-0.712-2.419c-0.476-0.513-1.15-0.769-2.025-0.769
		c-0.726,0-1.419,0.188-2.081,0.562c-0.663,0.375-1.244,0.85-1.744,1.425l-1.125-1.5c0.649-0.8,1.463-1.431,2.438-1.895
		c0.975-0.462,1.938-0.693,2.888-0.693c1.575,0,2.737,0.432,3.487,1.294S257.939,186.284,257.939,187.809z M253.702,192.685
		c-0.75,0-1.481,0.081-2.194,0.244c-0.712,0.162-1.355,0.449-1.932,0.862c-0.574,0.412-1.037,0.963-1.387,1.65
		c-0.351,0.688-0.525,1.544-0.525,2.568c0,0.876,0.213,1.538,0.638,1.988c0.425,0.449,0.962,0.675,1.612,0.675
		c0.725,0,1.363-0.212,1.913-0.638c0.55-0.425,1.024-0.962,1.425-1.612s0.725-1.362,0.975-2.138s0.451-1.525,0.601-2.251l0.263-1.35
		H253.702z M253.553,180.833l-4.014-5.4h2.476l3.487,5.4H253.553z"/>
	<path style="fill:#231F20;" d="M270.316,202.173h-2.438l4.95-28.353h2.438L270.316,202.173z"/>
	<path style="fill:#231F20;" d="M287.979,187.809c0,0.426-0.024,0.851-0.074,1.275c-0.051,0.426-0.125,0.888-0.225,1.388
		l-1.312,7.726c-0.051,0.275-0.102,0.595-0.15,0.957c-0.051,0.362-0.107,0.737-0.169,1.125c-0.063,0.388-0.112,0.75-0.149,1.087
		c-0.038,0.338-0.057,0.606-0.057,0.807h-2.062c0.023-0.425,0.087-0.994,0.188-1.706c0.1-0.713,0.199-1.307,0.299-1.782h-0.074
		c-0.45,1.2-1.088,2.163-1.912,2.889c-0.826,0.725-1.863,1.087-3.113,1.087c-1.125,0-2.031-0.369-2.719-1.106
		c-0.688-0.737-1.031-1.806-1.031-3.206c0-1.45,0.262-2.656,0.787-3.619c0.525-0.962,1.2-1.731,2.025-2.307
		c0.824-0.575,1.75-0.987,2.775-1.237c1.024-0.25,2.025-0.375,3-0.375h1.388c0.124-0.75,0.212-1.312,0.263-1.688
		c0.049-0.375,0.074-0.676,0.074-0.9c0-1.1-0.237-1.906-0.712-2.419c-0.476-0.513-1.15-0.769-2.025-0.769
		c-0.726,0-1.419,0.188-2.081,0.562c-0.663,0.375-1.244,0.85-1.744,1.425l-1.125-1.5c0.649-0.8,1.463-1.431,2.438-1.895
		c0.975-0.462,1.938-0.693,2.888-0.693c1.575,0,2.737,0.432,3.487,1.294S287.979,186.284,287.979,187.809z M283.741,192.685
		c-0.75,0-1.481,0.081-2.194,0.244c-0.712,0.162-1.355,0.449-1.932,0.862c-0.574,0.412-1.037,0.963-1.387,1.65
		c-0.351,0.688-0.525,1.544-0.525,2.568c0,0.876,0.213,1.538,0.638,1.988c0.425,0.449,0.962,0.675,1.612,0.675
		c0.725,0,1.363-0.212,1.913-0.638c0.55-0.425,1.024-0.962,1.425-1.612s0.725-1.362,0.975-2.138s0.451-1.525,0.601-2.251l0.263-1.35
		H283.741z"/>
</g>
<rect x="297" y="170" style="fill:#231F20;" width="82" height="42"/>
<g>
	<path style="fill:#FFFFFF;" d="M309.6,202.146h-1.088l-1.575-18.114h0.862l1.351,17.14h0.075l7.312-17.14h0.863L309.6,202.146z"/>
	<path style="fill:#FFFFFF;" d="M319.502,192.882c-0.126,0.576-0.221,1.163-0.283,1.763c-0.062,0.601-0.094,1.176-0.094,1.726
		c0,1.75,0.35,3.126,1.051,4.125c0.699,1.001,1.699,1.5,3,1.5c0.975,0,1.824-0.306,2.55-0.919c0.726-0.612,1.337-1.368,1.838-2.269
		l0.601,0.413c-0.525,0.95-1.207,1.775-2.045,2.475c-0.838,0.7-1.832,1.05-2.98,1.05c-1.602,0-2.808-0.557-3.619-1.669
		c-0.813-1.111-1.219-2.681-1.219-4.706c0-1.275,0.156-2.669,0.469-4.182c0.314-1.513,0.785-2.919,1.412-4.22
		c0.627-1.299,1.404-2.381,2.332-3.243c0.929-0.863,2.02-1.294,3.273-1.294c0.828,0,1.512,0.156,2.051,0.469
		s0.971,0.737,1.298,1.274c0.325,0.538,0.558,1.157,0.696,1.856c0.138,0.7,0.207,1.426,0.207,2.176c0,0.425-0.045,0.981-0.133,1.669
		s-0.193,1.356-0.319,2.006H319.502z M328.914,192.207c0.1-0.58,0.174-1.11,0.225-1.59c0.05-0.479,0.075-0.934,0.075-1.363
		c0-0.73-0.063-1.412-0.188-2.044c-0.126-0.63-0.325-1.173-0.601-1.627s-0.637-0.813-1.088-1.079
		c-0.449-0.265-0.987-0.397-1.612-0.397c-0.899,0-1.7,0.297-2.399,0.89c-0.701,0.593-1.301,1.312-1.801,2.157
		c-0.5,0.846-0.906,1.735-1.219,2.669s-0.531,1.729-0.656,2.385H328.914z M325.898,180.993h-0.713l4.463-5.4h0.975L325.898,180.993z
		"/>
	<path style="fill:#FFFFFF;" d="M335.345,187.538c0.062-0.413,0.125-0.838,0.188-1.275c0.062-0.438,0.118-0.856,0.169-1.256
		c0.05-0.4,0.087-0.726,0.112-0.976h0.825c-0.025,0.25-0.069,0.569-0.131,0.956c-0.062,0.389-0.126,0.801-0.188,1.238
		c-0.062,0.438-0.126,0.856-0.188,1.256c-0.062,0.4-0.119,0.75-0.17,1.051h0.113c0.675-1.775,1.443-3.032,2.307-3.77
		c0.862-0.737,1.744-1.106,2.644-1.106c0.2,0,0.351,0.013,0.45,0.037l-0.15,0.751c-0.1-0.025-0.188-0.038-0.262-0.038
		c-0.076,0-0.139,0-0.188,0c-0.701,0-1.357,0.25-1.969,0.75c-0.613,0.501-1.157,1.15-1.632,1.95
		c-0.476,0.801-0.888,1.694-1.237,2.682c-0.352,0.988-0.613,1.981-0.788,2.981l-1.65,9.376h-0.825l2.4-13.539
		C335.226,188.307,335.282,187.95,335.345,187.538z"/>
	<path style="fill:#FFFFFF;" d="M341.514,202.146l3.15-18.114h0.824l-3.149,18.114H341.514z M345.939,178.406
		c-0.476,0-0.713-0.275-0.713-0.825c0-0.275,0.08-0.538,0.244-0.788c0.162-0.249,0.394-0.375,0.693-0.375
		c0.25,0,0.432,0.082,0.544,0.244c0.112,0.163,0.169,0.356,0.169,0.581c0,0.325-0.088,0.601-0.263,0.825
		S346.214,178.406,345.939,178.406z"/>
	<path style="fill:#FFFFFF;" d="M351.676,202.333c-0.8,0-1.394-0.225-1.781-0.676s-0.581-1.065-0.581-1.842
		c0-0.275,0.019-0.558,0.057-0.846c0.037-0.289,0.081-0.583,0.131-0.884l2.362-13.38h-2.438l0.075-0.675h2.438l0.938-5.325h0.824
		l-0.938,5.325h3.301l-0.075,0.675h-3.3l-2.363,13.411c-0.051,0.276-0.094,0.577-0.131,0.904c-0.037,0.326-0.057,0.59-0.057,0.791
		c0,0.603,0.144,1.061,0.432,1.375c0.287,0.314,0.681,0.471,1.182,0.471c0.225,0,0.475-0.034,0.75-0.103
		c0.274-0.067,0.537-0.184,0.787-0.348l0.15,0.675C352.839,202.183,352.252,202.333,351.676,202.333z"/>
	<path style="fill:#FFFFFF;" d="M357.978,192.882c-0.126,0.576-0.22,1.163-0.282,1.763c-0.062,0.601-0.094,1.176-0.094,1.726
		c0,1.75,0.35,3.126,1.05,4.125c0.7,1.001,1.7,1.5,3.001,1.5c0.975,0,1.824-0.306,2.549-0.919c0.726-0.612,1.338-1.368,1.838-2.269
		l0.601,0.413c-0.524,0.95-1.206,1.775-2.044,2.475c-0.838,0.7-1.832,1.05-2.981,1.05c-1.601,0-2.808-0.557-3.619-1.669
		c-0.813-1.111-1.219-2.681-1.219-4.706c0-1.275,0.156-2.669,0.47-4.182s0.784-2.919,1.411-4.22
		c0.627-1.299,1.405-2.381,2.333-3.243c0.928-0.863,2.02-1.294,3.273-1.294c0.827,0,1.512,0.156,2.051,0.469
		s0.971,0.737,1.297,1.274c0.326,0.538,0.559,1.157,0.697,1.856c0.137,0.7,0.206,1.426,0.206,2.176c0,0.425-0.044,0.981-0.132,1.669
		s-0.194,1.356-0.32,2.006H357.978z M367.39,192.207c0.1-0.58,0.175-1.11,0.226-1.59c0.049-0.479,0.074-0.934,0.074-1.363
		c0-0.73-0.062-1.412-0.188-2.044c-0.125-0.63-0.325-1.173-0.6-1.627c-0.275-0.454-0.638-0.813-1.088-1.079
		c-0.449-0.265-0.988-0.397-1.613-0.397c-0.899,0-1.699,0.297-2.399,0.89s-1.3,1.312-1.8,2.157
		c-0.501,0.846-0.906,1.735-1.219,2.669c-0.313,0.934-0.532,1.729-0.656,2.385H367.39z M364.374,180.993h-0.712l4.463-5.4h0.975
		L364.374,180.993z"/>
</g>
</svg>
