<?xml version="1.0" encoding="iso-8859-1"?>
<!-- Generator: Adobe Illustrator 15.0.0, SVG Export Plug-In . SVG Version: 6.00 Build 0)  -->
<!DOCTYPE svg PUBLIC "-//W3C//DTD SVG 1.1//EN" "http://www.w3.org/Graphics/SVG/1.1/DTD/svg11.dtd">
<svg version="1.1" id="Layer_1" xmlns="http://www.w3.org/2000/svg" xmlns:xlink="http://www.w3.org/1999/xlink" x="0px" y="0px"
	 width="500px" height="654px" viewBox="0 0 500 654" style="enable-background:new 0 0 500 654;" xml:space="preserve">
<rect width="500" height="654"/>
<g>
	<path style="fill:#FFFFFF;" d="M95.108,207.176H79.954l9.132-49.376h-0.301l-20.875,49.376h-11.04l-3.211-49.376h-0.301
		l-8.129,49.376H31.28l12.444-71.054h19.37l3.412,46.466h0.401l19.369-46.466h21.276L95.108,207.176z"/>
	<path style="fill:#FFFFFF;" d="M139.969,207.176l-0.301-13.348h-16.56l-5.319,13.348h-16.058l30.811-71.054h19.369l3.713,71.054
		H139.969z M139.266,151.477h-0.401l-11.742,30.509h12.746L139.266,151.477z"/>
	<path style="fill:#FFFFFF;" d="M209.617,207.176h-16.559l-9.333-44.258h-0.301l-7.226,44.258h-13.85l12.344-71.054h16.96
		l8.932,44.86h0.401l7.427-44.86h13.548L209.617,207.176z"/>
	<path style="fill:#FFFFFF;" d="M238.019,207.176h-15.556l12.344-71.054h15.556L238.019,207.176z"/>
	<path style="fill:#FFFFFF;" d="M294.619,150.071h-18.666l-2.609,15.154h17.361l-2.307,13.348h-17.262l-5.02,28.603h-15.254
		l12.344-71.054h33.822L294.619,150.071z"/>
	<path style="fill:#FFFFFF;" d="M336.97,149.67h-18.566l-2.609,14.753h17.362l-2.208,12.645h-17.262l-2.81,16.258h20.272
		l-2.409,13.85h-35.025l12.345-71.054h33.219L336.97,149.67z"/>
	<path style="fill:#FFFFFF;" d="M377.112,152.38c-1.139-1.338-2.544-2.392-4.216-3.162c-1.673-0.768-3.412-1.154-5.219-1.154
		c-0.938,0-1.924,0.185-2.96,0.552c-1.038,0.369-1.975,0.92-2.811,1.656c-0.837,0.737-1.54,1.656-2.107,2.76
		c-0.569,1.104-0.853,2.426-0.853,3.964c0,1.941,0.585,3.547,1.756,4.817c1.17,1.271,2.926,2.576,5.269,3.914
		c1.338,0.803,2.761,1.756,4.266,2.86c1.506,1.104,2.876,2.408,4.114,3.914c1.237,1.506,2.259,3.246,3.062,5.219
		c0.803,1.975,1.204,4.266,1.204,6.875c0,4.082-0.687,7.645-2.058,10.688c-1.372,3.045-3.211,5.587-5.52,7.627
		c-2.308,2.042-4.935,3.562-7.878,4.566c-2.945,1.003-5.988,1.505-9.133,1.505c-4.35,0-8.33-0.737-11.942-2.208
		c-3.613-1.471-6.423-3.277-8.431-5.419l9.133-11.542c1.338,1.54,2.993,2.794,4.968,3.764c1.973,0.971,4.03,1.455,6.172,1.455
		c1.069,0,2.141-0.201,3.212-0.602c1.069-0.401,2.022-0.969,2.86-1.706c0.836-0.735,1.505-1.639,2.007-2.71
		c0.502-1.069,0.753-2.273,0.753-3.613c0-1.939-0.587-3.663-1.757-5.168c-1.171-1.505-3.095-3.026-5.771-4.566
		c-1.54-0.869-3.027-1.839-4.466-2.91c-1.439-1.07-2.71-2.341-3.813-3.814c-1.104-1.471-1.991-3.144-2.659-5.018
		c-0.67-1.873-1.004-4.047-1.004-6.523c0-3.412,0.602-6.589,1.807-9.534c1.204-2.943,2.876-5.485,5.018-7.627
		c2.141-2.14,4.717-3.829,7.728-5.068c3.011-1.237,6.323-1.857,9.936-1.857c4.08,0,7.728,0.637,10.939,1.907
		c3.211,1.272,5.721,2.945,7.526,5.018L377.112,152.38z"/>
	<path style="fill:#FFFFFF;" d="M428.295,149.269h-13.047l-10.136,57.907h-15.255l10.137-57.907h-13.047l2.308-13.147h41.349
		L428.295,149.269z"/>
	<path style="fill:#FFFFFF;" d="M467.937,149.67H449.37l-2.609,14.753h17.362l-2.208,12.645h-17.262l-2.81,16.258h20.272
		l-2.409,13.85h-35.025l12.345-71.054h33.219L467.937,149.67z"/>
</g>
<g>
	<path style="fill:#FFFFFF;" d="M135.086,245.03l-0.067-2.982h-3.7l-1.188,2.982h-3.588l6.884-15.876h4.328l0.83,15.876H135.086z
		 M134.93,232.585h-0.09l-2.624,6.817h2.848L134.93,232.585z"/>
	<path style="fill:#FFFFFF;" d="M150.648,245.03h-3.7l-2.085-9.889h-0.067l-1.614,9.889h-3.095l2.758-15.876h3.79l1.996,10.023h0.09
		l1.659-10.023h3.027L150.648,245.03z"/>
	<path style="fill:#FFFFFF;" d="M164.081,245.03h-3.7l-2.085-9.889h-0.067l-1.614,9.889h-3.095l2.758-15.876h3.79l1.996,10.023h0.09
		l1.659-10.023h3.027L164.081,245.03z"/>
	<path style="fill:#FFFFFF;" d="M178.32,239.155c-0.165,0.882-0.381,1.704-0.65,2.466c-0.269,0.763-0.636,1.428-1.099,1.996
		c-0.464,0.568-1.04,1.013-1.727,1.334c-0.688,0.321-1.533,0.482-2.534,0.482c-0.807,0-1.51-0.112-2.108-0.336
		c-0.598-0.224-1.095-0.538-1.491-0.942s-0.691-0.878-0.886-1.424c-0.194-0.545-0.292-1.147-0.292-1.805
		c0-0.269,0.011-0.553,0.034-0.852c0.022-0.299,0.063-0.605,0.124-0.919l1.749-10.001h3.476l-1.704,9.732
		c-0.045,0.254-0.083,0.504-0.112,0.751c-0.03,0.247-0.045,0.475-0.045,0.684c0,0.523,0.108,0.957,0.325,1.3
		c0.217,0.344,0.602,0.516,1.155,0.516c0.389,0,0.718-0.086,0.987-0.258s0.493-0.404,0.673-0.695
		c0.179-0.292,0.329-0.635,0.448-1.032c0.12-0.396,0.217-0.818,0.292-1.267l1.682-9.732h3.453L178.32,239.155z"/>
	<path style="fill:#FFFFFF;" d="M186.729,245.03l-0.067-2.982h-3.7l-1.188,2.982h-3.588l6.884-15.876h4.328l0.83,15.876H186.729z
		 M186.572,232.585h-0.09l-2.624,6.817h2.848L186.572,232.585z"/>
	<path style="fill:#FFFFFF;" d="M195.204,245.03h-3.476l2.758-15.876h3.476L195.204,245.03z"/>
	<path style="fill:#FFFFFF;" d="M209.847,233.235c0,1.211-0.273,2.228-0.818,3.05c-0.546,0.822-1.274,1.39-2.186,1.704l1.771,7.041
		h-3.633l-1.323-6.391h-1.166l-1.099,6.391h-3.319l2.758-15.876h4.664c1.405,0,2.481,0.34,3.229,1.02
		C209.473,230.855,209.847,231.875,209.847,233.235z M206.416,233.684c0-0.613-0.165-1.039-0.493-1.278
		c-0.329-0.239-0.703-0.359-1.122-0.359h-1.166l-0.717,4.148h1.121c0.658,0,1.218-0.209,1.682-0.628
		S206.416,234.521,206.416,233.684z"/>
	<path style="fill:#FFFFFF;" d="M219.758,232.181h-4.148l-0.583,3.296h3.879l-0.493,2.826h-3.857l-0.628,3.632h4.53l-0.538,3.095
		h-7.826l2.758-15.876h7.422L219.758,232.181z"/>
	<path style="fill:#FFFFFF;" d="M224.668,245.882l-1.816-0.404l7.422-17.446l1.771,0.426L224.668,245.882z"/>
	<path style="fill:#FFFFFF;" d="M244.872,233.168c-0.209-0.344-0.463-0.613-0.763-0.807c-0.299-0.194-0.688-0.292-1.166-0.292
		c-0.598,0-1.136,0.217-1.614,0.65c-0.479,0.434-0.882,0.979-1.211,1.637c-0.329,0.658-0.58,1.387-0.751,2.187
		s-0.258,1.566-0.258,2.298c0,0.957,0.172,1.738,0.516,2.343c0.344,0.605,0.897,0.908,1.659,0.908c0.508,0,0.934-0.116,1.278-0.348
		c0.344-0.231,0.635-0.475,0.875-0.729l1.592,2.556c-0.523,0.538-1.14,0.983-1.85,1.334c-0.71,0.351-1.544,0.527-2.5,0.527
		c-0.837,0-1.581-0.15-2.231-0.449c-0.65-0.299-1.192-0.717-1.626-1.256c-0.434-0.538-0.762-1.185-0.987-1.939
		c-0.224-0.755-0.336-1.588-0.336-2.5c0-1.345,0.183-2.653,0.549-3.924c0.366-1.271,0.886-2.396,1.558-3.375
		c0.673-0.979,1.477-1.764,2.411-2.354c0.934-0.59,1.962-0.886,3.083-0.886c1.076,0,1.939,0.179,2.59,0.538s1.162,0.8,1.536,1.323
		L244.872,233.168z"/>
	<path style="fill:#FFFFFF;" d="M253.146,245.03l-0.067-2.982h-3.7l-1.188,2.982h-3.588l6.884-15.876h4.328l0.829,15.876H253.146z
		 M252.989,232.585h-0.09l-2.623,6.817h2.848L252.989,232.585z"/>
	<path style="fill:#FFFFFF;" d="M269.919,233.235c0,1.211-0.272,2.228-0.818,3.05s-1.274,1.39-2.187,1.704l1.771,7.041h-3.633
		l-1.322-6.391h-1.166l-1.1,6.391h-3.318l2.758-15.876h4.665c1.404,0,2.48,0.34,3.229,1.02
		C269.545,230.855,269.919,231.875,269.919,233.235z M266.488,233.684c0-0.613-0.165-1.039-0.493-1.278
		c-0.329-0.239-0.703-0.359-1.121-0.359h-1.166l-0.718,4.148h1.121c0.657,0,1.219-0.209,1.682-0.628
		C266.257,235.149,266.488,234.521,266.488,233.684z"/>
	<path style="fill:#FFFFFF;" d="M280.01,232.092h-2.915l-2.265,12.938h-3.408l2.265-12.938h-2.915l0.516-2.938h9.238L280.01,232.092
		z"/>
	<path style="fill:#FFFFFF;" d="M291.939,234.85c0,1.301-0.172,2.583-0.516,3.846c-0.344,1.264-0.834,2.396-1.469,3.397
		c-0.636,1.001-1.413,1.809-2.332,2.422c-0.92,0.613-1.955,0.919-3.105,0.919c-0.808,0-1.529-0.146-2.164-0.438
		c-0.636-0.292-1.17-0.703-1.604-1.233c-0.434-0.53-0.763-1.166-0.986-1.906c-0.225-0.74-0.337-1.566-0.337-2.478
		c0-1.301,0.168-2.586,0.505-3.857c0.336-1.271,0.822-2.407,1.457-3.408c0.636-1.001,1.413-1.812,2.333-2.433
		c0.919-0.62,1.962-0.931,3.128-0.931c0.852,0,1.596,0.146,2.23,0.437c0.636,0.292,1.167,0.707,1.593,1.245s0.743,1.181,0.953,1.929
		C291.835,233.108,291.939,233.938,291.939,234.85z M288.374,235.343c0-0.418-0.03-0.83-0.09-1.233
		c-0.06-0.404-0.16-0.755-0.303-1.054c-0.142-0.299-0.333-0.542-0.571-0.729c-0.239-0.187-0.538-0.28-0.897-0.28
		c-0.568,0-1.072,0.232-1.514,0.695c-0.44,0.464-0.811,1.047-1.109,1.75c-0.3,0.703-0.523,1.465-0.673,2.287
		s-0.225,1.584-0.225,2.287c0,0.419,0.034,0.815,0.102,1.188c0.066,0.374,0.171,0.699,0.313,0.976
		c0.142,0.277,0.336,0.493,0.583,0.65c0.247,0.157,0.55,0.235,0.908,0.235c0.538,0,1.023-0.217,1.458-0.65
		c0.433-0.434,0.799-0.987,1.099-1.659c0.299-0.673,0.526-1.405,0.684-2.198C288.296,236.816,288.374,236.061,288.374,235.343z"/>
	<path style="fill:#FFFFFF;" d="M302.456,233.168c-0.209-0.359-0.479-0.635-0.807-0.83c-0.329-0.194-0.74-0.292-1.233-0.292
		c-0.644,0-1.215,0.225-1.716,0.674c-0.501,0.45-0.919,1.015-1.256,1.697c-0.336,0.682-0.591,1.427-0.762,2.236
		c-0.173,0.81-0.258,1.573-0.258,2.292c0,0.45,0.048,0.87,0.146,1.259c0.097,0.39,0.242,0.734,0.438,1.033
		c0.193,0.3,0.44,0.536,0.739,0.708s0.658,0.258,1.077,0.258c0.583,0,1.091-0.128,1.524-0.384l0.561-3.137h-2.107l0.538-2.982h5.135
		l-1.458,8.39c-0.568,0.388-1.222,0.708-1.962,0.962s-1.581,0.38-2.522,0.38c-0.927,0-1.734-0.157-2.422-0.471
		s-1.26-0.743-1.716-1.289s-0.796-1.196-1.02-1.951c-0.225-0.754-0.337-1.573-0.337-2.456c0-1.33,0.184-2.627,0.55-3.89
		s0.882-2.384,1.547-3.364c0.665-0.979,1.465-1.768,2.399-2.366c0.935-0.598,1.97-0.897,3.105-0.897
		c1.062,0,1.933,0.176,2.613,0.527c0.68,0.352,1.185,0.804,1.513,1.357L302.456,233.168z"/>
	<path style="fill:#FFFFFF;" d="M316.718,233.235c0,1.211-0.272,2.228-0.818,3.05s-1.274,1.39-2.187,1.704l1.771,7.041h-3.633
		l-1.322-6.391h-1.166l-1.1,6.391h-3.318l2.758-15.876h4.665c1.404,0,2.48,0.34,3.229,1.02
		C316.344,230.855,316.718,231.875,316.718,233.235z M313.287,233.684c0-0.613-0.165-1.039-0.493-1.278
		c-0.329-0.239-0.703-0.359-1.121-0.359h-1.166l-0.718,4.148h1.121c0.657,0,1.219-0.209,1.682-0.628
		C313.056,235.149,313.287,234.521,313.287,233.684z"/>
	<path style="fill:#FFFFFF;" d="M324.096,245.03l-0.067-2.982h-3.7l-1.188,2.982h-3.588l6.885-15.876h4.328l0.829,15.876H324.096z
		 M323.938,232.585h-0.09l-2.623,6.817h2.848L323.938,232.585z"/>
	<path style="fill:#FFFFFF;" d="M340.667,233.28c0,0.941-0.139,1.779-0.415,2.511c-0.277,0.733-0.662,1.346-1.155,1.839
		s-1.08,0.867-1.76,1.121c-0.681,0.254-1.424,0.381-2.231,0.381h-1.614l-1.032,5.897h-3.363l2.758-15.876h4.53
		c0.538,0,1.065,0.075,1.581,0.224s0.975,0.392,1.379,0.729c0.403,0.336,0.725,0.767,0.964,1.29
		C340.547,231.92,340.667,232.548,340.667,233.28z M337.393,233.773c0-0.538-0.139-0.957-0.415-1.256
		c-0.276-0.299-0.654-0.448-1.132-0.448h-1.144l-0.718,4.283h1.188c0.673,0,1.211-0.231,1.614-0.695
		S337.393,234.566,337.393,233.773z"/>
	<path style="fill:#FFFFFF;" d="M351.34,245.03h-3.431l1.166-6.705h-3.835l-1.166,6.705h-3.431l2.758-15.876h3.409l-1.055,6.099
		h3.835l1.054-6.099h3.453L351.34,245.03z"/>
	<path style="fill:#FFFFFF;" d="M357.686,245.03h-3.476l2.758-15.876h3.477L357.686,245.03z"/>
	<path style="fill:#FFFFFF;" d="M370.221,232.181h-4.148l-0.583,3.296h3.879l-0.493,2.826h-3.856l-0.628,3.632h4.529l-0.538,3.095
		h-7.826l2.758-15.876h7.423L370.221,232.181z"/>
</g>
<g>
	<path style="fill:#FFFFFF;" d="M218.145,109.732c-0.125-0.207-0.278-0.369-0.458-0.485s-0.413-0.175-0.701-0.175
		c-0.359,0-0.683,0.13-0.97,0.391s-0.53,0.588-0.728,0.983c-0.198,0.396-0.349,0.833-0.452,1.314
		c-0.104,0.481-0.155,0.941-0.155,1.381c0,0.575,0.103,1.044,0.31,1.408c0.207,0.364,0.539,0.546,0.997,0.546
		c0.305,0,0.561-0.07,0.768-0.209c0.207-0.139,0.382-0.285,0.525-0.438l0.957,1.536c-0.315,0.323-0.686,0.591-1.112,0.802
		c-0.427,0.211-0.928,0.317-1.502,0.317c-0.503,0-0.95-0.09-1.341-0.27c-0.391-0.18-0.717-0.431-0.977-0.755
		c-0.261-0.323-0.458-0.712-0.593-1.166c-0.134-0.454-0.202-0.955-0.202-1.502c0-0.809,0.11-1.595,0.33-2.358
		c0.22-0.763,0.532-1.439,0.937-2.028s0.887-1.06,1.449-1.415c0.561-0.355,1.179-0.532,1.853-0.532c0.647,0,1.166,0.108,1.557,0.323
		c0.391,0.216,0.698,0.481,0.923,0.795L218.145,109.732z"/>
	<path style="fill:#FFFFFF;" d="M224.802,109.139h-2.493l-0.35,1.981h2.331l-0.296,1.698h-2.318L221.299,115h2.722l-0.323,1.86
		h-4.703l1.658-9.541h4.46L224.802,109.139z"/>
	<path style="fill:#FFFFFF;" d="M232.807,109.502c-0.153-0.179-0.341-0.321-0.566-0.424c-0.225-0.103-0.458-0.155-0.701-0.155
		c-0.126,0-0.258,0.025-0.397,0.074c-0.14,0.049-0.265,0.124-0.377,0.222c-0.112,0.099-0.207,0.222-0.283,0.371
		c-0.077,0.148-0.115,0.326-0.115,0.532c0,0.261,0.079,0.476,0.236,0.647c0.157,0.17,0.393,0.346,0.708,0.525
		c0.18,0.108,0.371,0.236,0.573,0.384c0.202,0.148,0.386,0.323,0.552,0.525s0.303,0.436,0.411,0.701s0.162,0.573,0.162,0.923
		c0,0.548-0.092,1.027-0.276,1.436s-0.431,0.75-0.741,1.024c-0.31,0.274-0.663,0.479-1.058,0.613
		c-0.396,0.135-0.804,0.202-1.226,0.202c-0.584,0-1.119-0.099-1.604-0.296c-0.485-0.198-0.862-0.44-1.132-0.728l1.227-1.549
		c0.179,0.207,0.402,0.375,0.667,0.505c0.265,0.13,0.541,0.196,0.829,0.196c0.144,0,0.288-0.027,0.431-0.081s0.271-0.13,0.384-0.229
		c0.112-0.099,0.202-0.22,0.27-0.364s0.101-0.306,0.101-0.485c0-0.26-0.079-0.492-0.236-0.694c-0.157-0.202-0.416-0.406-0.775-0.613
		c-0.207-0.117-0.407-0.247-0.6-0.391c-0.193-0.144-0.364-0.314-0.512-0.512c-0.148-0.197-0.268-0.422-0.357-0.674
		c-0.09-0.251-0.135-0.543-0.135-0.876c0-0.458,0.081-0.885,0.242-1.28c0.162-0.396,0.386-0.737,0.674-1.024
		s0.633-0.514,1.038-0.681c0.404-0.166,0.849-0.249,1.334-0.249c0.548,0,1.038,0.085,1.469,0.256
		c0.431,0.171,0.768,0.396,1.011,0.674L232.807,109.502z"/>
	<path style="fill:#FFFFFF;" d="M235.852,116.86h-2.089l1.658-9.541h2.089L235.852,116.86z"/>
	<path style="fill:#FFFFFF;" d="M243.573,109.085h-1.751l-1.361,7.775h-2.048l1.361-7.775h-1.752l0.31-1.765h5.552L243.573,109.085z
		"/>
	<path style="fill:#FFFFFF;" d="M248.896,109.139h-2.493l-0.35,1.981h2.331l-0.296,1.698h-2.318L245.393,115h2.722l-0.323,1.86
		h-4.703l1.658-9.541h4.46L248.896,109.139z"/>
	<path style="fill:#FFFFFF;" d="M257.439,109.139h-2.493l-0.351,1.981h2.331l-0.296,1.698h-2.318L253.936,115h2.722l-0.323,1.86
		h-4.703l1.657-9.541h4.461L257.439,109.139z"/>
	<path style="fill:#FFFFFF;" d="M262.829,109.502c-0.153-0.179-0.342-0.321-0.566-0.424c-0.225-0.103-0.458-0.155-0.701-0.155
		c-0.125,0-0.258,0.025-0.397,0.074c-0.139,0.049-0.265,0.124-0.377,0.222c-0.112,0.099-0.207,0.222-0.283,0.371
		c-0.076,0.148-0.114,0.326-0.114,0.532c0,0.261,0.078,0.476,0.235,0.647c0.157,0.17,0.394,0.346,0.708,0.525
		c0.18,0.108,0.37,0.236,0.572,0.384c0.202,0.148,0.387,0.323,0.553,0.525s0.304,0.436,0.411,0.701s0.162,0.573,0.162,0.923
		c0,0.548-0.093,1.027-0.276,1.436c-0.185,0.409-0.432,0.75-0.741,1.024c-0.311,0.274-0.663,0.479-1.058,0.613
		c-0.396,0.135-0.805,0.202-1.227,0.202c-0.584,0-1.118-0.099-1.604-0.296c-0.485-0.198-0.862-0.44-1.132-0.728l1.226-1.549
		c0.18,0.207,0.402,0.375,0.667,0.505c0.266,0.13,0.541,0.196,0.829,0.196c0.144,0,0.287-0.027,0.432-0.081
		c0.144-0.054,0.271-0.13,0.384-0.229c0.112-0.099,0.202-0.22,0.27-0.364s0.101-0.306,0.101-0.485c0-0.26-0.078-0.492-0.235-0.694
		s-0.416-0.406-0.775-0.613c-0.206-0.117-0.406-0.247-0.6-0.391s-0.363-0.314-0.512-0.512c-0.148-0.197-0.268-0.422-0.357-0.674
		c-0.09-0.251-0.135-0.543-0.135-0.876c0-0.458,0.081-0.885,0.243-1.28c0.161-0.396,0.386-0.737,0.674-1.024
		c0.287-0.288,0.633-0.514,1.037-0.681c0.404-0.166,0.85-0.249,1.334-0.249c0.548,0,1.038,0.085,1.469,0.256
		c0.432,0.171,0.769,0.396,1.011,0.674L262.829,109.502z"/>
	<path style="fill:#FFFFFF;" d="M269.701,109.085h-1.752l-1.361,7.775h-2.048l1.36-7.775h-1.751l0.31-1.765h5.552L269.701,109.085z"
		/>
	<path style="fill:#FFFFFF;" d="M278.339,113.33c-0.099,0.53-0.229,1.024-0.391,1.482c-0.161,0.458-0.382,0.858-0.66,1.199
		c-0.278,0.342-0.625,0.609-1.038,0.802c-0.413,0.193-0.921,0.29-1.522,0.29c-0.485,0-0.907-0.067-1.267-0.202
		s-0.658-0.324-0.896-0.566c-0.237-0.243-0.415-0.528-0.532-0.856c-0.116-0.328-0.175-0.689-0.175-1.084
		c0-0.162,0.007-0.333,0.021-0.512c0.013-0.18,0.038-0.364,0.074-0.553l1.051-6.01h2.089l-1.024,5.848
		c-0.027,0.153-0.05,0.303-0.067,0.452c-0.019,0.148-0.027,0.285-0.027,0.411c0,0.315,0.065,0.575,0.195,0.782
		c0.131,0.207,0.362,0.31,0.694,0.31c0.233,0,0.432-0.052,0.593-0.155c0.162-0.103,0.297-0.242,0.404-0.417
		c0.108-0.175,0.198-0.382,0.27-0.62c0.072-0.238,0.13-0.492,0.176-0.761l1.011-5.848h2.075L278.339,113.33z"/>
	<path style="fill:#FFFFFF;" d="M285.616,116.86h-2.224l-1.254-5.943h-0.04l-0.971,5.943h-1.859l1.657-9.541h2.277l1.2,6.023h0.054
		l0.997-6.023h1.819L285.616,116.86z"/>
</g>
<g>
	<path style="fill:#808285;" d="M116.153,419.569h-14.349l-2.017,11.402h13.418l-1.707,9.772H98.158l-2.172,12.565h15.668
		l-1.861,10.704h-27.07l9.541-54.915h25.674L116.153,419.569z"/>
	<path style="fill:#808285;" d="M151.366,419.259h-10.083l-7.834,44.755h-11.79l7.834-44.755H119.41l1.784-10.16h31.957
		L151.366,419.259z"/>
	<path style="fill:#808285;" d="M201.084,443.691c-0.569,3.052-1.318,5.896-2.25,8.532c-0.931,2.638-2.198,4.938-3.8,6.903
		c-1.604,1.966-3.595,3.504-5.973,4.615c-2.379,1.111-5.301,1.668-8.765,1.668c-2.792,0-5.224-0.388-7.291-1.164
		c-2.069-0.775-3.789-1.861-5.158-3.258c-1.371-1.396-2.392-3.037-3.063-4.925c-0.673-1.887-1.008-3.968-1.008-6.244
		c0-0.931,0.039-1.912,0.116-2.947c0.078-1.034,0.219-2.095,0.427-3.181l6.05-34.593h12.022l-5.895,33.662
		c-0.155,0.88-0.285,1.745-0.388,2.599c-0.104,0.854-0.155,1.643-0.155,2.366c0,1.811,0.375,3.31,1.125,4.498
		c0.749,1.19,2.081,1.784,3.994,1.784c1.344,0,2.482-0.297,3.413-0.892c0.931-0.594,1.707-1.396,2.327-2.405
		c0.621-1.008,1.137-2.196,1.551-3.567c0.414-1.369,0.749-2.831,1.009-4.383l5.817-33.662h11.945L201.084,443.691z"/>
	<path style="fill:#808285;" d="M240.951,419.259h-10.083l-7.834,44.755h-11.79l7.834-44.755h-10.083l1.784-10.16h31.957
		L240.951,419.259z"/>
	<path style="fill:#808285;" d="M282.216,428.8c0,4.498-0.595,8.933-1.784,13.302c-1.189,4.37-2.883,8.287-5.08,11.751
		c-2.198,3.465-4.887,6.258-8.066,8.377c-3.181,2.12-6.762,3.181-10.743,3.181c-2.792,0-5.288-0.505-7.485-1.513
		c-2.198-1.009-4.046-2.43-5.546-4.267c-1.5-1.834-2.637-4.033-3.413-6.593c-0.776-2.56-1.164-5.416-1.164-8.57
		c0-4.499,0.582-8.945,1.745-13.342c1.164-4.394,2.843-8.324,5.042-11.789c2.197-3.464,4.886-6.27,8.067-8.416
		c3.18-2.146,6.786-3.219,10.82-3.219c2.947,0,5.519,0.504,7.717,1.513c2.197,1.008,4.033,2.443,5.508,4.305
		c1.474,1.861,2.571,4.085,3.296,6.67C281.854,422.776,282.216,425.646,282.216,428.8z M269.883,430.506
		c0-1.447-0.104-2.87-0.31-4.266c-0.207-1.396-0.557-2.611-1.048-3.646s-1.15-1.874-1.978-2.521
		c-0.827-0.646-1.861-0.969-3.103-0.969c-1.966,0-3.711,0.802-5.235,2.404c-1.526,1.604-2.806,3.62-3.84,6.05
		c-1.035,2.431-1.811,5.068-2.326,7.911c-0.518,2.845-0.776,5.481-0.776,7.912c0,1.448,0.116,2.818,0.35,4.11
		c0.232,1.293,0.594,2.418,1.086,3.374c0.49,0.958,1.163,1.707,2.017,2.25c0.853,0.543,1.9,0.814,3.141,0.814
		c1.862,0,3.542-0.749,5.042-2.25c1.499-1.499,2.766-3.412,3.801-5.739c1.034-2.327,1.822-4.86,2.365-7.602
		C269.611,435.6,269.883,432.988,269.883,430.506z"/>
	<path style="fill:#808285;" d="M324.333,423.37c0,3.258-0.479,6.154-1.435,8.688c-0.958,2.534-2.289,4.653-3.995,6.36
		c-1.706,1.706-3.736,2.999-6.089,3.878c-2.354,0.88-4.925,1.318-7.718,1.318h-5.584l-3.568,20.399H284.31l9.541-54.915h15.668
		c1.861,0,3.684,0.259,5.468,0.775c1.784,0.518,3.374,1.357,4.771,2.521c1.396,1.164,2.507,2.65,3.335,4.46
		C323.918,418.665,324.333,420.837,324.333,423.37z M313.009,425.076c0-1.861-0.479-3.309-1.436-4.344
		c-0.957-1.033-2.263-1.551-3.917-1.551h-3.955l-2.482,14.814h4.111c2.326,0,4.188-0.801,5.584-2.404
		C312.311,429.989,313.009,427.817,313.009,425.076z"/>
	<path style="fill:#808285;" d="M336.277,464.014h-12.022l9.541-54.915h12.022L336.277,464.014z"/>
	<path style="fill:#808285;" d="M379.636,419.569h-14.35l-2.017,11.402h13.419l-1.707,9.772h-13.341l-2.172,12.565h15.668
		l-1.861,10.704h-27.07l9.541-54.915h25.673L379.636,419.569z"/>
	<path style="fill:#808285;" d="M410.66,421.664c-0.88-1.034-1.966-1.849-3.258-2.443c-1.293-0.594-2.638-0.893-4.033-0.893
		c-0.725,0-1.487,0.144-2.288,0.427c-0.803,0.285-1.526,0.712-2.172,1.28c-0.647,0.569-1.19,1.279-1.629,2.133
		c-0.44,0.854-0.659,1.875-0.659,3.063c0,1.501,0.452,2.741,1.357,3.724c0.903,0.982,2.261,1.991,4.071,3.024
		c1.034,0.621,2.134,1.357,3.297,2.211c1.163,0.853,2.223,1.861,3.18,3.024c0.957,1.164,1.746,2.509,2.366,4.034
		s0.931,3.296,0.931,5.312c0,3.155-0.531,5.908-1.59,8.261c-1.061,2.354-2.482,4.318-4.267,5.895
		c-1.783,1.578-3.813,2.754-6.088,3.529c-2.276,0.776-4.629,1.164-7.059,1.164c-3.362,0-6.438-0.57-9.23-1.707
		s-4.964-2.532-6.516-4.188l7.059-8.92c1.034,1.19,2.313,2.16,3.84,2.909c1.524,0.75,3.114,1.124,4.77,1.124
		c0.827,0,1.654-0.154,2.482-0.465c0.826-0.311,1.563-0.749,2.211-1.318c0.646-0.568,1.163-1.267,1.551-2.095
		c0.388-0.826,0.582-1.757,0.582-2.792c0-1.499-0.453-2.831-1.357-3.995c-0.905-1.163-2.393-2.339-4.46-3.528
		c-1.19-0.672-2.341-1.422-3.452-2.25c-1.112-0.826-2.094-1.81-2.947-2.947c-0.853-1.137-1.539-2.43-2.056-3.878
		c-0.517-1.447-0.775-3.128-0.775-5.042c0-2.637,0.466-5.093,1.396-7.368s2.223-4.239,3.878-5.896
		c1.654-1.654,3.646-2.959,5.973-3.917c2.327-0.956,4.887-1.435,7.679-1.435c3.153,0,5.973,0.492,8.454,1.474
		c2.482,0.982,4.422,2.276,5.817,3.878L410.66,421.664z"/>
</g>
<g>
	<g>
		<path style="fill:#FFFFFF;" d="M113.43,499.109c-0.701-1.149-1.55-2.05-2.55-2.699c-1-0.649-2.3-0.976-3.899-0.976
			c-2,0-3.8,0.726-5.399,2.175c-1.6,1.451-2.95,3.275-4.049,5.475c-1.1,2.2-1.938,4.637-2.512,7.311
			c-0.575,2.675-0.862,5.237-0.862,7.687c0,3.2,0.574,5.812,1.725,7.836c1.149,2.024,3,3.037,5.549,3.037
			c1.699,0,3.124-0.387,4.274-1.162c1.149-0.774,2.124-1.587,2.924-2.438l5.324,8.549c-1.75,1.8-3.812,3.287-6.187,4.462
			c-2.375,1.174-5.162,1.762-8.361,1.762c-2.8,0-5.287-0.5-7.461-1.5c-2.174-0.999-3.987-2.399-5.437-4.199
			c-1.451-1.799-2.549-3.961-3.299-6.486c-0.75-2.523-1.125-5.311-1.125-8.36c0-4.5,0.612-8.873,1.837-13.123
			c1.224-4.248,2.962-8.011,5.211-11.285s4.937-5.898,8.061-7.874c3.124-1.975,6.562-2.962,10.311-2.962
			c3.599,0,6.486,0.6,8.661,1.8c2.175,1.199,3.887,2.675,5.137,4.424L113.43,499.109z"/>
		<path style="fill:#FFFFFF;" d="M160.747,504.733c0,4.35-0.575,8.637-1.725,12.86c-1.15,4.225-2.788,8.012-4.912,11.36
			c-2.125,3.35-4.724,6.049-7.799,8.099c-3.074,2.049-6.537,3.074-10.386,3.074c-2.699,0-5.112-0.487-7.236-1.462
			c-2.125-0.975-3.913-2.35-5.362-4.124c-1.451-1.774-2.549-3.899-3.299-6.374s-1.125-5.236-1.125-8.286
			c0-4.35,0.562-8.648,1.688-12.897c1.125-4.249,2.749-8.049,4.874-11.398c2.124-3.349,4.724-6.062,7.799-8.136
			c3.074-2.074,6.561-3.112,10.46-3.112c2.85,0,5.336,0.487,7.461,1.462c2.124,0.976,3.899,2.362,5.324,4.162
			s2.486,3.949,3.187,6.449C160.396,498.91,160.747,501.685,160.747,504.733z M148.824,506.383c0-1.398-0.101-2.774-0.3-4.124
			c-0.201-1.35-0.538-2.523-1.013-3.524c-0.476-0.999-1.113-1.812-1.912-2.438c-0.8-0.624-1.799-0.937-3-0.937
			c-1.9,0-3.587,0.775-5.062,2.324c-1.475,1.55-2.712,3.5-3.712,5.849c-1,2.351-1.75,4.9-2.25,7.649
			c-0.5,2.749-0.75,5.299-0.75,7.648c0,1.4,0.113,2.725,0.338,3.974c0.225,1.251,0.574,2.338,1.05,3.263
			c0.474,0.926,1.125,1.649,1.949,2.174c0.825,0.525,1.837,0.788,3.037,0.788c1.8,0,3.424-0.725,4.874-2.175
			c1.45-1.449,2.674-3.3,3.675-5.549c0.999-2.25,1.762-4.698,2.287-7.349C148.562,511.308,148.824,508.782,148.824,506.383z"/>
		<path style="fill:#FFFFFF;" d="M198.09,538.777h-12.373l-6.974-33.069h-0.225l-5.399,33.069h-10.348l9.223-53.091h12.673
			l6.674,33.52h0.3l5.549-33.52h10.123L198.09,538.777z"/>
		<path style="fill:#FFFFFF;" d="M240.682,499.109c-0.701-1.149-1.55-2.05-2.55-2.699c-1-0.649-2.3-0.976-3.899-0.976
			c-2,0-3.8,0.726-5.399,2.175c-1.6,1.451-2.95,3.275-4.049,5.475c-1.1,2.2-1.938,4.637-2.512,7.311
			c-0.575,2.675-0.862,5.237-0.862,7.687c0,3.2,0.574,5.812,1.725,7.836c1.149,2.024,3,3.037,5.549,3.037
			c1.699,0,3.124-0.387,4.274-1.162c1.149-0.774,2.124-1.587,2.924-2.438l5.324,8.549c-1.75,1.8-3.812,3.287-6.187,4.462
			c-2.375,1.174-5.162,1.762-8.361,1.762c-2.8,0-5.287-0.5-7.461-1.5c-2.174-0.999-3.987-2.399-5.437-4.199
			c-1.451-1.799-2.549-3.961-3.299-6.486c-0.75-2.523-1.125-5.311-1.125-8.36c0-4.5,0.612-8.873,1.837-13.123
			c1.224-4.248,2.962-8.011,5.211-11.285s4.937-5.898,8.061-7.874c3.124-1.975,6.562-2.962,10.311-2.962
			c3.599,0,6.486,0.6,8.661,1.8c2.175,1.199,3.887,2.675,5.137,4.424L240.682,499.109z"/>
		<path style="fill:#FFFFFF;" d="M284.773,499.334c0,4.05-0.912,7.45-2.736,10.198c-1.826,2.75-4.264,4.649-7.312,5.699
			l5.926,23.546h-12.148l-4.424-21.371h-3.9l-3.674,21.371h-11.098l9.223-53.091h15.598c4.697,0,8.297,1.138,10.797,3.412
			C283.523,491.374,284.773,494.786,284.773,499.334z M273.301,500.834c0-2.049-0.551-3.474-1.65-4.274
			c-1.1-0.799-2.35-1.199-3.748-1.199h-3.9l-2.398,13.872h3.748c2.199,0,4.074-0.699,5.625-2.1
			C272.525,505.734,273.301,503.635,273.301,500.834z"/>
		<path style="fill:#FFFFFF;" d="M317.918,495.81h-13.873l-1.949,11.023h12.973l-1.649,9.448h-12.898l-2.1,12.147h15.147
			l-1.8,10.349h-26.17l9.224-53.091h24.82L317.918,495.81z M304.646,481.487l-9.599-10.798h9.448l7.724,10.798H304.646z"/>
		<path style="fill:#FFFFFF;" d="M351.961,495.51h-9.748l-7.574,43.268h-11.397l7.573-43.268h-9.748l1.725-9.823h30.895
			L351.961,495.51z"/>
		<path style="fill:#FFFFFF;" d="M381.58,495.81h-13.873l-1.949,11.023h12.973l-1.649,9.448h-12.898l-2.1,12.147h15.147l-1.8,10.349
			h-26.17l9.224-53.091h24.82L381.58,495.81z"/>
		<path style="fill:#FFFFFF;" d="M411.573,497.835c-0.851-1-1.9-1.787-3.149-2.362c-1.25-0.574-2.549-0.862-3.899-0.862
			c-0.7,0-1.438,0.138-2.212,0.412c-0.775,0.275-1.475,0.688-2.1,1.237c-0.625,0.551-1.15,1.237-1.574,2.062
			c-0.426,0.824-0.638,1.812-0.638,2.962c0,1.45,0.438,2.65,1.312,3.599c0.874,0.951,2.187,1.926,3.937,2.925
			c1,0.6,2.062,1.312,3.188,2.138c1.124,0.824,2.148,1.799,3.074,2.924c0.924,1.125,1.687,2.426,2.287,3.899
			c0.6,1.476,0.899,3.188,0.899,5.137c0,3.05-0.513,5.712-1.537,7.986c-1.025,2.275-2.399,4.175-4.124,5.699
			c-1.725,1.525-3.688,2.661-5.887,3.411c-2.2,0.75-4.475,1.125-6.823,1.125c-3.251,0-6.225-0.551-8.924-1.649
			c-2.699-1.1-4.799-2.449-6.299-4.05l6.823-8.623c1,1.15,2.237,2.088,3.712,2.812c1.475,0.726,3.012,1.088,4.612,1.088
			c0.799,0,1.599-0.15,2.399-0.45c0.799-0.3,1.512-0.724,2.137-1.274c0.625-0.55,1.125-1.225,1.5-2.024s0.562-1.699,0.562-2.7
			c0-1.449-0.438-2.737-1.312-3.861c-0.875-1.125-2.312-2.262-4.312-3.412c-1.15-0.649-2.263-1.374-3.337-2.175
			c-1.075-0.799-2.024-1.749-2.85-2.85c-0.825-1.099-1.488-2.349-1.987-3.749c-0.5-1.399-0.75-3.024-0.75-4.874
			c0-2.55,0.45-4.924,1.351-7.124c0.899-2.199,2.148-4.099,3.749-5.699c1.6-1.599,3.524-2.861,5.773-3.786
			c2.25-0.925,4.725-1.388,7.424-1.388c3.049,0,5.774,0.476,8.174,1.425c2.399,0.95,4.274,2.2,5.624,3.749L411.573,497.835z"/>
	</g>
</g>
<g>
	<path style="fill:#FFFFFF;" d="M131.62,261.564h-4.408l1.572-9.046h1.967l-1.252,7.231h2.44L131.62,261.564z"/>
	<path style="fill:#FFFFFF;" d="M134.545,261.564h-1.98l1.572-9.046h1.98L134.545,261.564z"/>
	<path style="fill:#FFFFFF;" d="M142.659,254.588c0,0.307-0.041,0.583-0.122,0.831s-0.191,0.464-0.332,0.651
		c-0.141,0.188-0.303,0.345-0.486,0.473c-0.183,0.128-0.381,0.226-0.594,0.294l0.013,0.025c0.153,0.043,0.298,0.111,0.435,0.205
		c0.136,0.094,0.26,0.213,0.37,0.358c0.111,0.145,0.198,0.313,0.262,0.504c0.064,0.192,0.096,0.407,0.096,0.646
		c0,0.528-0.092,0.979-0.274,1.354c-0.184,0.375-0.424,0.684-0.722,0.926c-0.298,0.243-0.632,0.421-1.003,0.537
		c-0.371,0.115-0.748,0.172-1.131,0.172h-2.99l1.572-9.046h2.632c0.264,0,0.53,0.036,0.798,0.108
		c0.269,0.072,0.511,0.189,0.729,0.352c0.217,0.162,0.396,0.375,0.537,0.639S142.659,254.205,142.659,254.588z M140.423,258.574
		c0-0.341-0.101-0.582-0.3-0.722c-0.2-0.14-0.42-0.21-0.658-0.21h-0.779l-0.396,2.274h0.792c0.392,0,0.713-0.113,0.965-0.338
		C140.297,259.352,140.423,259.017,140.423,258.574z M140.857,254.984c0-0.272-0.085-0.479-0.255-0.62s-0.379-0.211-0.626-0.211
		h-0.677l-0.358,2.044h0.729c0.136,0,0.276-0.023,0.421-0.07s0.272-0.119,0.383-0.217c0.111-0.098,0.202-0.224,0.275-0.377
		C140.821,255.38,140.857,255.197,140.857,254.984z"/>
	<path style="fill:#FFFFFF;" d="M149.763,254.843c0,0.69-0.156,1.27-0.466,1.738c-0.311,0.468-0.727,0.792-1.246,0.971l1.01,4.012
		h-2.07l-0.754-3.642h-0.665l-0.626,3.642h-1.891l1.572-9.046h2.657c0.801,0,1.414,0.194,1.84,0.581
		C149.55,253.487,149.763,254.068,149.763,254.843z M147.808,255.099c0-0.349-0.094-0.592-0.281-0.728
		c-0.188-0.136-0.401-0.205-0.639-0.205h-0.665l-0.409,2.364h0.639c0.375,0,0.694-0.119,0.958-0.358
		C147.676,255.934,147.808,255.576,147.808,255.099z"/>
	<path style="fill:#FFFFFF;" d="M155.41,254.243h-2.364l-0.332,1.878h2.21l-0.281,1.61h-2.198l-0.357,2.07h2.581l-0.307,1.763
		h-4.459l1.572-9.046h4.229L155.41,254.243z"/>
	<path style="fill:#FFFFFF;" d="M163.152,257.041c0,0.315-0.06,0.609-0.179,0.881c-0.119,0.273-0.281,0.511-0.485,0.716
		c-0.205,0.204-0.443,0.366-0.716,0.485c-0.272,0.12-0.566,0.179-0.881,0.179c-0.315,0-0.609-0.059-0.882-0.179
		c-0.272-0.119-0.511-0.281-0.715-0.485c-0.205-0.205-0.366-0.443-0.485-0.716c-0.12-0.272-0.179-0.566-0.179-0.881
		s0.06-0.609,0.179-0.882c0.119-0.272,0.281-0.511,0.485-0.715s0.443-0.366,0.715-0.485c0.272-0.12,0.566-0.179,0.882-0.179
		c0.315,0,0.609,0.06,0.881,0.179c0.272,0.119,0.511,0.281,0.716,0.485c0.204,0.205,0.366,0.443,0.485,0.715
		C163.092,256.432,163.152,256.726,163.152,257.041z"/>
	<path style="fill:#FFFFFF;" d="M173.578,254.843c0,0.69-0.156,1.27-0.466,1.738c-0.311,0.468-0.727,0.792-1.246,0.971l1.01,4.012
		h-2.07l-0.754-3.642h-0.665l-0.626,3.642h-1.891l1.572-9.046h2.657c0.801,0,1.414,0.194,1.84,0.581
		C173.365,253.487,173.578,254.068,173.578,254.843z M171.623,255.099c0-0.349-0.094-0.592-0.281-0.728
		c-0.188-0.136-0.401-0.205-0.639-0.205h-0.665l-0.409,2.364h0.639c0.375,0,0.694-0.119,0.958-0.358
		C171.491,255.934,171.623,255.576,171.623,255.099z"/>
	<path style="fill:#FFFFFF;" d="M179.226,254.243h-2.364l-0.332,1.878h2.21l-0.281,1.61h-2.198l-0.357,2.07h2.581l-0.307,1.763
		h-4.459l1.572-9.046h4.229L179.226,254.243z M177.999,251.79h-1.291l1.431-1.84h1.623L177.999,251.79z"/>
	<path style="fill:#FFFFFF;" d="M185.933,254.869c0,0.537-0.079,1.014-0.236,1.431c-0.158,0.417-0.377,0.767-0.658,1.048
		c-0.281,0.281-0.616,0.494-1.003,0.639c-0.388,0.145-0.811,0.217-1.271,0.217h-0.92l-0.588,3.36h-1.917l1.572-9.046h2.581
		c0.307,0,0.607,0.042,0.901,0.127c0.294,0.085,0.556,0.224,0.786,0.416c0.23,0.191,0.413,0.437,0.55,0.734
		C185.865,254.094,185.933,254.452,185.933,254.869z M184.068,255.15c0-0.307-0.079-0.545-0.236-0.715
		c-0.158-0.17-0.373-0.256-0.646-0.256h-0.651l-0.409,2.44h0.677c0.383,0,0.69-0.132,0.92-0.396
		C183.953,255.959,184.068,255.602,184.068,255.15z"/>
	<path style="fill:#FFFFFF;" d="M190.329,261.564h-4.408l1.572-9.046h1.967l-1.252,7.231h2.44L190.329,261.564z"/>
	<path style="fill:#FFFFFF;" d="M193.254,261.564h-1.98l1.572-9.046h1.98L193.254,261.564z"/>
	<path style="fill:#FFFFFF;" d="M200.512,254.805c-0.12-0.196-0.264-0.35-0.435-0.46c-0.17-0.111-0.392-0.167-0.665-0.167
		c-0.341,0-0.647,0.124-0.92,0.371s-0.502,0.558-0.69,0.933c-0.188,0.375-0.33,0.791-0.428,1.246
		c-0.098,0.456-0.147,0.892-0.147,1.31c0,0.545,0.098,0.99,0.293,1.335c0.196,0.345,0.511,0.518,0.946,0.518
		c0.29,0,0.532-0.066,0.728-0.198c0.196-0.132,0.362-0.271,0.499-0.416l0.907,1.457c-0.298,0.307-0.65,0.56-1.054,0.76
		c-0.405,0.2-0.879,0.3-1.425,0.3c-0.477,0-0.9-0.085-1.271-0.255c-0.371-0.17-0.68-0.409-0.926-0.716
		c-0.248-0.307-0.435-0.675-0.562-1.105c-0.127-0.43-0.191-0.905-0.191-1.425c0-0.767,0.104-1.512,0.313-2.236
		c0.208-0.724,0.504-1.365,0.888-1.923s0.841-1.005,1.374-1.342c0.532-0.336,1.118-0.504,1.757-0.504
		c0.613,0,1.105,0.102,1.476,0.307c0.371,0.204,0.662,0.456,0.875,0.753L200.512,254.805z"/>
	<path style="fill:#FFFFFF;" d="M205.226,261.564l-0.038-1.699h-2.108l-0.677,1.699h-2.044l3.923-9.046h2.466l0.473,9.046H205.226z
		 M205.137,254.473h-0.051l-1.495,3.884h1.623L205.137,254.473z"/>
	<path style="fill:#FFFFFF;" d="M214.553,254.588c0,0.307-0.041,0.583-0.122,0.831s-0.191,0.464-0.332,0.651
		c-0.141,0.188-0.303,0.345-0.486,0.473c-0.183,0.128-0.381,0.226-0.594,0.294l0.013,0.025c0.153,0.043,0.298,0.111,0.435,0.205
		c0.136,0.094,0.26,0.213,0.37,0.358c0.111,0.145,0.198,0.313,0.262,0.504c0.064,0.192,0.096,0.407,0.096,0.646
		c0,0.528-0.092,0.979-0.274,1.354c-0.184,0.375-0.424,0.684-0.722,0.926c-0.298,0.243-0.632,0.421-1.003,0.537
		c-0.371,0.115-0.748,0.172-1.131,0.172h-2.99l1.572-9.046h2.632c0.264,0,0.53,0.036,0.798,0.108
		c0.269,0.072,0.511,0.189,0.729,0.352c0.217,0.162,0.396,0.375,0.537,0.639S214.553,254.205,214.553,254.588z M212.317,258.574
		c0-0.341-0.101-0.582-0.3-0.722c-0.2-0.14-0.42-0.21-0.658-0.21h-0.779l-0.396,2.274h0.792c0.392,0,0.713-0.113,0.965-0.338
		C212.191,259.352,212.317,259.017,212.317,258.574z M212.751,254.984c0-0.272-0.085-0.479-0.255-0.62s-0.379-0.211-0.626-0.211
		h-0.677l-0.358,2.044h0.729c0.136,0,0.276-0.023,0.421-0.07s0.272-0.119,0.383-0.217c0.111-0.098,0.202-0.224,0.275-0.377
		C212.715,255.38,212.751,255.197,212.751,254.984z"/>
	<path style="fill:#FFFFFF;" d="M219.357,261.564h-4.408l1.572-9.046h1.967l-1.252,7.231h2.44L219.357,261.564z"/>
	<path style="fill:#FFFFFF;" d="M225.809,254.243h-2.364l-0.332,1.878h2.21l-0.281,1.61h-2.198l-0.357,2.07h2.581l-0.307,1.763
		h-4.459l1.572-9.046h4.229L225.809,254.243z"/>
	<path style="fill:#FFFFFF;" d="M233.552,257.041c0,0.315-0.06,0.609-0.179,0.881c-0.119,0.273-0.281,0.511-0.485,0.716
		c-0.205,0.204-0.443,0.366-0.716,0.485c-0.272,0.12-0.566,0.179-0.881,0.179c-0.315,0-0.609-0.059-0.882-0.179
		c-0.272-0.119-0.511-0.281-0.715-0.485c-0.205-0.205-0.366-0.443-0.485-0.716c-0.12-0.272-0.179-0.566-0.179-0.881
		s0.06-0.609,0.179-0.882c0.119-0.272,0.281-0.511,0.485-0.715s0.443-0.366,0.715-0.485c0.272-0.12,0.566-0.179,0.882-0.179
		c0.315,0,0.609,0.06,0.881,0.179c0.272,0.119,0.511,0.281,0.716,0.485c0.204,0.205,0.366,0.443,0.485,0.715
		C233.492,256.432,233.552,256.726,233.552,257.041z"/>
	<path style="fill:#FFFFFF;" d="M239.25,261.564h-1.98l1.572-9.046h1.98L239.25,261.564z"/>
	<path style="fill:#FFFFFF;" d="M246.903,261.564h-2.108l-1.188-5.635h-0.039l-0.92,5.635h-1.763l1.572-9.046h2.159l1.137,5.711
		h0.051l0.946-5.711h1.725L246.903,261.564z"/>
	<path style="fill:#FFFFFF;" d="M255.643,256.044c0,0.639-0.076,1.286-0.23,1.942c-0.152,0.656-0.404,1.248-0.754,1.776
		c-0.35,0.528-0.809,0.96-1.379,1.297c-0.57,0.337-1.277,0.505-2.121,0.505h-2.62l1.572-9.046h2.39c0.562,0,1.043,0.085,1.443,0.255
		s0.727,0.411,0.977,0.722c0.252,0.311,0.436,0.684,0.551,1.118S255.643,255.525,255.643,256.044z M253.637,256.207
		c0-0.282-0.023-0.545-0.07-0.789c-0.047-0.244-0.123-0.454-0.23-0.629c-0.105-0.175-0.242-0.314-0.408-0.417
		c-0.166-0.103-0.369-0.154-0.607-0.154h-0.549l-0.971,5.647h0.575c0.375,0,0.703-0.111,0.984-0.333
		c0.281-0.223,0.518-0.509,0.709-0.86c0.191-0.351,0.334-0.742,0.428-1.174S253.637,256.635,253.637,256.207z"/>
	<path style="fill:#FFFFFF;" d="M261.494,254.243h-2.363l-0.333,1.878h2.211l-0.281,1.61h-2.197l-0.358,2.07h2.581l-0.307,1.763
		h-4.459l1.571-9.046h4.229L261.494,254.243z M260.268,251.79h-1.29l1.431-1.84h1.623L260.268,251.79z"/>
	<path style="fill:#FFFFFF;" d="M268.202,254.869c0,0.537-0.079,1.014-0.236,1.431c-0.157,0.417-0.377,0.767-0.658,1.048
		s-0.615,0.494-1.003,0.639c-0.388,0.145-0.812,0.217-1.271,0.217h-0.92l-0.587,3.36h-1.917l1.571-9.046h2.581
		c0.307,0,0.607,0.042,0.901,0.127c0.293,0.085,0.556,0.224,0.785,0.416c0.23,0.191,0.413,0.437,0.55,0.734
		C268.134,254.094,268.202,254.452,268.202,254.869z M266.337,255.15c0-0.307-0.079-0.545-0.236-0.715
		c-0.158-0.17-0.373-0.256-0.646-0.256h-0.651l-0.409,2.44h0.678c0.383,0,0.689-0.132,0.92-0.396
		C266.222,255.959,266.337,255.602,266.337,255.15z"/>
	<path style="fill:#FFFFFF;" d="M273.696,254.243h-2.363L271,256.121h2.211l-0.281,1.61h-2.197l-0.358,2.07h2.581l-0.307,1.763
		h-4.459l1.571-9.046h4.229L273.696,254.243z"/>
	<path style="fill:#FFFFFF;" d="M279.829,261.564h-2.107l-1.188-5.635h-0.038l-0.92,5.635h-1.764l1.571-9.046h2.159l1.138,5.711
		h0.051l0.945-5.711h1.726L279.829,261.564z"/>
	<path style="fill:#FFFFFF;" d="M288.568,256.044c0,0.639-0.076,1.286-0.229,1.942c-0.153,0.656-0.404,1.248-0.754,1.776
		c-0.35,0.528-0.81,0.96-1.38,1.297c-0.57,0.337-1.277,0.505-2.121,0.505h-2.619l1.571-9.046h2.39c0.562,0,1.043,0.085,1.443,0.255
		s0.727,0.411,0.978,0.722c0.251,0.311,0.435,0.684,0.55,1.118S288.568,255.525,288.568,256.044z M286.562,256.207
		c0-0.282-0.023-0.545-0.07-0.789c-0.047-0.244-0.123-0.454-0.229-0.629s-0.243-0.314-0.409-0.417
		c-0.166-0.103-0.368-0.154-0.606-0.154h-0.55l-0.971,5.647h0.575c0.374,0,0.702-0.111,0.983-0.333
		c0.281-0.223,0.518-0.509,0.709-0.86c0.191-0.351,0.334-0.742,0.428-1.174S286.562,256.635,286.562,256.207z"/>
	<path style="fill:#FFFFFF;" d="M292.67,261.564l-0.039-1.699h-2.107l-0.678,1.699h-2.044l3.922-9.046h2.467l0.473,9.046H292.67z
		 M292.58,254.473h-0.051l-1.495,3.884h1.623L292.58,254.473z"/>
	<path style="fill:#FFFFFF;" d="M301.537,261.564h-2.107l-1.188-5.635h-0.038l-0.92,5.635h-1.764l1.571-9.046h2.159l1.138,5.711
		h0.051l0.945-5.711h1.726L301.537,261.564z"/>
	<path style="fill:#FFFFFF;" d="M308.858,254.192h-1.661l-1.29,7.372h-1.942l1.291-7.372h-1.661l0.294-1.674h5.264L308.858,254.192z
		"/>
	<path style="fill:#FFFFFF;" d="M315.72,257.041c0,0.315-0.06,0.609-0.179,0.881c-0.12,0.273-0.281,0.511-0.486,0.716
		c-0.204,0.204-0.442,0.366-0.715,0.485c-0.273,0.12-0.567,0.179-0.882,0.179c-0.315,0-0.609-0.059-0.882-0.179
		c-0.272-0.119-0.511-0.281-0.716-0.485c-0.204-0.205-0.366-0.443-0.485-0.716c-0.119-0.272-0.179-0.566-0.179-0.881
		s0.06-0.609,0.179-0.882c0.119-0.272,0.281-0.511,0.485-0.715c0.205-0.205,0.443-0.366,0.716-0.485
		c0.272-0.12,0.566-0.179,0.882-0.179c0.314,0,0.608,0.06,0.882,0.179c0.272,0.119,0.511,0.281,0.715,0.485
		c0.205,0.205,0.366,0.443,0.486,0.715C315.66,256.432,315.72,256.726,315.72,257.041z"/>
	<path style="fill:#FFFFFF;" d="M323.271,261.564l-0.039-1.699h-2.107l-0.678,1.699h-2.044l3.922-9.046h2.467l0.473,9.046H323.271z
		 M323.181,254.473h-0.051l-1.495,3.884h1.623L323.181,254.473z"/>
	<path style="fill:#FFFFFF;" d="M332.443,258.216c-0.094,0.503-0.217,0.971-0.37,1.406c-0.153,0.434-0.362,0.813-0.626,1.137
		c-0.265,0.324-0.592,0.577-0.984,0.76c-0.392,0.183-0.873,0.275-1.443,0.275c-0.46,0-0.86-0.064-1.201-0.191
		c-0.341-0.128-0.624-0.307-0.85-0.537s-0.394-0.5-0.505-0.811c-0.11-0.311-0.166-0.654-0.166-1.029c0-0.153,0.007-0.315,0.02-0.485
		s0.036-0.345,0.07-0.524l0.996-5.698h1.98l-0.971,5.545c-0.025,0.145-0.047,0.288-0.064,0.428c-0.017,0.141-0.025,0.271-0.025,0.39
		c0,0.298,0.062,0.545,0.186,0.741c0.123,0.196,0.343,0.293,0.658,0.293c0.222,0,0.408-0.049,0.562-0.146
		c0.153-0.098,0.28-0.23,0.383-0.396s0.188-0.362,0.256-0.587c0.067-0.226,0.123-0.466,0.166-0.722l0.958-5.545h1.968
		L332.443,258.216z"/>
	<path style="fill:#FFFFFF;" d="M339.011,254.192h-1.661l-1.29,7.372h-1.942l1.291-7.372h-1.661l0.294-1.674h5.264L339.011,254.192z
		"/>
	<path style="fill:#FFFFFF;" d="M345.809,255.763c0,0.741-0.098,1.472-0.293,2.191c-0.196,0.72-0.476,1.365-0.837,1.936
		c-0.362,0.571-0.806,1.031-1.329,1.38c-0.524,0.349-1.114,0.524-1.77,0.524c-0.46,0-0.871-0.083-1.233-0.249
		s-0.666-0.4-0.913-0.703s-0.435-0.665-0.562-1.086c-0.128-0.421-0.191-0.892-0.191-1.412c0-0.741,0.096-1.474,0.287-2.198
		c0.191-0.724,0.469-1.371,0.831-1.942c0.361-0.571,0.805-1.033,1.328-1.386c0.524-0.354,1.118-0.53,1.783-0.53
		c0.485,0,0.908,0.083,1.271,0.249s0.665,0.402,0.907,0.709c0.243,0.307,0.424,0.673,0.543,1.099
		C345.749,254.771,345.809,255.244,345.809,255.763z M343.777,256.044c0-0.238-0.017-0.473-0.051-0.703s-0.092-0.43-0.173-0.601
		s-0.189-0.309-0.325-0.416c-0.137-0.106-0.307-0.16-0.512-0.16c-0.323,0-0.611,0.132-0.862,0.396
		c-0.251,0.264-0.462,0.597-0.633,0.997c-0.17,0.401-0.298,0.835-0.383,1.303c-0.085,0.469-0.128,0.903-0.128,1.304
		c0,0.238,0.02,0.464,0.058,0.677c0.038,0.213,0.098,0.398,0.179,0.556s0.191,0.281,0.332,0.371
		c0.141,0.089,0.313,0.134,0.518,0.134c0.307,0,0.584-0.123,0.831-0.371c0.247-0.247,0.455-0.562,0.626-0.945
		c0.17-0.383,0.3-0.8,0.39-1.252C343.732,256.883,343.777,256.453,343.777,256.044z"/>
	<path style="fill:#FFFFFF;" d="M351.801,254.805c-0.119-0.205-0.272-0.362-0.46-0.473c-0.188-0.11-0.422-0.166-0.703-0.166
		c-0.366,0-0.691,0.128-0.978,0.384c-0.285,0.256-0.523,0.578-0.715,0.967s-0.337,0.813-0.435,1.274
		c-0.098,0.461-0.147,0.896-0.147,1.306c0,0.256,0.028,0.495,0.084,0.717c0.055,0.222,0.138,0.418,0.249,0.589
		c0.11,0.171,0.251,0.305,0.421,0.404c0.171,0.098,0.375,0.147,0.613,0.147c0.333,0,0.622-0.073,0.869-0.219l0.319-1.787h-1.201
		l0.307-1.7h2.926l-0.83,4.781c-0.324,0.221-0.696,0.403-1.118,0.548s-0.9,0.217-1.438,0.217c-0.528,0-0.988-0.089-1.38-0.269
		c-0.392-0.179-0.718-0.423-0.978-0.734s-0.453-0.682-0.581-1.112c-0.128-0.43-0.191-0.896-0.191-1.399
		c0-0.758,0.104-1.497,0.312-2.217c0.209-0.72,0.503-1.358,0.882-1.917c0.379-0.558,0.835-1.007,1.367-1.348
		c0.532-0.34,1.122-0.511,1.77-0.511c0.604,0,1.101,0.1,1.488,0.3s0.676,0.458,0.863,0.773L351.801,254.805z"/>
	<path style="fill:#FFFFFF;" d="M358.726,254.243h-2.363l-0.333,1.878h2.211l-0.281,1.61h-2.197l-0.358,2.07h2.581l-0.307,1.763
		h-4.459l1.571-9.046h4.229L358.726,254.243z M357.499,251.79h-1.29l1.431-1.84h1.623L357.499,251.79z"/>
	<path style="fill:#FFFFFF;" d="M365.549,254.843c0,0.69-0.155,1.27-0.467,1.738c-0.311,0.468-0.726,0.792-1.245,0.971l1.009,4.012
		h-2.069l-0.754-3.642h-0.665l-0.626,3.642h-1.891l1.571-9.046h2.658c0.8,0,1.413,0.194,1.84,0.581
		C365.336,253.487,365.549,254.068,365.549,254.843z M363.594,255.099c0-0.349-0.094-0.592-0.281-0.728s-0.4-0.205-0.639-0.205
		h-0.664l-0.409,2.364h0.639c0.375,0,0.694-0.119,0.959-0.358C363.462,255.934,363.594,255.576,363.594,255.099z"/>
	<path style="fill:#FFFFFF;" d="M371.196,254.243h-2.363l-0.333,1.878h2.211l-0.281,1.61h-2.197l-0.358,2.07h2.581l-0.307,1.763
		h-4.459l1.571-9.046h4.229L371.196,254.243z M369.97,251.79h-1.29l1.431-1.84h1.623L369.97,251.79z"/>
</g>
<g>
	<path style="fill:#FFFFFF;" d="M110.685,373.882c0,2.283-0.274,4.597-0.822,6.94c-0.548,2.344-1.446,4.459-2.694,6.347
		c-1.249,1.888-2.892,3.432-4.931,4.634c-2.04,1.203-4.566,1.804-7.579,1.804h-9.36l5.616-32.326h8.538
		c2.009,0,3.729,0.305,5.16,0.913c1.43,0.609,2.595,1.469,3.493,2.579c0.897,1.112,1.553,2.443,1.963,3.995
		C110.479,370.32,110.685,372.025,110.685,373.882z M103.516,374.462c0-1.009-0.084-1.949-0.251-2.821
		c-0.167-0.871-0.441-1.62-0.822-2.247c-0.381-0.626-0.868-1.124-1.461-1.49c-0.594-0.367-1.317-0.551-2.169-0.551H96.85
		l-3.47,20.182h2.055c1.339,0,2.511-0.397,3.516-1.192c1.004-0.795,1.849-1.819,2.534-3.073c0.685-1.254,1.194-2.652,1.53-4.196
		C103.348,377.528,103.516,375.991,103.516,374.462z"/>
	<path style="fill:#FFFFFF;" d="M131.596,367.443h-8.447l-1.188,6.712h7.899l-1.005,5.754h-7.853l-1.279,7.396h9.223l-1.096,6.301
		h-15.935l5.616-32.326h15.113L131.596,367.443z"/>
	<path style="fill:#FFFFFF;" d="M149.859,368.677c-0.518-0.608-1.157-1.088-1.918-1.438c-0.761-0.35-1.552-0.525-2.374-0.525
		c-0.427,0-0.875,0.085-1.347,0.252c-0.472,0.167-0.898,0.418-1.278,0.753c-0.381,0.335-0.701,0.753-0.959,1.256
		c-0.259,0.502-0.388,1.104-0.388,1.804c0,0.883,0.266,1.613,0.799,2.191c0.532,0.578,1.331,1.172,2.397,1.78
		c0.608,0.365,1.255,0.799,1.94,1.302c0.685,0.502,1.309,1.096,1.872,1.78c0.563,0.686,1.027,1.477,1.393,2.374
		c0.365,0.898,0.548,1.941,0.548,3.128c0,1.857-0.312,3.479-0.936,4.863c-0.624,1.385-1.461,2.541-2.511,3.47
		s-2.245,1.621-3.584,2.077c-1.34,0.457-2.725,0.686-4.155,0.686c-1.979,0-3.79-0.336-5.433-1.005
		c-1.644-0.669-2.922-1.491-3.835-2.466l4.155-5.251c0.609,0.701,1.362,1.271,2.26,1.713c0.897,0.441,1.833,0.662,2.808,0.662
		c0.486,0,0.974-0.092,1.461-0.274c0.487-0.183,0.92-0.44,1.301-0.776c0.38-0.334,0.685-0.745,0.913-1.232
		c0.229-0.486,0.343-1.034,0.343-1.644c0-0.883-0.267-1.667-0.799-2.352c-0.533-0.685-1.408-1.377-2.625-2.077
		c-0.7-0.396-1.377-0.837-2.032-1.324c-0.655-0.487-1.233-1.065-1.735-1.735c-0.502-0.669-0.906-1.431-1.21-2.283
		c-0.305-0.852-0.457-1.841-0.457-2.968c0-1.553,0.274-2.998,0.822-4.338c0.548-1.339,1.309-2.495,2.283-3.47
		c0.974-0.974,2.146-1.742,3.516-2.306c1.37-0.562,2.876-0.845,4.52-0.845c1.856,0,3.516,0.29,4.977,0.867
		c1.461,0.579,2.603,1.34,3.424,2.283L149.859,368.677z"/>
	<path style="fill:#FFFFFF;" d="M175.655,393.606l-0.137-6.072h-7.534l-2.42,6.072h-7.306l14.018-32.326h8.812l1.689,32.326H175.655
		z M175.336,368.266h-0.183l-5.342,13.881h5.799L175.336,368.266z"/>
	<path style="fill:#FFFFFF;" d="M201.589,393.606h-15.752l5.616-32.326h7.031l-4.475,25.843h8.721L201.589,393.606z"/>
	<path style="fill:#FFFFFF;" d="M224.19,367.261h-5.936l-4.612,26.346h-6.94l4.611-26.346h-5.936l1.05-5.98h18.812L224.19,367.261z"
		/>
	<path style="fill:#FFFFFF;" d="M242.226,367.443h-8.447l-1.188,6.712h7.899l-1.005,5.754h-7.853l-1.279,7.396h9.223l-1.096,6.301
		h-15.935l5.616-32.326h15.113L242.226,367.443z"/>
	<path style="fill:#FFFFFF;" d="M266.606,369.59c0,2.466-0.556,4.536-1.666,6.21c-1.111,1.674-2.596,2.83-4.452,3.47l3.607,14.337
		h-7.396l-2.694-13.013h-2.374l-2.237,13.013h-6.758l5.616-32.326h9.497c2.86,0,5.053,0.692,6.575,2.077
		C265.846,364.743,266.606,366.82,266.606,369.59z M259.621,370.503c0-1.248-0.335-2.115-1.005-2.603
		c-0.67-0.486-1.431-0.73-2.282-0.73h-2.375l-1.461,8.447h2.283c1.339,0,2.48-0.427,3.425-1.279
		C259.148,373.486,259.621,372.208,259.621,370.503z"/>
	<path style="fill:#FFFFFF;" d="M288.615,393.606h-7.534l-4.246-20.136h-0.137l-3.288,20.136h-6.301l5.616-32.326h7.717
		l4.063,20.409h0.183l3.379-20.409h6.163L288.615,393.606z"/>
	<path style="fill:#FFFFFF;" d="M308.979,393.606l-0.137-6.072h-7.534l-2.42,6.072h-7.305L305.6,361.28h8.812l1.689,32.326H308.979z
		 M308.659,368.266h-0.183l-5.342,13.881h5.798L308.659,368.266z"/>
	<path style="fill:#FFFFFF;" d="M338.656,367.261h-5.936l-4.611,26.346h-6.94l4.611-26.346h-5.936l1.05-5.98h18.812L338.656,367.261
		z"/>
	<path style="fill:#FFFFFF;" d="M344.09,393.606h-7.077l5.616-32.326h7.077L344.09,393.606z"/>
	<path style="fill:#FFFFFF;" d="M363.632,393.606h-8.904l-2.191-32.326h7.534l0.639,23.971h0.138l8.766-23.971h7.626
		L363.632,393.606z"/>
	<path style="fill:#FFFFFF;" d="M394.268,367.443h-8.446l-1.188,6.712h7.899l-1.005,5.754h-7.854l-1.278,7.396h9.224l-1.096,6.301
		h-15.936l5.616-32.326h15.113L394.268,367.443z"/>
	<path style="fill:#FFFFFF;" d="M412.531,368.677c-0.518-0.608-1.157-1.088-1.917-1.438c-0.762-0.35-1.553-0.525-2.375-0.525
		c-0.427,0-0.875,0.085-1.347,0.252c-0.473,0.167-0.898,0.418-1.278,0.753c-0.381,0.335-0.7,0.753-0.959,1.256
		c-0.259,0.502-0.388,1.104-0.388,1.804c0,0.883,0.266,1.613,0.799,2.191c0.532,0.578,1.331,1.172,2.396,1.78
		c0.609,0.365,1.256,0.799,1.941,1.302c0.685,0.502,1.308,1.096,1.871,1.78c0.563,0.686,1.027,1.477,1.394,2.374
		c0.365,0.898,0.548,1.941,0.548,3.128c0,1.857-0.312,3.479-0.937,4.863s-1.461,2.541-2.511,3.47
		c-1.051,0.929-2.245,1.621-3.585,2.077c-1.34,0.457-2.725,0.686-4.154,0.686c-1.979,0-3.79-0.336-5.434-1.005
		s-2.922-1.491-3.836-2.466l4.155-5.251c0.608,0.701,1.362,1.271,2.26,1.713s1.834,0.662,2.809,0.662
		c0.486,0,0.974-0.092,1.461-0.274c0.486-0.183,0.92-0.44,1.302-0.776c0.38-0.334,0.685-0.745,0.913-1.232
		c0.228-0.486,0.342-1.034,0.342-1.644c0-0.883-0.267-1.667-0.799-2.352c-0.533-0.685-1.408-1.377-2.625-2.077
		c-0.701-0.396-1.378-0.837-2.032-1.324c-0.655-0.487-1.232-1.065-1.735-1.735c-0.502-0.669-0.905-1.431-1.21-2.283
		c-0.305-0.852-0.456-1.841-0.456-2.968c0-1.553,0.273-2.998,0.821-4.338c0.549-1.339,1.309-2.495,2.283-3.47
		c0.974-0.974,2.146-1.742,3.516-2.306c1.37-0.562,2.877-0.845,4.521-0.845c1.856,0,3.516,0.29,4.977,0.867
		c1.461,0.579,2.603,1.34,3.425,2.283L412.531,368.677z"/>
</g>
</svg>
