<?xml version="1.0" encoding="iso-8859-1"?>
<!-- Generator: Adobe Illustrator 15.0.0, SVG Export Plug-In . SVG Version: 6.00 Build 0)  -->
<!DOCTYPE svg PUBLIC "-//W3C//DTD SVG 1.1//EN" "http://www.w3.org/Graphics/SVG/1.1/DTD/svg11.dtd">
<svg version="1.1" id="Layer_1" xmlns="http://www.w3.org/2000/svg" xmlns:xlink="http://www.w3.org/1999/xlink" x="0px" y="0px"
	 width="500px" height="654px" viewBox="0 0 500 654" style="enable-background:new 0 0 500 654;" xml:space="preserve">
<rect width="500" height="654"/>
<g>
	<path style="fill:#FFFFFF;" d="M95.108,207.176H79.954l9.132-49.376h-0.301l-20.875,49.376h-11.04l-3.211-49.376h-0.301
		l-8.129,49.376H31.28l12.444-71.054h19.37l3.412,46.466h0.401l19.369-46.466h21.276L95.108,207.176z"/>
	<path style="fill:#FFFFFF;" d="M139.968,207.176l-0.301-13.348h-16.56l-5.319,13.348h-16.058l30.811-71.054h19.369l3.713,71.054
		H139.968z M139.266,151.477h-0.401l-11.742,30.509h12.746L139.266,151.477z"/>
	<path style="fill:#FFFFFF;" d="M209.616,207.176h-16.559l-9.333-44.258h-0.301l-7.226,44.258h-13.85l12.344-71.054h16.96
		l8.932,44.86h0.401l7.427-44.86h13.548L209.616,207.176z"/>
	<path style="fill:#FFFFFF;" d="M238.018,207.176h-15.556l12.344-71.054h15.556L238.018,207.176z"/>
	<path style="fill:#FFFFFF;" d="M294.619,150.071h-18.667l-2.609,15.154h17.362l-2.308,13.348h-17.262l-5.019,28.603h-15.254
		l12.344-71.054h33.821L294.619,150.071z"/>
	<path style="fill:#FFFFFF;" d="M336.969,149.67h-18.566l-2.609,14.753h17.362l-2.208,12.645h-17.262l-2.81,16.258h20.272
		l-2.409,13.85h-35.025l12.345-71.054h33.219L336.969,149.67z"/>
	<path style="fill:#FFFFFF;" d="M377.112,152.38c-1.139-1.338-2.544-2.392-4.216-3.162c-1.673-0.768-3.412-1.154-5.219-1.154
		c-0.938,0-1.924,0.185-2.96,0.552c-1.038,0.369-1.975,0.92-2.811,1.656c-0.837,0.737-1.54,1.656-2.107,2.76
		c-0.569,1.104-0.853,2.426-0.853,3.964c0,1.941,0.585,3.547,1.756,4.817c1.17,1.271,2.926,2.576,5.269,3.914
		c1.338,0.803,2.761,1.756,4.266,2.86c1.506,1.104,2.876,2.408,4.114,3.914c1.237,1.505,2.259,3.246,3.062,5.218
		c0.803,1.975,1.204,4.266,1.204,6.875c0,4.082-0.687,7.645-2.058,10.688c-1.372,3.045-3.211,5.587-5.52,7.627
		c-2.308,2.042-4.935,3.562-7.878,4.566c-2.945,1.003-5.988,1.505-9.133,1.505c-4.35,0-8.33-0.737-11.942-2.208
		c-3.613-1.471-6.423-3.277-8.431-5.419l9.133-11.542c1.338,1.54,2.993,2.794,4.968,3.764c1.973,0.971,4.03,1.455,6.172,1.455
		c1.069,0,2.141-0.201,3.212-0.602c1.069-0.401,2.022-0.969,2.86-1.706c0.836-0.735,1.505-1.639,2.007-2.71
		c0.502-1.069,0.753-2.273,0.753-3.613c0-1.939-0.587-3.663-1.757-5.168c-1.171-1.505-3.095-3.026-5.771-4.566
		c-1.54-0.869-3.027-1.839-4.466-2.91c-1.439-1.07-2.71-2.341-3.813-3.814c-1.104-1.471-1.991-3.144-2.659-5.018
		c-0.67-1.873-1.004-4.047-1.004-6.523c0-3.412,0.602-6.589,1.807-9.534c1.204-2.943,2.876-5.485,5.018-7.627
		c2.141-2.14,4.717-3.829,7.728-5.068c3.011-1.237,6.323-1.857,9.936-1.857c4.08,0,7.728,0.637,10.939,1.907
		c3.211,1.272,5.721,2.945,7.526,5.018L377.112,152.38z"/>
	<path style="fill:#FFFFFF;" d="M428.294,149.269h-13.047l-10.136,57.907h-15.255l10.137-57.907h-13.047l2.308-13.147h41.349
		L428.294,149.269z"/>
	<path style="fill:#FFFFFF;" d="M467.936,149.67h-18.566l-2.609,14.753h17.362l-2.208,12.645h-17.262l-2.81,16.258h20.272
		l-2.409,13.85h-35.025l12.345-71.054h33.219L467.936,149.67z"/>
</g>
<g>
	<path style="fill:#FFFFFF;" d="M135.086,245.03l-0.067-2.982h-3.7l-1.188,2.982h-3.588l6.884-15.876h4.328l0.83,15.876H135.086z
		 M134.93,232.585h-0.09l-2.624,6.817h2.848L134.93,232.585z"/>
	<path style="fill:#FFFFFF;" d="M150.648,245.03h-3.7l-2.085-9.889h-0.067l-1.614,9.889h-3.095l2.758-15.876h3.79l1.996,10.023h0.09
		l1.659-10.023h3.027L150.648,245.03z"/>
	<path style="fill:#FFFFFF;" d="M164.081,245.03h-3.7l-2.085-9.889h-0.067l-1.614,9.889h-3.095l2.758-15.876h3.79l1.996,10.023h0.09
		l1.659-10.023h3.027L164.081,245.03z"/>
	<path style="fill:#FFFFFF;" d="M178.32,239.155c-0.165,0.882-0.381,1.704-0.65,2.466c-0.269,0.763-0.636,1.428-1.099,1.996
		c-0.464,0.568-1.04,1.013-1.727,1.334c-0.688,0.321-1.533,0.482-2.534,0.482c-0.807,0-1.51-0.112-2.108-0.336
		c-0.598-0.224-1.095-0.538-1.491-0.942s-0.691-0.878-0.886-1.424c-0.194-0.545-0.292-1.147-0.292-1.805
		c0-0.269,0.011-0.553,0.034-0.852c0.022-0.299,0.063-0.605,0.124-0.919l1.749-10.001h3.476l-1.704,9.732
		c-0.045,0.254-0.083,0.504-0.112,0.751c-0.03,0.247-0.045,0.475-0.045,0.684c0,0.523,0.108,0.957,0.325,1.3
		c0.217,0.344,0.602,0.516,1.155,0.516c0.389,0,0.718-0.086,0.987-0.258s0.493-0.404,0.673-0.695
		c0.179-0.292,0.329-0.635,0.448-1.032c0.12-0.396,0.217-0.818,0.292-1.267l1.682-9.732h3.453L178.32,239.155z"/>
	<path style="fill:#FFFFFF;" d="M186.729,245.03l-0.067-2.982h-3.7l-1.188,2.982h-3.588l6.884-15.876h4.328l0.83,15.876H186.729z
		 M186.572,232.585h-0.09l-2.624,6.817h2.848L186.572,232.585z"/>
	<path style="fill:#FFFFFF;" d="M195.204,245.03h-3.476l2.758-15.876h3.476L195.204,245.03z"/>
	<path style="fill:#FFFFFF;" d="M209.847,233.235c0,1.211-0.273,2.228-0.818,3.05c-0.546,0.822-1.274,1.39-2.186,1.704l1.771,7.041
		h-3.633l-1.323-6.391h-1.166l-1.099,6.391h-3.319l2.758-15.876h4.664c1.405,0,2.481,0.34,3.229,1.02
		C209.473,230.855,209.847,231.875,209.847,233.235z M206.416,233.684c0-0.613-0.165-1.039-0.493-1.278
		c-0.329-0.239-0.703-0.359-1.122-0.359h-1.166l-0.717,4.148h1.121c0.658,0,1.218-0.209,1.682-0.628
		S206.416,234.521,206.416,233.684z"/>
	<path style="fill:#FFFFFF;" d="M219.758,232.181h-4.148l-0.583,3.296h3.879l-0.493,2.826h-3.857l-0.628,3.632h4.53l-0.538,3.095
		h-7.826l2.758-15.876h7.422L219.758,232.181z"/>
	<path style="fill:#FFFFFF;" d="M224.668,245.882l-1.816-0.404l7.422-17.446l1.771,0.426L224.668,245.882z"/>
	<path style="fill:#FFFFFF;" d="M244.872,233.168c-0.209-0.344-0.463-0.613-0.763-0.807c-0.299-0.194-0.688-0.292-1.166-0.292
		c-0.598,0-1.136,0.217-1.614,0.65c-0.479,0.434-0.882,0.979-1.211,1.637c-0.329,0.658-0.58,1.387-0.751,2.187
		s-0.258,1.566-0.258,2.298c0,0.957,0.172,1.738,0.516,2.343c0.344,0.605,0.897,0.908,1.659,0.908c0.508,0,0.934-0.116,1.278-0.348
		c0.344-0.231,0.635-0.475,0.875-0.729l1.592,2.556c-0.523,0.538-1.14,0.983-1.85,1.334c-0.71,0.351-1.544,0.527-2.5,0.527
		c-0.837,0-1.581-0.15-2.231-0.449c-0.65-0.299-1.192-0.717-1.626-1.256c-0.434-0.538-0.762-1.185-0.987-1.939
		c-0.224-0.755-0.336-1.588-0.336-2.5c0-1.345,0.183-2.653,0.549-3.924c0.366-1.271,0.886-2.396,1.558-3.375
		c0.673-0.979,1.477-1.764,2.411-2.354c0.934-0.59,1.962-0.886,3.083-0.886c1.076,0,1.939,0.179,2.59,0.538s1.162,0.8,1.536,1.323
		L244.872,233.168z"/>
	<path style="fill:#FFFFFF;" d="M253.146,245.03l-0.067-2.982h-3.7l-1.188,2.982h-3.588l6.884-15.876h4.328l0.829,15.876H253.146z
		 M252.989,232.585h-0.09l-2.623,6.817h2.848L252.989,232.585z"/>
	<path style="fill:#FFFFFF;" d="M269.919,233.235c0,1.211-0.272,2.228-0.818,3.05s-1.274,1.39-2.187,1.704l1.771,7.041h-3.633
		l-1.322-6.391h-1.166l-1.1,6.391h-3.318l2.758-15.876h4.665c1.404,0,2.48,0.34,3.229,1.02
		C269.545,230.855,269.919,231.875,269.919,233.235z M266.488,233.684c0-0.613-0.165-1.039-0.493-1.278
		c-0.329-0.239-0.703-0.359-1.121-0.359h-1.166l-0.718,4.148h1.121c0.657,0,1.219-0.209,1.682-0.628
		C266.257,235.149,266.488,234.521,266.488,233.684z"/>
	<path style="fill:#FFFFFF;" d="M280.01,232.092h-2.915l-2.265,12.938h-3.408l2.265-12.938h-2.915l0.516-2.938h9.238L280.01,232.092
		z"/>
	<path style="fill:#FFFFFF;" d="M291.939,234.85c0,1.301-0.172,2.583-0.516,3.846c-0.344,1.264-0.834,2.396-1.469,3.397
		c-0.636,1.001-1.413,1.809-2.332,2.422c-0.92,0.613-1.955,0.919-3.105,0.919c-0.808,0-1.529-0.146-2.164-0.438
		c-0.636-0.292-1.17-0.703-1.604-1.233c-0.434-0.53-0.763-1.166-0.986-1.906c-0.225-0.74-0.337-1.566-0.337-2.478
		c0-1.301,0.168-2.586,0.505-3.857c0.336-1.271,0.822-2.407,1.457-3.408c0.636-1.001,1.413-1.812,2.333-2.433
		c0.919-0.62,1.962-0.931,3.128-0.931c0.852,0,1.596,0.146,2.23,0.437c0.636,0.292,1.167,0.707,1.593,1.245s0.743,1.181,0.953,1.929
		C291.835,233.108,291.939,233.938,291.939,234.85z M288.374,235.343c0-0.418-0.03-0.83-0.09-1.233
		c-0.06-0.404-0.16-0.755-0.303-1.054c-0.142-0.299-0.333-0.542-0.571-0.729c-0.239-0.187-0.538-0.28-0.897-0.28
		c-0.568,0-1.072,0.232-1.514,0.695c-0.44,0.464-0.811,1.047-1.109,1.75c-0.3,0.703-0.523,1.465-0.673,2.287
		s-0.225,1.584-0.225,2.287c0,0.419,0.034,0.815,0.102,1.188c0.066,0.374,0.171,0.699,0.313,0.976
		c0.142,0.277,0.336,0.493,0.583,0.65c0.247,0.157,0.55,0.235,0.908,0.235c0.538,0,1.023-0.217,1.458-0.65
		c0.433-0.434,0.799-0.987,1.099-1.659c0.299-0.673,0.526-1.405,0.684-2.198C288.296,236.816,288.374,236.061,288.374,235.343z"/>
	<path style="fill:#FFFFFF;" d="M302.456,233.168c-0.209-0.359-0.479-0.635-0.807-0.83c-0.329-0.194-0.74-0.292-1.233-0.292
		c-0.644,0-1.215,0.225-1.716,0.674c-0.501,0.45-0.919,1.015-1.256,1.697c-0.336,0.682-0.591,1.427-0.762,2.236
		c-0.173,0.81-0.258,1.573-0.258,2.292c0,0.45,0.048,0.87,0.146,1.259c0.097,0.39,0.242,0.734,0.438,1.033
		c0.193,0.3,0.44,0.536,0.739,0.708s0.658,0.258,1.077,0.258c0.583,0,1.091-0.128,1.524-0.384l0.561-3.137h-2.107l0.538-2.982h5.135
		l-1.458,8.39c-0.568,0.388-1.222,0.708-1.962,0.962s-1.581,0.38-2.522,0.38c-0.927,0-1.734-0.157-2.422-0.471
		s-1.26-0.743-1.716-1.289s-0.796-1.196-1.02-1.951c-0.225-0.754-0.337-1.573-0.337-2.456c0-1.33,0.184-2.627,0.55-3.89
		s0.882-2.384,1.547-3.364c0.665-0.979,1.465-1.768,2.399-2.366c0.935-0.598,1.97-0.897,3.105-0.897
		c1.062,0,1.933,0.176,2.613,0.527c0.68,0.352,1.185,0.804,1.513,1.357L302.456,233.168z"/>
	<path style="fill:#FFFFFF;" d="M316.718,233.235c0,1.211-0.272,2.228-0.818,3.05s-1.274,1.39-2.187,1.704l1.771,7.041h-3.633
		l-1.322-6.391h-1.166l-1.1,6.391h-3.318l2.758-15.876h4.665c1.404,0,2.48,0.34,3.229,1.02
		C316.344,230.855,316.718,231.875,316.718,233.235z M313.287,233.684c0-0.613-0.165-1.039-0.493-1.278
		c-0.329-0.239-0.703-0.359-1.121-0.359h-1.166l-0.718,4.148h1.121c0.657,0,1.219-0.209,1.682-0.628
		C313.056,235.149,313.287,234.521,313.287,233.684z"/>
	<path style="fill:#FFFFFF;" d="M324.095,245.03l-0.067-2.982h-3.7l-1.188,2.982h-3.588l6.885-15.876h4.328l0.829,15.876H324.095z
		 M323.938,232.585h-0.09l-2.623,6.817h2.848L323.938,232.585z"/>
	<path style="fill:#FFFFFF;" d="M340.667,233.28c0,0.941-0.139,1.779-0.415,2.511c-0.277,0.733-0.662,1.346-1.155,1.839
		s-1.08,0.867-1.76,1.121c-0.681,0.254-1.424,0.381-2.231,0.381h-1.614l-1.032,5.897h-3.363l2.758-15.876h4.53
		c0.538,0,1.065,0.075,1.581,0.224s0.975,0.392,1.379,0.729c0.403,0.336,0.725,0.767,0.964,1.29
		C340.547,231.92,340.667,232.548,340.667,233.28z M337.393,233.773c0-0.538-0.139-0.957-0.415-1.256
		c-0.276-0.299-0.654-0.448-1.132-0.448h-1.144l-0.718,4.283h1.188c0.673,0,1.211-0.231,1.614-0.695
		S337.393,234.566,337.393,233.773z"/>
	<path style="fill:#FFFFFF;" d="M351.34,245.03h-3.431l1.166-6.705h-3.835l-1.166,6.705h-3.431l2.758-15.876h3.409l-1.055,6.099
		h3.835l1.054-6.099h3.453L351.34,245.03z"/>
	<path style="fill:#FFFFFF;" d="M357.686,245.03h-3.476l2.758-15.876h3.477L357.686,245.03z"/>
	<path style="fill:#FFFFFF;" d="M370.221,232.181h-4.148l-0.583,3.296h3.879l-0.493,2.826h-3.856l-0.628,3.632h4.529l-0.538,3.095
		h-7.826l2.758-15.876h7.423L370.221,232.181z"/>
</g>
<g>
	<path style="fill:#FFFFFF;" d="M218.145,109.732c-0.125-0.207-0.278-0.369-0.458-0.485s-0.413-0.175-0.701-0.175
		c-0.359,0-0.683,0.13-0.97,0.391s-0.53,0.588-0.728,0.983c-0.198,0.396-0.349,0.833-0.452,1.314
		c-0.104,0.481-0.155,0.941-0.155,1.381c0,0.575,0.103,1.044,0.31,1.408c0.207,0.364,0.539,0.546,0.997,0.546
		c0.305,0,0.561-0.07,0.768-0.209c0.207-0.139,0.382-0.285,0.525-0.438l0.957,1.536c-0.315,0.323-0.686,0.591-1.112,0.802
		c-0.427,0.211-0.928,0.317-1.502,0.317c-0.503,0-0.95-0.09-1.341-0.27c-0.391-0.18-0.717-0.431-0.977-0.755
		c-0.261-0.323-0.458-0.712-0.593-1.166c-0.134-0.454-0.202-0.955-0.202-1.502c0-0.809,0.11-1.595,0.33-2.358
		c0.22-0.763,0.532-1.439,0.937-2.028s0.887-1.06,1.449-1.415c0.561-0.355,1.179-0.532,1.853-0.532c0.647,0,1.166,0.108,1.557,0.323
		c0.391,0.216,0.698,0.481,0.923,0.795L218.145,109.732z"/>
	<path style="fill:#FFFFFF;" d="M224.802,109.139h-2.493l-0.35,1.981h2.331l-0.296,1.698h-2.318L221.299,115h2.722l-0.323,1.86
		h-4.703l1.658-9.541h4.46L224.802,109.139z"/>
	<path style="fill:#FFFFFF;" d="M232.806,109.502c-0.153-0.179-0.341-0.321-0.566-0.424c-0.225-0.103-0.458-0.155-0.701-0.155
		c-0.126,0-0.258,0.025-0.397,0.074c-0.14,0.049-0.265,0.124-0.377,0.222c-0.112,0.099-0.207,0.222-0.283,0.371
		c-0.077,0.148-0.115,0.326-0.115,0.532c0,0.261,0.079,0.476,0.236,0.647c0.157,0.17,0.393,0.346,0.708,0.525
		c0.18,0.108,0.371,0.236,0.573,0.384c0.202,0.148,0.386,0.323,0.552,0.525s0.303,0.436,0.411,0.701s0.162,0.573,0.162,0.923
		c0,0.548-0.092,1.027-0.276,1.436s-0.431,0.75-0.741,1.024c-0.31,0.274-0.663,0.479-1.058,0.613
		c-0.396,0.135-0.804,0.202-1.226,0.202c-0.584,0-1.119-0.099-1.604-0.296c-0.485-0.198-0.862-0.44-1.132-0.728l1.227-1.549
		c0.179,0.207,0.402,0.375,0.667,0.505c0.265,0.13,0.541,0.196,0.829,0.196c0.144,0,0.288-0.027,0.431-0.081s0.271-0.13,0.384-0.229
		c0.112-0.099,0.202-0.22,0.27-0.364s0.101-0.306,0.101-0.485c0-0.26-0.079-0.492-0.236-0.694c-0.157-0.202-0.416-0.406-0.775-0.613
		c-0.207-0.117-0.407-0.247-0.6-0.391c-0.193-0.144-0.364-0.314-0.512-0.512c-0.148-0.197-0.268-0.422-0.357-0.674
		c-0.09-0.251-0.135-0.543-0.135-0.876c0-0.458,0.081-0.885,0.242-1.28c0.162-0.396,0.386-0.737,0.674-1.024
		s0.633-0.514,1.038-0.681c0.404-0.166,0.849-0.249,1.334-0.249c0.548,0,1.038,0.085,1.469,0.256
		c0.431,0.171,0.768,0.396,1.011,0.674L232.806,109.502z"/>
	<path style="fill:#FFFFFF;" d="M235.852,116.86h-2.089l1.658-9.541h2.089L235.852,116.86z"/>
	<path style="fill:#FFFFFF;" d="M243.573,109.085h-1.751l-1.361,7.775h-2.048l1.361-7.775h-1.752l0.31-1.765h5.552L243.573,109.085z
		"/>
	<path style="fill:#FFFFFF;" d="M248.896,109.139h-2.493l-0.35,1.981h2.331l-0.296,1.698h-2.318L245.392,115h2.722l-0.323,1.86
		h-4.703l1.658-9.541h4.46L248.896,109.139z"/>
	<path style="fill:#FFFFFF;" d="M257.439,109.139h-2.493l-0.351,1.981h2.331l-0.296,1.698h-2.318L253.936,115h2.722l-0.323,1.86
		h-4.703l1.657-9.541h4.461L257.439,109.139z"/>
	<path style="fill:#FFFFFF;" d="M262.829,109.502c-0.153-0.179-0.342-0.321-0.566-0.424c-0.225-0.103-0.458-0.155-0.701-0.155
		c-0.125,0-0.258,0.025-0.397,0.074c-0.139,0.049-0.265,0.124-0.377,0.222c-0.112,0.099-0.207,0.222-0.283,0.371
		c-0.076,0.148-0.114,0.326-0.114,0.532c0,0.261,0.078,0.476,0.235,0.647c0.157,0.17,0.394,0.346,0.708,0.525
		c0.18,0.108,0.37,0.236,0.572,0.384c0.202,0.148,0.387,0.323,0.553,0.525s0.304,0.436,0.411,0.701s0.162,0.573,0.162,0.923
		c0,0.548-0.093,1.027-0.276,1.436c-0.185,0.409-0.432,0.75-0.741,1.024c-0.311,0.274-0.663,0.479-1.058,0.613
		c-0.396,0.135-0.805,0.202-1.227,0.202c-0.584,0-1.118-0.099-1.604-0.296c-0.485-0.198-0.862-0.44-1.132-0.728l1.226-1.549
		c0.18,0.207,0.402,0.375,0.667,0.505c0.266,0.13,0.541,0.196,0.829,0.196c0.144,0,0.287-0.027,0.432-0.081
		c0.144-0.054,0.271-0.13,0.384-0.229c0.112-0.099,0.202-0.22,0.27-0.364s0.101-0.306,0.101-0.485c0-0.26-0.078-0.492-0.235-0.694
		s-0.416-0.406-0.775-0.613c-0.206-0.117-0.406-0.247-0.6-0.391s-0.363-0.314-0.512-0.512c-0.148-0.197-0.268-0.422-0.357-0.674
		c-0.09-0.251-0.135-0.543-0.135-0.876c0-0.458,0.081-0.885,0.243-1.28c0.161-0.396,0.386-0.737,0.674-1.024
		c0.287-0.288,0.633-0.514,1.037-0.681c0.404-0.166,0.85-0.249,1.334-0.249c0.548,0,1.038,0.085,1.469,0.256
		c0.432,0.171,0.769,0.396,1.011,0.674L262.829,109.502z"/>
	<path style="fill:#FFFFFF;" d="M269.702,109.085h-1.752l-1.361,7.775h-2.048l1.36-7.775h-1.751l0.31-1.765h5.552L269.702,109.085z"
		/>
	<path style="fill:#FFFFFF;" d="M278.339,113.33c-0.099,0.53-0.229,1.024-0.391,1.482c-0.161,0.458-0.382,0.858-0.66,1.199
		c-0.278,0.342-0.625,0.609-1.038,0.802c-0.413,0.193-0.921,0.29-1.522,0.29c-0.485,0-0.907-0.067-1.267-0.202
		s-0.658-0.324-0.896-0.566c-0.237-0.243-0.415-0.528-0.532-0.856c-0.116-0.328-0.175-0.689-0.175-1.084
		c0-0.162,0.007-0.333,0.021-0.512c0.013-0.18,0.038-0.364,0.074-0.553l1.051-6.01h2.089l-1.024,5.848
		c-0.027,0.153-0.05,0.303-0.067,0.452c-0.019,0.148-0.027,0.285-0.027,0.411c0,0.315,0.065,0.575,0.195,0.782
		c0.131,0.207,0.362,0.31,0.694,0.31c0.233,0,0.432-0.052,0.593-0.155c0.162-0.103,0.297-0.242,0.404-0.417
		c0.108-0.175,0.198-0.382,0.27-0.62c0.072-0.238,0.13-0.492,0.176-0.761l1.011-5.848h2.075L278.339,113.33z"/>
	<path style="fill:#FFFFFF;" d="M285.616,116.86h-2.224l-1.254-5.943h-0.04l-0.971,5.943h-1.859l1.657-9.541h2.277l1.2,6.023h0.054
		l0.997-6.023h1.819L285.616,116.86z"/>
</g>
<g>
	<path style="fill:#FFFFFF;" d="M119.721,434.824c0,3.371-0.404,6.788-1.213,10.25c-0.81,3.462-2.136,6.586-3.979,9.373
		c-1.844,2.788-4.271,5.068-7.283,6.844c-3.012,1.777-6.743,2.664-11.194,2.664H82.229l8.294-47.742h12.61
		c2.967,0,5.506,0.449,7.62,1.349c2.112,0.899,3.832,2.169,5.159,3.81c1.325,1.642,2.292,3.607,2.899,5.9
		S119.721,432.083,119.721,434.824z M109.134,435.681c0-1.49-0.124-2.879-0.371-4.166c-0.248-1.286-0.652-2.393-1.214-3.319
		c-0.562-0.925-1.281-1.659-2.158-2.201c-0.877-0.541-1.945-0.812-3.203-0.812h-2.9l-5.125,29.805h3.034
		c1.978,0,3.709-0.587,5.192-1.761s2.731-2.687,3.743-4.539c1.011-1.851,1.764-3.917,2.259-6.197
		C108.887,440.209,109.134,437.939,109.134,435.681z"/>
	<path style="fill:#FFFFFF;" d="M150.605,425.316H138.13l-1.753,9.912h11.666l-1.484,8.497h-11.598l-1.888,10.924h13.622
		l-1.619,9.306h-23.534l8.294-47.742h22.32L150.605,425.316z"/>
	<path style="fill:#FFFFFF;" d="M177.577,427.137c-0.765-0.898-1.709-1.606-2.832-2.124c-1.124-0.517-2.292-0.775-3.506-0.775
		c-0.63,0-1.293,0.124-1.989,0.371c-0.698,0.247-1.327,0.618-1.888,1.112c-0.562,0.495-1.035,1.112-1.416,1.854
		c-0.382,0.741-0.573,1.63-0.573,2.663c0,1.305,0.393,2.384,1.18,3.237c0.786,0.854,1.966,1.731,3.54,2.63
		c0.899,0.539,1.854,1.18,2.866,1.922c1.012,0.741,1.933,1.618,2.765,2.63c0.831,1.012,1.517,2.181,2.057,3.506
		c0.54,1.327,0.809,2.866,0.809,4.619c0,2.743-0.461,5.137-1.382,7.182c-0.922,2.047-2.158,3.755-3.709,5.125
		c-1.551,1.372-3.315,2.395-5.293,3.068c-1.979,0.675-4.024,1.012-6.136,1.012c-2.923,0-5.597-0.495-8.024-1.483
		c-2.428-0.988-4.316-2.202-5.665-3.642l6.136-7.755c0.899,1.035,2.012,1.878,3.338,2.529c1.325,0.651,2.708,0.978,4.147,0.978
		c0.718,0,1.438-0.135,2.158-0.405c0.719-0.27,1.359-0.65,1.922-1.146c0.562-0.494,1.012-1.102,1.349-1.821
		c0.337-0.719,0.506-1.527,0.506-2.428c0-1.303-0.394-2.461-1.18-3.473c-0.787-1.012-2.08-2.033-3.877-3.068
		c-1.035-0.583-2.035-1.235-3-1.955c-0.967-0.719-1.821-1.573-2.562-2.562c-0.742-0.988-1.338-2.112-1.787-3.372
		c-0.45-1.258-0.674-2.719-0.674-4.383c0-2.293,0.405-4.428,1.214-6.406c0.809-1.978,1.932-3.686,3.372-5.125
		c1.438-1.438,3.169-2.572,5.192-3.405c2.023-0.831,4.248-1.247,6.676-1.247c2.742,0,5.192,0.428,7.35,1.281
		c2.158,0.854,3.844,1.979,5.058,3.371L177.577,427.137z"/>
	<path style="fill:#FFFFFF;" d="M229.634,446.288c-0.495,2.652-1.146,5.124-1.956,7.417c-0.809,2.293-1.911,4.294-3.304,6.002
		c-1.394,1.709-3.125,3.046-5.192,4.012c-2.068,0.967-4.608,1.45-7.62,1.45c-2.428,0-4.541-0.337-6.339-1.012
		c-1.798-0.674-3.293-1.618-4.484-2.832c-1.191-1.214-2.08-2.641-2.664-4.282c-0.584-1.641-0.876-3.449-0.876-5.428
		c0-0.81,0.034-1.663,0.101-2.562s0.191-1.821,0.371-2.765l5.26-30.075h10.452l-5.125,29.266c-0.135,0.765-0.248,1.518-0.337,2.259
		c-0.09,0.742-0.135,1.428-0.135,2.057c0,1.574,0.326,2.878,0.978,3.911c0.651,1.035,1.809,1.551,3.473,1.551
		c1.168,0,2.158-0.258,2.967-0.775c0.81-0.516,1.484-1.214,2.023-2.09c0.539-0.877,0.988-1.91,1.349-3.103
		c0.359-1.19,0.651-2.461,0.876-3.81l5.058-29.266h10.384L229.634,446.288z"/>
	<path style="fill:#FFFFFF;" d="M264.293,425.046h-8.766l-6.811,38.909h-10.25l6.811-38.909h-8.766l1.551-8.833h27.782
		L264.293,425.046z"/>
	<path style="fill:#FFFFFF;" d="M300.168,433.341c0,3.911-0.518,7.767-1.551,11.564c-1.035,3.8-2.507,7.205-4.417,10.216
		c-1.911,3.013-4.248,5.44-7.013,7.283c-2.766,1.843-5.879,2.765-9.34,2.765c-2.428,0-4.597-0.438-6.507-1.315
		c-1.912-0.876-3.519-2.112-4.822-3.708s-2.292-3.507-2.967-5.732c-0.674-2.225-1.012-4.708-1.012-7.451
		c0-3.911,0.506-7.776,1.518-11.599c1.012-3.82,2.472-7.237,4.383-10.249c1.91-3.012,4.249-5.451,7.014-7.317
		c2.765-1.864,5.9-2.798,9.406-2.798c2.562,0,4.799,0.438,6.71,1.314c1.91,0.877,3.507,2.124,4.788,3.743
		c1.281,1.618,2.235,3.552,2.865,5.799C299.853,428.104,300.168,430.599,300.168,433.341z M289.446,434.824
		c0-1.258-0.091-2.495-0.27-3.709c-0.181-1.214-0.484-2.27-0.911-3.169c-0.428-0.899-1.001-1.629-1.719-2.192
		c-0.72-0.562-1.619-0.843-2.697-0.843c-1.709,0-3.227,0.698-4.552,2.091c-1.327,1.394-2.439,3.147-3.338,5.26
		c-0.9,2.113-1.574,4.406-2.023,6.878c-0.45,2.473-0.675,4.766-0.675,6.878c0,1.26,0.102,2.451,0.304,3.574
		c0.202,1.124,0.517,2.103,0.944,2.934c0.427,0.832,1.012,1.483,1.753,1.955c0.742,0.473,1.652,0.708,2.731,0.708
		c1.618,0,3.078-0.65,4.383-1.955c1.304-1.304,2.404-2.967,3.305-4.99c0.898-2.022,1.584-4.225,2.057-6.608
		C289.21,439.253,289.446,436.982,289.446,434.824z"/>
	<path style="fill:#FFFFFF;" d="M336.784,428.62c0,2.832-0.417,5.351-1.248,7.553c-0.832,2.203-1.989,4.046-3.473,5.529
		s-3.248,2.607-5.293,3.372c-2.047,0.765-4.282,1.146-6.71,1.146h-4.855l-3.102,17.734h-10.115l8.295-47.742h13.621
		c1.618,0,3.203,0.226,4.754,0.674c1.551,0.45,2.934,1.181,4.147,2.191c1.214,1.012,2.18,2.305,2.899,3.878
		C336.424,424.53,336.784,426.418,336.784,428.62z M326.938,430.104c0-1.618-0.416-2.876-1.247-3.776
		c-0.833-0.898-1.968-1.349-3.405-1.349h-3.439l-2.158,12.88h3.574c2.023,0,3.642-0.696,4.855-2.09S326.938,432.487,326.938,430.104
		z"/>
	<path style="fill:#FFFFFF;" d="M347.168,463.955h-10.452l8.295-47.742h10.451L347.168,463.955z"/>
	<path style="fill:#FFFFFF;" d="M384.862,425.316h-12.475l-1.754,9.912H382.3l-1.483,8.497h-11.599l-1.888,10.924h13.621
		l-1.618,9.306h-23.534l8.295-47.742h22.319L384.862,425.316z"/>
	<path style="fill:#FFFFFF;" d="M411.834,427.137c-0.765-0.898-1.709-1.606-2.832-2.124c-1.124-0.517-2.293-0.775-3.507-0.775
		c-0.63,0-1.292,0.124-1.989,0.371s-1.326,0.618-1.888,1.112c-0.562,0.495-1.035,1.112-1.416,1.854
		c-0.383,0.741-0.573,1.63-0.573,2.663c0,1.305,0.393,2.384,1.18,3.237c0.786,0.854,1.967,1.731,3.541,2.63
		c0.898,0.539,1.854,1.18,2.865,1.922c1.012,0.741,1.933,1.618,2.765,2.63s1.518,2.181,2.057,3.506
		c0.54,1.327,0.81,2.866,0.81,4.619c0,2.743-0.462,5.137-1.383,7.182c-0.922,2.047-2.157,3.755-3.708,5.125
		c-1.552,1.372-3.316,2.395-5.294,3.068c-1.979,0.675-4.023,1.012-6.137,1.012c-2.922,0-5.597-0.495-8.024-1.483
		c-2.427-0.988-4.315-2.202-5.664-3.642l6.137-7.755c0.898,1.035,2.011,1.878,3.338,2.529c1.325,0.651,2.708,0.978,4.146,0.978
		c0.719,0,1.438-0.135,2.158-0.405c0.719-0.27,1.359-0.65,1.922-1.146c0.562-0.494,1.012-1.102,1.349-1.821
		c0.337-0.719,0.506-1.527,0.506-2.428c0-1.303-0.395-2.461-1.18-3.473c-0.787-1.012-2.08-2.033-3.878-3.068
		c-1.034-0.583-2.034-1.235-3.001-1.955c-0.967-0.719-1.82-1.573-2.562-2.562c-0.741-0.988-1.338-2.112-1.786-3.372
		c-0.45-1.258-0.675-2.719-0.675-4.383c0-2.293,0.404-4.428,1.214-6.406c0.81-1.978,1.933-3.686,3.371-5.125
		c1.438-1.438,3.17-2.572,5.192-3.405c2.023-0.831,4.249-1.247,6.676-1.247c2.742,0,5.192,0.428,7.351,1.281
		c2.158,0.854,3.844,1.979,5.058,3.371L411.834,427.137z"/>
</g>
<g>
	<g>
		<path style="fill:#FFFFFF;" d="M113.43,500.109c-0.701-1.149-1.55-2.05-2.55-2.699c-1-0.649-2.3-0.976-3.899-0.976
			c-2,0-3.8,0.726-5.399,2.175c-1.6,1.451-2.95,3.275-4.049,5.475c-1.1,2.2-1.938,4.637-2.512,7.311
			c-0.575,2.675-0.862,5.237-0.862,7.687c0,3.2,0.574,5.812,1.725,7.836c1.149,2.024,3,3.037,5.549,3.037
			c1.699,0,3.124-0.387,4.274-1.162c1.149-0.774,2.124-1.587,2.924-2.438l5.324,8.549c-1.75,1.8-3.812,3.287-6.187,4.462
			c-2.375,1.174-5.162,1.762-8.361,1.762c-2.8,0-5.287-0.5-7.461-1.5c-2.174-0.999-3.987-2.399-5.437-4.199
			c-1.451-1.799-2.549-3.961-3.299-6.486c-0.75-2.523-1.125-5.311-1.125-8.36c0-4.5,0.612-8.873,1.837-13.123
			c1.224-4.248,2.962-8.011,5.211-11.285s4.937-5.898,8.061-7.874c3.124-1.975,6.562-2.962,10.311-2.962
			c3.599,0,6.486,0.6,8.661,1.8c2.175,1.199,3.887,2.675,5.137,4.424L113.43,500.109z"/>
		<path style="fill:#FFFFFF;" d="M160.747,505.733c0,4.35-0.575,8.637-1.725,12.86c-1.15,4.225-2.788,8.012-4.912,11.36
			c-2.125,3.35-4.724,6.049-7.799,8.099c-3.074,2.049-6.537,3.074-10.386,3.074c-2.699,0-5.112-0.487-7.236-1.462
			c-2.125-0.975-3.913-2.35-5.362-4.124c-1.451-1.774-2.549-3.899-3.299-6.374s-1.125-5.236-1.125-8.286
			c0-4.35,0.562-8.648,1.688-12.897c1.125-4.249,2.749-8.049,4.874-11.398c2.124-3.349,4.724-6.062,7.799-8.136
			c3.074-2.074,6.561-3.112,10.46-3.112c2.85,0,5.336,0.487,7.461,1.462c2.124,0.976,3.899,2.362,5.324,4.162
			s2.486,3.949,3.187,6.449C160.396,499.91,160.747,502.685,160.747,505.733z M148.824,507.383c0-1.398-0.101-2.774-0.3-4.124
			c-0.201-1.35-0.538-2.523-1.013-3.524c-0.476-0.999-1.113-1.812-1.912-2.438c-0.8-0.624-1.799-0.937-3-0.937
			c-1.9,0-3.587,0.775-5.062,2.324c-1.475,1.55-2.712,3.5-3.712,5.849c-1,2.351-1.75,4.9-2.25,7.649
			c-0.5,2.749-0.75,5.299-0.75,7.648c0,1.4,0.113,2.725,0.338,3.974c0.225,1.251,0.574,2.338,1.05,3.263
			c0.474,0.926,1.125,1.649,1.949,2.174c0.825,0.525,1.837,0.788,3.037,0.788c1.8,0,3.424-0.725,4.874-2.175
			c1.45-1.449,2.674-3.3,3.675-5.549c0.999-2.25,1.762-4.698,2.287-7.349C148.562,512.308,148.824,509.782,148.824,507.383z"/>
		<path style="fill:#FFFFFF;" d="M198.09,539.777h-12.373l-6.974-33.069h-0.225l-5.399,33.069h-10.348l9.223-53.091h12.673
			l6.674,33.52h0.3l5.549-33.52h10.123L198.09,539.777z"/>
		<path style="fill:#FFFFFF;" d="M240.682,500.109c-0.701-1.149-1.55-2.05-2.55-2.699c-1-0.649-2.3-0.976-3.899-0.976
			c-2,0-3.8,0.726-5.399,2.175c-1.6,1.451-2.95,3.275-4.049,5.475c-1.1,2.2-1.938,4.637-2.512,7.311
			c-0.575,2.675-0.862,5.237-0.862,7.687c0,3.2,0.574,5.812,1.725,7.836c1.149,2.024,3,3.037,5.549,3.037
			c1.699,0,3.124-0.387,4.274-1.162c1.149-0.774,2.124-1.587,2.924-2.438l5.324,8.549c-1.75,1.8-3.812,3.287-6.187,4.462
			c-2.375,1.174-5.162,1.762-8.361,1.762c-2.8,0-5.287-0.5-7.461-1.5c-2.174-0.999-3.987-2.399-5.437-4.199
			c-1.451-1.799-2.549-3.961-3.299-6.486c-0.75-2.523-1.125-5.311-1.125-8.36c0-4.5,0.612-8.873,1.837-13.123
			c1.224-4.248,2.962-8.011,5.211-11.285s4.937-5.898,8.061-7.874c3.124-1.975,6.562-2.962,10.311-2.962
			c3.599,0,6.486,0.6,8.661,1.8c2.175,1.199,3.887,2.675,5.137,4.424L240.682,500.109z"/>
		<path style="fill:#FFFFFF;" d="M284.773,500.334c0,4.05-0.912,7.45-2.736,10.198c-1.826,2.75-4.264,4.649-7.312,5.699
			l5.926,23.546h-12.148l-4.424-21.371h-3.9l-3.674,21.371h-11.098l9.223-53.091h15.598c4.697,0,8.297,1.138,10.797,3.412
			C283.523,492.374,284.773,495.786,284.773,500.334z M273.301,501.834c0-2.049-0.551-3.474-1.65-4.274
			c-1.1-0.799-2.35-1.199-3.748-1.199h-3.9l-2.398,13.872h3.748c2.199,0,4.074-0.699,5.625-2.1
			C272.525,506.734,273.301,504.635,273.301,501.834z"/>
		<path style="fill:#FFFFFF;" d="M317.918,496.81h-13.873l-1.949,11.023h12.973l-1.649,9.448h-12.898l-2.1,12.147h15.147
			l-1.8,10.349h-26.17l9.224-53.091h24.82L317.918,496.81z M304.646,482.487l-9.599-10.798h9.448l7.724,10.798H304.646z"/>
		<path style="fill:#FFFFFF;" d="M351.961,496.51h-9.748l-7.574,43.268h-11.397l7.573-43.268h-9.748l1.725-9.823h30.895
			L351.961,496.51z"/>
		<path style="fill:#FFFFFF;" d="M381.58,496.81h-13.873l-1.949,11.023h12.973l-1.649,9.448h-12.898l-2.1,12.147h15.147l-1.8,10.349
			h-26.17l9.224-53.091h24.82L381.58,496.81z"/>
		<path style="fill:#FFFFFF;" d="M411.573,498.835c-0.851-1-1.9-1.787-3.149-2.362c-1.25-0.574-2.549-0.862-3.899-0.862
			c-0.7,0-1.438,0.138-2.212,0.412c-0.775,0.275-1.475,0.688-2.1,1.237c-0.625,0.551-1.15,1.237-1.574,2.062
			c-0.426,0.824-0.638,1.812-0.638,2.962c0,1.45,0.438,2.65,1.312,3.599c0.874,0.951,2.187,1.926,3.937,2.925
			c1,0.6,2.062,1.312,3.188,2.138c1.124,0.824,2.148,1.799,3.074,2.924c0.924,1.125,1.687,2.426,2.287,3.899
			c0.6,1.476,0.899,3.188,0.899,5.137c0,3.05-0.513,5.712-1.537,7.986c-1.025,2.275-2.399,4.175-4.124,5.699
			c-1.725,1.525-3.688,2.661-5.887,3.411c-2.2,0.75-4.475,1.125-6.823,1.125c-3.251,0-6.225-0.551-8.924-1.649
			c-2.699-1.1-4.799-2.449-6.299-4.05l6.823-8.623c1,1.15,2.237,2.088,3.712,2.812c1.475,0.726,3.012,1.088,4.612,1.088
			c0.799,0,1.599-0.15,2.399-0.45c0.799-0.3,1.512-0.724,2.137-1.274c0.625-0.55,1.125-1.225,1.5-2.024s0.562-1.699,0.562-2.7
			c0-1.449-0.438-2.737-1.312-3.861c-0.875-1.125-2.312-2.262-4.312-3.412c-1.15-0.649-2.263-1.374-3.337-2.175
			c-1.075-0.799-2.024-1.749-2.85-2.85c-0.825-1.099-1.488-2.349-1.987-3.749c-0.5-1.399-0.75-3.024-0.75-4.874
			c0-2.55,0.45-4.924,1.351-7.124c0.899-2.199,2.148-4.099,3.749-5.699c1.6-1.599,3.524-2.861,5.773-3.786
			c2.25-0.925,4.725-1.388,7.424-1.388c3.049,0,5.774,0.476,8.174,1.425c2.399,0.95,4.274,2.2,5.624,3.749L411.573,498.835z"/>
	</g>
</g>
<g>
	<path style="fill:#FFFFFF;" d="M132.305,261.736h-4.588l1.636-9.416h2.048l-1.303,7.527h2.54L132.305,261.736z"/>
	<path style="fill:#FFFFFF;" d="M135.35,261.736h-2.061l1.636-9.416h2.061L135.35,261.736z"/>
	<path style="fill:#FFFFFF;" d="M143.794,254.475c0,0.319-0.042,0.607-0.126,0.864c-0.084,0.257-0.2,0.483-0.346,0.679
		c-0.146,0.195-0.314,0.359-0.505,0.492c-0.19,0.133-0.396,0.235-0.618,0.306l0.013,0.026c0.16,0.044,0.311,0.115,0.452,0.213
		s0.271,0.222,0.386,0.373c0.115,0.15,0.206,0.326,0.272,0.525c0.067,0.2,0.1,0.424,0.1,0.672c0,0.55-0.096,1.02-0.286,1.41
		c-0.191,0.39-0.441,0.711-0.751,0.964c-0.31,0.253-0.658,0.439-1.044,0.559s-0.778,0.18-1.177,0.18h-3.112l1.636-9.416h2.739
		c0.275,0,0.552,0.038,0.832,0.113c0.279,0.076,0.532,0.198,0.758,0.366c0.226,0.169,0.412,0.391,0.559,0.665
		C143.722,253.739,143.794,254.076,143.794,254.475z M141.467,258.625c0-0.354-0.104-0.605-0.312-0.751
		c-0.208-0.146-0.437-0.219-0.685-0.219h-0.811l-0.412,2.367h0.824c0.408,0,0.743-0.118,1.004-0.353
		C141.336,259.434,141.467,259.085,141.467,258.625z M141.919,254.887c0-0.283-0.089-0.499-0.266-0.645
		c-0.177-0.146-0.395-0.22-0.651-0.22h-0.705l-0.372,2.128h0.758c0.142,0,0.288-0.024,0.439-0.073
		c0.15-0.049,0.284-0.124,0.399-0.226c0.115-0.102,0.21-0.233,0.286-0.392C141.882,255.3,141.919,255.109,141.919,254.887z"/>
	<path style="fill:#FFFFFF;" d="M151.189,254.741c0,0.718-0.162,1.321-0.486,1.809c-0.324,0.488-0.756,0.825-1.296,1.011
		l1.051,4.176h-2.155l-0.785-3.79h-0.691l-0.651,3.79h-1.968l1.636-9.416h2.766c0.833,0,1.472,0.202,1.915,0.605
		C150.967,253.33,151.189,253.935,151.189,254.741z M149.154,255.007c0-0.364-0.098-0.616-0.292-0.758
		c-0.195-0.142-0.417-0.213-0.665-0.213h-0.691l-0.425,2.46h0.665c0.39,0,0.723-0.124,0.998-0.373
		C149.017,255.876,149.154,255.504,149.154,255.007z"/>
	<path style="fill:#FFFFFF;" d="M157.066,254.116h-2.46l-0.346,1.955h2.3l-0.292,1.676h-2.287l-0.373,2.154h2.687l-0.319,1.835
		h-4.641l1.636-9.416h4.402L157.066,254.116z"/>
	<path style="fill:#FFFFFF;" d="M157.891,263.319h-1.476l1.423-3.75h1.769L157.891,263.319z"/>
	<path style="fill:#FFFFFF;" d="M169.833,254.741c0,0.718-0.162,1.321-0.486,1.809c-0.324,0.488-0.756,0.825-1.296,1.011
		l1.051,4.176h-2.155l-0.785-3.79h-0.691l-0.651,3.79h-1.968l1.636-9.416h2.766c0.833,0,1.472,0.202,1.915,0.605
		C169.611,253.33,169.833,253.935,169.833,254.741z M167.798,255.007c0-0.364-0.098-0.616-0.292-0.758
		c-0.195-0.142-0.417-0.213-0.665-0.213h-0.691l-0.425,2.46h0.665c0.39,0,0.723-0.124,0.998-0.373
		C167.661,255.876,167.798,255.504,167.798,255.007z"/>
	<path style="fill:#FFFFFF;" d="M175.711,254.116h-2.46l-0.346,1.955h2.3l-0.292,1.676h-2.287l-0.373,2.154h2.687l-0.319,1.835
		h-4.641l1.636-9.416h4.402L175.711,254.116z M174.435,251.562h-1.343l1.489-1.915h1.689L174.435,251.562z"/>
	<path style="fill:#FFFFFF;" d="M182.693,254.768c0,0.559-0.082,1.055-0.246,1.49c-0.165,0.435-0.393,0.798-0.685,1.09
		s-0.641,0.514-1.044,0.665c-0.404,0.151-0.845,0.226-1.323,0.226h-0.958l-0.612,3.498h-1.995l1.636-9.416h2.686
		c0.319,0,0.632,0.044,0.938,0.133c0.306,0.089,0.578,0.233,0.818,0.432c0.239,0.2,0.43,0.455,0.572,0.765
		C182.622,253.961,182.693,254.333,182.693,254.768z M180.751,255.061c0-0.319-0.082-0.567-0.246-0.745
		c-0.164-0.177-0.388-0.266-0.671-0.266h-0.678l-0.426,2.54h0.705c0.399,0,0.718-0.138,0.958-0.413
		C180.632,255.903,180.751,255.53,180.751,255.061z"/>
	<path style="fill:#FFFFFF;" d="M187.268,261.736h-4.588l1.636-9.416h2.048l-1.303,7.527h2.54L187.268,261.736z"/>
	<path style="fill:#FFFFFF;" d="M190.313,261.736h-2.061l1.636-9.416h2.061L190.313,261.736z"/>
	<path style="fill:#FFFFFF;" d="M197.867,254.701c-0.125-0.204-0.275-0.363-0.453-0.479s-0.408-0.173-0.691-0.173
		c-0.354,0-0.674,0.128-0.958,0.385c-0.284,0.257-0.523,0.581-0.718,0.971c-0.195,0.39-0.343,0.822-0.445,1.296
		c-0.102,0.475-0.153,0.929-0.153,1.363c0,0.567,0.102,1.031,0.306,1.39s0.532,0.539,0.984,0.539c0.301,0,0.554-0.068,0.758-0.206
		c0.204-0.137,0.377-0.281,0.519-0.432l0.944,1.516c-0.311,0.319-0.676,0.583-1.097,0.791c-0.421,0.208-0.916,0.312-1.483,0.312
		c-0.497,0-0.938-0.088-1.323-0.266c-0.385-0.177-0.707-0.426-0.964-0.745c-0.257-0.319-0.452-0.703-0.585-1.15
		c-0.133-0.447-0.199-0.942-0.199-1.482c0-0.798,0.108-1.574,0.326-2.328c0.217-0.753,0.525-1.42,0.924-2.001
		c0.399-0.581,0.875-1.046,1.43-1.396c0.554-0.35,1.164-0.525,1.829-0.525c0.638,0,1.15,0.106,1.536,0.319
		c0.385,0.213,0.689,0.475,0.911,0.785L197.867,254.701z"/>
	<path style="fill:#FFFFFF;" d="M202.774,261.736l-0.04-1.769h-2.194l-0.705,1.769h-2.128l4.083-9.416h2.567l0.492,9.416H202.774z
		 M202.681,254.355h-0.053l-1.556,4.043h1.688L202.681,254.355z"/>
	<path style="fill:#FFFFFF;" d="M212.481,254.475c0,0.319-0.042,0.607-0.126,0.864c-0.084,0.257-0.2,0.483-0.346,0.679
		c-0.146,0.195-0.314,0.359-0.505,0.492c-0.19,0.133-0.396,0.235-0.618,0.306l0.013,0.026c0.16,0.044,0.311,0.115,0.452,0.213
		s0.271,0.222,0.386,0.373c0.115,0.15,0.206,0.326,0.272,0.525c0.067,0.2,0.1,0.424,0.1,0.672c0,0.55-0.096,1.02-0.286,1.41
		c-0.191,0.39-0.441,0.711-0.751,0.964c-0.31,0.253-0.658,0.439-1.044,0.559s-0.778,0.18-1.177,0.18h-3.112l1.636-9.416h2.739
		c0.275,0,0.552,0.038,0.832,0.113c0.279,0.076,0.532,0.198,0.758,0.366c0.226,0.169,0.412,0.391,0.559,0.665
		C212.409,253.739,212.481,254.076,212.481,254.475z M210.154,258.625c0-0.354-0.104-0.605-0.312-0.751
		c-0.208-0.146-0.437-0.219-0.685-0.219h-0.811l-0.412,2.367h0.824c0.408,0,0.743-0.118,1.004-0.353
		C210.023,259.434,210.154,259.085,210.154,258.625z M210.606,254.887c0-0.283-0.089-0.499-0.266-0.645
		c-0.177-0.146-0.395-0.22-0.651-0.22h-0.705l-0.372,2.128h0.758c0.142,0,0.288-0.024,0.439-0.073
		c0.15-0.049,0.284-0.124,0.399-0.226c0.115-0.102,0.21-0.233,0.286-0.392C210.569,255.3,210.606,255.109,210.606,254.887z"/>
	<path style="fill:#FFFFFF;" d="M217.482,261.736h-4.588l1.636-9.416h2.048l-1.303,7.527h2.54L217.482,261.736z"/>
	<path style="fill:#FFFFFF;" d="M224.198,254.116h-2.46l-0.346,1.955h2.3l-0.292,1.676h-2.287l-0.373,2.154h2.687l-0.319,1.835
		h-4.641l1.636-9.416h4.402L224.198,254.116z"/>
	<path style="fill:#FFFFFF;" d="M225.022,263.319h-1.476l1.423-3.75h1.769L225.022,263.319z"/>
	<path style="fill:#FFFFFF;" d="M232.043,261.736h-2.061l1.636-9.416h2.061L232.043,261.736z"/>
	<path style="fill:#FFFFFF;" d="M240.01,261.736h-2.194l-1.237-5.865h-0.04l-0.958,5.865h-1.835l1.636-9.416h2.248l1.184,5.944
		h0.053l0.984-5.944h1.795L240.01,261.736z"/>
	<path style="fill:#FFFFFF;" d="M249.106,255.991c0,0.665-0.08,1.339-0.239,2.021c-0.16,0.683-0.421,1.299-0.785,1.849
		c-0.364,0.55-0.843,1-1.437,1.35c-0.594,0.351-1.33,0.525-2.208,0.525h-2.726l1.636-9.416h2.487c0.585,0,1.086,0.089,1.502,0.266
		c0.417,0.177,0.756,0.428,1.018,0.751c0.261,0.324,0.452,0.712,0.572,1.164S249.106,255.451,249.106,255.991z M247.018,256.16
		c0-0.294-0.024-0.568-0.073-0.822c-0.049-0.253-0.128-0.472-0.239-0.654s-0.253-0.327-0.426-0.434s-0.383-0.161-0.631-0.161h-0.572
		l-1.011,5.878h0.599c0.39,0,0.731-0.116,1.024-0.348c0.292-0.231,0.539-0.53,0.738-0.895c0.199-0.365,0.348-0.772,0.445-1.222
		S247.018,256.605,247.018,256.16z"/>
	<path style="fill:#FFFFFF;" d="M255.196,254.116h-2.46l-0.346,1.955h2.301l-0.293,1.676h-2.287l-0.372,2.154h2.686l-0.318,1.835
		h-4.642l1.636-9.416h4.401L255.196,254.116z M253.92,251.562h-1.344l1.49-1.915h1.688L253.92,251.562z"/>
	<path style="fill:#FFFFFF;" d="M262.179,254.768c0,0.559-0.082,1.055-0.246,1.49s-0.393,0.798-0.686,1.09
		c-0.292,0.292-0.641,0.514-1.044,0.665s-0.844,0.226-1.323,0.226h-0.957l-0.611,3.498h-1.995l1.636-9.416h2.687
		c0.319,0,0.632,0.044,0.938,0.133c0.306,0.089,0.578,0.233,0.817,0.432c0.239,0.2,0.431,0.455,0.572,0.765
		C262.107,253.961,262.179,254.333,262.179,254.768z M260.236,255.061c0-0.319-0.082-0.567-0.245-0.745
		c-0.165-0.177-0.389-0.266-0.672-0.266h-0.679l-0.425,2.54h0.704c0.399,0,0.719-0.138,0.958-0.413
		C260.117,255.903,260.236,255.53,260.236,255.061z"/>
	<path style="fill:#FFFFFF;" d="M267.896,254.116h-2.46l-0.346,1.955h2.301l-0.293,1.676h-2.287l-0.372,2.154h2.686l-0.318,1.835
		h-4.642l1.636-9.416h4.401L267.896,254.116z"/>
	<path style="fill:#FFFFFF;" d="M274.28,261.736h-2.194l-1.237-5.865h-0.039l-0.958,5.865h-1.835l1.636-9.416h2.247l1.184,5.944
		h0.054l0.983-5.944h1.796L274.28,261.736z"/>
	<path style="fill:#FFFFFF;" d="M283.376,255.991c0,0.665-0.079,1.339-0.239,2.021c-0.159,0.683-0.421,1.299-0.784,1.849
		c-0.364,0.55-0.843,1-1.437,1.35c-0.594,0.351-1.33,0.525-2.207,0.525h-2.727l1.636-9.416h2.486c0.586,0,1.086,0.089,1.503,0.266
		s0.756,0.428,1.018,0.751c0.262,0.324,0.452,0.712,0.572,1.164C283.316,254.954,283.376,255.451,283.376,255.991z M281.288,256.16
		c0-0.294-0.024-0.568-0.072-0.822c-0.049-0.253-0.129-0.472-0.24-0.654c-0.11-0.183-0.252-0.327-0.425-0.434
		s-0.384-0.161-0.632-0.161h-0.572l-1.011,5.878h0.599c0.39,0,0.731-0.116,1.024-0.348c0.292-0.231,0.538-0.53,0.737-0.895
		c0.2-0.365,0.349-0.772,0.446-1.222C281.239,257.053,281.288,256.605,281.288,256.16z"/>
	<path style="fill:#FFFFFF;" d="M287.646,261.736l-0.039-1.769h-2.194l-0.705,1.769h-2.128l4.083-9.416h2.566l0.492,9.416H287.646z
		 M287.553,254.355H287.5l-1.557,4.043h1.689L287.553,254.355z"/>
	<path style="fill:#FFFFFF;" d="M296.875,261.736h-2.194l-1.237-5.865h-0.039l-0.958,5.865h-1.835l1.636-9.416h2.247l1.184,5.944
		h0.054l0.983-5.944h1.796L296.875,261.736z"/>
	<path style="fill:#FFFFFF;" d="M304.495,254.063h-1.729l-1.344,7.673h-2.021l1.344-7.673h-1.729l0.306-1.742h5.479L304.495,254.063
		z"/>
	<path style="fill:#FFFFFF;" d="M312.155,259.409l1.304,2.327h-2.155l-0.491-0.917c-0.258,0.328-0.568,0.596-0.932,0.804
		c-0.363,0.208-0.78,0.313-1.25,0.313c-0.398,0-0.74-0.062-1.023-0.187c-0.284-0.124-0.519-0.292-0.705-0.505
		s-0.324-0.463-0.412-0.751c-0.089-0.288-0.133-0.592-0.133-0.911c0-0.709,0.184-1.321,0.552-1.835
		c0.367-0.514,0.857-0.926,1.469-1.237c-0.133-0.239-0.243-0.496-0.332-0.771s-0.133-0.545-0.133-0.812
		c0-0.452,0.068-0.858,0.206-1.217s0.328-0.66,0.571-0.904c0.244-0.244,0.528-0.43,0.852-0.559c0.323-0.128,0.672-0.193,1.044-0.193
		c0.691,0,1.21,0.186,1.556,0.559s0.519,0.842,0.519,1.41c0,0.337-0.055,0.645-0.166,0.924c-0.11,0.279-0.259,0.534-0.445,0.765
		s-0.405,0.437-0.658,0.619s-0.521,0.348-0.805,0.499l0.665,1.303l0.931-1.529h1.875L312.155,259.409z M309.123,257.693
		c-0.257,0.125-0.483,0.337-0.678,0.639c-0.195,0.301-0.293,0.634-0.293,0.997c0,0.275,0.066,0.505,0.199,0.692
		c0.133,0.186,0.346,0.279,0.639,0.279c0.248,0,0.463-0.076,0.645-0.227c0.182-0.15,0.33-0.323,0.446-0.519L309.123,257.693z
		 M311.052,254.209c0-0.212-0.052-0.383-0.153-0.512s-0.241-0.193-0.419-0.193c-0.133,0-0.255,0.036-0.365,0.106
		c-0.111,0.071-0.202,0.166-0.273,0.286c-0.07,0.12-0.126,0.255-0.166,0.406c-0.04,0.151-0.06,0.302-0.06,0.452
		c0,0.355,0.106,0.709,0.319,1.064c0.319-0.177,0.585-0.395,0.798-0.652C310.945,254.91,311.052,254.59,311.052,254.209z"/>
	<path style="fill:#FFFFFF;" d="M320.799,261.736l-0.039-1.769h-2.194l-0.705,1.769h-2.128l4.083-9.416h2.566l0.492,9.416H320.799z
		 M320.706,254.355h-0.053l-1.557,4.043h1.689L320.706,254.355z"/>
	<path style="fill:#FFFFFF;" d="M330.347,258.252c-0.098,0.523-0.226,1.011-0.386,1.463c-0.159,0.452-0.377,0.847-0.651,1.184
		c-0.275,0.337-0.616,0.601-1.024,0.792c-0.407,0.19-0.908,0.286-1.502,0.286c-0.479,0-0.896-0.066-1.251-0.199
		c-0.354-0.133-0.649-0.319-0.884-0.559c-0.235-0.239-0.41-0.521-0.525-0.845c-0.115-0.323-0.173-0.68-0.173-1.07
		c0-0.16,0.007-0.328,0.02-0.505c0.014-0.177,0.038-0.359,0.073-0.545l1.037-5.931h2.062l-1.011,5.771
		c-0.026,0.151-0.049,0.299-0.066,0.446c-0.018,0.146-0.026,0.281-0.026,0.405c0,0.311,0.064,0.568,0.192,0.771
		c0.129,0.204,0.357,0.306,0.686,0.306c0.23,0,0.425-0.051,0.585-0.153c0.159-0.102,0.293-0.239,0.398-0.412
		c0.106-0.173,0.195-0.377,0.267-0.612c0.07-0.235,0.128-0.485,0.173-0.751l0.997-5.771h2.048L330.347,258.252z"/>
	<path style="fill:#FFFFFF;" d="M337.183,254.063h-1.729l-1.344,7.673h-2.021l1.344-7.673h-1.729l0.306-1.742h5.479L337.183,254.063
		z"/>
	<path style="fill:#FFFFFF;" d="M344.258,255.699c0,0.771-0.102,1.532-0.306,2.281s-0.494,1.421-0.871,2.015
		c-0.377,0.594-0.838,1.073-1.383,1.437c-0.546,0.363-1.159,0.545-1.842,0.545c-0.479,0-0.907-0.086-1.283-0.259
		c-0.377-0.173-0.694-0.417-0.951-0.731c-0.258-0.314-0.452-0.691-0.585-1.13s-0.2-0.929-0.2-1.469c0-0.771,0.101-1.534,0.3-2.288
		s0.487-1.427,0.864-2.021c0.377-0.594,0.838-1.075,1.383-1.443c0.546-0.368,1.164-0.552,1.855-0.552
		c0.505,0,0.946,0.086,1.323,0.259s0.691,0.419,0.944,0.738c0.253,0.319,0.44,0.701,0.565,1.144
		C344.196,254.666,344.258,255.158,344.258,255.699z M342.144,255.991c0-0.248-0.018-0.492-0.053-0.731
		c-0.036-0.239-0.096-0.448-0.18-0.625c-0.085-0.177-0.197-0.321-0.34-0.432c-0.142-0.111-0.318-0.167-0.531-0.167
		c-0.337,0-0.637,0.138-0.897,0.413c-0.262,0.275-0.481,0.621-0.659,1.037c-0.177,0.417-0.31,0.869-0.398,1.356
		c-0.089,0.488-0.133,0.94-0.133,1.356c0,0.249,0.02,0.483,0.06,0.705s0.102,0.415,0.187,0.578c0.084,0.165,0.199,0.293,0.346,0.386
		c0.146,0.093,0.325,0.14,0.538,0.14c0.319,0,0.607-0.128,0.864-0.386c0.258-0.257,0.475-0.585,0.652-0.984
		c0.177-0.399,0.312-0.833,0.405-1.303C342.097,256.865,342.144,256.417,342.144,255.991z"/>
	<path style="fill:#FFFFFF;" d="M350.495,254.701c-0.124-0.213-0.284-0.376-0.479-0.492c-0.195-0.115-0.439-0.173-0.731-0.173
		c-0.382,0-0.721,0.134-1.018,0.4c-0.297,0.267-0.545,0.602-0.745,1.006c-0.199,0.404-0.35,0.846-0.452,1.326
		c-0.102,0.48-0.152,0.933-0.152,1.359c0,0.267,0.028,0.516,0.086,0.747s0.145,0.436,0.26,0.613s0.261,0.317,0.438,0.42
		c0.178,0.102,0.391,0.153,0.639,0.153c0.346,0,0.646-0.076,0.904-0.228l0.332-1.86h-1.25l0.319-1.769h3.046l-0.865,4.976
		c-0.337,0.23-0.725,0.42-1.163,0.571c-0.439,0.15-0.938,0.225-1.496,0.225c-0.55,0-1.028-0.093-1.437-0.279
		c-0.408-0.186-0.747-0.441-1.018-0.765c-0.271-0.323-0.472-0.709-0.604-1.157s-0.2-0.933-0.2-1.457
		c0-0.789,0.109-1.558,0.326-2.307s0.523-1.414,0.918-1.995c0.395-0.581,0.868-1.048,1.423-1.403
		c0.554-0.354,1.168-0.532,1.842-0.532c0.629,0,1.146,0.104,1.549,0.312s0.703,0.477,0.898,0.804L350.495,254.701z"/>
	<path style="fill:#FFFFFF;" d="M357.702,254.116h-2.46l-0.346,1.955h2.301l-0.293,1.676h-2.287l-0.372,2.154h2.686l-0.318,1.835
		h-4.642l1.636-9.416h4.401L357.702,254.116z M356.426,251.562h-1.344l1.49-1.915h1.688L356.426,251.562z"/>
	<path style="fill:#FFFFFF;" d="M364.804,254.741c0,0.718-0.161,1.321-0.485,1.809c-0.323,0.488-0.756,0.825-1.297,1.011
		l1.051,4.176h-2.154l-0.784-3.79h-0.691l-0.652,3.79h-1.968l1.636-9.416h2.766c0.834,0,1.472,0.202,1.915,0.605
		C364.582,253.33,364.804,253.935,364.804,254.741z M362.77,255.007c0-0.364-0.098-0.616-0.293-0.758
		c-0.195-0.142-0.417-0.213-0.665-0.213h-0.691l-0.426,2.46h0.665c0.391,0,0.723-0.124,0.998-0.373
		C362.632,255.876,362.77,255.504,362.77,255.007z"/>
	<path style="fill:#FFFFFF;" d="M370.682,254.116h-2.46l-0.346,1.955h2.301l-0.293,1.676h-2.287l-0.372,2.154h2.686l-0.318,1.835
		h-4.642l1.636-9.416h4.401L370.682,254.116z M369.405,251.562h-1.344l1.49-1.915h1.688L369.405,251.562z"/>
</g>
<g>
	<path style="fill:#FFFFFF;" d="M105.073,381.523c0,2.036-0.244,4.099-0.733,6.188c-0.488,2.091-1.29,3.977-2.402,5.659
		c-1.114,1.684-2.579,3.061-4.397,4.133c-1.819,1.072-4.071,1.608-6.759,1.608h-8.347l5.008-28.826h7.614
		c1.791,0,3.324,0.271,4.601,0.814c1.275,0.543,2.314,1.31,3.115,2.3c0.8,0.991,1.384,2.179,1.75,3.562
		C104.89,378.348,105.073,379.868,105.073,381.523z M98.681,382.041c0-0.9-0.075-1.738-0.224-2.516
		c-0.149-0.777-0.394-1.445-0.733-2.004c-0.34-0.559-0.773-1.002-1.303-1.329s-1.174-0.491-1.934-0.491h-1.75l-3.095,17.996h1.833
		c1.194,0,2.239-0.354,3.135-1.063c0.896-0.708,1.649-1.622,2.26-2.74s1.065-2.365,1.364-3.742
		C98.532,384.774,98.681,383.404,98.681,382.041z"/>
	<path style="fill:#FFFFFF;" d="M123.721,375.782h-7.532l-1.059,5.985h7.043l-0.896,5.13h-7.003l-1.14,6.596h8.225l-0.977,5.619
		h-14.21l5.008-28.826h13.477L123.721,375.782z"/>
	<path style="fill:#FFFFFF;" d="M140.006,376.882c-0.462-0.543-1.032-0.971-1.71-1.282c-0.679-0.312-1.385-0.469-2.117-0.469
		c-0.381,0-0.781,0.075-1.201,0.224c-0.421,0.15-0.801,0.374-1.14,0.672c-0.34,0.3-0.625,0.672-0.855,1.12
		c-0.231,0.448-0.346,0.984-0.346,1.608c0,0.787,0.237,1.438,0.712,1.954c0.475,0.516,1.187,1.045,2.138,1.588
		c0.542,0.326,1.12,0.713,1.73,1.16c0.611,0.448,1.167,0.978,1.669,1.588c0.502,0.611,0.916,1.317,1.242,2.117
		c0.326,0.801,0.488,1.73,0.488,2.789c0,1.656-0.278,3.102-0.834,4.336c-0.557,1.236-1.303,2.268-2.239,3.095
		c-0.937,0.828-2.002,1.445-3.196,1.853c-1.195,0.407-2.43,0.61-3.705,0.61c-1.765,0-3.379-0.299-4.845-0.896
		c-1.465-0.597-2.605-1.329-3.42-2.198l3.705-4.683c0.542,0.625,1.214,1.134,2.016,1.527c0.8,0.394,1.635,0.59,2.504,0.59
		c0.434,0,0.868-0.081,1.303-0.244c0.434-0.163,0.821-0.394,1.161-0.692c0.339-0.298,0.61-0.664,0.814-1.099
		s0.306-0.923,0.306-1.466c0-0.787-0.238-1.486-0.713-2.097c-0.475-0.611-1.255-1.229-2.341-1.853
		c-0.625-0.353-1.229-0.747-1.812-1.182c-0.584-0.434-1.099-0.949-1.547-1.547c-0.448-0.597-0.808-1.275-1.079-2.035
		c-0.271-0.76-0.407-1.643-0.407-2.647c0-1.384,0.244-2.673,0.733-3.867s1.167-2.226,2.036-3.095
		c0.869-0.868,1.914-1.554,3.135-2.056c1.221-0.502,2.565-0.754,4.031-0.754c1.655,0,3.135,0.259,4.438,0.773
		c1.303,0.517,2.321,1.195,3.054,2.036L140.006,376.882z"/>
	<path style="fill:#FFFFFF;" d="M163.01,399.112l-0.123-5.415h-6.718l-2.158,5.415h-6.515l12.5-28.826h7.858l1.507,28.826H163.01z
		 M162.725,376.516h-0.163l-4.764,12.377h5.171L162.725,376.516z"/>
	<path style="fill:#FFFFFF;" d="M186.135,399.112h-14.047l5.008-28.826h6.27l-3.99,23.045h7.777L186.135,399.112z"/>
	<path style="fill:#FFFFFF;" d="M206.289,375.619h-5.293l-4.112,23.493h-6.189l4.112-23.493h-5.293l0.937-5.333h16.774
		L206.289,375.619z"/>
	<path style="fill:#FFFFFF;" d="M222.372,375.782h-7.532l-1.059,5.985h7.043l-0.896,5.13h-7.003l-1.14,6.596h8.225l-0.977,5.619
		h-14.21l5.008-28.826h13.477L222.372,375.782z"/>
	<path style="fill:#FFFFFF;" d="M244.113,377.696c0,2.198-0.496,4.045-1.486,5.537c-0.991,1.493-2.314,2.524-3.97,3.095
		l3.216,12.784h-6.596l-2.402-11.604h-2.117l-1.995,11.604h-6.026l5.008-28.826h8.469c2.551,0,4.505,0.617,5.863,1.853
		C243.435,373.374,244.113,375.227,244.113,377.696z M237.884,378.511c0-1.113-0.299-1.887-0.896-2.321
		c-0.597-0.434-1.276-0.651-2.036-0.651h-2.117l-1.303,7.532h2.036c1.194,0,2.212-0.38,3.053-1.14S237.884,380.031,237.884,378.511z
		"/>
	<path style="fill:#FFFFFF;" d="M263.738,399.112h-6.719l-3.786-17.955h-0.122l-2.932,17.955h-5.619l5.008-28.826h6.881
		l3.623,18.199h0.163l3.013-18.199h5.497L263.738,399.112z"/>
	<path style="fill:#FFFFFF;" d="M281.897,399.112l-0.122-5.415h-6.719l-2.157,5.415h-6.515l12.5-28.826h7.857l1.507,28.826H281.897z
		 M281.612,376.516h-0.163l-4.764,12.377h5.171L281.612,376.516z"/>
	<path style="fill:#FFFFFF;" d="M308.361,375.619h-5.293l-4.112,23.493h-6.188l4.111-23.493h-5.293l0.937-5.333h16.775
		L308.361,375.619z"/>
	<path style="fill:#FFFFFF;" d="M313.206,399.112h-6.311l5.008-28.826h6.311L313.206,399.112z"/>
	<path style="fill:#FFFFFF;" d="M330.632,399.112h-7.939l-1.954-28.826h6.718l0.57,21.375h0.122l7.817-21.375h6.8L330.632,399.112z"
		/>
	<path style="fill:#FFFFFF;" d="M357.952,375.782h-7.532l-1.059,5.985h7.044l-0.896,5.13h-7.003l-1.14,6.596h8.225l-0.978,5.619
		h-14.209l5.008-28.826h13.477L357.952,375.782z"/>
	<path style="fill:#FFFFFF;" d="M374.237,376.882c-0.462-0.543-1.031-0.971-1.71-1.282c-0.679-0.312-1.384-0.469-2.117-0.469
		c-0.38,0-0.78,0.075-1.201,0.224c-0.421,0.15-0.801,0.374-1.14,0.672c-0.34,0.3-0.625,0.672-0.855,1.12s-0.346,0.984-0.346,1.608
		c0,0.787,0.237,1.438,0.713,1.954c0.475,0.516,1.187,1.045,2.137,1.588c0.543,0.326,1.12,0.713,1.73,1.16
		c0.611,0.448,1.167,0.978,1.67,1.588c0.502,0.611,0.916,1.317,1.241,2.117c0.326,0.801,0.489,1.73,0.489,2.789
		c0,1.656-0.279,3.102-0.835,4.336c-0.557,1.236-1.303,2.268-2.239,3.095c-0.937,0.828-2.002,1.445-3.196,1.853
		s-2.43,0.61-3.705,0.61c-1.765,0-3.379-0.299-4.845-0.896s-2.606-1.329-3.42-2.198l3.705-4.683
		c0.542,0.625,1.214,1.134,2.015,1.527s1.636,0.59,2.504,0.59c0.435,0,0.869-0.081,1.304-0.244c0.434-0.163,0.82-0.394,1.16-0.692
		c0.339-0.298,0.61-0.664,0.814-1.099c0.203-0.435,0.305-0.923,0.305-1.466c0-0.787-0.237-1.486-0.712-2.097
		c-0.476-0.611-1.256-1.229-2.342-1.853c-0.624-0.353-1.229-0.747-1.812-1.182c-0.584-0.434-1.1-0.949-1.547-1.547
		c-0.448-0.597-0.809-1.275-1.079-2.035c-0.271-0.76-0.407-1.643-0.407-2.647c0-1.384,0.244-2.673,0.732-3.867
		c0.489-1.194,1.167-2.226,2.036-3.095c0.868-0.868,1.914-1.554,3.135-2.056c1.222-0.502,2.565-0.754,4.031-0.754
		c1.655,0,3.135,0.259,4.438,0.773c1.304,0.517,2.321,1.195,3.054,2.036L374.237,376.882z"/>
	<path style="fill:#FFFFFF;" d="M402.574,375.782h-7.532l-1.059,5.985h7.044l-0.896,5.13h-7.003l-1.14,6.596h8.225l-0.978,5.619
		h-14.209l5.008-28.826h13.477L402.574,375.782z"/>
	<path style="fill:#FFFFFF;" d="M421.059,375.619h-5.293l-4.112,23.493h-6.188l4.111-23.493h-5.293l0.937-5.333h16.775
		L421.059,375.619z"/>
</g>
</svg>
