<?xml version="1.0" encoding="iso-8859-1"?>
<!-- Generator: Adobe Illustrator 15.0.0, SVG Export Plug-In . SVG Version: 6.00 Build 0)  -->
<!DOCTYPE svg PUBLIC "-//W3C//DTD SVG 1.1//EN" "http://www.w3.org/Graphics/SVG/1.1/DTD/svg11.dtd">
<svg version="1.1" id="Layer_1" xmlns="http://www.w3.org/2000/svg" xmlns:xlink="http://www.w3.org/1999/xlink" x="0px" y="0px"
	 width="733px" height="404px" viewBox="0 0 733 404" style="enable-background:new 0 0 733 404;" xml:space="preserve">
<rect style="fill:#333333;" width="733" height="404"/>
<g>
	<path style="fill:#FFFFFF;" d="M263.778,367.446c-2.254,1.467-4.902,2.2-7.943,2.2c-2.607,0-4.836-0.477-6.682-1.426
		c-1.847-0.95-3.354-2.309-4.521-4.074c-1.169-1.765-2.037-3.87-2.607-6.314s-0.855-5.133-0.855-8.066
		c0-3.041,0.244-6.151,0.733-9.329c0.488-3.178,1.208-6.26,2.159-9.248c0.949-2.986,2.118-5.798,3.503-8.433
		c1.386-2.634,2.96-4.942,4.726-6.926c1.765-1.982,3.734-3.557,5.907-4.726c2.172-1.168,4.509-1.752,7.008-1.752
		c2.66,0,4.874,0.529,6.64,1.589c1.765,1.06,3.245,2.621,4.441,4.685l-1.467,0.979c-2.011-3.748-5.215-5.622-9.614-5.622
		c-2.337,0-4.51,0.57-6.519,1.711c-2.011,1.141-3.844,2.676-5.5,4.604c-1.657,1.929-3.124,4.169-4.399,6.722
		c-1.277,2.554-2.351,5.256-3.219,8.107c-0.869,2.852-1.521,5.771-1.955,8.759c-0.436,2.987-0.652,5.866-0.652,8.637
		c0,2.717,0.244,5.202,0.733,7.455c0.489,2.255,1.263,4.196,2.322,5.826c1.06,1.629,2.39,2.906,3.992,3.829
		c1.602,0.924,3.545,1.385,5.826,1.385c2.335,0,4.562-0.597,6.681-1.792c2.119-1.194,4.046-3.015,5.785-5.459l1.223,1.222
		C267.947,364.161,266.032,365.979,263.778,367.446z"/>
	<path style="fill:#FFFFFF;" d="M301.707,368.343l-8.229-29.088h-9.533l-5.052,29.088h-1.792l10.021-57.687h10.43
		c1.466,0,2.919,0.244,4.358,0.733c1.439,0.488,2.716,1.222,3.83,2.2c1.112,0.978,2.009,2.228,2.688,3.747
		c0.679,1.521,1.019,3.341,1.019,5.46c0,2.661-0.407,5.011-1.222,7.048c-0.815,2.036-1.889,3.734-3.219,5.092
		c-1.332,1.358-2.852,2.391-4.562,3.097c-1.712,0.706-3.437,1.087-5.174,1.141l8.311,29.169H301.707z M293.804,337.625
		c2.118,0,4.033-0.353,5.744-1.059c1.711-0.705,3.163-1.697,4.359-2.974c1.193-1.276,2.118-2.824,2.77-4.645
		c0.652-1.819,0.978-3.843,0.978-6.07c0-3.53-1.032-6.179-3.096-7.944c-2.065-1.765-4.726-2.647-7.985-2.647h-7.984l-4.481,25.339
		H293.804z"/>
	<path style="fill:#FFFFFF;" d="M312.705,368.343l10.022-57.687h1.792l-10.021,57.687H312.705z"/>
	<path style="fill:#FFFFFF;" d="M344.646,312.286l-9.859,56.057h-1.792l9.858-56.057h-11.407l0.326-1.63h24.606l-0.326,1.63H344.646
		z"/>
	<path style="fill:#FFFFFF;" d="M353.606,368.343l10.022-57.687h1.792l-10.021,57.687H353.606z"/>
	<path style="fill:#FFFFFF;" d="M371.288,348.218c0-2.934,0.23-5.92,0.692-8.963c0.461-3.041,1.141-6.001,2.037-8.881
		c0.896-2.879,1.996-5.594,3.3-8.148c1.304-2.552,2.811-4.778,4.521-6.681c1.711-1.9,3.598-3.408,5.663-4.522
		c2.063-1.112,4.318-1.67,6.763-1.67c2.335,0,4.372,0.477,6.11,1.426c1.738,0.951,3.178,2.281,4.318,3.992
		c1.142,1.711,1.982,3.763,2.526,6.152c0.542,2.391,0.814,5.051,0.814,7.984c0,2.281-0.177,4.713-0.529,7.292
		c-0.354,2.581-0.884,5.174-1.589,7.781c-0.707,2.607-1.562,5.147-2.566,7.618c-1.006,2.473-2.159,4.713-3.463,6.723
		s-2.743,3.748-4.318,5.214c-1.576,1.467-3.259,2.473-5.052,3.015v0.163h13.362l-0.244,1.63h-19.066
		c-2.01,0-3.829-0.461-5.459-1.385c-1.629-0.924-3.028-2.254-4.196-3.993c-1.168-1.737-2.064-3.855-2.688-6.354
		C371.6,354.112,371.288,351.313,371.288,348.218z M406.242,329.151c0-2.66-0.245-5.104-0.733-7.333
		c-0.489-2.227-1.236-4.141-2.241-5.744c-1.006-1.602-2.254-2.852-3.748-3.748c-1.494-0.896-3.246-1.344-5.255-1.344
		c-2.281,0-4.387,0.543-6.314,1.629c-1.929,1.088-3.681,2.566-5.256,4.44c-1.576,1.874-2.961,4.033-4.155,6.478
		c-1.195,2.444-2.199,5.039-3.015,7.781c-0.814,2.744-1.426,5.541-1.833,8.393s-0.611,5.581-0.611,8.188
		c0,2.717,0.258,5.229,0.774,7.537c0.516,2.31,1.263,4.306,2.24,5.988c0.978,1.685,2.213,2.988,3.707,3.911
		c1.494,0.924,3.219,1.385,5.174,1.385c2.173,0,4.209-0.57,6.111-1.711c1.9-1.141,3.639-2.675,5.215-4.604
		c1.574-1.928,2.986-4.155,4.236-6.681c1.249-2.526,2.295-5.187,3.138-7.985c0.841-2.797,1.479-5.622,1.914-8.474
		C406.024,334.407,406.242,331.705,406.242,329.151z"/>
	<path style="fill:#FFFFFF;" d="M444.738,356.08c-0.787,2.744-1.86,5.121-3.218,7.13c-1.358,2.01-3.056,3.585-5.093,4.726
		s-4.55,1.711-7.536,1.711c-4.347,0-7.537-1.277-9.574-3.829c-2.037-2.553-3.056-5.92-3.056-10.104c0-1.304,0.067-2.661,0.204-4.074
		c0.135-1.412,0.339-2.878,0.611-4.399l6.355-36.584h1.792l-6.192,35.688c-0.272,1.576-0.503,3.205-0.692,4.889
		c-0.191,1.685-0.285,3.124-0.285,4.318c0,1.739,0.189,3.368,0.57,4.889c0.379,1.521,0.99,2.839,1.833,3.951
		c0.842,1.114,1.941,1.997,3.3,2.648c1.357,0.652,3.042,0.978,5.052,0.978c2.879,0,5.269-0.624,7.17-1.874
		c1.901-1.249,3.449-2.893,4.645-4.929c1.194-2.037,2.118-4.346,2.771-6.926c0.651-2.58,1.222-5.228,1.711-7.944l6.192-35.688h1.792
		l-6.354,36.584C446.191,350.391,445.525,353.338,444.738,356.08z"/>
	<path style="fill:#FFFFFF;" d="M457.164,368.343l10.022-57.687h19.962l-0.326,1.63h-18.169l-4.4,25.339h17.355l-0.245,1.63h-17.354
		l-4.726,27.458h19.555l-0.326,1.63H457.164z"/>
</g>
<g>
	<path style="fill:#FFFFFF;" d="M184.737,275.354h-29.15l25.473-143.648h-0.787l-62.502,143.648H93.085L81.794,131.706h-0.787
		L56.058,275.354H28.747L61.573,89.426h40.18l11.816,136.82h1.051l59.086-136.82h43.855L184.737,275.354z"/>
	<path style="fill:#FFFFFF;" d="M304.746,275.354l-1.313-40.18h-50.421l-17.069,40.18h-30.988l82.459-185.927h38.604l9.191,185.927
		H304.746z M301.332,118.576h-1.051l-38.866,93.225h42.28L301.332,118.576z"/>
	<path style="fill:#FFFFFF;" d="M454.692,123.565c-6.479-8.051-14.883-12.08-25.211-12.08c-3.327,0-6.696,0.657-10.11,1.97
		c-3.414,1.313-6.479,3.241-9.191,5.777c-2.716,2.54-4.948,5.736-6.696,9.585c-1.752,3.854-2.626,8.317-2.626,13.394
		c0,6.655,1.838,12.039,5.515,16.15c3.677,4.115,8.576,8.01,14.706,11.687c3.849,2.453,7.747,5.166,11.687,8.141
		c3.938,2.979,7.484,6.434,10.636,10.373c3.151,3.938,5.687,8.403,7.615,13.393c1.925,4.99,2.889,10.726,2.889,17.201
		c0,9.98-1.621,18.736-4.858,26.262c-3.241,7.529-7.615,13.832-13.13,18.908c-5.516,5.078-11.863,8.928-19.039,11.555
		c-7.182,2.625-14.797,3.938-22.848,3.938c-10.332,0-19.827-1.883-28.493-5.645c-8.666-3.764-15.362-8.621-20.089-14.576
		l18.645-22.059c3.5,4.555,7.879,8.23,13.131,11.029c5.252,2.803,10.854,4.203,16.807,4.203c8.403,0,15.363-2.537,20.878-7.617
		c5.515-5.074,8.271-12.342,8.271-21.795c0-6.652-1.797-12.344-5.383-17.07c-3.591-4.727-9.15-9.364-16.676-13.918
		c-3.854-2.273-7.616-4.858-11.292-7.747c-3.677-2.889-6.918-6.212-9.717-9.979c-2.803-3.763-5.035-8.05-6.696-12.867
		c-1.666-4.813-2.495-10.459-2.495-16.938c0-8.929,1.53-17.069,4.596-24.423c3.061-7.353,7.222-13.655,12.474-18.907
		c5.253-5.253,11.465-9.323,18.646-12.212c7.177-2.889,14.969-4.333,23.372-4.333c9.454,0,17.943,1.535,25.474,4.596
		c7.525,3.065,13.564,7.312,18.119,12.736L454.692,123.565z"/>
	<path style="fill:#FFFFFF;" d="M571.815,123.565c-6.479-8.051-14.883-12.08-25.211-12.08c-3.327,0-6.696,0.657-10.11,1.97
		c-3.414,1.313-6.479,3.241-9.191,5.777c-2.716,2.54-4.948,5.736-6.696,9.585c-1.752,3.854-2.626,8.317-2.626,13.394
		c0,6.655,1.838,12.039,5.515,16.15c3.677,4.115,8.576,8.01,14.706,11.687c3.849,2.453,7.747,5.166,11.687,8.141
		c3.938,2.979,7.484,6.434,10.636,10.373c3.151,3.938,5.687,8.403,7.615,13.393c1.925,4.99,2.889,10.726,2.889,17.201
		c0,9.98-1.621,18.736-4.858,26.262c-3.241,7.529-7.615,13.832-13.13,18.908c-5.516,5.078-11.863,8.928-19.039,11.555
		c-7.182,2.625-14.797,3.938-22.848,3.938c-10.332,0-19.827-1.883-28.493-5.645c-8.666-3.764-15.362-8.621-20.089-14.576
		l18.645-22.059c3.5,4.555,7.879,8.23,13.131,11.029c5.252,2.803,10.854,4.203,16.807,4.203c8.403,0,15.363-2.537,20.878-7.617
		c5.515-5.074,8.271-12.342,8.271-21.795c0-6.652-1.797-12.344-5.383-17.07c-3.591-4.727-9.15-9.364-16.676-13.918
		c-3.854-2.273-7.616-4.858-11.292-7.747c-3.677-2.889-6.918-6.212-9.717-9.979c-2.803-3.763-5.035-8.05-6.696-12.867
		c-1.666-4.813-2.495-10.459-2.495-16.938c0-8.929,1.53-17.069,4.596-24.423c3.061-7.353,7.222-13.655,12.474-18.907
		c5.253-5.253,11.465-9.323,18.646-12.212c7.177-2.889,14.969-4.333,23.372-4.333c9.454,0,17.943,1.535,25.474,4.596
		c7.525,3.065,13.564,7.312,18.119,12.736L571.815,123.565z"/>
	<path style="fill:#FFFFFF;" d="M697.867,115.687h-51.472l-9.191,51.209h49.108l-4.202,24.947h-48.845l-9.979,56.723h56.198
		l-4.465,26.787h-85.085l32.301-185.927h80.358L697.867,115.687z"/>
</g>
<g>
	<g>
		<path style="fill:#FFFFFF;" d="M277.632,41.853c0,0.443-0.03,0.887-0.09,1.33h0.061c0.181-0.584,0.413-1.138,0.695-1.662
			c0.282-0.523,0.609-0.977,0.982-1.359c0.373-0.383,0.781-0.685,1.224-0.907c0.443-0.221,0.926-0.333,1.45-0.333
			c0.564,0,1.042,0.106,1.436,0.317c0.393,0.211,0.7,0.483,0.921,0.816s0.382,0.71,0.483,1.133c0.101,0.423,0.151,0.846,0.151,1.269
			c0,0.625-0.061,1.249-0.182,1.874L283.072,54h-0.665l1.692-9.669c0.121-0.625,0.181-1.249,0.181-1.874
			c0-0.363-0.041-0.715-0.121-1.058c-0.081-0.342-0.212-0.654-0.393-0.937c-0.181-0.282-0.423-0.508-0.725-0.68
			c-0.302-0.171-0.675-0.257-1.118-0.257c-0.645,0-1.224,0.187-1.737,0.559c-0.514,0.373-0.962,0.851-1.345,1.435
			c-0.383,0.584-0.7,1.234-0.952,1.949c-0.252,0.715-0.438,1.405-0.559,2.07L275.85,54h-0.665l1.692-9.669
			c0.061-0.342,0.111-0.695,0.151-1.058c0.04-0.363,0.061-0.715,0.061-1.058c0-0.302-0.036-0.614-0.106-0.937
			c-0.071-0.322-0.196-0.609-0.378-0.861c-0.181-0.252-0.423-0.463-0.725-0.635c-0.302-0.171-0.675-0.257-1.118-0.257
			c-0.645,0-1.229,0.187-1.752,0.559c-0.524,0.373-0.982,0.851-1.375,1.435c-0.393,0.584-0.715,1.234-0.967,1.949
			c-0.252,0.715-0.428,1.405-0.529,2.07L268.658,54h-0.665l1.904-10.909c0.04-0.242,0.085-0.529,0.136-0.861
			c0.05-0.333,0.101-0.675,0.151-1.027c0.05-0.353,0.095-0.69,0.136-1.013c0.04-0.322,0.07-0.584,0.091-0.786h0.665
			c-0.021,0.182-0.054,0.403-0.097,0.665c-0.043,0.262-0.086,0.544-0.129,0.846s-0.086,0.6-0.129,0.891
			c-0.043,0.292-0.086,0.559-0.129,0.801h0.072c0.161-0.423,0.367-0.856,0.619-1.299c0.251-0.443,0.553-0.841,0.905-1.193
			c0.352-0.353,0.743-0.64,1.176-0.861c0.433-0.221,0.911-0.333,1.434-0.333c0.502,0,0.935,0.086,1.297,0.257
			c0.362,0.171,0.659,0.393,0.89,0.665s0.397,0.584,0.498,0.937C277.582,41.133,277.632,41.49,277.632,41.853z"/>
		<path style="fill:#FFFFFF;" d="M295.196,50.676c-0.103,0.564-0.19,1.159-0.262,1.783c-0.072,0.625-0.118,1.138-0.138,1.541h-0.544
			c0.037-0.463,0.093-1.027,0.169-1.692c0.075-0.665,0.16-1.258,0.254-1.783h-0.051c-0.181,0.504-0.397,0.987-0.648,1.451
			s-0.553,0.876-0.904,1.239c-0.351,0.363-0.748,0.65-1.19,0.861c-0.442,0.211-0.934,0.317-1.476,0.317
			c-0.964,0-1.688-0.323-2.169-0.967c-0.482-0.645-0.723-1.42-0.723-2.327c0-1.067,0.186-1.969,0.559-2.705
			c0.373-0.735,0.871-1.324,1.496-1.768c0.625-0.443,1.33-0.76,2.115-0.952s1.602-0.287,2.448-0.287h1.33
			c0.141-0.705,0.237-1.259,0.287-1.662c0.05-0.403,0.076-0.775,0.076-1.118c0-1.067-0.227-1.848-0.68-2.342
			c-0.453-0.493-1.103-0.74-1.949-0.74c-0.604,0-1.174,0.156-1.708,0.468c-0.534,0.312-1.002,0.73-1.405,1.254l-0.423-0.423
			c0.443-0.604,0.977-1.073,1.602-1.405c0.624-0.332,1.269-0.499,1.934-0.499c1.088,0,1.908,0.317,2.462,0.952
			c0.554,0.634,0.831,1.526,0.831,2.674c0,0.283-0.021,0.574-0.062,0.876c-0.041,0.302-0.082,0.595-0.123,0.876L295.196,50.676z
			 M295.37,45.932h-1.058c-0.786,0-1.546,0.075-2.281,0.227c-0.735,0.151-1.39,0.423-1.964,0.816
			c-0.574,0.393-1.033,0.921-1.375,1.586c-0.343,0.665-0.514,1.501-0.514,2.508c0,0.826,0.201,1.486,0.604,1.979
			s0.947,0.74,1.632,0.74c0.705,0,1.319-0.191,1.843-0.574c0.524-0.382,0.972-0.876,1.345-1.48c0.373-0.604,0.68-1.274,0.922-2.01
			c0.242-0.735,0.423-1.455,0.544-2.161L295.37,45.932z"/>
		<path style="fill:#FFFFFF;" d="M302.743,41.309c0.261-0.443,0.574-0.841,0.937-1.193s0.765-0.64,1.208-0.861
			c0.443-0.221,0.927-0.333,1.451-0.333c0.563,0,1.042,0.106,1.435,0.317c0.393,0.211,0.7,0.483,0.922,0.816
			c0.221,0.333,0.382,0.71,0.483,1.133c0.101,0.423,0.151,0.846,0.151,1.269c0,0.625-0.061,1.249-0.182,1.874L307.457,54h-0.665
			l1.692-9.669c0.121-0.625,0.181-1.249,0.181-1.874c0-0.363-0.041-0.715-0.121-1.058c-0.081-0.342-0.212-0.654-0.393-0.937
			c-0.181-0.282-0.423-0.508-0.725-0.68c-0.302-0.171-0.675-0.257-1.118-0.257c-0.645,0-1.234,0.187-1.768,0.559
			c-0.534,0.373-1.002,0.851-1.405,1.435c-0.403,0.584-0.735,1.234-0.997,1.949c-0.262,0.715-0.443,1.405-0.544,2.07L300.114,54
			h-0.665l1.904-10.909c0.04-0.242,0.085-0.529,0.136-0.861c0.05-0.333,0.101-0.675,0.151-1.027c0.05-0.353,0.095-0.69,0.136-1.013
			c0.04-0.322,0.07-0.584,0.091-0.786h0.665c-0.021,0.182-0.054,0.403-0.097,0.665c-0.043,0.262-0.086,0.544-0.129,0.846
			s-0.086,0.6-0.129,0.891c-0.043,0.292-0.086,0.559-0.129,0.801h0.061C302.269,42.185,302.48,41.752,302.743,41.309z"/>
		<path style="fill:#FFFFFF;" d="M312.442,54l2.539-14.595h0.665L313.107,54H312.442z M316.008,34.873
			c-0.383,0-0.574-0.222-0.574-0.665c0-0.221,0.065-0.433,0.196-0.634c0.131-0.201,0.317-0.302,0.559-0.302
			c0.201,0,0.348,0.065,0.438,0.196c0.091,0.131,0.136,0.287,0.136,0.468c0,0.262-0.071,0.483-0.211,0.665
			C316.41,34.782,316.229,34.873,316.008,34.873z"/>
		<path style="fill:#FFFFFF;" d="M325.767,31.518c-0.161-0.04-0.297-0.075-0.408-0.105c-0.111-0.03-0.247-0.045-0.408-0.045
			c-0.483,0-0.886,0.116-1.208,0.348s-0.584,0.529-0.786,0.891c-0.202,0.363-0.363,0.781-0.483,1.254
			c-0.121,0.474-0.222,0.952-0.302,1.436l-0.695,4.109h2.538l-0.121,0.544h-2.478L318.968,54h-0.665l2.447-14.051h-2.357
			l0.121-0.544h2.296l0.695-4.065c0.242-1.445,0.614-2.56,1.118-3.342s1.289-1.174,2.357-1.174c0.342,0,0.665,0.058,0.967,0.172
			L325.767,31.518z"/>
		<path style="fill:#FFFFFF;" d="M325.466,46.536c-0.101,0.464-0.177,0.937-0.228,1.42c-0.05,0.483-0.075,0.947-0.075,1.39
			c0,1.41,0.282,2.518,0.846,3.324c0.564,0.806,1.37,1.208,2.417,1.208c0.786,0,1.47-0.246,2.055-0.74
			c0.584-0.493,1.078-1.103,1.481-1.828l0.483,0.333c-0.423,0.766-0.972,1.431-1.647,1.994c-0.675,0.564-1.476,0.846-2.402,0.846
			c-1.289,0-2.261-0.448-2.916-1.345c-0.655-0.896-0.982-2.161-0.982-3.792c0-1.027,0.126-2.15,0.379-3.37
			c0.252-1.218,0.631-2.352,1.137-3.399c0.505-1.047,1.132-1.918,1.879-2.614c0.748-0.695,1.627-1.042,2.638-1.042
			c0.667,0,1.218,0.126,1.652,0.378c0.435,0.252,0.783,0.594,1.046,1.027c0.263,0.434,0.45,0.932,0.561,1.496
			c0.111,0.564,0.167,1.148,0.167,1.753c0,0.343-0.035,0.791-0.106,1.344c-0.071,0.555-0.157,1.093-0.258,1.617H325.466z
			 M333.05,45.992c0.08-0.467,0.141-0.895,0.181-1.281c0.04-0.386,0.061-0.752,0.061-1.098c0-0.589-0.051-1.138-0.151-1.647
			c-0.101-0.508-0.262-0.945-0.483-1.311s-0.514-0.656-0.876-0.869c-0.362-0.213-0.796-0.321-1.299-0.321
			c-0.725,0-1.37,0.239-1.934,0.717c-0.564,0.478-1.048,1.058-1.451,1.738c-0.403,0.682-0.73,1.398-0.982,2.15
			c-0.252,0.752-0.428,1.393-0.529,1.921H333.05z"/>
		<path style="fill:#FFFFFF;" d="M338.126,54.483c-0.846,0-1.552-0.196-2.115-0.589c-0.564-0.393-0.987-0.921-1.27-1.586
			l0.544-0.362c0.282,0.604,0.65,1.078,1.103,1.42c0.453,0.343,1.032,0.514,1.738,0.514c0.503,0,0.967-0.101,1.39-0.302
			c0.423-0.201,0.791-0.484,1.103-0.846c0.312-0.363,0.554-0.786,0.725-1.269c0.171-0.484,0.257-1.007,0.257-1.571
			c0-0.443-0.075-0.836-0.227-1.179c-0.151-0.342-0.343-0.645-0.574-0.906s-0.488-0.488-0.771-0.68
			c-0.282-0.191-0.544-0.357-0.786-0.499c-0.564-0.342-1.058-0.76-1.48-1.254s-0.635-1.183-0.635-2.07
			c0-0.604,0.101-1.173,0.302-1.708c0.201-0.534,0.479-0.997,0.831-1.39c0.352-0.393,0.771-0.705,1.254-0.937
			c0.483-0.231,0.998-0.348,1.541-0.348c0.806,0,1.456,0.177,1.949,0.529c0.494,0.353,0.871,0.781,1.133,1.284l-0.514,0.393
			c-0.283-0.503-0.625-0.896-1.027-1.179c-0.403-0.282-0.927-0.423-1.571-0.423c-0.484,0-0.922,0.106-1.314,0.317
			c-0.393,0.211-0.73,0.489-1.013,0.831c-0.282,0.343-0.503,0.745-0.665,1.208c-0.162,0.464-0.242,0.947-0.242,1.451
			c0,0.685,0.171,1.239,0.514,1.662c0.342,0.423,0.806,0.806,1.39,1.148c0.302,0.181,0.609,0.388,0.921,0.619
			c0.312,0.232,0.589,0.499,0.831,0.801c0.242,0.302,0.438,0.645,0.589,1.028c0.151,0.383,0.227,0.806,0.227,1.269
			c0,0.645-0.096,1.249-0.287,1.813c-0.192,0.564-0.468,1.053-0.831,1.465c-0.362,0.413-0.801,0.74-1.314,0.982
			C339.319,54.363,338.75,54.483,338.126,54.483z"/>
		<path style="fill:#FFFFFF;" d="M347.886,54.151c-0.645,0-1.124-0.181-1.436-0.544c-0.312-0.364-0.468-0.858-0.468-1.484
			c0-0.222,0.015-0.449,0.045-0.681s0.065-0.469,0.106-0.711l1.903-10.781h-1.964l0.061-0.544h1.964l0.755-4.291h0.665l-0.755,4.291
			h2.659l-0.06,0.544h-2.659l-1.904,10.805c-0.041,0.223-0.076,0.466-0.106,0.729c-0.03,0.264-0.045,0.476-0.045,0.638
			c0,0.486,0.115,0.855,0.347,1.108c0.231,0.253,0.549,0.379,0.952,0.379c0.181,0,0.382-0.027,0.604-0.082s0.433-0.148,0.635-0.28
			l0.121,0.544C348.823,54.03,348.349,54.151,347.886,54.151z"/>
		<path style="fill:#FFFFFF;" d="M352.963,46.536c-0.101,0.464-0.177,0.937-0.228,1.42c-0.05,0.483-0.075,0.947-0.075,1.39
			c0,1.41,0.282,2.518,0.846,3.324c0.564,0.806,1.37,1.208,2.417,1.208c0.786,0,1.47-0.246,2.055-0.74
			c0.584-0.493,1.078-1.103,1.481-1.828l0.483,0.333c-0.423,0.766-0.972,1.431-1.647,1.994c-0.675,0.564-1.476,0.846-2.402,0.846
			c-1.289,0-2.261-0.448-2.916-1.345c-0.655-0.896-0.982-2.161-0.982-3.792c0-1.027,0.126-2.15,0.379-3.37
			c0.252-1.218,0.631-2.352,1.137-3.399c0.505-1.047,1.132-1.918,1.879-2.614c0.748-0.695,1.627-1.042,2.638-1.042
			c0.667,0,1.218,0.126,1.652,0.378c0.435,0.252,0.783,0.594,1.046,1.027c0.263,0.434,0.45,0.932,0.561,1.496
			c0.111,0.564,0.167,1.148,0.167,1.753c0,0.343-0.035,0.791-0.106,1.344c-0.071,0.555-0.157,1.093-0.258,1.617H352.963z
			 M360.547,45.992c0.08-0.467,0.141-0.895,0.181-1.281c0.04-0.386,0.061-0.752,0.061-1.098c0-0.589-0.051-1.138-0.151-1.647
			c-0.101-0.508-0.262-0.945-0.483-1.311s-0.514-0.656-0.876-0.869c-0.362-0.213-0.796-0.321-1.299-0.321
			c-0.725,0-1.37,0.239-1.934,0.717c-0.564,0.478-1.048,1.058-1.451,1.738c-0.403,0.682-0.73,1.398-0.982,2.15
			c-0.252,0.752-0.428,1.393-0.529,1.921H360.547z"/>
		<path style="fill:#FFFFFF;" d="M371.67,42.91c0.445-1.168,1.031-2.125,1.758-2.871c0.728-0.745,1.597-1.118,2.607-1.118
			c1.213,0,2.097,0.474,2.653,1.42c0.556,0.947,0.833,2.196,0.833,3.747c0,1.188-0.131,2.397-0.394,3.626
			c-0.263,1.229-0.642,2.342-1.137,3.339c-0.496,0.997-1.112,1.818-1.85,2.463s-1.592,0.967-2.562,0.967
			c-1.091,0-1.9-0.358-2.426-1.073s-0.798-1.647-0.818-2.795h-0.06l-1.874,10.636h-0.665l3.812-21.847h0.667l-0.606,3.505H371.67z
			 M376.018,39.526c-0.826,0-1.571,0.318-2.236,0.954c-0.665,0.636-1.224,1.443-1.677,2.423c-0.454,0.979-0.801,2.049-1.042,3.21
			s-0.363,2.256-0.363,3.285c0,1.353,0.231,2.448,0.695,3.286c0.463,0.838,1.179,1.256,2.146,1.256c0.866,0,1.626-0.318,2.282-0.954
			c0.654-0.636,1.208-1.443,1.662-2.422c0.453-0.979,0.796-2.049,1.027-3.21s0.348-2.256,0.348-3.286
			c0-0.666-0.056-1.277-0.166-1.832c-0.111-0.555-0.283-1.034-0.514-1.438c-0.232-0.404-0.529-0.717-0.892-0.938
			C376.924,39.637,376.501,39.526,376.018,39.526z"/>
		<path style="fill:#FFFFFF;" d="M388.014,38.921c1.289,0,2.226,0.494,2.81,1.481c0.584,0.987,0.876,2.266,0.876,3.837
			c0,1.189-0.142,2.387-0.423,3.596c-0.282,1.209-0.68,2.307-1.193,3.294c-0.514,0.987-1.144,1.793-1.889,2.417
			c-0.746,0.624-1.571,0.937-2.478,0.937c-1.189,0-2.09-0.463-2.704-1.39c-0.615-0.926-0.922-2.165-0.922-3.716
			c0-1.188,0.136-2.402,0.408-3.642c0.271-1.239,0.659-2.361,1.163-3.369c0.503-1.007,1.123-1.833,1.858-2.478
			S387.086,38.921,388.014,38.921z M387.964,39.465c-0.843,0-1.586,0.318-2.228,0.954c-0.643,0.636-1.185,1.443-1.626,2.423
			c-0.441,0.979-0.778,2.049-1.009,3.21s-0.346,2.266-0.346,3.315c0,1.333,0.241,2.418,0.722,3.255
			c0.481,0.838,1.254,1.256,2.318,1.256c0.843,0,1.586-0.308,2.228-0.923s1.189-1.403,1.641-2.362s0.793-2.003,1.023-3.134
			c0.231-1.13,0.347-2.211,0.347-3.241c0-0.686-0.055-1.322-0.166-1.907c-0.111-0.585-0.291-1.09-0.542-1.514
			c-0.251-0.424-0.572-0.751-0.964-0.984S388.506,39.465,387.964,39.465z"/>
		<path style="fill:#FFFFFF;" d="M402.034,50.797c-0.162,0.423-0.373,0.856-0.635,1.299c-0.262,0.443-0.574,0.841-0.937,1.194
			c-0.363,0.353-0.766,0.64-1.209,0.861c-0.443,0.222-0.927,0.333-1.45,0.333c-0.584,0-1.068-0.105-1.451-0.317
			c-0.383-0.211-0.685-0.483-0.906-0.816c-0.222-0.332-0.383-0.71-0.483-1.133c-0.101-0.423-0.151-0.846-0.151-1.269
			c0-0.604,0.061-1.229,0.181-1.874l1.692-9.67h0.665l-1.692,9.67c-0.121,0.645-0.181,1.269-0.181,1.874
			c0,0.362,0.04,0.715,0.121,1.058c0.081,0.343,0.211,0.655,0.393,0.937c0.181,0.282,0.423,0.509,0.725,0.68
			c0.302,0.171,0.675,0.257,1.118,0.257c0.645,0,1.233-0.186,1.768-0.559c0.534-0.373,1.002-0.851,1.405-1.436
			c0.402-0.584,0.735-1.234,0.997-1.949c0.262-0.715,0.443-1.405,0.544-2.07l1.48-8.461h0.665l-1.904,10.909
			c-0.04,0.242-0.086,0.529-0.136,0.861c-0.05,0.332-0.101,0.67-0.151,1.012c-0.051,0.343-0.096,0.68-0.136,1.012
			s-0.071,0.6-0.091,0.801h-0.665c0.04-0.403,0.106-0.917,0.197-1.541c0.09-0.624,0.186-1.179,0.286-1.662H402.034z"/>
		<path style="fill:#FFFFFF;" d="M409.392,42.23c0.05-0.333,0.101-0.675,0.151-1.027c0.05-0.353,0.096-0.69,0.136-1.013
			c0.04-0.322,0.07-0.584,0.091-0.786h0.664c-0.02,0.202-0.055,0.458-0.105,0.771s-0.101,0.645-0.15,0.997
			c-0.051,0.353-0.102,0.69-0.151,1.012c-0.051,0.322-0.096,0.604-0.136,0.846h0.09c0.545-1.43,1.164-2.442,1.859-3.037
			c0.694-0.594,1.404-0.891,2.13-0.891c0.161,0,0.282,0.01,0.362,0.03l-0.121,0.604c-0.08-0.02-0.15-0.03-0.211-0.03
			s-0.111,0-0.151,0c-0.563,0-1.093,0.202-1.587,0.604c-0.493,0.403-0.932,0.927-1.314,1.571c-0.383,0.645-0.715,1.365-0.996,2.161
			c-0.283,0.796-0.494,1.597-0.635,2.402L407.986,54h-0.664l1.934-10.909C409.296,42.85,409.342,42.562,409.392,42.23z"/>
		<path style="fill:#FFFFFF;" d="M427.567,50.797c-0.161,0.423-0.373,0.856-0.635,1.299c-0.263,0.443-0.574,0.841-0.937,1.194
			c-0.363,0.353-0.766,0.64-1.209,0.861c-0.443,0.222-0.927,0.333-1.45,0.333c-0.585,0-1.068-0.105-1.45-0.317
			c-0.383-0.211-0.686-0.483-0.906-0.816c-0.223-0.332-0.383-0.71-0.484-1.133c-0.101-0.423-0.15-0.846-0.15-1.269
			c0-0.604,0.061-1.229,0.181-1.874l1.692-9.67h0.664l-1.691,9.67c-0.121,0.645-0.182,1.269-0.182,1.874
			c0,0.362,0.041,0.715,0.121,1.058c0.08,0.343,0.211,0.655,0.393,0.937c0.182,0.282,0.424,0.509,0.726,0.68
			c0.302,0.171,0.675,0.257,1.118,0.257c0.645,0,1.233-0.186,1.768-0.559c0.533-0.373,1.002-0.851,1.405-1.436
			c0.402-0.584,0.735-1.234,0.997-1.949c0.262-0.715,0.443-1.405,0.544-2.07l1.48-8.461h0.665l-1.904,10.909
			c-0.04,0.242-0.086,0.529-0.136,0.861c-0.05,0.332-0.101,0.67-0.151,1.012c-0.051,0.343-0.096,0.68-0.136,1.012
			s-0.071,0.6-0.091,0.801h-0.664c0.039-0.403,0.105-0.917,0.196-1.541c0.091-0.624,0.187-1.179,0.286-1.662H427.567z"/>
		<path style="fill:#FFFFFF;" d="M436.148,41.309c0.262-0.443,0.574-0.841,0.938-1.193c0.362-0.353,0.765-0.64,1.208-0.861
			c0.442-0.221,0.927-0.333,1.45-0.333c0.564,0,1.043,0.106,1.436,0.317s0.699,0.483,0.922,0.816
			c0.221,0.333,0.383,0.71,0.483,1.133c0.101,0.423,0.151,0.846,0.151,1.269c0,0.625-0.061,1.249-0.182,1.874L440.863,54h-0.666
			l1.693-9.669c0.12-0.625,0.181-1.249,0.181-1.874c0-0.363-0.04-0.715-0.12-1.058c-0.082-0.342-0.213-0.654-0.394-0.937
			c-0.181-0.282-0.423-0.508-0.726-0.68c-0.302-0.171-0.675-0.257-1.117-0.257c-0.646,0-1.234,0.187-1.768,0.559
			c-0.535,0.373-1.003,0.851-1.406,1.435c-0.402,0.584-0.734,1.234-0.996,1.949c-0.263,0.715-0.443,1.405-0.545,2.07L433.52,54
			h-0.664l1.903-10.909c0.04-0.242,0.085-0.529,0.136-0.861c0.051-0.333,0.101-0.675,0.151-1.027c0.05-0.353,0.095-0.69,0.136-1.013
			c0.04-0.322,0.07-0.584,0.091-0.786h0.665c-0.021,0.182-0.055,0.403-0.098,0.665c-0.043,0.262-0.086,0.544-0.129,0.846
			s-0.086,0.6-0.129,0.891c-0.043,0.292-0.086,0.559-0.129,0.801h0.061C435.676,42.185,435.887,41.752,436.148,41.309z"/>
		<path style="fill:#FFFFFF;" d="M446.846,46.536c-0.101,0.464-0.176,0.937-0.227,1.42s-0.076,0.947-0.076,1.39
			c0,1.41,0.282,2.518,0.846,3.324c0.564,0.806,1.37,1.208,2.418,1.208c0.785,0,1.471-0.246,2.055-0.74
			c0.584-0.493,1.078-1.103,1.48-1.828l0.484,0.333c-0.424,0.766-0.973,1.431-1.647,1.994c-0.675,0.564-1.476,0.846-2.402,0.846
			c-1.289,0-2.261-0.448-2.916-1.345c-0.655-0.896-0.981-2.161-0.981-3.792c0-1.027,0.125-2.15,0.379-3.37
			c0.252-1.218,0.631-2.352,1.137-3.399c0.505-1.047,1.131-1.918,1.879-2.614c0.748-0.695,1.627-1.042,2.638-1.042
			c0.667,0,1.218,0.126,1.651,0.378c0.436,0.252,0.783,0.594,1.047,1.027c0.262,0.434,0.449,0.932,0.561,1.496
			c0.111,0.564,0.166,1.148,0.166,1.753c0,0.343-0.035,0.791-0.105,1.344c-0.07,0.555-0.156,1.093-0.258,1.617H446.846z
			 M454.43,45.992c0.08-0.467,0.141-0.895,0.182-1.281c0.04-0.386,0.061-0.752,0.061-1.098c0-0.589-0.051-1.138-0.151-1.647
			c-0.101-0.508-0.262-0.945-0.483-1.311s-0.514-0.656-0.877-0.869c-0.361-0.213-0.795-0.321-1.299-0.321
			c-0.725,0-1.37,0.239-1.934,0.717c-0.564,0.478-1.048,1.058-1.451,1.738c-0.402,0.682-0.73,1.398-0.981,2.15
			c-0.252,0.752-0.429,1.393-0.528,1.921H454.43z"/>
	</g>
</g>
</svg>
