<?xml version="1.0" encoding="iso-8859-1"?>
<!-- Generator: Adobe Illustrator 15.0.0, SVG Export Plug-In . SVG Version: 6.00 Build 0)  -->
<!DOCTYPE svg PUBLIC "-//W3C//DTD SVG 1.1//EN" "http://www.w3.org/Graphics/SVG/1.1/DTD/svg11.dtd">
<svg version="1.1" id="Layer_1" xmlns="http://www.w3.org/2000/svg" xmlns:xlink="http://www.w3.org/1999/xlink" x="0px" y="0px"
	 width="733px" height="404px" viewBox="0 0 733 404" style="enable-background:new 0 0 733 404;" xml:space="preserve">
<rect style="fill:#333333;" width="733" height="404"/>
<g>
	<path style="fill:#FFFFFF;" d="M284.156,327.374c-1.743,1.135-3.79,1.701-6.142,1.701c-2.016,0-3.738-0.368-5.166-1.103
		c-1.428-0.734-2.593-1.784-3.496-3.149c-0.903-1.364-1.575-2.992-2.016-4.882s-0.661-3.969-0.661-6.236
		c0-2.352,0.189-4.756,0.567-7.213c0.378-2.456,0.934-4.839,1.669-7.149c0.734-2.309,1.638-4.482,2.709-6.52
		c1.071-2.036,2.288-3.821,3.653-5.354c1.364-1.532,2.887-2.75,4.567-3.653c1.679-0.902,3.485-1.354,5.417-1.354
		c2.057,0,3.769,0.409,5.134,1.229c1.364,0.818,2.509,2.026,3.433,3.622l-1.134,0.756c-1.554-2.897-4.032-4.347-7.433-4.347
		c-1.806,0-3.486,0.441-5.04,1.323c-1.554,0.882-2.971,2.068-4.252,3.559c-1.281,1.491-2.415,3.224-3.401,5.197
		c-0.987,1.975-1.817,4.062-2.488,6.268c-0.672,2.205-1.176,4.463-1.512,6.771c-0.337,2.311-0.504,4.535-0.504,6.678
		c0,2.1,0.189,4.021,0.567,5.764c0.378,1.743,0.976,3.244,1.795,4.504c0.819,1.26,1.847,2.247,3.086,2.96
		c1.238,0.715,2.74,1.071,4.504,1.071c1.805,0,3.527-0.462,5.166-1.386c1.638-0.923,3.128-2.331,4.472-4.221l0.945,0.945
		C287.378,324.834,285.898,326.24,284.156,327.374z"/>
	<path style="fill:#FFFFFF;" d="M313.479,328.067l-6.362-22.488h-7.37l-3.905,22.488h-1.386l7.748-44.599h8.063
		c1.134,0,2.257,0.189,3.37,0.567c1.112,0.378,2.1,0.944,2.961,1.7c0.86,0.756,1.553,1.723,2.079,2.897
		c0.524,1.177,0.788,2.583,0.788,4.221c0,2.059-0.315,3.874-0.945,5.449c-0.63,1.574-1.459,2.888-2.488,3.937
		c-1.03,1.051-2.205,1.849-3.528,2.395s-2.656,0.84-4,0.882l6.425,22.551H313.479z M307.369,304.319
		c1.638,0,3.118-0.272,4.441-0.819c1.323-0.545,2.446-1.312,3.37-2.299c0.923-0.986,1.638-2.183,2.142-3.591
		c0.504-1.406,0.756-2.97,0.756-4.692c0-2.729-0.798-4.776-2.394-6.142c-1.596-1.364-3.653-2.048-6.173-2.048h-6.173l-3.465,19.591
		H307.369z"/>
	<path style="fill:#FFFFFF;" d="M321.982,328.067l7.748-44.599h1.386l-7.748,44.599H321.982z"/>
	<path style="fill:#FFFFFF;" d="M346.675,284.729l-7.622,43.339h-1.386l7.622-43.339h-8.819l0.252-1.26h19.023l-0.252,1.26H346.675z
		"/>
	<path style="fill:#FFFFFF;" d="M353.603,328.067l7.748-44.599h1.386l-7.748,44.599H353.603z"/>
	<path style="fill:#FFFFFF;" d="M367.272,312.509c0-2.269,0.178-4.577,0.535-6.93c0.356-2.352,0.882-4.64,1.575-6.866
		c0.693-2.226,1.543-4.324,2.551-6.299c1.008-1.974,2.173-3.695,3.496-5.166c1.323-1.469,2.782-2.635,4.378-3.496
		c1.596-0.859,3.339-1.291,5.229-1.291c1.805,0,3.38,0.368,4.724,1.103c1.344,0.735,2.457,1.764,3.339,3.087
		c0.882,1.322,1.532,2.908,1.953,4.756c0.419,1.848,0.63,3.905,0.63,6.173c0,1.764-0.137,3.644-0.409,5.638
		c-0.274,1.995-0.683,4-1.229,6.016c-0.546,2.016-1.208,3.979-1.984,5.89c-0.777,1.912-1.669,3.645-2.677,5.197
		c-1.008,1.554-2.121,2.897-3.338,4.031c-1.219,1.134-2.52,1.912-3.906,2.331v0.126h10.331l-0.189,1.26h-14.74
		c-1.554,0-2.961-0.356-4.221-1.071c-1.26-0.713-2.341-1.742-3.244-3.086c-0.903-1.344-1.596-2.981-2.079-4.914
		C367.513,317.065,367.272,314.902,367.272,312.509z M394.296,297.769c0-2.058-0.189-3.947-0.567-5.67
		c-0.378-1.722-0.956-3.201-1.732-4.44c-0.777-1.238-1.743-2.205-2.897-2.898c-1.156-0.692-2.51-1.039-4.063-1.039
		c-1.764,0-3.392,0.421-4.882,1.26c-1.491,0.841-2.846,1.984-4.063,3.434c-1.219,1.448-2.29,3.118-3.213,5.008
		c-0.924,1.89-1.701,3.896-2.331,6.016c-0.63,2.121-1.103,4.283-1.417,6.488c-0.315,2.204-0.472,4.314-0.472,6.33
		c0,2.101,0.199,4.043,0.598,5.827c0.399,1.785,0.977,3.329,1.732,4.63c0.756,1.303,1.71,2.311,2.866,3.023
		c1.154,0.715,2.488,1.071,4,1.071c1.679,0,3.254-0.441,4.724-1.323c1.47-0.882,2.813-2.067,4.032-3.559
		c1.217-1.49,2.309-3.213,3.275-5.165c0.966-1.953,1.774-4.011,2.425-6.174c0.651-2.162,1.144-4.347,1.48-6.551
		C394.127,301.831,394.296,299.742,394.296,297.769z"/>
	<path style="fill:#FFFFFF;" d="M424.059,318.587c-0.609,2.121-1.439,3.959-2.488,5.512c-1.05,1.555-2.362,2.771-3.937,3.653
		c-1.575,0.883-3.519,1.323-5.827,1.323c-3.36,0-5.827-0.987-7.401-2.961c-1.575-1.973-2.362-4.576-2.362-7.811
		c0-1.008,0.052-2.058,0.157-3.149c0.104-1.092,0.262-2.226,0.473-3.402l4.913-28.283h1.386l-4.787,27.591
		c-0.211,1.219-0.389,2.479-0.535,3.779c-0.148,1.303-0.221,2.415-0.221,3.339c0,1.345,0.146,2.604,0.44,3.779
		c0.294,1.177,0.767,2.195,1.418,3.056c0.65,0.86,1.501,1.543,2.551,2.047s2.352,0.756,3.905,0.756c2.226,0,4.073-0.482,5.544-1.449
		c1.47-0.965,2.666-2.236,3.591-3.811c0.923-1.575,1.638-3.359,2.142-5.354c0.504-1.994,0.944-4.041,1.322-6.142l4.788-27.591h1.386
		l-4.914,28.283C425.182,314.188,424.667,316.467,424.059,318.587z"/>
	<path style="fill:#FFFFFF;" d="M433.665,328.067l7.748-44.599h15.433l-0.252,1.26h-14.047l-3.401,19.591h13.417l-0.189,1.26
		h-13.417l-3.653,21.229h15.118l-0.252,1.26H433.665z"/>
</g>
<g>
	<path style="fill:#FFFFFF;" d="M227.559,256.137h-22.087l19.301-108.842h-0.597l-47.357,108.842h-18.704l-8.556-108.842h-0.597
		l-18.903,108.842h-20.694l24.873-140.878h30.444l8.954,103.669h0.796l44.771-103.669h33.23L227.559,256.137z"/>
	<path style="fill:#FFFFFF;" d="M318.49,256.137l-0.995-30.444h-38.204l-12.934,30.444h-23.479l62.479-140.878h29.25l6.964,140.878
		H318.49z M315.904,137.346h-0.796l-29.449,70.638h32.036L315.904,137.346z"/>
	<path style="fill:#FFFFFF;" d="M432.105,141.126c-4.908-6.1-11.275-9.153-19.102-9.153c-2.521,0-5.074,0.498-7.66,1.493
		c-2.588,0.995-4.91,2.456-6.965,4.377c-2.058,1.924-3.75,4.346-5.074,7.263c-1.328,2.919-1.99,6.302-1.99,10.148
		c0,5.043,1.393,9.122,4.179,12.237c2.786,3.118,6.498,6.069,11.143,8.854c2.916,1.859,5.869,3.915,8.854,6.168
		c2.986,2.257,5.672,4.875,8.059,7.86c2.389,2.984,4.311,6.367,5.771,10.148c1.459,3.781,2.189,8.127,2.189,13.033
		c0,7.562-1.229,14.196-3.682,19.898c-2.457,5.705-5.771,10.48-9.949,14.326c-4.178,3.85-8.988,6.766-14.426,8.756
		c-5.441,1.989-11.211,2.984-17.312,2.984c-7.829,0-15.023-1.427-21.589-4.278c-6.566-2.851-11.64-6.532-15.222-11.043
		l14.128-16.715c2.652,3.451,5.969,6.237,9.949,8.357c3.979,2.123,8.224,3.184,12.735,3.184c6.367,0,11.64-1.921,15.819-5.771
		c4.178-3.846,6.268-9.352,6.268-16.516c0-5.039-1.361-9.352-4.08-12.934c-2.72-3.581-6.933-7.095-12.634-10.545
		c-2.919-1.723-5.771-3.681-8.556-5.87s-5.242-4.707-7.362-7.561c-2.124-2.851-3.815-6.1-5.074-9.75
		c-1.262-3.647-1.89-7.925-1.89-12.834c0-6.765,1.16-12.934,3.482-18.505c2.319-5.572,5.472-10.347,9.452-14.327
		s8.687-7.064,14.127-9.252c5.438-2.189,11.343-3.283,17.71-3.283c7.162,0,13.596,1.163,19.301,3.482
		c5.701,2.323,10.277,5.541,13.729,9.65L432.105,141.126z"/>
	<path style="fill:#FFFFFF;" d="M520.851,141.126c-4.909-6.1-11.276-9.153-19.103-9.153c-2.521,0-5.073,0.498-7.66,1.493
		c-2.587,0.995-4.909,2.456-6.965,4.377c-2.058,1.924-3.749,4.346-5.073,7.263c-1.328,2.919-1.99,6.302-1.99,10.148
		c0,5.043,1.393,9.122,4.179,12.237c2.786,3.118,6.498,6.069,11.143,8.854c2.917,1.859,5.87,3.915,8.854,6.168
		c2.985,2.257,5.671,4.875,8.059,7.86c2.389,2.984,4.31,6.367,5.771,10.148c1.459,3.781,2.189,8.127,2.189,13.033
		c0,7.562-1.229,14.196-3.682,19.898c-2.456,5.705-5.771,10.48-9.949,14.326c-4.178,3.85-8.988,6.766-14.426,8.756
		c-5.44,1.989-11.211,2.984-17.312,2.984c-7.828,0-15.022-1.427-21.589-4.278c-6.566-2.851-11.641-6.532-15.222-11.043
		l14.127-16.715c2.652,3.451,5.97,6.237,9.949,8.357c3.979,2.123,8.224,3.184,12.734,3.184c6.368,0,11.641-1.921,15.819-5.771
		c4.179-3.846,6.268-9.352,6.268-16.516c0-5.039-1.361-9.352-4.079-12.934c-2.72-3.581-6.933-7.095-12.635-10.545
		c-2.92-1.723-5.771-3.681-8.557-5.87c-2.785-2.189-5.241-4.707-7.362-7.561c-2.123-2.851-3.814-6.1-5.073-9.75
		c-1.263-3.647-1.891-7.925-1.891-12.834c0-6.765,1.159-12.934,3.482-18.505c2.319-5.572,5.472-10.347,9.451-14.327
		s8.687-7.064,14.128-9.252c5.438-2.189,11.342-3.283,17.709-3.283c7.163,0,13.596,1.163,19.301,3.482
		c5.702,2.323,10.278,5.541,13.729,9.65L520.851,141.126z"/>
	<path style="fill:#FFFFFF;" d="M616.361,135.157h-39l-6.965,38.801h37.209l-3.184,18.903h-37.01l-7.562,42.979h42.582
		l-3.383,20.296h-64.47l24.475-140.878h60.888L616.361,135.157z"/>
</g>
<g>
	<g>
		<path style="fill:#FFFFFF;" d="M271.121,70.424c0,0.443-0.03,0.887-0.09,1.33h0.061c0.181-0.584,0.413-1.138,0.695-1.662
			c0.282-0.523,0.609-0.977,0.982-1.359c0.373-0.383,0.781-0.685,1.224-0.907c0.443-0.221,0.926-0.333,1.45-0.333
			c0.564,0,1.042,0.106,1.436,0.317c0.393,0.211,0.7,0.483,0.921,0.816s0.382,0.71,0.483,1.133c0.101,0.423,0.151,0.846,0.151,1.269
			c0,0.625-0.061,1.249-0.182,1.874l-1.692,9.669h-0.665l1.692-9.669c0.121-0.625,0.181-1.249,0.181-1.874
			c0-0.363-0.041-0.715-0.121-1.058c-0.081-0.342-0.212-0.654-0.393-0.937c-0.181-0.282-0.423-0.508-0.725-0.68
			c-0.302-0.171-0.675-0.257-1.118-0.257c-0.645,0-1.224,0.187-1.737,0.559c-0.514,0.373-0.962,0.851-1.345,1.435
			c-0.383,0.584-0.7,1.234-0.952,1.949c-0.252,0.715-0.438,1.405-0.559,2.07l-1.481,8.461h-0.665l1.692-9.669
			c0.061-0.342,0.111-0.695,0.151-1.058c0.04-0.363,0.061-0.715,0.061-1.058c0-0.302-0.036-0.614-0.106-0.937
			c-0.071-0.322-0.196-0.609-0.378-0.861c-0.181-0.252-0.423-0.463-0.725-0.635c-0.302-0.171-0.675-0.257-1.118-0.257
			c-0.645,0-1.229,0.187-1.752,0.559c-0.524,0.373-0.982,0.851-1.375,1.435c-0.393,0.584-0.715,1.234-0.967,1.949
			c-0.252,0.715-0.428,1.405-0.529,2.07l-1.48,8.461h-0.665l1.904-10.909c0.04-0.242,0.085-0.529,0.136-0.861
			c0.05-0.333,0.101-0.675,0.151-1.027c0.05-0.353,0.095-0.69,0.136-1.013c0.04-0.322,0.07-0.584,0.091-0.786h0.665
			c-0.021,0.182-0.054,0.403-0.097,0.665c-0.043,0.262-0.086,0.544-0.129,0.846s-0.086,0.6-0.129,0.891
			c-0.043,0.292-0.086,0.559-0.129,0.801h0.072c0.161-0.423,0.367-0.856,0.619-1.299c0.251-0.443,0.553-0.841,0.905-1.193
			c0.352-0.353,0.743-0.64,1.176-0.861c0.433-0.221,0.911-0.333,1.434-0.333c0.502,0,0.935,0.086,1.297,0.257
			c0.362,0.171,0.659,0.393,0.89,0.665s0.397,0.584,0.498,0.937C271.07,69.705,271.121,70.062,271.121,70.424z"/>
		<path style="fill:#FFFFFF;" d="M288.684,79.248c-0.103,0.564-0.19,1.159-0.262,1.783c-0.072,0.625-0.118,1.138-0.138,1.541h-0.544
			c0.037-0.463,0.093-1.027,0.169-1.692c0.075-0.665,0.16-1.258,0.254-1.783h-0.051c-0.181,0.504-0.397,0.987-0.648,1.451
			s-0.553,0.876-0.904,1.239c-0.351,0.363-0.748,0.65-1.19,0.861c-0.442,0.211-0.934,0.317-1.476,0.317
			c-0.964,0-1.688-0.323-2.169-0.967c-0.482-0.645-0.723-1.42-0.723-2.327c0-1.067,0.186-1.969,0.559-2.705
			c0.373-0.735,0.871-1.324,1.496-1.768c0.625-0.443,1.33-0.76,2.115-0.952s1.602-0.287,2.448-0.287h1.33
			c0.141-0.705,0.237-1.259,0.287-1.662c0.05-0.403,0.076-0.775,0.076-1.118c0-1.067-0.227-1.848-0.68-2.342
			c-0.453-0.493-1.103-0.74-1.949-0.74c-0.604,0-1.174,0.156-1.708,0.468c-0.534,0.312-1.002,0.73-1.405,1.254l-0.423-0.423
			c0.443-0.604,0.977-1.073,1.602-1.405c0.624-0.332,1.269-0.499,1.934-0.499c1.088,0,1.908,0.317,2.462,0.952
			c0.554,0.634,0.831,1.526,0.831,2.674c0,0.283-0.021,0.574-0.062,0.876c-0.041,0.302-0.082,0.595-0.123,0.876L288.684,79.248z
			 M288.858,74.504H287.8c-0.786,0-1.546,0.075-2.281,0.227c-0.735,0.151-1.39,0.423-1.964,0.816
			c-0.574,0.393-1.033,0.921-1.375,1.586c-0.343,0.665-0.514,1.501-0.514,2.508c0,0.826,0.201,1.486,0.604,1.979
			s0.947,0.74,1.632,0.74c0.705,0,1.319-0.191,1.843-0.574c0.524-0.382,0.972-0.876,1.345-1.48c0.373-0.604,0.68-1.274,0.922-2.01
			c0.242-0.735,0.423-1.455,0.544-2.161L288.858,74.504z"/>
		<path style="fill:#FFFFFF;" d="M296.231,69.88c0.261-0.443,0.574-0.841,0.937-1.193s0.765-0.64,1.208-0.861
			c0.443-0.221,0.927-0.333,1.451-0.333c0.563,0,1.042,0.106,1.435,0.317c0.393,0.211,0.7,0.483,0.922,0.816
			c0.221,0.333,0.382,0.71,0.483,1.133c0.101,0.423,0.151,0.846,0.151,1.269c0,0.625-0.061,1.249-0.182,1.874l-1.692,9.669h-0.665
			l1.692-9.669c0.121-0.625,0.181-1.249,0.181-1.874c0-0.363-0.041-0.715-0.121-1.058c-0.081-0.342-0.212-0.654-0.393-0.937
			c-0.181-0.282-0.423-0.508-0.725-0.68c-0.302-0.171-0.675-0.257-1.118-0.257c-0.645,0-1.234,0.187-1.768,0.559
			c-0.534,0.373-1.002,0.851-1.405,1.435c-0.403,0.584-0.735,1.234-0.997,1.949c-0.262,0.715-0.443,1.405-0.544,2.07l-1.48,8.461
			h-0.665l1.904-10.909c0.04-0.242,0.085-0.529,0.136-0.861c0.05-0.333,0.101-0.675,0.151-1.027c0.05-0.353,0.095-0.69,0.136-1.013
			c0.04-0.322,0.07-0.584,0.091-0.786h0.665c-0.021,0.182-0.054,0.403-0.097,0.665c-0.043,0.262-0.086,0.544-0.129,0.846
			s-0.086,0.6-0.129,0.891c-0.043,0.292-0.086,0.559-0.129,0.801h0.061C295.757,70.757,295.969,70.324,296.231,69.88z"/>
		<path style="fill:#FFFFFF;" d="M305.93,82.572l2.539-14.595h0.665l-2.538,14.595H305.93z M309.496,63.444
			c-0.383,0-0.574-0.222-0.574-0.665c0-0.221,0.065-0.433,0.196-0.634c0.131-0.201,0.317-0.302,0.559-0.302
			c0.201,0,0.348,0.065,0.438,0.196c0.091,0.131,0.136,0.287,0.136,0.468c0,0.262-0.071,0.483-0.211,0.665
			C309.898,63.354,309.717,63.444,309.496,63.444z"/>
		<path style="fill:#FFFFFF;" d="M319.255,60.09c-0.161-0.04-0.297-0.075-0.408-0.105c-0.111-0.03-0.247-0.045-0.408-0.045
			c-0.483,0-0.886,0.116-1.208,0.348s-0.584,0.529-0.786,0.891c-0.202,0.363-0.363,0.781-0.483,1.254
			c-0.121,0.474-0.222,0.952-0.302,1.436l-0.695,4.109h2.538l-0.121,0.544h-2.478l-2.448,14.051h-0.665l2.447-14.051h-2.357
			l0.121-0.544h2.296l0.695-4.065c0.242-1.445,0.614-2.56,1.118-3.342s1.289-1.174,2.357-1.174c0.342,0,0.665,0.058,0.967,0.172
			L319.255,60.09z"/>
		<path style="fill:#FFFFFF;" d="M318.954,75.108c-0.101,0.464-0.177,0.937-0.228,1.42c-0.05,0.483-0.075,0.947-0.075,1.39
			c0,1.41,0.282,2.518,0.846,3.324c0.564,0.806,1.37,1.208,2.417,1.208c0.786,0,1.47-0.246,2.055-0.74
			c0.584-0.493,1.078-1.103,1.481-1.828l0.483,0.333c-0.423,0.766-0.972,1.431-1.647,1.994c-0.675,0.564-1.476,0.846-2.402,0.846
			c-1.289,0-2.261-0.448-2.916-1.345c-0.655-0.896-0.982-2.161-0.982-3.792c0-1.027,0.126-2.15,0.379-3.37
			c0.252-1.218,0.631-2.352,1.137-3.399c0.505-1.047,1.132-1.918,1.879-2.614c0.748-0.695,1.627-1.042,2.638-1.042
			c0.667,0,1.218,0.126,1.652,0.378c0.435,0.252,0.783,0.594,1.046,1.027c0.263,0.434,0.45,0.932,0.561,1.496
			c0.111,0.564,0.167,1.148,0.167,1.753c0,0.343-0.035,0.791-0.106,1.344c-0.071,0.555-0.157,1.093-0.258,1.617H318.954z
			 M326.538,74.564c0.08-0.467,0.141-0.895,0.181-1.281c0.04-0.386,0.061-0.752,0.061-1.098c0-0.589-0.051-1.138-0.151-1.647
			c-0.101-0.508-0.262-0.945-0.483-1.311s-0.514-0.656-0.876-0.869c-0.362-0.213-0.796-0.321-1.299-0.321
			c-0.725,0-1.37,0.239-1.934,0.717c-0.564,0.478-1.048,1.058-1.451,1.738c-0.403,0.682-0.73,1.398-0.982,2.15
			c-0.252,0.752-0.428,1.393-0.529,1.921H326.538z"/>
		<path style="fill:#FFFFFF;" d="M331.614,83.055c-0.846,0-1.552-0.196-2.115-0.589c-0.564-0.393-0.987-0.921-1.27-1.586
			l0.544-0.362c0.282,0.604,0.65,1.078,1.103,1.42c0.453,0.343,1.032,0.514,1.738,0.514c0.503,0,0.967-0.101,1.39-0.302
			c0.423-0.201,0.791-0.484,1.103-0.846c0.312-0.363,0.554-0.786,0.725-1.269c0.171-0.484,0.257-1.007,0.257-1.571
			c0-0.443-0.075-0.836-0.227-1.179c-0.151-0.342-0.343-0.645-0.574-0.906s-0.488-0.488-0.771-0.68
			c-0.282-0.191-0.544-0.357-0.786-0.499c-0.564-0.342-1.058-0.76-1.48-1.254s-0.635-1.183-0.635-2.07
			c0-0.604,0.101-1.173,0.302-1.708c0.201-0.534,0.479-0.997,0.831-1.39c0.352-0.393,0.771-0.705,1.254-0.937
			c0.483-0.231,0.998-0.348,1.541-0.348c0.806,0,1.456,0.177,1.949,0.529c0.494,0.353,0.871,0.781,1.133,1.284l-0.514,0.393
			c-0.283-0.503-0.625-0.896-1.027-1.179c-0.403-0.282-0.927-0.423-1.571-0.423c-0.484,0-0.922,0.106-1.314,0.317
			c-0.393,0.211-0.73,0.489-1.013,0.831c-0.282,0.343-0.503,0.745-0.665,1.208c-0.162,0.464-0.242,0.947-0.242,1.451
			c0,0.685,0.171,1.239,0.514,1.662c0.342,0.423,0.806,0.806,1.39,1.148c0.302,0.181,0.609,0.388,0.921,0.619
			c0.312,0.232,0.589,0.499,0.831,0.801c0.242,0.302,0.438,0.645,0.589,1.028c0.151,0.383,0.227,0.806,0.227,1.269
			c0,0.645-0.096,1.249-0.287,1.813c-0.192,0.564-0.468,1.053-0.831,1.465c-0.362,0.413-0.801,0.74-1.314,0.982
			C332.808,82.935,332.238,83.055,331.614,83.055z"/>
		<path style="fill:#FFFFFF;" d="M341.375,82.723c-0.645,0-1.124-0.181-1.436-0.544c-0.312-0.364-0.468-0.858-0.468-1.484
			c0-0.222,0.015-0.449,0.045-0.681s0.065-0.469,0.106-0.711l1.903-10.781h-1.964l0.061-0.544h1.964l0.755-4.291h0.665l-0.755,4.291
			h2.659l-0.06,0.544h-2.659l-1.904,10.805c-0.041,0.223-0.076,0.466-0.106,0.729c-0.03,0.264-0.045,0.476-0.045,0.638
			c0,0.486,0.115,0.855,0.347,1.108c0.231,0.253,0.549,0.379,0.952,0.379c0.181,0,0.382-0.027,0.604-0.082s0.433-0.148,0.635-0.28
			l0.121,0.544C342.311,82.602,341.837,82.723,341.375,82.723z"/>
		<path style="fill:#FFFFFF;" d="M346.451,75.108c-0.101,0.464-0.177,0.937-0.228,1.42c-0.05,0.483-0.075,0.947-0.075,1.39
			c0,1.41,0.282,2.518,0.846,3.324c0.564,0.806,1.37,1.208,2.417,1.208c0.786,0,1.47-0.246,2.055-0.74
			c0.584-0.493,1.078-1.103,1.481-1.828l0.483,0.333c-0.423,0.766-0.972,1.431-1.647,1.994c-0.675,0.564-1.476,0.846-2.402,0.846
			c-1.289,0-2.261-0.448-2.916-1.345c-0.655-0.896-0.982-2.161-0.982-3.792c0-1.027,0.126-2.15,0.379-3.37
			c0.252-1.218,0.631-2.352,1.137-3.399c0.505-1.047,1.132-1.918,1.879-2.614c0.748-0.695,1.627-1.042,2.638-1.042
			c0.667,0,1.218,0.126,1.652,0.378c0.435,0.252,0.783,0.594,1.046,1.027c0.263,0.434,0.45,0.932,0.561,1.496
			c0.111,0.564,0.167,1.148,0.167,1.753c0,0.343-0.035,0.791-0.106,1.344c-0.071,0.555-0.157,1.093-0.258,1.617H346.451z
			 M354.035,74.564c0.08-0.467,0.141-0.895,0.181-1.281c0.04-0.386,0.061-0.752,0.061-1.098c0-0.589-0.051-1.138-0.151-1.647
			c-0.101-0.508-0.262-0.945-0.483-1.311s-0.514-0.656-0.876-0.869c-0.362-0.213-0.796-0.321-1.299-0.321
			c-0.725,0-1.37,0.239-1.934,0.717c-0.564,0.478-1.048,1.058-1.451,1.738c-0.403,0.682-0.73,1.398-0.982,2.15
			c-0.252,0.752-0.428,1.393-0.529,1.921H354.035z"/>
		<path style="fill:#FFFFFF;" d="M357.57,83.251c-0.282-1.48-0.423-3.026-0.423-4.638c0-1.591,0.151-3.208,0.453-4.85
			c0.302-1.642,0.726-3.248,1.27-4.819c0.543-1.571,1.203-3.077,1.979-4.518c0.775-1.44,1.647-2.765,2.614-3.974l0.483,0.302
			c-0.947,1.189-1.798,2.503-2.553,3.943c-0.755,1.44-1.395,2.936-1.919,4.487s-0.932,3.127-1.224,4.729
			c-0.292,1.602-0.438,3.168-0.438,4.699c0,1.571,0.125,3.087,0.377,4.548c0.251,1.46,0.639,2.745,1.164,3.853l-0.574,0.272
			C358.255,86.077,357.852,84.732,357.57,83.251z"/>
		<path style="fill:#FFFFFF;" d="M366.001,83.055c-0.846,0-1.552-0.196-2.115-0.589c-0.564-0.393-0.987-0.921-1.27-1.586
			l0.544-0.362c0.282,0.604,0.65,1.078,1.103,1.42c0.453,0.343,1.032,0.514,1.738,0.514c0.503,0,0.967-0.101,1.39-0.302
			c0.423-0.201,0.791-0.484,1.103-0.846c0.312-0.363,0.554-0.786,0.725-1.269c0.171-0.484,0.257-1.007,0.257-1.571
			c0-0.443-0.075-0.836-0.227-1.179c-0.151-0.342-0.343-0.645-0.574-0.906s-0.488-0.488-0.771-0.68
			c-0.282-0.191-0.544-0.357-0.786-0.499c-0.564-0.342-1.058-0.76-1.48-1.254s-0.635-1.183-0.635-2.07
			c0-0.604,0.101-1.173,0.302-1.708c0.201-0.534,0.479-0.997,0.831-1.39c0.352-0.393,0.771-0.705,1.254-0.937
			c0.483-0.231,0.998-0.348,1.541-0.348c0.806,0,1.456,0.177,1.949,0.529c0.494,0.353,0.871,0.781,1.133,1.284l-0.514,0.393
			c-0.283-0.503-0.625-0.896-1.027-1.179c-0.403-0.282-0.927-0.423-1.571-0.423c-0.484,0-0.922,0.106-1.314,0.317
			c-0.393,0.211-0.73,0.489-1.013,0.831c-0.282,0.343-0.503,0.745-0.665,1.208c-0.162,0.464-0.242,0.947-0.242,1.451
			c0,0.685,0.171,1.239,0.514,1.662c0.342,0.423,0.806,0.806,1.39,1.148c0.302,0.181,0.609,0.388,0.921,0.619
			c0.312,0.232,0.589,0.499,0.831,0.801c0.242,0.302,0.438,0.645,0.589,1.028c0.151,0.383,0.227,0.806,0.227,1.269
			c0,0.645-0.096,1.249-0.287,1.813c-0.192,0.564-0.468,1.053-0.831,1.465c-0.362,0.413-0.801,0.74-1.314,0.982
			C367.194,82.935,366.625,83.055,366.001,83.055z"/>
		<path style="fill:#FFFFFF;" d="M377.665,64.487c0.282,1.48,0.423,3.027,0.423,4.638c0,1.592-0.151,3.208-0.453,4.85
			c-0.302,1.642-0.725,3.248-1.269,4.819s-1.204,3.078-1.979,4.518c-0.776,1.44-1.647,2.765-2.614,3.974l-0.483-0.302
			c0.926-1.189,1.772-2.503,2.538-3.943s1.41-2.936,1.934-4.487c0.523-1.551,0.932-3.127,1.224-4.729s0.438-3.167,0.438-4.699
			c0-1.571-0.126-3.087-0.378-4.548c-0.252-1.46-0.64-2.745-1.164-3.853l0.574-0.272C376.98,61.661,377.382,63.006,377.665,64.487z"
			/>
		<path style="fill:#FFFFFF;" d="M388.245,71.482c0.445-1.168,1.031-2.125,1.758-2.871c0.728-0.745,1.597-1.118,2.607-1.118
			c1.213,0,2.097,0.474,2.653,1.42c0.556,0.947,0.833,2.196,0.833,3.747c0,1.188-0.131,2.397-0.394,3.626
			c-0.263,1.229-0.642,2.342-1.137,3.339c-0.496,0.997-1.112,1.818-1.85,2.463s-1.592,0.967-2.562,0.967
			c-1.091,0-1.9-0.358-2.426-1.073s-0.798-1.647-0.818-2.795h-0.06l-1.874,10.636h-0.665l3.812-21.847h0.667l-0.606,3.505H388.245z
			 M392.592,68.098c-0.826,0-1.571,0.318-2.236,0.954c-0.665,0.636-1.224,1.443-1.677,2.423c-0.454,0.979-0.801,2.049-1.042,3.21
			s-0.363,2.256-0.363,3.285c0,1.353,0.231,2.448,0.695,3.286c0.463,0.838,1.179,1.256,2.146,1.256c0.866,0,1.626-0.318,2.282-0.954
			c0.654-0.636,1.208-1.443,1.662-2.422c0.453-0.979,0.796-2.049,1.027-3.21s0.348-2.256,0.348-3.286
			c0-0.666-0.056-1.277-0.166-1.832c-0.111-0.555-0.283-1.034-0.514-1.438c-0.232-0.404-0.529-0.717-0.892-0.938
			C393.499,68.209,393.076,68.098,392.592,68.098z"/>
		<path style="fill:#FFFFFF;" d="M404.588,67.493c1.289,0,2.227,0.494,2.811,1.481c0.584,0.987,0.877,2.266,0.877,3.837
			c0,1.189-0.143,2.387-0.424,3.596c-0.282,1.209-0.68,2.307-1.193,3.294c-0.514,0.987-1.144,1.793-1.889,2.417
			c-0.746,0.624-1.571,0.937-2.479,0.937c-1.188,0-2.089-0.463-2.704-1.39c-0.615-0.926-0.922-2.165-0.922-3.716
			c0-1.188,0.136-2.402,0.408-3.642c0.271-1.239,0.659-2.361,1.163-3.369c0.503-1.007,1.123-1.833,1.859-2.478
			C402.83,67.816,403.661,67.493,404.588,67.493z M404.539,68.037c-0.844,0-1.586,0.318-2.229,0.954
			c-0.642,0.636-1.184,1.443-1.625,2.423c-0.441,0.979-0.778,2.049-1.009,3.21s-0.346,2.266-0.346,3.315
			c0,1.333,0.241,2.418,0.722,3.255c0.481,0.838,1.254,1.256,2.318,1.256c0.844,0,1.586-0.308,2.229-0.923
			c0.642-0.616,1.189-1.403,1.641-2.362s0.793-2.003,1.023-3.134s0.346-2.211,0.346-3.241c0-0.686-0.055-1.322-0.165-1.907
			s-0.291-1.09-0.542-1.514c-0.252-0.424-0.572-0.751-0.964-0.984S405.08,68.037,404.539,68.037z"/>
		<path style="fill:#FFFFFF;" d="M418.609,79.369c-0.162,0.423-0.373,0.856-0.635,1.299c-0.263,0.443-0.574,0.841-0.938,1.194
			c-0.362,0.353-0.766,0.64-1.209,0.861c-0.443,0.222-0.926,0.333-1.449,0.333c-0.585,0-1.068-0.105-1.451-0.317
			c-0.383-0.211-0.686-0.483-0.906-0.816c-0.223-0.332-0.383-0.71-0.483-1.133c-0.101-0.423-0.151-0.846-0.151-1.269
			c0-0.604,0.061-1.229,0.182-1.874l1.691-9.67h0.665l-1.692,9.67c-0.121,0.645-0.181,1.269-0.181,1.874
			c0,0.362,0.04,0.715,0.12,1.058c0.081,0.343,0.212,0.655,0.394,0.937c0.181,0.282,0.423,0.509,0.726,0.68
			c0.302,0.171,0.674,0.257,1.117,0.257c0.645,0,1.234-0.186,1.768-0.559c0.534-0.373,1.002-0.851,1.406-1.436
			c0.402-0.584,0.734-1.234,0.996-1.949c0.262-0.715,0.443-1.405,0.545-2.07l1.48-8.461h0.664l-1.903,10.909
			c-0.04,0.242-0.086,0.529-0.136,0.861c-0.051,0.332-0.102,0.67-0.151,1.012c-0.051,0.343-0.096,0.68-0.136,1.012
			c-0.041,0.333-0.071,0.6-0.091,0.801h-0.665c0.04-0.403,0.105-0.917,0.197-1.541c0.09-0.624,0.186-1.179,0.286-1.662H418.609z"/>
		<path style="fill:#FFFFFF;" d="M425.967,70.802c0.051-0.333,0.101-0.675,0.151-1.027c0.05-0.353,0.095-0.69,0.136-1.013
			c0.04-0.322,0.07-0.584,0.091-0.786h0.665c-0.021,0.202-0.057,0.458-0.105,0.771c-0.051,0.312-0.102,0.645-0.152,0.997
			c-0.05,0.353-0.101,0.69-0.15,1.012c-0.051,0.322-0.096,0.604-0.137,0.846h0.092c0.543-1.43,1.163-2.442,1.857-3.037
			c0.695-0.594,1.406-0.891,2.131-0.891c0.161,0,0.281,0.01,0.362,0.03l-0.12,0.604c-0.081-0.02-0.152-0.03-0.212-0.03
			c-0.061,0-0.111,0-0.151,0c-0.564,0-1.093,0.202-1.586,0.604c-0.494,0.403-0.932,0.927-1.314,1.571
			c-0.383,0.645-0.716,1.365-0.998,2.161c-0.281,0.796-0.493,1.597-0.635,2.402l-1.328,7.554h-0.666l1.935-10.909
			C425.871,71.421,425.916,71.134,425.967,70.802z"/>
		<path style="fill:#FFFFFF;" d="M444.143,79.369c-0.162,0.423-0.373,0.856-0.635,1.299c-0.262,0.443-0.574,0.841-0.937,1.194
			s-0.767,0.64-1.209,0.861c-0.443,0.222-0.927,0.333-1.45,0.333c-0.584,0-1.068-0.105-1.451-0.317
			c-0.383-0.211-0.685-0.483-0.906-0.816c-0.222-0.332-0.383-0.71-0.482-1.133c-0.102-0.423-0.152-0.846-0.152-1.269
			c0-0.604,0.061-1.229,0.182-1.874l1.692-9.67h0.665l-1.692,9.67c-0.121,0.645-0.181,1.269-0.181,1.874
			c0,0.362,0.039,0.715,0.12,1.058c0.081,0.343,0.212,0.655,0.394,0.937c0.181,0.282,0.422,0.509,0.725,0.68
			c0.303,0.171,0.675,0.257,1.118,0.257c0.645,0,1.233-0.186,1.768-0.559s1.002-0.851,1.405-1.436
			c0.402-0.584,0.734-1.234,0.997-1.949c0.261-0.715,0.442-1.405,0.544-2.07l1.48-8.461h0.665l-1.903,10.909
			c-0.041,0.242-0.086,0.529-0.137,0.861c-0.051,0.332-0.102,0.67-0.15,1.012c-0.051,0.343-0.096,0.68-0.137,1.012
			s-0.07,0.6-0.09,0.801h-0.666c0.041-0.403,0.106-0.917,0.197-1.541c0.09-0.624,0.186-1.179,0.287-1.662H444.143z"/>
		<path style="fill:#FFFFFF;" d="M452.725,69.88c0.261-0.443,0.573-0.841,0.936-1.193c0.363-0.353,0.766-0.64,1.209-0.861
			c0.443-0.221,0.927-0.333,1.451-0.333c0.562,0,1.042,0.106,1.435,0.317c0.394,0.211,0.7,0.483,0.922,0.816s0.382,0.71,0.483,1.133
			c0.101,0.423,0.151,0.846,0.151,1.269c0,0.625-0.061,1.249-0.182,1.874l-1.692,9.669h-0.664l1.691-9.669
			c0.121-0.625,0.182-1.249,0.182-1.874c0-0.363-0.041-0.715-0.121-1.058c-0.08-0.342-0.211-0.654-0.393-0.937
			c-0.182-0.282-0.423-0.508-0.725-0.68c-0.303-0.171-0.676-0.257-1.119-0.257c-0.645,0-1.234,0.187-1.768,0.559
			c-0.533,0.373-1.002,0.851-1.404,1.435c-0.404,0.584-0.736,1.234-0.998,1.949c-0.262,0.715-0.443,1.405-0.543,2.07l-1.48,8.461
			h-0.666l1.904-10.909c0.04-0.242,0.086-0.529,0.136-0.861c0.05-0.333,0.101-0.675,0.151-1.027c0.05-0.353,0.096-0.69,0.136-1.013
			c0.04-0.322,0.07-0.584,0.091-0.786h0.664c-0.021,0.182-0.053,0.403-0.096,0.665c-0.043,0.262-0.086,0.544-0.129,0.846
			s-0.086,0.6-0.129,0.891c-0.043,0.292-0.086,0.559-0.129,0.801h0.061C452.25,70.757,452.462,70.324,452.725,69.88z"/>
		<path style="fill:#FFFFFF;" d="M463.422,75.108c-0.102,0.464-0.178,0.937-0.229,1.42c-0.05,0.483-0.074,0.947-0.074,1.39
			c0,1.41,0.281,2.518,0.846,3.324c0.563,0.806,1.369,1.208,2.417,1.208c0.786,0,1.47-0.246,2.055-0.74
			c0.584-0.493,1.077-1.103,1.481-1.828l0.482,0.333c-0.423,0.766-0.972,1.431-1.646,1.994c-0.676,0.564-1.477,0.846-2.402,0.846
			c-1.289,0-2.262-0.448-2.916-1.345c-0.654-0.896-0.982-2.161-0.982-3.792c0-1.027,0.127-2.15,0.379-3.37
			c0.253-1.218,0.632-2.352,1.137-3.399c0.506-1.047,1.133-1.918,1.88-2.614c0.748-0.695,1.628-1.042,2.638-1.042
			c0.666,0,1.218,0.126,1.652,0.378c0.434,0.252,0.782,0.594,1.045,1.027c0.264,0.434,0.45,0.932,0.562,1.496
			c0.11,0.564,0.167,1.148,0.167,1.753c0,0.343-0.035,0.791-0.106,1.344c-0.071,0.555-0.157,1.093-0.258,1.617H463.422z
			 M471.006,74.564c0.08-0.467,0.141-0.895,0.181-1.281s0.061-0.752,0.061-1.098c0-0.589-0.051-1.138-0.151-1.647
			c-0.102-0.508-0.262-0.945-0.483-1.311s-0.514-0.656-0.876-0.869c-0.363-0.213-0.797-0.321-1.3-0.321
			c-0.726,0-1.37,0.239-1.934,0.717c-0.564,0.478-1.048,1.058-1.45,1.738c-0.404,0.682-0.73,1.398-0.982,2.15
			c-0.252,0.752-0.428,1.393-0.529,1.921H471.006z"/>
	</g>
</g>
</svg>
