<?xml version="1.0" encoding="utf-8"?>
<!-- Generator: Adobe Illustrator 15.0.0, SVG Export Plug-In . SVG Version: 6.00 Build 0)  -->
<!DOCTYPE svg PUBLIC "-//W3C//DTD SVG 1.1//EN" "http://www.w3.org/Graphics/SVG/1.1/DTD/svg11.dtd">
<svg version="1.1" id="Layer_1" xmlns="http://www.w3.org/2000/svg" xmlns:xlink="http://www.w3.org/1999/xlink" x="0px" y="0px"
	 width="100px" height="100px" viewBox="0 0 100 100" enable-background="new 0 0 100 100" xml:space="preserve">
<path fill="#FFFFFF" stroke="#231F20" stroke-width="5" stroke-miterlimit="10" d="M80.402,24.367l-41.265,6.818
	c-5.698,0.941-10.756,5.462-9.814,11.16l5.285,31.981c0.941,5.697,7.524,10.415,13.222,9.474l22.297-3.686l19.958,12.449
	l-0.539-16.557c4.993-1.267,7.66-7.672,6.96-11.908l-5.283-31.981C90.28,26.42,86.1,23.426,80.402,24.367z"/>
<text transform="matrix(0.9909 -0.1343 0.1343 0.9909 74.9229 70.0488)" font-family="'OpenSans-Extrabold'" font-size="47.4574">!</text>
<g>
	<line fill="none" stroke="#231F20" stroke-width="4" stroke-miterlimit="10" x1="45.096" y1="72.708" x2="65.803" y2="69.059"/>
	<line fill="none" stroke="#231F20" stroke-width="4" stroke-miterlimit="10" x1="43.334" y1="62.709" x2="70.088" y2="58.083"/>
	<line fill="none" stroke="#231F20" stroke-width="4" stroke-miterlimit="10" x1="39.949" y1="44.659" x2="66.703" y2="40.033"/>
	<line fill="none" stroke="#231F20" stroke-width="4" stroke-miterlimit="10" x1="41.767" y1="53.822" x2="68.432" y2="49.122"/>
	<path fill="none" stroke="#231F20" stroke-width="4" stroke-miterlimit="10" d="M69.539,68.4"/>
</g>
<path fill="#FFFFFF" stroke="#231F20" stroke-width="5" stroke-miterlimit="10" d="M23.047,10.499
	C8.25,15.595,0.34,31.593,5.38,46.23c1.407,4.085,1.964,4.717,4.822,7.598l-2.115,18.88l14.384-9.999
	c5.782,2.566,13.164,2.75,18.831,0.799C56.1,58.411,64.01,42.416,58.968,27.777C53.928,13.139,37.846,5.403,23.047,10.499z"/>
<text transform="matrix(1 0 0 1 21.2148 53.8281)" font-family="'OpenSans-Extrabold'" font-size="47.4574">?</text>
</svg>
