<?xml version="1.0" encoding="utf-8"?>
<!-- Generator: Adobe Illustrator 15.0.0, SVG Export Plug-In . SVG Version: 6.00 Build 0)  -->
<!DOCTYPE svg PUBLIC "-//W3C//DTD SVG 1.1//EN" "http://www.w3.org/Graphics/SVG/1.1/DTD/svg11.dtd">
<svg version="1.1" id="Layer_1" xmlns="http://www.w3.org/2000/svg" xmlns:xlink="http://www.w3.org/1999/xlink" x="0px" y="0px"
	 width="1792px" height="1792px" viewBox="0 0 1792 1792" enable-background="new 0 0 1792 1792" xml:space="preserve">
<path fill="#ABABAB" d="M1408,928V448c0-17.333-6.334-32.333-19-45c-12.667-12.667-27.667-19-45-19H864c-28,0-47.667,13-59,39
	c-11.334,27.333-6.667,50.667,14,70l144,144l-534,534c-12.667,12.667-19,27.667-19,45s6.333,32.333,19,45l102,102
	c12.666,12.667,27.666,19,45,19c17.333,0,32.333-6.333,45-19l534-534l144,144c12,12.667,27,19,45,19c8,0,16.333-1.667,25-5
	C1395,975.667,1408,956,1408,928z M1664,416v960c0,79.333-28.167,147.167-84.5,203.5c-56.334,56.333-124.167,84.5-203.5,84.5H416
	c-79.334,0-147.167-28.167-203.5-84.5c-56.334-56.333-84.5-124.167-84.5-203.5V416c0-79.333,28.166-147.167,84.5-203.5
	C268.833,156.167,336.666,128,416,128h960c79.333,0,147.166,28.167,203.5,84.5C1635.833,268.833,1664,336.667,1664,416z"/>
</svg>
