<?xml version="1.0" encoding="utf-8"?>
<!-- Generator: Adobe Illustrator 15.0.0, SVG Export Plug-In . SVG Version: 6.00 Build 0)  -->
<!DOCTYPE svg PUBLIC "-//W3C//DTD SVG 1.1//EN" "http://www.w3.org/Graphics/SVG/1.1/DTD/svg11.dtd">
<svg version="1.1" id="Layer_1" xmlns="http://www.w3.org/2000/svg" xmlns:xlink="http://www.w3.org/1999/xlink" x="0px" y="0px"
	 width="1792px" height="1792px" viewBox="0 0 1792 1792" enable-background="new 0 0 1792 1792" xml:space="preserve">
<path fill="#ABABAB" d="M1664,640c35.333,0,65.5,12.5,90.5,37.5s37.5,55.167,37.5,90.5s-12.5,65.5-37.5,90.5S1699.333,896,1664,896
	v384c0,34.667-12.667,64.667-38,90c-25.334,25.333-55.334,38-90,38c-278-231.333-548.667-358-812-380
	c-38.667,12.667-69,34.667-91,66s-32.334,64.833-31,100.5c1.333,35.667,14.666,66.5,40,92.5c-13.334,22-21,43.833-23,65.5s0,41,6,58
	s17.166,35.333,33.5,55c16.333,19.667,32.333,36.333,48,50c15.666,13.667,36.166,30.5,61.5,50.5
	c-19.334,38.667-56.5,66.333-111.5,83s-111.167,20.5-168.5,11.5c-57.334-9-101.334-27.5-132-55.5c-4.667-15.333-14.5-44.5-29.5-87.5
	s-25.667-74.5-32-94.5c-6.334-20-14-49.667-23-89s-14-73-15-101s0.166-60.833,3.5-98.5c3.333-37.667,10.666-74.5,22-110.5H160
	c-44,0-81.667-15.667-113-47C15.666,945.667,0,908,0,864V672c0-44,15.666-81.667,47-113c31.333-31.333,69-47,113-47h480
	c290,0,588.666-128,896-384c34.666,0,64.666,12.667,90,38c25.333,25.333,38,55.333,38,90V640z M1536,1244V290
	c-262.667,201.333-518.667,315.667-768,343v270C1019.333,931,1275.333,1044.667,1536,1244z"/>
</svg>
