<?xml version="1.0" encoding="utf-8"?>
<!-- Generator: Adobe Illustrator 15.0.0, SVG Export Plug-In . SVG Version: 6.00 Build 0)  -->
<!DOCTYPE svg PUBLIC "-//W3C//DTD SVG 1.1//EN" "http://www.w3.org/Graphics/SVG/1.1/DTD/svg11.dtd">
<svg version="1.1" id="Layer_1" xmlns="http://www.w3.org/2000/svg" xmlns:xlink="http://www.w3.org/1999/xlink" x="0px" y="0px"
	 width="1792px" height="1792px" viewBox="0 0 1792 1792" enable-background="new 0 0 1792 1792" xml:space="preserve">
<path fill="#ABABAB" d="M782,1078c-0.667,2-4.834,1.833-12.5-0.5c-7.667-2.333-18.167-6.167-31.5-11.5l-20-9
	c-29.334-13.333-58.334-29.667-87-49c-4.667-3.333-18.334-13.833-41-31.5c-22.667-17.667-35.334-27.167-38-28.5
	c-44.667,68.667-89.334,129-134,181c-54,63.333-89,100-105,110c-2.667,1.333-9.167,2.667-19.5,4c-10.334,1.333-16.5,1.333-18.5,0
	c4-2.667,31.333-33.333,82-92c14-16,42.5-54.333,85.5-115s69.166-100,78.5-118c11.333-20,28.333-52.833,51-98.5
	c22.666-45.667,34.666-71.5,36-77.5c-5.334-0.667-42,10.333-110,33c-5.334,1.333-14.5,3.833-27.5,7.5S446,789.333,436,792
	s-15.667,4.333-17,5c-1.334,1.333-2,4.833-2,10.5s-0.334,8.833-1,9.5c-3.334,6.667-13.667,11.667-31,15c-15.334,4.667-31,4.667-47,0
	c-12-2.667-21.334-9.667-28-21c-2.667-4-4.334-11.667-5-23c4-1.333,12.166-3,24.5-5c12.333-2,22.166-4,29.5-6
	c38.666-10.667,73.666-21.333,105-32c66.666-23.333,100.666-35,102-35c6.666-1.333,21-7.833,43-19.5s36.666-18.833,44-21.5
	c6-2,13.166-4.667,21.5-8c8.333-3.333,13.166-5.167,14.5-5.5c1.333-0.333,3.333-0.167,6,0.5c1.333,8,1,19-1,33
	c0,1.333-4.167,10.333-12.5,27c-8.334,16.667-17.167,34.5-26.5,53.5c-9.334,19-15,30.167-17,33.5c-16.667,33.333-42.334,77-77,131
	l64,28c8,4,32.833,14.667,74.5,32c41.666,17.333,64.166,26.667,67.5,28c2.666,0.667,6.166,9.167,10.5,25.5
	C781.833,1063.833,783.333,1074,782,1078z M577,592c2,10,0.666,19.333-4,28c-8,15.333-24.667,28-50,38c-20,8-40,12-60,12
	c-17.334-2-33.667-10.667-49-26c-9.334-10-15.334-23.667-18-41l1-3c2,2,8.5,3.667,19.5,5s19.833,1.333,26.5,0
	c6.666-1.333,26-6.667,58-16c24-8,42.333-12.667,55-14C567.333,575,574.333,580.667,577,592z M1275,721l63,227l-139-42L1275,721z
	 M167,1521l694-232V257L167,490V1521z M1408,1204l102,31l-181-657l-100-31l-216,536l102,31l45-110l211,65L1408,1204z M905,242
	l573,184V46L905,242z M1216,1565l158,13l-54,160l-40-66c-86.667,55.333-178.667,91.333-276,108c-38.667,8-69,12-91,12h-84
	c-52.667,0-119.167-13-199.5-39c-80.334-26-141.5-54.333-183.5-85c-5.334-4.667-8-10-8-16c0-5.333,1.666-9.833,5-13.5
	c3.333-3.667,7.666-5.5,13-5.5c2.666,0,8.666,2.5,18,7.5c9.333,5,19.5,10.5,30.5,16.5s17.833,9.667,20.5,11
	c48.666,24.667,101.833,45.167,159.5,61.5c57.666,16.333,110.166,24.5,157.5,24.5c63.333,0,119-4.833,167-14.5
	s100.333-26.5,157-50.5c10-4.667,20.166-9.833,30.5-15.5c10.333-5.667,21.666-12,34-19c12.333-7,21.833-12.5,28.5-16.5L1216,1565z
	 M1664,486v1079l-774-246c-9.334,4-134.334,46.5-375,127.5c-240.667,81-363.334,121.5-368,121.5c-8.667,0-14.667-4.333-18-13
	c0-0.667-0.334-1.667-1-3V474c2-6,3.333-9.333,4-10c3.333-4,10-7.667,20-11c70.666-23.333,120.333-40,149-50V19l558,198
	c1.333,0,54.833-18.333,160.5-55c105.666-36.667,211-72.833,316-108.5S1494.333,0,1497,0c13.333,0,20,7,20,21v418L1664,486z"/>
</svg>
