<?xml version="1.0" encoding="utf-8"?>
<!-- Generator: Adobe Illustrator 15.0.0, SVG Export Plug-In . SVG Version: 6.00 Build 0)  -->
<!DOCTYPE svg PUBLIC "-//W3C//DTD SVG 1.1//EN" "http://www.w3.org/Graphics/SVG/1.1/DTD/svg11.dtd">
<svg version="1.1" id="Layer_1" xmlns="http://www.w3.org/2000/svg" xmlns:xlink="http://www.w3.org/1999/xlink" x="0px" y="0px"
	 width="1792px" height="1792px" viewBox="0 0 1792 1792" enable-background="new 0 0 1792 1792" xml:space="preserve">
<path fill="#FFFFFF" d="M1639,1056c0,3.333-0.334,5.667-1,7c-42.667,178.667-132,323.5-268,434.5S1074.666,1664,892,1664
	c-97.334,0-191.5-18.333-282.5-55s-172.167-89-243.5-157l-129,129c-12.667,12.667-27.667,19-45,19c-17.334,0-32.334-6.333-45-19
	c-12.667-12.667-19-27.667-19-45v-448c0-17.333,6.333-32.333,19-45c12.666-12.667,27.666-19,45-19h448c17.333,0,32.333,6.333,45,19
	c12.666,12.667,19,27.667,19,45s-6.334,32.333-19,45l-137,137c47.333,44,101,78,161,102s122.333,36,187,36
	c89.333,0,172.666-21.667,250-65c77.333-43.333,139.333-103,186-179c7.333-11.333,25-50.333,53-117c5.333-15.333,15.333-23,30-23
	h192c8.666,0,16.166,3.167,22.5,9.5C1635.833,1039.833,1639,1047.333,1639,1056z M1664,256v448c0,17.333-6.334,32.333-19,45
	c-12.667,12.667-27.667,19-45,19h-448c-17.334,0-32.334-6.333-45-19c-12.667-12.667-19-27.667-19-45s6.333-32.333,19-45l138-138
	c-98.667-91.333-215-137-349-137c-89.334,0-172.667,21.667-250,65c-77.334,43.333-139.334,103-186,179
	c-7.334,11.333-25,50.333-53,117c-5.334,15.333-15.334,23-30,23H178c-8.667,0-16.167-3.167-22.5-9.5
	c-6.334-6.333-9.5-13.833-9.5-22.5v-7c43.333-178.667,133.333-323.5,270-434.5C552.666,183.5,712.666,128,896,128
	c97.333,0,192,18.5,284,55.5s173.666,89.167,245,156.5l130-129c12.666-12.667,27.666-19,45-19c17.333,0,32.333,6.333,45,19
	C1657.666,223.667,1664,238.667,1664,256z"/>
</svg>
