<?xml version="1.0" encoding="iso-8859-1"?>
<!-- Generator: Adobe Illustrator 15.0.0, SVG Export Plug-In . SVG Version: 6.00 Build 0)  -->
<!DOCTYPE svg PUBLIC "-//W3C//DTD SVG 1.1//EN" "http://www.w3.org/Graphics/SVG/1.1/DTD/svg11.dtd">
<svg version="1.1" id="Layer_1" xmlns="http://www.w3.org/2000/svg" xmlns:xlink="http://www.w3.org/1999/xlink" x="0px" y="0px"
	 width="464px" height="528px" viewBox="0 0 464 528" style="enable-background:new 0 0 464 528;" xml:space="preserve">
<rect style="fill:#633232;" width="464" height="528"/>
<g>
	<path style="fill:#FFFFFF;" d="M87.345,217.935l9.719-2.011l-0.612,26.187l4.483-0.928l-0.099,5.208l-10.065,2.083l0.065-3.18
		c-0.485,0.763-1.038,1.446-1.657,2.047c-0.619,0.601-1.271,1.118-1.956,1.551c-0.685,0.434-1.374,0.792-2.069,1.077
		c-0.695,0.285-1.352,0.491-1.969,0.619c-1.311,0.271-2.589,0.339-3.833,0.205c-1.245-0.135-2.337-0.486-3.279-1.056
		c-0.582-0.381-1.147-0.853-1.696-1.414c-0.548-0.56-1.031-1.269-1.45-2.127c-0.419-0.858-0.742-1.887-0.971-3.086
		c-0.229-1.199-0.322-2.628-0.283-4.285l0.275-12.514l-4.05,0.838l0.156-5.22l9.834-2.036l-0.409,15.949
		c-0.106,3.763,0.405,6.401,1.534,7.917c1.127,1.516,2.954,2.013,5.48,1.49c1.118-0.231,2.067-0.625,2.848-1.178
		c0.78-0.554,1.452-1.241,2.017-2.062c0.564-0.82,1.009-1.657,1.336-2.509l0.429-17.16l-3.933,0.814L87.345,217.935z"/>
	<path style="fill:#FFFFFF;" d="M105.653,214.145l5.004-1.036l0.279-7.539l5.588-3.75l-0.285,10.133l6.305-1.305l-0.155,5.22
		l-6.306,1.305l-0.471,16.958c-0.018,0.406-0.028,0.814-0.033,1.228s0.039,0.842,0.131,1.285c0.18,0.868,0.542,1.431,1.089,1.69
		c0.546,0.259,1.33,0.282,2.353,0.07c1.099-0.227,2.354-0.818,3.765-1.774l1.348,4.034c-0.923,0.694-1.828,1.278-2.714,1.753
		c-0.888,0.475-1.909,0.832-3.065,1.072c-1.215,0.251-2.355,0.331-3.419,0.24c-1.065-0.091-1.996-0.411-2.793-0.96
		c-0.797-0.548-1.416-1.355-1.858-2.42c-0.442-1.064-0.646-2.445-0.616-4.141l0.646-17.868l-4.946,1.023L105.653,214.145z"/>
	<path style="fill:#FFFFFF;" d="M128.459,227.129c-0.343-1.658-0.465-3.292-0.366-4.901c0.1-1.608,0.393-3.157,0.879-4.646
		s1.153-2.882,1.999-4.184c0.847-1.301,1.836-2.471,2.969-3.51c1.132-1.039,2.392-1.922,3.779-2.653
		c1.387-0.729,2.871-1.257,4.452-1.584c1.985-0.411,3.9-0.44,5.742-0.088c1.843,0.353,3.508,1.014,4.995,1.982
		c1.488,0.97,2.754,2.205,3.8,3.708c1.044,1.503,1.762,3.2,2.153,5.089c0.347,1.678,0.468,3.332,0.364,4.962
		c-0.105,1.631-0.401,3.189-0.887,4.678c-0.487,1.488-1.146,2.891-1.979,4.21c-0.833,1.318-1.82,2.499-2.962,3.539
		c-1.143,1.04-2.412,1.927-3.809,2.658c-1.396,0.732-2.896,1.263-4.496,1.594c-2.005,0.415-3.92,0.444-5.742,0.088
		c-1.823-0.356-3.48-1.024-4.97-2.003c-1.489-0.978-2.749-2.23-3.778-3.757C129.572,230.785,128.858,229.058,128.459,227.129z
		 M134.421,225.473c0.279,1.35,0.73,2.538,1.355,3.565c0.625,1.027,1.375,1.857,2.25,2.49c0.875,0.633,1.858,1.063,2.951,1.29
		c1.092,0.226,2.236,0.216,3.433-0.032c1.407-0.291,2.717-0.884,3.929-1.779c1.213-0.894,2.216-1.997,3.011-3.308
		c0.794-1.311,1.345-2.801,1.652-4.474c0.308-1.672,0.27-3.434-0.113-5.285c-0.279-1.35-0.738-2.521-1.376-3.516
		c-0.639-0.994-1.403-1.8-2.297-2.42c-0.892-0.619-1.877-1.033-2.955-1.243c-1.08-0.208-2.207-0.191-3.383,0.052
		c-1.428,0.295-2.738,0.883-3.934,1.764c-1.195,0.881-2.191,1.972-2.987,3.273c-0.797,1.301-1.345,2.777-1.647,4.428
		C134.008,221.929,134.045,223.661,134.421,225.473z"/>
	<path style="fill:#FFFFFF;" d="M163.962,202.076l11.366-2.353l0.003,2.05c1.139-1.2,2.326-2.165,3.563-2.894
		c1.236-0.728,2.578-1.242,4.023-1.542c1.639-0.339,3.243-0.339,4.812,0c1.567,0.339,2.99,0.949,4.27,1.831
		c1.278,0.881,2.376,2.007,3.292,3.375c0.917,1.368,1.553,2.911,1.908,4.626c0.579,2.796,0.618,5.462,0.117,7.999
		c-0.5,2.537-1.421,4.819-2.761,6.846c-1.34,2.027-3.037,3.736-5.092,5.125c-2.055,1.391-4.345,2.347-6.871,2.87
		c-1.465,0.303-2.884,0.371-4.256,0.203c-1.372-0.169-2.545-0.514-3.518-1.037l-0.233,10.967l4.946-1.024l-0.099,5.208
		l-10.904,2.257l1.003-40.474l-5.727,1.185L163.962,202.076z M182.589,202.594c-1.35,0.28-2.657,0.836-3.922,1.671
		c-1.266,0.835-2.379,1.845-3.34,3.029l-0.387,16.638c0.633,0.533,1.523,0.926,2.673,1.181c1.148,0.255,2.601,0.201,4.354-0.162
		c1.485-0.308,2.888-0.915,4.208-1.821c1.321-0.907,2.435-2.053,3.346-3.437c0.909-1.384,1.549-2.98,1.919-4.786
		c0.371-1.805,0.337-3.769-0.103-5.891c-0.255-1.234-0.657-2.302-1.206-3.204c-0.548-0.901-1.206-1.625-1.973-2.17
		s-1.621-0.911-2.564-1.098C184.651,202.358,183.648,202.375,182.589,202.594z"/>
	<path style="fill:#FFFFFF;" d="M202.834,194.03l11.193-2.317l-0.612,26.187l4.802-0.994l-0.099,5.208l-10.673,2.209l0.612-26.187
		l-5.379,1.114L202.834,194.03z M206.173,182.329c-0.107-0.521-0.107-1.033-0.001-1.538c0.106-0.505,0.299-0.961,0.576-1.371
		c0.276-0.409,0.626-0.763,1.047-1.062c0.421-0.298,0.901-0.503,1.441-0.614c0.521-0.108,1.033-0.109,1.538-0.002
		c0.504,0.107,0.96,0.294,1.367,0.562s0.76,0.611,1.059,1.032c0.298,0.421,0.501,0.892,0.609,1.412
		c0.107,0.521,0.109,1.039,0.004,1.552c-0.104,0.515-0.288,0.986-0.552,1.412c-0.264,0.427-0.605,0.794-1.024,1.102
		c-0.418,0.308-0.889,0.516-1.409,0.624c-0.54,0.111-1.062,0.109-1.569-0.007c-0.507-0.116-0.971-0.316-1.392-0.602
		c-0.421-0.284-0.781-0.642-1.081-1.073C206.485,183.326,206.281,182.85,206.173,182.329z"/>
	<path style="fill:#FFFFFF;" d="M230.527,204.977c0.036,0.274,0.064,0.51,0.085,0.706c0.021,0.197,0.049,0.382,0.085,0.556
		c0.251,1.215,0.683,2.302,1.294,3.261c0.609,0.959,1.347,1.747,2.208,2.363c0.861,0.616,1.824,1.04,2.888,1.272
		c1.062,0.232,2.174,0.229,3.33-0.011c1.543-0.319,2.948-0.937,4.217-1.853c1.268-0.916,2.251-2.069,2.948-3.461l4.927,2.238
		c-0.476,1.002-1.096,1.945-1.857,2.827c-0.763,0.882-1.643,1.682-2.641,2.401c-0.997,0.719-2.09,1.337-3.28,1.855
		c-1.189,0.518-2.431,0.91-3.723,1.178c-1.851,0.383-3.646,0.433-5.383,0.149s-3.331-0.889-4.779-1.816
		c-1.449-0.926-2.692-2.172-3.729-3.737c-1.037-1.565-1.78-3.427-2.228-5.587c-0.515-2.487-0.561-4.916-0.136-7.286
		c0.424-2.37,1.244-4.53,2.459-6.481c1.215-1.95,2.785-3.618,4.711-5.001s4.122-2.331,6.59-2.842
		c1.909-0.395,3.678-0.425,5.306-0.088c1.628,0.337,3.072,0.928,4.333,1.772c1.261,0.845,2.305,1.906,3.132,3.183
		c0.827,1.276,1.394,2.648,1.696,4.113c0.203,0.983,0.347,1.944,0.431,2.881c0.083,0.938,0.13,1.818,0.14,2.641L230.527,204.977z
		 M238.75,190.788c-1.157,0.239-2.204,0.647-3.141,1.223c-0.936,0.576-1.751,1.278-2.444,2.105c-0.693,0.827-1.267,1.75-1.719,2.769
		c-0.453,1.02-0.774,2.091-0.964,3.216l17.064-3.532c-0.229-1.199-0.605-2.223-1.133-3.068c-0.526-0.846-1.177-1.506-1.948-1.979
		s-1.643-0.771-2.612-0.892S239.849,190.561,238.75,190.788z"/>
	<path style="fill:#FFFFFF;" d="M274.413,185.819c-0.399-0.521-0.886-0.928-1.459-1.222c-0.573-0.293-1.214-0.472-1.921-0.537
		c-0.707-0.064-1.447-0.017-2.218,0.142c-0.771,0.16-1.485,0.403-2.142,0.73c-0.655,0.327-1.207,0.728-1.651,1.202
		s-0.763,1.002-0.954,1.585c-0.191,0.582-0.218,1.202-0.083,1.857c0.16,0.771,0.538,1.362,1.137,1.771
		c0.597,0.408,1.47,0.716,2.618,0.92l5.995,0.84c1.824,0.266,3.314,0.958,4.471,2.076c1.157,1.118,1.927,2.602,2.311,4.454
		c0.343,1.658,0.34,3.177-0.008,4.556c-0.348,1.38-0.975,2.604-1.879,3.676c-0.903,1.073-2.059,1.975-3.466,2.708
		c-1.406,0.733-2.997,1.284-4.771,1.651c-1.08,0.224-2.129,0.351-3.148,0.38c-1.02,0.03-1.985-0.047-2.898-0.229
		c-0.912-0.183-1.736-0.475-2.473-0.876c-0.737-0.4-1.351-0.912-1.841-1.534l-3.066,0.635l0.156-5.221l6.103-1.263
		c0.06,0.772,0.294,1.417,0.702,1.936c0.409,0.519,0.925,0.92,1.546,1.203c0.622,0.284,1.324,0.445,2.107,0.484
		c0.781,0.04,1.587-0.027,2.416-0.199s1.584-0.438,2.263-0.8c0.679-0.362,1.246-0.8,1.703-1.317
		c0.455-0.517,0.781-1.106,0.976-1.771c0.194-0.664,0.212-1.381,0.052-2.152c-0.151-0.733-0.551-1.349-1.196-1.849
		c-0.646-0.5-1.56-0.829-2.738-0.987l-5.723-0.836c-1.856-0.32-3.381-1.035-4.576-2.145c-1.195-1.11-1.96-2.475-2.295-4.095
		c-0.296-1.427-0.315-2.78-0.057-4.061c0.258-1.279,0.791-2.445,1.599-3.498c0.808-1.052,1.905-1.963,3.295-2.733
		c1.389-0.77,3.066-1.358,5.033-1.766c1.138-0.235,2.211-0.342,3.222-0.32c1.01,0.022,1.931,0.148,2.763,0.379
		c0.832,0.23,1.57,0.544,2.216,0.943c0.646,0.399,1.195,0.864,1.646,1.394l3.239-0.67l-0.156,5.22l-5.987,1.239
		C275.1,186.974,274.812,186.34,274.413,185.819z"/>
</g>
<g>
	<path style="fill:#A37B7B;" d="M35.32,243.77l3.594-0.843l0.054,14.019l1.653-0.388l0.013,1.741l-3.584,0.841l-0.007-0.677
		c-0.307,0.335-0.642,0.626-1.007,0.875c-0.364,0.248-0.776,0.426-1.238,0.534c-0.57,0.134-1.127,0.149-1.672,0.047
		c-0.545-0.102-1.046-0.302-1.504-0.6c-0.459-0.299-0.855-0.684-1.189-1.155c-0.333-0.473-0.572-1.014-0.715-1.622
		c-0.207-0.885-0.242-1.738-0.104-2.561c0.138-0.824,0.412-1.574,0.824-2.252c0.412-0.679,0.943-1.257,1.591-1.737
		s1.382-0.816,2.202-1.008c0.512-0.121,1.008-0.158,1.483-0.115c0.477,0.044,0.908,0.155,1.296,0.335l-0.016-4.082l-1.682,0.395
		L35.32,243.77z M34.857,258.092c0.403-0.095,0.8-0.282,1.19-0.562c0.391-0.28,0.722-0.636,0.993-1.064l-0.019-5.439
		c-0.303-0.22-0.66-0.361-1.073-0.422c-0.413-0.062-0.892-0.03-1.437,0.098c-0.48,0.113-0.93,0.324-1.347,0.635
		s-0.762,0.694-1.033,1.15c-0.271,0.455-0.455,0.976-0.552,1.559c-0.096,0.584-0.067,1.203,0.086,1.856
		c0.101,0.43,0.254,0.801,0.459,1.113c0.205,0.314,0.447,0.564,0.729,0.752c0.28,0.188,0.592,0.311,0.934,0.37
		C34.128,258.194,34.485,258.179,34.857,258.092z"/>
	<path style="fill:#A37B7B;" d="M44.273,252.548c0.015,0.09,0.026,0.169,0.035,0.236c0.009,0.065,0.02,0.126,0.033,0.184
		c0.095,0.403,0.248,0.763,0.46,1.078c0.213,0.316,0.466,0.572,0.76,0.77c0.293,0.199,0.618,0.332,0.975,0.4
		c0.358,0.068,0.729,0.057,1.113-0.033c0.513-0.12,0.977-0.338,1.393-0.656c0.415-0.317,0.733-0.71,0.954-1.181l1.666,0.704
		c-0.15,0.34-0.349,0.66-0.596,0.961c-0.247,0.302-0.534,0.576-0.861,0.826c-0.326,0.249-0.687,0.465-1.079,0.647
		c-0.394,0.184-0.805,0.326-1.233,0.427c-0.615,0.144-1.215,0.177-1.797,0.097c-0.583-0.08-1.121-0.268-1.612-0.564
		c-0.493-0.296-0.919-0.702-1.279-1.215c-0.36-0.514-0.625-1.129-0.793-1.847c-0.194-0.826-0.23-1.638-0.109-2.434
		c0.12-0.795,0.375-1.524,0.764-2.186c0.389-0.663,0.899-1.233,1.529-1.712c0.632-0.479,1.357-0.815,2.178-1.007
		c0.634-0.149,1.225-0.174,1.771-0.076c0.547,0.098,1.035,0.283,1.463,0.553c0.43,0.272,0.787,0.617,1.074,1.036
		c0.288,0.42,0.488,0.873,0.604,1.36c0.076,0.326,0.133,0.646,0.169,0.958c0.036,0.313,0.06,0.606,0.069,0.881L44.273,252.548z
		 M46.895,247.736c-0.384,0.09-0.73,0.235-1.038,0.436c-0.308,0.2-0.573,0.441-0.798,0.724c-0.225,0.282-0.407,0.596-0.551,0.94
		c-0.142,0.345-0.239,0.706-0.293,1.082l5.67-1.33c-0.087-0.398-0.222-0.736-0.405-1.014c-0.184-0.278-0.407-0.494-0.669-0.645
		c-0.262-0.152-0.555-0.244-0.88-0.276S47.26,247.65,46.895,247.736z"/>
	<path style="fill:#A37B7B;" d="M58.766,245.762c-0.138-0.169-0.304-0.301-0.498-0.394c-0.194-0.095-0.41-0.148-0.646-0.164
		c-0.237-0.016-0.483,0.007-0.74,0.067c-0.256,0.06-0.492,0.147-0.708,0.262c-0.217,0.115-0.397,0.254-0.542,0.416
		c-0.144,0.162-0.246,0.341-0.305,0.538c-0.059,0.197-0.062,0.404-0.012,0.622c0.061,0.256,0.192,0.45,0.396,0.581
		c0.202,0.132,0.497,0.227,0.883,0.285l2.01,0.228c0.611,0.073,1.115,0.291,1.512,0.654c0.396,0.363,0.666,0.853,0.811,1.468
		c0.129,0.55,0.142,1.058,0.037,1.521c-0.104,0.465-0.302,0.879-0.594,1.245c-0.293,0.366-0.672,0.678-1.135,0.936
		c-0.464,0.257-0.99,0.455-1.58,0.593c-0.358,0.084-0.707,0.135-1.048,0.154c-0.341,0.02-0.664,0.002-0.971-0.051
		c-0.306-0.052-0.584-0.143-0.834-0.271c-0.249-0.127-0.458-0.293-0.628-0.495l-1.019,0.239l0.007-1.746l2.027-0.476
		c0.025,0.257,0.109,0.471,0.252,0.641c0.141,0.169,0.316,0.298,0.527,0.388c0.209,0.088,0.445,0.136,0.707,0.143
		s0.53-0.023,0.806-0.088c0.275-0.065,0.524-0.16,0.749-0.287c0.223-0.127,0.409-0.278,0.558-0.455
		c0.147-0.177,0.251-0.376,0.31-0.601c0.06-0.223,0.059-0.463-0.002-0.72c-0.057-0.243-0.195-0.445-0.416-0.606
		c-0.22-0.161-0.527-0.263-0.923-0.306l-1.919-0.229c-0.623-0.09-1.139-0.315-1.548-0.676s-0.676-0.81-0.802-1.348
		c-0.111-0.475-0.131-0.926-0.056-1.356c0.075-0.43,0.243-0.822,0.503-1.183c0.261-0.358,0.62-0.673,1.077-0.94
		c0.458-0.271,1.013-0.482,1.666-0.635c0.378-0.088,0.735-0.133,1.073-0.135c0.338-0.001,0.646,0.033,0.928,0.102
		c0.279,0.07,0.528,0.168,0.748,0.296c0.219,0.127,0.406,0.277,0.562,0.451l1.076-0.252l-0.007,1.745l-1.989,0.467
		C59.006,246.143,58.904,245.933,58.766,245.762z"/>
</g>
<g>
	<path style="fill:#FFFFFF;" d="M67.343,365.116c-0.423,0.284-0.847,0.494-1.273,0.629c-0.426,0.136-0.866,0.204-1.32,0.204
		c-0.536,0-1.038-0.104-1.505-0.312c-0.467-0.208-0.872-0.492-1.216-0.852c-0.344-0.36-0.615-0.784-0.814-1.273
		c-0.199-0.489-0.298-1.014-0.298-1.576c0-0.915,0.161-1.754,0.483-2.517c0.322-0.764,0.758-1.42,1.311-1.969
		s1.196-0.975,1.931-1.278c0.735-0.303,1.516-0.454,2.343-0.454c0.473,0,0.918,0.071,1.334,0.213s0.757,0.327,1.022,0.554
		l0.123-0.511h1.902l-1.893,8.177h1.523l-0.369,1.628h-3.436L67.343,365.116z M65.194,364.321c0.233,0,0.472-0.028,0.715-0.085
		c0.243-0.057,0.475-0.129,0.695-0.218c0.221-0.088,0.429-0.191,0.625-0.308c0.195-0.117,0.369-0.238,0.521-0.364l1.221-5.244
		c-0.164-0.208-0.419-0.386-0.767-0.535c-0.347-0.148-0.801-0.222-1.363-0.222c-0.486,0-0.965,0.099-1.438,0.298
		s-0.896,0.486-1.269,0.861c-0.372,0.375-0.675,0.836-0.908,1.382c-0.234,0.546-0.35,1.166-0.35,1.86
		c0,0.404,0.057,0.765,0.17,1.083c0.114,0.319,0.271,0.588,0.474,0.809c0.202,0.221,0.446,0.39,0.733,0.506
		C64.54,364.263,64.854,364.321,65.194,364.321z"/>
	<path style="fill:#FFFFFF;" d="M74.186,355.973h3.701l-0.237,1.003c0.448-0.373,0.938-0.663,1.472-0.871
		c0.533-0.208,1.096-0.312,1.689-0.312c0.505,0,0.961,0.076,1.368,0.227c0.407,0.151,0.74,0.382,0.999,0.691
		s0.429,0.694,0.511,1.155c0.082,0.46,0.053,0.997-0.085,1.609l-1.079,4.675h1.391l-0.369,1.628h-3.312l1.41-6.067
		c0.177-0.744,0.12-1.306-0.17-1.685c-0.29-0.378-0.782-0.568-1.477-0.568c-0.492,0-0.959,0.106-1.4,0.317
		c-0.442,0.211-0.861,0.506-1.259,0.885l-1.638,7.117h-1.921l1.893-8.177h-1.874L74.186,355.973z"/>
	<path style="fill:#FFFFFF;" d="M87.133,355.973h3.701l-0.237,1.003c0.448-0.373,0.938-0.663,1.472-0.871
		c0.533-0.208,1.096-0.312,1.689-0.312c0.505,0,0.961,0.076,1.368,0.227c0.407,0.151,0.74,0.382,0.999,0.691
		s0.429,0.694,0.511,1.155c0.082,0.46,0.053,0.997-0.085,1.609l-1.079,4.675h1.391l-0.369,1.628h-3.312l1.41-6.067
		c0.177-0.744,0.12-1.306-0.17-1.685c-0.29-0.378-0.782-0.568-1.477-0.568c-0.492,0-0.959,0.106-1.4,0.317
		c-0.442,0.211-0.861,0.506-1.259,0.885l-1.638,7.117h-1.921l1.893-8.177h-1.874L87.133,355.973z"/>
	<path style="fill:#FFFFFF;" d="M106.279,355.973h3.18l-1.893,8.177h1.467l-0.369,1.628h-3.294l0.227-0.994
		c-0.202,0.208-0.419,0.386-0.653,0.535s-0.472,0.268-0.714,0.359c-0.243,0.092-0.483,0.16-0.72,0.204
		c-0.236,0.044-0.456,0.066-0.658,0.066c-0.429,0-0.834-0.062-1.216-0.185c-0.382-0.123-0.702-0.304-0.961-0.544
		c-0.158-0.157-0.304-0.342-0.44-0.554c-0.136-0.211-0.241-0.465-0.317-0.762c-0.076-0.296-0.111-0.64-0.104-1.032
		c0.006-0.391,0.069-0.845,0.189-1.363l0.899-3.909h-1.325l0.388-1.628h3.218l-1.164,4.979c-0.278,1.173-0.289,2.035-0.033,2.583
		c0.255,0.549,0.796,0.824,1.623,0.824c0.366,0,0.689-0.062,0.97-0.185s0.536-0.295,0.767-0.516c0.23-0.221,0.424-0.454,0.582-0.7
		l1.249-5.357h-1.287L106.279,355.973z"/>
	<path style="fill:#FFFFFF;" d="M117.93,365.116c-0.423,0.284-0.847,0.494-1.273,0.629c-0.426,0.136-0.866,0.204-1.32,0.204
		c-0.536,0-1.038-0.104-1.505-0.312c-0.467-0.208-0.872-0.492-1.216-0.852c-0.344-0.36-0.615-0.784-0.814-1.273
		c-0.199-0.489-0.298-1.014-0.298-1.576c0-0.915,0.161-1.754,0.483-2.517c0.322-0.764,0.758-1.42,1.311-1.969
		s1.196-0.975,1.931-1.278c0.735-0.303,1.516-0.454,2.343-0.454c0.473,0,0.918,0.071,1.334,0.213s0.757,0.327,1.022,0.554
		l0.123-0.511h1.902l-1.893,8.177h1.523l-0.369,1.628h-3.436L117.93,365.116z M115.781,364.321c0.233,0,0.472-0.028,0.715-0.085
		c0.243-0.057,0.475-0.129,0.695-0.218c0.221-0.088,0.429-0.191,0.625-0.308c0.195-0.117,0.369-0.238,0.521-0.364l1.221-5.244
		c-0.164-0.208-0.419-0.386-0.767-0.535c-0.347-0.148-0.801-0.222-1.363-0.222c-0.486,0-0.965,0.099-1.438,0.298
		s-0.896,0.486-1.269,0.861c-0.372,0.375-0.675,0.836-0.908,1.382c-0.234,0.546-0.35,1.166-0.35,1.86
		c0,0.404,0.057,0.765,0.17,1.083c0.114,0.319,0.271,0.588,0.474,0.809c0.202,0.221,0.446,0.39,0.733,0.506
		C115.127,364.263,115.441,364.321,115.781,364.321z"/>
	<path style="fill:#FFFFFF;" d="M124.886,355.973h3.663l-1.893,8.177h1.571l-0.369,1.628h-3.492l1.893-8.177h-1.76L124.886,355.973z
		 M126.694,352.519c0-0.17,0.033-0.331,0.099-0.482c0.066-0.151,0.156-0.282,0.27-0.393c0.113-0.11,0.246-0.199,0.397-0.265
		c0.151-0.066,0.315-0.1,0.492-0.1c0.17,0,0.331,0.033,0.482,0.1c0.151,0.066,0.282,0.154,0.393,0.265
		c0.11,0.111,0.199,0.242,0.265,0.393c0.066,0.151,0.1,0.312,0.1,0.482s-0.033,0.333-0.1,0.487
		c-0.066,0.155-0.154,0.291-0.265,0.407c-0.111,0.117-0.242,0.21-0.393,0.279s-0.312,0.104-0.482,0.104
		c-0.177,0-0.341-0.035-0.492-0.104s-0.284-0.163-0.397-0.279c-0.114-0.117-0.204-0.252-0.27-0.407
		C126.727,352.852,126.694,352.689,126.694,352.519z"/>
	<path style="fill:#FFFFFF;" d="M138.922,358.68H137l0.274-1.155c-0.612,0-1.132,0.156-1.562,0.468
		c-0.429,0.312-0.782,0.724-1.06,1.235l-1.136,4.921h1.628l-0.369,1.628h-3.549l1.893-8.177h-1.874l0.388-1.628h3.701l-0.312,1.344
		c0.177-0.202,0.366-0.389,0.568-0.563c0.202-0.173,0.415-0.323,0.639-0.45c0.224-0.126,0.457-0.225,0.7-0.298
		c0.243-0.072,0.487-0.109,0.733-0.109c0.227,0,0.423,0.003,0.587,0.009c0.164,0.006,0.339,0.018,0.525,0.033
		c0.186,0.016,0.443,0.046,0.771,0.09L138.922,358.68z"/>
	<path style="fill:#FFFFFF;" d="M142.831,361.207c-0.006,0.088-0.013,0.164-0.019,0.227s-0.009,0.123-0.009,0.18
		c0,0.398,0.064,0.767,0.194,1.107s0.309,0.636,0.54,0.885c0.23,0.249,0.505,0.445,0.823,0.586c0.319,0.142,0.667,0.213,1.046,0.213
		c0.505,0,0.986-0.102,1.443-0.308c0.458-0.205,0.841-0.503,1.15-0.894l1.401,1.022c-0.215,0.284-0.47,0.54-0.767,0.767
		c-0.297,0.227-0.625,0.421-0.984,0.582c-0.36,0.161-0.743,0.284-1.15,0.369c-0.407,0.085-0.822,0.128-1.245,0.128
		c-0.606,0-1.172-0.101-1.699-0.303c-0.527-0.202-0.988-0.496-1.382-0.88c-0.395-0.385-0.704-0.856-0.928-1.415
		c-0.224-0.558-0.336-1.191-0.336-1.897c0-0.814,0.144-1.579,0.431-2.295c0.287-0.716,0.685-1.34,1.192-1.874
		s1.109-0.955,1.803-1.264c0.694-0.309,1.445-0.464,2.252-0.464c0.625,0,1.181,0.106,1.67,0.317c0.489,0.211,0.904,0.49,1.245,0.837
		s0.599,0.748,0.776,1.202c0.177,0.454,0.265,0.921,0.265,1.4c0,0.322-0.018,0.633-0.052,0.933
		c-0.035,0.299-0.077,0.579-0.127,0.837H142.831z M146.333,357.289c-0.379,0-0.734,0.06-1.065,0.18
		c-0.331,0.12-0.633,0.287-0.904,0.501c-0.271,0.214-0.511,0.467-0.719,0.757c-0.208,0.29-0.379,0.605-0.511,0.946h5.584
		c0.006-0.391-0.046-0.737-0.156-1.037c-0.11-0.299-0.271-0.549-0.482-0.748s-0.465-0.349-0.762-0.45
		C147.02,357.339,146.692,357.289,146.333,357.289z"/>
	<path style="fill:#FFFFFF;" d="M165.536,365.968l-1.458-2.016c-0.309,0.315-0.634,0.603-0.975,0.861
		c-0.34,0.259-0.697,0.481-1.069,0.667c-0.372,0.187-0.762,0.332-1.169,0.436c-0.407,0.104-0.828,0.156-1.263,0.156
		c-0.511,0-0.981-0.095-1.41-0.284c-0.429-0.189-0.802-0.449-1.117-0.781c-0.315-0.331-0.562-0.719-0.738-1.164
		c-0.176-0.445-0.265-0.923-0.265-1.434c0-0.524,0.101-1.014,0.303-1.472c0.202-0.458,0.468-0.873,0.8-1.245
		c0.331-0.373,0.71-0.701,1.136-0.984c0.426-0.284,0.863-0.518,1.311-0.701c-0.12-0.164-0.249-0.342-0.388-0.535
		c-0.139-0.192-0.269-0.407-0.388-0.644c-0.12-0.236-0.221-0.498-0.303-0.786c-0.082-0.287-0.123-0.607-0.123-0.96
		c0-0.555,0.112-1.071,0.336-1.547c0.224-0.477,0.527-0.89,0.909-1.24c0.381-0.35,0.831-0.626,1.349-0.828
		c0.517-0.202,1.069-0.303,1.656-0.303c0.448,0,0.867,0.083,1.259,0.246c0.391,0.165,0.732,0.387,1.022,0.667
		s0.519,0.603,0.686,0.965c0.167,0.363,0.251,0.743,0.251,1.141c0,0.435-0.051,0.822-0.151,1.159
		c-0.101,0.338-0.248,0.644-0.44,0.918c-0.193,0.274-0.433,0.527-0.72,0.757s-0.613,0.462-0.979,0.696
		c-0.233,0.158-0.472,0.303-0.714,0.435c-0.243,0.133-0.494,0.262-0.752,0.388l2.139,2.726c0.303-0.473,0.566-0.938,0.79-1.396
		s0.409-0.872,0.554-1.245h1.704c-0.24,0.638-0.53,1.292-0.871,1.964c-0.341,0.672-0.732,1.32-1.174,1.945l1.836,2.337
		L165.536,365.968z M158.929,360.019c-0.24,0.193-0.449,0.412-0.629,0.658c-0.18,0.246-0.322,0.513-0.426,0.8
		c-0.104,0.288-0.156,0.579-0.156,0.875c0,0.303,0.051,0.585,0.152,0.847c0.101,0.262,0.244,0.487,0.43,0.677
		s0.41,0.337,0.672,0.445c0.262,0.107,0.55,0.161,0.866,0.161c0.322,0,0.633-0.044,0.932-0.133c0.3-0.088,0.588-0.209,0.866-0.364
		c0.277-0.155,0.544-0.339,0.8-0.554s0.497-0.448,0.724-0.7l-2.622-3.502c-0.146,0.057-0.288,0.112-0.426,0.166
		s-0.277,0.109-0.417,0.166C159.425,359.674,159.169,359.827,158.929,360.019z M163.936,355.368
		c0.183-0.291,0.274-0.606,0.274-0.947c0-0.233-0.044-0.454-0.132-0.663c-0.088-0.208-0.208-0.391-0.36-0.549
		s-0.331-0.282-0.54-0.374c-0.208-0.092-0.432-0.137-0.672-0.137c-0.347,0-0.672,0.06-0.975,0.18
		c-0.303,0.12-0.565,0.284-0.786,0.492c-0.221,0.208-0.396,0.451-0.525,0.729c-0.129,0.278-0.194,0.578-0.194,0.899
		c0,0.214,0.027,0.415,0.081,0.601c0.053,0.187,0.131,0.371,0.232,0.554c0.101,0.183,0.224,0.371,0.369,0.563
		c0.146,0.192,0.306,0.402,0.483,0.629c0.385-0.164,0.755-0.342,1.112-0.535c0.356-0.192,0.689-0.421,0.998-0.686
		C163.542,355.91,163.753,355.658,163.936,355.368z"/>
	<path style="fill:#FFFFFF;" d="M181.213,358.197c-0.167-0.189-0.358-0.347-0.573-0.473c-0.214-0.126-0.448-0.221-0.7-0.284
		c-0.252-0.063-0.514-0.094-0.786-0.094c-0.347,0-0.718,0.09-1.112,0.27c-0.395,0.18-0.761,0.443-1.098,0.791
		c-0.337,0.347-0.617,0.773-0.837,1.277c-0.221,0.505-0.332,1.083-0.332,1.732c0,0.474,0.07,0.892,0.208,1.254
		s0.325,0.667,0.559,0.913c0.233,0.246,0.504,0.431,0.813,0.554s0.637,0.185,0.984,0.185c0.252,0,0.489-0.021,0.71-0.062
		s0.431-0.11,0.629-0.208c0.199-0.098,0.393-0.226,0.582-0.383s0.375-0.354,0.559-0.587l1.372,1.032
		c-0.246,0.347-0.524,0.642-0.833,0.885c-0.31,0.243-0.634,0.44-0.975,0.591s-0.692,0.26-1.055,0.327s-0.721,0.1-1.074,0.1
		c-0.644,0-1.238-0.115-1.784-0.346c-0.546-0.23-1.016-0.547-1.41-0.951c-0.395-0.404-0.704-0.878-0.928-1.424
		c-0.224-0.546-0.336-1.134-0.336-1.765c0-0.858,0.161-1.645,0.483-2.361s0.745-1.333,1.268-1.851
		c0.524-0.517,1.115-0.919,1.775-1.207c0.659-0.287,1.326-0.431,2.001-0.431c0.315,0,0.631,0.03,0.946,0.09
		c0.315,0.06,0.619,0.155,0.909,0.284s0.562,0.292,0.814,0.487c0.252,0.196,0.479,0.426,0.682,0.691h1.183l-0.265,1.628h-1.978
		C181.514,358.607,181.38,358.387,181.213,358.197z"/>
	<path style="fill:#FFFFFF;" d="M191.061,365.116c-0.423,0.284-0.847,0.494-1.273,0.629c-0.426,0.136-0.866,0.204-1.32,0.204
		c-0.536,0-1.038-0.104-1.505-0.312c-0.467-0.208-0.872-0.492-1.216-0.852c-0.344-0.36-0.615-0.784-0.814-1.273
		c-0.199-0.489-0.298-1.014-0.298-1.576c0-0.915,0.161-1.754,0.483-2.517c0.322-0.764,0.758-1.42,1.311-1.969
		s1.196-0.975,1.931-1.278c0.735-0.303,1.516-0.454,2.343-0.454c0.473,0,0.918,0.071,1.334,0.213s0.757,0.327,1.022,0.554
		l0.123-0.511h1.902l-1.893,8.177h1.523l-0.369,1.628h-3.436L191.061,365.116z M188.912,364.321c0.233,0,0.472-0.028,0.715-0.085
		c0.243-0.057,0.475-0.129,0.695-0.218c0.221-0.088,0.429-0.191,0.625-0.308c0.195-0.117,0.369-0.238,0.521-0.364l1.221-5.244
		c-0.164-0.208-0.419-0.386-0.767-0.535c-0.347-0.148-0.801-0.222-1.363-0.222c-0.486,0-0.965,0.099-1.438,0.298
		s-0.896,0.486-1.269,0.861c-0.372,0.375-0.675,0.836-0.908,1.382c-0.234,0.546-0.35,1.166-0.35,1.86
		c0,0.404,0.057,0.765,0.17,1.083c0.114,0.319,0.271,0.588,0.474,0.809c0.202,0.221,0.446,0.39,0.733,0.506
		C188.258,364.263,188.572,364.321,188.912,364.321z"/>
	<path style="fill:#FFFFFF;" d="M205.191,358.68h-1.921l0.274-1.155c-0.612,0-1.132,0.156-1.562,0.468
		c-0.429,0.312-0.782,0.724-1.06,1.235l-1.136,4.921h1.628l-0.369,1.628h-3.549l1.893-8.177h-1.874l0.388-1.628h3.701l-0.312,1.344
		c0.177-0.202,0.366-0.389,0.568-0.563c0.202-0.173,0.415-0.323,0.639-0.45c0.224-0.126,0.457-0.225,0.7-0.298
		c0.243-0.072,0.487-0.109,0.733-0.109c0.227,0,0.423,0.003,0.587,0.009c0.164,0.006,0.339,0.018,0.525,0.033
		c0.186,0.016,0.443,0.046,0.771,0.09L205.191,358.68z"/>
	<path style="fill:#FFFFFF;" d="M207.85,355.973h1.638l0.577-2.347l1.998-0.814l-0.748,3.161h2.062l-0.388,1.628h-2.063
		l-1.249,5.291c-0.032,0.126-0.062,0.254-0.09,0.383s-0.042,0.267-0.042,0.412c0,0.284,0.077,0.484,0.232,0.601
		c0.154,0.117,0.399,0.175,0.733,0.175c0.359,0,0.791-0.104,1.297-0.312l0.16,1.354c-0.334,0.158-0.656,0.282-0.965,0.374
		c-0.309,0.091-0.653,0.137-1.032,0.137c-0.397,0-0.76-0.049-1.088-0.147s-0.6-0.259-0.814-0.482
		c-0.214-0.224-0.356-0.518-0.426-0.88c-0.07-0.363-0.044-0.809,0.076-1.339l1.363-5.565h-1.618L207.85,355.973z"/>
	<path style="fill:#FFFFFF;" d="M214.163,361.529c0-0.542,0.067-1.063,0.203-1.562s0.328-0.965,0.577-1.401
		c0.25-0.436,0.549-0.83,0.899-1.183c0.351-0.353,0.737-0.656,1.159-0.909c0.423-0.252,0.876-0.448,1.358-0.586
		c0.483-0.139,0.983-0.208,1.5-0.208c0.649,0,1.253,0.115,1.808,0.346s1.035,0.546,1.439,0.946c0.403,0.401,0.721,0.871,0.951,1.41
		c0.229,0.54,0.345,1.119,0.345,1.737c0,0.549-0.069,1.076-0.208,1.581s-0.333,0.975-0.582,1.41
		c-0.25,0.436-0.547,0.833-0.895,1.192c-0.348,0.36-0.733,0.666-1.159,0.918c-0.427,0.252-0.882,0.448-1.368,0.587
		c-0.485,0.139-0.99,0.208-1.514,0.208c-0.656,0-1.259-0.115-1.809-0.346c-0.549-0.23-1.025-0.547-1.429-0.951
		s-0.718-0.878-0.941-1.424S214.163,362.16,214.163,361.529z M216.141,361.396c0,0.441,0.064,0.844,0.194,1.207
		s0.311,0.672,0.544,0.928c0.234,0.255,0.515,0.454,0.843,0.596c0.328,0.142,0.688,0.213,1.079,0.213
		c0.461,0,0.91-0.101,1.349-0.303c0.438-0.202,0.825-0.483,1.159-0.843c0.334-0.359,0.604-0.792,0.809-1.296s0.309-1.06,0.309-1.666
		c0-0.441-0.068-0.839-0.204-1.192c-0.136-0.353-0.323-0.656-0.563-0.909c-0.239-0.252-0.521-0.446-0.847-0.582
		c-0.325-0.135-0.68-0.203-1.064-0.203c-0.468,0-0.917,0.099-1.349,0.298c-0.433,0.199-0.816,0.477-1.15,0.833
		s-0.603,0.784-0.805,1.282C216.242,360.257,216.141,360.803,216.141,361.396z"/>
	<path style="fill:#FFFFFF;" d="M232.553,365.172c-0.398,0.278-0.807,0.477-1.227,0.597c-0.42,0.12-0.872,0.18-1.357,0.18
		c-0.537,0-1.038-0.104-1.506-0.312c-0.467-0.208-0.871-0.492-1.215-0.852c-0.345-0.36-0.615-0.784-0.814-1.273
		c-0.199-0.489-0.299-1.014-0.299-1.576c0-0.915,0.162-1.754,0.483-2.517c0.321-0.764,0.759-1.42,1.311-1.969
		s1.196-0.975,1.931-1.278c0.735-0.303,1.516-0.454,2.343-0.454c0.474,0,0.918,0.071,1.335,0.213
		c0.416,0.142,0.756,0.327,1.021,0.554l0.123-0.511h1.922l-2.253,9.691c-0.189,0.82-0.442,1.519-0.757,2.097
		c-0.316,0.577-0.701,1.049-1.155,1.415c-0.454,0.366-0.982,0.634-1.585,0.804s-1.285,0.255-2.049,0.255
		c-0.348,0-0.707-0.028-1.079-0.085s-0.737-0.144-1.093-0.26c-0.357-0.117-0.693-0.264-1.008-0.44
		c-0.316-0.177-0.594-0.385-0.834-0.625l1.221-1.382c0.152,0.164,0.335,0.314,0.549,0.45c0.215,0.136,0.451,0.254,0.711,0.355
		c0.258,0.101,0.531,0.18,0.818,0.237c0.287,0.057,0.578,0.085,0.875,0.085c0.455,0,0.867-0.049,1.24-0.146
		c0.372-0.098,0.705-0.269,0.998-0.511c0.294-0.243,0.549-0.571,0.768-0.984C232.188,366.515,232.382,365.93,232.553,365.172z
		 M230.413,364.321c0.492,0,0.952-0.088,1.382-0.265c0.43-0.176,0.824-0.417,1.184-0.719l1.211-5.224
		c-0.164-0.208-0.42-0.388-0.767-0.54s-0.802-0.227-1.362-0.227c-0.486,0-0.966,0.099-1.439,0.298
		c-0.473,0.199-0.896,0.486-1.268,0.861c-0.373,0.375-0.676,0.836-0.908,1.382c-0.234,0.546-0.351,1.166-0.351,1.86
		c0,0.404,0.057,0.765,0.17,1.083c0.114,0.319,0.271,0.588,0.474,0.809c0.201,0.221,0.446,0.39,0.733,0.506
		C229.759,364.263,230.072,364.321,230.413,364.321z"/>
	<path style="fill:#FFFFFF;" d="M246.029,358.68h-1.921l0.274-1.155c-0.611,0-1.133,0.156-1.562,0.468
		c-0.429,0.312-0.782,0.724-1.06,1.235l-1.137,4.921h1.629l-0.369,1.628h-3.549l1.893-8.177h-1.875l0.389-1.628h3.701l-0.312,1.344
		c0.176-0.202,0.365-0.389,0.567-0.563c0.202-0.173,0.415-0.323,0.64-0.45c0.223-0.126,0.457-0.225,0.699-0.298
		c0.243-0.072,0.488-0.109,0.734-0.109c0.227,0,0.422,0.003,0.586,0.009c0.164,0.006,0.34,0.018,0.525,0.033
		c0.187,0.016,0.443,0.046,0.771,0.09L246.029,358.68z"/>
	<path style="fill:#FFFFFF;" d="M254.349,365.116c-0.423,0.284-0.847,0.494-1.272,0.629s-0.866,0.204-1.32,0.204
		c-0.537,0-1.038-0.104-1.506-0.312c-0.467-0.208-0.871-0.492-1.215-0.852c-0.345-0.36-0.615-0.784-0.814-1.273
		c-0.199-0.489-0.299-1.014-0.299-1.576c0-0.915,0.162-1.754,0.483-2.517c0.321-0.764,0.759-1.42,1.311-1.969
		s1.196-0.975,1.931-1.278c0.735-0.303,1.516-0.454,2.343-0.454c0.474,0,0.918,0.071,1.335,0.213
		c0.416,0.142,0.756,0.327,1.021,0.554l0.123-0.511h1.902l-1.893,8.177h1.523l-0.369,1.628h-3.436L254.349,365.116z M252.2,364.321
		c0.233,0,0.472-0.028,0.715-0.085c0.243-0.057,0.475-0.129,0.695-0.218c0.222-0.088,0.429-0.191,0.625-0.308
		c0.195-0.117,0.369-0.238,0.521-0.364l1.221-5.244c-0.164-0.208-0.42-0.386-0.767-0.535c-0.347-0.148-0.802-0.222-1.362-0.222
		c-0.486,0-0.966,0.099-1.439,0.298c-0.473,0.199-0.896,0.486-1.268,0.861c-0.373,0.375-0.676,0.836-0.908,1.382
		c-0.234,0.546-0.351,1.166-0.351,1.86c0,0.404,0.057,0.765,0.17,1.083c0.114,0.319,0.271,0.588,0.474,0.809
		c0.201,0.221,0.446,0.39,0.733,0.506C251.546,364.263,251.859,364.321,252.2,364.321z"/>
	<path style="fill:#FFFFFF;" d="M261.201,355.973h3.719l-0.132,0.644c0.435-0.303,0.87-0.528,1.306-0.677
		c0.436-0.148,0.891-0.222,1.363-0.222c0.536,0,1.039,0.104,1.51,0.312c0.47,0.208,0.877,0.492,1.221,0.852
		c0.344,0.359,0.615,0.784,0.814,1.273c0.198,0.489,0.297,1.014,0.297,1.576c0,0.915-0.16,1.754-0.482,2.518
		c-0.321,0.764-0.758,1.42-1.311,1.969s-1.195,0.975-1.931,1.278c-0.735,0.303-1.517,0.454-2.343,0.454
		c-0.479,0-0.929-0.071-1.348-0.213c-0.42-0.142-0.766-0.327-1.037-0.554l-0.785,3.426h1.618l-0.369,1.627h-3.568l2.944-12.635
		h-1.875L261.201,355.973z M267.012,357.346c-0.441,0-0.888,0.09-1.339,0.27s-0.866,0.424-1.245,0.733l-1.201,5.196
		c0.164,0.208,0.418,0.39,0.762,0.544c0.344,0.155,0.803,0.232,1.377,0.232c0.486,0,0.965-0.1,1.438-0.298s0.897-0.485,1.272-0.861
		c0.376-0.375,0.681-0.834,0.914-1.377c0.233-0.542,0.35-1.161,0.35-1.855c0-0.404-0.057-0.765-0.17-1.083s-0.273-0.588-0.479-0.809
		c-0.205-0.221-0.449-0.391-0.732-0.511C267.674,357.406,267.359,357.346,267.012,357.346z"/>
	<path style="fill:#FFFFFF;" d="M280.887,359.711c0.177-0.744,0.119-1.306-0.175-1.685c-0.294-0.378-0.784-0.568-1.472-0.568
		c-0.423,0-0.861,0.092-1.315,0.274c-0.454,0.183-0.89,0.426-1.306,0.729l-1.686,7.316h-1.912l3.01-13.099h-1.893l0.389-1.628h3.805
		l-1.373,5.925c0.461-0.36,0.953-0.647,1.477-0.861s1.063-0.322,1.619-0.322c0.504,0,0.96,0.076,1.367,0.227
		c0.406,0.151,0.738,0.382,0.994,0.691c0.255,0.309,0.426,0.694,0.511,1.155s0.058,0.997-0.081,1.609l-1.078,4.675h1.391
		l-0.369,1.628h-3.312L280.887,359.711z"/>
	<path style="fill:#FFFFFF;" d="M286.291,355.973h3.663l-1.894,8.177h1.572l-0.369,1.628h-3.492l1.893-8.177h-1.761L286.291,355.973
		z M288.1,352.519c0-0.17,0.033-0.331,0.099-0.482c0.066-0.151,0.156-0.282,0.271-0.393c0.113-0.11,0.246-0.199,0.396-0.265
		c0.152-0.066,0.316-0.1,0.492-0.1c0.171,0,0.332,0.033,0.482,0.1c0.152,0.066,0.283,0.154,0.394,0.265
		c0.11,0.111,0.198,0.242,0.265,0.393s0.1,0.312,0.1,0.482s-0.033,0.333-0.1,0.487c-0.066,0.155-0.154,0.291-0.265,0.407
		s-0.241,0.21-0.394,0.279c-0.15,0.069-0.312,0.104-0.482,0.104c-0.176,0-0.34-0.035-0.492-0.104
		c-0.15-0.069-0.283-0.163-0.396-0.279c-0.114-0.117-0.204-0.252-0.271-0.407C288.133,352.852,288.1,352.689,288.1,352.519z"/>
	<path style="fill:#FFFFFF;" d="M294.27,361.207c-0.006,0.088-0.012,0.164-0.019,0.227s-0.009,0.123-0.009,0.18
		c0,0.398,0.064,0.767,0.193,1.107s0.309,0.636,0.539,0.885c0.23,0.249,0.506,0.445,0.824,0.586
		c0.318,0.142,0.667,0.213,1.045,0.213c0.506,0,0.986-0.102,1.443-0.308c0.458-0.205,0.842-0.503,1.15-0.894l1.4,1.022
		c-0.215,0.284-0.47,0.54-0.766,0.767c-0.297,0.227-0.625,0.421-0.984,0.582c-0.36,0.161-0.744,0.284-1.15,0.369
		c-0.407,0.085-0.822,0.128-1.244,0.128c-0.606,0-1.173-0.101-1.699-0.303c-0.527-0.202-0.988-0.496-1.382-0.88
		c-0.395-0.385-0.704-0.856-0.928-1.415c-0.224-0.558-0.336-1.191-0.336-1.897c0-0.814,0.144-1.579,0.431-2.295
		c0.287-0.716,0.685-1.34,1.192-1.874s1.108-0.955,1.804-1.264c0.693-0.309,1.444-0.464,2.252-0.464c0.625,0,1.182,0.106,1.67,0.317
		c0.489,0.211,0.904,0.49,1.245,0.837s0.599,0.748,0.776,1.202c0.176,0.454,0.265,0.921,0.265,1.4c0,0.322-0.018,0.633-0.052,0.933
		c-0.035,0.299-0.078,0.579-0.128,0.837H294.27z M297.771,357.289c-0.379,0-0.733,0.06-1.064,0.18
		c-0.331,0.12-0.633,0.287-0.904,0.501s-0.511,0.467-0.719,0.757c-0.209,0.29-0.379,0.605-0.512,0.946h5.584
		c0.007-0.391-0.045-0.737-0.156-1.037c-0.109-0.299-0.271-0.549-0.482-0.748c-0.211-0.199-0.465-0.349-0.762-0.45
		C298.459,357.339,298.131,357.289,297.771,357.289z"/>
	<path style="fill:#A37B7B;" d="M314.221,365.116c-0.423,0.284-0.847,0.494-1.273,0.629c-0.426,0.136-0.865,0.204-1.32,0.204
		c-0.535,0-1.037-0.104-1.504-0.312c-0.467-0.208-0.873-0.492-1.217-0.852c-0.344-0.36-0.615-0.784-0.813-1.273
		c-0.198-0.489-0.298-1.014-0.298-1.576c0-0.915,0.16-1.754,0.482-2.517c0.322-0.764,0.758-1.42,1.311-1.969
		s1.195-0.975,1.931-1.278s1.517-0.454,2.343-0.454c0.473,0,0.918,0.071,1.334,0.213c0.417,0.142,0.758,0.327,1.022,0.554
		l0.123-0.511h1.902l-1.893,8.177h1.523l-0.369,1.628h-3.436L314.221,365.116z M312.072,364.321c0.233,0,0.472-0.028,0.715-0.085
		c0.242-0.057,0.475-0.129,0.695-0.218s0.43-0.191,0.625-0.308s0.369-0.238,0.521-0.364l1.221-5.244
		c-0.164-0.208-0.419-0.386-0.767-0.535c-0.348-0.148-0.801-0.222-1.363-0.222c-0.485,0-0.965,0.099-1.438,0.298
		c-0.474,0.199-0.896,0.486-1.27,0.861c-0.371,0.375-0.674,0.836-0.908,1.382c-0.233,0.546-0.35,1.166-0.35,1.86
		c0,0.404,0.057,0.765,0.17,1.083c0.113,0.319,0.271,0.588,0.474,0.809c0.202,0.221,0.446,0.39,0.733,0.506
		C311.418,364.263,311.732,364.321,312.072,364.321z"/>
	<path style="fill:#A37B7B;" d="M327.263,355.973h3.181l-1.894,8.177h1.467l-0.368,1.628h-3.295l0.228-0.994
		c-0.202,0.208-0.419,0.386-0.653,0.535c-0.232,0.148-0.471,0.268-0.714,0.359c-0.243,0.092-0.483,0.16-0.72,0.204
		s-0.455,0.066-0.658,0.066c-0.429,0-0.834-0.062-1.215-0.185c-0.383-0.123-0.703-0.304-0.961-0.544
		c-0.158-0.157-0.305-0.342-0.44-0.554c-0.136-0.211-0.241-0.465-0.317-0.762c-0.076-0.296-0.11-0.64-0.104-1.032
		c0.006-0.391,0.068-0.845,0.189-1.363l0.898-3.909h-1.324l0.387-1.628h3.219l-1.164,4.979c-0.277,1.173-0.289,2.035-0.033,2.583
		s0.797,0.824,1.623,0.824c0.365,0,0.689-0.062,0.971-0.185c0.28-0.123,0.535-0.295,0.766-0.516c0.23-0.221,0.425-0.454,0.582-0.7
		l1.25-5.357h-1.287L327.263,355.973z"/>
	<path style="fill:#A37B7B;" d="M333.254,355.973h1.637l0.578-2.347l1.996-0.814l-0.748,3.161h2.064l-0.389,1.628h-2.062
		l-1.25,5.291c-0.031,0.126-0.062,0.254-0.09,0.383s-0.043,0.267-0.043,0.412c0,0.284,0.078,0.484,0.232,0.601
		s0.398,0.175,0.733,0.175c0.359,0,0.792-0.104,1.296-0.312l0.162,1.354c-0.335,0.158-0.656,0.282-0.966,0.374
		c-0.31,0.091-0.653,0.137-1.032,0.137c-0.396,0-0.76-0.049-1.088-0.147s-0.6-0.259-0.814-0.482
		c-0.214-0.224-0.355-0.518-0.426-0.88c-0.069-0.363-0.044-0.809,0.076-1.339l1.363-5.565h-1.619L333.254,355.973z"/>
	<path style="fill:#A37B7B;" d="M339.566,361.529c0-0.542,0.067-1.063,0.203-1.562s0.328-0.965,0.578-1.401
		c0.248-0.436,0.549-0.83,0.898-1.183c0.35-0.353,0.736-0.656,1.16-0.909c0.422-0.252,0.875-0.448,1.357-0.586
		s0.982-0.208,1.5-0.208c0.65,0,1.252,0.115,1.809,0.346c0.555,0.23,1.034,0.546,1.438,0.946c0.404,0.401,0.721,0.871,0.951,1.41
		s0.346,1.119,0.346,1.737c0,0.549-0.069,1.076-0.208,1.581c-0.14,0.505-0.333,0.975-0.582,1.41s-0.548,0.833-0.895,1.192
		c-0.347,0.36-0.733,0.666-1.159,0.918c-0.426,0.252-0.882,0.448-1.367,0.587c-0.486,0.139-0.991,0.208-1.516,0.208
		c-0.656,0-1.258-0.115-1.807-0.346c-0.549-0.23-1.025-0.547-1.43-0.951s-0.718-0.878-0.941-1.424
		C339.678,362.748,339.566,362.16,339.566,361.529z M341.545,361.396c0,0.441,0.064,0.844,0.193,1.207s0.311,0.672,0.545,0.928
		c0.232,0.255,0.514,0.454,0.842,0.596c0.328,0.142,0.688,0.213,1.078,0.213c0.461,0,0.91-0.101,1.35-0.303
		c0.438-0.202,0.824-0.483,1.159-0.843c0.335-0.359,0.604-0.792,0.81-1.296s0.307-1.06,0.307-1.666c0-0.441-0.067-0.839-0.203-1.192
		c-0.136-0.353-0.323-0.656-0.562-0.909c-0.24-0.252-0.522-0.446-0.848-0.582c-0.324-0.135-0.68-0.203-1.064-0.203
		c-0.467,0-0.916,0.099-1.349,0.298s-0.815,0.477-1.149,0.833c-0.335,0.356-0.604,0.784-0.805,1.282
		C341.645,360.257,341.545,360.803,341.545,361.396z"/>
	<path style="fill:#A37B7B;" d="M357.955,365.172c-0.396,0.278-0.806,0.477-1.225,0.597c-0.42,0.12-0.873,0.18-1.359,0.18
		c-0.535,0-1.037-0.104-1.504-0.312c-0.467-0.208-0.873-0.492-1.217-0.852c-0.344-0.36-0.615-0.784-0.813-1.273
		c-0.198-0.489-0.298-1.014-0.298-1.576c0-0.915,0.16-1.754,0.482-2.517c0.322-0.764,0.758-1.42,1.311-1.969
		s1.195-0.975,1.931-1.278s1.517-0.454,2.343-0.454c0.473,0,0.918,0.071,1.334,0.213c0.417,0.142,0.758,0.327,1.022,0.554
		l0.123-0.511h1.921l-2.252,9.691c-0.189,0.82-0.441,1.519-0.758,2.097c-0.314,0.577-0.699,1.049-1.154,1.415
		c-0.454,0.366-0.982,0.634-1.585,0.804s-1.286,0.255-2.05,0.255c-0.347,0-0.706-0.028-1.078-0.085
		c-0.373-0.057-0.736-0.144-1.094-0.26c-0.355-0.117-0.691-0.264-1.008-0.44c-0.315-0.177-0.593-0.385-0.832-0.625l1.221-1.382
		c0.15,0.164,0.334,0.314,0.549,0.45s0.451,0.254,0.709,0.355c0.26,0.101,0.532,0.18,0.819,0.237
		c0.287,0.057,0.579,0.085,0.876,0.085c0.453,0,0.867-0.049,1.239-0.146c0.372-0.098,0.705-0.269,0.999-0.511
		c0.293-0.243,0.549-0.571,0.766-0.984C357.592,366.515,357.785,365.93,357.955,365.172z M355.816,364.321
		c0.492,0,0.953-0.088,1.382-0.265c0.429-0.176,0.823-0.417,1.183-0.719l1.212-5.224c-0.164-0.208-0.419-0.388-0.767-0.54
		s-0.801-0.227-1.363-0.227c-0.485,0-0.965,0.099-1.438,0.298c-0.474,0.199-0.896,0.486-1.27,0.861
		c-0.371,0.375-0.674,0.836-0.908,1.382c-0.233,0.546-0.35,1.166-0.35,1.86c0,0.404,0.057,0.765,0.17,1.083
		c0.113,0.319,0.271,0.588,0.474,0.809c0.202,0.221,0.446,0.39,0.733,0.506C355.162,364.263,355.477,364.321,355.816,364.321z"/>
	<path style="fill:#A37B7B;" d="M365.376,361.207c-0.007,0.088-0.013,0.164-0.019,0.227c-0.007,0.063-0.01,0.123-0.01,0.18
		c0,0.398,0.064,0.767,0.193,1.107c0.13,0.341,0.31,0.636,0.54,0.885c0.229,0.249,0.505,0.445,0.823,0.586
		c0.318,0.142,0.668,0.213,1.046,0.213c0.505,0,0.985-0.102,1.443-0.308c0.458-0.205,0.841-0.503,1.149-0.894l1.401,1.022
		c-0.215,0.284-0.47,0.54-0.767,0.767s-0.625,0.421-0.984,0.582c-0.359,0.161-0.743,0.284-1.15,0.369
		c-0.406,0.085-0.822,0.128-1.244,0.128c-0.605,0-1.172-0.101-1.699-0.303c-0.526-0.202-0.987-0.496-1.381-0.88
		c-0.395-0.385-0.704-0.856-0.928-1.415c-0.225-0.558-0.336-1.191-0.336-1.897c0-0.814,0.143-1.579,0.43-2.295
		c0.287-0.716,0.686-1.34,1.193-1.874s1.108-0.955,1.803-1.264c0.693-0.309,1.445-0.464,2.252-0.464
		c0.625,0,1.182,0.106,1.671,0.317s0.903,0.49,1.245,0.837c0.34,0.347,0.599,0.748,0.775,1.202c0.177,0.454,0.266,0.921,0.266,1.4
		c0,0.322-0.018,0.633-0.053,0.933c-0.035,0.299-0.077,0.579-0.127,0.837H365.376z M368.878,357.289c-0.379,0-0.733,0.06-1.065,0.18
		c-0.33,0.12-0.633,0.287-0.903,0.501c-0.271,0.214-0.511,0.467-0.72,0.757c-0.208,0.29-0.379,0.605-0.511,0.946h5.584
		c0.007-0.391-0.046-0.737-0.156-1.037c-0.11-0.299-0.271-0.549-0.482-0.748s-0.466-0.349-0.763-0.45
		C369.565,357.339,369.237,357.289,368.878,357.289z M368.991,351.799h2.271v0.161l-2.829,2.669h-1.458L368.991,351.799z"/>
	<path style="fill:#A37B7B;" d="M382.516,358.68h-1.921l0.274-1.155c-0.611,0-1.133,0.156-1.562,0.468
		c-0.429,0.312-0.782,0.724-1.06,1.235l-1.137,4.921h1.629l-0.369,1.628h-3.549l1.893-8.177h-1.875l0.389-1.628h3.701l-0.312,1.344
		c0.176-0.202,0.365-0.389,0.567-0.563c0.202-0.173,0.415-0.323,0.64-0.45c0.223-0.126,0.457-0.225,0.699-0.298
		c0.243-0.072,0.488-0.109,0.734-0.109c0.227,0,0.422,0.003,0.586,0.009c0.164,0.006,0.34,0.018,0.525,0.033
		c0.187,0.016,0.443,0.046,0.771,0.09L382.516,358.68z"/>
	<path style="fill:#A37B7B;" d="M386.425,361.207c-0.007,0.088-0.013,0.164-0.019,0.227c-0.007,0.063-0.01,0.123-0.01,0.18
		c0,0.398,0.064,0.767,0.193,1.107c0.13,0.341,0.31,0.636,0.54,0.885c0.229,0.249,0.505,0.445,0.823,0.586
		c0.318,0.142,0.668,0.213,1.046,0.213c0.505,0,0.985-0.102,1.443-0.308c0.458-0.205,0.841-0.503,1.149-0.894l1.401,1.022
		c-0.215,0.284-0.47,0.54-0.767,0.767s-0.625,0.421-0.984,0.582c-0.359,0.161-0.743,0.284-1.15,0.369
		c-0.406,0.085-0.822,0.128-1.244,0.128c-0.605,0-1.172-0.101-1.699-0.303c-0.526-0.202-0.987-0.496-1.381-0.88
		c-0.395-0.385-0.704-0.856-0.928-1.415c-0.225-0.558-0.336-1.191-0.336-1.897c0-0.814,0.143-1.579,0.43-2.295
		c0.287-0.716,0.686-1.34,1.193-1.874s1.108-0.955,1.803-1.264c0.693-0.309,1.445-0.464,2.252-0.464
		c0.625,0,1.182,0.106,1.671,0.317s0.903,0.49,1.245,0.837c0.34,0.347,0.599,0.748,0.775,1.202c0.177,0.454,0.266,0.921,0.266,1.4
		c0,0.322-0.018,0.633-0.053,0.933c-0.035,0.299-0.077,0.579-0.127,0.837H386.425z M389.927,357.289c-0.379,0-0.733,0.06-1.065,0.18
		c-0.33,0.12-0.633,0.287-0.903,0.501c-0.271,0.214-0.511,0.467-0.72,0.757c-0.208,0.29-0.379,0.605-0.511,0.946h5.584
		c0.007-0.391-0.046-0.737-0.156-1.037c-0.11-0.299-0.271-0.549-0.482-0.748s-0.466-0.349-0.763-0.45
		C390.614,357.339,390.286,357.289,389.927,357.289z M390.04,351.799h2.271v0.161l-2.829,2.669h-1.458L390.04,351.799z"/>
	<path style="fill:#A37B7B;" d="M401.441,358.046c-0.092-0.189-0.219-0.349-0.379-0.478c-0.162-0.129-0.35-0.227-0.568-0.293
		c-0.219-0.066-0.453-0.099-0.705-0.099c-0.253,0-0.492,0.03-0.72,0.09s-0.426,0.15-0.597,0.27c-0.17,0.12-0.305,0.265-0.402,0.436
		s-0.146,0.363-0.146,0.577c0,0.252,0.08,0.462,0.242,0.629c0.16,0.167,0.414,0.32,0.762,0.459l1.826,0.653
		c0.557,0.202,0.979,0.516,1.27,0.941c0.289,0.426,0.436,0.942,0.436,1.548c0,0.542-0.1,1.019-0.299,1.429
		c-0.199,0.411-0.475,0.754-0.828,1.032c-0.354,0.278-0.775,0.486-1.264,0.625c-0.49,0.139-1.024,0.208-1.604,0.208
		c-0.354,0-0.69-0.028-1.013-0.085c-0.322-0.057-0.62-0.144-0.895-0.26s-0.515-0.262-0.719-0.435
		c-0.205-0.173-0.365-0.374-0.479-0.601h-1.004l0.389-1.628h1.997c-0.032,0.246,0,0.464,0.095,0.653
		c0.094,0.189,0.23,0.349,0.406,0.478c0.178,0.129,0.387,0.226,0.63,0.289c0.243,0.063,0.5,0.094,0.771,0.094
		c0.271,0,0.525-0.035,0.762-0.104c0.237-0.069,0.443-0.17,0.62-0.303c0.176-0.132,0.316-0.296,0.422-0.492
		c0.104-0.195,0.156-0.419,0.156-0.672c0-0.24-0.086-0.459-0.256-0.658c-0.171-0.199-0.436-0.361-0.795-0.488l-1.742-0.634
		c-0.562-0.221-0.994-0.544-1.297-0.97s-0.454-0.904-0.454-1.434c0-0.467,0.082-0.893,0.246-1.277s0.407-0.716,0.729-0.994
		c0.321-0.277,0.725-0.492,1.211-0.644c0.486-0.151,1.051-0.227,1.693-0.227c0.373,0,0.717,0.037,1.033,0.109
		c0.314,0.073,0.596,0.172,0.842,0.298c0.246,0.126,0.457,0.273,0.635,0.44c0.176,0.167,0.318,0.349,0.426,0.544h1.059l-0.387,1.627
		h-1.959C401.58,358.453,401.531,358.235,401.441,358.046z"/>
</g>
<g>
	<path style="fill:#FFFFFF;" d="M162.934,379.052h3.54l-3.019,13.099h1.628l-0.369,1.628h-3.53l0.142-0.634
		c-0.359,0.246-0.736,0.444-1.131,0.596c-0.395,0.152-0.818,0.228-1.273,0.228c-0.562,0-1.085-0.107-1.571-0.321
		c-0.486-0.215-0.911-0.512-1.273-0.891c-0.363-0.379-0.648-0.824-0.857-1.339c-0.208-0.515-0.312-1.071-0.312-1.671
		c0-0.87,0.154-1.675,0.464-2.413c0.309-0.738,0.73-1.378,1.263-1.921c0.533-0.542,1.155-0.967,1.865-1.273
		c0.709-0.306,1.468-0.459,2.276-0.459c0.505,0,0.975,0.073,1.41,0.218c0.436,0.145,0.814,0.344,1.136,0.596l0.88-3.814h-1.656
		L162.934,379.052z M159.366,392.32c0.397,0,0.809-0.088,1.235-0.265c0.426-0.177,0.812-0.435,1.159-0.776l1.174-5.082
		c-0.234-0.271-0.537-0.481-0.909-0.629c-0.373-0.148-0.827-0.222-1.363-0.222c-0.473,0-0.939,0.099-1.396,0.298
		c-0.458,0.199-0.863,0.481-1.216,0.847c-0.354,0.367-0.639,0.812-0.856,1.335c-0.218,0.524-0.327,1.107-0.327,1.751
		c0,0.423,0.062,0.803,0.185,1.141s0.295,0.625,0.516,0.861c0.221,0.236,0.484,0.42,0.791,0.549S159,392.32,159.366,392.32z"/>
	<path style="fill:#FFFFFF;" d="M169.37,389.207c-0.006,0.088-0.013,0.164-0.019,0.227c-0.006,0.063-0.009,0.123-0.009,0.18
		c0,0.398,0.064,0.768,0.194,1.107c0.129,0.342,0.309,0.637,0.54,0.886c0.23,0.249,0.505,0.444,0.823,0.587
		c0.319,0.142,0.667,0.213,1.046,0.213c0.505,0,0.986-0.103,1.443-0.309c0.458-0.204,0.841-0.502,1.15-0.894l1.401,1.022
		c-0.215,0.283-0.47,0.539-0.767,0.766c-0.297,0.228-0.625,0.422-0.984,0.582c-0.36,0.162-0.743,0.285-1.15,0.369
		c-0.407,0.086-0.822,0.129-1.245,0.129c-0.606,0-1.172-0.102-1.699-0.303c-0.527-0.203-0.988-0.496-1.382-0.881
		c-0.395-0.385-0.704-0.856-0.928-1.415c-0.224-0.558-0.336-1.19-0.336-1.897c0-0.814,0.144-1.579,0.431-2.295
		c0.287-0.717,0.685-1.341,1.192-1.874s1.109-0.955,1.803-1.264c0.694-0.309,1.445-0.464,2.252-0.464
		c0.625,0,1.181,0.106,1.67,0.317c0.489,0.211,0.904,0.49,1.245,0.837s0.599,0.748,0.776,1.203c0.177,0.453,0.265,0.92,0.265,1.4
		c0,0.321-0.018,0.633-0.052,0.932c-0.035,0.3-0.077,0.579-0.127,0.838H169.37z M172.872,385.289c-0.379,0-0.734,0.06-1.065,0.18
		c-0.331,0.12-0.633,0.287-0.904,0.501c-0.271,0.214-0.511,0.467-0.719,0.757c-0.208,0.29-0.379,0.605-0.511,0.946h5.584
		c0.006-0.391-0.046-0.736-0.156-1.037c-0.11-0.299-0.271-0.549-0.482-0.747c-0.211-0.199-0.465-0.349-0.762-0.45
		C173.559,385.339,173.231,385.289,172.872,385.289z"/>
	<path style="fill:#FFFFFF;" d="M184.385,386.046c-0.092-0.189-0.218-0.349-0.379-0.478c-0.161-0.129-0.35-0.227-0.568-0.293
		c-0.218-0.066-0.453-0.099-0.705-0.099s-0.492,0.03-0.719,0.09s-0.426,0.15-0.596,0.27c-0.17,0.12-0.305,0.265-0.402,0.436
		s-0.146,0.363-0.146,0.577c0,0.253,0.08,0.463,0.241,0.63c0.161,0.167,0.415,0.32,0.762,0.459l1.827,0.653
		c0.555,0.201,0.978,0.516,1.269,0.941c0.29,0.426,0.435,0.941,0.435,1.548c0,0.542-0.099,1.019-0.298,1.429
		s-0.475,0.754-0.828,1.031c-0.354,0.278-0.775,0.486-1.264,0.625c-0.489,0.139-1.024,0.209-1.604,0.209
		c-0.354,0-0.691-0.029-1.013-0.086s-0.62-0.144-0.895-0.26c-0.274-0.117-0.515-0.262-0.719-0.436
		c-0.205-0.174-0.365-0.374-0.478-0.602h-1.003l0.388-1.627h1.997c-0.032,0.246,0,0.463,0.095,0.652
		c0.094,0.189,0.23,0.35,0.407,0.479s0.386,0.225,0.629,0.289c0.243,0.062,0.5,0.094,0.771,0.094c0.271,0,0.525-0.035,0.762-0.104
		c0.237-0.07,0.443-0.171,0.62-0.303c0.176-0.133,0.317-0.297,0.421-0.492c0.104-0.195,0.156-0.42,0.156-0.672
		c0-0.24-0.085-0.459-0.255-0.658s-0.436-0.361-0.795-0.488l-1.742-0.633c-0.562-0.221-0.994-0.545-1.296-0.971
		c-0.303-0.426-0.455-0.904-0.455-1.434c0-0.467,0.082-0.893,0.246-1.278s0.407-0.716,0.729-0.994
		c0.322-0.277,0.726-0.492,1.211-0.644c0.486-0.151,1.05-0.227,1.694-0.227c0.373,0,0.716,0.037,1.032,0.109
		c0.315,0.073,0.596,0.172,0.842,0.298c0.246,0.126,0.458,0.273,0.634,0.44c0.176,0.167,0.318,0.349,0.426,0.544h1.06l-0.388,1.628
		h-1.959C184.525,386.453,184.477,386.235,184.385,386.046z"/>
	<path style="fill:#FFFFFF;" d="M198.898,393.115c-0.423,0.285-0.847,0.494-1.273,0.63c-0.426,0.136-0.866,0.204-1.32,0.204
		c-0.536,0-1.038-0.104-1.505-0.312c-0.467-0.209-0.872-0.492-1.216-0.852c-0.344-0.36-0.615-0.785-0.814-1.273
		c-0.199-0.489-0.298-1.014-0.298-1.576c0-0.914,0.161-1.754,0.483-2.518s0.758-1.419,1.311-1.968s1.196-0.975,1.931-1.278
		c0.735-0.303,1.516-0.454,2.343-0.454c0.473,0,0.918,0.071,1.334,0.213s0.757,0.327,1.022,0.554l0.123-0.511h1.902l-1.893,8.177
		h1.523l-0.369,1.628h-3.436L198.898,393.115z M196.75,392.32c0.233,0,0.472-0.027,0.715-0.084c0.243-0.058,0.475-0.13,0.695-0.219
		c0.221-0.088,0.429-0.19,0.625-0.307c0.195-0.117,0.369-0.238,0.521-0.365l1.221-5.243c-0.164-0.208-0.419-0.386-0.767-0.535
		c-0.347-0.148-0.801-0.222-1.363-0.222c-0.486,0-0.965,0.099-1.438,0.298s-0.896,0.485-1.269,0.861
		c-0.372,0.376-0.675,0.836-0.908,1.382c-0.234,0.546-0.35,1.166-0.35,1.859c0,0.404,0.057,0.766,0.17,1.084
		c0.114,0.318,0.271,0.588,0.474,0.809c0.202,0.222,0.446,0.391,0.733,0.507C196.096,392.263,196.41,392.32,196.75,392.32z"/>
	<path style="fill:#FFFFFF;" d="M206.46,379.052h3.805l-3.029,13.099h1.627l-0.369,1.628h-3.54l3.01-13.099h-1.893L206.46,379.052z"
		/>
	<path style="fill:#FFFFFF;" d="M211.902,383.973h1.638l0.577-2.347l1.997-0.814l-0.748,3.161h2.063l-0.389,1.628h-2.062
		l-1.25,5.291c-0.031,0.126-0.061,0.254-0.09,0.384c-0.027,0.129-0.042,0.266-0.042,0.411c0,0.284,0.077,0.484,0.231,0.601
		c0.154,0.117,0.399,0.176,0.734,0.176c0.359,0,0.791-0.104,1.296-0.312l0.161,1.354c-0.334,0.158-0.656,0.282-0.965,0.374
		c-0.31,0.091-0.654,0.138-1.032,0.138c-0.397,0-0.761-0.05-1.089-0.147s-0.6-0.259-0.813-0.482s-0.356-0.518-0.426-0.88
		c-0.069-0.363-0.044-0.81,0.075-1.34l1.363-5.565h-1.618L211.902,383.973z"/>
	<path style="fill:#FFFFFF;" d="M220.516,389.207c-0.007,0.088-0.014,0.164-0.02,0.227c-0.006,0.063-0.01,0.123-0.01,0.18
		c0,0.398,0.064,0.768,0.194,1.107c0.13,0.342,0.31,0.637,0.54,0.886c0.229,0.249,0.504,0.444,0.822,0.587
		c0.319,0.142,0.668,0.213,1.047,0.213c0.504,0,0.985-0.103,1.443-0.309c0.457-0.204,0.84-0.502,1.149-0.894l1.401,1.022
		c-0.215,0.283-0.471,0.539-0.768,0.766c-0.297,0.228-0.625,0.422-0.984,0.582c-0.359,0.162-0.742,0.285-1.149,0.369
		c-0.407,0.086-0.822,0.129-1.245,0.129c-0.605,0-1.172-0.102-1.698-0.303c-0.526-0.203-0.987-0.496-1.382-0.881
		s-0.703-0.856-0.928-1.415c-0.225-0.558-0.336-1.19-0.336-1.897c0-0.814,0.144-1.579,0.431-2.295
		c0.287-0.717,0.685-1.341,1.192-1.874s1.109-0.955,1.803-1.264c0.694-0.309,1.445-0.464,2.253-0.464
		c0.624,0,1.181,0.106,1.671,0.317c0.488,0.211,0.903,0.49,1.244,0.837s0.6,0.748,0.775,1.203c0.178,0.453,0.266,0.92,0.266,1.4
		c0,0.321-0.018,0.633-0.053,0.932c-0.034,0.3-0.076,0.579-0.127,0.838H220.516z M224.018,385.289c-0.379,0-0.734,0.06-1.065,0.18
		c-0.331,0.12-0.633,0.287-0.903,0.501c-0.271,0.214-0.512,0.467-0.72,0.757s-0.379,0.605-0.511,0.946h5.584
		c0.006-0.391-0.047-0.736-0.156-1.037c-0.111-0.299-0.271-0.549-0.482-0.747c-0.212-0.199-0.466-0.349-0.763-0.45
		C224.705,385.339,224.377,385.289,224.018,385.289z"/>
	<path style="fill:#FFFFFF;" d="M237.655,386.68h-1.921l0.273-1.154c-0.611,0-1.132,0.156-1.561,0.468
		c-0.43,0.313-0.783,0.724-1.061,1.235l-1.136,4.922h1.628l-0.369,1.628h-3.549l1.893-8.177h-1.874l0.388-1.628h3.701l-0.312,1.344
		c0.177-0.202,0.365-0.389,0.568-0.563c0.201-0.173,0.414-0.323,0.639-0.45c0.224-0.126,0.457-0.225,0.7-0.298
		c0.243-0.072,0.487-0.109,0.733-0.109c0.227,0,0.423,0.003,0.587,0.009c0.164,0.006,0.339,0.018,0.525,0.033
		c0.187,0.016,0.442,0.046,0.771,0.09L237.655,386.68z"/>
	<path style="fill:#FFFFFF;" d="M240.334,383.973h3.7l-0.237,1.003c0.449-0.373,0.939-0.663,1.473-0.871
		c0.533-0.208,1.096-0.312,1.689-0.312c0.504,0,0.961,0.076,1.367,0.227c0.407,0.151,0.74,0.382,0.998,0.691
		c0.26,0.309,0.43,0.694,0.512,1.155c0.082,0.46,0.053,0.997-0.086,1.608l-1.078,4.676h1.391l-0.369,1.628h-3.312l1.41-6.067
		c0.178-0.744,0.12-1.305-0.17-1.684s-0.782-0.568-1.477-0.568c-0.492,0-0.959,0.106-1.4,0.317s-0.861,0.507-1.259,0.885
		l-1.638,7.117h-1.921l1.893-8.177h-1.874L240.334,383.973z"/>
	<path style="fill:#FFFFFF;" d="M258.922,393.115c-0.424,0.285-0.848,0.494-1.273,0.63s-0.865,0.204-1.32,0.204
		c-0.536,0-1.037-0.104-1.505-0.312c-0.467-0.209-0.872-0.492-1.216-0.852c-0.344-0.36-0.615-0.785-0.814-1.273
		c-0.198-0.489-0.298-1.014-0.298-1.576c0-0.914,0.161-1.754,0.483-2.518c0.321-0.764,0.758-1.419,1.311-1.968
		c0.552-0.549,1.195-0.975,1.93-1.278c0.736-0.303,1.517-0.454,2.344-0.454c0.473,0,0.918,0.071,1.334,0.213
		s0.757,0.327,1.021,0.554l0.123-0.511h1.902l-1.893,8.177h1.523l-0.369,1.628h-3.436L258.922,393.115z M256.773,392.32
		c0.232,0,0.471-0.027,0.715-0.084c0.242-0.058,0.475-0.13,0.695-0.219c0.221-0.088,0.429-0.19,0.625-0.307
		c0.195-0.117,0.369-0.238,0.52-0.365l1.221-5.243c-0.164-0.208-0.419-0.386-0.766-0.535c-0.348-0.148-0.802-0.222-1.363-0.222
		c-0.486,0-0.965,0.099-1.438,0.298s-0.896,0.485-1.269,0.861c-0.372,0.376-0.675,0.836-0.908,1.382
		c-0.234,0.546-0.35,1.166-0.35,1.859c0,0.404,0.057,0.766,0.17,1.084s0.271,0.588,0.473,0.809c0.202,0.222,0.447,0.391,0.734,0.507
		C256.119,392.263,256.433,392.32,256.773,392.32z"/>
	<path style="fill:#FFFFFF;" d="M265.745,383.973h1.638l0.577-2.347l1.997-0.814l-0.748,3.161h2.063l-0.388,1.628h-2.063
		l-1.249,5.291c-0.032,0.126-0.062,0.254-0.09,0.384c-0.029,0.129-0.043,0.266-0.043,0.411c0,0.284,0.077,0.484,0.232,0.601
		c0.154,0.117,0.398,0.176,0.732,0.176c0.359,0,0.792-0.104,1.297-0.312l0.161,1.354c-0.335,0.158-0.656,0.282-0.966,0.374
		c-0.309,0.091-0.652,0.138-1.031,0.138c-0.397,0-0.76-0.05-1.088-0.147s-0.6-0.259-0.814-0.482s-0.356-0.518-0.426-0.88
		c-0.07-0.363-0.045-0.81,0.076-1.34l1.362-5.565h-1.618L265.745,383.973z"/>
	<path style="fill:#FFFFFF;" d="M273.241,383.973h3.663l-1.894,8.177h1.571l-0.369,1.628h-3.492l1.893-8.177h-1.76L273.241,383.973z
		 M275.049,380.519c0-0.17,0.033-0.331,0.1-0.482s0.156-0.282,0.27-0.393c0.113-0.11,0.246-0.199,0.397-0.265
		c0.151-0.066,0.315-0.1,0.492-0.1c0.171,0,0.331,0.033,0.482,0.1c0.151,0.066,0.282,0.154,0.394,0.265
		c0.109,0.111,0.198,0.242,0.264,0.393c0.066,0.151,0.1,0.312,0.1,0.482s-0.033,0.333-0.1,0.487
		c-0.065,0.155-0.154,0.291-0.264,0.407c-0.111,0.117-0.242,0.21-0.394,0.279s-0.312,0.104-0.482,0.104
		c-0.177,0-0.341-0.035-0.492-0.104s-0.284-0.163-0.397-0.279s-0.203-0.252-0.27-0.407
		C275.082,380.852,275.049,380.689,275.049,380.519z"/>
	<path style="fill:#FFFFFF;" d="M279.488,383.973h3.586l-0.388,1.628h-0.747l0.586,6.047l3.853-6.047h-0.796l0.389-1.628h3.578
		l-0.389,1.628h-0.748l-5.621,8.329h-1.666l-1.098-8.329h-0.918L279.488,383.973z"/>
	<path style="fill:#FFFFFF;" d="M292.151,389.207c-0.007,0.088-0.013,0.164-0.019,0.227c-0.007,0.063-0.01,0.123-0.01,0.18
		c0,0.398,0.064,0.768,0.193,1.107c0.13,0.342,0.31,0.637,0.54,0.886c0.229,0.249,0.505,0.444,0.823,0.587
		c0.318,0.142,0.668,0.213,1.046,0.213c0.505,0,0.985-0.103,1.443-0.309c0.458-0.204,0.841-0.502,1.149-0.894l1.401,1.022
		c-0.215,0.283-0.47,0.539-0.767,0.766c-0.297,0.228-0.625,0.422-0.984,0.582c-0.359,0.162-0.743,0.285-1.15,0.369
		c-0.406,0.086-0.822,0.129-1.244,0.129c-0.605,0-1.172-0.102-1.699-0.303c-0.526-0.203-0.987-0.496-1.381-0.881
		c-0.395-0.385-0.704-0.856-0.928-1.415c-0.225-0.558-0.336-1.19-0.336-1.897c0-0.814,0.143-1.579,0.43-2.295
		c0.287-0.717,0.686-1.341,1.193-1.874s1.108-0.955,1.803-1.264c0.693-0.309,1.445-0.464,2.252-0.464
		c0.625,0,1.182,0.106,1.671,0.317s0.903,0.49,1.245,0.837c0.34,0.347,0.599,0.748,0.775,1.203c0.177,0.453,0.266,0.92,0.266,1.4
		c0,0.321-0.018,0.633-0.053,0.932c-0.035,0.3-0.077,0.579-0.127,0.838H292.151z M295.653,385.289c-0.379,0-0.733,0.06-1.065,0.18
		c-0.33,0.12-0.633,0.287-0.903,0.501c-0.271,0.214-0.511,0.467-0.72,0.757c-0.208,0.29-0.379,0.605-0.511,0.946h5.584
		c0.007-0.391-0.046-0.736-0.156-1.037c-0.11-0.299-0.271-0.549-0.482-0.747c-0.212-0.199-0.466-0.349-0.763-0.45
		C296.341,385.339,296.013,385.289,295.653,385.289z"/>
	<path style="fill:#FFFFFF;" d="M307.167,386.046c-0.092-0.189-0.218-0.349-0.379-0.478s-0.351-0.227-0.567-0.293
		c-0.219-0.066-0.453-0.099-0.705-0.099c-0.253,0-0.492,0.03-0.72,0.09s-0.426,0.15-0.597,0.27c-0.17,0.12-0.305,0.265-0.402,0.436
		s-0.146,0.363-0.146,0.577c0,0.253,0.08,0.463,0.242,0.63c0.16,0.167,0.414,0.32,0.762,0.459l1.826,0.653
		c0.555,0.201,0.979,0.516,1.269,0.941s0.435,0.941,0.435,1.548c0,0.542-0.099,1.019-0.297,1.429
		c-0.199,0.41-0.476,0.754-0.828,1.031c-0.354,0.278-0.775,0.486-1.264,0.625c-0.49,0.139-1.024,0.209-1.604,0.209
		c-0.354,0-0.69-0.029-1.013-0.086s-0.62-0.144-0.895-0.26c-0.274-0.117-0.515-0.262-0.719-0.436
		c-0.205-0.174-0.365-0.374-0.479-0.602h-1.004l0.389-1.627h1.997c-0.032,0.246,0,0.463,0.095,0.652
		c0.094,0.189,0.23,0.35,0.406,0.479c0.178,0.129,0.387,0.225,0.63,0.289c0.243,0.062,0.5,0.094,0.771,0.094
		c0.271,0,0.525-0.035,0.762-0.104c0.237-0.07,0.443-0.171,0.62-0.303c0.176-0.133,0.316-0.297,0.421-0.492s0.156-0.42,0.156-0.672
		c0-0.24-0.085-0.459-0.255-0.658c-0.171-0.199-0.436-0.361-0.795-0.488l-1.742-0.633c-0.562-0.221-0.994-0.545-1.297-0.971
		s-0.454-0.904-0.454-1.434c0-0.467,0.082-0.893,0.246-1.278s0.407-0.716,0.729-0.994c0.321-0.277,0.725-0.492,1.211-0.644
		c0.486-0.151,1.051-0.227,1.693-0.227c0.373,0,0.717,0.037,1.032,0.109c0.315,0.073,0.597,0.172,0.843,0.298
		c0.246,0.126,0.457,0.273,0.634,0.44c0.177,0.167,0.318,0.349,0.426,0.544h1.06l-0.388,1.628h-1.959
		C307.307,386.453,307.258,386.235,307.167,386.046z"/>
</g>
<g>
	<g>
		<path style="fill:#FFFFFF;" d="M142.665,254.684c-0.721-0.541-1.502-0.954-2.343-1.239c-0.841-0.286-1.726-0.448-2.652-0.485
			c-0.928-0.038-1.865,0.041-2.813,0.237c-1.213,0.251-2.443,0.833-3.69,1.747c-1.248,0.913-2.336,2.099-3.264,3.556
			c-0.929,1.457-1.596,3.146-2.002,5.069c-0.406,1.924-0.375,4.02,0.095,6.291c0.342,1.653,0.887,3.064,1.635,4.23
			c0.747,1.168,1.617,2.097,2.611,2.788c0.994,0.691,2.075,1.14,3.244,1.346c1.169,0.206,2.36,0.184,3.573-0.067
			c0.881-0.182,1.693-0.425,2.435-0.728c0.742-0.302,1.425-0.697,2.049-1.183c0.624-0.485,1.209-1.071,1.756-1.76
			c0.547-0.688,1.056-1.506,1.526-2.455l5.541,2.612c-0.609,1.391-1.366,2.622-2.27,3.694c-0.905,1.072-1.898,1.997-2.978,2.771
			c-1.081,0.777-2.232,1.41-3.451,1.904c-1.22,0.494-2.446,0.869-3.681,1.124c-2.249,0.466-4.41,0.494-6.483,0.083
			c-2.074-0.41-3.946-1.177-5.615-2.303c-1.67-1.125-3.094-2.561-4.271-4.306c-1.177-1.744-1.994-3.719-2.45-5.924
			c-0.62-2.997-0.627-5.864-0.021-8.599c0.606-2.734,1.637-5.194,3.093-7.382c1.455-2.186,3.231-4.019,5.327-5.5
			c2.096-1.479,4.323-2.463,6.682-2.951c1.102-0.228,2.226-0.352,3.372-0.37c1.146-0.019,2.272,0.093,3.38,0.334
			c1.107,0.243,2.173,0.614,3.196,1.115c1.023,0.5,1.983,1.142,2.881,1.921l4.133-0.855l0.251,5.878l-6.911,1.43
			C144.014,255.899,143.386,255.223,142.665,254.684z"/>
		<path style="fill:#FFFFFF;" d="M156.036,264.053c-0.392-1.896-0.532-3.763-0.417-5.603c0.112-1.839,0.447-3.609,1.003-5.311
			c0.556-1.701,1.318-3.295,2.286-4.784c0.968-1.487,2.099-2.825,3.394-4.012c1.294-1.188,2.735-2.198,4.321-3.032
			c1.586-0.834,3.283-1.438,5.09-1.812c2.271-0.47,4.458-0.503,6.565-0.101c2.106,0.404,4.01,1.159,5.711,2.267
			c1.701,1.107,3.147,2.521,4.343,4.239c1.195,1.718,2.016,3.658,2.463,5.818c0.397,1.918,0.535,3.809,0.416,5.673
			c-0.121,1.864-0.458,3.646-1.015,5.348c-0.556,1.702-1.31,3.306-2.262,4.814c-0.953,1.507-2.081,2.855-3.387,4.045
			s-2.757,2.203-4.354,3.04c-1.597,0.836-3.311,1.443-5.141,1.822c-2.293,0.475-4.48,0.508-6.565,0.1
			c-2.084-0.407-3.979-1.17-5.681-2.29c-1.703-1.118-3.143-2.55-4.32-4.295C157.31,268.233,156.492,266.258,156.036,264.053z
			 M162.851,262.16c0.319,1.544,0.837,2.902,1.551,4.076c0.714,1.174,1.571,2.123,2.572,2.847c1,0.724,2.125,1.215,3.375,1.474
			c1.249,0.259,2.556,0.247,3.923-0.036c1.608-0.333,3.106-1.011,4.493-2.033c1.386-1.023,2.533-2.284,3.442-3.782
			c0.908-1.499,1.538-3.203,1.89-5.115c0.351-1.912,0.308-3.927-0.13-6.043c-0.319-1.542-0.844-2.881-1.573-4.019
			c-0.729-1.135-1.604-2.058-2.625-2.767c-1.021-0.708-2.147-1.182-3.38-1.422c-1.234-0.238-2.522-0.219-3.867,0.059
			c-1.631,0.338-3.13,1.011-4.497,2.018c-1.366,1.007-2.504,2.254-3.415,3.742c-0.911,1.487-1.539,3.174-1.883,5.061
			C162.38,258.108,162.422,260.089,162.851,262.16z"/>
		<path style="fill:#FFFFFF;" d="M196.592,235.417l12.93-2.676l-0.101,3.676c1.296-1.624,2.799-2.992,4.512-4.106
			c1.712-1.113,3.604-1.884,5.677-2.312c1.764-0.365,3.41-0.43,4.942-0.195c1.531,0.234,2.86,0.799,3.987,1.691
			c1.128,0.894,2.001,2.115,2.621,3.666c0.619,1.55,0.908,3.443,0.866,5.683l-0.389,17.115l4.86-1.006l-0.112,5.955l-11.573,2.396
			l0.54-22.216c0.078-2.728-0.526-4.649-1.813-5.762c-1.288-1.113-3.145-1.417-5.569-0.916c-1.72,0.355-3.274,1.062-4.665,2.12
			c-1.39,1.059-2.643,2.392-3.757,4.002l-0.574,26.051l-6.712,1.389l0.7-29.939l-6.547,1.355L196.592,235.417z"/>
		<path style="fill:#FFFFFF;" d="M266.269,229.1c-0.722-0.542-1.502-0.954-2.343-1.239c-0.841-0.287-1.725-0.449-2.652-0.486
			c-0.928-0.038-1.865,0.041-2.813,0.237c-1.212,0.251-2.442,0.833-3.689,1.747c-1.248,0.913-2.337,2.099-3.265,3.556
			c-0.928,1.458-1.596,3.146-2.002,5.07c-0.407,1.923-0.375,4.02,0.096,6.29c0.342,1.653,0.886,3.064,1.634,4.23
			c0.747,1.168,1.617,2.097,2.611,2.788c0.993,0.692,2.075,1.14,3.244,1.346s2.359,0.184,3.572-0.067
			c0.881-0.183,1.693-0.425,2.436-0.729c0.741-0.302,1.425-0.697,2.048-1.183c0.624-0.485,1.21-1.071,1.757-1.76
			c0.547-0.688,1.056-1.506,1.526-2.455l5.541,2.612c-0.608,1.391-1.365,2.622-2.27,3.694c-0.905,1.072-1.897,1.997-2.979,2.771
			c-1.081,0.777-2.231,1.41-3.45,1.904c-1.221,0.494-2.447,0.869-3.682,1.125c-2.249,0.465-4.41,0.493-6.483,0.083
			s-3.945-1.177-5.614-2.303c-1.67-1.125-3.094-2.561-4.271-4.306c-1.178-1.744-1.994-3.719-2.45-5.924
			c-0.621-2.997-0.628-5.863-0.022-8.599c0.607-2.735,1.638-5.194,3.094-7.382c1.455-2.186,3.23-4.019,5.327-5.5
			c2.096-1.479,4.323-2.463,6.682-2.951c1.103-0.228,2.227-0.352,3.372-0.37c1.146-0.019,2.272,0.093,3.38,0.334
			c1.107,0.243,2.173,0.614,3.196,1.115c1.023,0.5,1.983,1.142,2.881,1.921l4.133-0.855l0.252,5.878l-6.911,1.431
			C267.617,230.315,266.989,229.639,266.269,229.1z"/>
		<path style="fill:#FFFFFF;" d="M306.777,222.472l-6.713,1.39l0.125-4.232c-2.139,0.443-3.845,1.364-5.118,2.765
			c-1.273,1.401-2.209,3.096-2.81,5.082l-0.409,18.017l5.688-1.177l-0.112,5.955l-12.4,2.566l0.699-29.939l-6.547,1.355l0.179-5.968
			l12.93-2.676l-0.12,4.921c0.472-0.832,0.997-1.625,1.577-2.377c0.58-0.753,1.216-1.429,1.907-2.034
			c0.691-0.602,1.435-1.119,2.23-1.547c0.797-0.43,1.625-0.733,2.484-0.911c0.794-0.165,1.479-0.294,2.058-0.392
			c0.577-0.096,1.197-0.184,1.858-0.264c0.661-0.079,1.582-0.161,2.76-0.244L306.777,222.472z"/>
		<path style="fill:#FFFFFF;" d="M326.83,203.563l-11.421-7.36l-0.116-0.562l8.2-1.697l8.132,8.627L326.83,203.563z
			 M322.262,228.475c0.041,0.314,0.074,0.583,0.098,0.808c0.023,0.225,0.057,0.437,0.098,0.636c0.287,1.388,0.779,2.63,1.479,3.728
			c0.697,1.097,1.539,1.997,2.524,2.701c0.984,0.706,2.085,1.189,3.302,1.455c1.215,0.266,2.484,0.262,3.808-0.012
			c1.763-0.365,3.37-1.07,4.82-2.119c1.449-1.046,2.573-2.366,3.37-3.956l5.634,2.557c-0.545,1.148-1.253,2.225-2.124,3.233
			c-0.872,1.008-1.878,1.923-3.019,2.746c-1.14,0.821-2.39,1.529-3.75,2.12c-1.36,0.592-2.779,1.041-4.256,1.347
			c-2.116,0.438-4.169,0.495-6.155,0.17c-1.986-0.323-3.809-1.016-5.464-2.075c-1.656-1.06-3.077-2.484-4.264-4.273
			c-1.187-1.788-2.035-3.917-2.546-6.387c-0.589-2.843-0.641-5.62-0.155-8.33c0.484-2.708,1.422-5.179,2.811-7.408
			c1.389-2.23,3.184-4.137,5.386-5.72c2.201-1.581,4.713-2.664,7.534-3.248c2.183-0.452,4.205-0.485,6.066-0.101
			c1.86,0.386,3.513,1.061,4.954,2.027s2.635,2.178,3.58,3.638c0.945,1.459,1.592,3.027,1.938,4.703
			c0.233,1.123,0.397,2.223,0.493,3.294c0.095,1.072,0.148,2.079,0.158,3.018L322.262,228.475z M331.663,212.253
			c-1.323,0.273-2.52,0.74-3.59,1.397c-1.071,0.659-2.003,1.462-2.796,2.407c-0.793,0.946-1.447,2-1.965,3.165
			c-0.518,1.165-0.885,2.391-1.102,3.677l19.51-4.038c-0.262-1.372-0.693-2.541-1.295-3.508c-0.603-0.967-1.346-1.722-2.228-2.263
			c-0.883-0.542-1.878-0.881-2.986-1.02C334.102,211.932,332.919,211.993,331.663,212.253z"/>
		<path style="fill:#FFFFFF;" d="M352.833,203.077l5.721-1.184l0.32-8.618l6.388-4.288l-0.326,11.585l7.208-1.492l-0.179,5.968
			l-7.208,1.492l-0.539,19.389c-0.019,0.463-0.03,0.931-0.037,1.404c-0.005,0.473,0.045,0.961,0.149,1.468
			c0.205,0.993,0.62,1.638,1.244,1.933c0.625,0.296,1.521,0.323,2.689,0.081c1.258-0.26,2.691-0.937,4.305-2.028l1.541,4.612
			c-1.055,0.793-2.088,1.46-3.103,2.003s-2.183,0.952-3.505,1.226c-1.389,0.288-2.692,0.379-3.909,0.274s-2.281-0.47-3.192-1.098
			c-0.912-0.627-1.62-1.549-2.125-2.768c-0.505-1.216-0.739-2.794-0.703-4.733l0.736-20.429l-5.654,1.17L352.833,203.077z"/>
		<path style="fill:#FFFFFF;" d="M386.709,215.135c0.041,0.314,0.074,0.583,0.098,0.808c0.023,0.225,0.056,0.437,0.097,0.636
			c0.288,1.388,0.78,2.63,1.479,3.728c0.697,1.097,1.539,1.998,2.524,2.701c0.984,0.706,2.085,1.189,3.302,1.455
			c1.215,0.266,2.484,0.262,3.808-0.012c1.763-0.365,3.37-1.07,4.82-2.119c1.449-1.046,2.573-2.366,3.37-3.956l5.634,2.557
			c-0.545,1.148-1.253,2.225-2.124,3.233c-0.872,1.008-1.878,1.923-3.019,2.746c-1.14,0.821-2.39,1.529-3.75,2.121
			c-1.361,0.592-2.78,1.041-4.256,1.346c-2.117,0.438-4.169,0.495-6.155,0.17c-1.986-0.323-3.809-1.015-5.464-2.075
			c-1.656-1.06-3.077-2.484-4.264-4.274c-1.187-1.788-2.035-3.917-2.546-6.387c-0.589-2.843-0.641-5.619-0.155-8.33
			c0.484-2.708,1.422-5.179,2.811-7.408c1.389-2.23,3.184-4.137,5.386-5.72c2.201-1.581,4.713-2.664,7.534-3.248
			c2.183-0.452,4.205-0.485,6.066-0.101c1.86,0.386,3.513,1.06,4.954,2.026c1.441,0.967,2.635,2.178,3.58,3.638
			c0.945,1.459,1.592,3.027,1.938,4.703c0.233,1.123,0.397,2.223,0.493,3.294c0.095,1.072,0.148,2.079,0.158,3.019L386.709,215.135z
			 M396.11,198.913c-1.323,0.274-2.52,0.74-3.591,1.398c-1.07,0.659-2.002,1.461-2.795,2.407c-0.793,0.946-1.447,2-1.965,3.165
			c-0.518,1.165-0.885,2.391-1.102,3.677l19.51-4.038c-0.262-1.372-0.693-2.54-1.295-3.508c-0.604-0.967-1.346-1.722-2.228-2.263
			c-0.883-0.542-1.878-0.881-2.986-1.02C398.549,198.593,397.366,198.653,396.11,198.913z"/>
		<path style="fill:#FFFFFF;" d="M436.883,193.232c-0.457-0.595-1.013-1.061-1.668-1.397c-0.656-0.334-1.388-0.539-2.196-0.613
			c-0.809-0.074-1.653-0.021-2.535,0.162s-1.698,0.461-2.448,0.834c-0.75,0.375-1.379,0.833-1.889,1.374
			c-0.508,0.543-0.871,1.147-1.09,1.812s-0.25,1.374-0.095,2.123c0.183,0.882,0.614,1.557,1.298,2.025
			c0.684,0.469,1.681,0.819,2.994,1.054l6.854,0.96c2.086,0.305,3.79,1.095,5.112,2.373c1.321,1.277,2.202,2.975,2.641,5.091
			c0.393,1.896,0.39,3.632-0.009,5.209c-0.397,1.577-1.113,2.978-2.146,4.203c-1.035,1.227-2.355,2.257-3.963,3.095
			c-1.608,0.839-3.427,1.468-5.454,1.888c-1.235,0.256-2.435,0.401-3.601,0.436c-1.165,0.034-2.27-0.054-3.312-0.262
			c-1.043-0.21-1.986-0.543-2.828-1.001c-0.842-0.458-1.543-1.043-2.104-1.754l-3.505,0.726l0.179-5.968l6.977-1.444
			c0.067,0.882,0.335,1.62,0.804,2.212c0.467,0.594,1.057,1.052,1.767,1.376c0.711,0.324,1.514,0.509,2.408,0.553
			c0.895,0.044,1.815-0.03,2.764-0.227c0.947-0.196,1.81-0.502,2.586-0.915c0.777-0.414,1.426-0.916,1.947-1.506
			c0.521-0.591,0.894-1.267,1.115-2.024c0.223-0.759,0.242-1.579,0.06-2.461c-0.173-0.838-0.629-1.542-1.368-2.114
			c-0.739-0.571-1.782-0.947-3.13-1.127l-6.543-0.956c-2.122-0.366-3.865-1.183-5.231-2.451c-1.366-1.27-2.241-2.831-2.624-4.682
			c-0.338-1.631-0.36-3.178-0.064-4.642c0.294-1.463,0.903-2.795,1.827-3.999c0.924-1.203,2.179-2.245,3.768-3.125
			c1.587-0.88,3.506-1.553,5.754-2.018c1.301-0.27,2.528-0.391,3.683-0.366c1.155,0.025,2.208,0.169,3.159,0.433
			c0.951,0.263,1.795,0.623,2.533,1.079c0.739,0.458,1.365,0.988,1.882,1.593l3.704-0.767l-0.179,5.968l-6.846,1.417
			C437.668,194.552,437.339,193.827,436.883,193.232z"/>
	</g>
</g>
<g>
	<path style="fill:#A37B7B;" d="M93.693,180.847l4.834-0.951l-0.052,1.386c0.494-0.608,1.066-1.119,1.716-1.532
		s1.365-0.697,2.148-0.851c0.883-0.173,1.681-0.145,2.392,0.087c0.712,0.232,1.272,0.684,1.681,1.355
		c0.246-0.376,0.527-0.732,0.842-1.067c0.314-0.334,0.659-0.637,1.033-0.91c0.375-0.273,0.778-0.508,1.211-0.706
		s0.887-0.343,1.361-0.437c0.666-0.131,1.287-0.149,1.863-0.055s1.075,0.312,1.497,0.652c0.422,0.341,0.746,0.805,0.975,1.391
		c0.228,0.587,0.329,1.302,0.306,2.146l-0.21,6.451l1.861-0.367l-0.064,2.245l-4.396,0.865l0.285-8.373
		c0.04-1.028-0.181-1.754-0.662-2.179s-1.181-0.546-2.097-0.366c-0.648,0.128-1.238,0.388-1.766,0.782
		c-0.528,0.394-1.007,0.887-1.435,1.481l-0.31,9.831l-2.535,0.499l0.285-8.373c0.04-1.028-0.182-1.754-0.662-2.178
		c-0.482-0.425-1.18-0.546-2.096-0.366c-0.65,0.128-1.239,0.388-1.768,0.782c-0.527,0.394-1.004,0.892-1.431,1.495l-0.312,9.818
		l-2.535,0.499l0.374-11.283l-2.423,0.477L93.693,180.847z"/>
	<path style="fill:#A37B7B;" d="M129.692,186.296c-0.484,0.484-0.99,0.871-1.517,1.161c-0.527,0.289-1.09,0.493-1.689,0.611
		c-0.708,0.14-1.397,0.132-2.067-0.021c-0.671-0.153-1.278-0.422-1.826-0.808c-0.547-0.386-1.016-0.875-1.404-1.469
		c-0.39-0.594-0.657-1.261-0.804-2.002c-0.237-1.208-0.242-2.357-0.017-3.448c0.227-1.091,0.633-2.07,1.219-2.938
		c0.587-0.868,1.324-1.597,2.216-2.187c0.892-0.591,1.883-0.994,2.974-1.208c0.625-0.123,1.23-0.144,1.817-0.065
		c0.586,0.08,1.084,0.235,1.492,0.465l0.029-0.707l2.511-0.494l-0.374,11.284l2.011-0.396l-0.064,2.244l-4.533,0.892
		L129.692,186.296z M126.65,185.805c0.308-0.061,0.615-0.16,0.921-0.298s0.593-0.294,0.861-0.468
		c0.269-0.174,0.517-0.364,0.745-0.569c0.228-0.205,0.425-0.41,0.592-0.616l0.25-7.237c-0.271-0.232-0.654-0.401-1.15-0.507
		c-0.497-0.105-1.116-0.085-1.857,0.061c-0.642,0.126-1.248,0.381-1.82,0.767c-0.573,0.385-1.057,0.874-1.45,1.466
		c-0.394,0.593-0.674,1.279-0.84,2.06c-0.167,0.781-0.16,1.629,0.021,2.545c0.104,0.533,0.273,0.995,0.506,1.386
		s0.512,0.706,0.835,0.945c0.324,0.239,0.689,0.397,1.1,0.478C125.771,185.898,126.201,185.893,126.65,185.805z"/>
	<path style="fill:#A37B7B;" d="M136.348,172.453l4.885-0.961l-0.052,1.386c0.494-0.607,1.065-1.118,1.716-1.531
		c0.649-0.413,1.365-0.697,2.148-0.851c0.666-0.131,1.287-0.149,1.863-0.055c0.577,0.094,1.076,0.312,1.498,0.652
		c0.422,0.341,0.746,0.805,0.975,1.392c0.228,0.586,0.329,1.301,0.305,2.145l-0.209,6.451l1.836-0.361l-0.064,2.244l-4.371,0.86
		l0.285-8.373c0.04-1.028-0.182-1.754-0.662-2.179c-0.482-0.424-1.181-0.546-2.097-0.366c-0.649,0.128-1.238,0.388-1.767,0.782
		c-0.527,0.394-1.005,0.892-1.431,1.495L140.894,185l-2.535,0.5l0.374-11.283l-2.474,0.486L136.348,172.453z"/>
	<path style="fill:#A37B7B;" d="M153.585,169.061l4.834-0.952l-0.374,11.284l2.073-0.408l-0.064,2.245l-4.609,0.907l0.375-11.283
		l-2.324,0.458L153.585,169.061z M155.074,164.032c-0.045-0.225-0.043-0.446,0.005-0.663s0.133-0.413,0.254-0.589
		c0.122-0.175,0.273-0.326,0.456-0.453c0.183-0.126,0.391-0.213,0.623-0.259c0.226-0.044,0.446-0.042,0.663,0.006
		c0.217,0.048,0.413,0.13,0.588,0.248c0.174,0.117,0.325,0.267,0.451,0.45c0.127,0.183,0.213,0.386,0.257,0.611
		c0.045,0.225,0.043,0.448-0.005,0.669c-0.047,0.221-0.128,0.423-0.243,0.606s-0.265,0.339-0.446,0.47
		c-0.182,0.131-0.385,0.219-0.61,0.263c-0.233,0.046-0.458,0.043-0.676-0.01c-0.219-0.052-0.417-0.14-0.598-0.265
		c-0.18-0.124-0.334-0.28-0.462-0.467C155.204,164.463,155.118,164.257,155.074,164.032z"/>
	<path style="fill:#A37B7B;" d="M162.241,167.357l2.647-0.521l0.075-2.389c0.025-0.835,0.149-1.569,0.371-2.201
		s0.524-1.171,0.907-1.619c0.384-0.447,0.842-0.81,1.376-1.088c0.533-0.278,1.129-0.481,1.787-0.611
		c0.399-0.079,0.772-0.126,1.12-0.142c0.347-0.016,0.665-0.014,0.954,0.006c0.29,0.021,0.552,0.054,0.785,0.099
		c0.234,0.044,0.434,0.094,0.601,0.147l-0.908,2.177c-0.244-0.099-0.567-0.166-0.967-0.199c-0.4-0.034-0.821-0.007-1.262,0.079
		c-0.667,0.131-1.197,0.429-1.59,0.89c-0.394,0.463-0.605,1.164-0.638,2.104l-0.076,2.247l3.521-0.693l-0.089,2.25l-3.497,0.688
		l-0.54,17.426l-2.536,0.499l0.528-17.424l-2.661,0.523L162.241,167.357z"/>
	<path style="fill:#A37B7B;" d="M175.604,171.902c0.014,0.118,0.025,0.219,0.033,0.304c0.009,0.085,0.02,0.165,0.034,0.24
		c0.104,0.524,0.285,0.995,0.544,1.411s0.573,0.758,0.942,1.027c0.368,0.27,0.781,0.456,1.238,0.561
		c0.458,0.105,0.937,0.108,1.436,0.01c0.666-0.131,1.274-0.392,1.825-0.781c0.551-0.389,0.979-0.882,1.285-1.479l2.114,0.985
		c-0.21,0.43-0.48,0.834-0.812,1.211c-0.333,0.377-0.716,0.718-1.148,1.023c-0.433,0.306-0.906,0.568-1.421,0.786
		c-0.516,0.218-1.052,0.382-1.609,0.492c-0.8,0.157-1.573,0.171-2.321,0.042c-0.747-0.129-1.432-0.397-2.052-0.803
		c-0.621-0.406-1.151-0.948-1.592-1.626s-0.753-1.484-0.937-2.417c-0.211-1.074-0.221-2.122-0.027-3.141
		c0.192-1.02,0.555-1.948,1.087-2.783s1.216-1.547,2.052-2.136s1.786-0.987,2.852-1.197c0.824-0.162,1.587-0.167,2.287-0.015
		c0.7,0.152,1.32,0.413,1.86,0.782c0.539,0.369,0.985,0.831,1.337,1.385c0.35,0.553,0.588,1.147,0.713,1.779
		c0.083,0.425,0.141,0.84,0.174,1.244c0.031,0.405,0.048,0.784,0.048,1.139L175.604,171.902z M179.208,165.821
		c-0.5,0.098-0.953,0.27-1.358,0.514c-0.406,0.244-0.761,0.544-1.062,0.896c-0.303,0.354-0.554,0.75-0.753,1.187
		c-0.199,0.438-0.343,0.898-0.429,1.382l7.37-1.451c-0.094-0.518-0.252-0.96-0.476-1.327c-0.225-0.367-0.501-0.654-0.831-0.861
		c-0.331-0.208-0.705-0.339-1.123-0.396C180.129,165.709,179.683,165.728,179.208,165.821z"/>
	<path style="fill:#A37B7B;" d="M194.599,163.831c-0.17-0.226-0.378-0.404-0.624-0.533c-0.245-0.128-0.521-0.208-0.825-0.239
		s-0.623-0.014-0.956,0.052c-0.334,0.066-0.643,0.167-0.926,0.306c-0.284,0.138-0.523,0.308-0.717,0.511s-0.333,0.429-0.418,0.679
		c-0.085,0.251-0.1,0.518-0.043,0.801c0.065,0.333,0.225,0.589,0.481,0.767c0.256,0.179,0.631,0.315,1.124,0.408l2.581,0.388
		c0.784,0.122,1.424,0.427,1.918,0.913c0.493,0.487,0.819,1.13,0.977,1.929c0.142,0.717,0.134,1.371-0.022,1.964
		c-0.156,0.593-0.431,1.119-0.825,1.577c-0.394,0.458-0.896,0.842-1.505,1.152c-0.609,0.31-1.297,0.54-2.062,0.691
		c-0.467,0.092-0.92,0.142-1.359,0.151c-0.439,0.008-0.855-0.029-1.248-0.112c-0.393-0.083-0.746-0.211-1.062-0.388
		c-0.315-0.175-0.577-0.398-0.786-0.669l-1.324,0.261l0.089-2.249l2.636-0.519c0.022,0.333,0.121,0.612,0.295,0.838
		c0.174,0.225,0.395,0.4,0.661,0.525s0.568,0.197,0.905,0.217s0.685-0.005,1.042-0.076c0.358-0.07,0.685-0.182,0.979-0.335
		c0.294-0.153,0.54-0.34,0.739-0.56c0.199-0.221,0.341-0.474,0.428-0.759c0.086-0.285,0.098-0.594,0.032-0.928
		c-0.062-0.316-0.232-0.583-0.509-0.801s-0.668-0.364-1.176-0.437l-2.463-0.385c-0.798-0.146-1.453-0.46-1.963-0.943
		c-0.511-0.484-0.834-1.075-0.972-1.774c-0.122-0.616-0.124-1.199-0.007-1.75c0.115-0.55,0.351-1.051,0.703-1.501
		s0.83-0.838,1.432-1.164s1.327-0.573,2.177-0.74c0.491-0.097,0.954-0.138,1.39-0.124c0.435,0.014,0.832,0.072,1.189,0.174
		c0.357,0.103,0.674,0.241,0.951,0.416c0.276,0.175,0.511,0.377,0.703,0.608l1.398-0.275l-0.089,2.25l-2.586,0.509
		C194.89,164.331,194.77,164.056,194.599,163.831z"/>
	<path style="fill:#A37B7B;" d="M199.862,159.953l2.161-0.425l0.152-3.247l2.424-1.593l-0.166,4.366l2.724-0.536l-0.09,2.25
		l-2.723,0.536l-0.274,7.306c-0.01,0.175-0.016,0.351-0.02,0.529c-0.004,0.179,0.014,0.364,0.051,0.555
		c0.074,0.375,0.229,0.619,0.463,0.733c0.233,0.114,0.571,0.127,1.013,0.041c0.475-0.094,1.018-0.343,1.63-0.749l0.564,1.744
		c-0.4,0.295-0.793,0.543-1.177,0.745c-0.385,0.2-0.826,0.35-1.326,0.448c-0.524,0.104-1.017,0.133-1.475,0.09
		c-0.458-0.044-0.858-0.187-1.199-0.426c-0.342-0.24-0.604-0.59-0.791-1.051c-0.186-0.461-0.269-1.056-0.248-1.787l0.354-7.698
		l-2.136,0.42L199.862,159.953z"/>
	<path style="fill:#A37B7B;" d="M212.588,164.624c0.015,0.118,0.026,0.22,0.034,0.304c0.008,0.085,0.019,0.165,0.034,0.24
		c0.103,0.524,0.284,0.995,0.544,1.411c0.259,0.416,0.572,0.759,0.941,1.028c0.368,0.27,0.781,0.456,1.239,0.561
		c0.457,0.104,0.936,0.108,1.436,0.01c0.666-0.131,1.273-0.392,1.825-0.781c0.55-0.389,0.979-0.882,1.284-1.479l2.114,0.984
		c-0.209,0.431-0.479,0.834-0.812,1.211c-0.332,0.377-0.715,0.719-1.147,1.023c-0.433,0.307-0.906,0.568-1.422,0.786
		c-0.515,0.219-1.052,0.382-1.609,0.492c-0.799,0.158-1.573,0.172-2.32,0.042c-0.748-0.129-1.432-0.397-2.053-0.803
		c-0.62-0.405-1.15-0.948-1.591-1.626s-0.753-1.484-0.937-2.417c-0.211-1.074-0.221-2.121-0.028-3.141
		c0.193-1.02,0.556-1.947,1.087-2.783c0.532-0.835,1.216-1.548,2.052-2.136c0.836-0.588,1.786-0.987,2.853-1.197
		c0.824-0.162,1.586-0.167,2.287-0.015c0.699,0.152,1.32,0.412,1.859,0.782c0.54,0.37,0.985,0.831,1.337,1.385
		c0.351,0.553,0.589,1.147,0.713,1.779c0.084,0.425,0.142,0.84,0.174,1.244c0.032,0.405,0.049,0.784,0.049,1.139L212.588,164.624z
		 M216.191,158.543c-0.499,0.098-0.952,0.27-1.357,0.514c-0.406,0.244-0.762,0.543-1.063,0.896
		c-0.302,0.354-0.553,0.749-0.752,1.186c-0.199,0.438-0.343,0.898-0.429,1.382l7.369-1.45c-0.094-0.518-0.252-0.96-0.476-1.327
		s-0.501-0.654-0.831-0.861c-0.331-0.208-0.705-0.339-1.123-0.396C217.112,158.431,216.667,158.449,216.191,158.543z"/>
	<path style="fill:#A37B7B;" d="M230.732,172.106c-0.502-0.576-0.979-1.213-1.427-1.912c-0.449-0.699-0.858-1.436-1.227-2.211
		c-0.369-0.775-0.692-1.581-0.969-2.417c-0.277-0.836-0.501-1.688-0.672-2.554c-0.332-1.69-0.467-3.34-0.402-4.948
		c0.063-1.608,0.316-3.18,0.758-4.716c0.442-1.536,1.019-2.99,1.73-4.363c0.711-1.373,1.604-2.717,2.677-4.036l1.853,1.244
		c-0.947,1.293-1.733,2.527-2.359,3.702c-0.625,1.173-1.118,2.458-1.479,3.852s-0.569,2.811-0.624,4.249
		c-0.054,1.437,0.066,2.906,0.361,4.405c0.151,0.766,0.34,1.518,0.567,2.256c0.228,0.738,0.489,1.443,0.786,2.116
		c0.297,0.673,0.629,1.308,0.998,1.906c0.368,0.598,0.766,1.145,1.191,1.64L230.732,172.106z"/>
	<path style="fill:#A37B7B;" d="M241.888,154.524c-0.17-0.226-0.378-0.403-0.624-0.533c-0.245-0.128-0.521-0.208-0.825-0.239
		s-0.624-0.014-0.956,0.052c-0.334,0.066-0.643,0.167-0.926,0.306c-0.285,0.138-0.523,0.308-0.717,0.511
		c-0.194,0.203-0.334,0.429-0.418,0.679c-0.086,0.251-0.1,0.518-0.044,0.801c0.065,0.333,0.226,0.589,0.481,0.767
		c0.256,0.179,0.631,0.315,1.125,0.408l2.58,0.388c0.785,0.122,1.425,0.427,1.919,0.913c0.493,0.487,0.819,1.13,0.977,1.929
		c0.141,0.717,0.133,1.371-0.022,1.964c-0.156,0.593-0.432,1.119-0.825,1.577c-0.394,0.458-0.896,0.842-1.505,1.152
		s-1.297,0.54-2.063,0.691c-0.467,0.092-0.919,0.142-1.358,0.151c-0.439,0.008-0.855-0.029-1.248-0.112s-0.746-0.211-1.062-0.388
		c-0.315-0.175-0.578-0.398-0.787-0.669l-1.323,0.261l0.089-2.249l2.636-0.519c0.022,0.333,0.12,0.612,0.294,0.838
		c0.175,0.225,0.395,0.4,0.662,0.525c0.266,0.125,0.568,0.197,0.905,0.217s0.685-0.005,1.042-0.076
		c0.358-0.07,0.685-0.182,0.979-0.335c0.295-0.153,0.541-0.34,0.739-0.56c0.199-0.221,0.342-0.474,0.429-0.759
		c0.086-0.285,0.097-0.594,0.031-0.928c-0.062-0.316-0.231-0.583-0.508-0.801c-0.276-0.218-0.668-0.364-1.176-0.437l-2.463-0.385
		c-0.799-0.146-1.453-0.46-1.963-0.943c-0.511-0.484-0.834-1.075-0.972-1.774c-0.122-0.616-0.125-1.199-0.008-1.75
		c0.116-0.55,0.352-1.051,0.704-1.501c0.352-0.45,0.829-0.838,1.431-1.164c0.603-0.326,1.328-0.573,2.177-0.74
		c0.491-0.097,0.955-0.138,1.391-0.124c0.435,0.014,0.831,0.072,1.188,0.174c0.358,0.103,0.675,0.241,0.951,0.416
		c0.276,0.175,0.511,0.377,0.703,0.608l1.399-0.275l-0.089,2.25l-2.586,0.509C242.179,155.024,242.058,154.75,241.888,154.524z"/>
	<path style="fill:#A37B7B;" d="M249.187,141.475c0.511,0.574,0.99,1.209,1.438,1.903c0.448,0.695,0.855,1.432,1.221,2.212
		c0.365,0.78,0.686,1.588,0.964,2.424c0.276,0.837,0.5,1.688,0.671,2.554c0.316,1.607,0.418,3.179,0.305,4.714
		c-0.113,1.536-0.405,3.051-0.877,4.545c-0.471,1.494-1.099,2.974-1.883,4.438c-0.785,1.465-1.69,2.926-2.719,4.382l-1.659-1.114
		c0.895-1.3,1.677-2.622,2.347-3.965s1.196-2.698,1.58-4.066c0.384-1.369,0.615-2.749,0.697-4.14
		c0.08-1.392-0.018-2.791-0.295-4.198c-0.15-0.767-0.339-1.516-0.565-2.25c-0.227-0.733-0.491-1.438-0.792-2.114
		c-0.303-0.675-0.638-1.312-1.006-1.911c-0.369-0.597-0.766-1.144-1.191-1.64L249.187,141.475z"/>
</g>
<ellipse transform="matrix(0.9842 0.1773 -0.1773 0.9842 48.4779 -26.7543)" style="fill:#A37B7B;" cx="173.917" cy="257.833" rx="5.083" ry="6"/>
<g>
	<path style="fill:#FFCC33;" d="M111.135,104.362c0.116-1.217,0.748-1.955,0.888-2.579c0.288-1.206,1.794-1.145,2.74-0.423
		c0.652,0.52,1.071,1.167,1.388,1.834c0.737,1.55,0.23,3.075-0.649,4.435c-0.366,0.559-1.436,0.779-2.05,0.574
		C111.893,107.638,110.972,106.016,111.135,104.362z M113.714,103.071c-0.542-0.39-2.242,2.873,0.017,2.966
		C115.279,106.09,115.055,104.082,113.714,103.071z"/>
	<path style="fill:#FFCC33;" d="M117.112,102.162c0.132-0.666,1.313-0.863,1.649-0.201c0.241,0.49,0.006,1.068,0.106,1.603
		c0.098,0.068,0.251,0.317,0.232,0.213c0.471-1.261,0.848-2.676,2.415-2.52c1.477,1.626,1.795,3.917,2.286,5.981
		c0.148,0.335,0.259,0.935-0.073,1.104c-0.51,0.243-1.256,0.596-1.438,0.074c-0.591-1.684-0.712-3.369-1.374-4.977
		c-0.821,1.328-0.67,2.943-1.239,4.48c-0.209,0.594-1.082,0.842-1.444,0.269c-0.435-0.73-0.409-1.738-0.57-2.606
		C117.452,104.448,116.938,103.177,117.112,102.162z"/>
	<path style="fill:#FFCC33;" d="M127.812,98.592c0.859-1.121,2.328-0.112,2.371,1.268c1.201-0.436,1.184-2.248,2.726-2.107
		c0.554,0.109,1.237,0.218,0.915,0.896c-0.611,1.31-1.754,2.057-2.37,3.452c-0.212,0.467,0.088,1.052-0.041,1.503
		c-0.149,0.349-0.053,0.864,0.456,1.304c0.509,0.438,0.598,1.49,0.177,2.102c-0.298,0.697-1.227,0.87-1.736,0.43
		c-0.348-0.148-0.426-0.454-0.482-0.871c-0.225-1.667-0.736-3.386-1.25-5C128.263,100.56,127.037,99.591,127.812,98.592z"/>
	<path style="fill:#FFCC33;" d="M137,92.528c0.358,0.318,2.982,4.208,3.041,4.412c-0.165,0.031-0.162,0.393-0.359,0.365
		c-0.25-0.081-1.027,0.105-1.12-0.048c-0.544-0.86-1.099-1.545-1.692-2.098c-0.387,1.247-0.743,1.634-1.479,2.731
		c-0.181,0.291-0.84,0.306-1.152,0.235c-0.402-0.096-0.315-0.433-0.192-0.69c0.869-1.87,1.557-3.108,2.116-4.813
		c-0.012-0.062,0.227-0.042,0.413-0.077C136.679,92.524,136.865,92.49,137,92.528z M137.766,97.106
		c1.653-0.073,3.406,1.203,3.708,2.941c-0.146,1.052-2.301,2.328-2.947,3.217c-0.079,0.037-0.413,0.311-0.25,0.496
		c0.956,1.125,2.173,0.32,3.219-0.492c0.843,0.399,0.681,1.71-0.143,1.992c-0.902,0.317-1.868,0.753-2.939,0.503
		c-2.237-0.545-3.125-2.793-3.534-4.768C134.458,98.958,135.689,97.192,137.766,97.106z M139.313,99.915
		c0.263-1.117-1.551-1.335-2.296-0.749c-0.82,0.644-0.195,2.514,0.309,2.464C138.288,101.408,139.188,100.962,139.313,99.915z"/>
	<path style="fill:#FFCC33;" d="M141.243,97.42c-0.632-1.099,1.292-1.778,1.845-1.218c1.144,0.982,1.577,2.738,2.761,3.821
		c0.723-1.971,0.827-4.169,1.1-6.376c0.113-1.002,1.534-1.054,2.396-0.551c0.142,0.187-0.007,0.535,0.031,0.742
		c-0.085,0.228-0.357,0.494-0.418,0.739c-0.235,2.755-0.72,5.43-1.53,8.08c-0.15,0.454-0.999,1.061-1.508,0.622
		c-1.229-0.754-1.999-2.021-2.77-3.181C142.458,99.245,141.746,98.288,141.243,97.42z"/>
	<path style="fill:#FFCC33;" d="M153.643,94.155c1.652-0.073,3.406,1.203,3.707,2.941c-0.146,1.052-2.301,2.328-2.947,3.217
		c-0.079,0.037-0.412,0.311-0.25,0.496c0.956,1.125,2.174,0.321,3.219-0.492c0.843,0.399,0.681,1.71-0.143,1.992
		c-0.902,0.317-1.868,0.753-2.939,0.503c-2.237-0.545-3.125-2.793-3.534-4.768C150.335,96.007,151.566,94.241,153.643,94.155z
		 M155.19,96.964c0.263-1.117-1.551-1.335-2.296-0.749c-0.82,0.644-0.195,2.514,0.309,2.464
		C154.165,98.457,155.065,98.012,155.19,96.964z"/>
	<path style="fill:#FFCC33;" d="M165.61,92.123c0.419-0.505,0.013-1.54,0.192-2.3c0.197-0.549,0.719-1.073,1.253-0.958
		c0.225,0.064,0.758,0.285,0.748,0.693c-0.591,3.483,0.176,7.036,1.423,10.413c0.035,0.186-0.403,0.588-0.713,0.646
		c-0.869,0.268-1.11-1.033-1.625-1.043c-0.805,0.15-1.568,0.527-2.428,0.152c-1.139-0.494-2.548-0.957-2.829-2.465
		C161.152,94.681,164.259,93.697,165.61,92.123z M166.333,97.733c-0.408-1.162-0.219-2.33-0.438-3.507
		c-1.094,0.204-2.675,1.118-2.231,2.358C163.992,97.548,165.312,98.329,166.333,97.733z"/>
	<path style="fill:#FFCC33;" d="M172.1,90.724c1.652-0.073,3.406,1.203,3.708,2.941c-0.146,1.052-2.301,2.328-2.947,3.217
		c-0.079,0.037-0.412,0.311-0.25,0.496c0.956,1.125,2.174,0.321,3.219-0.492c0.843,0.399,0.681,1.71-0.143,1.992
		c-0.901,0.317-1.867,0.753-2.938,0.503c-2.237-0.545-3.125-2.793-3.534-4.768C168.793,92.577,170.023,90.81,172.1,90.724z
		 M173.647,93.533c0.263-1.117-1.55-1.335-2.295-0.749c-0.82,0.644-0.195,2.514,0.309,2.464
		C172.623,95.026,173.522,94.581,173.647,93.533z"/>
	<path style="fill:#FFCC33;" d="M184.284,88.587c0.27-0.733,1.465-0.848,1.76-0.413c1.413,2.088-0.674,6.255,1.671,10.025
		c0.375,0.636,1.314,0.29,1.431-0.115c0.135-0.539,0.321-1.833,1.167-1.648c1.207,0.288,0.782,0.88,0.521,1.996
		c-0.321,1.49-2.086,2.224-3.49,1.909c-0.915-0.214-1.645-1.039-1.885-1.87c-0.188-1.012-0.192-2.186-0.655-2.954
		c-0.254-0.444-0.978,0.375-1.486,0.276c-0.508-0.205-1.046,0.001-1.472-0.218c-0.578-0.469-1.22-0.82-1.509-1.342
		c-0.529-0.778-0.683-1.604-0.551-2.504c0.046-1.246,0.719-2.333,1.829-3.029C182.419,88.208,183.505,87.963,184.284,88.587z
		 M183.159,94.371c0.529,0.2,1.174-0.005,1.314-0.629c0.244-0.985-0.072-1.994-0.245-2.924c-0.103-0.557-0.887-1.094-1.611-0.853
		c-0.253,0.132-0.322,0.337-0.473,0.557C181.204,91.893,181.72,93.87,183.159,94.371z"/>
	<path style="fill:#FFCC33;" d="M187.903,87.487c0.665-0.443,1.735-0.429,1.87,0.294c0.25,1.342,0.296,2.743,0.752,4.046
		c0.36,0.788,0.956,2.727,1.661,2.041c1.549-1.548,1.522-4.448-0.084-6.199c-0.402-0.438-0.865-1.206-0.392-1.529
		c1.334-0.867,2.749,0.77,3.041,1.998c0.609,2.47,0.496,5.651-1.574,7.041c-3.25,2.163-5.11-2.788-5.425-5.633
		C187.659,88.814,187.36,88.015,187.903,87.487z"/>
	<path style="fill:#FFCC33;" d="M195.536,88.675c0.115-1.218,0.747-1.955,0.887-2.579c0.289-1.206,1.794-1.145,2.74-0.423
		c0.652,0.519,1.071,1.167,1.387,1.834c0.737,1.55,0.23,3.075-0.649,4.435c-0.366,0.559-1.436,0.779-2.05,0.574
		C196.294,91.951,195.373,90.329,195.536,88.675z M198.114,87.383c-0.542-0.39-2.242,2.873,0.017,2.966
		C199.679,90.403,199.456,88.394,198.114,87.383z"/>
	<path style="fill:#FFCC33;" d="M201.542,82.838c0.571-0.49,1.421-0.628,1.893-0.159c0.475,0.487,0.091,1.521-0.243,1.795
		c-0.429,0.336-1.084,0.372-1.659-0.075C201.126,84.048,201.287,83.079,201.542,82.838z M201.818,86.738
		c0.169-0.587,0.857-0.907,1.526-0.754c0.402,0.096,0.924,0.491,0.638,0.907c-0.471,1.027,0.069,1.866-0.049,2.722
		c-0.167,1.055,0.621,1.848,0.537,2.89c0.016,0.083-0.054,0.287-0.136,0.302c-0.605,0.306-1.374,0.534-1.699-0.067
		c-0.57-1.113-0.536-2.421-0.751-3.578C201.73,88.333,201.581,87.529,201.818,86.738z"/>
	<path style="fill:#FFCC33;" d="M209.026,86.103c0.222-1.792,2.819-2.062,3.288-4.028c-1.432-0.46-2.973-0.366-4.404-0.825
		c-0.534-0.115-0.477-0.958-0.035-1.339c0.477-0.195,0.969-0.416,1.507-0.28c1.511,0.317,3.055,0.351,4.564,1.115
		c0.22,0.151,0.606,0.507,0.542,0.733c-0.143,1.992-2.316,2.929-3.072,4.607c-0.488,1.051,1.338,2.143,0.676,3.185
		c-0.146,0.239-0.745,0.351-1.094,0.203C209.697,88.904,208.881,87.39,209.026,86.103z M211.773,90.888
		c0.615-0.028,0.938,0.445,0.803,0.982c-0.154,0.67-1.119,1.106-1.704,0.83c-0.655-0.306-0.782-0.88-0.261-1.404
		C210.937,90.979,211.382,90.961,211.773,90.888z"/>
</g>
<g>
	<g>
		<path style="fill:#FFCC33;" d="M279.103,318.324c0.085-1.22,0.698-1.972,0.823-2.6c0.258-1.213,1.765-1.189,2.729-0.492
			c0.663,0.503,1.101,1.141,1.433,1.8c0.774,1.531,0.307,3.068-0.538,4.449c-0.353,0.569-1.416,0.815-2.036,0.625
			C279.942,321.58,278.98,319.981,279.103,318.324z M281.648,316.969c-0.553-0.377-2.17,2.928,0.092,2.964
			C283.288,319.948,283.014,317.946,281.648,316.969z"/>
		<path style="fill:#FFCC33;" d="M285.022,315.975c0.116-0.668,1.291-0.896,1.645-0.241c0.253,0.483,0.033,1.066,0.146,1.601
			c0.1,0.064,0.259,0.31,0.237,0.207c0.438-1.273,0.78-2.698,2.35-2.58c1.517,1.589,1.894,3.87,2.436,5.923
			c0.156,0.332,0.282,0.928-0.045,1.104c-0.504,0.257-1.24,0.627-1.436,0.111c-0.632-1.668-0.796-3.351-1.497-4.941
			c-0.789,1.348-0.598,2.959-1.127,4.51c-0.194,0.599-1.061,0.869-1.438,0.305c-0.453-0.719-0.452-1.728-0.635-2.591
			C285.419,318.251,284.874,316.994,285.022,315.975z"/>
		<path style="fill:#FFCC33;" d="M295.317,308.943c0.22-0.883,1.718-1.416,2.057-0.221c0.063,0.202,0.027,0.638,0.071,0.844
			c0.305,1.438,0.714,2.96,0.931,4.396c0.355,2.286,1.491,4.405,0.979,6.639c-0.154,0.698-0.877,0.83-1.538,0.648
			c-0.351-0.141-0.583-0.628-0.547-1.065c0.165-2.16-0.455-4.174-0.805-6.333C296.178,312.195,294.903,310.534,295.317,308.943z"/>
		<path style="fill:#FFCC33;" d="M302.976,310.948c1.65-0.113,3.435,1.118,3.779,2.848c-0.12,1.055-2.242,2.385-2.865,3.29
			c-0.077,0.038-0.404,0.322-0.236,0.501c0.983,1.101,2.181,0.268,3.205-0.572c0.853,0.377,0.724,1.692-0.093,1.994
			c-0.895,0.339-1.849,0.799-2.926,0.577c-2.25-0.489-3.193-2.715-3.652-4.678C299.716,312.883,300.902,311.086,302.976,310.948z
			 M304.592,313.717c0.235-1.123-1.583-1.295-2.313-0.69c-0.804,0.664-0.132,2.518,0.37,2.455
			C303.605,315.236,304.493,314.769,304.592,313.717z"/>
		<path style="fill:#FFCC33;" d="M311.63,306.603c1.129-1.656,3.964-2.965,5.117-0.762c0.12,0.361-0.131,0.8-0.514,0.817
			c-0.864,0.076-1.71-0.174-2.528,0.321c-2.168,1.318-1.29,3.943-0.035,5.609c0.783-0.359,2.378-1.942,3.299-1.857
			c0.397-0.042,0.658,0.375,0.576,0.8c-0.142,0.953-2.796,1.794-2.78,2.478c0.019,0.897,1.358,1.344,1.833,2.166
			c0.38,0.478-0.722,1.054-1.258,0.953c-1.141-0.424-1.478-1.705-2.514-2.042c-0.199-0.023-0.702,0.234-1.119,0.194
			c-0.282,0.081-0.522-0.34-0.521-0.641c0.144-0.438,0.861-0.59,0.704-1.136c-0.335-1.174-1.094-2.323-1.228-3.561
			C310.541,308.658,310.974,307.558,311.63,306.603z"/>
		<path style="fill:#FFCC33;" d="M323.68,315.661c-1.516,0.042-3.141,0.473-4.255-0.729c-0.71-0.622-0.794-2.128-0.423-2.915
			c1.189-2.591,4.233-2.506,4.261-2.577c0.125-0.327,0.052-1.277-0.417-1.264c-1.27-0.01-1.911,0.706-2.922,1.306
			c-0.761,0.462-1.299-1.163-1.152-1.387c1.266-1.32,4.204-2.543,5.538-0.809c1.191,1.572,0.575,3.526,0.836,5.467
			c0.183,1.271,0.64,4.028-0.651,3.508C324.098,316.109,323.968,315.6,323.68,315.661z M323.265,310.963
			c-1.097,0.705-3.245,0.795-2.912,2.57c0.171,0.909,3.163,0.747,3.245,0.321C323.562,312.767,323.946,311.956,323.265,310.963z"/>
		<path style="fill:#FFCC33;" d="M325.638,303.721c0.558-0.504,1.404-0.663,1.887-0.207c0.488,0.476,0.129,1.518-0.197,1.801
			c-0.42,0.347-1.075,0.399-1.661-0.034C325.251,304.94,325.388,303.967,325.638,303.721z M326.011,307.612
			c0.154-0.591,0.834-0.928,1.506-0.791c0.405,0.085,0.937,0.467,0.661,0.89c-0.444,1.039,0.115,1.864,0.019,2.722
			c-0.14,1.06,0.667,1.833,0.609,2.875c0.018,0.083-0.046,0.289-0.128,0.307c-0.598,0.32-1.361,0.567-1.702-0.026
			c-0.596-1.097-0.595-2.407-0.839-3.556C325.963,309.21,325.793,308.41,326.011,307.612z"/>
		<path style="fill:#FFCC33;" d="M331.524,302.538c-0.106-1.007,1.188-1.281,2.073-0.954c0.125,0.081,0.292,0.367,0.251,0.676
			c-0.322,1.42-0.21,2.963,0.086,4.36c1.088-0.337,3.156-1.312,3.04,0.064c-0.095,1.072-1.974,1.32-3.062,1.55
			c0.09,1.333,1.965,6.838,2.157,8.15c0.062,0.395-0.161,0.764-0.572,0.851c-0.492,0.104-0.729,0.004-1.002-0.475
			c-0.68-1.079-1.817-7.062-2.645-8.024c-0.654,0.761-2.029,1.567-2.654,0.541c-0.163-0.266,0.059-0.742,0.322-1.013
			c0.697-0.556,1.829-0.688,2.195-1.388c0.286-0.576-0.008-1.458-0.054-2.178C331.61,303.958,331.591,303.253,331.524,302.538z"/>
		<path style="fill:#FFCC33;" d="M344.158,309.176c0.071,0.843,0.89,1.571,0.153,2.243c-0.991,0.896-1.772-0.161-2.179-1.062
			c-0.175-0.822,0.744-1.553,1.593-1.196C343.865,309.216,344.056,309.198,344.158,309.176z M342.442,306.341
			c-0.198-2.555-0.328-4.888-0.017-7.465c0.134-0.994,1.718-1.008,1.788-0.272c0.372,2.97-0.151,6.171,0.057,9.282
			c0.108,0.514-0.476,0.487-1.033,0.39C342.259,308.119,342.517,307.098,342.442,306.341z"/>
	</g>
</g>
<g>
	<path style="fill:none;stroke:#FFD01F;stroke-width:2;stroke-miterlimit:10;" d="M416.667,239.333
		C414,270,393.334,299.15,361.627,300.667"/>
	<polyline style="fill:none;stroke:#FFD01F;stroke-width:2;stroke-miterlimit:10;" points="368.621,304.438 360.633,301.247 
		366.588,293.862 	"/>
</g>
<g>
	<path style="fill:none;stroke:#FFD01F;stroke-width:2;stroke-miterlimit:10;" d="M60.234,208.494
		c-16-35.333,0.612-80.494,35.1-97.179"/>
	<polyline style="fill:none;stroke:#FFD01F;stroke-width:2;stroke-miterlimit:10;" points="87.531,109.419 96.05,110.617 
		92.025,119.208 	"/>
</g>
</svg>
