<?xml version="1.0" encoding="utf-8"?>
<!-- Generator: Adobe Illustrator 15.0.0, SVG Export Plug-In . SVG Version: 6.00 Build 0)  -->
<!DOCTYPE svg PUBLIC "-//W3C//DTD SVG 1.1//EN" "http://www.w3.org/Graphics/SVG/1.1/DTD/svg11.dtd">
<svg version="1.1" id="Layer_1" xmlns="http://www.w3.org/2000/svg" xmlns:xlink="http://www.w3.org/1999/xlink" x="0px" y="0px"
	 width="1792px" height="1792px" viewBox="0 0 1792 1792" enable-background="new 0 0 1792 1792" xml:space="preserve">
<path fill="#ABABAB" d="M1408,928v320c0,79.333-28.167,147.167-84.5,203.5c-56.334,56.333-124.167,84.5-203.5,84.5H288
	c-79.334,0-147.167-28.167-203.5-84.5C28.166,1395.167,0,1327.333,0,1248V416c0-79.333,28.166-147.167,84.5-203.5
	C140.833,156.167,208.666,128,288,128h704c9.333,0,17,3,23,9s9,13.667,9,23v64c0,9.333-3,17-9,23s-13.667,9-23,9H288
	c-44,0-81.667,15.667-113,47c-31.334,31.333-47,69-47,113v832c0,44,15.666,81.667,47,113c31.333,31.333,69,47,113,47h832
	c44,0,81.666-15.667,113-47c31.333-31.333,47-69,47-113V928c0-9.333,3-17,9-23s13.666-9,23-9h64c9.333,0,17,3,23,9
	S1408,918.667,1408,928z M1792,64v512c0,17.333-6.334,32.333-19,45c-12.667,12.667-27.667,19-45,19c-17.334,0-32.334-6.333-45-19
	l-176-176l-652,652c-6.667,6.667-14.334,10-23,10c-8.667,0-16.334-3.333-23-10L695,983c-6.667-6.667-10-14.333-10-23
	s3.333-16.333,10-23l652-652l-176-176c-12.667-12.667-19-27.667-19-45s6.333-32.333,19-45c12.666-12.667,27.666-19,45-19h512
	c17.333,0,32.333,6.333,45,19C1785.666,31.667,1792,46.667,1792,64z"/>
</svg>
