<?xml version="1.0" encoding="utf-8"?>
<!-- Generator: Adobe Illustrator 15.0.0, SVG Export Plug-In . SVG Version: 6.00 Build 0)  -->
<!DOCTYPE svg PUBLIC "-//W3C//DTD SVG 1.1//EN" "http://www.w3.org/Graphics/SVG/1.1/DTD/svg11.dtd">
<svg version="1.1" id="Layer_1" xmlns="http://www.w3.org/2000/svg" xmlns:xlink="http://www.w3.org/1999/xlink" x="0px" y="0px"
	 width="1792px" height="1792px" viewBox="0 0 1792 1792" enable-background="new 0 0 1792 1792" xml:space="preserve">
<path fill="#ABABAB" d="M448,1536h896v-256H448V1536z M448,896h896V512h-160c-26.667,0-49.334-9.333-68-28
	c-18.667-18.667-28-41.333-28-68V256H448V896z M1600,960c0-17.333-6.334-32.333-19-45c-12.667-12.667-27.667-19-45-19
	c-17.334,0-32.334,6.333-45,19c-12.667,12.667-19,27.667-19,45s6.333,32.333,19,45c12.666,12.667,27.666,19,45,19
	c17.333,0,32.333-6.333,45-19C1593.666,992.333,1600,977.333,1600,960z M1728,960v416c0,8.667-3.167,16.167-9.5,22.5
	c-6.334,6.333-13.834,9.5-22.5,9.5h-224v160c0,26.667-9.334,49.333-28,68c-18.667,18.667-41.334,28-68,28H416
	c-26.667,0-49.334-9.333-68-28c-18.667-18.667-28-41.333-28-68v-160H96c-8.667,0-16.167-3.167-22.5-9.5
	c-6.334-6.333-9.5-13.833-9.5-22.5V960c0-52.667,18.833-97.833,56.5-135.5C158.166,786.833,203.333,768,256,768h64V224
	c0-26.667,9.333-49.333,28-68c18.666-18.667,41.333-28,68-28h672c26.666,0,56,6.667,88,20s57.333,29.333,76,48l152,152
	c18.666,18.667,34.666,44,48,76c13.333,32,20,61.333,20,88v256h64c52.666,0,97.833,18.833,135.5,56.5
	C1709.166,862.167,1728,907.333,1728,960z"/>
</svg>
