<?xml version="1.0" encoding="utf-8"?>
<!-- Generator: Adobe Illustrator 15.0.0, SVG Export Plug-In . SVG Version: 6.00 Build 0)  -->
<!DOCTYPE svg PUBLIC "-//W3C//DTD SVG 1.1//EN" "http://www.w3.org/Graphics/SVG/1.1/DTD/svg11.dtd">
<svg version="1.1" id="Layer_1" xmlns="http://www.w3.org/2000/svg" xmlns:xlink="http://www.w3.org/1999/xlink" x="0px" y="0px"
	 width="1792px" height="1792px" viewBox="0 0 1792 1792" enable-background="new 0 0 1792 1792" xml:space="preserve">
<path fill="#883E3E" d="M1520,1216c0-26.667-9.334-49.333-28-68l-208-208c-18.667-18.667-41.334-28-68-28c-28,0-52,10.667-72,32
	c2,2,8.333,8.167,19,18.5c10.666,10.333,17.833,17.5,21.5,21.5c3.666,4,8.666,10.333,15,19c6.333,8.667,10.666,17.167,13,25.5
	c2.333,8.333,3.5,17.5,3.5,27.5c0,26.667-9.334,49.333-28,68c-18.667,18.667-41.334,28-68,28c-10,0-19.167-1.167-27.5-3.5
	c-8.334-2.333-16.834-6.667-25.5-13c-8.667-6.333-15-11.333-19-15s-11.167-10.833-21.5-21.5c-10.334-10.667-16.5-17-18.5-19
	c-22,20.667-33,45-33,73c0,26.667,9.333,49.333,28,68l206,207c18,18,40.666,27,68,27c26.666,0,49.333-8.667,68-26l147-146
	C1510.666,1264.333,1520,1242,1520,1216z M817,511c0-26.667-9.334-49.333-28-68L583,236c-18.667-18.667-41.334-28-68-28
	c-26,0-48.667,9-68,27L300,381c-18.667,18.667-28,41-28,67c0,26.667,9.333,49.333,28,68l208,208c18,18,40.666,27,68,27
	c28,0,52-10.333,72-31c-2-2-8.334-8.167-19-18.5c-10.667-10.333-17.834-17.5-21.5-21.5c-3.667-4-8.667-10.333-15-19
	c-6.334-8.667-10.667-17.167-13-25.5c-2.334-8.333-3.5-17.5-3.5-27.5c0-26.667,9.333-49.333,28-68c18.666-18.667,41.333-28,68-28
	c10,0,19.166,1.167,27.5,3.5c8.333,2.333,16.833,6.667,25.5,13c8.666,6.333,15,11.333,19,15s11.166,10.833,21.5,21.5
	c10.333,10.667,16.5,17,18.5,19C806,563.333,817,539,817,511z M1712,1216c0,80-28.334,147.667-85,203l-147,146
	c-55.334,55.333-123,83-203,83c-80.667,0-148.667-28.333-204-85l-206-207c-55.334-55.333-83-123-83-203c0-82,29.333-151.667,88-209
	l-88-88c-57.334,58.667-126.667,88-208,88c-80,0-148-28-204-84L164,652c-56-56-84-124-84-204s28.333-147.667,85-203L312,99
	c55.333-55.333,123-83,203-83c80.666,0,148.666,28.333,204,85l206,207c55.333,55.333,83,123,83,203c0,82-29.334,151.667-88,209
	l88,88c57.333-58.667,126.666-88,208-88c80,0,148,28,204,84l208,208C1684,1068,1712,1136,1712,1216z"/>
</svg>
